<svg id="logo-euproria" xmlns="http://www.w3.org/2000/svg" width="168" height="84" viewBox="0 0 168 84">
  <rect id="boundingbox" width="168" height="84" fill="#fff" opacity="0"/>
  <path id="Union_28" data-name="Union 28" d="M83.075,5.987c0-3.884,3.614-5.845,7.894-5.845,4.262,0,7.823,1.925,7.823,5.809,0,3.956-3.506,5.827-7.823,5.827S83.075,9.943,83.075,5.987Zm1.942-.036c0,2.914,2.3,4.37,5.916,4.37S96.848,8.9,96.848,5.987c0-2.84-2.3-4.387-5.916-4.387S85.017,3.11,85.017,5.951ZM19.257,6.8V.341H21.11V6.6c0,2.625,1.241,3.722,5,3.722s5-1.078,5-3.686V.341H32.96V6.76c0,3.452-2.284,5.017-6.815,5.017S19.257,10.249,19.257,6.8Zm131,4.766-1.492-2.176h-8.991l-1.456,2.176h-1.907L144.176,0h.143l7.931,11.562Zm-9.477-3.687h6.942l-3.506-5.107Zm-13.234,3.686V.341H129.4v11.22Zm-9.907,0L113.59,7.1h-5.413v4.46h-1.852V.342h7.841c3.542,0,5.394.988,5.394,3.344,0,1.906-1.33,3.022-3.83,3.327l4.118,4.549Zm-9.459-5.9h5.791c2.445,0,3.686-.431,3.686-1.906s-1.115-1.888-3.686-1.888h-5.791Zm-34.488,5.9V6.653h-9.8v4.909H62.036V.341h1.852V5.053h9.8V.341h1.851v11.22Zm-32.548,0V.34h7.732c3.722,0,5.5,1.08,5.5,3.47s-1.78,3.7-5.5,3.7h-5.88v4.046Zm1.852-5.539h5.682c2.625,0,3.793-.576,3.793-2.121s-1.042-2.032-3.793-2.032H42.994ZM0,11.561V.341H11.472v1.6H1.851V5.035H8.793V6.563H1.851v3.4H11.939v1.6Z" transform="translate(7.875 36.75)" fill="#d90010"/>
</svg>
