<svg id="logo-ellisen" xmlns="http://www.w3.org/2000/svg" width="168" height="84" viewBox="0 0 168 84">
  <rect id="boundingbox" width="168" height="84" fill="#fff" opacity="0"/>
  <path id="Union_33" data-name="Union 33" d="M55.491,20.531V0H61.3V20.531Zm-17.89,0V0h5.806V15.925h9.8v4.606Zm-17.891,0V0h5.807V15.925h9.8v4.606ZM0,20.531V0H16.1V4.487H5.748v3.46h9.122v4.341H5.748v3.755H16.483v4.487Z" transform="translate(23.625 31.735)" fill="#f15a29" stroke="rgba(0,0,0,0)" stroke-width="1"/>
  <path id="Union_34" data-name="Union 34" d="M3.387,20.281A9.174,9.174,0,0,1,0,18.419l1.085-2.287a8.968,8.968,0,0,0,3.006,1.714,10.993,10.993,0,0,0,3.769.661,6.791,6.791,0,0,0,3.814-.866,2.665,2.665,0,0,0,1.261-2.3,2.265,2.265,0,0,0-.69-1.714,4.617,4.617,0,0,0-1.7-1.014q-1.012-.351-2.86-.791a29.51,29.51,0,0,1-3.74-1.115A6.168,6.168,0,0,1,1.511,8.99,4.576,4.576,0,0,1,.5,5.866,5.276,5.276,0,0,1,1.363,2.9,5.945,5.945,0,0,1,3.988.792,10.669,10.669,0,0,1,8.359,0a13.86,13.86,0,0,1,3.578.47,9.53,9.53,0,0,1,3.021,1.349l-.969,2.345a10.562,10.562,0,0,0-2.757-1.246,10.263,10.263,0,0,0-2.874-.427,6.334,6.334,0,0,0-3.74.91A2.787,2.787,0,0,0,3.373,5.748a2.243,2.243,0,0,0,.7,1.717A4.868,4.868,0,0,0,5.822,8.491a27.288,27.288,0,0,0,2.829.777,28.74,28.74,0,0,1,3.726,1.114,6.291,6.291,0,0,1,2.42,1.7,4.483,4.483,0,0,1,1.012,3.08,5.247,5.247,0,0,1-.879,2.948,5.9,5.9,0,0,1-2.67,2.113A11.044,11.044,0,0,1,7.86,21,13.994,13.994,0,0,1,3.387,20.281Zm51.605.485L42.674,5.455v15.31H39.74V.235h2.406L54.464,15.545V.235H57.4v20.53Zm-34.9,0V.235H34.579v2.55H23.023V9.092H33.317v2.493H23.023v6.628H34.989v2.552Z" transform="translate(88.208 31.5)" fill="#010001" stroke="rgba(0,0,0,0)" stroke-width="1"/>
</svg>
