<svg id="logo-vkool" xmlns="http://www.w3.org/2000/svg" width="168" height="84" viewBox="0 0 168 84">
  <rect id="boundingbox" width="168" height="84" fill="#fff" opacity="0"/>
  <path id="Union_41" data-name="Union 41" d="M78.238,22.584a4.552,4.552,0,0,1-1.812-1.172,3.066,3.066,0,0,1-.619-1.707,9.858,9.858,0,0,1,.2-2.234L79.285,3.35a4.834,4.834,0,0,1,1.152-1.43A10.739,10.739,0,0,1,81.957,1a14.959,14.959,0,0,1,5.977-1c.635.01,1.531.01,2.477,0,1.631,0,3.418,0,4.309.061a13.821,13.821,0,0,1,3.756.611,4.545,4.545,0,0,1,1.643,1.031,3.42,3.42,0,0,1,.891,2.416c-.076.721-3.283,15.395-3.283,15.395a4.978,4.978,0,0,1-1.641,2.064,8.567,8.567,0,0,1-2.693,1.238,16.755,16.755,0,0,1-2.512.342l-9.65.029A10.244,10.244,0,0,1,78.238,22.584ZM87.9,18.457c.324-.031,2.785.061,4-.846a2.134,2.134,0,0,0,.8-1.2s2.039-9.645,2.068-10.094c.047-.719-.895-1.051-1.51-1.256a15.705,15.705,0,0,0-2.48-.3L88.271,4.8a13.141,13.141,0,0,0-2.629.539,4.363,4.363,0,0,0-1.428.975S81.938,15.75,81.8,16.393a1.758,1.758,0,0,0,.906,1.566,9.042,9.042,0,0,0,3.258.5S87.58,18.486,87.9,18.457ZM54.846,22.584a4.562,4.562,0,0,1-1.818-1.172,3.112,3.112,0,0,1-.619-1.707,10.232,10.232,0,0,1,.2-2.234L55.891,3.35a4.9,4.9,0,0,1,1.148-1.43A10.6,10.6,0,0,1,58.564,1a14.959,14.959,0,0,1,5.977-1c.629.01,1.525.01,2.471,0,1.631,0,3.418,0,4.314.061a13.776,13.776,0,0,1,3.75.611,4.548,4.548,0,0,1,1.646,1.031,3.4,3.4,0,0,1,.891,2.416c-.08.721-3.287,15.453-3.287,15.453a5,5,0,0,1-1.641,2.006A8.514,8.514,0,0,1,70,22.822a16.755,16.755,0,0,1-2.512.342l-9.65.029A10.2,10.2,0,0,1,54.846,22.584ZM64.5,18.457c.328-.031,2.785.061,4.008-.846a2.1,2.1,0,0,0,.795-1.2s2.045-9.645,2.074-10.094c.047-.719-.9-1.051-1.51-1.256a15.785,15.785,0,0,0-2.486-.3L64.873,4.8a13.051,13.051,0,0,0-2.623.539,4.425,4.425,0,0,0-1.434.975s-2.271,9.432-2.408,10.074a1.734,1.734,0,0,0,.906,1.566,9.016,9.016,0,0,0,3.252.5S64.184,18.486,64.5,18.457ZM45.578,22.926,39.6,14.838a.664.664,0,0,0-1.232.15c-.09.418-1.736,7.938-1.736,7.938H30.234L35.107.41h6.332l-1.4,6.977s-.125.533.029.674c.162.156.146.248.545.021C41.258,7.713,49.3.41,49.3.41h8l-11.768,10.8a.681.681,0,0,0-.113,1.012c.223.248,7.945,10.707,7.945,10.707ZM.684,22.666a1.664,1.664,0,0,1-.59-.574,3.168,3.168,0,0,1,.016-1.48S3.875,3.662,4.012,2.957A2.635,2.635,0,0,0,4.035,1.3C3.895,1.049,3.361.908,2.824.732A1.242,1.242,0,0,1,2.33.41L8.818.395a1.461,1.461,0,0,1,1.041.66c.484.6.057,2.4.057,2.4L6.75,17.354s-.312.846.029,1.117c.561.439,1.205-.234,1.205-.234L23.607.41,30.8.449,13.35,20.113a21.348,21.348,0,0,1-2.584,2.2,6.455,6.455,0,0,1-1.525.57l-7.564.043A5.692,5.692,0,0,1,.684,22.666Zm98.752.242s-.7-.293-.855-.705a4.907,4.907,0,0,1,0-1.541l3.74-16.451s.447-1.908.459-2.176c.045-.926-.443-1.037-.857-1.207-.307-.137-.789-.379-.789-.379h6.248a2.623,2.623,0,0,1,1.051.463,1.557,1.557,0,0,1,.354,1.432c-.061.432-3.52,14.91-3.52,14.91a1.757,1.757,0,0,0-.045.594c.045.268.045.176.418.176L120.75,18l-2.643,4.9ZM24.611,13.986,23.086,9.525l8.646.031-1.021,4.484Zm95.213-9.121V1.5l-.846,3.367h-.83L117.3,1.5V4.865h-.8V.586h1.295l.775,2.92.764-2.92h1.295V4.865Zm-6,0V1.313h-1.27V.586h3.4v.727h-1.268V4.865Z" transform="translate(23.626 30.403)" fill="#131e6b" stroke="rgba(0,0,0,0)" stroke-width="1"/>
</svg>
