<svg id="logo-ellicam" xmlns="http://www.w3.org/2000/svg" width="168" height="84" viewBox="0 0 168 84">
  <rect id="boundingbox" width="168" height="84" fill="#fff" opacity="0"/>
  <path id="Union_37" data-name="Union 37" d="M55.491,20.531V0H61.3V20.531Zm-17.89,0V0h5.806V15.925h9.8v4.606Zm-17.891,0V0h5.807V15.925h9.8v4.606ZM0,20.531V0H16.1V4.487H5.748V7.949h9.122v4.339H5.748v3.755H16.483v4.487Z" transform="translate(18.375 31.735)" fill="#f15a29" stroke="rgba(0,0,0,0)" stroke-width="1"/>
  <path id="Union_38" data-name="Union 38" d="M5.294,19.637a10.038,10.038,0,0,1-3.886-3.755A10.4,10.4,0,0,1,0,10.5,10.411,10.411,0,0,1,1.408,5.117a10.013,10.013,0,0,1,3.9-3.755A11.419,11.419,0,0,1,10.881,0a11.626,11.626,0,0,1,4.4.807,8.995,8.995,0,0,1,3.4,2.391L16.776,5.046A7.643,7.643,0,0,0,11,2.611,8.39,8.39,0,0,0,6.863,3.636,7.466,7.466,0,0,0,3.974,6.467,7.927,7.927,0,0,0,2.933,10.5a7.921,7.921,0,0,0,1.041,4.032,7.466,7.466,0,0,0,2.889,2.831A8.378,8.378,0,0,0,11,18.39a7.663,7.663,0,0,0,5.777-2.463l1.906,1.846a9.107,9.107,0,0,1-3.416,2.4A11.53,11.53,0,0,1,10.852,21,11.34,11.34,0,0,1,5.294,19.637Zm57.589,1.128L62.853,5.806,55.433,18.272H54.083L46.663,5.9v14.87H43.847V.235h2.4l8.565,14.43L63.263.235h2.406l.029,20.53Zm-25.165,0L35.46,15.632H24.549L22.29,20.765h-3.02l9.3-20.53h2.9L40.8,20.765ZM25.575,13.287h8.857L30,3.226Z" transform="translate(83.163 31.5)" fill="#010001" stroke="rgba(0,0,0,0)" stroke-width="1"/>
</svg>
