<svg id="logo-ipress" xmlns="http://www.w3.org/2000/svg" width="168" height="84" viewBox="0 0 168 84">
  <rect id="boundingbox" width="168" height="84" fill="#fff" opacity="0"/>
  <path id="Path_19772" data-name="Path 19772" d="M-1245.209,2740.391a2.724,2.724,0,0,1-.936-2.105,2.726,2.726,0,0,1,.936-2.105,3.516,3.516,0,0,1,2.456-.848,3.64,3.64,0,0,1,2.456.8,2.6,2.6,0,0,1,.936,2.062,2.836,2.836,0,0,1-.936,2.179,3.484,3.484,0,0,1-2.456.862A3.514,3.514,0,0,1-1245.209,2740.391Zm-.322,2.6h5.557v15.85h-5.557Z" transform="translate(1284.207 -2705.145)" fill="#010001"/>
  <path id="Union_39" data-name="Union 39" d="M70.507,20.281a10.392,10.392,0,0,1-3.1-1.185l1.668-3.8a9.464,9.464,0,0,0,2.572,1.067,11.52,11.52,0,0,0,2.955.395,4.741,4.741,0,0,0,1.915-.277.872.872,0,0,0,.572-.805q0-.525-.688-.745a14.226,14.226,0,0,0-2.179-.424,21.735,21.735,0,0,1-3.231-.614,4.972,4.972,0,0,1-2.3-1.4,4.01,4.01,0,0,1-.964-2.866,4.331,4.331,0,0,1,.906-2.7,6.03,6.03,0,0,1,2.646-1.872,11.337,11.337,0,0,1,4.168-.688,16.9,16.9,0,0,1,3.421.351,9.791,9.791,0,0,1,2.837.995L80.04,9.475A9.237,9.237,0,0,0,75.478,8.3a4.561,4.561,0,0,0-1.93.307.917.917,0,0,0-.614.8c0,.371.225.628.672.776a15.521,15.521,0,0,0,2.224.453,24.337,24.337,0,0,1,3.245.672,4.952,4.952,0,0,1,2.237,1.389,3.955,3.955,0,0,1,.95,2.823,4.293,4.293,0,0,1-.906,2.676,5.911,5.911,0,0,1-2.677,1.856,11.973,11.973,0,0,1-4.254.673A17.118,17.118,0,0,1,70.507,20.281Zm-16,0a10.388,10.388,0,0,1-3.1-1.185l1.667-3.8a9.459,9.459,0,0,0,2.574,1.067,11.5,11.5,0,0,0,2.953.395,4.744,4.744,0,0,0,1.915-.277.871.871,0,0,0,.571-.805q0-.525-.688-.745a14.214,14.214,0,0,0-2.179-.424,21.747,21.747,0,0,1-3.231-.614,4.978,4.978,0,0,1-2.3-1.4,4.008,4.008,0,0,1-.964-2.866,4.329,4.329,0,0,1,.906-2.7,6.022,6.022,0,0,1,2.647-1.872,11.323,11.323,0,0,1,4.166-.688,16.893,16.893,0,0,1,3.422.351,9.816,9.816,0,0,1,2.838.995L64.044,9.475A9.239,9.239,0,0,0,59.481,8.3a4.561,4.561,0,0,0-1.93.307.916.916,0,0,0-.613.8c0,.371.224.628.673.776a15.428,15.428,0,0,0,2.222.453,24.478,24.478,0,0,1,3.247.672,4.965,4.965,0,0,1,2.237,1.389,3.961,3.961,0,0,1,.951,2.823A4.293,4.293,0,0,1,65.36,18.2a5.913,5.913,0,0,1-2.675,1.856,11.981,11.981,0,0,1-4.255.673A17.121,17.121,0,0,1,54.51,20.281Zm-17.2-.6A7.761,7.761,0,0,1,32.9,12.517,7.828,7.828,0,0,1,37.14,5.41a9.976,9.976,0,0,1,8.773-.074,7.463,7.463,0,0,1,3.055,2.837,8.328,8.328,0,0,1,1.126,4.4q0,.058-.088,1.374H38.485a3.221,3.221,0,0,0,1.359,1.886,4.537,4.537,0,0,0,2.531.657,5.448,5.448,0,0,0,1.973-.321,5.8,5.8,0,0,0,1.682-1.053l2.925,3.042q-2.311,2.575-6.756,2.574A10.8,10.8,0,0,1,37.315,19.682ZM39.494,9.036a3.3,3.3,0,0,0-1.1,1.988h6.491a3.3,3.3,0,0,0-1.1-1.988,3.523,3.523,0,0,0-4.3,0ZM21.143,20.471V4.621h5.293v1.9A5.165,5.165,0,0,1,28.643,4.9a8.365,8.365,0,0,1,3.116-.542v5A11.464,11.464,0,0,0,30.5,9.271a3.878,3.878,0,0,0-2.794.964A3.913,3.913,0,0,0,26.7,13.188v7.283ZM0,20.471V0H9.358a11.676,11.676,0,0,1,4.825.922,7.143,7.143,0,0,1,3.159,2.632,7.216,7.216,0,0,1,1.112,4.02,7.143,7.143,0,0,1-1.112,4.006A7.179,7.179,0,0,1,14.183,14.2a11.64,11.64,0,0,1-4.825.922H5.791v5.353Zm5.791-9.914H9.006A4.049,4.049,0,0,0,11.7,9.782,2.749,2.749,0,0,0,12.6,7.574,2.794,2.794,0,0,0,11.7,5.352a4,4,0,0,0-2.692-.789H5.791Z" transform="translate(48.093 33.229)" fill="#f15a29" stroke="rgba(0,0,0,0)" stroke-width="1"/>
</svg>
