<svg id="logo-ownice" xmlns="http://www.w3.org/2000/svg" width="168" height="84" viewBox="0 0 168 84">
  <rect id="boundingbox" width="168" height="84" fill="#fff" opacity="0"/>
  <path id="Path_19655" data-name="Path 19655" d="M1179.541,793.462a13.244,13.244,0,0,1,.714-4.363,11.242,11.242,0,0,1,2.049-3.635,9.669,9.669,0,0,1,7.549-3.424,10.994,10.994,0,0,1,3.464.515,6.738,6.738,0,0,1,4.323,4.085,9.461,9.461,0,0,1,.6,3.49,14.281,14.281,0,0,1-.688,4.442,11.488,11.488,0,0,1-2,3.728,9.588,9.588,0,0,1-3.226,2.565,9.776,9.776,0,0,1-4.4.952,8.447,8.447,0,0,1-6.2-2.155A8.333,8.333,0,0,1,1179.541,793.462Zm4.151,0a6.647,6.647,0,0,0,.251,1.851,4.614,4.614,0,0,0,.767,1.547,3.671,3.671,0,0,0,1.322,1.071,4.366,4.366,0,0,0,1.943.4,4.846,4.846,0,0,0,2.671-.727,6.435,6.435,0,0,0,1.9-1.877,8.716,8.716,0,0,0,1.15-2.552,10.407,10.407,0,0,0,.383-2.75,7.735,7.735,0,0,0-.225-1.877,4.252,4.252,0,0,0-.727-1.56,3.62,3.62,0,0,0-1.309-1.058,4.367,4.367,0,0,0-1.943-.4,5.148,5.148,0,0,0-2.763.727,6.132,6.132,0,0,0-1.93,1.877,8.626,8.626,0,0,0-1.124,2.564A10.88,10.88,0,0,0,1183.692,793.462Z" transform="translate(-1111.11 -750.654)" fill="#d97405"/>
  <path id="Path_19656" data-name="Path 19656" d="M1296.7,824.685h-3.913l-.476-9.6h-.053l-4.23,9.6h-3.94l-1.507-13.67h3.834l.529,9.624H1287l4.2-9.624h3.807l.423,9.545h.053l4.389-9.545h3.966Z" transform="translate(-1194.029 -773.971)" fill="#545253"/>
  <path id="Path_19657" data-name="Path 19657" d="M1388.748,809.49h3.6l-.423,1.9h.053a5.841,5.841,0,0,1,4.786-2.274q3.992,0,3.993,3.675a3.605,3.605,0,0,1-.053.542q-.053.331-.119.674t-.132.648q-.067.3-.093.489l-1.692,8.011h-3.755l1.666-8.011q.052-.318.145-.846a5.115,5.115,0,0,0,.092-.82,1.186,1.186,0,0,0-.568-1,2.106,2.106,0,0,0-1.23-.4,3.242,3.242,0,0,0-1.494.33,3.68,3.68,0,0,0-1.11.859,4.733,4.733,0,0,0-.767,1.216,7.449,7.449,0,0,0-.463,1.4l-1.534,7.271h-3.754Z" transform="translate(-1277.166 -772.446)" fill="#545253"/>
  <path id="Path_19658" data-name="Path 19658" d="M1470.176,789.55h3.781l-2.909,13.67h-3.781Zm4.2-2.115H1470.6l.688-3.094h3.781Z" transform="translate(-1342.652 -752.506)" fill="#545253"/>
  <path id="Path_19659" data-name="Path 19659" d="M1514.06,814.223a2.178,2.178,0,0,0-.622-1.745,3.392,3.392,0,0,0-3.7.04,4.291,4.291,0,0,0-1.177,1.441,7.03,7.03,0,0,0-.648,1.891,9.935,9.935,0,0,0-.2,1.89,4.832,4.832,0,0,0,.132,1.15,2.372,2.372,0,0,0,.449.939,2.311,2.311,0,0,0,.806.635,2.74,2.74,0,0,0,1.2.238,2.8,2.8,0,0,0,1.124-.212,3.2,3.2,0,0,0,.872-.555,3,3,0,0,0,.635-.806,5.471,5.471,0,0,0,.41-.965h3.754a8.192,8.192,0,0,1-2.6,3.966,6.925,6.925,0,0,1-4.455,1.4,6.537,6.537,0,0,1-4.482-1.415,5.651,5.651,0,0,1-1.6-4.455,10.332,10.332,0,0,1,.516-3.292,8.2,8.2,0,0,1,1.507-2.723,7.079,7.079,0,0,1,2.419-1.851,7.593,7.593,0,0,1,3.279-.674,9.267,9.267,0,0,1,2.353.291,5.722,5.722,0,0,1,1.943.9,4.33,4.33,0,0,1,1.322,1.586,5.4,5.4,0,0,1,.516,2.327Z" transform="translate(-1372.178 -772.446)" fill="#545253"/>
  <path id="Path_19660" data-name="Path 19660" d="M1581.512,817.237a1.215,1.215,0,0,0-.027.238v.555a2.608,2.608,0,0,0,.74,1.93,3.1,3.1,0,0,0,2.274.74,2.681,2.681,0,0,0,.991-.172,2.932,2.932,0,0,0,.767-.436,3.155,3.155,0,0,0,.582-.608q.25-.344.462-.661h3.755a9.619,9.619,0,0,1-1.058,2.036,5.9,5.9,0,0,1-1.454,1.467,6.207,6.207,0,0,1-1.97.9,10.04,10.04,0,0,1-2.6.3,7.71,7.71,0,0,1-2.5-.383,4.976,4.976,0,0,1-3.146-3,7.067,7.067,0,0,1-.436-2.591,9.534,9.534,0,0,1,.529-3.16,8.718,8.718,0,0,1,1.494-2.7,7.159,7.159,0,0,1,2.366-1.877,6.94,6.94,0,0,1,3.147-.7,8.651,8.651,0,0,1,2.6.37,5.343,5.343,0,0,1,2.01,1.124,5.114,5.114,0,0,1,1.3,1.877,6.807,6.807,0,0,1,.462,2.6,11.733,11.733,0,0,1-.211,2.142Zm6.663-2.38a5.915,5.915,0,0,0-.093-1.044,2.633,2.633,0,0,0-.357-.939,1.862,1.862,0,0,0-.767-.674,2.972,2.972,0,0,0-1.322-.251,3.823,3.823,0,0,0-1.4.238,3.513,3.513,0,0,0-1.058.634,3.645,3.645,0,0,0-.754.925,7.036,7.036,0,0,0-.515,1.111Z" transform="translate(-1431.671 -772.446)" fill="#545253"/>
  <g id="Group_12543" data-name="Group 12543" transform="translate(7.875 13.762)">
    <path id="Path_19661" data-name="Path 19661" d="M890.186,723.456a28.322,28.322,0,0,0-5.833,7.908l19.112-9.9Z" transform="translate(-881.44 -715.669)" fill="#bfbcbd"/>
    <path id="Path_19662" data-name="Path 19662" d="M957.678,692.083a28.069,28.069,0,0,0-11.438,3.224l29.56,8.373Z" transform="translate(-931.242 -692.025)" fill="#bfbcbd"/>
    <path id="Path_19663" data-name="Path 19663" d="M1099.286,722.168a28.382,28.382,0,0,0-8.51-8.287l7.528,29.784Z" transform="translate(-1047.554 -709.567)" fill="#bfbcbd"/>
    <path id="Path_19664" data-name="Path 19664" d="M1014.567,692.93a28.248,28.248,0,0,0-7.97-1.142c-.6,0-1.192.021-1.781.058l18.122,11.6Z" transform="translate(-978.379 -691.788)" fill="#47555e"/>
    <path id="Path_19665" data-name="Path 19665" d="M1064.76,853.211a28.085,28.085,0,0,0,2.914-11.508l-22.026,21.408Z" transform="translate(-1011.238 -812.429)" fill="#bfbcbd"/>
    <path id="Path_19666" data-name="Path 19666" d="M1058.927,908.544a28.324,28.324,0,0,0,5.833-7.908l-19.112,9.9Z" transform="translate(-1011.238 -859.854)" fill="#47555e"/>
    <path id="Path_19667" data-name="Path 19667" d="M1134.246,765.311a28.084,28.084,0,0,0-3.935-8.993l-.982,21.5Z" transform="translate(-1078.578 -743.717)" fill="#47555e"/>
    <path id="Path_19668" data-name="Path 19668" d="M938.627,931.84a28.242,28.242,0,0,0,7.97,1.142c.6,0,1.192-.021,1.781-.058l-18.122-11.6Z" transform="translate(-918.379 -876.505)" fill="#bfbcbd"/>
    <path id="Path_19669" data-name="Path 19669" d="M948.378,932.924a28.068,28.068,0,0,0,11.438-3.224l-29.56-8.373Z" transform="translate(-918.379 -876.505)" fill="#47555e"/>
    <path id="Path_19670" data-name="Path 19670" d="M872.347,731.364a28.089,28.089,0,0,0-2.913,11.508l22.025-21.408Z" transform="translate(-869.434 -715.669)" fill="#47555e"/>
    <path id="Path_19671" data-name="Path 19671" d="M873.364,818.9a28.091,28.091,0,0,0,3.935,8.993l.982-21.5Z" transform="translate(-872.597 -784.014)" fill="#bfbcbd"/>
    <path id="Path_19672" data-name="Path 19672" d="M893.516,827.89a28.388,28.388,0,0,0,8.51,8.287L894.5,806.393Z" transform="translate(-888.813 -784.014)" fill="#47555e"/>
  </g>
</svg>
