<svg id="logo-mydean" xmlns="http://www.w3.org/2000/svg" width="168" height="84" viewBox="0 0 168 84">
  <rect id="boundingbox" width="168" height="84" fill="#fff" opacity="0"/>
  <path id="Union_27" data-name="Union 27" d="M31.77,28.422v-3.39c.892,0,1.82.007,2.749,0,3.979-.035,7.96,0,11.936-.139,2.066-.071,2.673-.879,2.777-2.821.076-1.412-.446-2.051-1.921-2.062a90.338,90.338,0,0,1-9.392-.3c-4.211-.474-6.273-3.063-6.273-7.3q0-3.871.028-7.741A2.041,2.041,0,0,1,31.85,4.2h3.771c0,2.75.018,5.423,0,8.1-.035,4.3.108,4.495,4.33,4.583,3.019.063,6.04.012,9.257.012V4.258h3.929c0,3.377.039,6.729-.013,10.081a57.359,57.359,0,0,1-.348,7.373,7.284,7.284,0,0,1-7.1,6.654c-1.806.1-3.617.124-5.436.124C37.444,28.49,34.63,28.422,31.77,28.422Zm-6.208-6.013v-2.04q0-6.312,0-12.624c0-2.736-.8-3.561-3.45-3.6-4.981-.083-5.323.238-5.352,5.271-.025,4.255-.005,8.511-.005,12.922H12.78V20.593c0-4.264.008-8.529,0-12.793-.007-2.648-.913-3.576-3.489-3.628-4.966-.1-5.308.239-5.308,5.276v12.9H.017c0-2.254,0-4.428,0-6.6,0-2.3-.046-4.6.013-6.9C.12,5.29,1.426,2.228,4.811.817c3.346-1.4,6.711-1.106,9.478,1.675a3.892,3.892,0,0,0,.525.354A8.37,8.37,0,0,1,21.533.124,7.806,7.806,0,0,1,29.382,7.6c.336,4.847.076,9.735.076,14.813Z" transform="translate(7.879 27.796)" fill="#06a5df" stroke="rgba(0,0,0,0)" stroke-width="1"/>
  <path id="Union_26" data-name="Union 26" d="M87.151,22.691c-.033-.672-.086-1.272-.088-1.872-.008-4.266.015-8.533-.016-12.8-.021-2.884-.852-3.744-3.691-3.811-2.073-.049-4.151-.029-6.224.026-2.186.058-3.015.887-3.036,3.135-.041,4.434-.011,8.869-.011,13.3v1.964h-3.87a6.114,6.114,0,0,1-.133-.913c-.015-4.322-.055-8.645-.013-12.967.049-5.14,3.343-8.517,8.46-8.721C79.986-.02,81.448-.007,82.9.043a8,8,0,0,1,8.171,8.384c.032,4.154.021,8.308.018,12.462,0,.551-.061,1.1-.1,1.8ZM27.573,21.458a7.3,7.3,0,0,1-4.245-6.423,35.679,35.679,0,0,1,0-7.048c.406-3.657,2.408-6.5,6.052-7.222A26.412,26.412,0,0,1,38.509.583c4,.64,6.274,3.772,5.881,7-.4,3.288-3.409,5.691-7.39,5.8-1.726.048-3.453.045-5.18.041-.909,0-1.818,0-2.726,0-.547,0-1.093.048-1.846.083a32.119,32.119,0,0,0,.191,3.575c.283,1.733,1.75,1.9,3.1,1.938,2.087.056,4.177.054,6.266.052q1.24,0,2.481,0c.772,0,1.543,0,2.489,0v3.086c-2.575.148-5.148.522-7.691.522A15.718,15.718,0,0,1,27.573,21.458ZM38.27,4.089c-2.4.034-4.809.013-7.213.037-3.417.034-3.875.517-3.783,3.916.006.224.027.448.022.671-.021.978.435,1.409,1.428,1.385,1.565-.038,3.131-.01,4.7-.01v-.036c1.733,0,3.467.03,5.2-.01a1.729,1.729,0,0,0,1.858-1.916c.009-.616-.028-1.234.015-1.846.11-1.585-.682-2.191-2.144-2.191ZM51.724,22.08c-3.422-.614-5.371-3.624-5.224-7.04a6.218,6.218,0,0,1,5.731-6.026,84.457,84.457,0,0,1,8.707-.352c1.273-.036,2.548.059,2.51-1.831-.04-1.994-.585-2.673-2.57-2.693-3.8-.038-7.6-.011-11.5-.011C48.829.567,49,.352,52.273.268,54.288.217,56.3.1,58.316.121c5.566.044,8.791,3.07,9.1,8.609a50.462,50.462,0,0,1-.047,6.214c-.284,4.216-2.664,7.018-6.843,7.446a32.508,32.508,0,0,1-3.307.168A31.254,31.254,0,0,1,51.724,22.08Zm3.422-10.291c-4.769.019-5.035.082-4.8,5.393A1.678,1.678,0,0,0,52.1,19.012c3.129.052,6.261.088,9.389.008a1.79,1.79,0,0,0,1.86-1.956c0-1.669,0-3.339,0-5.04a2.1,2.1,0,0,0-.487-.194c-2.222-.018-4.444-.045-6.665-.045ZM4.012,22.43C1.175,22.341.166,21.355.05,18.561c-.1-2.347-.02-4.7-.02-7.053H.063C.063,8.654.015,5.8.086,2.949A2.273,2.273,0,0,1,2,.519c4.284-.53,8.6-.9,12.765.65,3.973,1.48,5.878,4.593,6.012,8.665a25.468,25.468,0,0,1-.728,7.265c-.922,3.485-3.676,5.139-7.143,5.344-1.2.071-2.412.1-3.621.1C7.53,22.541,5.769,22.485,4.012,22.43ZM4.835,4.3A1.289,1.289,0,0,0,3.391,5.754q.02,5.387-.012,10.775c-.007,1.366.723,1.908,1.993,1.909q1.935,0,3.87,0t3.87,0a4.371,4.371,0,0,0,.5-.03c2.411-.284,3.251-1.158,3.305-3.584.045-2.019.022-4.041,0-6.061C16.887,6.06,15.743,4.607,13.072,4.4,11.685,4.3,10.291,4.271,8.9,4.271,7.543,4.271,6.188,4.3,4.835,4.3Z" transform="translate(69.028 27.714)" fill="#0e5882" stroke="rgba(0,0,0,0)" stroke-width="1"/>
</svg>
