<svg id="logo-nextbase" xmlns="http://www.w3.org/2000/svg" width="168" height="84" viewBox="0 0 168 84">
  <rect id="boundingbox" width="168" height="84" fill="#fff" opacity="0"/>
  <path id="Union_42" data-name="Union 42" d="M69.295,19.629c-.318-.033-.635-.064-.947-.105a14.1,14.1,0,0,1-3.777-1.039,19.955,19.955,0,0,1-5.852-3.863q-3.706-3.434-7.395-6.885a.251.251,0,0,0-.045-.029c-.523.367-1.055.74-1.584,1.113-1,.707-2.008,1.418-3.016,2.119a.655.655,0,0,1-.348.111q-10.178.009-20.348.006H21.436c.066-.162.121-.293.172-.424q2.232-5.2,4.453-10.4A.288.288,0,0,1,26.373.02q8.021.009,16.039.006h.242c-.137.318-.262.615-.389.912-.248.586-.5,1.172-.746,1.756a.227.227,0,0,1-.252.166c-3.254-.006-6.5,0-9.754-.01a.276.276,0,0,0-.3.2c-.137.342-.289.674-.43,1.014a1.815,1.815,0,0,0-.064.186h8.6c-.156.367-.3.711-.443,1.055-.191.438-.387.877-.564,1.32a.25.25,0,0,1-.281.182c-2.725-.006-5.453,0-8.182-.006a.3.3,0,0,0-.328.219c-.156.389-.332.771-.5,1.174.07.006.121.01.172.01h7.459c1.189,0,2.385-.01,3.58-.01,1.332,0,2.668.01,4,.006a.618.618,0,0,0,.348-.111c1.3-.9,2.588-1.8,3.885-2.707.045-.031.1-.07.16-.123C46.736,3.521,44.863,1.785,42.963.025c.08-.006.125-.016.17-.016q3.193,0,6.393.006a.445.445,0,0,1,.266.105c.828.758,1.645,1.523,2.467,2.279.045.041.09.08.141.125Q53.7,1.649,55,.781c.322-.211.646-.424.959-.645a.69.69,0,0,1,.418-.131q15.806.006,31.609,0c2.072,0,4.15-.016,6.223,0a8.444,8.444,0,0,1,2.674.361,2.685,2.685,0,0,1,1.26.748,1.555,1.555,0,0,1,.273,1.744,2.93,2.93,0,0,1-1.467,1.508,6.022,6.022,0,0,1-1.957.758c.453.119.912.227,1.361.373a2.6,2.6,0,0,1,1.17.787c.188-.184.369-.359.545-.535,1.76-1.77,3.531-3.537,5.27-5.322A1.276,1.276,0,0,1,104.379,0c2.41.02,4.816.01,7.229.006.166,0,.221.049.252.205q.724,3.513,1.463,7.021c.055.271.119.551.172.826.018.113.064.137.164.137.5,0,.99.01,1.484.01.711.006,1.422.006,2.133.012,1.807.01,3.605.025,5.412.035a8.974,8.974,0,0,0,1.17-.051.79.79,0,0,0,.686-.691c.031-.3-.049-.475-.336-.561a4.1,4.1,0,0,0-.879-.186c-1.186-.086-2.371-.137-3.551-.227a9.827,9.827,0,0,1-3.637-.912,3.978,3.978,0,0,1-1.422-1.141A2.519,2.519,0,0,1,115.727.721a7.13,7.13,0,0,1,1.953-.5,30.966,30.966,0,0,1,3.732-.191q2.5-.023,4.992-.021h25.844c-.092.213-.172.4-.256.59-.3.7-.6,1.393-.889,2.094a.217.217,0,0,1-.252.16q-4.89,0-9.775,0a.244.244,0,0,0-.271.182c-.162.4-.338.787-.516,1.2h8.6c-.025.072-.035.123-.057.168-.318.746-.639,1.492-.951,2.24a.228.228,0,0,1-.254.16c-2.748-.006-5.492,0-8.236-.006a.254.254,0,0,0-.277.182c-.166.4-.348.8-.529,1.221h10.148c-.021.063-.031.1-.047.143-.367.857-.74,1.709-1.1,2.566-.051.131-.127.137-.232.137-1.9-.006-16.23-.006-16.342-.006,1.176-2.738,2.336-5.447,3.512-8.186h-1.4c-1.52-.01-3.031-.025-4.545-.029-.947-.006-1.891-.006-2.84-.012-1.342,0-2.678-.025-4.02-.02a4.066,4.066,0,0,0-.848.141.62.62,0,0,0-.242.123.334.334,0,0,0,.02.6,3.3,3.3,0,0,0,.969.316c.973.111,1.953.191,2.932.262a28.445,28.445,0,0,1,4.236.436,5.01,5.01,0,0,1,1.725.66,2.058,2.058,0,0,1,.938,2.068,3.415,3.415,0,0,1-2.42,3.01,8.2,8.2,0,0,1-2.533.541q-1.43.082-2.869.09-7.257.009-14.521.006c-.189,0-.266-.051-.3-.242-.084-.48-.2-.949-.3-1.437h-.205c-2.242,0-4.475,0-6.715-.006a.425.425,0,0,0-.318.133c-.447.469-.912.928-1.365,1.4a.482.482,0,0,1-.379.156q-8.027-.009-16.055-.006H76.648c1.17-2.732,2.33-5.447,3.5-8.182h-.2q-2.678,0-5.355,0a.25.25,0,0,0-.268.176q-1.679,3.935-3.363,7.869c-.041.09-.078.146-.193.146q-2.927-.009-5.846-.006a.568.568,0,0,1-.125-.016c1.164-2.717,2.324-5.426,3.494-8.154-.08-.006-.141-.012-.205-.012q-4.837,0-9.67.006a.464.464,0,0,0-.232.055c-1.02.707-2.027,1.414-3.066,2.141q7.813,7.239,15.646,14.494c-.2.031-.363.055-.529.08ZM85.127,6.416c-.07,0-.182.029-.207.08-.316.621-.619,1.246-.937,1.891.07.006.105.012.141.012,1.17,0,2.342.01,3.512-.006a14.886,14.886,0,0,0,1.527-.117,2.307,2.307,0,0,0,1.285-.559.7.7,0,0,0,.309-.691c-.07-.281-.322-.383-.58-.453A7.057,7.057,0,0,0,88.33,6.41c-.314,0-.627,0-.939,0C86.635,6.408,85.879,6.412,85.127,6.416Zm19.08.084h3.672c-.221-1-.434-2-.635-2.934C106.25,4.529,105.246,5.5,104.207,6.5ZM86.637,2.939a9.229,9.229,0,0,1-.48,1.01c.395,0,.752.01,1.113,0,.742-.021,1.479-.039,2.221-.086a1.718,1.718,0,0,0,.988-.348c.334-.268.469-.621-.064-.848a.324.324,0,0,0-.082-.035A7.838,7.838,0,0,0,89.3,2.467c-.291-.016-.584-.012-.877-.012-.332.006-.66.012-.988-.01-.041,0-.082,0-.119,0A.64.64,0,0,0,86.637,2.939ZM0,13.518c.131-.293.277-.58.4-.879a.281.281,0,0,1,.314-.205q15.492.006,30.986,0,11.531,0,23.064,0a.484.484,0,0,1,.369.135c.3.3.619.586.938.879.031.029.061.07.121.135H.2c-.066,0-.131.006-.2.012Zm65.518-.1c-.332-.322-.676-.631-1.039-.967h82.449c-.156.367-.309.719-.465,1.068-.01.029-.07.055-.111.064a.731.731,0,0,1-.16,0q-40.119,0-80.246.006A.544.544,0,0,1,65.518,13.416ZM14.389,11.041a.3.3,0,0,1-.262-.146Q11.956,8.059,9.791,5.227c-.031-.041-.072-.082-.111-.139-.287.668-.566,1.313-.842,1.963Q8.012,8.967,7.2,10.879c-.041.092-.076.162-.2.162q-2.9-.009-5.795-.006c-.021,0-.045,0-.1-.01.025-.061.041-.117.063-.166Q3.457,5.51,5.75.162A.215.215,0,0,1,5.992.006q3.155.006,6.314,0a.348.348,0,0,1,.318.156q2.071,2.716,4.15,5.422c.086.115.176.227.283.367.15-.354.291-.682.428-1.01Q18.518,2.554,19.539.156a.209.209,0,0,1,.227-.15q2.754.006,5.518,0c.051,0,.107.006.184.01-.139.324-.264.627-.395.93Q22.945,5.918,20.816,10.9a.208.208,0,0,1-.219.141Q17.5,11.032,14.389,11.041Z" transform="translate(7.878 34.811)" stroke="rgba(0,0,0,0)" stroke-width="1"/>
</svg>
