<svg id="logo-ican" xmlns="http://www.w3.org/2000/svg" width="168" height="84" viewBox="0 0 168 84">
  <rect id="boundingbox" width="168" height="84" fill="#fff" opacity="0"/>
  <path id="Union_40" data-name="Union 40" d="M16.019,22.257a11.371,11.371,0,0,1-4.492-4.231,11.66,11.66,0,0,1-1.633-6.139,11.676,11.676,0,0,1,1.633-6.14,11.35,11.35,0,0,1,4.492-4.229A13.51,13.51,0,0,1,22.468,0,13.847,13.847,0,0,1,28.12,1.11a10.882,10.882,0,0,1,4.18,3.2L28.185,8.034A6.769,6.769,0,0,0,22.8,5.355a6.659,6.659,0,0,0-3.315.816,5.682,5.682,0,0,0-2.254,2.3,7.075,7.075,0,0,0-.8,3.413,7.065,7.065,0,0,0,.8,3.412,5.658,5.658,0,0,0,2.254,2.3,6.649,6.649,0,0,0,3.315.816,6.772,6.772,0,0,0,5.389-2.678L32.3,19.464a10.881,10.881,0,0,1-4.18,3.2,13.884,13.884,0,0,1-5.651,1.11A13.551,13.551,0,0,1,16.019,22.257Zm60.86,1.06L66.787,11.137V23.317H60.452V.456h5.324l10.09,12.183V.456H82.2V23.317Zm-24.984,0-1.8-4.441H40.431l-1.8,4.441h-6.6L42.131.456H48.5L58.623,23.317Zm-9.569-9.209H48.2l-2.94-7.316ZM0,23.317V.456H6.466V23.317Z" transform="translate(43.313 30.188)" fill="#010001" stroke="rgba(0,0,0,0)" stroke-width="1"/>
</svg>
