<svg id="logo-mobileye" xmlns="http://www.w3.org/2000/svg" width="168" height="84" viewBox="0 0 168 84">
  <rect id="boundingbox" width="168" height="84" fill="#fff" opacity="0"/>
  <g id="Group_12545" data-name="Group 12545" transform="translate(56.434 27.014)">
    <g id="Group_12544" data-name="Group 12544">
      <path id="Path_19673" data-name="Path 19673" d="M81.421,10.554A4.377,4.377,0,0,1,85.044,8.73a4.308,4.308,0,0,1,3.935,2.136A4.9,4.9,0,0,1,93.2,8.73c3.152,0,4.847,2.344,4.847,5.159v7.742H95.914V14.018c0-2.007-1.016-3.391-3.023-3.391s-3.152,1.536-3.152,3.519v7.479H87.627V14.012c0-2.007-1.016-3.391-3.023-3.391s-3.152,1.536-3.152,3.519v7.479H79.34V9.042h2.087v1.512Z" transform="translate(-79.34 -3.387)" fill="#1e2eb8"/>
      <path id="Path_19674" data-name="Path 19674" d="M113.44,15.361a6.522,6.522,0,0,1,6.6-6.671,6.436,6.436,0,0,1,6.518,6.647,6.522,6.522,0,0,1-6.6,6.671A6.436,6.436,0,0,1,113.44,15.361Zm10.949-.024a4.412,4.412,0,1,0-8.789.024,4.412,4.412,0,1,0,8.789-.024Z" transform="translate(-92.57 -3.371)" fill="#1e2eb8"/>
      <path id="Path_19675" data-name="Path 19675" d="M138.61,0h2.112V7.614a5.861,5.861,0,0,1,4.615-2.24,6.2,6.2,0,0,1,6.231,6.543,6.362,6.362,0,0,1-6.335,6.622,5.842,5.842,0,0,1-4.535-2.16v1.879H138.61Zm6.439,16.684c2.479,0,4.352-1.775,4.352-4.719s-1.848-4.719-4.278-4.719a4.584,4.584,0,0,0-4.486,4.768,4.434,4.434,0,0,0,4.407,4.664Z" transform="translate(-102.335)" fill="#1e2eb8"/>
      <path id="Path_19676" data-name="Path 19676" d="M165.814,4.66H163.47V2.34h2.344Zm-.1,1.9v12.59h-2.136V6.563Z" transform="translate(-111.979 -0.908)" fill="#1e2eb8"/>
      <path id="Path_19677" data-name="Path 19677" d="M174.346,18.245H172.21V0h2.136Z" transform="translate(-115.37)" fill="#1e2eb8"/>
      <path id="Path_19678" data-name="Path 19678" d="M190.524,18.067l1.279,1.175a6.849,6.849,0,0,1-5.71,2.791,6.3,6.3,0,0,1-6.463-6.647,6.353,6.353,0,0,1,6.414-6.647c3.6,0,6.206,2.552,6.206,6.488a5.987,5.987,0,0,1-.08.887h-10.35a4.416,4.416,0,0,0,4.456,4.119,5.27,5.27,0,0,0,4.248-2.16Zm-8.709-3.6H190.1c-.312-2.448-1.9-3.935-4.039-3.935A4.237,4.237,0,0,0,181.815,14.469Z" transform="translate(-118.249 -3.391)" fill="#1e2eb8"/>
      <path id="Path_19679" data-name="Path 19679" d="M203.316,9.24l4.064,10.007L211.444,9.24h2.216l-7.326,17.284h-2.191l2.167-4.8L200.99,9.24h2.32Z" transform="translate(-126.536 -3.585)" fill="#1e2eb8"/>
      <path id="Path_19680" data-name="Path 19680" d="M233.294,18.067l1.279,1.175a6.849,6.849,0,0,1-5.71,2.791,6.3,6.3,0,0,1-6.463-6.647,6.353,6.353,0,0,1,6.414-6.647c3.6,0,6.206,2.552,6.206,6.488a5.98,5.98,0,0,1-.08.887h-10.35a4.416,4.416,0,0,0,4.456,4.119,5.27,5.27,0,0,0,4.248-2.16Zm-8.709-3.6h8.287c-.312-2.448-1.9-3.935-4.039-3.935a4.237,4.237,0,0,0-4.248,3.935Z" transform="translate(-134.842 -3.391)" fill="#1e2eb8"/>
    </g>
    <path id="Path_19681" data-name="Path 19681" d="M245.457,8.73a1.391,1.391,0,1,1-1.457,1.4A1.39,1.39,0,0,1,245.457,8.73Zm1.206,1.4a1.2,1.2,0,1,0-1.206,1.157A1.165,1.165,0,0,0,246.662,10.125Zm-1.72.673V9.446h.655c.312,0,.49.159.49.416a.391.391,0,0,1-.324.386l.324.551h-.324l-.3-.514h-.226V10.8h-.288Zm.288-1.089v.306h.355c.141,0,.214-.067.214-.159s-.067-.147-.2-.147Z" transform="translate(-143.222 -3.387)" fill="#1e2eb8"/>
  </g>
  <g id="Group_12546" data-name="Group 12546" transform="translate(56.177 49.446)">
    <path id="Path_19682" data-name="Path 19682" d="M78.926,42.752,81.54,36.87h.7l2.607,5.882h-.765L83.3,40.977H80.45l-.771,1.775H78.92Zm4.1-2.411-1.151-2.607L80.744,40.34h2.283Z" transform="translate(-78.92 -36.735)" fill="#1e2eb8"/>
    <path id="Path_19683" data-name="Path 19683" d="M90.473,40.418a1.673,1.673,0,0,1,1.451-.728c1.12,0,1.714.8,1.714,1.952v2.209h-.679V41.685c0-.814-.41-1.377-1.193-1.377a1.3,1.3,0,0,0-1.285,1.42v2.124H89.8V39.794h.673v.63Z" transform="translate(-83.141 -37.829)" fill="#1e2eb8"/>
    <path id="Path_19684" data-name="Path 19684" d="M101.662,36.87v5.882h-.722V36.87Z" transform="translate(-87.463 -36.735)" fill="#1e2eb8"/>
    <path id="Path_19685" data-name="Path 19685" d="M104.807,40.418a1.676,1.676,0,0,1,1.457-.728c1.12,0,1.714.8,1.714,1.952v2.209H107.3V41.685c0-.814-.41-1.377-1.193-1.377a1.3,1.3,0,0,0-1.285,1.42v2.124h-.679V39.794h.673v.63Z" transform="translate(-88.704 -37.829)" fill="#1e2eb8"/>
    <path id="Path_19686" data-name="Path 19686" d="M111.957,39.668H111.4v-.606h.557V37.82h.679v1.242h.943v.606h-.943v2.313c0,.386.184.532.5.532h.447v.612h-.545c-.759,0-1.077-.337-1.077-1.083V39.674Z" transform="translate(-91.521 -37.104)" fill="#1e2eb8"/>
    <path id="Path_19687" data-name="Path 19687" d="M119.243,42.7l.41.379a2.208,2.208,0,0,1-1.842.9,2.143,2.143,0,0,1-.012-4.284,1.95,1.95,0,0,1,2,2.093,2.285,2.285,0,0,1-.024.288H116.44a1.419,1.419,0,0,0,1.438,1.328,1.7,1.7,0,0,0,1.371-.7Zm-2.809-1.163h2.675a1.306,1.306,0,0,0-1.3-1.267A1.368,1.368,0,0,0,116.434,41.532Z" transform="translate(-93.201 -37.829)" fill="#1e2eb8"/>
    <path id="Path_19688" data-name="Path 19688" d="M124.582,42.752h-.692V36.87h.692Z" transform="translate(-96.367 -36.735)" fill="#1e2eb8"/>
    <path id="Path_19689" data-name="Path 19689" d="M134.506,40.977l.557.318a2.723,2.723,0,0,1-2.522,1.506,2.9,2.9,0,0,1-2.932-3.066,2.963,2.963,0,0,1,3.011-3.085,2.583,2.583,0,0,1,2.418,1.469l-.581.343a1.98,1.98,0,0,0-1.854-1.169,2.435,2.435,0,0,0-.043,4.853,2.142,2.142,0,0,0,1.952-1.175Z" transform="translate(-98.586 -36.65)" fill="#1e2eb8"/>
    <path id="Path_19690" data-name="Path 19690" d="M139.64,41.824a2.105,2.105,0,0,1,2.124-2.154,2.075,2.075,0,0,1,2.1,2.142,2.105,2.105,0,0,1-2.124,2.154A2.075,2.075,0,0,1,139.64,41.824Zm3.531-.006a1.423,1.423,0,1,0-1.414,1.555A1.472,1.472,0,0,0,143.171,41.818Z" transform="translate(-102.477 -37.822)" fill="#1e2eb8"/>
    <path id="Path_19691" data-name="Path 19691" d="M148.673,40.278a1.407,1.407,0,0,1,1.169-.588,1.389,1.389,0,0,1,1.267.692,1.575,1.575,0,0,1,1.359-.692,1.531,1.531,0,0,1,1.561,1.665v2.5h-.692V41.4c0-.649-.331-1.089-.973-1.089a1.023,1.023,0,0,0-1.016,1.132v2.411h-.679V41.4c0-.649-.33-1.089-.973-1.089a1.023,1.023,0,0,0-1.016,1.132v2.411H148V39.794h.673v.49Z" transform="translate(-105.721 -37.829)" fill="#1e2eb8"/>
    <path id="Path_19692" data-name="Path 19692" d="M159.6,39.792h.673v.655a1.873,1.873,0,0,1,1.506-.747,2,2,0,0,1,2,2.112,2.055,2.055,0,0,1-2.05,2.136,1.915,1.915,0,0,1-1.444-.661v2.087h-.679V39.8Zm2.075,3.556a1.388,1.388,0,0,0,1.4-1.524,1.372,1.372,0,0,0-1.377-1.518,1.477,1.477,0,0,0-1.444,1.536A1.427,1.427,0,0,0,161.675,43.348Z" transform="translate(-110.221 -37.833)" fill="#1e2eb8"/>
    <path id="Path_19693" data-name="Path 19693" d="M170.5,43.173a1.882,1.882,0,0,1-1.555.747c-.894,0-1.512-.49-1.512-1.236s.545-1.242,1.867-1.242h1.193a1.057,1.057,0,0,0-1.126-1.193,1.848,1.848,0,0,0-1.242.545l-.361-.453a2.355,2.355,0,0,1,1.671-.679,1.638,1.638,0,0,1,1.732,1.818V43.84H170.5v-.661Zm-2.393-.5c0,.367.337.7.918.7a1.432,1.432,0,0,0,1.469-1.4H169.3C168.421,41.973,168.1,42.224,168.1,42.671Z" transform="translate(-113.259 -37.818)" fill="#1e2eb8"/>
    <path id="Path_19694" data-name="Path 19694" d="M175.917,40.418a1.684,1.684,0,0,1,1.457-.728c1.12,0,1.714.8,1.714,1.952v2.209h-.679V41.685c0-.814-.41-1.377-1.193-1.377a1.3,1.3,0,0,0-1.285,1.42v2.124h-.679V39.794h.673v.63Z" transform="translate(-116.293 -37.829)" fill="#1e2eb8"/>
    <path id="Path_19695" data-name="Path 19695" d="M182.967,39.846l1.31,3.225,1.31-3.225h.716l-2.362,5.57h-.7l.7-1.548L182.22,39.84h.747Z" transform="translate(-118.997 -37.888)" fill="#1e2eb8"/>
  </g>
  <g id="Group_12549" data-name="Group 12549" transform="translate(7.875 29.665)">
    <path id="Path_19696" data-name="Path 19696" d="M63.746,4.33h1.573v.288h-.643V6.074h-.3V4.618H63.74V4.33Zm3.691,1.738h-.3V4.63l-.514.967H66.36l-.52-.979V6.074h-.3V4.336H66l.5.918.477-.918h.459V6.074Z" transform="translate(-24.729 -4.33)" fill="#1e2eb8"/>
    <g id="Group_12548" data-name="Group 12548">
      <g id="Group_12547" data-name="Group 12547">
        <path id="Path_19697" data-name="Path 19697" d="M0,27.113V35.6H8.673V18.44Z" transform="translate(0 -9.804)" fill="#1e2eb8"/>
        <path id="Path_19698" data-name="Path 19698" d="M35.077,4.33H22.806L14.17,12.966h3.642c2.167.012,3.293,1.493,3.293,3.813V30.127h8.673V12.966h3.642c2.167.012,3.293,1.493,3.293,3.813V30.127h8.673V14.539C45.384,8.3,41.963,4.33,35.077,4.33Z" transform="translate(-5.497 -4.33)" fill="#1e2eb8"/>
      </g>
      <rect id="Rectangle_5541" data-name="Rectangle 5541" width="8.673" height="8.636" fill="#1e2eb8"/>
    </g>
  </g>
</svg>
