<svg id="logo-thanhnien" xmlns="http://www.w3.org/2000/svg" xmlns:xlink="http://www.w3.org/1999/xlink" width="160" height="80" viewBox="0 0 160 80">
  <defs>
    <clipPath id="clip-path">
      <rect id="Rectangle_5767" data-name="Rectangle 5767" width="115" height="32.961" fill="#fff"/>
    </clipPath>
  </defs>
  <rect id="boundingbox" width="160" height="80" fill="#fff" opacity="0"/>
  <g id="Group_18617" data-name="Group 18617" transform="translate(22.5 23.75)" clip-path="url(#clip-path)">
    <path id="Path_45933" data-name="Path 45933" d="M17.2,195.466V191.4h1.089a1.294,1.294,0,0,1,1.031.479,1.918,1.918,0,0,1,.392,1.249v.61a2,2,0,0,1-.392,1.249,1.254,1.254,0,0,1-1.031.479Zm.552-3.5v2.977h.537a.766.766,0,0,0,.639-.334,1.394,1.394,0,0,0,.232-.857v-.61a1.516,1.516,0,0,0-.232-.857.766.766,0,0,0-.639-.334Z" transform="translate(-14.703 -163.608)" fill="#414042"/>
    <path id="Path_45934" data-name="Path 45934" d="M39.466,195.466H38.9V191.4h.552C39.466,191.415,39.466,195.466,39.466,195.466Z" transform="translate(-33.252 -163.608)" fill="#414042"/>
    <path id="Path_45935" data-name="Path 45935" d="M49.844,183.65H48.552v1.292h1.525v.537H48v-4.066h2.062v.537h-1.51V183.1h1.292Zm.058-2.512-.479.015L49,180.716l-.392.436h-.479v-.015l.653-.668h.436Zm-.276-1.35a.606.606,0,0,1-.1.334.306.306,0,0,1-.261.16.6.6,0,0,1-.261-.1.586.586,0,0,0-.232-.1c-.044,0-.073.015-.116.073a.225.225,0,0,0-.044.16l-.218-.073a.69.69,0,0,1,.1-.334.306.306,0,0,1,.261-.16.767.767,0,0,1,.261.1.586.586,0,0,0,.232.1c.044,0,.073-.015.116-.073a.279.279,0,0,0,.058-.174Z" transform="translate(-41.03 -153.607)" fill="#414042"/>
    <path id="Path_45936" data-name="Path 45936" d="M68.285,195.466h-.552l-1.467-2.919h-.015v2.919H65.7V191.4h.581l1.452,2.919h.015V191.4H68.3v4.066Z" transform="translate(-56.16 -163.608)" fill="#414042"/>
    <path id="Path_45937" data-name="Path 45937" d="M94.263,195.551v-1.83H93.9v-.479h.363V191.5h1.089a1.294,1.294,0,0,1,1.031.479,1.918,1.918,0,0,1,.392,1.249v.61a2,2,0,0,1-.392,1.249,1.274,1.274,0,0,1-1.031.479Zm1.133-1.815h-.6v1.292h.537a.766.766,0,0,0,.639-.334,1.394,1.394,0,0,0,.232-.857v-.61a1.516,1.516,0,0,0-.232-.857.766.766,0,0,0-.639-.334H94.8v1.205h.6Z" transform="translate(-80.265 -163.694)" fill="#414042"/>
    <path id="Path_45938" data-name="Path 45938" d="M117.618,187.854h-1.176l-.261.958H115.6l1.147-4.066h.537l1.147,4.066h-.581Zm-.334-3.5h-.45l-.6-.741V183.6h.639Zm-.7,2.933h.871l-.421-1.612h-.015Z" transform="translate(-98.815 -156.941)" fill="#414042"/>
    <path id="Path_45939" data-name="Path 45939" d="M140.6,195.466h-.552l-1.481-2.919h-.015v2.919H138V191.4h.552l1.467,2.919h.015V191.4h.552Z" transform="translate(-117.962 -163.608)" fill="#414042"/>
    <path id="Path_45940" data-name="Path 45940" d="M170.426,193.8a1.45,1.45,0,0,1-.319,1.016,1.211,1.211,0,0,1-1.844-.1,2.072,2.072,0,0,1-.363-1.234v-.77a2.006,2.006,0,0,1,.363-1.234,1.071,1.071,0,0,1,.929-.479,1.151,1.151,0,0,1,.915.363,1.353,1.353,0,0,1,.319.987v.015h-.537a.9.9,0,0,0-.174-.61.659.659,0,0,0-.537-.218.637.637,0,0,0-.537.334,1.46,1.46,0,0,0-.2.828v.77a1.46,1.46,0,0,0,.2.828.626.626,0,0,0,.552.319.669.669,0,0,0,.523-.218,1.014,1.014,0,0,0,.174-.639Z" transform="translate(-143.521 -163.266)" fill="#414042"/>
    <path id="Path_45941" data-name="Path 45941" d="M191.37,182.61V185.3a1.506,1.506,0,0,1-.363,1.074,1.315,1.315,0,0,1-1.844,0,1.549,1.549,0,0,1-.363-1.074V182.61h.552V185.3a.9.9,0,0,0,.2.668.655.655,0,0,0,.523.232.684.684,0,0,0,.537-.232.945.945,0,0,0,.2-.668V182.61Zm-1.5-.348-.014-.421c.116,0,.2-.015.232-.058a.145.145,0,0,0,.073-.145.2.2,0,0,0-.1-.16.447.447,0,0,0-.261-.044l.014-.334a.955.955,0,0,1,.581.145.431.431,0,0,1,.2.392.547.547,0,0,1-.1.3.442.442,0,0,1-.232.116v.2Z" transform="translate(-161.386 -154.804)" fill="#414042"/>
    <path id="Path_45942" data-name="Path 45942" d="M210.618,194.607h-1.176l-.261.958H208.6l1.147-4.066h.523l1.147,4.066h-.581Zm-1.031-.566h.871l-.421-1.612h-.015Z" transform="translate(-178.311 -163.694)" fill="#414042"/>
    <path id="Path_45943" data-name="Path 45943" d="M241.5,195.466h-.552v-1.728h-1.5v1.728H238.9V191.4h.552v1.786h1.5V191.4h.552Z" transform="translate(-204.211 -163.608)" fill="#414042"/>
    <path id="Path_45944" data-name="Path 45944" d="M263.515,186.716a1.9,1.9,0,0,1-.378,1.234,1.224,1.224,0,0,1-.987.494,1.178,1.178,0,0,1-.973-.494,1.924,1.924,0,0,1-.378-1.234v-.741a1.9,1.9,0,0,1,.378-1.234,1.217,1.217,0,0,1,.973-.494,1.185,1.185,0,0,1,.987.494,2.013,2.013,0,0,1,.378,1.234Zm-.537-.741a1.462,1.462,0,0,0-.218-.828.663.663,0,0,0-.6-.319.672.672,0,0,0-.581.319,1.462,1.462,0,0,0-.218.828v.741a1.462,1.462,0,0,0,.218.828.656.656,0,0,0,.581.319.663.663,0,0,0,.6-.319,1.462,1.462,0,0,0,.218-.828Zm-.044-2.193v.058H262.5l-.319-.392-.319.392h-.436v-.073l.6-.668h.319Zm-.465,5.59h-.624v-.61h.61v.61Z" transform="translate(-222.931 -156.514)" fill="#414042"/>
    <path id="Path_45945" data-name="Path 45945" d="M284.352,195.466H283.8V191.4h.552Z" transform="translate(-242.592 -163.608)" fill="#414042"/>
    <path id="Path_45946" data-name="Path 45946" d="M301.352,195.028h1.554v.537H300.8V191.5h.552Z" transform="translate(-257.123 -163.694)" fill="#414042"/>
    <path id="Path_45947" data-name="Path 45947" d="M319.352,195.466H318.8V191.4h.552Z" transform="translate(-272.51 -163.608)" fill="#414042"/>
    <path id="Path_45948" data-name="Path 45948" d="M329.744,186.983h-1.292v1.292h1.525v.537H327.9v-4.066h2.062v.537h-1.51v1.147h1.292Zm-.029-2.7v.058h-.436l-.319-.392-.319.392H328.2v-.073l.6-.668h.319Z" transform="translate(-280.288 -156.941)" fill="#414042"/>
    <path id="Path_45949" data-name="Path 45949" d="M348.285,195.466h-.552l-1.467-2.919h-.015v2.919H345.7V191.4h.552l1.467,2.919h.015V191.4h.552Z" transform="translate(-295.504 -163.608)" fill="#414042"/>
    <path id="Path_45950" data-name="Path 45950" d="M378.8,195.466h-.552v-1.728h-1.5v1.728H376.2V191.4h.552v1.786h1.5V191.4h.552Z" transform="translate(-321.575 -163.608)" fill="#414042"/>
    <path id="Path_45951" data-name="Path 45951" d="M399.752,195.466H399.2V191.4h.552Z" transform="translate(-341.235 -163.608)" fill="#414042"/>
    <path id="Path_45952" data-name="Path 45952" d="M409.959,186.983h-1.292v1.292h1.525v.537H408.1v-4.066h2.062v.537h-1.51v1.147h1.292Zm-.044-2.7v.058h-.436l-.319-.392-.319.392h-.465v-.073l.6-.668h.319Zm-.45,5.474h-.61v-.61h.61Z" transform="translate(-348.843 -156.941)" fill="#414042"/>
    <path id="Path_45953" data-name="Path 45953" d="M426.552,194.112v1.554H426V191.6h1.278a1.049,1.049,0,0,1,.857.363,1.347,1.347,0,0,1,.319.915,1.256,1.256,0,0,1-.319.915,1.076,1.076,0,0,1-.857.334Zm0-.552h.711a.483.483,0,0,0,.45-.2.861.861,0,0,0,.16-.523.893.893,0,0,0-.16-.523.515.515,0,0,0-.45-.2h-.711Z" transform="translate(-364.144 -163.779)" fill="#414042"/>
    <path id="Path_45954" data-name="Path 45954" d="M455.1,192.137h-1.031v3.514h-.552v-3.514H452.5V191.6h2.585v.537Z" transform="translate(-386.796 -163.779)" fill="#414042"/>
    <path id="Path_45955" data-name="Path 45955" d="M475.97,195.466h-.552v-1.728h-1.467v1.728H473.4V191.4h.552v1.786h1.5V191.4H476v4.066Z" transform="translate(-404.661 -163.608)" fill="#414042"/>
    <path id="Path_45956" data-name="Path 45956" d="M496.018,194.607h-1.176l-.261.958H494l1.147-4.066h.523l1.147,4.066h-.581Zm-.987-.566h.871l-.421-1.612h-.015Z" transform="translate(-422.27 -163.694)" fill="#414042"/>
    <path id="Path_45957" data-name="Path 45957" d="M519.185,195.466h-.552l-1.467-2.919h-.014v2.919H516.6V191.4h.552l1.466,2.919h.015V191.4h.552Z" transform="translate(-441.589 -163.608)" fill="#414042"/>
    <path id="Path_45958" data-name="Path 45958" d="M541.8,195.466h-.552v-1.728h-1.5v1.728H539.2V191.4h.552v1.786h1.5V191.4h.552Z" transform="translate(-460.907 -163.608)" fill="#414042"/>
    <path id="Path_45959" data-name="Path 45959" d="M572.5,195.466h-.566l-1.467-2.919h-.015v2.919H569.9V191.4h.552l1.467,2.919h.015V191.4h.552v4.066Z" transform="translate(-487.149 -163.608)" fill="#414042"/>
    <path id="Path_45960" data-name="Path 45960" d="M593.452,195.466H592.9V191.4h.552Z" transform="translate(-506.81 -163.608)" fill="#414042"/>
    <path id="Path_45961" data-name="Path 45961" d="M603.744,186.983h-1.292v1.292h1.525v.537H601.9v-4.066h2.062v.537h-1.51v1.147h1.292Zm-.058-2.7v.058h-.436l-.319-.392-.319.392h-.436v-.073l.6-.668h.319Z" transform="translate(-514.503 -156.941)" fill="#414042"/>
    <path id="Path_45962" data-name="Path 45962" d="M622.185,195.466h-.552l-1.467-2.919h-.014v2.919H619.6V191.4h.552l1.466,2.919h.015V191.4h.552Z" transform="translate(-529.633 -163.608)" fill="#414042"/>
    <path id="Path_45963" data-name="Path 45963" d="M649.379,194.462l.058.3h.015l.058-.3.8-2.962h.6l-1.191,4.066h-.523L648,191.5h.6Z" transform="translate(-553.909 -163.694)" fill="#414042"/>
    <path id="Path_45964" data-name="Path 45964" d="M671.466,195.466H670.9V191.4h.552v4.066Z" transform="translate(-573.484 -163.608)" fill="#414042"/>
    <path id="Path_45965" data-name="Path 45965" d="M681.473,186.983h-1.292v1.292h1.51v.537H679.6v-4.066h2.062v.537h-1.51v1.147h1.292v.552Zm-.029-2.7v.058h-.436l-.319-.392-.319.392h-.436v-.073l.6-.668h.319Zm-.465,5.474h-.61v-.61h.61Z" transform="translate(-580.921 -156.941)" fill="#414042"/>
    <path id="Path_45966" data-name="Path 45966" d="M698.3,192.137h-1.031v3.514h-.552v-3.514H695.7V191.6h2.585Z" transform="translate(-594.683 -163.779)" fill="#414042"/>
    <path id="Path_45967" data-name="Path 45967" d="M727.085,195.466h-.552l-1.466-2.919h-.015v2.919H724.5V191.4h.552l1.467,2.919h.014V191.4h.552Z" transform="translate(-619.301 -163.608)" fill="#414042"/>
    <path id="Path_45968" data-name="Path 45968" d="M747.418,194.607h-1.176l-.261.958H745.4l1.147-4.066h.523l1.147,4.066h-.581Zm-1.016-.566h.871l-.421-1.612h-.014Z" transform="translate(-637.166 -163.694)" fill="#414042"/>
    <path id="Path_45969" data-name="Path 45969" d="M769.57,194.622l.973-3.122h.711v4.066H770.7v-2.9h-.015l-.915,2.919H769.4l-.929-2.977h-.015v2.977H767.9v-4.066h.741Z" transform="translate(-656.399 -163.694)" fill="#414042"/>
    <path id="Path_45970" data-name="Path 45970" d="M101.829,2.15c5.358,0,7.231,1.83,7.957,2.425V2.164h5.3V24.191h-5.2V14.739c0-.9-.828-3.369-2.773-3.4v12.85h-5.285ZM95.4,19.2h5.387v5.009H90.4V2.15h10.367V7.159H95.382v3.732h4.6V15.1h-4.6V19.2ZM84.651,2.15h5.009V24.177H84.651Zm-14.215,0c5.358,0,7.231,1.83,7.957,2.425V2.164h5.314V24.191h-5.2V14.739c0-.9-.828-3.369-2.773-3.4v12.85H70.45V2.15Zm-8.712,0h4.995V24.177H61.709V14.361H59.081v9.816H54.072V2.15h5.009v8.1h2.628V2.15Zm-22.071,0c5.358,0,7.231,1.83,7.957,2.425V2.164h5.314V24.191h-5.2V14.739c0-.9-.828-3.369-2.773-3.4v12.85H39.668V2.15ZM25.481,24.221h5.372v-2.7h2.614v2.686H38.84V2.15C28.632,2.164,25.5,9.6,25.481,14.637Zm8-14.128v6.854h-2.6V15.16C30.854,13.5,32.03,10.092,33.482,10.092ZM19.7,2.15h5.009V24.177H19.7V14.361H17.1v9.816H12.094V2.15H17.1v8.1h2.628V2.15ZM.1,2.15H11.382V6.433H8.3V24.162H3.178V6.448H.1Zm94.309-.958L95.541.059a.442.442,0,0,1,.581,0l1.133,1.133c.145.145.276.276,0,.581-.276.276-.421.145-.581,0L95.817.916l-.857.857c-.145.145-.276.276-.581,0C94.1,1.482,94.264,1.337,94.409,1.191Z" transform="translate(-0.086 0.043)" fill="#0098d1"/>
  </g>
</svg>
