<svg id="logo-cafef" xmlns="http://www.w3.org/2000/svg" width="160" height="80" viewBox="0 0 160 80">
  <rect id="boundingbox" width="160" height="80" fill="#fff" opacity="0"/>
  <g id="Group_18618" data-name="Group 18618" transform="translate(15 25)">
    <path id="Path_45971" data-name="Path 45971" d="M1.8,33.959h.833V29.086H4.189V28.4H.241v.685H1.8Zm4.1-2.336h.989l1.113,2.336h.919L7.71,31.546c.763-.171,1.1-.646,1.1-1.565a1.548,1.548,0,0,0-.4-1.176,1.764,1.764,0,0,0-1.362-.4H5.07v5.559H5.9Zm-.016-.662V29.07H6.97c.7,0,1.012.288,1.012.95,0,.646-.3.942-.965.942ZM13.06,32.8l.389,1.16h.9L12.328,28.4h-.8L9.5,33.959h.9l.389-1.16Zm-.2-.67H11l.934-2.717Zm1.988,1.83h.81V29.8l2.476,4.157h.81V28.4h-.81v4.157L15.655,28.4h-.81Zm7.379-2.336h1.043v.428c0,.88-.382,1.308-1.168,1.308-.849,0-1.168-.444-1.168-1.643V30.658c0-1.191.319-1.643,1.16-1.643a.944.944,0,0,1,1.059.864l.771-.054c-.054-.973-.7-1.487-1.861-1.487a1.855,1.855,0,0,0-1.526.592A2.324,2.324,0,0,0,20.1,30.6v1.16a2.468,2.468,0,0,0,.358,1.58,1.85,1.85,0,0,0,1.658.693,1.9,1.9,0,0,0,1.573-.623,2.192,2.192,0,0,0,.4-1.541v-.9H22.225Zm5.32,2.336h.833V29.086h1.557V28.4H25.987v.685h1.557Zm3.264,0h.833V31.492h2.133v2.468h.833V28.4h-.833v2.406H31.642V28.4h-.833Zm4.965-2.1a2.283,2.283,0,0,0,.382,1.51,1.861,1.861,0,0,0,1.627.67,1.891,1.891,0,0,0,1.541-.576,2.14,2.14,0,0,0,.459-1.6V30.5a2.284,2.284,0,0,0-.382-1.51,1.855,1.855,0,0,0-1.619-.67,1.9,1.9,0,0,0-1.549.576,2.152,2.152,0,0,0-.459,1.6Zm3.176-.078c0,1.113-.35,1.58-1.168,1.58s-1.176-.467-1.176-1.58v-1.2c0-1.113.35-1.58,1.176-1.58s1.168.467,1.168,1.58Zm-1.176-4.57.5.623h.794l-1.02-1.105H37.5l-1.012,1.105h.794Zm3.175,6.75h.81V29.8l2.476,4.157h.81V28.4h-.81v4.157L41.759,28.4h-.81Zm7.379-2.336h1.043v.428c0,.88-.382,1.308-1.168,1.308-.849,0-1.168-.444-1.168-1.643V30.658c0-1.191.319-1.643,1.16-1.643a.944.944,0,0,1,1.059.864l.771-.054c-.054-.973-.7-1.487-1.861-1.487a1.855,1.855,0,0,0-1.526.592A2.324,2.324,0,0,0,46.2,30.6v1.16a2.468,2.468,0,0,0,.358,1.58,1.85,1.85,0,0,0,1.658.693,1.9,1.9,0,0,0,1.573-.623,2.192,2.192,0,0,0,.4-1.541v-.9H48.328Zm5.32,2.336h.833V29.086h1.557V28.4H52.091v.685h1.557Zm3.264,0h.833V28.4h-.833Zm2.132,0h.81V29.8l2.476,4.157h.81V28.4h-.81v4.157L59.853,28.4h-.81ZM65.8,30.814h-.623v.67H65.8v2.476h1.83a1.815,1.815,0,0,0,2.055-2.133V30.534c.039-1.433-.654-2.157-2.055-2.133H65.8Zm.833,0V29.07h.849c.973-.023,1.362.413,1.37,1.534v1.144c-.008,1.129-.4,1.565-1.37,1.541h-.849V31.484H67.8v-.67Zm4.226,3.145h.833V28.4H70.86Zm2.14,0h3.355v-.685h-2.53V31.492h2.133v-.685H73.825V29.086h2.507V28.4H73Zm1.682-6.75.5.623h.786l-1.012-1.105h-.545l-1.02,1.105h.794Zm-.366,8.307h.771v-.888h-.771Zm3-1.557h.81V29.8L80.6,33.959h.81V28.4H80.6v4.157L78.123,28.4h-.81Zm7.754,0H85.9V29.086h1.557V28.4H83.51v.685h1.557Zm3.1-5.559v3.5a2.367,2.367,0,0,0,.265,1.394,2.306,2.306,0,0,0,3.293.093,2.119,2.119,0,0,0,.343-1.487V30.09a5.829,5.829,0,0,0,.7-.4,1.216,1.216,0,0,0,.622-1.035.929.929,0,0,0-.054-.343h-.7a.84.84,0,0,1,.117.436c0,.366-.18.592-.685.825V28.4h-.834v3.5a2.222,2.222,0,0,1-.132.934.947.947,0,0,1-.981.522.966.966,0,0,1-.95-.451,1.9,1.9,0,0,1-.172-1V28.4Zm2.344-.475a.532.532,0,0,1,.14-.436c.218-.265.249-.319.249-.5,0-.374-.272-.592-.74-.592a1.8,1.8,0,0,0-.662.125l.132.444a.9.9,0,0,1,.4-.109c.14,0,.218.062.218.163a.348.348,0,0,1-.07.195.779.779,0,0,0-.217.607v.1Zm5.6,6.034h.834V29.086h1.557V28.4H94.558v.685h1.557Zm3-2.1a2.284,2.284,0,0,0,.382,1.51,1.86,1.86,0,0,0,1.627.67,1.893,1.893,0,0,0,1.542-.576,2.142,2.142,0,0,0,.459-1.6V30.5a2.284,2.284,0,0,0-.382-1.51,1.855,1.855,0,0,0-1.619-.67,1.9,1.9,0,0,0-1.55.576,2.154,2.154,0,0,0-.459,1.6Zm3.176-.078c0,1.113-.351,1.58-1.168,1.58s-1.176-.467-1.176-1.58v-1.2c0-1.113.351-1.58,1.176-1.58s1.168.467,1.168,1.58Zm-.934-4.7c.008-.163.008-.187.109-.28.171-.179.2-.234.2-.366,0-.28-.234-.452-.623-.452a1.554,1.554,0,0,0-.56.1l.117.358a.728.728,0,0,1,.327-.093c.117,0,.18.031.18.093a.238.238,0,0,1-.055.132.58.58,0,0,0-.187.506Zm-.249.537.482.42h.755l-.981-.833h-.522l-.973.833h.747Zm3.183,6.345h.81V29.8l2.476,4.157h.81V28.4h-.81v4.157L105.1,28.4h-.81Zm7.379-2.336h1.043v.428c0,.88-.382,1.308-1.168,1.308-.849,0-1.168-.444-1.168-1.643V30.658c0-1.191.319-1.643,1.16-1.643a.944.944,0,0,1,1.059.864l.77-.054c-.054-.973-.7-1.487-1.861-1.487a1.855,1.855,0,0,0-1.526.592,2.326,2.326,0,0,0-.436,1.674v1.16a2.469,2.469,0,0,0,.358,1.58,1.851,1.851,0,0,0,1.659.693,1.9,1.9,0,0,0,1.573-.623,2.193,2.193,0,0,0,.4-1.541v-.9h-1.868Zm4.323,2.336h.834V31.492h2.133v2.468h.833V28.4h-.833v2.406h-2.133V28.4h-.834Zm9.192-5.644a.807.807,0,0,1,.117.428c0,.288-.125.475-.474.709a1.749,1.749,0,0,0-1.868-1.129,1.916,1.916,0,0,0-1.542.576,2.154,2.154,0,0,0-.459,1.6v1.355a2.279,2.279,0,0,0,.382,1.51,1.86,1.86,0,0,0,1.627.67,1.89,1.89,0,0,0,1.541-.576,2.139,2.139,0,0,0,.46-1.6V30.5a2.869,2.869,0,0,0-.047-.584,3.648,3.648,0,0,0,.561-.366,1.177,1.177,0,0,0,.459-.911,1,1,0,0,0-.054-.327Zm-1.05,3.464c0,1.113-.351,1.58-1.168,1.58s-1.176-.467-1.176-1.58v-1.2c0-1.106.351-1.573,1.176-1.573s1.168.467,1.168,1.573Zm-1.643,3.737h.771v-.888h-.771Zm4.727-3.644h1a1.9,1.9,0,0,0,1.362-.374,1.71,1.71,0,0,0,.483-1.37,1.727,1.727,0,0,0-.413-1.285,1.78,1.78,0,0,0-1.433-.444h-1.83v5.559h.834ZM127.2,31.2V29.07h1.012c.708,0,1.02.319,1.02,1.067,0,.732-.312,1.059-1.02,1.059Z" transform="translate(-0.055 -6.537)" fill="#525252"/>
    <path id="Path_45972" data-name="Path 45972" d="M45.057,16.935h6v3.971h-6Z" transform="translate(-10.183 -4.493)" fill="#c32022" fill-rule="evenodd"/>
    <path id="Path_45973" data-name="Path 45973" d="M67.694,1.4H92.272V5.794H67.694ZM69.8,7.574H92.272v3.971H73.655v5.847H67.694V9.688A2.112,2.112,0,0,1,69.8,7.574Z" transform="translate(-15.299 -0.982)" fill="#c32022" fill-rule="evenodd"/>
    <path id="Path_45974" data-name="Path 45974" d="M101.8,1.4h24.062V5.794H101.8Zm2.111,6.172h21.951v3.971h-18.1v1.879h18.1V17.4H104.122a2.319,2.319,0,0,1-2.319-2.319V9.688A2.112,2.112,0,0,1,103.914,7.574Z" transform="translate(-23.008 -0.982)" fill="#c32022" fill-rule="evenodd"/>
    <path id="Path_45975" data-name="Path 45975" d="M40.509,1.4,31.128,17.393H38.3L44.911,5.371l6.613,12.022h7.169L49.732,1.4Z" transform="translate(-7.035 -0.982)" fill="#c32022"/>
    <path id="Path_45976" data-name="Path 45976" d="M19.715,10.949a2.349,2.349,0,0,1-2.35,2.35H8.311a2.349,2.349,0,0,1-2.35-2.35V7.179a2.349,2.349,0,0,1,2.35-2.35h9.053a2.349,2.349,0,0,1,2.35,2.35h5.925A7.055,7.055,0,0,0,18.625.86H7.051A7.051,7.051,0,0,0,0,7.911V10.22a7.051,7.051,0,0,0,7.051,7.051H18.625a7.053,7.053,0,0,0,7.015-6.322Z" transform="translate(0 -0.86)" fill="#c32022" fill-rule="evenodd"/>
    <path id="Path_45977" data-name="Path 45977" d="M135.246,1.4h24.577V5.794H135.246Zm2.111,6.172h22.467v3.971H141.207v5.847h-5.961V9.688A2.11,2.11,0,0,1,137.357,7.574Z" transform="translate(-30.566 -0.982)" fill="#344971" fill-rule="evenodd"/>
  </g>
</svg>
