<svg id="logo-vietnamnet" xmlns="http://www.w3.org/2000/svg" width="160" height="80" viewBox="0 0 160 80">
  <rect id="boundingbox" width="160" height="80" fill="#fff" opacity="0"/>
  <g id="Group_18615" data-name="Group 18615" transform="translate(15 14.451)">
    <g id="Group_18593" data-name="Group 18593">
      <path id="Path_45857" data-name="Path 45857" d="M-183.733,400.225a1.779,1.779,0,0,0,.332,1,1.769,1.769,0,0,0-.249,1v1.161a1.547,1.547,0,0,0,.581,1.327l-.083.083h84.778a1.612,1.612,0,0,0,.664-1.327V402.3a1.647,1.647,0,0,0-1.576-1.659l2.074-2.489a1.5,1.5,0,0,0,.166-1.742,1.733,1.733,0,0,0-1.493-1h-1.327V386.7l2.737-3.235a1.577,1.577,0,0,0,.415-1.078,1.613,1.613,0,0,0-1.659-1.659h-1.493v-4.894a1.759,1.759,0,0,0-1-1.576,1.563,1.563,0,0,0-.664-.166,1.638,1.638,0,0,0-1.161.5l-3.567,3.4a1.688,1.688,0,0,0-.5,1.244v4.645l-2.24-3.318a1.463,1.463,0,0,0-1.244-.664h-.166a1.392,1.392,0,0,0-1.161.5l-5.558,5.641c-.083.083-.083.166-.166.166v-1.659a2.032,2.032,0,0,0-.332-1l-2.323-2.986a1.4,1.4,0,0,0-1.244-.581h-.083a1.688,1.688,0,0,0-1.244.5l-1,1.078a1.526,1.526,0,0,0-1-1.41,1.538,1.538,0,0,0-.581-.166,1.493,1.493,0,0,0-1.244.581l-3.567,3.65a2.084,2.084,0,0,0-.5,1.161v11.779h0a1.5,1.5,0,0,0-.166-.83,1.733,1.733,0,0,0-1.493-1h-.5v-10.7a1.747,1.747,0,0,0-.415-1.078l-2.489-3.069a1.584,1.584,0,0,0-1.161-.581h-.166a1.638,1.638,0,0,0-1.161.5l-2.157,2.074-1.493-1.825a1.621,1.621,0,0,0-1.244-.581h-.083a1.392,1.392,0,0,0-1.161.5l-.415.5a1.8,1.8,0,0,0-.913-.829,1.537,1.537,0,0,0-.581-.166,1.493,1.493,0,0,0-1.244.581l-3.567,3.733a2.078,2.078,0,0,0-.332.581,2.078,2.078,0,0,0-.332-.581l-3.65-3.816a1.688,1.688,0,0,0-1.244-.5,1.747,1.747,0,0,0-1.078.415l-5.89,4.894V384.8a2.033,2.033,0,0,0-.332-1l-2.323-2.986c-.166-.166-.249-.332-.5-.415l12.36-11.779a1.757,1.757,0,0,0,.166-2.24,1.65,1.65,0,0,0-1.327-.581,2.21,2.21,0,0,0-1,.249l-20.738,14.019V376a1.554,1.554,0,0,0-1-1.493,1.563,1.563,0,0,0-.664-.166,1.638,1.638,0,0,0-1.161.5l-3.567,3.4a1.764,1.764,0,0,0-.581,1.244v4.728L-186.3,380.9a1.463,1.463,0,0,0-1.244-.664h-.166a1.688,1.688,0,0,0-1.244.5l-5.475,5.641c-.083.083-.166.166-.166.249v-4.977a7.283,7.283,0,0,0,4.562-6.8,7.346,7.346,0,0,0-7.383-7.383,7.188,7.188,0,0,0-7.217,7.3,7.251,7.251,0,0,0,2.24,5.226h-1.244v.083h-21.4a1.7,1.7,0,0,0-1.576,1.161,1.574,1.574,0,0,0,.581,1.825c8.544,6.056,13.521,14.268,16.259,19.992a54.618,54.618,0,0,1,3.9,11.282,2.053,2.053,0,0,0,1.161,1.327,1.052,1.052,0,0,0,.5.083,1.638,1.638,0,0,0,1.161-.5l13.355-12.941a.871.871,0,0,0,.249-.332h1.742a1.493,1.493,0,0,0,1.244-.581l2.489-2.654.249,1.493Z" transform="translate(226.716 -365.8)" fill="#fff"/>
      <rect id="Rectangle_5766" data-name="Rectangle 5766" width="10.701" height="9.788" transform="translate(34.438 29.282)" fill="#fff"/>
      <path id="Path_45858" data-name="Path 45858" d="M-91.554,420.588l-97.884-.166L-190.6,410.8h99.046Z" transform="translate(220.559 -373.471)" fill="#fff"/>
      <g id="Group_18592" data-name="Group 18592" transform="translate(1.838 1.41)">
        <path id="Path_45859" data-name="Path 45859" d="M-95.82,402.288h3.9l2.572-3.318h-2.9V388.1l3.235-3.65h-3.235V377.9l-3.567,3.4v20.987m-7.3-7.8v-7.8l2.9,4.4-2.9,3.4m-3.484,7.8h5.392l3.069-3.318h-4.977v-3.318l5.641-6.719-3.65-5.309-5.558,5.641.083,13.024m-12.858,0h3.567V388.6l1.576-1.493,1.244,1.493v13.6h2.986l2.572-3.318h-2.157V386.61L-112,383.624l-3.9,4.065v-4.065l-3.567,3.65v15.014m29.282,3.069H-172.8V404.2h82.621v1.161" transform="translate(215.687 -369.273)" fill="#cb2026"/>
        <path id="Path_45860" data-name="Path 45860" d="M-186.518,375.24a5.594,5.594,0,0,1-5.641,5.641,5.594,5.594,0,0,1-5.641-5.641,5.543,5.543,0,0,1,5.641-5.641,5.594,5.594,0,0,1,5.641,5.641h0m-2.323,19-1.41,1v1.493h1.41v-2.489" transform="translate(219.948 -367.858)" fill="#cb2026"/>
        <path id="Path_45861" data-name="Path 45861" d="M-143.962,387.357l3.567-3.733v3.235l3.152-3.235,2.572,3.318,3.484-3.318,2.489,3.069V398.97h2.157l-2.572,3.318h-2.9V388.85l-1.576-1.908-1,1v14.434h-3.318V388.684l-1.576-1.742-1,1v14.434h-3.567V387.357m-12.443,7.134,6.056-5.475-2.406-2.572v2.737h-3.816V388.6l5.973-4.894,3.65,3.816v11.53h2.24l-2.572,3.318h-3.069v-2.82l-3.152,2.737h-2.9v-7.8m5.973,4.562v-9.042L-153,392.334v6.636l2.489.083m-18.664-11.7,3.567-3.733v4.065l3.982-4.065,2.323,2.986v12.36h2.157l-2.489,3.318h-2.986V388.6l-1.327-1.493-1.659,1.493v13.687h-3.567V387.357m-7.3-6.056,3.567-3.4v6.553h3.152l-3.152,3.65v10.95h2.9l-2.572,3.318h-3.9V381.3m-10.867,8.046,5.475-5.641,3.733,5.309-5.641,6.719v3.318h4.894l-3.069,3.318h-5.392V389.347m6.47,1.742-2.9-4.479v7.881l2.9-3.4m-13.024-3.733,3.484-3.733V398.97h2.157l-2.489,3.318h-3.069l-.083-14.932" transform="translate(219.284 -369.273)" fill="#293787"/>
        <path id="Path_45862" data-name="Path 45862" d="M-180.7,398.336l5.641-6.636V398l-2.654,2.572H-180.7Z" transform="translate(217.033 -371.625)" fill="#cb2026"/>
        <path id="Path_45863" data-name="Path 45863" d="M-167.7,388.9l1.991-1.908.166-1.742,5.143-5.475v2.074l15.18-14.351-21.07,14.351h2.737l-4.148,4.728Z" transform="translate(214.817 -367.5)" fill="#cb2026"/>
        <path id="Path_45864" data-name="Path 45864" d="M-190.323,404.277l-13.355,12.858s-3.65-20.075-20.821-32.435h21.07v18.913l3.4-2.406v2.9h4.314l2.24-2.9v2.9h3.152v.166Z" transform="translate(224.5 -370.432)" fill="#cb2026"/>
      </g>
    </g>
    <g id="Group_18614" data-name="Group 18614" transform="translate(29.209 39.403)">
      <g id="Group_18612" data-name="Group 18612">
        <g id="Group_18594" data-name="Group 18594" transform="translate(0 1.825)">
          <path id="Path_45865" data-name="Path 45865" d="M-187.277,421.348l.083.332h0l.083-.332,1.244-4.148h1.244l-1.908,5.641h-1.161L-189.6,417.2h1.244Z" transform="translate(191.179 -415.79)" fill="#293787"/>
          <path id="Path_45866" data-name="Path 45866" d="M-186.938,424.044H-188.1a1.446,1.446,0,0,1-1.41-1l-1.908-5.641a1.492,1.492,0,0,1,.166-1.327,1.4,1.4,0,0,1,1.244-.581h1.244a1.478,1.478,0,0,1,1.327.83,1.478,1.478,0,0,1,1.327-.83h1.244a1.764,1.764,0,0,1,1.244.581,1.525,1.525,0,0,1,.166,1.327l-1.908,5.641A2.246,2.246,0,0,1-186.938,424.044Z" transform="translate(191.504 -415.5)" fill="#fff"/>
        </g>
        <g id="Group_18595" data-name="Group 18595" transform="translate(4.585)">
          <path id="Path_45867" data-name="Path 45867" d="M-182.026,416.4h-1l-1.078-1h1.327Zm0,6.138h-1.161v-5.641h1.161Z" transform="translate(185.657 -413.658)" fill="#293787"/>
          <path id="Path_45868" data-name="Path 45868" d="M-182.346,423.669h-1.161A1.487,1.487,0,0,1-185,422.176v-5.724l-.5-.5a1.58,1.58,0,0,1-.415-1.576,1.519,1.519,0,0,1,1.41-1.078h1.327a1.451,1.451,0,0,1,1.161.581l.747,1.078a1.321,1.321,0,0,1,.249,1.078v5.973A1.417,1.417,0,0,1-182.346,423.669Z" transform="translate(185.977 -413.3)" fill="#fff"/>
        </g>
        <g id="Group_18596" data-name="Group 18596" transform="translate(8.959 1.825)">
          <path id="Path_45869" data-name="Path 45869" d="M-176.577,421.348l.083.332h0l.083-.332,1.244-4.148h1.244l-1.908,5.641h-1.161L-178.9,417.2h1.244Z" transform="translate(180.396 -415.79)" fill="#293787"/>
          <path id="Path_45870" data-name="Path 45870" d="M-176.138,424.044H-177.3a1.446,1.446,0,0,1-1.41-1l-1.908-5.641a1.493,1.493,0,0,1,.166-1.327,1.4,1.4,0,0,1,1.244-.581h1.244a1.478,1.478,0,0,1,1.327.83,1.478,1.478,0,0,1,1.327-.83h1.161a1.764,1.764,0,0,1,1.244.581,1.525,1.525,0,0,1,.166,1.327l-1.908,5.641A2.107,2.107,0,0,1-176.138,424.044Z" transform="translate(180.704 -415.5)" fill="#fff"/>
        </g>
        <g id="Group_18597" data-name="Group 18597" transform="translate(14.437 1.742)">
          <path id="Path_45871" data-name="Path 45871" d="M-171.139,422.841H-172.3V417.2h1.161Z" transform="translate(173.793 -415.707)" fill="#293787"/>
          <path id="Path_45872" data-name="Path 45872" d="M-171.446,424.027h-1.161a1.487,1.487,0,0,1-1.493-1.493v-5.641a1.487,1.487,0,0,1,1.493-1.493h1.161a1.487,1.487,0,0,1,1.493,1.493v5.641A1.487,1.487,0,0,1-171.446,424.027Z" transform="translate(174.1 -415.4)" fill="#fff"/>
        </g>
        <g id="Group_18598" data-name="Group 18598" transform="translate(16.594 0.166)">
          <path id="Path_45873" data-name="Path 45873" d="M-166.265,420.128h-2.074v1.659h2.489v.83h-3.65v-5.641h3.65v.913h-2.489v1.493h2.074Zm0-3.816h0l-.912.083-.581-.5-.581.5h-.912v-.083l1.161-.913h.664Zm-.83,7.632h-1.327v-1h1.327Z" transform="translate(171.159 -413.824)" fill="#293787"/>
          <path id="Path_45874" data-name="Path 45874" d="M-167.435,425.03h-1.327a1.469,1.469,0,0,1-1.493-1.41,1.594,1.594,0,0,1-1.244-1.493v-5.641a1.337,1.337,0,0,1,.5-1.078,1.29,1.29,0,0,1,.5-.664l1.161-.912a1.322,1.322,0,0,1,1-.332h.664a2.358,2.358,0,0,1,1,.332l1.161,1a1.208,1.208,0,0,1,.5.747,1.577,1.577,0,0,1,.415,1.078v.913a1.577,1.577,0,0,1-.415,1.078,3.59,3.59,0,0,1,.083.415v.747a1.052,1.052,0,0,1-.083.5,1.338,1.338,0,0,1,.5,1.078v.912a1.509,1.509,0,0,1-1.244,1.493A1.794,1.794,0,0,1-167.435,425.03Z" transform="translate(171.5 -413.5)" fill="#fff"/>
        </g>
        <g id="Group_18599" data-name="Group 18599" transform="translate(20.659 1.659)">
          <path id="Path_45875" data-name="Path 45875" d="M-160.321,418.112h-1.659v4.811h-1.161v-4.811H-164.8V417.2h4.4v.912Z" transform="translate(166.293 -415.624)" fill="#293787"/>
          <path id="Path_45876" data-name="Path 45876" d="M-162.286,424.01h-1.161a1.487,1.487,0,0,1-1.493-1.493V419.2h-.166a1.487,1.487,0,0,1-1.493-1.493v-.912a1.487,1.487,0,0,1,1.493-1.493h4.4a1.487,1.487,0,0,1,1.493,1.493v.912a1.487,1.487,0,0,1-1.493,1.493h-.166v3.318A1.371,1.371,0,0,1-162.286,424.01Z" transform="translate(166.6 -415.3)" fill="#fff"/>
        </g>
        <g id="Group_18600" data-name="Group 18600" transform="translate(27.627 1.742)">
          <path id="Path_45877" data-name="Path 45877" d="M-151.738,422.841H-152.9l-2.24-3.816h0v3.816H-156.3V417.2h1.161l2.24,3.816h0V417.2h1.161Z" transform="translate(157.876 -415.707)" fill="#293787"/>
          <path id="Path_45878" data-name="Path 45878" d="M-152.062,424.027h-1.161a1.451,1.451,0,0,1-1.161-.581,1.451,1.451,0,0,1-1.161.581h-1.161a1.487,1.487,0,0,1-1.493-1.493v-5.641a1.487,1.487,0,0,1,1.493-1.493h1.161a1.451,1.451,0,0,1,1.161.581,1.452,1.452,0,0,1,1.161-.581h1.161a1.487,1.487,0,0,1,1.493,1.493v5.641A1.542,1.542,0,0,1-152.062,424.027Z" transform="translate(158.2 -415.4)" fill="#fff"/>
        </g>
        <g id="Group_18601" data-name="Group 18601" transform="translate(32.766 1.825)">
          <path id="Path_45879" data-name="Path 45879" d="M-146.6,421.7h-1.825l-.332,1.244H-150l1.908-5.641h1.161l1.825,5.641h-1.244Zm-1.576-.913h1.327l-.664-1.991h0Z" transform="translate(151.662 -415.807)" fill="#293787"/>
          <path id="Path_45880" data-name="Path 45880" d="M-145.364,424.044h-1.244a1.478,1.478,0,0,1-1.327-.83,1.478,1.478,0,0,1-1.327.83h-1.244a1.764,1.764,0,0,1-1.244-.581,1.525,1.525,0,0,1-.166-1.327l1.908-5.641a1.446,1.446,0,0,1,1.41-1h1.161a1.446,1.446,0,0,1,1.41,1l1.825,5.641a1.525,1.525,0,0,1-.166,1.327A.975.975,0,0,1-145.364,424.044Z" transform="translate(152.004 -415.5)" fill="#fff"/>
        </g>
        <g id="Group_18602" data-name="Group 18602" transform="translate(38.245 1.742)">
          <path id="Path_45881" data-name="Path 45881" d="M-140.4,421.431h0l1.493-4.148h1.493v5.641h-1.161v-3.9h0l-1.41,3.9h-.747l-1.41-3.9h0v3.816H-143.3V417.2h1.493Z" transform="translate(145.042 -415.707)" fill="#293787"/>
          <path id="Path_45882" data-name="Path 45882" d="M-137.851,424.027h-1.161a2.424,2.424,0,0,1-.747-.166,2.424,2.424,0,0,1-.747.166h-.747a2.424,2.424,0,0,1-.747-.166,2.424,2.424,0,0,1-.747.166h-1.161a1.487,1.487,0,0,1-1.493-1.493v-5.641a1.487,1.487,0,0,1,1.493-1.493h1.493a1.526,1.526,0,0,1,1.41,1l.083.249.083-.249a1.526,1.526,0,0,1,1.41-1h1.493a1.487,1.487,0,0,1,1.493,1.493v5.641A1.372,1.372,0,0,1-137.851,424.027Z" transform="translate(145.4 -415.4)" fill="#fff"/>
        </g>
        <g id="Group_18603" data-name="Group 18603" transform="translate(47.286 1.742)">
          <path id="Path_45883" data-name="Path 45883" d="M-128.038,422.841H-129.2v-2.323h-2.24v2.323H-132.6V417.2h1.161v2.406h2.24V417.2h1.161Z" transform="translate(134.176 -415.707)" fill="#293787"/>
          <path id="Path_45884" data-name="Path 45884" d="M-128.362,424.027h-1.161a1.451,1.451,0,0,1-1.161-.581,1.451,1.451,0,0,1-1.161.581h-1.161a1.487,1.487,0,0,1-1.493-1.493v-5.641a1.487,1.487,0,0,1,1.493-1.493h1.161a1.451,1.451,0,0,1,1.161.581,1.451,1.451,0,0,1,1.161-.581h1.161a1.487,1.487,0,0,1,1.493,1.493v5.641A1.487,1.487,0,0,1-128.362,424.027Z" transform="translate(134.5 -415.4)" fill="#fff"/>
        </g>
        <g id="Group_18604" data-name="Group 18604" transform="translate(52.927 0.083)">
          <path id="Path_45885" data-name="Path 45885" d="M-121.355,416.976v3.733a1.823,1.823,0,0,1-.664,1.493,2.672,2.672,0,0,1-1.659.581,2.259,2.259,0,0,1-1.659-.581,1.942,1.942,0,0,1-.664-1.493v-3.733h1.161v3.733a1.133,1.133,0,0,0,.332.912,1.267,1.267,0,0,0,.83.332.962.962,0,0,0,.83-.332,1.034,1.034,0,0,0,.332-.912v-3.733Zm-1.825-.581h-1l-1.078-1h1.327Z" transform="translate(127.41 -413.741)" fill="#293787"/>
          <path id="Path_45886" data-name="Path 45886" d="M-123.967,423.769a3.89,3.89,0,0,1-2.572-.913,3.276,3.276,0,0,1-1.161-2.572v-3.733a1.478,1.478,0,0,1,.83-1.327,1.171,1.171,0,0,1,.083-.747,1.519,1.519,0,0,1,1.41-1.078h1.327a1.451,1.451,0,0,1,1.161.581l.747,1h.581a1.487,1.487,0,0,1,1.493,1.493V420.2a3.277,3.277,0,0,1-1.161,2.572A3.869,3.869,0,0,1-123.967,423.769Z" transform="translate(127.7 -413.4)" fill="#fff"/>
        </g>
        <g id="Group_18605" data-name="Group 18605" transform="translate(58.319 1.742)">
          <path id="Path_45887" data-name="Path 45887" d="M-114.738,422.841H-115.9l-2.24-3.816h0v3.816H-119.3V417.2h1.161l2.24,3.816h0V417.2h1.161v5.641Z" transform="translate(120.876 -415.707)" fill="#293787"/>
          <path id="Path_45888" data-name="Path 45888" d="M-115.062,424.027h-1.161a1.451,1.451,0,0,1-1.161-.581,1.451,1.451,0,0,1-1.161.581h-1.161a1.487,1.487,0,0,1-1.493-1.493v-5.641a1.487,1.487,0,0,1,1.493-1.493h1.161a1.451,1.451,0,0,1,1.161.581,1.451,1.451,0,0,1,1.161-.581h1.161a1.487,1.487,0,0,1,1.493,1.493v5.641A1.487,1.487,0,0,1-115.062,424.027Z" transform="translate(121.2 -415.4)" fill="#fff"/>
        </g>
        <g id="Group_18606" data-name="Group 18606" transform="translate(63.96 1.742)">
          <path id="Path_45889" data-name="Path 45889" d="M-108.355,422.026a1.641,1.641,0,0,1-.83.581,3.305,3.305,0,0,1-1.41.249,2.677,2.677,0,0,1-1.742-.664A2.377,2.377,0,0,1-113,420.45v-1.244a2.677,2.677,0,0,1,.664-1.742,2.316,2.316,0,0,1,1.659-.664,2.477,2.477,0,0,1,1.659.5,1.547,1.547,0,0,1,.581,1.327h-1.078a1.014,1.014,0,0,0-.249-.747,1.014,1.014,0,0,0-.747-.249,1.021,1.021,0,0,0-.83.415,1.53,1.53,0,0,0-.332,1.078v1.244a1.529,1.529,0,0,0,.332,1.078,1.188,1.188,0,0,0,.912.415,1.616,1.616,0,0,0,.664-.083,1.145,1.145,0,0,0,.332-.249v-1.161h-1.078v-.83h2.157v2.489Z" transform="translate(114.161 -415.639)" fill="#293787"/>
          <path id="Path_45890" data-name="Path 45890" d="M-110.667,424.11a3.69,3.69,0,0,1-2.654-1.078,3.631,3.631,0,0,1-1.078-2.655v-1.244a3.385,3.385,0,0,1,1.078-2.655,3.631,3.631,0,0,1,2.654-1.078,3.89,3.89,0,0,1,2.572.913,3.1,3.1,0,0,1,1.078,2.406.5.5,0,0,1-.083.332,1.563,1.563,0,0,1,.166.664v2.157a1.248,1.248,0,0,1-.332.913,4.431,4.431,0,0,1-1.327,1.078A7.469,7.469,0,0,1-110.667,424.11Z" transform="translate(114.4 -415.4)" fill="#fff"/>
        </g>
        <g id="Group_18607" data-name="Group 18607" transform="translate(70.347 1.659)">
          <path id="Path_45891" data-name="Path 45891" d="M-100.521,420.982h0a1.775,1.775,0,0,1-.581,1.493,2.392,2.392,0,0,1-1.576.5,2.316,2.316,0,0,1-1.659-.664,2.376,2.376,0,0,1-.664-1.742v-1.161a2.677,2.677,0,0,1,.664-1.742,2.316,2.316,0,0,1,1.659-.664,2.632,2.632,0,0,1,1.659.5,1.775,1.775,0,0,1,.581,1.493H-101.6a1.238,1.238,0,0,0-.249-.83,1.1,1.1,0,0,0-.83-.249,1.152,1.152,0,0,0-.83.415,2.075,2.075,0,0,0-.332,1.078v1.161a1.53,1.53,0,0,0,.332,1.078,1.021,1.021,0,0,0,.83.415,1.014,1.014,0,0,0,.747-.249,1.238,1.238,0,0,0,.249-.829Z" transform="translate(106.41 -415.59)" fill="#293787"/>
          <path id="Path_45892" data-name="Path 45892" d="M-102.967,424.093h-.249a3.2,3.2,0,0,1-2.406-1.161,4,4,0,0,1-1.078-2.655v-1.161a3.768,3.768,0,0,1,1-2.654,3.578,3.578,0,0,1,2.654-1.161,3.89,3.89,0,0,1,2.572.912A3.2,3.2,0,0,1-99.4,418.7a.622.622,0,0,1-.083.415c-.083.166-.166.415-.332.5a1.735,1.735,0,0,1,.332.5h0a.9.9,0,0,1,.083.415,3.062,3.062,0,0,1-1.078,2.489A2.734,2.734,0,0,1-102.967,424.093Z" transform="translate(106.7 -415.3)" fill="#fff"/>
        </g>
        <g id="Group_18608" data-name="Group 18608" transform="translate(75.49 1.161)">
          <path id="Path_45893" data-name="Path 45893" d="M-94.255,417.181v.747h0c.249-.083.415-.166.5-.415a2.561,2.561,0,0,0,.166-.912h.83a2.373,2.373,0,0,1-.332,1.41,1.626,1.626,0,0,1-1.161.664v2.24a1.822,1.822,0,0,1-.664,1.493,2.671,2.671,0,0,1-1.659.581,2.259,2.259,0,0,1-1.659-.581,1.942,1.942,0,0,1-.664-1.493v-3.733h1.161v3.733a1.133,1.133,0,0,0,.332.912,1.268,1.268,0,0,0,.83.332.962.962,0,0,0,.83-.332,1.034,1.034,0,0,0,.332-.912v-3.733Z" transform="translate(100.227 -415.024)" fill="#293787"/>
          <path id="Path_45894" data-name="Path 45894" d="M-96.767,423.991a3.89,3.89,0,0,1-2.572-.913,3.276,3.276,0,0,1-1.161-2.572v-3.733a1.487,1.487,0,0,1,1.493-1.493h1.161a1.451,1.451,0,0,1,1.161.581,1.451,1.451,0,0,1,1.161-.581h.581a1.451,1.451,0,0,1,1.161-.581h.83a1.487,1.487,0,0,1,1.493,1.493,3.775,3.775,0,0,1-.664,2.24,3.91,3.91,0,0,1-.83.83v1.244a3.277,3.277,0,0,1-1.161,2.572A3.84,3.84,0,0,1-96.767,423.991Z" transform="translate(100.5 -414.7)" fill="#fff"/>
        </g>
        <g id="Group_18609" data-name="Group 18609" transform="translate(81.048 0)">
          <path id="Path_45895" data-name="Path 45895" d="M-87.289,420.294a2.376,2.376,0,0,1-.664,1.742,2.09,2.09,0,0,1-1.742.664,2.376,2.376,0,0,1-1.742-.664,2.677,2.677,0,0,1-.664-1.742v-1.078a2.376,2.376,0,0,1,.664-1.742,2.09,2.09,0,0,1,1.742-.664,4.165,4.165,0,0,1,1,.166,1.687,1.687,0,0,1,.747.5,1.058,1.058,0,0,0,.581-.415,1.4,1.4,0,0,0,.249-.829h.83a2,2,0,0,1-.332,1.244,2.028,2.028,0,0,1-.912.747c.083.166.083.332.166.5,0,.166.083.332.083.581v1Zm-1.742-3.9h-1l-1.078-1h1.327Zm.581,2.82a1.53,1.53,0,0,0-.332-1.078,1.189,1.189,0,0,0-.912-.415,1.189,1.189,0,0,0-.912.415,1.53,1.53,0,0,0-.332,1.078v1.078a1.755,1.755,0,0,0,.332,1.161,1.189,1.189,0,0,0,.912.415,1.07,1.07,0,0,0,.912-.415,1.622,1.622,0,0,0,.332-1.161Z" transform="translate(93.51 -413.658)" fill="#293787"/>
          <path id="Path_45896" data-name="Path 45896" d="M-89.984,423.752a3.761,3.761,0,0,1-2.737-1.161,3.819,3.819,0,0,1-1.078-2.737v-1.078a3.688,3.688,0,0,1,1.078-2.737l.249-.249a1.449,1.449,0,0,1-.249-1.41,1.519,1.519,0,0,1,1.41-1.078h1.327a1.451,1.451,0,0,1,1.161.581l.5.747a1.374,1.374,0,0,1,1-.415h.83a1.487,1.487,0,0,1,1.493,1.493,3.732,3.732,0,0,1-.5,1.991,3.613,3.613,0,0,1-.5.581v1.41a4.042,4.042,0,0,1-1.078,2.737A3.81,3.81,0,0,1-89.984,423.752Z" transform="translate(93.8 -413.3)" fill="#fff"/>
        </g>
        <g id="Group_18610" data-name="Group 18610" transform="translate(86.689 1.742)">
          <path id="Path_45897" data-name="Path 45897" d="M-80.538,422.841H-81.7l-2.24-3.816h0v3.816H-85.1V417.2h1.161l2.24,3.816h0V417.2h1.161v5.641Z" transform="translate(86.676 -415.707)" fill="#293787"/>
          <path id="Path_45898" data-name="Path 45898" d="M-80.862,424.027h-1.161a1.451,1.451,0,0,1-1.161-.581,1.451,1.451,0,0,1-1.161.581h-1.161A1.487,1.487,0,0,1-87,422.534v-5.641a1.487,1.487,0,0,1,1.493-1.493h1.161a1.451,1.451,0,0,1,1.161.581,1.451,1.451,0,0,1,1.161-.581h1.161a1.487,1.487,0,0,1,1.493,1.493v5.641A1.542,1.542,0,0,1-80.862,424.027Z" transform="translate(87 -415.4)" fill="#fff"/>
        </g>
        <g id="Group_18611" data-name="Group 18611" transform="translate(92.33 1.742)">
          <path id="Path_45899" data-name="Path 45899" d="M-74.155,422.026a1.641,1.641,0,0,1-.83.581,3.305,3.305,0,0,1-1.41.249,2.677,2.677,0,0,1-1.742-.664,2.377,2.377,0,0,1-.664-1.742v-1.244a2.677,2.677,0,0,1,.664-1.742,2.316,2.316,0,0,1,1.659-.664,2.477,2.477,0,0,1,1.659.5,1.547,1.547,0,0,1,.581,1.327h-1.078a1.014,1.014,0,0,0-.249-.747c-.166-.166-.415-.083-.83-.083a1.021,1.021,0,0,0-.83.415,1.53,1.53,0,0,0-.332,1.078v1.244a1.53,1.53,0,0,0,.332,1.078,1.189,1.189,0,0,0,.912.415,1.617,1.617,0,0,0,.664-.083,1.147,1.147,0,0,0,.332-.249v-1.161h-1.078v-.83h2.157A22.52,22.52,0,0,1-74.155,422.026Z" transform="translate(79.961 -415.639)" fill="#293787"/>
          <path id="Path_45900" data-name="Path 45900" d="M-76.467,424.11a3.69,3.69,0,0,1-2.654-1.078,3.631,3.631,0,0,1-1.078-2.655v-1.244a3.385,3.385,0,0,1,1.078-2.655,3.631,3.631,0,0,1,2.654-1.078,3.737,3.737,0,0,1,2.572.913,3.1,3.1,0,0,1,1.078,2.406.5.5,0,0,1-.083.332,1.563,1.563,0,0,1,.166.664v2.157a1.248,1.248,0,0,1-.332.913,4.431,4.431,0,0,1-1.327,1.078A7.469,7.469,0,0,1-76.467,424.11Z" transform="translate(80.2 -415.4)" fill="#fff"/>
        </g>
      </g>
      <g id="Group_18613" data-name="Group 18613" transform="translate(1.331 1.742)">
        <path id="Path_45901" data-name="Path 45901" d="M-187.577,421.448l.083.332h0l.083-.332,1.244-4.148h1.244l-1.908,5.641h-1.161L-189.9,417.3h1.244Z" transform="translate(189.9 -415.724)" fill="#293787"/>
        <path id="Path_45902" data-name="Path 45902" d="M-182.326,416.5h-1l-1.078-1h1.327Zm0,6.138h-1.161v-5.641h1.161Z" transform="translate(188.962 -415.417)" fill="#293787"/>
        <path id="Path_45903" data-name="Path 45903" d="M-176.177,421.348l.083.332h0l.083-.332,1.244-4.148h1.244l-1.908,5.641h-1.161L-178.5,417.2h1.244Z" transform="translate(187.957 -415.707)" fill="#293787"/>
        <path id="Path_45904" data-name="Path 45904" d="M-170.639,422.941H-171.8V417.3h1.161Z" transform="translate(186.814 -415.724)" fill="#293787"/>
        <path id="Path_45905" data-name="Path 45905" d="M-165.765,420.128h-2.074v1.659h2.489v.913H-169v-5.641h3.65v.912h-2.489v1.493h2.074Zm0-3.816h0l-.912.083-.581-.5-.581.5h-.912v-.083l1.161-.913h.664Zm-.83,7.632h-1.327v-1h1.327Z" transform="translate(186.337 -415.4)" fill="#293787"/>
        <path id="Path_45906" data-name="Path 45906" d="M-159.921,418.112h-1.659v4.811h-1.161v-4.811H-164.4V417.2h4.4v.912Z" transform="translate(185.553 -415.707)" fill="#293787"/>
        <path id="Path_45907" data-name="Path 45907" d="M-151.338,422.941H-152.5l-2.24-3.816h0v3.816H-155.9V417.3h1.161l2.24,3.816h0V417.3h1.161Z" transform="translate(184.104 -415.724)" fill="#293787"/>
        <path id="Path_45908" data-name="Path 45908" d="M-146.216,421.7h-1.825l-.415,1.244H-149.7l1.908-5.641h1.161l1.825,5.641h-1.244Zm-1.493-.913h1.327l-.664-1.991h0Z" transform="translate(183.047 -415.724)" fill="#293787"/>
        <path id="Path_45909" data-name="Path 45909" d="M-139.9,421.448h0l1.493-4.148h1.493v5.641h-1.161v-3.9h0l-1.41,3.9h-.747l-1.41-3.9h0v3.9H-142.8V417.3h1.493Z" transform="translate(181.871 -415.724)" fill="#293787"/>
        <path id="Path_45910" data-name="Path 45910" d="M-127.538,422.941H-128.7v-2.323h-2.24v2.323H-132.1V417.3h1.161v2.406h2.24V417.3h1.161Z" transform="translate(180.047 -415.724)" fill="#293787"/>
        <path id="Path_45911" data-name="Path 45911" d="M-120.955,416.976v3.733a1.822,1.822,0,0,1-.664,1.493,2.672,2.672,0,0,1-1.659.581,2.26,2.26,0,0,1-1.659-.581,1.942,1.942,0,0,1-.664-1.493v-3.733h1.161v3.733a1.133,1.133,0,0,0,.332.912,1.267,1.267,0,0,0,.83.332.962.962,0,0,0,.83-.332,1.51,1.51,0,0,0,.332-.912v-3.733Zm-1.742-.581h-1l-1.078-1h1.327Z" transform="translate(178.939 -415.4)" fill="#293787"/>
        <path id="Path_45912" data-name="Path 45912" d="M-114.238,422.941H-115.4l-2.24-3.816h0v3.816H-118.8V417.3h1.161l2.24,3.816h0V417.3h1.161Z" transform="translate(177.779 -415.724)" fill="#293787"/>
        <path id="Path_45913" data-name="Path 45913" d="M-107.855,422.126a1.641,1.641,0,0,1-.83.581,3.3,3.3,0,0,1-1.41.249,2.677,2.677,0,0,1-1.742-.664,2.09,2.09,0,0,1-.664-1.742v-1.244a2.677,2.677,0,0,1,.664-1.742,2.022,2.022,0,0,1,1.659-.664,2.477,2.477,0,0,1,1.659.5,1.547,1.547,0,0,1,.581,1.327h-1.078a1.014,1.014,0,0,0-.249-.747,1.014,1.014,0,0,0-.747-.249,1.021,1.021,0,0,0-.83.415,2.075,2.075,0,0,0-.332,1.078v1.244a1.53,1.53,0,0,0,.332,1.078,1.188,1.188,0,0,0,.912.415,1.617,1.617,0,0,0,.664-.083,1.146,1.146,0,0,0,.332-.249V420.55h-1.078v-.83h2.157v2.406Z" transform="translate(176.705 -415.656)" fill="#293787"/>
        <path id="Path_45914" data-name="Path 45914" d="M-100.121,421h0a1.775,1.775,0,0,1-.581,1.493,2.391,2.391,0,0,1-1.576.5,2.316,2.316,0,0,1-1.659-.664,2.376,2.376,0,0,1-.664-1.742v-1.078a2.677,2.677,0,0,1,.664-1.742,2.022,2.022,0,0,1,1.659-.664,2.633,2.633,0,0,1,1.659.5,1.775,1.775,0,0,1,.581,1.493H-101.2a1.238,1.238,0,0,0-.249-.829,1.1,1.1,0,0,0-.83-.249,1.152,1.152,0,0,0-.83.415,2.075,2.075,0,0,0-.332,1.078v1.161a1.53,1.53,0,0,0,.332,1.078,1.021,1.021,0,0,0,.83.415,1.014,1.014,0,0,0,.747-.249,1.239,1.239,0,0,0,.249-.83h1.161Z" transform="translate(175.359 -415.69)" fill="#293787"/>
        <path id="Path_45915" data-name="Path 45915" d="M-93.755,417.181v.747h0c.249-.083.415-.166.5-.415a2.561,2.561,0,0,0,.166-.912h.83a2.373,2.373,0,0,1-.332,1.41,1.626,1.626,0,0,1-1.161.664v2.24a1.822,1.822,0,0,1-.664,1.493,2.671,2.671,0,0,1-1.659.581,2.259,2.259,0,0,1-1.659-.581,2.077,2.077,0,0,1-.664-1.493v-3.733h1.161v3.733a1.133,1.133,0,0,0,.332.912,1.065,1.065,0,0,0,.83.332.962.962,0,0,0,.83-.332,1.51,1.51,0,0,0,.332-.912v-3.733Z" transform="translate(174.302 -415.605)" fill="#293787"/>
        <path id="Path_45916" data-name="Path 45916" d="M-86.889,420.294a2.376,2.376,0,0,1-.664,1.742,2.09,2.09,0,0,1-1.742.664,2.376,2.376,0,0,1-1.742-.664,2.677,2.677,0,0,1-.664-1.742v-1.078a2.376,2.376,0,0,1,.664-1.742,2.376,2.376,0,0,1,1.742-.664,4.165,4.165,0,0,1,1,.166,1.687,1.687,0,0,1,.747.5,1.058,1.058,0,0,0,.581-.415,1.964,1.964,0,0,0,.249-.829h.83a2,2,0,0,1-.332,1.244,2.028,2.028,0,0,1-.912.747c.083.166.083.332.166.5a1.23,1.23,0,0,1,.083.581C-86.889,419.382-86.889,420.294-86.889,420.294Zm-1.659-3.9h-1l-1.078-1h1.327Zm.5,2.9a1.53,1.53,0,0,0-.332-1.078,1.188,1.188,0,0,0-.912-.415,1.188,1.188,0,0,0-.912.415,1.53,1.53,0,0,0-.332,1.078v1.078a1.408,1.408,0,0,0,.332,1.078,1.189,1.189,0,0,0,.912.415,1.07,1.07,0,0,0,.912-.415,1.53,1.53,0,0,0,.332-1.078Z" transform="translate(173.16 -415.4)" fill="#293787"/>
        <path id="Path_45917" data-name="Path 45917" d="M-80.138,422.941H-81.3l-2.24-3.816h0v3.816H-84.7V417.3h1.161l2.24,3.816h0V417.3h1.161Z" transform="translate(171.966 -415.724)" fill="#293787"/>
        <path id="Path_45918" data-name="Path 45918" d="M-73.655,422.126a1.641,1.641,0,0,1-.83.581,3.574,3.574,0,0,1-1.41.249,2.677,2.677,0,0,1-1.742-.664,2.09,2.09,0,0,1-.664-1.742v-1.244a2.677,2.677,0,0,1,.664-1.742,2.023,2.023,0,0,1,1.659-.664,2.477,2.477,0,0,1,1.659.5,1.547,1.547,0,0,1,.581,1.327h-1.078a1.014,1.014,0,0,0-.249-.747,1.014,1.014,0,0,0-.747-.249,1.021,1.021,0,0,0-.83.415,2.075,2.075,0,0,0-.332,1.078v1.244a1.53,1.53,0,0,0,.332,1.078,1.188,1.188,0,0,0,.912.415,1.617,1.617,0,0,0,.664-.083,1.145,1.145,0,0,0,.332-.249V420.55h-1.078v-.83h2.157v2.406Z" transform="translate(170.875 -415.656)" fill="#293787"/>
      </g>
      <path id="Path_45919" data-name="Path 45919" d="M-181.6,424.487h3.816s-.913-2.489-.913-2.572c-.083-.083-1.576-3.484-1.576-3.484l-.166-.332-.415,2.9Z" transform="translate(189.816 -414.118)" fill="#fff"/>
      <path id="Path_45920" data-name="Path 45920" d="M-161.2,424.607h3.982s-.664-2.737-.664-3.069-.249-2.737-.249-2.737l-1.576.415-.5.249-.5,4.314Z" transform="translate(186.338 -414.238)" fill="#fff"/>
      <path id="Path_45921" data-name="Path 45921" d="M-136.3,424.027h3.069l.166-8.627-2.986.083.415,4.562.5,2.572Z" transform="translate(182.093 -413.658)" fill="#fff"/>
      <path id="Path_45922" data-name="Path 45922" d="M-109.9,425.491l.83-.581,1.825-1,.83-.415,1.327.249a4.926,4.926,0,0,1,.332.664,15.914,15.914,0,0,0,1.244,1.161H-109.9Z" transform="translate(177.593 -415.039)" fill="#fff"/>
    </g>
  </g>
</svg>
