<svg id="logo-vtcnews" xmlns="http://www.w3.org/2000/svg" width="160" height="80" viewBox="0 0 160 80">
  <rect id="boundingbox" width="160" height="80" fill="#fff" opacity="0"/>
  <g id="layer1" transform="translate(15 24.036)">
    <path id="path893" d="M124.526,2.275h-.309a10.459,10.459,0,0,0-6.062,2.509l1.006-2.2h-6.406l-4.394,10.14-.873-10.14h-5.559L97.482,12.807,96.529,2.588H75.67L71.99,23.183H87.476l1.006-5.553H79.429l.424-2.346h8.126l.927-4.927H80.7l.37-2.294h8.92l.485-2.868L92,23.235h6.141l4.1-8.551.821,8.551h6.644l5.949-13a4.423,4.423,0,0,0,2.681,4,30.909,30.909,0,0,0,4.924,1.877c.768.209,1.384,1.058.476,1.747-.566.43-2.712.377-4.235-.261a13.078,13.078,0,0,1-2.806-1.72l-3.97,4.562s2.779,3.181,8.788,3.05c0,0,8.682.313,9.45-7.742,0,0,.9-3.988-6.512-5.761,0,0-2.224-.652-2.091-1.434s1.138-1.121,2.224-.938a8.087,8.087,0,0,1,4.235,1.773l3.865-4.536s-1.744-2.551-8.162-2.581Zm-68.021.313-3,16.779V8.1H38.178V23.179H52.826v0h6.009L60.821,11.4l2.224,11.783H71.2L74.876,2.588h-5.9L67.121,12.807,65.109,2.588ZM2.688,8.1V23.179H18.026V8.1Zm17.773,0V23.179H35.708V8.1Zm25.86,2.4h.01a5.2,5.2,0,0,1,3.7,1.556l-1.451,1.433a3.18,3.18,0,0,0-2.28-.96,3.123,3.123,0,1,0,0,6.246,3.188,3.188,0,0,0,1.828-.58,1.037,1.037,0,0,1,.972.151l.876.934a5.157,5.157,0,1,1-3.659-8.78ZM5.25,10.629H7.575l2.8,7.179,2.837-7.179h2.233L11.8,19.852c-.293.9-.915.76-.915.76H9.277Zm18.292.018h9.091V12.1a.684.684,0,0,1-.694.555H29.116v7.989H27.072V12.655h-3.53ZM97.211,25.315l-.7,1.083.753.089L98,25.695Zm-33.069.839h-.053l-.146.42c.891.242-.064,1.211-.064,1.211h.47c.5-.372.55-.614.55-.614.383-.947-.524-1.016-.757-1.019ZM57,26.544v6.113h1.409V30.04s-.022-.816.7-.777c.6.033.675.549.675.971v2.422h1.4V29.435a1.623,1.623,0,0,0-1.557-1.394,1.49,1.49,0,0,0-1.214.583v-2.08Zm23.532.161-.858,1.1H80.5l.454-.428.494.428h.851l-.875-1.1Zm15.864.048-.826,1.018h.778l.5-.468.372.468H98.1l-.81-1.018Zm-58.179.054v5.827h1.306V30.3h2.245v2.331h1.4V26.807h-1.4v2.262H39.528V26.807Zm11.281.069v.96h1.076v-.96Zm4.544.114V28.11h-.518v1.18h.518v2.476a1.07,1.07,0,0,0,1.2.982,1.823,1.823,0,0,0,1.176-.389V31.332c-.977.457-1.037-.022-1.037-.022V29.29h1.037V28.11H55.392V26.989Zm12.043.994s.252.583-.323.684a2.494,2.494,0,0,0-1.629-.6,2.35,2.35,0,1,0,2.439,2.348,2.283,2.283,0,0,0-.368-1.234c.973.027.659-1.193.659-1.193Zm-17.172.034-.607.045c.135.421-.175.547-.378.586a2.523,2.523,0,0,0-1.625-.589,2.335,2.335,0,1,0,2.451,2.333,2.25,2.25,0,0,0-.376-1.24c1.125-.274.536-1.135.536-1.135Zm22.63.023a2.365,2.365,0,1,0,0,4.73,2.421,2.421,0,0,0,1.879-.889l-.883-.819a1.285,1.285,0,0,1-.95.5,1.169,1.169,0,0,1,0-2.331,1.1,1.1,0,0,1,.9.514l.881-.875a2.422,2.422,0,0,0-1.826-.827Zm9.409.006a2.346,2.346,0,1,0,2.47,2.342,2.408,2.408,0,0,0-2.47-2.342Zm25.574,0a2.108,2.108,0,0,0,0,4.216,2.042,2.042,0,0,0,1.441-.6c0,.12,0,.222-.008.279-.032.5-.437.824-1.215.889a2.7,2.7,0,0,1-1.474-.372l-.551.953s.34.549,2.365.549a2.028,2.028,0,0,0,2.186-1.761V28.175h-1.328s0,.351.006.453a2.042,2.042,0,0,0-1.422-.582Zm-3.978,0a1.053,1.053,0,0,0-.2.015,1.68,1.68,0,0,0-1.157.637v-.58H99.837v4.525H101.2v-2.5a.792.792,0,0,1,.745-.856c.607-.023.653.766.653.766v2.594h1.374V29.378c-.292-1.174-1.055-1.326-1.417-1.329Zm-16.414.006a2.365,2.365,0,1,0,0,4.73,2.42,2.42,0,0,0,1.878-.889l-.861-.819a1.335,1.335,0,0,1-.972.5,1.169,1.169,0,0,1,0-2.331,1.058,1.058,0,0,1,.9.525l.881-.887a2.422,2.422,0,0,0-1.826-.827Zm10.707.023A2.329,2.329,0,1,0,99.284,30.4,2.384,2.384,0,0,0,96.846,28.078Zm-47.47.019v4.537h1.335V28.1Zm42.782.009a1.4,1.4,0,0,0-1.539,1.329c-.211,1.244,1.554,1.486,1.814,1.583s.729.437.13.6a2.7,2.7,0,0,1-1.571-.436l-.615.856a3.188,3.188,0,0,0,2.057.695c1.328-.129,1.766-.986,1.587-1.745s-1.166-1.034-1.766-1.228-.437-.517-.437-.517c.5-.4,1.6.274,1.6.274l.486-.889a2.839,2.839,0,0,0-1.636-.517Zm-16.942.02H73.823V31.1s.057,1.665,1.449,1.665a1.681,1.681,0,0,0,1.348-.629v.548h1.348V28.127H76.62v2.761a.652.652,0,0,1-.668.586.7.7,0,0,1-.736-.535Zm31.7,1.082h.02a1.014,1.014,0,0,1,1.033.8c0,.09,0,.169,0,.259a1.013,1.013,0,0,1-1.035.805.935.935,0,1,1-.021-1.859Zm-25.926.016A1.166,1.166,0,1,1,79.9,30.389a1.13,1.13,0,0,1,1.094-1.164Zm-34.671.026a1.162,1.162,0,1,1-1.112,1.161,1.137,1.137,0,0,1,1.112-1.161Zm17.812,0h.007a1.077,1.077,0,1,1-.007,0Zm32.687.023h0a1.14,1.14,0,1,1-1.085,1.138,1.113,1.113,0,0,1,1.085-1.138ZM80.463,33.119V34.2h1.118V33.119Z" transform="translate(-2.688 -2.275)" fill="#b10c2d"/>
  </g>
</svg>
