<svg id="logo-vnexpress" xmlns="http://www.w3.org/2000/svg" width="160" height="80" viewBox="0 0 160 80">
  <rect id="boundingbox" width="160" height="80" fill="#fff" opacity="0"/>
  <g id="Group_18616" data-name="Group 18616" transform="translate(15 27.866)">
    <path id="Path_45923" data-name="Path 45923" d="M78.314,17.972V8.349h8.469a2.621,2.621,0,0,1,1.692.465,1.807,1.807,0,0,1,.53,1.4v2.173a1.805,1.805,0,0,1-.53,1.4,2.619,2.619,0,0,1-1.692.465H80.59v3.726ZM85.724,10H80.59V12.59h5.134a1.189,1.189,0,0,0,.847-.206.818.818,0,0,0,.212-.569V10.78a.813.813,0,0,0-.212-.569A1.19,1.19,0,0,0,85.724,10Z" transform="translate(-10.442 -1.113)" fill="#828282" fill-rule="evenodd"/>
    <path id="Path_45924" data-name="Path 45924" d="M92.865,17.972V8.349h8.416a2.682,2.682,0,0,1,1.745.465,1.8,1.8,0,0,1,.531,1.4v2.276a1.729,1.729,0,0,1-.531,1.4,2.684,2.684,0,0,1-1.745.465H100.01l4.553,3.622H101.28L97.311,14.35H95.139v3.622ZM100.275,10H95.139v2.691h5.136a1.618,1.618,0,0,0,.846-.155.866.866,0,0,0,.213-.621V10.78a.814.814,0,0,0-.213-.569A1.184,1.184,0,0,0,100.275,10Z" transform="translate(-12.382 -1.113)" fill="#828282" fill-rule="evenodd"/>
    <path id="Path_45925" data-name="Path 45925" d="M108.316,17.972V8.349h10.107V10h-7.779v2.121h4.551v1.656h-4.551v2.38h7.885v1.811Z" transform="translate(-14.442 -1.113)" fill="#828282" fill-rule="evenodd"/>
    <path id="Path_45926" data-name="Path 45926" d="M131.148,10.056h-6.456v2.069h6.139a2.979,2.979,0,0,1,1.958.465,2.345,2.345,0,0,1,.529,1.812V15.7a2.344,2.344,0,0,1-.529,1.81,2.976,2.976,0,0,1-1.958.466h-6.085a3.081,3.081,0,0,1-1.96-.466,2.594,2.594,0,0,1-.476-1.81v-.26l2.012-.413v1.138h6.932V13.988h-6.139a2.524,2.524,0,0,1-1.9-.517,2.2,2.2,0,0,1-.531-1.76V10.625a2.2,2.2,0,0,1,.531-1.759,2.523,2.523,0,0,1,1.9-.517h5.609a2.808,2.808,0,0,1,1.906.465,2.1,2.1,0,0,1,.527,1.655v.208l-2.01.465Z" transform="translate(-16.308 -1.113)" fill="#828282" fill-rule="evenodd"/>
    <path id="Path_45927" data-name="Path 45927" d="M146.189,10.056h-6.454v2.069h6.139a3.066,3.066,0,0,1,1.956.465,2.581,2.581,0,0,1,.478,1.812V15.7a2.58,2.58,0,0,1-.478,1.81,3.064,3.064,0,0,1-1.956.466h-6.086a2.981,2.981,0,0,1-1.959-.466,2.331,2.331,0,0,1-.528-1.81v-.26l2.012-.413v1.138H146.3V13.988h-6.138a2.752,2.752,0,0,1-1.957-.517,2.434,2.434,0,0,1-.478-1.76V10.625a2.431,2.431,0,0,1,.478-1.759,2.75,2.75,0,0,1,1.957-.517h5.609a3,3,0,0,1,1.9.465,2.092,2.092,0,0,1,.53,1.655v.208l-2.013.465Z" transform="translate(-18.307 -1.113)" fill="#828282" fill-rule="evenodd"/>
    <path id="Path_45928" data-name="Path 45928" d="M61.093,17.972l4.657-4.915L60.987,8.349h3.07l3.124,3.259L70.2,8.349h2.593L68.5,12.8l5.345,5.174H70.724l-3.6-3.726-3.336,3.726Z" transform="translate(-8.132 -1.113)" fill="#828282" fill-rule="evenodd"/>
    <path id="Path_45929" data-name="Path 45929" d="M5.716,17.972,0,8.349H2.646l3.969,6.985,3.81-6.985H12.7L7.3,17.972Z" transform="translate(0 -1.113)" fill="#828282" fill-rule="evenodd"/>
    <path id="Path_45930" data-name="Path 45930" d="M16.726,17.972V8.349H18.26l6.932,5.691a7.851,7.851,0,0,1,.636.518,4.855,4.855,0,0,1,.529.518c-.053-.518-.107-.932-.107-1.138V8.349h2.065v9.623H26.729l-7.251-5.95a3.218,3.218,0,0,1-.423-.414,1.218,1.218,0,0,1-.369-.362,4.918,4.918,0,0,1,.053.879,3.069,3.069,0,0,1,.054.673v5.174Z" transform="translate(-2.23 -1.113)" fill="#828282" fill-rule="evenodd"/>
    <path id="Path_45931" data-name="Path 45931" d="M54.822,23.111a1.169,1.169,0,0,1-1.182,1.156h-19.7a1.169,1.169,0,0,1-1.182-1.156V1.156A1.169,1.169,0,0,1,33.944,0h19.7a1.169,1.169,0,0,1,1.182,1.156Z" transform="translate(-4.368)" fill="#9f224e" fill-rule="evenodd"/>
    <path id="Path_45932" data-name="Path 45932" d="M40.156,9.581V10.7h5.515v3.467H40.156V18.4H51.974v3.082H36.216V3.378H51.974V6.459H40.156V9.581Zm1.182-1.966H52.088A1.042,1.042,0,0,0,53.156,6.5V3.418a1.111,1.111,0,0,0-1.068-1.2H36.331a1.308,1.308,0,0,0-1.3,1.2v18.1a1.241,1.241,0,0,0,1.3,1.115H52.088a1.042,1.042,0,0,0,1.068-1.115V18.441a1.111,1.111,0,0,0-1.068-1.2H41.337V15.319h4.448A1.042,1.042,0,0,0,46.853,14.2V10.737a1.111,1.111,0,0,0-1.068-1.2H41.337V7.615Z" transform="translate(-4.671 -0.296)" fill="#fff" fill-rule="evenodd"/>
  </g>
</svg>
