<?xml version="1.0" standalone="no"?>
<!DOCTYPE svg PUBLIC "-//W3C//DTD SVG 1.1//EN" "http://www.w3.org/Graphics/SVG/1.1/DTD/svg11.dtd" >
<svg xmlns="http://www.w3.org/2000/svg" xmlns:xlink="http://www.w3.org/1999/xlink" version="1.1">
<metadata>
Created by FontForge 20170731 at Thu Sep 29 05:36:08 2022
 By Aleksey,,,
(c) 2019, Copyright by Lineto. All rights reserved.
</metadata>
<defs>
<font id="SVN-Circular-Regular" horiz-adv-x="1165" >
  <font-face 
    font-family="SVN-Circular"
    font-weight="400"
    font-stretch="normal"
    units-per-em="2048"
    panose-1="2 1 5 4 1 1 1 1 1 4"
    ascent="1638"
    descent="-410"
    x-height="981"
    cap-height="1452"
    bbox="-408 -481 3076 2169"
    underline-thickness="102"
    underline-position="-307"
    unicode-range="U+000D-FEFF"
  />
<missing-glyph horiz-adv-x="524" 
 />
    <glyph glyph-name="f_f" unicode="ff" horiz-adv-x="1331" 
d="M1036 834v-834h-164v834h-475v-834h-164v834h-192v147h192v182q0 156 87 242t223 86q75 0 112 -21v-141q-33 14 -88 14q-70 0 -120 -44t-50 -140v-178h475v182q0 156 87 242t223 86q75 0 112 -21v-141q-33 14 -88 14q-70 0 -120 -44t-50 -140v-178h254v-147h-254z" />
    <glyph glyph-name="f_f_i" unicode="ffi" horiz-adv-x="1835" 
d="M1036 0h-164v834h-475v-834h-164v834h-192v147h192v182q0 156 87 242t223 86q75 0 112 -21v-141q-33 14 -88 14q-70 0 -120 -44t-50 -140v-178h475v182q0 156 87 242t223 86q75 0 112 -21v-141q-33 14 -88 14q-70 0 -120 -44t-50 -140v-178h639v-981h-164v834h-475v-834z
M1483 1272q0 47 33 80.5t79 33.5q47 0 81 -33.5t34 -80.5q0 -46 -34 -79.5t-81 -33.5q-46 0 -79 33.5t-33 79.5z" />
    <glyph glyph-name="f_f_l" unicode="ffl" horiz-adv-x="1835" 
d="M1036 0h-164v834h-475v-834h-164v834h-192v147h192v182q0 156 87 242t223 86q75 0 112 -21v-141q-33 14 -88 14q-70 0 -120 -44t-50 -140v-178h475v182q0 156 87 242t223 86q75 0 112 -21v-141q-33 14 -88 14q-70 0 -120 -44t-50 -140v-178h475v500h164v-1481h-164v834
h-475v-834z" />
    <glyph glyph-name="f_i" unicode="fi" horiz-adv-x="1196" 
d="M872 0v834h-475v-834h-164v834h-192v147h192v182q0 156 87 242t223 86q75 0 112 -21v-141q-33 14 -88 14q-70 0 -120 -44t-50 -140v-178h639v-981h-164zM844 1272q0 47 33 80.5t79 33.5q47 0 81 -33.5t34 -80.5q0 -46 -34 -79.5t-81 -33.5q-46 0 -79 33.5t-33 79.5z" />
    <glyph glyph-name="f_l" unicode="fl" horiz-adv-x="1196" 
d="M872 0v834h-475v-834h-164v834h-192v147h192v182q0 156 87 242t223 86q75 0 112 -21v-141q-33 14 -88 14q-70 0 -120 -44t-50 -140v-178h475v500h164v-1481h-164z" />
    <glyph glyph-name=".notdef" horiz-adv-x="524" 
 />
    <glyph glyph-name=".null" horiz-adv-x="0" 
 />
    <glyph glyph-name="nonmarkingreturn" horiz-adv-x="682" 
 />
    <glyph glyph-name="NULL" horiz-adv-x="0" 
 />
    <glyph glyph-name="NULL" horiz-adv-x="0" 
 />
    <glyph glyph-name="CR" unicode="&#xd;" horiz-adv-x="522" 
 />
    <glyph glyph-name="space" unicode=" " horiz-adv-x="522" 
 />
    <glyph glyph-name="exclam" unicode="!" horiz-adv-x="495" 
d="M305 403h-115l-45 1049h205zM127 113q0 51 36 85.5t87 34.5q50 0 85.5 -34.5t35.5 -85.5q0 -53 -35.5 -88t-85.5 -35q-52 0 -87.5 35t-35.5 88z" />
    <glyph glyph-name="quotedbl" unicode="&#x22;" horiz-adv-x="768" 
d="M195 827l-72 340q-8 36 -8 64q0 51 30 81.5t78 30.5t78.5 -31t30.5 -81q0 -28 -8 -64l-72 -340h-57zM516 827l-72 340q-8 36 -8 64q0 50 30.5 81t78.5 31t78 -30.5t30 -81.5q0 -28 -8 -64l-72 -340h-57z" />
    <glyph glyph-name="numbersign" unicode="#" horiz-adv-x="1458" 
d="M176 981h307l74 346h145l-73 -346h317l74 346h145l-73 -346h290v-135h-319l-74 -348h293v-136h-321l-80 -362h-146l78 362h-315l-80 -362h-146l78 362h-274v136h303l76 348h-279v135zM526 498h316l76 348h-318z" />
    <glyph glyph-name="dollar" unicode="$" horiz-adv-x="1126" 
d="M504 -238v213q-99 8 -180.5 46.5t-133.5 95.5t-83 123.5t-39 136.5l163 51q8 -112 80 -199.5t193 -101.5v471l-58 14q-153 38 -239 128t-86 233q0 147 108 253t275 126v215h143v-215q70 -8 129 -32t100 -56.5t73 -74.5t50 -83.5t29 -85.5l-156 -55q-13 80 -70.5 146.5
t-154.5 86.5v-457l41 -10q164 -42 258 -139.5t94 -235.5q0 -145 -105 -254.5t-288 -126.5v-213h-143zM870 346q0 79 -52.5 136t-155.5 83l-15 4v-444q109 17 166 76.5t57 144.5zM293 981q0 -158 194 -207l17 -4v432q-97 -17 -154 -76t-57 -145z" />
    <glyph glyph-name="percent" unicode="%" horiz-adv-x="1589" 
d="M211 1028q0 -78 51 -130t125 -52q78 0 128 52t50 130t-50 130t-128 52q-74 0 -125 -52t-51 -130zM68 1028q0 134 94 227t225 93q133 0 228.5 -93t95.5 -227t-95.5 -226.5t-228.5 -92.5q-132 0 -225.5 92.5t-93.5 226.5zM1022 309q0 -78 51 -130t125 -52q78 0 128 52
t50 130q0 79 -50 131t-128 52q-74 0 -125 -52.5t-51 -130.5zM879 309q0 134 94 227t225 93q133 0 228.5 -93t95.5 -227t-95.5 -226.5t-228.5 -92.5q-132 0 -225.5 92.5t-93.5 226.5zM231 0l961 1327h158l-957 -1327h-162z" />
    <glyph glyph-name="ampersand" unicode="&#x26;" horiz-adv-x="1388" 
d="M928 205q-100 -115 -198 -174.5t-214 -59.5q-96 0 -175.5 31.5t-130 84.5t-77.5 118.5t-27 136.5q0 88 33.5 161.5t85 126.5t135.5 115l29 21l-43 45q-35 37 -56.5 63t-51.5 69t-45 89t-15 94q0 106 54 189t137 124.5t178 41.5q163 0 268 -95t105 -249q0 -67 -32 -130
t-73 -104.5t-100 -85.5l-88 -63l301 -312l313 363v-238l-205 -237l320 -330h-230zM518 131q80 0 150 45.5t141 126.5l12 14l-325 338l-72 -55q-68 -50 -106.5 -108t-38.5 -136q0 -90 66 -157.5t173 -67.5zM350 1137q0 -100 113 -213l57 -62l109 82q119 85 119 197
q0 81 -56 136.5t-145 55.5q-79 0 -138 -54t-59 -142z" />
    <glyph glyph-name="quotesingle" unicode="'" horiz-adv-x="446" 
d="M195 827l-72 340q-8 36 -8 64q0 51 30 81.5t78 30.5t78.5 -31t30.5 -81q0 -28 -8 -64l-72 -340h-57z" />
    <glyph glyph-name="parenleft" unicode="(" horiz-adv-x="616" 
d="M98 649q0 577 385 973l101 -88q-166 -186 -254 -402t-88 -483q0 -511 342 -885l-101 -88q-385 396 -385 973z" />
    <glyph glyph-name="parenright" unicode=")" horiz-adv-x="616" 
d="M518 649q0 -577 -385 -973l-100 88q342 382 342 885q0 267 -88 482t-254 403l100 88q385 -396 385 -973z" />
    <glyph glyph-name="asterisk" unicode="*" horiz-adv-x="944" 
d="M539 1167l266 90l39 -124l-266 -91l176 -231l-107 -80l-178 238l-168 -236l-106 80l170 229l-269 91l41 124l264 -92v287h138v-285z" />
    <glyph glyph-name="plus" unicode="+" horiz-adv-x="1081" 
d="M467 657v410h143v-410h391v-137h-391v-414h-143v414h-387v137h387z" />
    <glyph glyph-name="comma" unicode="," horiz-adv-x="524" 
d="M123 117q0 55 37 91t96 36q63 0 105 -47t42 -131q0 -87 -26 -158.5t-68.5 -116t-89.5 -71t-96 -35.5v96q73 17 118.5 81.5t45.5 139.5q-10 -10 -43 -10q-53 0 -87 33.5t-34 91.5z" />
    <glyph glyph-name="hyphen" unicode="-" horiz-adv-x="825" 
d="M139 516v143h547v-143h-547z" />
    <glyph glyph-name="period" unicode="." horiz-adv-x="495" 
d="M121 117q0 54 36.5 90.5t90.5 36.5t90.5 -36.5t36.5 -90.5t-36.5 -90.5t-90.5 -36.5t-90.5 36.5t-36.5 90.5z" />
    <glyph glyph-name="slash" unicode="/" horiz-adv-x="978" 
d="M219 0h-160l703 1452h160z" />
    <glyph glyph-name="zero" unicode="0" horiz-adv-x="1253" 
d="M627 123q132 0 223 94q125 131 125 447q0 315 -125 446q-91 94 -223 94q-133 0 -224 -94q-124 -130 -124 -446q0 -317 124 -447q91 -94 224 -94zM627 -29q-255 0 -394 203q-122 176 -122 490q0 313 122 489q139 203 394 203q254 0 393 -203q123 -178 123 -489
q0 -312 -123 -490q-139 -203 -393 -203z" />
    <glyph glyph-name="one" unicode="1" horiz-adv-x="700" 
d="M379 0v969h-326v98q136 6 226.5 77t115.5 183h152v-1327h-168z" />
    <glyph glyph-name="two" unicode="2" horiz-adv-x="1122" 
d="M119 872q-6 27 -6 60q0 86 30.5 163t87 135t142.5 92t190 34q199 0 318.5 -116t119.5 -286q0 -252 -249 -407l-273 -174q-150 -95 -170 -217h705v-156h-914q5 159 74.5 282t224.5 224l238 153q192 122 192 293q0 104 -72 178t-198 74q-131 0 -204.5 -81t-73.5 -208
q0 -39 6 -63z" />
    <glyph glyph-name="three" unicode="3" horiz-adv-x="1167" 
d="M391 780l412 391h-668v156h893v-153l-403 -381q28 4 39 4q73 0 142.5 -26.5t126 -75.5t91.5 -127t35 -173q0 -84 -32.5 -160.5t-91.5 -135t-150 -93.5t-201 -35q-108 0 -199.5 33.5t-153 90.5t-97.5 132t-40 158l168 39q4 -137 96 -219t224 -82q139 0 222 76t83 194
q0 127 -85.5 195.5t-205.5 68.5q-66 0 -121 -18z" />
    <glyph glyph-name="four" unicode="4" horiz-adv-x="1181" 
d="M63 506l586 821h236v-862h231v-156h-231v-309h-168v309h-654v197zM717 1161l-496 -696h496v696z" />
    <glyph glyph-name="five" unicode="5" horiz-adv-x="1134" 
d="M236 412q7 -127 96.5 -209t220.5 -82q132 0 220.5 81t88.5 210q0 138 -88 217.5t-221 79.5q-160 0 -262 -111l-168 66l172 663h686v-156h-573l-107 -421q49 53 126 80.5t159 27.5q198 0 323 -120t125 -320q0 -190 -134 -318.5t-347 -128.5q-199 0 -334 115.5t-147 278.5z
" />
    <glyph glyph-name="six" unicode="6" horiz-adv-x="1198" 
d="M1012 1143q-100 61 -244 61q-220 0 -350.5 -152t-138.5 -386q39 88 137.5 148t230.5 60q197 0 325 -121.5t128 -330.5q0 -136 -67.5 -240.5t-177 -157.5t-239.5 -53q-103 0 -193 38t-162 111.5t-113.5 194t-41.5 273.5q0 182 52.5 329.5t144 242.5t213 145.5t262.5 50.5
q179 0 287 -74zM309 422q0 -134 91.5 -216.5t217.5 -82.5q132 0 221 81.5t89 217.5q0 137 -90.5 221t-219.5 84t-219 -84t-90 -221z" />
    <glyph glyph-name="seven" unicode="7" horiz-adv-x="1062" 
d="M1024 1163q-507 -444 -578 -1163h-176q62 690 544 1155q13 12 17 16h-768v156h961v-164z" />
    <glyph glyph-name="eight" unicode="8" horiz-adv-x="1163" 
d="M582 752q118 0 194 64t76 167q0 100 -74.5 164.5t-195.5 64.5q-123 0 -197 -64.5t-74 -164.5q0 -103 76 -167t195 -64zM582 119q139 0 220 68.5t81 174.5q0 105 -81.5 175.5t-219.5 70.5q-140 0 -220.5 -70.5t-80.5 -175.5q0 -107 79.5 -175t221.5 -68zM582 -29
q-219 0 -346 108t-127 269q0 119 72.5 207t187.5 125q-100 33 -164 118t-64 195q0 159 125 261t316 102t315.5 -102t124.5 -261q0 -110 -64 -195t-165 -118q114 -33 188 -123t74 -209q0 -161 -127 -269t-346 -108z" />
    <glyph glyph-name="nine" unicode="9" horiz-adv-x="1193" 
d="M184 195q50 -31 119.5 -51.5t134.5 -20.5q235 0 352 143t125 396q-39 -91 -134.5 -148t-229.5 -57q-87 0 -168 30t-145.5 85t-103 141t-38.5 190q0 130 67 235t176 161.5t236 56.5q104 0 195 -38.5t162 -112.5t112 -192.5t41 -267.5q0 -177 -39.5 -318t-118 -243.5
t-202.5 -157.5t-287 -55q-82 0 -171 22t-140 58zM885 905q0 135 -92.5 219t-217.5 84q-124 0 -215.5 -84.5t-91.5 -218.5q0 -136 90 -218.5t217 -82.5t218.5 82.5t91.5 218.5z" />
    <glyph glyph-name="colon" unicode=":" horiz-adv-x="536" 
d="M141 117q0 54 36.5 90.5t90.5 36.5t90.5 -36.5t36.5 -90.5t-36.5 -90.5t-90.5 -36.5t-90.5 36.5t-36.5 90.5zM141 864q0 54 36.5 90.5t90.5 36.5t90.5 -36.5t36.5 -90.5t-36.5 -90.5t-90.5 -36.5t-90.5 36.5t-36.5 90.5z" />
    <glyph glyph-name="semicolon" unicode=";" horiz-adv-x="536" 
d="M127 864q0 54 36.5 90.5t90.5 36.5t90.5 -36.5t36.5 -90.5t-36.5 -90.5t-90.5 -36.5t-90.5 36.5t-36.5 90.5zM127 113q0 52 35.5 86t91.5 34q60 0 100.5 -44.5t40.5 -125.5q0 -84 -24.5 -152.5t-65.5 -111t-85.5 -68t-92.5 -34.5v92q70 17 113 78.5t43 134.5
q-10 -10 -41 -10q-51 0 -83 32.5t-32 88.5z" />
    <glyph glyph-name="less" unicode="&#x3c;" horiz-adv-x="1021" 
d="M68 662l835 423v-165l-663 -332l663 -332v-164l-835 422v148z" />
    <glyph glyph-name="equal" unicode="=" horiz-adv-x="1212" 
d="M139 719v137h934v-137h-934zM139 322v139h934v-139h-934z" />
    <glyph glyph-name="greater" unicode="&#x3e;" horiz-adv-x="1019" 
d="M952 514l-833 -422v164l665 332l-665 332v165l833 -423v-148z" />
    <glyph glyph-name="question" unicode="?" horiz-adv-x="1024" 
d="M403 403q-4 46 -4 74q0 196 166 314l90 63q123 89 123 223q0 105 -69 177.5t-193 72.5q-134 0 -205 -82t-71 -196q0 -60 16 -103l-170 21q-12 49 -12 102q0 73 26.5 144t78.5 132t139.5 98.5t197.5 37.5q101 0 185 -34t137.5 -90.5t82.5 -128t29 -149.5q0 -213 -207 -354
l-88 -63q-98 -69 -98 -203q0 -41 4 -56h-158zM362 113q0 51 36 85.5t87 34.5q50 0 85.5 -34.5t35.5 -85.5q0 -53 -35.5 -88t-85.5 -35q-52 0 -87.5 35t-35.5 88z" />
    <glyph glyph-name="at" unicode="@" horiz-adv-x="1695" 
d="M1235 287q-79 0 -133 37.5t-66 105.5q-44 -69 -110 -107t-138 -38q-136 0 -221.5 95t-85.5 251q0 196 118 333.5t284 137.5q73 0 135 -37.5t86 -106.5l22 117h138l-105 -512q-6 -30 -6 -57q0 -96 90 -96q94 0 167 120t73 283q0 110 -42 208.5t-117 172.5t-187 117
t-244 43q-182 0 -329 -85t-231.5 -239t-84.5 -348q0 -186 78 -332.5t230 -231.5t355 -85q250 0 447 162l72 -95q-93 -90 -234.5 -142t-284.5 -52q-176 0 -326 57t-256 158.5t-165.5 246t-59.5 314.5q0 172 63 322t170 254t251 163.5t303 59.5q208 0 375.5 -89.5t260.5 -242
t93 -336.5q0 -223 -114 -374.5t-271 -151.5zM811 412q64 0 115 34t80 89.5t44 117.5t15 125q0 91 -48 142t-134 51q-110 0 -184 -97t-74 -225q0 -106 44.5 -171.5t141.5 -65.5z" />
    <glyph glyph-name="A" unicode="A" horiz-adv-x="1445" 
d="M1055 424h-666l-162 -424h-186l582 1452h200l584 -1452h-186zM451 582h542l-272 694z" />
    <glyph glyph-name="B" unicode="B" horiz-adv-x="1255" 
d="M653 1452q204 0 321.5 -108t117.5 -283q0 -114 -59.5 -197t-160.5 -119q122 -32 193.5 -129t71.5 -223q0 -174 -124 -283.5t-323 -109.5h-489v1452h452zM653 807q121 0 194 68t73 178q0 116 -76.5 181.5t-212.5 65.5h-258v-493h280zM670 152q134 0 214.5 67.5t80.5 183.5
q0 117 -74.5 186.5t-206.5 69.5h-311v-507h297z" />
    <glyph glyph-name="C" unicode="C" horiz-adv-x="1527" 
d="M817 -29q-111 0 -216 31.5t-195.5 96t-158 153.5t-106.5 211.5t-39 263.5t40 264t109 211.5t160 152t194.5 95t211.5 31.5q243 0 411.5 -124.5t223.5 -336.5l-160 -55q-41 172 -165 265t-310 93q-84 0 -162.5 -24t-148 -73t-121 -119t-81.5 -167.5t-30 -212.5t30 -213.5
t81.5 -168t121 -119t148 -73.5t162.5 -24q186 0 313 101t173 264l151 -56q-59 -211 -226 -339t-411 -128z" />
    <glyph glyph-name="D" unicode="D" horiz-adv-x="1476" 
d="M678 152q108 0 201.5 36.5t165.5 105.5t113.5 179.5t41.5 249.5q0 140 -40.5 251t-111.5 181.5t-164.5 107.5t-201.5 37h-309v-1148h305zM201 0v1452h481q111 0 213 -30t189 -90.5t151 -146.5t100.5 -204.5t36.5 -257.5q0 -173 -56.5 -312.5t-152.5 -228t-220.5 -135.5
t-264.5 -47h-477z" />
    <glyph glyph-name="E" unicode="E" horiz-adv-x="1183" 
d="M201 0v1452h870v-158h-698v-489h635v-158h-635v-489h698v-158h-870z" />
    <glyph glyph-name="F" unicode="F" horiz-adv-x="1169" 
d="M201 0v1452h872v-158h-700v-510h637v-157h-637v-627h-172z" />
    <glyph glyph-name="G" unicode="G" horiz-adv-x="1579" 
d="M1307 0l-17 236q-24 -48 -64.5 -93t-100 -84.5t-144.5 -63.5t-182 -24q-107 0 -208 31t-189.5 94t-155 151.5t-104.5 212.5t-38 267q0 142 39.5 265.5t108 212t159.5 151.5t193.5 94t210.5 31q231 0 404 -120t235 -317l-156 -67q-51 165 -177 255.5t-306 90.5
q-83 0 -160.5 -23t-146.5 -72t-120.5 -118.5t-81.5 -168t-30 -214.5q0 -145 44.5 -261.5t119.5 -188.5t168.5 -110t196.5 -38q99 0 181 27.5t134.5 71t89 100t52.5 111t18 106.5h-518v157h684v-702h-139z" />
    <glyph glyph-name="H" unicode="H" horiz-adv-x="1521" 
d="M1149 0v659h-776v-659h-172v1452h172v-635h776v635h172v-1452h-172z" />
    <glyph glyph-name="I" unicode="I" horiz-adv-x="573" 
d="M201 0v1452h172v-1452h-172z" />
    <glyph glyph-name="J" unicode="J" horiz-adv-x="1116" 
d="M61 522l172 39v-127q0 -150 71 -227.5t196 -77.5q122 0 190 78t68 215v1030h172v-1020q0 -198 -115.5 -329.5t-312.5 -131.5q-206 0 -323.5 124t-117.5 335v92z" />
    <glyph glyph-name="K" unicode="K" horiz-adv-x="1339" 
d="M598 682l-225 -240v-442h-172v1452h172v-782l714 782h228l-604 -645l612 -807h-215z" />
    <glyph glyph-name="L" unicode="L" horiz-adv-x="1118" 
d="M201 0v1452h172v-1294h704v-158h-876z" />
    <glyph glyph-name="M" unicode="M" horiz-adv-x="1951" 
d="M1579 0v1182l-526 -1182h-158l-522 1182v-1182h-172v1452h235l539 -1223l543 1223h233v-1452h-172z" />
    <glyph glyph-name="N" unicode="N" horiz-adv-x="1576" 
d="M1196 0l-823 1229v-1229h-172v1452h225l778 -1163v1163h172v-1452h-180z" />
    <glyph glyph-name="O" unicode="O" horiz-adv-x="1642" 
d="M274 727q0 -143 45.5 -259t123 -189t174.5 -111.5t204 -38.5q108 0 205 38.5t174 111.5t122.5 189t45.5 259t-45.5 258.5t-122.5 188t-174 111t-205 38.5q-85 0 -164.5 -24t-149.5 -73t-121.5 -119t-81.5 -167.5t-30 -212.5zM102 727q0 176 61.5 321.5t163.5 238.5
t229.5 143.5t264.5 50.5q109 0 213.5 -31.5t196 -95t160.5 -152t109 -211.5t40 -264t-40 -263.5t-109 -211.5t-160.5 -153.5t-196 -96t-213.5 -31.5t-213 31.5t-195.5 96t-161 153.5t-109.5 211.5t-40 263.5z" />
    <glyph glyph-name="P" unicode="P" horiz-adv-x="1216" 
d="M680 756q140 0 220.5 73t80.5 195q0 125 -80.5 199.5t-220.5 74.5h-307v-542h307zM373 602v-602h-172v1452h506q199 0 322.5 -121.5t123.5 -304.5q0 -185 -123 -304.5t-323 -119.5h-334z" />
    <glyph glyph-name="Q" unicode="Q" horiz-adv-x="1642" 
d="M1214 86q-177 -115 -393 -115q-109 0 -213 31.5t-195.5 96t-161 153.5t-109.5 211.5t-40 263.5q0 176 61.5 321.5t163.5 238.5t229.5 143.5t264.5 50.5q109 0 213.5 -31.5t196 -95t160.5 -152t109 -211.5t40 -264q0 -336 -205 -541l178 -198l-118 -103zM821 129
q166 0 285 78l-266 299l118 102l269 -301q141 160 141 420q0 143 -45.5 258.5t-122.5 188t-174 111t-205 38.5q-85 0 -164.5 -24t-149.5 -73t-121.5 -119t-81.5 -167.5t-30 -212.5q0 -143 45.5 -259t123 -189t174.5 -111.5t204 -38.5z" />
    <glyph glyph-name="R" unicode="R" horiz-adv-x="1273" 
d="M625 608h-252v-608h-172v1452h528q197 0 317.5 -121t120.5 -303q0 -161 -94.5 -271t-259.5 -136l352 -621h-200zM702 762q134 0 213.5 71.5t79.5 194.5t-80 196.5t-213 73.5h-329v-536h329z" />
    <glyph glyph-name="S" unicode="S" horiz-adv-x="1206" 
d="M938 1067q-9 49 -32 93t-61.5 82.5t-99 61.5t-135.5 23q-127 0 -214 -74t-87 -184q0 -87 54.5 -146.5t154.5 -82.5l213 -47q177 -38 275 -143.5t98 -258.5q0 -173 -137 -296.5t-357 -123.5q-121 0 -220 37t-162.5 99.5t-101.5 137.5t-48 158l162 52q13 -138 110 -233
t260 -95q153 0 237.5 70.5t84.5 179.5q0 92 -60 156t-176 90l-213 47q-158 33 -252 133.5t-94 255.5q0 112 62.5 209t171.5 155t237 58q90 0 166.5 -21.5t129 -56.5t92 -82.5t62 -96.5t34.5 -102z" />
    <glyph glyph-name="T" unicode="T" horiz-adv-x="1243" 
d="M707 1294v-1294h-170v1294h-498v158h1165v-158h-497z" />
    <glyph glyph-name="U" unicode="U" horiz-adv-x="1396" 
d="M698 -29q-228 0 -371 137t-143 384v960h172v-956q0 -177 88 -272t254 -95t254 95t88 272v956h172v-960q0 -247 -143 -384t-371 -137z" />
    <glyph glyph-name="V" unicode="V" horiz-adv-x="1363" 
d="M1141 1452h180l-553 -1452h-172l-551 1452h182l455 -1237z" />
    <glyph glyph-name="W" unicode="W" horiz-adv-x="2052" 
d="M1487 264l346 1188h176l-430 -1452h-174l-379 1219l-379 -1219h-174l-430 1452h176l346 -1188l367 1188h188z" />
    <glyph glyph-name="X" unicode="X" horiz-adv-x="1255" 
d="M729 727l488 -727h-205l-383 590l-389 -590h-207l493 727l-489 725h209l383 -592l385 592h207z" />
    <glyph glyph-name="Y" unicode="Y" horiz-adv-x="1294" 
d="M51 1452h201l395 -674l395 674h201l-510 -831v-621h-172v621z" />
    <glyph glyph-name="Z" unicode="Z" horiz-adv-x="1288" 
d="M84 0v172l903 1122h-885v158h1090v-168l-905 -1126h915v-158h-1118z" />
    <glyph glyph-name="bracketleft" unicode="[" horiz-adv-x="573" 
d="M154 -297v1899h360v-134h-217v-1632h217v-133h-360z" />
    <glyph glyph-name="backslash" unicode="\" horiz-adv-x="978" 
d="M57 1452h160l703 -1452h-160z" />
    <glyph glyph-name="bracketright" unicode="]" horiz-adv-x="573" 
d="M59 -297v133h217v1632h-217v134h361v-1899h-361z" />
    <glyph glyph-name="asciicircum" unicode="^" horiz-adv-x="1130" 
d="M862 725l-297 559l-297 -559h-172l396 727h145l397 -727h-172z" />
    <glyph glyph-name="underscore" unicode="_" horiz-adv-x="1067" 
d="M10 -137v137h1047v-137h-1047z" />
    <glyph glyph-name="grave" unicode="`" horiz-adv-x="550" 
d="M82 1401h209l178 -293h-135z" />
    <glyph glyph-name="a" unicode="a" horiz-adv-x="1048" 
d="M90 260q0 125 79 199t214 94l264 39q51 7 69.5 27.5t18.5 56.5q0 89 -57 141.5t-170 52.5q-106 0 -169.5 -57.5t-74.5 -153.5l-155 37q17 140 126.5 227t268.5 87q101 0 178.5 -28t124 -77t69.5 -111t23 -135v-495q0 -102 12 -164h-159q-13 50 -13 147
q-38 -71 -121.5 -123.5t-203.5 -52.5q-146 0 -235 86.5t-89 202.5zM434 111q134 0 217.5 77t83.5 226v65l-319 -47q-75 -11 -118.5 -52.5t-43.5 -111.5q0 -63 49.5 -110t130.5 -47z" />
    <glyph glyph-name="b" unicode="b" horiz-adv-x="1200" 
d="M160 0v1481h164v-660q36 77 124.5 133t210.5 56q141 0 244 -70.5t153 -186t50 -261.5q0 -226 -121.5 -373.5t-329.5 -147.5q-117 0 -203.5 53t-132.5 138v-162h-159zM631 119q140 0 225.5 104t85.5 269q0 164 -85 267t-226 103t-226.5 -103t-85.5 -267q0 -165 86 -269
t226 -104z" />
    <glyph glyph-name="c" unicode="c" horiz-adv-x="1089" 
d="M578 862q-135 0 -228.5 -99t-93.5 -271q0 -171 94 -272t230 -101q65 0 118 21t87 56t55 70.5t32 73.5l144 -64q-20 -58 -54.5 -109.5t-86.5 -97t-128.5 -72t-166.5 -26.5q-212 0 -350 147.5t-138 373.5q0 227 138.5 372.5t347.5 145.5q92 0 168 -26t127 -71t84 -98
t51 -115l-148 -63q-11 42 -31.5 79.5t-53 71.5t-83.5 54t-114 20z" />
    <glyph glyph-name="d" unicode="d" horiz-adv-x="1189" 
d="M870 168q-36 -81 -120 -139t-201 -58q-207 0 -331 148.5t-124 372.5q0 142 56.5 260t161 188t237.5 70q128 0 207.5 -56.5t109.5 -130.5v658h164v-1297q0 -146 10 -184h-159q-11 42 -11 141v27zM563 119q137 0 222 104t85 269q0 164 -83.5 267t-223.5 103
q-138 0 -221.5 -103t-83.5 -267q0 -166 83.5 -269.5t221.5 -103.5z" />
    <glyph glyph-name="e" unicode="e" horiz-adv-x="1107" 
d="M850 586q-5 123 -80 200.5t-211 77.5q-124 0 -205.5 -82t-89.5 -196h586zM1014 279q-44 -135 -158.5 -221.5t-277.5 -86.5q-99 0 -186.5 36t-154.5 101.5t-106 165.5t-39 220q0 114 38 211.5t101.5 163.5t148 103.5t177.5 37.5q219 0 341 -138t122 -368q0 -30 -4 -58
h-756v-8q0 -138 92 -228.5t226 -90.5q117 0 189.5 57.5t104.5 153.5z" />
    <glyph glyph-name="f" unicode="f" horiz-adv-x="692" 
d="M397 834v-834h-164v834h-192v147h192v182q0 156 87 242t223 86q75 0 112 -21v-141q-33 14 -88 14q-70 0 -120 -44t-50 -140v-178h254v-147h-254z" />
    <glyph glyph-name="g" unicode="g" horiz-adv-x="1171" 
d="M250 -16q12 -112 89 -183t196 -71q313 0 313 338v157q-39 -79 -118 -130.5t-193 -51.5q-193 0 -318 137.5t-125 343.5q0 208 125 347t322 139q112 0 191 -46t118 -122v139h162v-907q0 -76 -14 -143.5t-48 -133t-87 -112t-137 -75t-191 -28.5q-177 0 -301.5 103
t-141.5 260zM856 526q0 153 -82 244.5t-217 91.5t-217 -91.5t-82 -244.5t82 -244.5t217 -91.5t217 91.5t82 244.5z" />
    <glyph glyph-name="h" unicode="h" horiz-adv-x="1124" 
d="M324 0h-164v1481h164v-631q47 77 126 118.5t177 41.5q170 0 260 -106.5t90 -274.5v-629h-164v604q0 115 -59 186.5t-185 71.5q-114 0 -179.5 -78.5t-65.5 -197.5v-586z" />
    <glyph glyph-name="i" unicode="i" horiz-adv-x="483" 
d="M160 0v981h164v-981h-164zM129 1272q0 47 33.5 80.5t79.5 33.5q47 0 80.5 -33.5t33.5 -80.5q0 -46 -33.5 -79.5t-80.5 -33.5q-46 0 -79.5 33.5t-33.5 79.5z" />
    <glyph glyph-name="j" unicode="j" horiz-adv-x="483" 
d="M160 981h164v-1102q0 -136 -72.5 -216.5t-196.5 -80.5q-61 0 -110 17v143q24 -12 69 -12q77 0 111.5 38t34.5 117v1096zM129 1272q0 47 33.5 80.5t79.5 33.5q47 0 80.5 -33.5t33.5 -80.5q0 -46 -33.5 -79.5t-80.5 -33.5q-46 0 -79.5 33.5t-33.5 79.5z" />
    <glyph glyph-name="k" unicode="k" horiz-adv-x="1048" 
d="M590 565l428 -565h-207l-336 453l-151 -156v-297h-164v1481h164v-967l458 467h226z" />
    <glyph glyph-name="l" unicode="l" horiz-adv-x="483" 
d="M160 0v1481h164v-1481h-164z" />
    <glyph glyph-name="m" unicode="m" horiz-adv-x="1738" 
d="M319 842q41 78 123 123t179 45q105 0 185 -52t116 -149q104 201 331 201q68 0 128 -24t107.5 -68.5t75 -116t27.5 -160.5v-641h-164v623q0 107 -56.5 173t-168.5 66q-107 0 -175.5 -77t-68.5 -189v-596h-163v623q0 108 -57.5 173.5t-170.5 65.5q-109 0 -176 -75.5
t-67 -192.5v-594h-164v981h159v-139z" />
    <glyph glyph-name="n" unicode="n" horiz-adv-x="1124" 
d="M324 0h-164v981h159v-147q47 85 127.5 130.5t180.5 45.5q170 0 260 -106.5t90 -274.5v-629h-164v604q0 115 -59 186.5t-185 71.5q-114 0 -179.5 -81t-65.5 -203v-578z" />
    <glyph glyph-name="o" unicode="o" horiz-adv-x="1167" 
d="M584 1010q214 0 352.5 -146t138.5 -372q0 -227 -138.5 -374t-352.5 -147t-353 147t-139 374q0 226 139 372t353 146zM584 862q-137 0 -232.5 -99.5t-95.5 -270.5q0 -173 95.5 -273t232.5 -100t232 100t95 273q0 171 -95 270.5t-232 99.5z" />
    <glyph glyph-name="p" unicode="p" horiz-adv-x="1200" 
d="M160 -389v1370h159v-164q42 83 130 138t210 55q210 0 328.5 -145.5t118.5 -372.5q0 -147 -53 -264.5t-156.5 -187t-241.5 -69.5q-119 0 -203.5 52t-127.5 129v-541h-164zM631 119q140 0 225.5 104t85.5 269q0 164 -85 267t-226 103t-226.5 -103t-85.5 -267
q0 -165 86 -269t226 -104z" />
    <glyph glyph-name="q" unicode="q" horiz-adv-x="1196" 
d="M872 -389v543q-42 -80 -124.5 -131.5t-196.5 -51.5q-136 0 -241.5 70.5t-160.5 188.5t-55 262t53 260.5t157.5 187t242.5 70.5q124 0 207 -57t123 -136v164h159v-1370h-164zM565 119q139 0 224 104t85 269q0 164 -84.5 267t-224.5 103t-223.5 -103t-83.5 -267
q0 -166 83.5 -269.5t223.5 -103.5z" />
    <glyph glyph-name="r" unicode="r" horiz-adv-x="720" 
d="M686 813q-34 10 -86 10q-129 0 -202.5 -77.5t-73.5 -237.5v-508h-164v981h159v-176q46 100 126 145t171 45q51 0 70 -8v-174z" />
    <glyph glyph-name="s" unicode="s" horiz-adv-x="917" 
d="M227 309q11 -89 75 -143.5t171 -54.5q86 0 138.5 42.5t52.5 106.5q0 105 -150 143l-160 37q-114 27 -178.5 98t-64.5 175q0 123 101 210t241 87q73 0 133 -18t98.5 -45t67.5 -64t43 -69t22 -66l-145 -54q-4 28 -17.5 56t-37.5 56.5t-67 46t-97 17.5q-78 0 -130.5 -42.5
t-52.5 -104.5q0 -103 129 -133l160 -37q129 -29 197.5 -102t68.5 -183q0 -54 -23 -106t-66 -95t-112 -69.5t-153 -26.5q-92 0 -167 27t-120.5 71t-71.5 92t-32 97z" />
    <glyph glyph-name="t" unicode="t" horiz-adv-x="694" 
d="M397 981h232v-147h-232v-543q0 -79 36.5 -116.5t113.5 -37.5q55 0 82 10v-139q-54 -18 -129 -18q-125 0 -196 72.5t-71 205.5v566h-196v147h63q144 0 144 149v162h153v-311z" />
    <glyph glyph-name="u" unicode="u" horiz-adv-x="1126" 
d="M811 133q-35 -74 -115.5 -118t-179.5 -44q-173 0 -271 111.5t-98 282.5v616h164v-590q0 -116 60 -194t182 -78q120 0 185 74.5t65 195.5v592h164v-797q0 -106 12 -184h-158q-10 38 -10 125v8z" />
    <glyph glyph-name="v" unicode="v" horiz-adv-x="1052" 
d="M610 0h-166l-395 981h184l295 -791l297 791h176z" />
    <glyph glyph-name="w" unicode="w" horiz-adv-x="1652" 
d="M913 981l273 -776l233 776h174l-319 -981h-172l-275 782l-270 -782h-174l-326 981h176l240 -776l270 776h170z" />
    <glyph glyph-name="x" unicode="x" horiz-adv-x="1011" 
d="M412 502l-359 479h199l256 -360l258 360h192l-358 -479l375 -502h-197l-272 379l-273 -379h-196z" />
    <glyph glyph-name="y" unicode="y" horiz-adv-x="1071" 
d="M227 -389l238 506l-422 864h188l324 -694l305 694h178l-628 -1370h-183z" />
    <glyph glyph-name="z" unicode="z" horiz-adv-x="966" 
d="M92 0v143l572 691h-566v147h768v-143l-571 -691h582v-147h-785z" />
    <glyph glyph-name="braceleft" unicode="{" horiz-adv-x="679" 
d="M39 727q99 5 159 56t60 155v307q0 182 85 269.5t257 87.5h23v-134h-23q-110 0 -154.5 -51t-44.5 -164v-350q0 -101 -56.5 -167t-156.5 -85q100 -19 156.5 -85t56.5 -167v-350q0 -113 44.5 -164t154.5 -51h23v-133h-23q-172 0 -257 87t-85 269v308q0 104 -60 154.5
t-159 55.5v152z" />
    <glyph glyph-name="bar" unicode="|" horiz-adv-x="450" 
d="M154 -299v1901h143v-1901h-143z" />
    <glyph glyph-name="braceright" unicode="}" horiz-adv-x="679" 
d="M641 575q-98 -5 -158.5 -56t-60.5 -154v-308q0 -182 -85 -269t-257 -87h-23v133h23q110 0 154.5 51t44.5 164v350q0 101 56.5 167t156.5 85q-100 19 -156.5 85t-56.5 167v350q0 113 -44.5 164t-154.5 51h-23v134h23q172 0 257 -87.5t85 -269.5v-307q0 -104 60 -155
t159 -56v-152z" />
    <glyph glyph-name="asciitilde" unicode="~" horiz-adv-x="1288" 
d="M563 553q-62 33 -121 33q-110 0 -198 -115l-99 80q112 182 297 182q88 0 191 -53l94 -51q64 -37 127 -37q119 0 195 113l98 -80q-108 -181 -293 -181q-93 0 -197 58z" />
    <glyph glyph-name="uni00A0" unicode="&#xa0;" horiz-adv-x="522" 
 />
    <glyph glyph-name="exclamdown" unicode="&#xa1;" horiz-adv-x="466" 
d="M176 596h115l45 -1049h-205zM354 887q0 -51 -36 -86t-87 -35q-50 0 -85 35t-35 86q0 53 35 88t85 35q52 0 87.5 -35t35.5 -88z" />
    <glyph glyph-name="cent" unicode="&#xa2;" horiz-adv-x="1069" 
d="M492 0v195q-174 25 -284 157.5t-110 319.5q0 189 109 318t285 159v178h133v-176q142 -11 233.5 -93t122.5 -194l-139 -57q-22 73 -75 129t-142 72v-674q93 16 149 72.5t76 125.5l139 -57q-17 -50 -47 -96t-74 -87.5t-107 -68.5t-136 -33v-190h-133zM262 672
q0 -132 63.5 -219t166.5 -113v661q-103 -26 -166.5 -111.5t-63.5 -217.5z" />
    <glyph glyph-name="sterling" unicode="&#xa3;" horiz-adv-x="1191" 
d="M272 723q-2 4 -13.5 31.5t-14.5 36t-12 33t-12 38t-8 35.5t-7 41.5t-2 40.5q0 163 112.5 270t282.5 107q88 0 158.5 -21.5t116 -57t76.5 -84t45.5 -98t17.5 -104.5l-172 -28q-4 117 -67.5 180t-170.5 63q-97 0 -163 -62t-66 -165q0 -41 13 -89.5t24.5 -76.5t38.5 -90h389
v-152h-344q8 -31 8 -73q0 -109 -53.5 -200t-145.5 -146h436q106 0 159 66t58 171l164 -24q-5 -164 -94.5 -264.5t-245.5 -100.5h-671v166q102 47 164.5 133.5t62.5 179.5q0 45 -12 92h-199v152h147z" />
    <glyph glyph-name="currency" unicode="&#xa4;" horiz-adv-x="1196" 
d="M598 45q-133 0 -246 86l-149 -156l-103 103l148 155q-80 118 -80 250q0 139 84 258l-152 158l105 102l153 -157q115 78 240 78t240 -78l153 157l105 -102l-152 -158q84 -119 84 -258q0 -132 -80 -250l148 -155l-103 -103l-149 156q-113 -86 -246 -86zM598 778
q-121 0 -202 -84t-81 -211t81 -211t202 -84t202 84t81 211t-81 211t-202 84z" />
    <glyph glyph-name="yen" unicode="&#xa5;" horiz-adv-x="1212" 
d="M694 317v-317h-170v317h-358v132h358v165h-358v131h276l-372 582h200l338 -565l338 565h195l-367 -582h279v-131h-359v-165h359v-132h-359z" />
    <glyph glyph-name="brokenbar" unicode="&#xa6;" horiz-adv-x="471" 
d="M307 1602v-820h-143v820h143zM307 520v-819h-143v819h143z" />
    <glyph glyph-name="section" unicode="&#xa7;" horiz-adv-x="1044" 
d="M911 500q0 -90 -53.5 -160.5t-126.5 -97.5q189 -116 189 -299q0 -106 -56 -189t-147.5 -126.5t-200.5 -43.5q-185 0 -285.5 100.5t-105.5 270.5l151 33q2 -122 65 -195.5t179 -73.5q103 0 168.5 55.5t65.5 151.5q0 126 -136 197l-212 113q-51 26 -85.5 47t-72.5 52
t-60.5 62.5t-37.5 75t-15 94.5q0 91 54 158.5t126 95.5q-188 113 -188 301q0 159 118 259t283 100q181 0 285.5 -104.5t104.5 -264.5l-154 -33q-2 122 -64 194.5t-176 72.5q-100 0 -165.5 -57.5t-65.5 -149.5q0 -66 33.5 -112.5t101.5 -82.5l211 -113q63 -33 106 -61t84 -68
t61.5 -90.5t20.5 -111.5zM414 770q-51 -18 -87 -66.5t-36 -111.5q0 -113 143 -189l197 -106q48 19 84.5 67t36.5 109q0 116 -142 191z" />
    <glyph glyph-name="dieresis" unicode="&#xa8;" horiz-adv-x="749" 
d="M82 1262q0 44 31 75t75 31t75.5 -31t31.5 -75t-31.5 -75.5t-75.5 -31.5t-75 31.5t-31 75.5zM455 1262q0 44 31 75t75 31t75.5 -31t31.5 -75t-31.5 -75.5t-75.5 -31.5t-75 31.5t-31 75.5z" />
    <glyph glyph-name="copyright" unicode="&#xa9;" horiz-adv-x="1703" 
d="M854 1026q-109 0 -184.5 -81.5t-75.5 -219.5t75 -218.5t187 -80.5q53 0 97 16.5t72 44t45.5 56.5t25.5 59l118 -51q-17 -48 -46 -90t-72 -79t-105 -59t-135 -22q-173 0 -286 121t-113 303q0 184 112.5 304t284.5 120q145 0 235.5 -74t118.5 -180l-123 -49q-20 78 -76 129
t-155 51zM1599 725q0 -153 -58.5 -292.5t-158.5 -241t-238.5 -161t-291.5 -59.5t-292 59.5t-238.5 161t-158.5 241t-59 292.5t59 293t158.5 241.5t238.5 161.5t292 60t291.5 -60t238.5 -161.5t158.5 -241.5t58.5 -293zM1464 725q0 128 -47.5 244.5t-128.5 202t-195 136
t-241 50.5t-241 -50.5t-195 -136t-128.5 -202t-47.5 -244.5q0 -170 80 -315t221.5 -230.5t310.5 -85.5t310.5 85.5t221.5 230.5t80 315z" />
    <glyph glyph-name="ordfeminine" unicode="&#xaa;" horiz-adv-x="851" 
d="M117 821q0 89 56.5 141t152.5 66l184 29q33 4 45 18t12 37q0 57 -37 92t-112 35q-71 0 -114.5 -39.5t-49.5 -103.5l-123 28q11 99 88.5 161.5t196.5 62.5q145 0 213.5 -70t68.5 -180v-346q0 -52 9 -115h-125q-9 24 -9 96q-29 -48 -85.5 -81.5t-137.5 -33.5
q-105 0 -169 60t-64 143zM371 725q91 0 143.5 52.5t52.5 158.5v37l-211 -35q-106 -17 -106 -111q0 -44 32 -73t89 -29z" />
    <glyph glyph-name="guillemotleft" unicode="&#xab;" horiz-adv-x="1005" 
d="M365 199l-273 391l273 391h161l-268 -391l268 -391h-161zM741 199l-272 391l272 391h162l-268 -391l268 -391h-162z" />
    <glyph glyph-name="logicalnot" unicode="&#xac;" 
d="M874 311v406h-782v143h930v-549h-148z" />
    <glyph glyph-name="uni00AD" unicode="&#xad;" horiz-adv-x="825" 
d="M139 516v143h547v-143h-547z" />
    <glyph glyph-name="registered" unicode="&#xae;" horiz-adv-x="1703" 
d="M866 752q73 0 114.5 36t41.5 99q0 66 -41 101.5t-115 35.5h-125v-272h125zM741 319h-133v822h277q117 0 194.5 -72.5t77.5 -179.5q0 -88 -50.5 -153.5t-135.5 -88.5l190 -328h-153l-179 316h-88v-316zM1599 725q0 -153 -58.5 -292.5t-158.5 -241t-238.5 -161
t-291.5 -59.5t-292 59.5t-238.5 161t-158.5 241t-59 292.5t59 293t158.5 241.5t238.5 161.5t292 60t291.5 -60t238.5 -161.5t158.5 -241.5t58.5 -293zM1464 725q0 128 -47.5 244.5t-128.5 202t-195 136t-241 50.5t-241 -50.5t-195 -136t-128.5 -202t-47.5 -244.5
q0 -170 80 -315t221.5 -230.5t310.5 -85.5t310.5 85.5t221.5 230.5t80 315z" />
    <glyph glyph-name="overscore" unicode="&#xaf;" horiz-adv-x="706" 
d="M82 1184v143h543v-143h-543z" />
    <glyph glyph-name="degree" unicode="&#xb0;" horiz-adv-x="841" 
d="M244 1036q0 -78 51 -130t125 -52q78 0 128 52t50 130q0 79 -50 131t-128 52q-74 0 -125 -52.5t-51 -130.5zM100 1036q0 134 94 227t226 93q133 0 228 -93t95 -227t-95 -226.5t-228 -92.5q-132 0 -226 92.5t-94 226.5z" />
    <glyph glyph-name="plusminus" unicode="&#xb1;" horiz-adv-x="1161" 
d="M508 780v287h143v-287h373v-135h-373v-285h-143v285h-371v135h371zM1024 254v-137h-887v137h887z" />
    <glyph glyph-name="twosuperior" unicode="&#xb2;" horiz-adv-x="702" 
d="M90 1171q-6 18 -6 58q0 100 73.5 167.5t194.5 67.5q118 0 190 -66.5t72 -162.5q0 -134 -145 -225l-147 -92q-68 -43 -76 -97h375v-114h-541v18q0 186 168 289l131 82q98 61 98 141q0 47 -34.5 81t-92.5 34q-61 0 -98 -36t-37 -97q0 -34 6 -50z" />
    <glyph glyph-name="threesuperior" unicode="&#xb3;" horiz-adv-x="735" 
d="M250 1153l213 184h-373v115h547v-113l-217 -184q10 2 29 2q82 0 143 -61.5t61 -161.5q0 -102 -81.5 -173t-209.5 -71q-123 0 -200 61.5t-96 151.5l118 47q10 -66 59 -105.5t117 -39.5t112 37t44 92q0 65 -44 96t-110 31q-38 0 -59 -8z" />
    <glyph glyph-name="acute" unicode="&#xb4;" horiz-adv-x="550" 
d="M217 1108h-135l178 293h209z" />
    <glyph glyph-name="mu" unicode="&#xb5;" horiz-adv-x="1112" 
d="M809 133q-37 -75 -117.5 -118.5t-179.5 -43.5q-136 0 -203 82v-442h-164v1370h164v-592q0 -116 59.5 -194t180.5 -78q120 0 186 74.5t66 195.5v594h164v-797q0 -129 10 -184h-158q-8 31 -8 127v6z" />
    <glyph glyph-name="paragraph" unicode="&#xb6;" horiz-adv-x="1286" 
d="M651 -389h-143v1053h-47q-161 0 -277 112t-116 275q0 183 128.5 292t325.5 109h678v-141h-196v-1700h-144v1700h-209v-1700z" />
    <glyph glyph-name="middot" unicode="&#xb7;" horiz-adv-x="536" 
d="M141 582q0 54 36.5 90.5t90.5 36.5t90.5 -36.5t36.5 -90.5t-36.5 -90.5t-90.5 -36.5t-90.5 36.5t-36.5 90.5z" />
    <glyph glyph-name="cedilla" unicode="&#xb8;" horiz-adv-x="620" 
d="M186 -131l99 156h125l-86 -129q9 4 30 4q82 0 133.5 -45t51.5 -117q0 -77 -60.5 -127.5t-173.5 -50.5q-70 0 -130 27.5t-93 68.5l68 80q74 -74 155 -74q47 0 78 19.5t31 56.5q0 33 -27.5 53.5t-75.5 20.5q-33 0 -65 -13z" />
    <glyph glyph-name="onesuperior" unicode="&#xb9;" horiz-adv-x="464" 
d="M225 707v522h-176v78q73 6 123 47t61 98h127v-745h-135z" />
    <glyph glyph-name="ordmasculine" unicode="&#xba;" horiz-adv-x="905" 
d="M453 737q91 0 156 66.5t65 179.5t-65 179.5t-156 66.5t-156.5 -66.5t-65.5 -179.5t65.5 -179.5t156.5 -66.5zM453 618q-154 0 -253.5 102t-99.5 263t99.5 263t253.5 102t253 -102t99 -263t-99 -263t-253 -102z" />
    <glyph glyph-name="guillemotright" unicode="&#xbb;" horiz-adv-x="1005" 
d="M479 199l269 391l-269 391h162l272 -391l-272 -391h-162zM102 199l269 391l-269 391h162l273 -391l-273 -391h-162z" />
    <glyph glyph-name="onequarter" unicode="&#xbc;" horiz-adv-x="1527" 
d="M264 582v522h-176v78q73 6 123 47t61 98h127v-745h-135zM141 0l961 1327h158l-957 -1327h-162zM797 287l364 458h156v-475h135v-114h-135v-156h-137v156h-383v131zM1180 590l-252 -320h252v320z" />
    <glyph glyph-name="onehalf" unicode="&#xbd;" horiz-adv-x="1558" 
d="M262 582v522h-176v78q73 6 123 47t61 98h127v-745h-135zM139 0l961 1327h157l-956 -1327h-162zM934 465q-6 18 -6 57q0 100 73.5 168t194.5 68q118 0 190 -67t72 -163q0 -134 -145 -225l-148 -92q-67 -43 -75 -96h374v-115h-540v18q0 186 168 289l131 82q98 61 98 141
q0 47 -34.5 81t-92.5 34q-61 0 -98 -36t-37 -97q0 -33 6 -49z" />
    <glyph glyph-name="threequarters" unicode="&#xbe;" horiz-adv-x="1716" 
d="M279 1028l213 184h-373v115h547v-113l-217 -184q10 2 28 2q82 0 143.5 -61.5t61.5 -161.5q0 -102 -81.5 -173t-209.5 -71q-123 0 -200.5 61.5t-96.5 151.5l119 47q10 -66 59 -105.5t117 -39.5t112 37t44 92q0 65 -44 96t-110 31q-38 0 -59 -8zM330 0l960 1327h158
l-956 -1327h-162zM985 287l365 458h155v-475h135v-114h-135v-156h-137v156h-383v131zM1368 590l-252 -320h252v320z" />
    <glyph glyph-name="questiondown" unicode="&#xbf;" horiz-adv-x="1007" 
d="M612 596q4 -46 4 -74q0 -100 -39.5 -176t-125.5 -137l-91 -64q-122 -88 -122 -223q0 -105 69 -177.5t193 -72.5q134 0 205 82.5t71 196.5q0 59 -16 102l170 -20q12 -49 12 -103q0 -73 -26.5 -144t-78.5 -131.5t-139.5 -98t-197.5 -37.5q-101 0 -185 33.5t-137.5 90
t-82.5 128t-29 149.5q0 213 206 354l88 64q99 70 99 203q0 40 -4 55h157zM653 887q0 -51 -36 -86t-87 -35q-50 0 -85 35t-35 86q0 53 35 88t85 35q52 0 87.5 -35t35.5 -88z" />
    <glyph glyph-name="Agrave" unicode="&#xc0;" horiz-adv-x="1445" 
d="M1055 424h-666l-162 -424h-186l582 1452h200l584 -1452h-186zM451 582h542l-272 694zM797 1575h-129l-179 264h189z" />
    <glyph glyph-name="Aacute" unicode="&#xc1;" horiz-adv-x="1445" 
d="M1055 424h-666l-162 -424h-186l582 1452h200l584 -1452h-186zM451 582h542l-272 694zM780 1575h-129l119 264h188z" />
    <glyph glyph-name="Acircumflex" unicode="&#xc2;" horiz-adv-x="1445" 
d="M1055 424h-666l-162 -424h-186l582 1452h200l584 -1452h-186zM451 582h542l-272 694zM815 1819l199 -265h-150l-141 170l-141 -170h-150l199 265h184z" />
    <glyph glyph-name="Atilde" unicode="&#xc3;" horiz-adv-x="1445" 
d="M1055 424h-666l-162 -424h-186l582 1452h200l584 -1452h-186zM451 582h542l-272 694zM1014 1798q0 -111 -49 -167t-129 -56q-36 0 -69.5 16t-55 35t-49 35t-52.5 16q-26 0 -41.5 -27t-15.5 -71h-121q0 112 49.5 166.5t130.5 54.5q36 0 69.5 -15.5t55 -34.5t49 -34.5
t52.5 -15.5q27 0 42 27t15 71h119z" />
    <glyph glyph-name="Adieresis" unicode="&#xc4;" horiz-adv-x="1445" 
d="M340 1677q0 44 31 75.5t75 31.5t75.5 -31.5t31.5 -75.5t-31.5 -75t-75.5 -31t-75 31t-31 75zM889 1677q0 44 31 75.5t75 31.5t75.5 -31.5t31.5 -75.5t-31.5 -75t-75.5 -31t-75 31t-31 75zM1055 424h-666l-162 -424h-186l582 1452h200l584 -1452h-186zM451 582h542
l-272 694z" />
    <glyph glyph-name="Aring" unicode="&#xc5;" horiz-adv-x="1445" 
d="M1055 424h-666l-162 -424h-186l549 1372q-48 31 -76.5 82.5t-28.5 110.5q0 98 70.5 165.5t165.5 67.5t165 -67.5t70 -165.5q0 -58 -28 -107.5t-74 -83.5l553 -1374h-186zM451 582h542l-272 694zM721 1679q-47 0 -80 -33.5t-33 -80.5t33 -80t80 -33t80 33t33 80t-33 80.5
t-80 33.5z" />
    <glyph glyph-name="AE" unicode="&#xc6;" horiz-adv-x="2048" 
d="M1065 0v424h-571l-275 -424h-221l967 1452h970v-158h-698v-489h635v-158h-635v-489h698v-158h-870zM596 582h469v721z" />
    <glyph glyph-name="Ccedilla" unicode="&#xc7;" horiz-adv-x="1527" 
d="M696 -131l66 104q-132 10 -250 65t-210 148t-146 233t-54 308q0 141 40 264t109 211.5t160 152t194.5 95t211.5 31.5q243 0 411.5 -124.5t223.5 -336.5l-160 -55q-41 172 -165 265t-310 93q-84 0 -162.5 -24t-148 -73t-121 -119t-81.5 -167.5t-30 -212.5t30 -213.5
t81.5 -168t121 -119t148 -73.5t162.5 -24q186 0 313 101t173 264l151 -56q-54 -194 -203.5 -320t-365.5 -143l-51 -79q9 4 30 4q82 0 133.5 -45t51.5 -117q0 -77 -60.5 -127.5t-173.5 -50.5q-70 0 -130 27.5t-93 68.5l67 80q74 -74 156 -74q47 0 78 19.5t31 56.5
q0 33 -27.5 53.5t-75.5 20.5q-33 0 -65 -13z" />
    <glyph glyph-name="Egrave" unicode="&#xc8;" horiz-adv-x="1183" 
d="M201 0v1452h870v-158h-698v-489h635v-158h-635v-489h698v-158h-870zM743 1575h-129l-178 264h189z" />
    <glyph glyph-name="Eacute" unicode="&#xc9;" horiz-adv-x="1183" 
d="M201 0v1452h870v-158h-698v-489h635v-158h-635v-489h698v-158h-870zM694 1575h-129l119 264h188z" />
    <glyph glyph-name="Ecircumflex" unicode="&#xca;" horiz-adv-x="1183" 
d="M201 0v1452h870v-158h-698v-489h635v-158h-635v-489h698v-158h-870zM713 1819l198 -265h-149l-141 170l-142 -170h-149l198 265h185z" />
    <glyph glyph-name="Edieresis" unicode="&#xcb;" horiz-adv-x="1183" 
d="M201 0v1452h870v-158h-698v-489h635v-158h-635v-489h698v-158h-870zM309 1677q0 44 31.5 75.5t75.5 31.5t75 -31.5t31 -75.5t-31 -75t-75 -31t-75.5 31t-31.5 75zM756 1677q0 44 31 75.5t75 31.5t75.5 -31.5t31.5 -75.5t-31.5 -75t-75.5 -31t-75 31t-31 75z" />
    <glyph glyph-name="Igrave" unicode="&#xcc;" horiz-adv-x="573" 
d="M201 0v1452h172v-1452h-172zM360 1575h-129l-178 264h189z" />
    <glyph glyph-name="Iacute" unicode="&#xcd;" horiz-adv-x="573" 
d="M201 0v1452h172v-1452h-172zM338 1575h-129l119 264h188z" />
    <glyph glyph-name="Icircumflex" unicode="&#xce;" horiz-adv-x="573" 
d="M201 0v1452h172v-1452h-172zM-43 1554l229 244h226l229 -244h-160l-182 152l-182 -152h-160z" />
    <glyph glyph-name="Idieresis" unicode="&#xcf;" horiz-adv-x="573" 
d="M201 0v1452h172v-1452h-172zM37 1677q0 41 29.5 70t70.5 29t71 -29t30 -70t-29.5 -69.5t-71.5 -28.5q-41 0 -70.5 28.5t-29.5 69.5zM340 1677q0 41 29.5 70t70.5 29t71 -29t30 -70t-29.5 -69.5t-71.5 -28.5q-41 0 -70.5 28.5t-29.5 69.5z" />
    <glyph glyph-name="Eth" unicode="&#xd0;" horiz-adv-x="1480" 
d="M205 0v678h-158v143h158v631h481q111 0 213 -30t189 -90.5t151 -146.5t100.5 -204.5t36.5 -257.5q0 -173 -56.5 -312.5t-152.5 -228t-220.5 -135.5t-264.5 -47h-477zM682 152q108 0 201.5 36.5t165.5 105.5t113.5 179.5t41.5 249.5q0 140 -40.5 251t-111.5 181.5
t-164.5 107.5t-201.5 37h-309v-479h266v-143h-266v-526h305z" />
    <glyph glyph-name="Ntilde" unicode="&#xd1;" horiz-adv-x="1576" 
d="M1114 1767q0 -103 -49 -160t-131 -57q-70 0 -141 47l-45 29q-44 33 -84 33q-36 0 -57 -25t-21 -75h-119v28q0 102 52.5 158.5t135.5 56.5q72 0 140 -45l45 -28q3 -2 11 -6.5t11 -6t10 -5.5t10.5 -5.5t9.5 -4t10.5 -3t10 -1.5t11.5 -1q71 0 71 88v12h119v-29zM1196 0
l-823 1229v-1229h-172v1452h225l778 -1163v1163h172v-1452h-180z" />
    <glyph glyph-name="Ograve" unicode="&#xd2;" horiz-adv-x="1642" 
d="M274 727q0 -143 45.5 -259t123 -189t174.5 -111.5t204 -38.5q108 0 205 38.5t174 111.5t122.5 189t45.5 259t-45.5 258.5t-122.5 188t-174 111t-205 38.5q-85 0 -164.5 -24t-149.5 -73t-121.5 -119t-81.5 -167.5t-30 -212.5zM102 727q0 176 61.5 321.5t163.5 238.5
t229.5 143.5t264.5 50.5q109 0 213.5 -31.5t196 -95t160.5 -152t109 -211.5t40 -264t-40 -263.5t-109 -211.5t-160.5 -153.5t-196 -96t-213.5 -31.5t-213 31.5t-195.5 96t-161 153.5t-109.5 211.5t-40 263.5zM883 1575h-129l-179 264h189z" />
    <glyph glyph-name="Oacute" unicode="&#xd3;" horiz-adv-x="1642" 
d="M274 727q0 -143 45.5 -259t123 -189t174.5 -111.5t204 -38.5q108 0 205 38.5t174 111.5t122.5 189t45.5 259t-45.5 258.5t-122.5 188t-174 111t-205 38.5q-85 0 -164.5 -24t-149.5 -73t-121.5 -119t-81.5 -167.5t-30 -212.5zM102 727q0 176 61.5 321.5t163.5 238.5
t229.5 143.5t264.5 50.5q109 0 213.5 -31.5t196 -95t160.5 -152t109 -211.5t40 -264t-40 -263.5t-109 -211.5t-160.5 -153.5t-196 -96t-213.5 -31.5t-213 31.5t-195.5 96t-161 153.5t-109.5 211.5t-40 263.5zM883 1575h-129l118 264h189z" />
    <glyph glyph-name="Ocircumflex" unicode="&#xd4;" horiz-adv-x="1642" 
d="M274 727q0 -143 45.5 -259t123 -189t174.5 -111.5t204 -38.5q108 0 205 38.5t174 111.5t122.5 189t45.5 259t-45.5 258.5t-122.5 188t-174 111t-205 38.5q-85 0 -164.5 -24t-149.5 -73t-121.5 -119t-81.5 -167.5t-30 -212.5zM102 727q0 176 61.5 321.5t163.5 238.5
t229.5 143.5t264.5 50.5q109 0 213.5 -31.5t196 -95t160.5 -152t109 -211.5t40 -264t-40 -263.5t-109 -211.5t-160.5 -153.5t-196 -96t-213.5 -31.5t-213 31.5t-195.5 96t-161 153.5t-109.5 211.5t-40 263.5zM913 1819l199 -265h-149l-142 170l-141 -170h-150l199 265h184z
" />
    <glyph glyph-name="Otilde" unicode="&#xd5;" horiz-adv-x="1642" 
d="M274 727q0 -143 45.5 -259t123 -189t174.5 -111.5t204 -38.5q108 0 205 38.5t174 111.5t122.5 189t45.5 259t-45.5 258.5t-122.5 188t-174 111t-205 38.5q-85 0 -164.5 -24t-149.5 -73t-121.5 -119t-81.5 -167.5t-30 -212.5zM102 727q0 176 61.5 321.5t163.5 238.5
t229.5 143.5t264.5 50.5q109 0 213.5 -31.5t196 -95t160.5 -152t109 -211.5t40 -264t-40 -263.5t-109 -211.5t-160.5 -153.5t-196 -96t-213.5 -31.5t-213 31.5t-195.5 96t-161 153.5t-109.5 211.5t-40 263.5zM1112 1798q0 -111 -49 -167t-129 -56q-45 0 -85 25.5t-74.5 51
t-65.5 25.5q-26 0 -42 -27t-16 -71h-121q0 112 50 166.5t131 54.5q45 0 85 -25t74.5 -50t65.5 -25q27 0 42 27t15 71h119z" />
    <glyph glyph-name="Odieresis" unicode="&#xd6;" horiz-adv-x="1642" 
d="M410 1677q0 44 31 75.5t75 31.5t75.5 -31.5t31.5 -75.5t-31.5 -75t-75.5 -31t-75 31t-31 75zM1020 1677q0 44 31 75.5t75 31.5t75.5 -31.5t31.5 -75.5t-31.5 -75t-75.5 -31t-75 31t-31 75zM274 727q0 -143 45.5 -259t123 -189t174.5 -111.5t204 -38.5q108 0 205 38.5
t174 111.5t122.5 189t45.5 259t-45.5 258.5t-122.5 188t-174 111t-205 38.5q-85 0 -164.5 -24t-149.5 -73t-121.5 -119t-81.5 -167.5t-30 -212.5zM102 727q0 176 61.5 321.5t163.5 238.5t229.5 143.5t264.5 50.5q109 0 213.5 -31.5t196 -95t160.5 -152t109 -211.5t40 -264
t-40 -263.5t-109 -211.5t-160.5 -153.5t-196 -96t-213.5 -31.5t-213 31.5t-195.5 96t-161 153.5t-109.5 211.5t-40 263.5z" />
    <glyph glyph-name="multiply" unicode="&#xd7;" horiz-adv-x="1103" 
d="M549 487l-352 -364l-97 98l353 369l-353 364l101 101l350 -367l352 367l98 -99l-354 -366l357 -369l-99 -100z" />
    <glyph glyph-name="Oslash" unicode="&#xd8;" horiz-adv-x="1642" 
d="M102 727q0 176 61.5 321.5t163.5 238.5t229.5 143.5t264.5 50.5q219 0 402 -121l145 188l117 -90l-150 -192q205 -215 205 -539q0 -141 -40 -263.5t-109 -211.5t-160.5 -153.5t-196 -96t-213.5 -31.5q-215 0 -395 117l-145 -186l-121 90l149 192q-207 214 -207 543z
M274 727q0 -251 136 -414l714 920q-140 90 -303 90q-85 0 -164.5 -24t-149.5 -73t-121.5 -119t-81.5 -167.5t-30 -212.5zM1368 727q0 249 -133 408l-713 -920q133 -86 299 -86q108 0 205 38.5t174 111.5t122.5 189t45.5 259z" />
    <glyph glyph-name="Ugrave" unicode="&#xd9;" horiz-adv-x="1396" 
d="M698 -29q-228 0 -371 137t-143 384v960h172v-956q0 -177 88 -272t254 -95t254 95t88 272v956h172v-960q0 -247 -143 -384t-371 -137zM793 1575h-129l-179 264h189z" />
    <glyph glyph-name="Uacute" unicode="&#xda;" horiz-adv-x="1396" 
d="M698 -29q-228 0 -371 137t-143 384v960h172v-956q0 -177 88 -272t254 -95t254 95t88 272v956h172v-960q0 -247 -143 -384t-371 -137zM754 1575h-129l118 264h189z" />
    <glyph glyph-name="Ucircumflex" unicode="&#xdb;" horiz-adv-x="1396" 
d="M356 1554l230 244h225l229 -244h-159l-183 152l-182 -152h-160zM698 -29q-228 0 -371 137t-143 384v960h172v-956q0 -177 88 -272t254 -95t254 95t88 272v956h172v-960q0 -247 -143 -384t-371 -137z" />
    <glyph glyph-name="Udieresis" unicode="&#xdc;" horiz-adv-x="1396" 
d="M698 -29q-228 0 -371 137t-143 384v960h172v-956q0 -177 88 -272t254 -95t254 95t88 272v956h172v-960q0 -247 -143 -384t-371 -137zM369 1677q0 44 31 75.5t75 31.5t75.5 -31.5t31.5 -75.5t-31.5 -75t-75.5 -31t-75 31t-31 75zM815 1677q0 44 31.5 75.5t75.5 31.5
t75 -31.5t31 -75.5t-31 -75t-75 -31t-75.5 31t-31.5 75z" />
    <glyph glyph-name="Yacute" unicode="&#xdd;" horiz-adv-x="1294" 
d="M51 1452h201l395 -674l395 674h201l-510 -831v-621h-172v621zM680 1575h-129l119 264h188z" />
    <glyph glyph-name="Thorn" unicode="&#xde;" horiz-adv-x="1220" 
d="M201 0v1452h172v-287h334q199 0 322.5 -121.5t123.5 -304.5q0 -185 -123 -304.5t-323 -119.5h-334v-315h-172zM680 469q140 0 220.5 73t80.5 195q0 126 -80.5 200.5t-220.5 74.5h-307v-543h307z" />
    <glyph glyph-name="germandbls" unicode="&#xdf;" horiz-adv-x="1146" 
d="M705 702q0 -35 20.5 -53t71.5 -43l73 -37q93 -46 151 -123.5t58 -177.5q0 -54 -20.5 -105.5t-59 -95t-103 -70t-144.5 -26.5q-84 0 -150.5 27.5t-104 71t-56.5 92t-19 96.5l147 39q0 -30 10 -61t30 -60.5t57 -48t86 -18.5q76 0 119.5 45t43.5 102q0 114 -120 172l-74 35
q-38 17 -65.5 35t-58 45.5t-46.5 65.5t-16 85q0 125 118 203l70 47q117 74 117 186q0 88 -65.5 146.5t-178.5 58.5q-116 0 -194 -88.5t-78 -247.5v-999h-164v1008q0 219 124 346t312 127q182 0 296 -98.5t114 -247.5q0 -189 -172 -297l-68 -43q-31 -20 -46 -40.5t-15 -52.5z
" />
    <glyph glyph-name="agrave" unicode="&#xe0;" horiz-adv-x="1048" 
d="M90 260q0 125 79 199t214 94l264 39q51 7 69.5 27.5t18.5 56.5q0 89 -57 141.5t-170 52.5q-106 0 -169.5 -57.5t-74.5 -153.5l-155 37q17 140 126.5 227t268.5 87q101 0 178.5 -28t124 -77t69.5 -111t23 -135v-495q0 -102 12 -164h-159q-13 50 -13 147
q-38 -71 -121.5 -123.5t-203.5 -52.5q-146 0 -235 86.5t-89 202.5zM434 111q134 0 217.5 77t83.5 226v65l-319 -47q-75 -11 -118.5 -52.5t-43.5 -111.5q0 -63 49.5 -110t130.5 -47zM586 1137h-129l-178 264h188z" />
    <glyph glyph-name="aacute" unicode="&#xe1;" horiz-adv-x="1048" 
d="M90 260q0 125 79 199t214 94l264 39q51 7 69.5 27.5t18.5 56.5q0 89 -57 141.5t-170 52.5q-106 0 -169.5 -57.5t-74.5 -153.5l-155 37q17 140 126.5 227t268.5 87q101 0 178.5 -28t124 -77t69.5 -111t23 -135v-495q0 -102 12 -164h-159q-13 50 -13 147
q-38 -71 -121.5 -123.5t-203.5 -52.5q-146 0 -235 86.5t-89 202.5zM434 111q134 0 217.5 77t83.5 226v65l-319 -47q-75 -11 -118.5 -52.5t-43.5 -111.5q0 -63 49.5 -110t130.5 -47zM575 1137h-129l119 264h189z" />
    <glyph glyph-name="acircumflex" unicode="&#xe2;" horiz-adv-x="1048" 
d="M90 260q0 125 79 199t214 94l264 39q51 7 69.5 27.5t18.5 56.5q0 89 -57 141.5t-170 52.5q-106 0 -169.5 -57.5t-74.5 -153.5l-155 37q17 140 126.5 227t268.5 87q101 0 178.5 -28t124 -77t69.5 -111t23 -135v-495q0 -102 12 -164h-159q-13 50 -13 147
q-38 -71 -121.5 -123.5t-203.5 -52.5q-146 0 -235 86.5t-89 202.5zM434 111q134 0 217.5 77t83.5 226v65l-319 -47q-75 -11 -118.5 -52.5t-43.5 -111.5q0 -63 49.5 -110t130.5 -47zM602 1380l199 -264h-150l-141 170l-141 -170h-150l199 264h184z" />
    <glyph glyph-name="atilde" unicode="&#xe3;" horiz-adv-x="1048" 
d="M90 260q0 125 79 199t214 94l264 39q51 7 69.5 27.5t18.5 56.5q0 89 -57 141.5t-170 52.5q-106 0 -169.5 -57.5t-74.5 -153.5l-155 37q17 140 126.5 227t268.5 87q101 0 178.5 -28t124 -77t69.5 -111t23 -135v-495q0 -102 12 -164h-159q-13 50 -13 147
q-38 -71 -121.5 -123.5t-203.5 -52.5q-146 0 -235 86.5t-89 202.5zM434 111q134 0 217.5 77t83.5 226v65l-319 -47q-75 -11 -118.5 -52.5t-43.5 -111.5q0 -63 49.5 -110t130.5 -47zM801 1360q0 -111 -49 -167t-129 -56q-36 0 -69.5 16t-55 35t-49 35t-52.5 16
q-26 0 -41.5 -27t-15.5 -71h-121q0 112 49.5 166.5t130.5 54.5q36 0 69.5 -15.5t55 -34.5t49 -34.5t52.5 -15.5q27 0 42 27t15 71h119z" />
    <glyph glyph-name="adieresis" unicode="&#xe4;" horiz-adv-x="1048" 
d="M221 1262q0 44 31.5 75t75.5 31t75 -31t31 -75t-31 -75.5t-75 -31.5t-75.5 31.5t-31.5 75.5zM594 1262q0 44 31 75t75 31t75.5 -31t31.5 -75t-31.5 -75.5t-75.5 -31.5t-75 31.5t-31 75.5zM90 260q0 125 79 199t214 94l264 39q51 7 69.5 27.5t18.5 56.5q0 89 -57 141.5
t-170 52.5q-106 0 -169.5 -57.5t-74.5 -153.5l-155 37q17 140 126.5 227t268.5 87q101 0 178.5 -28t124 -77t69.5 -111t23 -135v-495q0 -102 12 -164h-159q-13 50 -13 147q-38 -71 -121.5 -123.5t-203.5 -52.5q-146 0 -235 86.5t-89 202.5zM434 111q134 0 217.5 77t83.5 226
v65l-319 -47q-75 -11 -118.5 -52.5t-43.5 -111.5q0 -63 49.5 -110t130.5 -47z" />
    <glyph glyph-name="aring" unicode="&#xe5;" horiz-adv-x="1048" 
d="M90 260q0 125 79 199t214 94l264 39q51 7 69.5 27.5t18.5 56.5q0 89 -57 141.5t-170 52.5q-106 0 -169.5 -57.5t-74.5 -153.5l-155 37q17 140 126.5 227t268.5 87q101 0 178.5 -28t124 -77t69.5 -111t23 -135v-495q0 -102 12 -164h-159q-13 50 -13 147
q-38 -71 -121.5 -123.5t-203.5 -52.5q-146 0 -235 86.5t-89 202.5zM434 111q134 0 217.5 77t83.5 226v65l-319 -47q-75 -11 -118.5 -52.5t-43.5 -111.5q0 -63 49.5 -110t130.5 -47zM512 1085q-92 0 -157.5 65t-65.5 157t65.5 156.5t157.5 64.5t157.5 -64.5t65.5 -156.5
t-65.5 -157t-157.5 -65zM403 1307q0 -48 31 -80.5t78 -32.5t78 32.5t31 80.5t-31 80t-78 32t-78 -32t-31 -80z" />
    <glyph glyph-name="ae" unicode="&#xe6;" horiz-adv-x="1751" 
d="M504 1010q254 0 348 -172q134 172 348 172q219 0 341 -138t122 -368q0 -30 -4 -58h-756v-8q0 -138 92 -228.5t226 -90.5q117 0 190 58t105 153l141 -51q-43 -134 -158 -221t-276 -87q-131 0 -239 59.5t-173 170.5q-47 -100 -144.5 -165t-252.5 -65q-146 0 -235 86.5
t-89 202.5q0 125 79 199t214 94l264 39q51 7 69.5 27.5t18.5 56.5q0 89 -57 141.5t-170 52.5q-106 0 -169.5 -57.5t-74.5 -153.5l-155 37q17 140 126.5 227t268.5 87zM434 111q134 0 217.5 77t83.5 226v65l-319 -47q-75 -11 -118.5 -52.5t-43.5 -111.5q0 -63 49.5 -110
t130.5 -47zM1493 586q-5 123 -80 200.5t-211 77.5q-124 0 -205.5 -82t-89.5 -196h586z" />
    <glyph glyph-name="ccedilla" unicode="&#xe7;" horiz-adv-x="1089" 
d="M455 -131l65 106q-189 20 -308.5 164t-119.5 353q0 227 138.5 372.5t347.5 145.5q92 0 168 -26t127 -71t84 -98t51 -115l-148 -63q-11 42 -31.5 79.5t-53 71.5t-83.5 54t-114 20q-135 0 -228.5 -99t-93.5 -271q0 -171 94 -272t230 -101q65 0 118 21t87 56t55 70.5
t32 73.5l144 -64q-37 -111 -132 -198t-239 -103l-53 -79q9 4 31 4q82 0 133 -45t51 -117q0 -77 -60.5 -127.5t-173.5 -50.5q-70 0 -130 27.5t-93 68.5l68 80q74 -74 155 -74q47 0 78 19.5t31 56.5q0 33 -27 53.5t-75 20.5q-34 0 -66 -13z" />
    <glyph glyph-name="egrave" unicode="&#xe8;" horiz-adv-x="1107" 
d="M850 586q-5 123 -80 200.5t-211 77.5q-124 0 -205.5 -82t-89.5 -196h586zM1014 279q-44 -135 -158.5 -221.5t-277.5 -86.5q-99 0 -186.5 36t-154.5 101.5t-106 165.5t-39 220q0 114 38 211.5t101.5 163.5t148 103.5t177.5 37.5q219 0 341 -138t122 -368q0 -30 -4 -58
h-756v-8q0 -138 92 -228.5t226 -90.5q117 0 189.5 57.5t104.5 153.5zM623 1137h-129l-179 264h189z" />
    <glyph glyph-name="eacute" unicode="&#xe9;" horiz-adv-x="1107" 
d="M850 586q-5 123 -80 200.5t-211 77.5q-124 0 -205.5 -82t-89.5 -196h586zM1014 279q-44 -135 -158.5 -221.5t-277.5 -86.5q-99 0 -186.5 36t-154.5 101.5t-106 165.5t-39 220q0 114 38 211.5t101.5 163.5t148 103.5t177.5 37.5q219 0 341 -138t122 -368q0 -30 -4 -58
h-756v-8q0 -138 92 -228.5t226 -90.5q117 0 189.5 57.5t104.5 153.5zM625 1137h-129l118 264h189z" />
    <glyph glyph-name="ecircumflex" unicode="&#xea;" horiz-adv-x="1107" 
d="M850 586q-5 123 -80 200.5t-211 77.5q-124 0 -205.5 -82t-89.5 -196h586zM1014 279q-44 -135 -158.5 -221.5t-277.5 -86.5q-99 0 -186.5 36t-154.5 101.5t-106 165.5t-39 220q0 114 38 211.5t101.5 163.5t148 103.5t177.5 37.5q219 0 341 -138t122 -368q0 -30 -4 -58
h-756v-8q0 -138 92 -228.5t226 -90.5q117 0 189.5 57.5t104.5 153.5zM664 1380l198 -264h-149l-142 170l-141 -170h-149l198 264h185z" />
    <glyph glyph-name="edieresis" unicode="&#xeb;" horiz-adv-x="1107" 
d="M274 1262q0 44 31.5 75t75.5 31t75 -31t31 -75t-31 -75.5t-75 -31.5t-75.5 31.5t-31.5 75.5zM647 1262q0 44 31.5 75t75.5 31t75 -31t31 -75t-31 -75.5t-75 -31.5t-75.5 31.5t-31.5 75.5zM850 586q-5 123 -80 200.5t-211 77.5q-124 0 -205.5 -82t-89.5 -196h586z
M1014 279q-44 -135 -158.5 -221.5t-277.5 -86.5q-99 0 -186.5 36t-154.5 101.5t-106 165.5t-39 220q0 114 38 211.5t101.5 163.5t148 103.5t177.5 37.5q219 0 341 -138t122 -368q0 -30 -4 -58h-756v-8q0 -138 92 -228.5t226 -90.5q117 0 189.5 57.5t104.5 153.5z" />
    <glyph glyph-name="igrave" unicode="&#xec;" horiz-adv-x="483" 
d="M160 0v981h164v-981h-164zM317 1137h-129l-178 264h189z" />
    <glyph glyph-name="iacute" unicode="&#xed;" horiz-adv-x="483" 
d="M160 0v981h164v-981h-164zM289 1137h-129l119 264h188z" />
    <glyph glyph-name="icircumflex" unicode="&#xee;" horiz-adv-x="483" 
d="M-66 1108l218 283h194l215 -283h-151l-162 186l-162 -186h-152zM160 0v981h164v-981h-164z" />
    <glyph glyph-name="idieresis" unicode="&#xef;" horiz-adv-x="483" 
d="M160 0v981h164v-981h-164zM4 1262q0 41 29.5 70.5t70.5 29.5t71 -29.5t30 -70.5t-30 -71t-71 -30t-70.5 30t-29.5 71zM283 1262q0 41 29.5 70.5t70.5 29.5t70.5 -29.5t29.5 -70.5t-29.5 -71t-70.5 -30t-70.5 30t-29.5 71z" />
    <glyph glyph-name="eth" unicode="&#xf0;" horiz-adv-x="1183" 
d="M795 1231q130 -125 206 -301t76 -402q0 -159 -57.5 -284t-170.5 -198t-265 -73q-215 0 -353.5 140t-138.5 352q0 110 39.5 202.5t105.5 153t149.5 94t172.5 33.5q216 0 307 -127q-66 196 -219 336l-268 -135l-51 111l207 102q-103 71 -252 113l51 133q191 -49 358 -166
l226 112l55 -108zM584 121q142 0 233.5 95.5t91.5 256.5q0 154 -94.5 245t-230.5 91q-137 0 -231.5 -92.5t-94.5 -251.5q0 -158 93.5 -251t232.5 -93z" />
    <glyph glyph-name="ntilde" unicode="&#xf1;" horiz-adv-x="1124" 
d="M901 1343q0 -102 -52.5 -157.5t-135.5 -55.5q-64 0 -133 48l-31 22q-47 35 -86 35q-36 0 -52 -23.5t-16 -76.5h-127v28q0 102 53 156.5t136 54.5q80 0 139 -47l31 -22q39 -33 82 -33q36 0 51.5 22.5t15.5 75.5h125v-27zM324 0h-164v981h159v-147q47 85 127.5 130.5
t180.5 45.5q170 0 260 -106.5t90 -274.5v-629h-164v604q0 115 -59 186.5t-185 71.5q-114 0 -179.5 -81t-65.5 -203v-578z" />
    <glyph glyph-name="ograve" unicode="&#xf2;" horiz-adv-x="1167" 
d="M584 1010q214 0 352.5 -146t138.5 -372q0 -227 -138.5 -374t-352.5 -147t-353 147t-139 374q0 226 139 372t353 146zM584 862q-137 0 -232.5 -99.5t-95.5 -270.5q0 -173 95.5 -273t232.5 -100t232 100t95 273q0 171 -95 270.5t-232 99.5zM645 1137h-129l-178 264h188z
" />
    <glyph glyph-name="oacute" unicode="&#xf3;" horiz-adv-x="1167" 
d="M584 1010q214 0 352.5 -146t138.5 -372q0 -227 -138.5 -374t-352.5 -147t-353 147t-139 374q0 226 139 372t353 146zM584 862q-137 0 -232.5 -99.5t-95.5 -270.5q0 -173 95.5 -273t232.5 -100t232 100t95 273q0 171 -95 270.5t-232 99.5zM645 1137h-129l119 264h188z" />
    <glyph glyph-name="ocircumflex" unicode="&#xf4;" horiz-adv-x="1167" 
d="M584 1010q214 0 352.5 -146t138.5 -372q0 -227 -138.5 -374t-352.5 -147t-353 147t-139 374q0 226 139 372t353 146zM584 862q-137 0 -232.5 -99.5t-95.5 -270.5q0 -173 95.5 -273t232.5 -100t232 100t95 273q0 171 -95 270.5t-232 99.5zM676 1380l198 -264h-149
l-141 170l-142 -170h-149l199 264h184z" />
    <glyph glyph-name="otilde" unicode="&#xf5;" horiz-adv-x="1167" 
d="M584 1010q214 0 352.5 -146t138.5 -372q0 -227 -138.5 -374t-352.5 -147t-353 147t-139 374q0 226 139 372t353 146zM584 862q-137 0 -232.5 -99.5t-95.5 -270.5q0 -173 95.5 -273t232.5 -100t232 100t95 273q0 171 -95 270.5t-232 99.5zM874 1360q0 -111 -49 -167
t-129 -56q-45 0 -85 25.5t-74.5 51t-65.5 25.5q-26 0 -41.5 -27t-15.5 -71h-121q0 112 49.5 166.5t130.5 54.5q45 0 85 -25t74.5 -50t65.5 -25q27 0 42.5 27t15.5 71h118z" />
    <glyph glyph-name="odieresis" unicode="&#xf6;" horiz-adv-x="1167" 
d="M289 1262q0 44 31 75t75 31t75.5 -31t31.5 -75t-31.5 -75.5t-75.5 -31.5t-75 31.5t-31 75.5zM662 1262q0 44 31 75t75 31t75 -31t31 -75t-31 -75.5t-75 -31.5t-75 31.5t-31 75.5zM584 1010q214 0 352.5 -146t138.5 -372q0 -227 -138.5 -374t-352.5 -147t-353 147
t-139 374q0 226 139 372t353 146zM584 862q-137 0 -232.5 -99.5t-95.5 -270.5q0 -173 95.5 -273t232.5 -100t232 100t95 273q0 171 -95 270.5t-232 99.5z" />
    <glyph glyph-name="divide" unicode="&#xf7;" horiz-adv-x="1155" 
d="M457 225q0 47 35.5 82t82.5 35q49 0 83 -34.5t34 -82.5t-34 -83.5t-83 -35.5q-47 0 -82.5 36t-35.5 83zM457 952q0 47 35.5 82t82.5 35q49 0 83 -34.5t34 -82.5t-34 -83t-83 -35q-47 0 -82.5 35.5t-35.5 82.5zM117 662h921v-146h-921v146z" />
    <glyph glyph-name="oslash" unicode="&#xf8;" horiz-adv-x="1171" 
d="M586 1010q142 0 262 -74l104 137l105 -84l-109 -139q129 -142 129 -358q0 -227 -138.5 -374t-352.5 -147q-146 0 -262 72l-105 -135l-104 84l106 139q-127 143 -127 361q0 226 139 372t353 146zM913 492q0 136 -63 231l-432 -559q68 -45 168 -45q137 0 232 100t95 273z
M586 862q-137 0 -232.5 -99.5t-95.5 -270.5q0 -143 64 -234l432 557q-77 47 -168 47z" />
    <glyph glyph-name="ugrave" unicode="&#xf9;" horiz-adv-x="1126" 
d="M811 133q-35 -74 -115.5 -118t-179.5 -44q-173 0 -271 111.5t-98 282.5v616h164v-590q0 -116 60 -194t182 -78q120 0 185 74.5t65 195.5v592h164v-797q0 -106 12 -184h-158q-10 38 -10 125v8zM637 1137h-129l-178 264h188z" />
    <glyph glyph-name="uacute" unicode="&#xfa;" horiz-adv-x="1126" 
d="M811 133q-35 -74 -115.5 -118t-179.5 -44q-173 0 -271 111.5t-98 282.5v616h164v-590q0 -116 60 -194t182 -78q120 0 185 74.5t65 195.5v592h164v-797q0 -106 12 -184h-158q-10 38 -10 125v8zM616 1137h-129l119 264h189z" />
    <glyph glyph-name="ucircumflex" unicode="&#xfb;" horiz-adv-x="1126" 
d="M244 1108l217 283h194l215 -283h-151l-162 186l-162 -186h-151zM811 133q-35 -74 -115.5 -118t-179.5 -44q-173 0 -271 111.5t-98 282.5v616h164v-590q0 -116 60 -194t182 -78q120 0 185 74.5t65 195.5v592h164v-797q0 -106 12 -184h-158q-10 38 -10 125v8z" />
    <glyph glyph-name="udieresis" unicode="&#xfc;" horiz-adv-x="1126" 
d="M262 1262q0 44 31.5 75t75.5 31t75 -31t31 -75t-31 -75.5t-75 -31.5t-75.5 31.5t-31.5 75.5zM635 1262q0 44 31 75t75 31t75.5 -31t31.5 -75t-31.5 -75.5t-75.5 -31.5t-75 31.5t-31 75.5zM811 133q-35 -74 -115.5 -118t-179.5 -44q-173 0 -271 111.5t-98 282.5v616h164
v-590q0 -116 60 -194t182 -78q120 0 185 74.5t65 195.5v592h164v-797q0 -106 12 -184h-158q-10 38 -10 125v8z" />
    <glyph glyph-name="yacute" unicode="&#xfd;" horiz-adv-x="1071" 
d="M227 -389l238 506l-422 864h188l324 -694l305 694h178l-628 -1370h-183zM590 1137h-129l119 264h188z" />
    <glyph glyph-name="thorn" unicode="&#xfe;" horiz-adv-x="1200" 
d="M324 1481v-664q39 82 126 137.5t209 55.5q210 0 328.5 -145.5t118.5 -372.5q0 -147 -53 -264.5t-156.5 -187t-241.5 -69.5q-119 0 -203.5 52t-127.5 129v-541h-164v1870h164zM631 119q140 0 225.5 104t85.5 269q0 164 -85 267t-226 103t-226.5 -103t-85.5 -267
q0 -165 86 -269t226 -104z" />
    <glyph glyph-name="ydieresis" unicode="&#xff;" horiz-adv-x="1071" 
d="M246 1262q0 44 31 75t75 31t75.5 -31t31.5 -75t-31.5 -75.5t-75.5 -31.5t-75 31.5t-31 75.5zM618 1262q0 44 31.5 75t75.5 31t75 -31t31 -75t-31 -75.5t-75 -31.5t-75.5 31.5t-31.5 75.5zM227 -389l238 506l-422 864h188l324 -694l305 694h178l-628 -1370h-183z" />
    <glyph glyph-name="Amacron" unicode="&#x100;" horiz-adv-x="1445" 
d="M1055 424h-666l-162 -424h-186l582 1452h200l584 -1452h-186zM451 582h542l-272 694zM430 1610v143h582v-143h-582z" />
    <glyph glyph-name="amacron" unicode="&#x101;" horiz-adv-x="1048" 
d="M90 260q0 125 79 199t214 94l264 39q51 7 69.5 27.5t18.5 56.5q0 89 -57 141.5t-170 52.5q-106 0 -169.5 -57.5t-74.5 -153.5l-155 37q17 140 126.5 227t268.5 87q101 0 178.5 -28t124 -77t69.5 -111t23 -135v-495q0 -102 12 -164h-159q-13 50 -13 147
q-38 -71 -121.5 -123.5t-203.5 -52.5q-146 0 -235 86.5t-89 202.5zM434 111q134 0 217.5 77t83.5 226v65l-319 -47q-75 -11 -118.5 -52.5t-43.5 -111.5q0 -63 49.5 -110t130.5 -47zM244 1184v143h542v-143h-542z" />
    <glyph glyph-name="Abreve" unicode="&#x102;" horiz-adv-x="1445" 
d="M1055 424h-666l-162 -424h-186l582 1452h200l584 -1452h-186zM451 582h542l-272 694zM723 1554q-136 0 -211 62.5t-80 179.5h131q3 -56 42.5 -89.5t117.5 -33.5t117.5 33.5t42.5 89.5h131q-5 -117 -80 -179.5t-211 -62.5z" />
    <glyph glyph-name="abreve" unicode="&#x103;" horiz-adv-x="1048" 
d="M90 260q0 125 79 199t214 94l264 39q51 7 69.5 27.5t18.5 56.5q0 89 -57 141.5t-170 52.5q-106 0 -169.5 -57.5t-74.5 -153.5l-155 37q17 140 126.5 227t268.5 87q101 0 178.5 -28t124 -77t69.5 -111t23 -135v-495q0 -102 12 -164h-159q-13 50 -13 147
q-38 -71 -121.5 -123.5t-203.5 -52.5q-146 0 -235 86.5t-89 202.5zM434 111q134 0 217.5 77t83.5 226v65l-319 -47q-75 -11 -118.5 -52.5t-43.5 -111.5q0 -63 49.5 -110t130.5 -47zM510 1116q-136 0 -211 62.5t-80 179.5h131q3 -56 42.5 -89.5t117.5 -33.5t117.5 33.5
t42.5 89.5h131q-5 -117 -80 -179.5t-211 -62.5z" />
    <glyph glyph-name="Aogonek" unicode="&#x104;" horiz-adv-x="1445" 
d="M1055 424h-666l-162 -424h-186l582 1452h200l584 -1452q-172 -88 -172 -207q0 -51 34.5 -77.5t82.5 -26.5q46 0 67 8v-119q-44 -14 -98 -14q-95 0 -160 53.5t-65 144.5q0 147 147 238h-22zM451 582h542l-272 694z" />
    <glyph glyph-name="aogonek" unicode="&#x105;" horiz-adv-x="1048" 
d="M600 -238q0 149 152 238q-13 50 -13 147q-38 -71 -121.5 -123.5t-203.5 -52.5q-146 0 -235 86.5t-89 202.5q0 125 79 199t214 94l264 39q51 7 69.5 27.5t18.5 56.5q0 89 -57 141.5t-170 52.5q-106 0 -169.5 -57.5t-74.5 -153.5l-155 37q17 140 126.5 227t268.5 87
q101 0 178.5 -28t124 -77t69.5 -111t23 -135v-495q0 -102 12 -164q-172 -88 -172 -207q0 -51 34.5 -77.5t82.5 -26.5q47 0 68 8v-119q-44 -14 -99 -14q-95 0 -160 53.5t-65 144.5zM434 111q134 0 217.5 77t83.5 226v65l-319 -47q-75 -11 -118.5 -52.5t-43.5 -111.5
q0 -63 49.5 -110t130.5 -47z" />
    <glyph glyph-name="Cacute" unicode="&#x106;" horiz-adv-x="1527" 
d="M887 1554h-162l213 244h227zM817 -29q-111 0 -216 31.5t-195.5 96t-158 153.5t-106.5 211.5t-39 263.5t40 264t109 211.5t160 152t194.5 95t211.5 31.5q243 0 411.5 -124.5t223.5 -336.5l-160 -55q-41 172 -165 265t-310 93q-84 0 -162.5 -24t-148 -73t-121 -119
t-81.5 -167.5t-30 -212.5t30 -213.5t81.5 -168t121 -119t148 -73.5t162.5 -24q186 0 313 101t173 264l151 -56q-59 -211 -226 -339t-411 -128z" />
    <glyph glyph-name="cacute" unicode="&#x107;" horiz-adv-x="1089" 
d="M627 1108h-135l178 293h209zM578 862q-135 0 -228.5 -99t-93.5 -271q0 -171 94 -272t230 -101q65 0 118 21t87 56t55 70.5t32 73.5l144 -64q-20 -58 -54.5 -109.5t-86.5 -97t-128.5 -72t-166.5 -26.5q-212 0 -350 147.5t-138 373.5q0 227 138.5 372.5t347.5 145.5
q92 0 168 -26t127 -71t84 -98t51 -115l-148 -63q-11 42 -31.5 79.5t-53 71.5t-83.5 54t-114 20z" />
    <glyph glyph-name="Ccircumflex" unicode="&#x108;" horiz-adv-x="1527" 
d="M487 1554l230 244h225l229 -244h-159l-183 152l-182 -152h-160zM817 -29q-111 0 -216 31.5t-195.5 96t-158 153.5t-106.5 211.5t-39 263.5t40 264t109 211.5t160 152t194.5 95t211.5 31.5q243 0 411.5 -124.5t223.5 -336.5l-160 -55q-41 172 -165 265t-310 93
q-84 0 -162.5 -24t-148 -73t-121 -119t-81.5 -167.5t-30 -212.5t30 -213.5t81.5 -168t121 -119t148 -73.5t162.5 -24q186 0 313 101t173 264l151 -56q-59 -211 -226 -339t-411 -128z" />
    <glyph glyph-name="ccircumflex" unicode="&#x109;" horiz-adv-x="1089" 
d="M266 1108l217 283h195l215 -283h-152l-161 186l-162 -186h-152zM578 862q-135 0 -228.5 -99t-93.5 -271q0 -171 94 -272t230 -101q65 0 118 21t87 56t55 70.5t32 73.5l144 -64q-20 -58 -54.5 -109.5t-86.5 -97t-128.5 -72t-166.5 -26.5q-212 0 -350 147.5t-138 373.5
q0 227 138.5 372.5t347.5 145.5q92 0 168 -26t127 -71t84 -98t51 -115l-148 -63q-11 42 -31.5 79.5t-53 71.5t-83.5 54t-114 20z" />
    <glyph glyph-name="Cdotaccent" unicode="&#x10a;" horiz-adv-x="1527" 
d="M817 -29q-111 0 -216 31.5t-195.5 96t-158 153.5t-106.5 211.5t-39 263.5t40 264t109 211.5t160 152t194.5 95t211.5 31.5q243 0 411.5 -124.5t223.5 -336.5l-160 -55q-41 172 -165 265t-310 93q-84 0 -162.5 -24t-148 -73t-121 -119t-81.5 -167.5t-30 -212.5t30 -213.5
t81.5 -168t121 -119t148 -73.5t162.5 -24q186 0 313 101t173 264l151 -56q-59 -211 -226 -339t-411 -128zM821 1561q-48 0 -82 33.5t-34 82.5t34 83t82 34t82.5 -34t34.5 -83t-34.5 -82.5t-82.5 -33.5z" />
    <glyph glyph-name="cdotaccent" unicode="&#x10b;" horiz-adv-x="1089" 
d="M578 862q-135 0 -228.5 -99t-93.5 -271q0 -171 94 -272t230 -101q65 0 118 21t87 56t55 70.5t32 73.5l144 -64q-20 -58 -54.5 -109.5t-86.5 -97t-128.5 -72t-166.5 -26.5q-212 0 -350 147.5t-138 373.5q0 227 138.5 372.5t347.5 145.5q92 0 168 -26t127 -71t84 -98
t51 -115l-148 -63q-11 42 -31.5 79.5t-53 71.5t-83.5 54t-114 20zM469 1255q0 47 33 80t80 33t79.5 -33t32.5 -80t-32.5 -79.5t-79.5 -32.5t-80 32.5t-33 79.5z" />
    <glyph glyph-name="Ccaron" unicode="&#x10c;" horiz-adv-x="1527" 
d="M1161 1798l-229 -244h-225l-230 244h160l182 -151l182 151h160zM817 -29q-111 0 -216 31.5t-195.5 96t-158 153.5t-106.5 211.5t-39 263.5t40 264t109 211.5t160 152t194.5 95t211.5 31.5q243 0 411.5 -124.5t223.5 -336.5l-160 -55q-41 172 -165 265t-310 93
q-84 0 -162.5 -24t-148 -73t-121 -119t-81.5 -167.5t-30 -212.5t30 -213.5t81.5 -168t121 -119t148 -73.5t162.5 -24q186 0 313 101t173 264l151 -56q-59 -211 -226 -339t-411 -128z" />
    <glyph glyph-name="ccaron" unicode="&#x10d;" horiz-adv-x="1089" 
d="M403 1391l162 -187l162 187h152l-215 -283h-195l-217 283h151zM578 862q-135 0 -228.5 -99t-93.5 -271q0 -171 94 -272t230 -101q65 0 118 21t87 56t55 70.5t32 73.5l144 -64q-20 -58 -54.5 -109.5t-86.5 -97t-128.5 -72t-166.5 -26.5q-212 0 -350 147.5t-138 373.5
q0 227 138.5 372.5t347.5 145.5q92 0 168 -26t127 -71t84 -98t51 -115l-148 -63q-11 42 -31.5 79.5t-53 71.5t-83.5 54t-114 20z" />
    <glyph glyph-name="Dcaron" unicode="&#x10e;" horiz-adv-x="1476" 
d="M1073 1798l-229 -244h-226l-229 244h160l182 -151l182 151h160zM678 152q108 0 201.5 36.5t165.5 105.5t113.5 179.5t41.5 249.5q0 140 -40.5 251t-111.5 181.5t-164.5 107.5t-201.5 37h-309v-1148h305zM201 0v1452h481q111 0 213 -30t189 -90.5t151 -146.5t100.5 -204.5
t36.5 -257.5q0 -173 -56.5 -312.5t-152.5 -228t-220.5 -135.5t-264.5 -47h-477z" />
    <glyph glyph-name="dcaron" unicode="&#x10f;" horiz-adv-x="1189" 
d="M1243 1116h-121l64 365h182zM870 168q-36 -81 -120 -139t-201 -58q-207 0 -331 148.5t-124 372.5q0 142 56.5 260t161 188t237.5 70q128 0 207.5 -56.5t109.5 -130.5v658h164v-1297q0 -146 10 -184h-159q-11 42 -11 141v27zM563 119q137 0 222 104t85 269
q0 164 -83.5 267t-223.5 103q-138 0 -221.5 -103t-83.5 -267q0 -166 83.5 -269.5t221.5 -103.5z" />
    <glyph glyph-name="Dcroat" unicode="&#x110;" horiz-adv-x="1480" 
d="M205 0v641h-137v133h137v678h481q111 0 213 -30t189 -90.5t151 -146.5t100.5 -204.5t36.5 -257.5q0 -173 -56.5 -312.5t-152.5 -228t-220.5 -135.5t-264.5 -47h-477zM682 152q108 0 201.5 36.5t165.5 105.5t113.5 179.5t41.5 249.5q0 140 -40.5 251t-111.5 181.5
t-164.5 107.5t-201.5 37h-309v-526h287v-133h-287v-489h305z" />
    <glyph glyph-name="dslash" unicode="&#x111;" horiz-adv-x="1189" 
d="M870 168q-36 -81 -120 -139t-201 -58q-207 0 -331 148.5t-124 372.5q0 142 56.5 260t161 188t237.5 70q128 0 207.5 -56.5t109.5 -130.5v328h-288v127h288v203h164v-203h160v-127h-160v-967q0 -146 10 -184h-159q-11 42 -11 141v27zM563 119q137 0 222 104t85 269
q0 164 -83.5 267t-223.5 103q-138 0 -221.5 -103t-83.5 -267q0 -166 83.5 -269.5t221.5 -103.5z" />
    <glyph glyph-name="Emacron" unicode="&#x112;" horiz-adv-x="1183" 
d="M201 0v1452h870v-158h-698v-489h635v-158h-635v-489h698v-158h-870zM342 1610v143h582v-143h-582z" />
    <glyph glyph-name="emacron" unicode="&#x113;" horiz-adv-x="1107" 
d="M301 1184v143h543v-143h-543zM850 586q-5 123 -80 200.5t-211 77.5q-124 0 -205.5 -82t-89.5 -196h586zM1014 279q-44 -135 -158.5 -221.5t-277.5 -86.5q-99 0 -186.5 36t-154.5 101.5t-106 165.5t-39 220q0 114 38 211.5t101.5 163.5t148 103.5t177.5 37.5
q219 0 341 -138t122 -368q0 -30 -4 -58h-756v-8q0 -138 92 -228.5t226 -90.5q117 0 189.5 57.5t104.5 153.5z" />
    <glyph glyph-name="Ebreve" unicode="&#x114;" horiz-adv-x="1183" 
d="M641 1542q-139 0 -221 78t-90 186h141q5 -51 48 -91t122 -40q80 0 120.5 39t49.5 92h141q-8 -108 -90 -186t-221 -78zM201 0v1452h870v-158h-698v-489h635v-158h-635v-489h698v-158h-870z" />
    <glyph glyph-name="ebreve" unicode="&#x115;" horiz-adv-x="1107" 
d="M850 586q-5 123 -80 200.5t-211 77.5q-124 0 -205.5 -82t-89.5 -196h586zM1014 279q-44 -135 -158.5 -221.5t-277.5 -86.5q-99 0 -186.5 36t-154.5 101.5t-106 165.5t-39 220q0 114 38 211.5t101.5 163.5t148 103.5t177.5 37.5q219 0 341 -138t122 -368q0 -30 -4 -58
h-756v-8q0 -138 92 -228.5t226 -90.5q117 0 189.5 57.5t104.5 153.5zM571 1110q-138 0 -215 86t-77 205h127q5 -67 45 -111.5t120 -44.5t120.5 44.5t45.5 111.5h127q0 -119 -77.5 -205t-215.5 -86z" />
    <glyph glyph-name="Edotaccent" unicode="&#x116;" horiz-adv-x="1183" 
d="M639 1561q-48 0 -82.5 33.5t-34.5 82.5t34.5 83t82.5 34t82.5 -34t34.5 -83t-34.5 -82.5t-82.5 -33.5zM201 0v1452h870v-158h-698v-489h635v-158h-635v-489h698v-158h-870z" />
    <glyph glyph-name="edotaccent" unicode="&#x117;" horiz-adv-x="1107" 
d="M850 586q-5 123 -80 200.5t-211 77.5q-124 0 -205.5 -82t-89.5 -196h586zM1014 279q-44 -135 -158.5 -221.5t-277.5 -86.5q-99 0 -186.5 36t-154.5 101.5t-106 165.5t-39 220q0 114 38 211.5t101.5 163.5t148 103.5t177.5 37.5q219 0 341 -138t122 -368q0 -30 -4 -58
h-756v-8q0 -138 92 -228.5t226 -90.5q117 0 189.5 57.5t104.5 153.5zM461 1255q0 47 32.5 80t79.5 33t80 -33t33 -80t-33 -79.5t-80 -32.5t-79.5 32.5t-32.5 79.5z" />
    <glyph glyph-name="Eogonek" unicode="&#x118;" horiz-adv-x="1183" 
d="M760 -238q0 147 147 238h-706v1452h870v-158h-698v-489h635v-158h-635v-489h698v-158q-172 -88 -172 -207q0 -51 34.5 -77.5t82.5 -26.5q46 0 67 8v-119q-44 -14 -98 -14q-95 0 -160 53.5t-65 144.5z" />
    <glyph glyph-name="eogonek" unicode="&#x119;" horiz-adv-x="1107" 
d="M436 -238q0 124 109 211q-94 6 -175.5 44t-143.5 102.5t-98 161.5t-36 213q0 114 38 211.5t101.5 163.5t148 103.5t177.5 37.5q219 0 341 -138t122 -368q0 -30 -4 -58h-756v-8q0 -138 92 -228.5t226 -90.5q117 0 189.5 57.5t104.5 153.5l142 -51q-65 -194 -252 -273
q-73 -29 -130 -86t-57 -127q0 -51 34.5 -77.5t82.5 -26.5q47 0 68 8v-119q-44 -14 -98 -14q-95 0 -160.5 53.5t-65.5 144.5zM850 586q-5 123 -80 200.5t-211 77.5q-124 0 -205.5 -82t-89.5 -196h586z" />
    <glyph glyph-name="Ecaron" unicode="&#x11a;" horiz-adv-x="1183" 
d="M993 1798l-229 -244h-225l-230 244h160l182 -151l183 151h159zM201 0v1452h870v-158h-698v-489h635v-158h-635v-489h698v-158h-870z" />
    <glyph glyph-name="ecaron" unicode="&#x11b;" horiz-adv-x="1107" 
d="M410 1391l161 -187l162 187h152l-215 -283h-195l-217 283h152zM850 586q-5 123 -80 200.5t-211 77.5q-124 0 -205.5 -82t-89.5 -196h586zM1014 279q-44 -135 -158.5 -221.5t-277.5 -86.5q-99 0 -186.5 36t-154.5 101.5t-106 165.5t-39 220q0 114 38 211.5t101.5 163.5
t148 103.5t177.5 37.5q219 0 341 -138t122 -368q0 -30 -4 -58h-756v-8q0 -138 92 -228.5t226 -90.5q117 0 189.5 57.5t104.5 153.5z" />
    <glyph glyph-name="Gcircumflex" unicode="&#x11c;" horiz-adv-x="1579" 
d="M475 1554l230 244h225l229 -244h-160l-182 152l-182 -152h-160zM1307 0l-17 236q-24 -48 -64.5 -93t-100 -84.5t-144.5 -63.5t-182 -24q-107 0 -208 31t-189.5 94t-155 151.5t-104.5 212.5t-38 267q0 142 39.5 265.5t108 212t159.5 151.5t193.5 94t210.5 31
q231 0 404 -120t235 -317l-156 -67q-51 165 -177 255.5t-306 90.5q-83 0 -160.5 -23t-146.5 -72t-120.5 -118.5t-81.5 -168t-30 -214.5q0 -145 44.5 -261.5t119.5 -188.5t168.5 -110t196.5 -38q99 0 181 27.5t134.5 71t89 100t52.5 111t18 106.5h-518v157h684v-702h-139z
" />
    <glyph glyph-name="gcircumflex" unicode="&#x11d;" horiz-adv-x="1171" 
d="M258 1108l217 283h195l215 -283h-152l-162 186l-161 -186h-152zM250 -16q12 -112 89 -183t196 -71q313 0 313 338v157q-39 -79 -118 -130.5t-193 -51.5q-193 0 -318 137.5t-125 343.5q0 208 125 347t322 139q112 0 191 -46t118 -122v139h162v-907q0 -76 -14 -143.5
t-48 -133t-87 -112t-137 -75t-191 -28.5q-177 0 -301.5 103t-141.5 260zM856 526q0 153 -82 244.5t-217 91.5t-217 -91.5t-82 -244.5t82 -244.5t217 -91.5t217 91.5t82 244.5z" />
    <glyph glyph-name="Gbreve" unicode="&#x11e;" horiz-adv-x="1579" 
d="M803 1542q-139 0 -221 78t-90 186h141q5 -51 48 -91t122 -40q80 0 120.5 39t49.5 92h141q-8 -108 -90 -186t-221 -78zM1307 0l-17 236q-24 -48 -64.5 -93t-100 -84.5t-144.5 -63.5t-182 -24q-107 0 -208 31t-189.5 94t-155 151.5t-104.5 212.5t-38 267q0 142 39.5 265.5
t108 212t159.5 151.5t193.5 94t210.5 31q231 0 404 -120t235 -317l-156 -67q-51 165 -177 255.5t-306 90.5q-83 0 -160.5 -23t-146.5 -72t-120.5 -118.5t-81.5 -168t-30 -214.5q0 -145 44.5 -261.5t119.5 -188.5t168.5 -110t196.5 -38q99 0 181 27.5t134.5 71t89 100
t52.5 111t18 106.5h-518v157h684v-702h-139z" />
    <glyph glyph-name="gbreve" unicode="&#x11f;" horiz-adv-x="1171" 
d="M561 1110q-138 0 -215.5 86t-77.5 205h127q5 -67 45.5 -111.5t120.5 -44.5t120.5 44.5t45.5 111.5h127q0 -119 -77.5 -205t-215.5 -86zM250 -16q12 -112 89 -183t196 -71q313 0 313 338v157q-39 -79 -118 -130.5t-193 -51.5q-193 0 -318 137.5t-125 343.5q0 208 125 347
t322 139q112 0 191 -46t118 -122v139h162v-907q0 -76 -14 -143.5t-48 -133t-87 -112t-137 -75t-191 -28.5q-177 0 -301.5 103t-141.5 260zM856 526q0 153 -82 244.5t-217 91.5t-217 -91.5t-82 -244.5t82 -244.5t217 -91.5t217 91.5t82 244.5z" />
    <glyph glyph-name="Gdotaccent" unicode="&#x120;" horiz-adv-x="1579" 
d="M813 1561q-48 0 -82.5 33.5t-34.5 82.5t34.5 83t82.5 34t82.5 -34t34.5 -83t-34.5 -82.5t-82.5 -33.5zM1307 0l-17 236q-24 -48 -64.5 -93t-100 -84.5t-144.5 -63.5t-182 -24q-107 0 -208 31t-189.5 94t-155 151.5t-104.5 212.5t-38 267q0 142 39.5 265.5t108 212
t159.5 151.5t193.5 94t210.5 31q231 0 404 -120t235 -317l-156 -67q-51 165 -177 255.5t-306 90.5q-83 0 -160.5 -23t-146.5 -72t-120.5 -118.5t-81.5 -168t-30 -214.5q0 -145 44.5 -261.5t119.5 -188.5t168.5 -110t196.5 -38q99 0 181 27.5t134.5 71t89 100t52.5 111
t18 106.5h-518v157h684v-702h-139z" />
    <glyph glyph-name="gdotaccent" unicode="&#x121;" horiz-adv-x="1171" 
d="M451 1255q0 47 32.5 80t79.5 33t80 -33t33 -80t-33 -79.5t-80 -32.5t-79.5 32.5t-32.5 79.5zM250 -16q12 -112 89 -183t196 -71q313 0 313 338v157q-39 -79 -118 -130.5t-193 -51.5q-193 0 -318 137.5t-125 343.5q0 208 125 347t322 139q112 0 191 -46t118 -122v139h162
v-907q0 -76 -14 -143.5t-48 -133t-87 -112t-137 -75t-191 -28.5q-177 0 -301.5 103t-141.5 260zM856 526q0 153 -82 244.5t-217 91.5t-217 -91.5t-82 -244.5t82 -244.5t217 -91.5t217 91.5t82 244.5z" />
    <glyph glyph-name="Gcommaaccent" unicode="&#x122;" horiz-adv-x="1579" 
d="M715 -178q0 45 32.5 71.5t77.5 26.5q48 0 84.5 -34t36.5 -103q0 -107 -65 -164.5t-154 -62.5v75q51 1 89 33.5t40 73.5q-15 -12 -43 -12q-44 0 -71 25t-27 71zM1307 0l-17 236q-24 -48 -64.5 -93t-100 -84.5t-144.5 -63.5t-182 -24q-107 0 -208 31t-189.5 94t-155 151.5
t-104.5 212.5t-38 267q0 142 39.5 265.5t108 212t159.5 151.5t193.5 94t210.5 31q231 0 404 -120t235 -317l-156 -67q-51 165 -177 255.5t-306 90.5q-83 0 -160.5 -23t-146.5 -72t-120.5 -118.5t-81.5 -168t-30 -214.5q0 -145 44.5 -261.5t119.5 -188.5t168.5 -110
t196.5 -38q99 0 181 27.5t134.5 71t89 100t52.5 111t18 106.5h-518v157h684v-702h-139z" />
    <glyph glyph-name="gcommaaccent" unicode="&#x123;" horiz-adv-x="1171" 
d="M668 1178q0 -45 -33 -72t-78 -27q-48 0 -84.5 34.5t-36.5 103.5q0 107 65 164.5t154 62.5v-76q-51 -1 -89 -33t-40 -73q15 12 43 12q44 0 71.5 -25t27.5 -71zM250 -16q12 -112 89 -183t196 -71q313 0 313 338v157q-39 -79 -118 -130.5t-193 -51.5q-193 0 -318 137.5
t-125 343.5q0 208 125 347t322 139q112 0 191 -46t118 -122v139h162v-907q0 -76 -14 -143.5t-48 -133t-87 -112t-137 -75t-191 -28.5q-177 0 -301.5 103t-141.5 260zM856 526q0 153 -82 244.5t-217 91.5t-217 -91.5t-82 -244.5t82 -244.5t217 -91.5t217 91.5t82 244.5z" />
    <glyph glyph-name="Hcircumflex" unicode="&#x124;" horiz-adv-x="1521" 
d="M418 1554l229 244h225l230 -244h-160l-182 152l-182 -152h-160zM1149 0v659h-776v-659h-172v1452h172v-635h776v635h172v-1452h-172z" />
    <glyph glyph-name="hcircumflex" unicode="&#x125;" horiz-adv-x="1124" 
d="M231 1569l230 243h225l229 -243h-159l-183 151l-182 -151h-160zM324 0h-164v1481h164v-631q47 77 126 118.5t177 41.5q170 0 260 -106.5t90 -274.5v-629h-164v604q0 115 -59 186.5t-185 71.5q-114 0 -179.5 -78.5t-65.5 -197.5v-586z" />
    <glyph glyph-name="Hbar" unicode="&#x126;" horiz-adv-x="1527" 
d="M1153 0v659h-778v-659h-172v1061h-146v131h146v260h172v-260h778v260h172v-260h148v-131h-148v-1061h-172zM1153 817v244h-778v-244h778z" />
    <glyph glyph-name="hbar" unicode="&#x127;" horiz-adv-x="1124" 
d="M324 0h-164v1151h-183v135h183v195h164v-195h256v-135h-256v-301q47 77 126 118.5t177 41.5q170 0 260 -106.5t90 -274.5v-629h-164v604q0 115 -59 186.5t-185 71.5q-114 0 -179.5 -78.5t-65.5 -197.5v-586z" />
    <glyph glyph-name="Itilde" unicode="&#x128;" horiz-adv-x="573" 
d="M201 0v1452h172v-1452h-172zM578 1798q0 -111 -49 -167t-130 -56q-45 0 -85 25.5t-74.5 51t-65.5 25.5q-26 0 -41.5 -27t-15.5 -71h-121q0 112 49.5 166.5t130.5 54.5q45 0 85 -25t74.5 -50t65.5 -25q27 0 42.5 27t15.5 71h119z" />
    <glyph glyph-name="itilde" unicode="&#x129;" horiz-adv-x="483" 
d="M160 0v981h164v-981h-164zM532 1360q0 -111 -49 -167t-129 -56q-45 0 -85 25.5t-74.5 51t-65.5 25.5q-26 0 -41.5 -27t-15.5 -71h-121q0 112 49.5 166.5t130.5 54.5q45 0 85 -25t74.5 -50t65.5 -25q27 0 42.5 27t15.5 71h118z" />
    <glyph glyph-name="Imacron" unicode="&#x12a;" horiz-adv-x="573" 
d="M201 0v1452h172v-1452h-172zM0 1610v143h582v-143h-582z" />
    <glyph glyph-name="imacron" unicode="&#x12b;" horiz-adv-x="483" 
d="M160 0v981h164v-981h-164zM-27 1184v143h543v-143h-543z" />
    <glyph glyph-name="Ibreve" unicode="&#x12c;" horiz-adv-x="573" 
d="M201 0v1452h172v-1452h-172zM291 1542q-139 0 -221 78t-90 186h141q5 -51 48 -91t122 -40q80 0 120.5 39t49.5 92h141q-8 -108 -90 -186t-221 -78z" />
    <glyph glyph-name="ibreve" unicode="&#x12d;" horiz-adv-x="483" 
d="M160 0v981h164v-981h-164zM244 1110q-138 0 -215.5 86t-77.5 205h127q5 -67 45.5 -111.5t120.5 -44.5t120.5 44.5t45.5 111.5h127q0 -119 -77.5 -205t-215.5 -86z" />
    <glyph glyph-name="Iogonek" unicode="&#x12e;" horiz-adv-x="573" 
d="M61 -238q0 146 148 238h-8v1452h172v-1452q-172 -88 -172 -207q0 -51 34 -77.5t82 -26.5q47 0 68 8v-119q-44 -14 -98 -14q-95 0 -160.5 53.5t-65.5 144.5z" />
    <glyph glyph-name="iogonek" unicode="&#x12f;" horiz-adv-x="483" 
d="M12 -238q0 146 148 238v981h164v-981q-172 -88 -172 -207q0 -51 34 -77.5t82 -26.5q47 0 68 8v-119q-44 -14 -98 -14q-95 0 -160.5 53.5t-65.5 144.5zM119 1368q0 51 36 87t87 36t87 -36t36 -87t-36 -87t-87 -36t-87 36t-36 87z" />
    <glyph glyph-name="Idot" unicode="&#x130;" horiz-adv-x="573" 
d="M201 0v1452h172v-1452h-172zM285 1561q-48 0 -82.5 33.5t-34.5 82.5t34.5 83t82.5 34t82 -34t34 -83t-34 -82.5t-82 -33.5z" />
    <glyph glyph-name="dotlessi" unicode="&#x131;" horiz-adv-x="483" 
d="M160 0v981h164v-981h-164z" />
    <glyph glyph-name="IJ" unicode="&#x132;" horiz-adv-x="1239" 
d="M184 678v774h174v-774h-174zM184 522l172 39v-127q0 -150 71 -227.5t196 -77.5q122 0 190 78t68 215v1030h172v-1020q0 -198 -115.5 -329.5t-312.5 -131.5q-206 0 -323.5 124t-117.5 335v92z" />
    <glyph glyph-name="ij" unicode="&#x133;" horiz-adv-x="966" 
d="M160 0v981h164v-981h-164zM119 1368q0 51 36 87t87 36t87 -36t36 -87t-36 -87t-87 -36t-87 36t-36 87zM643 981h164v-1102q0 -136 -72 -216.5t-196 -80.5q-62 0 -111 17v143q24 -12 70 -12q77 0 111 38t34 117v1096zM602 1368q0 51 36 87t87 36t87 -36t36 -87t-36 -87
t-87 -36t-87 36t-36 87z" />
    <glyph glyph-name="Jcircumflex" unicode="&#x134;" horiz-adv-x="1116" 
d="M506 1554l229 244h226l229 -244h-160l-182 152l-182 -152h-160zM61 522l172 39v-127q0 -150 71 -227.5t196 -77.5q122 0 190 78t68 215v1030h172v-1020q0 -198 -115.5 -329.5t-312.5 -131.5q-206 0 -323.5 124t-117.5 335v92z" />
    <glyph glyph-name="jcircumflex" unicode="&#x135;" horiz-adv-x="483" 
d="M-68 1108l218 283h194l215 -283h-151l-162 186l-162 -186h-152zM160 981h164v-1102q0 -136 -72.5 -216.5t-196.5 -80.5q-61 0 -110 17v143q24 -12 69 -12q77 0 111.5 38t34.5 117v1096z" />
    <glyph glyph-name="Kcommaaccent" unicode="&#x136;" horiz-adv-x="1339" 
d="M598 682l-225 -240v-442h-172v1452h172v-782l714 782h228l-604 -645l612 -807h-215zM635 -178q0 45 32.5 71.5t77.5 26.5q48 0 84.5 -34t36.5 -103q0 -107 -65 -164.5t-154 -62.5v75q51 1 89 33.5t40 73.5q-15 -12 -43 -12q-44 0 -71 25t-27 71z" />
    <glyph glyph-name="kcommaaccent" unicode="&#x137;" horiz-adv-x="1048" 
d="M590 565l428 -565h-207l-336 453l-151 -156v-297h-164v1481h164v-967l458 467h226zM475 -178q0 45 33 71.5t78 26.5q48 0 84.5 -34t36.5 -103q0 -107 -65 -164.5t-155 -62.5v75q51 1 89 33.5t40 73.5q-15 -12 -43 -12q-44 0 -71 25t-27 71z" />
    <glyph glyph-name="kgreenlandic" unicode="&#x138;" horiz-adv-x="1048" 
d="M590 565l428 -565h-207l-336 453l-151 -156v-297h-164v981h164v-467l458 467h226z" />
    <glyph glyph-name="Lacute" unicode="&#x139;" horiz-adv-x="1118" 
d="M371 1554h-162l213 244h227zM201 0v1452h172v-1294h704v-158h-876z" />
    <glyph glyph-name="lacute" unicode="&#x13a;" horiz-adv-x="483" 
d="M324 1569h-162l213 243h227zM160 0v1481h164v-1481h-164z" />
    <glyph glyph-name="Lcommaaccent" unicode="&#x13b;" horiz-adv-x="1118" 
d="M555 -178q0 45 33 71.5t78 26.5q48 0 84 -34t36 -103q0 -107 -65 -164.5t-154 -62.5v75q51 1 89 33.5t40 73.5q-15 -12 -43 -12q-44 0 -71 25t-27 71zM201 0v1452h172v-1294h704v-158h-876z" />
    <glyph glyph-name="lcommaaccent" unicode="&#x13c;" horiz-adv-x="483" 
d="M129 -178q0 45 33 71.5t78 26.5q48 0 84 -34t36 -103q0 -107 -65 -164.5t-154 -62.5v75q51 1 89 33.5t40 73.5q-15 -12 -43 -12q-44 0 -71 25t-27 71zM160 0v1481h164v-1481h-164z" />
    <glyph glyph-name="Lcaron" unicode="&#x13d;" horiz-adv-x="1118" 
d="M721 1169h-127l68 385h192zM201 0v1452h172v-1294h704v-158h-876z" />
    <glyph glyph-name="lcaron" unicode="&#x13e;" horiz-adv-x="483" 
d="M524 1116h-121l64 365h182zM160 0v1481h164v-1481h-164z" />
    <glyph glyph-name="Ldot" unicode="&#x13f;" horiz-adv-x="1118" 
d="M748 651q-48 0 -82.5 34t-34.5 83t34.5 83t82.5 34t82 -34t34 -83t-34 -83t-82 -34zM201 0v1452h172v-1294h704v-158h-876z" />
    <glyph glyph-name="ldot" unicode="&#x140;" horiz-adv-x="647" 
d="M160 0v1481h164v-1481h-164zM442 653q0 47 33 80t80 33t80 -33t33 -80t-33 -79.5t-80 -32.5t-80 32.5t-33 79.5z" />
    <glyph glyph-name="Lslash" unicode="&#x141;" horiz-adv-x="1146" 
d="M231 0v604l-200 -88v152l200 88v696h170v-621l328 146v-154l-328 -145v-518h707v-160h-877z" />
    <glyph glyph-name="lslash" unicode="&#x142;" horiz-adv-x="659" 
d="M240 0v575l-189 -81v151l189 82v754h163v-680l203 90v-152l-203 -90v-649h-163z" />
    <glyph glyph-name="Nacute" unicode="&#x143;" horiz-adv-x="1576" 
d="M809 1554h-162l213 244h227zM1196 0l-823 1229v-1229h-172v1452h225l778 -1163v1163h172v-1452h-180z" />
    <glyph glyph-name="nacute" unicode="&#x144;" horiz-adv-x="1124" 
d="M592 1108h-135l178 293h209zM324 0h-164v981h159v-147q47 85 127.5 130.5t180.5 45.5q170 0 260 -106.5t90 -274.5v-629h-164v604q0 115 -59 186.5t-185 71.5q-114 0 -179.5 -81t-65.5 -203v-578z" />
    <glyph glyph-name="Ncommaaccent" unicode="&#x145;" horiz-adv-x="1576" 
d="M715 -178q0 45 32.5 71.5t77.5 26.5q48 0 84.5 -34t36.5 -103q0 -107 -65 -164.5t-154 -62.5v75q51 1 89 33.5t40 73.5q-15 -12 -43 -12q-44 0 -71 25t-27 71zM1196 0l-823 1229v-1229h-172v1452h225l778 -1163v1163h172v-1452h-180z" />
    <glyph glyph-name="ncommaaccent" unicode="&#x146;" horiz-adv-x="1124" 
d="M481 -178q0 45 33 71.5t78 26.5q48 0 84.5 -34t36.5 -103q0 -107 -65 -164.5t-154 -62.5v75q51 1 89 33.5t40 73.5q-15 -12 -43 -12q-44 0 -71.5 25t-27.5 71zM324 0h-164v981h159v-147q47 85 127.5 130.5t180.5 45.5q170 0 260 -106.5t90 -274.5v-629h-164v604
q0 115 -59 186.5t-185 71.5q-114 0 -179.5 -81t-65.5 -203v-578z" />
    <glyph glyph-name="Ncaron" unicode="&#x147;" horiz-adv-x="1576" 
d="M1135 1798l-230 -244h-225l-229 244h159l183 -151l182 151h160zM1196 0l-823 1229v-1229h-172v1452h225l778 -1163v1163h172v-1452h-180z" />
    <glyph glyph-name="ncaron" unicode="&#x148;" horiz-adv-x="1124" 
d="M379 1391l162 -187l161 187h152l-215 -283h-195l-217 283h152zM324 0h-164v981h159v-147q47 85 127.5 130.5t180.5 45.5q170 0 260 -106.5t90 -274.5v-629h-164v604q0 115 -59 186.5t-185 71.5q-114 0 -179.5 -81t-65.5 -203v-578z" />
    <glyph glyph-name="napostrophe" unicode="&#x149;" horiz-adv-x="1124" 
d="M135 1346q0 45 33 71.5t78 26.5q48 0 84.5 -34t36.5 -103q0 -107 -65.5 -165t-154.5 -63v76q51 1 89 33.5t40 73.5q-16 -13 -43 -13q-44 0 -71 25.5t-27 71.5zM324 0h-164v981h159v-147q47 85 127.5 130.5t180.5 45.5q170 0 260 -106.5t90 -274.5v-629h-164v604
q0 115 -59 186.5t-185 71.5q-114 0 -179.5 -81t-65.5 -203v-578z" />
    <glyph glyph-name="Eng" unicode="&#x14a;" horiz-adv-x="1576" 
d="M1075 -256q71 0 100 35t29 106v103l-831 1241v-1229h-172v1452h225l778 -1163v1163h172v-1571q0 -127 -69 -205.5t-189 -78.5q-77 0 -114 16v137q16 -6 71 -6z" />
    <glyph glyph-name="eng" unicode="&#x14b;" horiz-adv-x="1124" 
d="M324 0h-164v981h159v-147q47 85 127.5 130.5t180.5 45.5q170 0 260 -106.5t90 -274.5v-750q0 -136 -72 -216.5t-196 -80.5q-62 0 -111 17v143q24 -12 70 -12q77 0 111 38t34 117v719q0 115 -59 186.5t-185 71.5q-114 0 -179.5 -81t-65.5 -203v-578z" />
    <glyph glyph-name="Omacron" unicode="&#x14c;" horiz-adv-x="1642" 
d="M274 727q0 -143 45.5 -259t123 -189t174.5 -111.5t204 -38.5q108 0 205 38.5t174 111.5t122.5 189t45.5 259t-45.5 258.5t-122.5 188t-174 111t-205 38.5q-85 0 -164.5 -24t-149.5 -73t-121.5 -119t-81.5 -167.5t-30 -212.5zM102 727q0 176 61.5 321.5t163.5 238.5
t229.5 143.5t264.5 50.5q109 0 213.5 -31.5t196 -95t160.5 -152t109 -211.5t40 -264t-40 -263.5t-109 -211.5t-160.5 -153.5t-196 -96t-213.5 -31.5t-213 31.5t-195.5 96t-161 153.5t-109.5 211.5t-40 263.5zM530 1610v143h582v-143h-582z" />
    <glyph glyph-name="omacron" unicode="&#x14d;" horiz-adv-x="1167" 
d="M315 1184v143h543v-143h-543zM584 1010q214 0 352.5 -146t138.5 -372q0 -227 -138.5 -374t-352.5 -147t-353 147t-139 374q0 226 139 372t353 146zM584 862q-137 0 -232.5 -99.5t-95.5 -270.5q0 -173 95.5 -273t232.5 -100t232 100t95 273q0 171 -95 270.5t-232 99.5z
" />
    <glyph glyph-name="Obreve" unicode="&#x14e;" horiz-adv-x="1642" 
d="M836 1542q-139 0 -221.5 78t-90.5 186h142q5 -51 48 -91t122 -40q80 0 120.5 39t49.5 92h141q-8 -108 -90 -186t-221 -78zM274 727q0 -143 45.5 -259t123 -189t174.5 -111.5t204 -38.5q108 0 205 38.5t174 111.5t122.5 189t45.5 259t-45.5 258.5t-122.5 188t-174 111
t-205 38.5q-85 0 -164.5 -24t-149.5 -73t-121.5 -119t-81.5 -167.5t-30 -212.5zM102 727q0 176 61.5 321.5t163.5 238.5t229.5 143.5t264.5 50.5q109 0 213.5 -31.5t196 -95t160.5 -152t109 -211.5t40 -264t-40 -263.5t-109 -211.5t-160.5 -153.5t-196 -96t-213.5 -31.5
t-213 31.5t-195.5 96t-161 153.5t-109.5 211.5t-40 263.5z" />
    <glyph glyph-name="obreve" unicode="&#x14f;" horiz-adv-x="1167" 
d="M584 1010q214 0 352.5 -146t138.5 -372q0 -227 -138.5 -374t-352.5 -147t-353 147t-139 374q0 226 139 372t353 146zM584 862q-137 0 -232.5 -99.5t-95.5 -270.5q0 -173 95.5 -273t232.5 -100t232 100t95 273q0 171 -95 270.5t-232 99.5zM584 1110q-138 0 -215.5 86
t-77.5 205h127q5 -67 45.5 -111.5t120.5 -44.5t120.5 44.5t45.5 111.5h127q0 -119 -77.5 -205t-215.5 -86z" />
    <glyph glyph-name="Ohungarumlaut" unicode="&#x150;" horiz-adv-x="1642" 
d="M729 1554h-121l127 244h185zM995 1554h-121l150 244h182zM274 727q0 -143 45.5 -259t123 -189t174.5 -111.5t204 -38.5q108 0 205 38.5t174 111.5t122.5 189t45.5 259t-45.5 258.5t-122.5 188t-174 111t-205 38.5q-85 0 -164.5 -24t-149.5 -73t-121.5 -119t-81.5 -167.5
t-30 -212.5zM102 727q0 176 61.5 321.5t163.5 238.5t229.5 143.5t264.5 50.5q109 0 213.5 -31.5t196 -95t160.5 -152t109 -211.5t40 -264t-40 -263.5t-109 -211.5t-160.5 -153.5t-196 -96t-213.5 -31.5t-213 31.5t-195.5 96t-161 153.5t-109.5 211.5t-40 263.5z" />
    <glyph glyph-name="ohungarumlaut" unicode="&#x151;" horiz-adv-x="1167" 
d="M584 1010q214 0 352.5 -146t138.5 -372q0 -227 -138.5 -374t-352.5 -147t-353 147t-139 374q0 226 139 372t353 146zM584 862q-137 0 -232.5 -99.5t-95.5 -270.5q0 -173 95.5 -273t232.5 -100t232 100t95 273q0 171 -95 270.5t-232 99.5zM756 1108h-115l135 293h185z
M508 1108h-115l127 293h185z" />
    <glyph glyph-name="OE" unicode="&#x152;" horiz-adv-x="2351" 
d="M102 727q0 176 61.5 321.5t163.5 238.5t229.5 143.5t264.5 50.5q159 0 302.5 -66t244.5 -196v233h870v-158h-698v-489h635v-158h-635v-489h698v-158h-870v233q-101 -130 -244.5 -196t-302.5 -66q-109 0 -213 31.5t-195.5 96t-161 153.5t-109.5 211.5t-40 263.5zM274 727
q0 -143 45.5 -259t123 -189t174.5 -111.5t204 -38.5q108 0 205 38.5t174 111.5t122.5 189t45.5 259t-45.5 258.5t-122.5 188t-174 111t-205 38.5q-85 0 -164.5 -24t-149.5 -73t-121.5 -119t-81.5 -167.5t-30 -212.5z" />
    <glyph glyph-name="oe" unicode="&#x153;" horiz-adv-x="1927" 
d="M584 1010q130 0 235.5 -59.5t171.5 -170.5q66 110 167 170t218 60q219 0 341 -138t122 -368q0 -30 -4 -58h-756v-8q0 -138 92 -228.5t226 -90.5q117 0 190 58t105 153l141 -51q-44 -135 -158.5 -221.5t-277.5 -86.5q-129 0 -235 58.5t-171 169.5q-66 -110 -171 -169
t-236 -59q-214 0 -353 147t-139 374q0 226 139 372t353 146zM584 862q-137 0 -232.5 -99.5t-95.5 -270.5q0 -173 95.5 -273t232.5 -100t232 100t95 273q0 171 -95 270.5t-232 99.5zM1669 586q-5 123 -80 200.5t-211 77.5q-124 0 -205.5 -82t-89.5 -196h586z" />
    <glyph glyph-name="Racute" unicode="&#x154;" horiz-adv-x="1273" 
d="M674 1554h-162l213 244h227zM625 608h-252v-608h-172v1452h528q197 0 317.5 -121t120.5 -303q0 -161 -94.5 -271t-259.5 -136l352 -621h-200zM702 762q134 0 213.5 71.5t79.5 194.5t-80 196.5t-213 73.5h-329v-536h329z" />
    <glyph glyph-name="racute" unicode="&#x155;" horiz-adv-x="720" 
d="M430 1108h-135l178 293h209zM686 813q-34 10 -86 10q-129 0 -202.5 -77.5t-73.5 -237.5v-508h-164v981h159v-176q46 100 126 145t171 45q51 0 70 -8v-174z" />
    <glyph glyph-name="Rcommaaccent" unicode="&#x156;" horiz-adv-x="1273" 
d="M625 608h-252v-608h-172v1452h528q197 0 317.5 -121t120.5 -303q0 -161 -94.5 -271t-259.5 -136l352 -621h-200zM702 762q134 0 213.5 71.5t79.5 194.5t-80 196.5t-213 73.5h-329v-536h329zM588 -178q0 45 32.5 71.5t77.5 26.5q48 0 84.5 -34t36.5 -103
q0 -107 -65 -164.5t-154 -62.5v75q51 1 89 33.5t40 73.5q-15 -12 -43 -12q-44 0 -71 25t-27 71z" />
    <glyph glyph-name="rcommaaccent" unicode="&#x157;" horiz-adv-x="720" 
d="M686 813q-34 10 -86 10q-129 0 -202.5 -77.5t-73.5 -237.5v-508h-164v981h159v-176q46 100 126 145t171 45q51 0 70 -8v-174zM133 -178q0 45 33 71.5t78 26.5q48 0 84.5 -34t36.5 -103q0 -107 -65 -164.5t-155 -62.5v75q51 1 89 33.5t40 73.5q-15 -12 -43 -12
q-44 0 -71 25t-27 71z" />
    <glyph glyph-name="Rcaron" unicode="&#x158;" horiz-adv-x="1273" 
d="M971 1798l-230 -244h-225l-229 244h159l183 -151l182 151h160zM625 608h-252v-608h-172v1452h528q197 0 317.5 -121t120.5 -303q0 -161 -94.5 -271t-259.5 -136l352 -621h-200zM702 762q134 0 213.5 71.5t79.5 194.5t-80 196.5t-213 73.5h-329v-536h329z" />
    <glyph glyph-name="rcaron" unicode="&#x159;" horiz-adv-x="720" 
d="M254 1391l162 -187l162 187h151l-215 -283h-195l-217 283h152zM686 813q-34 10 -86 10q-129 0 -202.5 -77.5t-73.5 -237.5v-508h-164v981h159v-176q46 100 126 145t171 45q51 0 70 -8v-174z" />
    <glyph glyph-name="Sacute" unicode="&#x15a;" horiz-adv-x="1206" 
d="M674 1554h-162l213 244h227zM938 1067q-9 49 -32 93t-61.5 82.5t-99 61.5t-135.5 23q-127 0 -214 -74t-87 -184q0 -87 54.5 -146.5t154.5 -82.5l213 -47q177 -38 275 -143.5t98 -258.5q0 -173 -137 -296.5t-357 -123.5q-121 0 -220 37t-162.5 99.5t-101.5 137.5t-48 158
l162 52q13 -138 110 -233t260 -95q153 0 237.5 70.5t84.5 179.5q0 92 -60 156t-176 90l-213 47q-158 33 -252 133.5t-94 255.5q0 112 62.5 209t171.5 155t237 58q90 0 166.5 -21.5t129 -56.5t92 -82.5t62 -96.5t34.5 -102z" />
    <glyph glyph-name="sacute" unicode="&#x15b;" horiz-adv-x="917" 
d="M512 1108h-135l178 293h209zM227 309q11 -89 75 -143.5t171 -54.5q86 0 138.5 42.5t52.5 106.5q0 105 -150 143l-160 37q-114 27 -178.5 98t-64.5 175q0 123 101 210t241 87q73 0 133 -18t98.5 -45t67.5 -64t43 -69t22 -66l-145 -54q-4 28 -17.5 56t-37.5 56.5t-67 46
t-97 17.5q-78 0 -130.5 -42.5t-52.5 -104.5q0 -103 129 -133l160 -37q129 -29 197.5 -102t68.5 -183q0 -54 -23 -106t-66 -95t-112 -69.5t-153 -26.5q-92 0 -167 27t-120.5 71t-71.5 92t-32 97z" />
    <glyph glyph-name="Scircumflex" unicode="&#x15c;" horiz-adv-x="1206" 
d="M297 1554l229 244h226l229 -244h-160l-182 152l-182 -152h-160zM938 1067q-9 49 -32 93t-61.5 82.5t-99 61.5t-135.5 23q-127 0 -214 -74t-87 -184q0 -87 54.5 -146.5t154.5 -82.5l213 -47q177 -38 275 -143.5t98 -258.5q0 -173 -137 -296.5t-357 -123.5q-121 0 -220 37
t-162.5 99.5t-101.5 137.5t-48 158l162 52q13 -138 110 -233t260 -95q153 0 237.5 70.5t84.5 179.5q0 92 -60 156t-176 90l-213 47q-158 33 -252 133.5t-94 255.5q0 112 62.5 209t171.5 155t237 58q90 0 166.5 -21.5t129 -56.5t92 -82.5t62 -96.5t34.5 -102z" />
    <glyph glyph-name="scircumflex" unicode="&#x15d;" horiz-adv-x="917" 
d="M164 1108l217 283h194l216 -283h-152l-162 186l-162 -186h-151zM227 309q11 -89 75 -143.5t171 -54.5q86 0 138.5 42.5t52.5 106.5q0 105 -150 143l-160 37q-114 27 -178.5 98t-64.5 175q0 123 101 210t241 87q73 0 133 -18t98.5 -45t67.5 -64t43 -69t22 -66l-145 -54
q-4 28 -17.5 56t-37.5 56.5t-67 46t-97 17.5q-78 0 -130.5 -42.5t-52.5 -104.5q0 -103 129 -133l160 -37q129 -29 197.5 -102t68.5 -183q0 -54 -23 -106t-66 -95t-112 -69.5t-153 -26.5q-92 0 -167 27t-120.5 71t-71.5 92t-32 97z" />
    <glyph glyph-name="Scedilla" unicode="&#x15e;" horiz-adv-x="1206" 
d="M498 -131l65 104q-110 8 -200.5 48t-148.5 100t-92.5 132t-43.5 150l162 52q13 -138 110 -233t260 -95q153 0 237.5 70.5t84.5 179.5q0 92 -60 156t-176 90l-213 47q-158 33 -252 133.5t-94 255.5q0 112 62.5 209t171.5 155t237 58q90 0 166.5 -21.5t129 -56.5t92 -82.5
t62 -96.5t34.5 -102l-154 -55q-9 49 -32 93t-61.5 82.5t-99 61.5t-135.5 23q-127 0 -214 -74t-87 -184q0 -87 54.5 -146.5t154.5 -82.5l213 -47q177 -38 275 -143.5t98 -258.5q0 -157 -114.5 -275.5t-301.5 -138.5l-53 -81q9 4 31 4q82 0 133 -45t51 -117
q0 -77 -60.5 -127.5t-173.5 -50.5q-70 0 -130 27.5t-93 68.5l68 80q74 -74 155 -74q47 0 78 19.5t31 56.5q0 33 -27 53.5t-75 20.5q-33 0 -66 -13z" />
    <glyph glyph-name="scedilla" unicode="&#x15f;" horiz-adv-x="917" 
d="M344 -131l66 106q-78 8 -140.5 37.5t-100.5 71t-60.5 85.5t-28.5 89l147 51q11 -89 75 -143.5t171 -54.5q86 0 138.5 42.5t52.5 106.5q0 105 -150 143l-160 37q-114 27 -178.5 98t-64.5 175q0 123 101 210t241 87q73 0 133 -18t98.5 -45t67.5 -64t43 -69t22 -66l-145 -54
q-4 28 -17.5 56t-37.5 56.5t-67 46t-97 17.5q-78 0 -130.5 -42.5t-52.5 -104.5q0 -103 129 -133l160 -37q129 -29 197.5 -102t68.5 -183q0 -66 -32 -127t-99.5 -108t-158.5 -58l-54 -79q9 4 31 4q82 0 133 -45t51 -117q0 -77 -60 -127.5t-173 -50.5q-70 0 -130 27.5
t-93 68.5l67 80q74 -74 156 -74q47 0 77.5 19.5t30.5 56.5q0 33 -27 53.5t-75 20.5q-33 0 -66 -13z" />
    <glyph glyph-name="Scaron" unicode="&#x160;" horiz-adv-x="1206" 
d="M958 1798l-229 -244h-225l-230 244h160l182 -151l183 151h159zM938 1067q-9 49 -32 93t-61.5 82.5t-99 61.5t-135.5 23q-127 0 -214 -74t-87 -184q0 -87 54.5 -146.5t154.5 -82.5l213 -47q177 -38 275 -143.5t98 -258.5q0 -173 -137 -296.5t-357 -123.5q-121 0 -220 37
t-162.5 99.5t-101.5 137.5t-48 158l162 52q13 -138 110 -233t260 -95q153 0 237.5 70.5t84.5 179.5q0 92 -60 156t-176 90l-213 47q-158 33 -252 133.5t-94 255.5q0 112 62.5 209t171.5 155t237 58q90 0 166.5 -21.5t129 -56.5t92 -82.5t62 -96.5t34.5 -102z" />
    <glyph glyph-name="scaron" unicode="&#x161;" horiz-adv-x="917" 
d="M301 1391l162 -187l162 187h151l-215 -283h-194l-217 283h151zM227 309q11 -89 75 -143.5t171 -54.5q86 0 138.5 42.5t52.5 106.5q0 105 -150 143l-160 37q-114 27 -178.5 98t-64.5 175q0 123 101 210t241 87q73 0 133 -18t98.5 -45t67.5 -64t43 -69t22 -66l-145 -54
q-4 28 -17.5 56t-37.5 56.5t-67 46t-97 17.5q-78 0 -130.5 -42.5t-52.5 -104.5q0 -103 129 -133l160 -37q129 -29 197.5 -102t68.5 -183q0 -54 -23 -106t-66 -95t-112 -69.5t-153 -26.5q-92 0 -167 27t-120.5 71t-71.5 92t-32 97z" />
    <glyph glyph-name="Tcommaaccent" unicode="&#x162;" horiz-adv-x="1243" 
d="M707 1294v-1294h-17l-69 -104q9 4 30 4q82 0 133.5 -45t51.5 -117q0 -77 -60.5 -127.5t-173.5 -50.5q-70 0 -130 27.5t-93 68.5l67 80q74 -74 156 -74q47 0 78 19.5t31 56.5q0 33 -27.5 53.5t-75.5 20.5q-32 0 -65 -13l-60 70l82 131h-28v1294h-498v158h1165v-158h-497z
" />
    <glyph glyph-name="tcommaaccent" unicode="&#x163;" horiz-adv-x="694" 
d="M289 -131l90 143q-146 62 -146 256v566h-196v147h63q144 0 144 149v162h153v-311h232v-147h-232v-543q0 -79 36.5 -116.5t113.5 -37.5q55 0 82 10v-139q-54 -18 -129 -18h-13l-61 -94q9 4 31 4q82 0 133 -45t51 -117q0 -77 -60 -127.5t-173 -50.5q-70 0 -130.5 27.5
t-93.5 68.5l68 80q74 -74 156 -74q47 0 77.5 19.5t30.5 56.5q0 33 -27 53.5t-75 20.5q-34 0 -66 -13z" />
    <glyph glyph-name="Tcaron" unicode="&#x164;" horiz-adv-x="1243" 
d="M963 1798l-230 -244h-225l-229 244h159l183 -151l182 151h160zM707 1294v-1294h-170v1294h-498v158h1165v-158h-497z" />
    <glyph glyph-name="tcaron" unicode="&#x165;" horiz-adv-x="694" 
d="M655 1149h-120l63 364h182zM397 981h232v-147h-232v-543q0 -79 36.5 -116.5t113.5 -37.5q55 0 82 10v-139q-54 -18 -129 -18q-125 0 -196 72.5t-71 205.5v566h-196v147h63q144 0 144 149v162h153v-311z" />
    <glyph glyph-name="Tbar" unicode="&#x166;" horiz-adv-x="1243" 
d="M707 1294v-534h239v-142h-239v-618h-170v618h-238v142h238v534h-498v158h1165v-158h-497z" />
    <glyph glyph-name="tbar" unicode="&#x167;" horiz-adv-x="694" 
d="M397 434v-143q0 -79 36.5 -116.5t113.5 -37.5q55 0 82 10v-139q-54 -18 -129 -18q-125 0 -196 72.5t-71 205.5v166h-196v148h196v252h-196v147h63q144 0 144 149v162h153v-311h232v-147h-232v-252h232v-148h-232z" />
    <glyph glyph-name="Utilde" unicode="&#x168;" horiz-adv-x="1396" 
d="M698 -29q-228 0 -371 137t-143 384v960h172v-956q0 -177 88 -272t254 -95t254 95t88 272v956h172v-960q0 -247 -143 -384t-371 -137zM993 1798q0 -111 -49 -167t-129 -56q-45 0 -85 25.5t-74.5 51t-65.5 25.5q-26 0 -42 -27t-16 -71h-120q0 112 49.5 166.5t130.5 54.5
q45 0 85 -25t74.5 -50t65.5 -25q27 0 42 27t15 71h119z" />
    <glyph glyph-name="utilde" unicode="&#x169;" horiz-adv-x="1126" 
d="M811 133q-35 -74 -115.5 -118t-179.5 -44q-173 0 -271 111.5t-98 282.5v616h164v-590q0 -116 60 -194t182 -78q120 0 185 74.5t65 195.5v592h164v-797q0 -106 12 -184h-158q-10 38 -10 125v8zM856 1360q0 -111 -49 -167t-129 -56q-45 0 -85 25.5t-74.5 51t-65.5 25.5
q-26 0 -42 -27t-16 -71h-121q0 112 50 166.5t131 54.5q45 0 85 -25t74.5 -50t65.5 -25q27 0 42 27t15 71h119z" />
    <glyph glyph-name="Umacron" unicode="&#x16a;" horiz-adv-x="1396" 
d="M698 -29q-228 0 -371 137t-143 384v960h172v-956q0 -177 88 -272t254 -95t254 95t88 272v956h172v-960q0 -247 -143 -384t-371 -137zM408 1610v143h581v-143h-581z" />
    <glyph glyph-name="umacron" unicode="&#x16b;" horiz-adv-x="1126" 
d="M287 1184v143h542v-143h-542zM811 133q-35 -74 -115.5 -118t-179.5 -44q-173 0 -271 111.5t-98 282.5v616h164v-590q0 -116 60 -194t182 -78q120 0 185 74.5t65 195.5v592h164v-797q0 -106 12 -184h-158q-10 38 -10 125v8z" />
    <glyph glyph-name="Ubreve" unicode="&#x16c;" horiz-adv-x="1396" 
d="M700 1542q-139 0 -221 78t-90 186h141q5 -51 48 -91t122 -40q80 0 120.5 39t49.5 92h142q-8 -108 -90.5 -186t-221.5 -78zM698 -29q-228 0 -371 137t-143 384v960h172v-956q0 -177 88 -272t254 -95t254 95t88 272v956h172v-960q0 -247 -143 -384t-371 -137z" />
    <glyph glyph-name="ubreve" unicode="&#x16d;" horiz-adv-x="1126" 
d="M811 133q-35 -74 -115.5 -118t-179.5 -44q-173 0 -271 111.5t-98 282.5v616h164v-590q0 -116 60 -194t182 -78q120 0 185 74.5t65 195.5v592h164v-797q0 -106 12 -184h-158q-10 38 -10 125v8zM561 1110q-138 0 -215.5 86t-77.5 205h127q5 -67 45.5 -111.5t120.5 -44.5
t120.5 44.5t45.5 111.5h127q0 -119 -77.5 -205t-215.5 -86z" />
    <glyph glyph-name="Uring" unicode="&#x16e;" horiz-adv-x="1396" 
d="M698 -29q-228 0 -371 137t-143 384v960h172v-956q0 -177 88 -272t254 -95t254 95t88 272v956h172v-960q0 -247 -143 -384t-371 -137zM698 1520q-89 0 -154 62.5t-65 152.5q0 91 65 154t154 63t154.5 -63t65.5 -154q0 -90 -65.5 -152.5t-154.5 -62.5zM698 1841
q-43 0 -73.5 -31t-30.5 -75t30.5 -74.5t73.5 -30.5t74 30.5t31 74.5t-31 75t-74 31z" />
    <glyph glyph-name="uring" unicode="&#x16f;" horiz-adv-x="1126" 
d="M557 1085q-92 0 -157.5 65t-65.5 157t65.5 156.5t157.5 64.5t157.5 -64.5t65.5 -156.5t-65.5 -157t-157.5 -65zM449 1307q0 -48 30.5 -80.5t77.5 -32.5t78 32.5t31 80.5t-31 80t-78 32t-77.5 -32t-30.5 -80zM811 133q-35 -74 -115.5 -118t-179.5 -44q-173 0 -271 111.5
t-98 282.5v616h164v-590q0 -116 60 -194t182 -78q120 0 185 74.5t65 195.5v592h164v-797q0 -106 12 -184h-158q-10 38 -10 125v8z" />
    <glyph glyph-name="Uhungarumlaut" unicode="&#x170;" horiz-adv-x="1396" 
d="M594 1554h-121l127 244h184zM860 1554h-121l150 244h182zM698 -29q-228 0 -371 137t-143 384v960h172v-956q0 -177 88 -272t254 -95t254 95t88 272v956h172v-960q0 -247 -143 -384t-371 -137z" />
    <glyph glyph-name="uhungarumlaut" unicode="&#x171;" horiz-adv-x="1126" 
d="M811 133q-35 -74 -115.5 -118t-179.5 -44q-173 0 -271 111.5t-98 282.5v616h164v-590q0 -116 60 -194t182 -78q120 0 185 74.5t65 195.5v592h164v-797q0 -106 12 -184h-158q-10 38 -10 125v8zM705 1108h-115l135 293h184zM457 1108h-115l127 293h184z" />
    <glyph glyph-name="Uogonek" unicode="&#x172;" horiz-adv-x="1396" 
d="M571 -238q0 124 107 209q-220 5 -357 142.5t-137 378.5v960h172v-956q0 -177 88 -272t254 -95t254 95t88 272v956h172v-960q0 -190 -85 -315.5t-232 -174.5q-70 -23 -127 -80.5t-57 -128.5q0 -51 34 -77.5t82 -26.5q47 0 68 8v-119q-44 -14 -98 -14q-95 0 -160.5 53.5
t-65.5 144.5z" />
    <glyph glyph-name="uogonek" unicode="&#x173;" horiz-adv-x="1126" 
d="M668 -238q0 151 151 240q-8 33 -8 123v8q-35 -74 -115.5 -118t-179.5 -44q-173 0 -271 111.5t-98 282.5v616h164v-590q0 -116 60 -194t182 -78q120 0 185 74.5t65 195.5v592h164v-797q0 -106 12 -184q-172 -88 -172 -207q0 -51 34.5 -77.5t82.5 -26.5q46 0 67 8v-119
q-44 -14 -98 -14q-95 0 -160 53.5t-65 144.5z" />
    <glyph glyph-name="Wcircumflex" unicode="&#x174;" horiz-adv-x="2052" 
d="M688 1554l230 244h225l229 -244h-160l-182 152l-182 -152h-160zM1487 264l346 1188h176l-430 -1452h-174l-379 1219l-379 -1219h-174l-430 1452h176l346 -1188l367 1188h188z" />
    <glyph glyph-name="wcircumflex" unicode="&#x175;" horiz-adv-x="1652" 
d="M514 1108l217 283h195l215 -283h-152l-162 186l-161 -186h-152zM913 981l273 -776l233 776h174l-319 -981h-172l-275 782l-270 -782h-174l-326 981h176l240 -776l270 776h170z" />
    <glyph glyph-name="Ycircumflex" unicode="&#x176;" horiz-adv-x="1294" 
d="M51 1452h201l395 -674l395 674h201l-510 -831v-621h-172v621zM305 1554l230 244h225l229 -244h-160l-182 152l-182 -152h-160z" />
    <glyph glyph-name="ycircumflex" unicode="&#x177;" horiz-adv-x="1071" 
d="M225 1108l217 283h195l215 -283h-152l-161 186l-162 -186h-152zM227 -389l238 506l-422 864h188l324 -694l305 694h178l-628 -1370h-183z" />
    <glyph glyph-name="Ydieresis" unicode="&#x178;" horiz-adv-x="1294" 
d="M51 1452h201l395 -674l395 674h201l-510 -831v-621h-172v621zM317 1677q0 44 31.5 75.5t75.5 31.5t75 -31.5t31 -75.5t-31 -75t-75 -31t-75.5 31t-31.5 75zM764 1677q0 44 31 75.5t75 31.5t75.5 -31.5t31.5 -75.5t-31.5 -75t-75.5 -31t-75 31t-31 75z" />
    <glyph glyph-name="Zacute" unicode="&#x179;" horiz-adv-x="1288" 
d="M672 1554h-162l213 244h227zM84 0v172l903 1122h-885v158h1090v-168l-905 -1126h915v-158h-1118z" />
    <glyph glyph-name="zacute" unicode="&#x17a;" horiz-adv-x="966" 
d="M504 1108h-135l178 293h209zM92 0v143l572 691h-566v147h768v-143l-571 -691h582v-147h-785z" />
    <glyph glyph-name="Zdotaccent" unicode="&#x17b;" horiz-adv-x="1288" 
d="M84 0v172l903 1122h-885v158h1090v-168l-905 -1126h915v-158h-1118zM647 1561q-48 0 -82.5 33.5t-34.5 82.5t34.5 83t82.5 34t82.5 -34t34.5 -83t-34.5 -82.5t-82.5 -33.5z" />
    <glyph glyph-name="zdotaccent" unicode="&#x17c;" horiz-adv-x="966" 
d="M92 0v143l572 691h-566v147h768v-143l-571 -691h582v-147h-785zM365 1255q0 47 32.5 80t79.5 33t80 -33t33 -80t-33 -79.5t-80 -32.5t-79.5 32.5t-32.5 79.5z" />
    <glyph glyph-name="Zcaron" unicode="&#x17d;" horiz-adv-x="1288" 
d="M995 1798l-229 -244h-225l-230 244h160l182 -151l183 151h159zM84 0v172l903 1122h-885v158h1090v-168l-905 -1126h915v-158h-1118z" />
    <glyph glyph-name="zcaron" unicode="&#x17e;" horiz-adv-x="966" 
d="M317 1391l162 -187l162 187h152l-215 -283h-195l-217 283h151zM92 0v143l572 691h-566v147h768v-143l-571 -691h582v-147h-785z" />
    <glyph glyph-name="uni018F" unicode="&#x18f;" horiz-adv-x="1609" 
d="M82 756h1253q-4 135 -51 245t-123.5 179t-172.5 106t-200 37q-184 0 -327.5 -103.5t-194.5 -261.5l-153 56q62 202 250.5 334.5t424.5 132.5q109 0 213.5 -31.5t196 -95t160.5 -152t109 -211.5t40 -264t-39 -263.5t-107.5 -211.5t-158.5 -153.5t-194 -96t-213 -31.5
t-213 31t-194.5 94t-158.5 151.5t-107.5 212.5t-39.5 267v29zM795 129q95 0 181.5 30.5t158.5 88t122 148.5t68 204h-1061q14 -113 63 -204t121.5 -148.5t161 -88t185.5 -30.5z" />
    <glyph glyph-name="florin" unicode="&#x192;" horiz-adv-x="964" 
d="M383 834h-231v147h260l47 231q28 145 119.5 219t209.5 74q95 0 142 -20v-146q-41 15 -107 15q-35 0 -63 -7.5t-58 -27.5t-52 -61t-34 -101l-34 -176h268v-147h-297l-172 -857q-31 -147 -120 -219.5t-210 -72.5q-98 0 -145 20v145q38 -14 110 -14q168 0 207 197z" />
    <glyph glyph-name="Ohorn" unicode="&#x1a0;" horiz-adv-x="1642" 
d="M102 727q0 176 61.5 321.5t163.5 238.5t229.5 143.5t264.5 50.5q69 0 145 -14.5t99 -14.5q71 0 105 45.5t34 118.5h156q0 -196 -162 -242q157 -94 249.5 -259.5t92.5 -387.5q0 -141 -40 -263.5t-109 -211.5t-160.5 -153.5t-196 -96t-213.5 -31.5t-213 31.5t-195.5 96
t-161 153.5t-109.5 211.5t-40 263.5zM274 727q0 -143 45.5 -259t123 -189t174.5 -111.5t204 -38.5q108 0 205 38.5t174 111.5t122.5 189t45.5 259t-45.5 258.5t-122.5 188t-174 111t-205 38.5q-85 0 -164.5 -24t-149.5 -73t-121.5 -119t-81.5 -167.5t-30 -212.5z" />
    <glyph glyph-name="ohorn" unicode="&#x1a1;" horiz-adv-x="1167" 
d="M584 1010q88 0 170 -29q68 1 101.5 47t33.5 117h155q0 -191 -155 -240q88 -70 137 -177t49 -236q0 -227 -138.5 -374t-352.5 -147t-353 147t-139 374q0 226 139 372t353 146zM584 862q-137 0 -232.5 -99.5t-95.5 -270.5q0 -173 95.5 -273t232.5 -100t232 100t95 273
q0 171 -95 270.5t-232 99.5z" />
    <glyph glyph-name="Uhorn" unicode="&#x1af;" horiz-adv-x="1396" 
d="M698 -29q-228 0 -371 137t-143 384v960h172v-956q0 -177 88 -272t254 -95t254 95t88 272v956h58q68 1 100.5 46.5t32.5 117.5h155q0 -204 -174 -244v-880q0 -247 -143 -384t-371 -137z" />
    <glyph glyph-name="uhorn" unicode="&#x1b0;" horiz-adv-x="1126" 
d="M811 133q-35 -74 -115.5 -118t-179.5 -44q-173 0 -271 111.5t-98 282.5v616h164v-590q0 -116 60 -194t182 -78q120 0 185 74.5t65 195.5v592h43q71 0 105 45.5t34 118.5h156q0 -204 -174 -244v-717q0 -106 12 -184h-158q-10 38 -10 125v8z" />
    <glyph glyph-name="uni01B5" unicode="&#x1b5;" horiz-adv-x="1288" 
d="M84 0v172l412 512h-310v150h430l371 460h-885v158h1090v-168l-363 -450h277v-150h-397l-422 -526h915v-158h-1118z" />
    <glyph glyph-name="uni01B6" unicode="&#x1b6;" horiz-adv-x="966" 
d="M92 0v143l246 297h-229v148h350l205 246h-566v147h768v-143l-207 -250h185v-148h-307l-242 -293h582v-147h-785z" />
    <glyph glyph-name="Aringacute" unicode="&#x1fa;" horiz-adv-x="1445" 
d="M1055 424h-666l-162 -424h-186l549 1372q-48 31 -76.5 82.5t-28.5 110.5q0 98 70.5 165.5t165.5 67.5t165 -67.5t70 -165.5q0 -58 -28 -107.5t-74 -83.5l553 -1374h-186zM451 582h542l-272 694zM721 1679q-47 0 -80 -33.5t-33 -80.5t33 -80t80 -33t80 33t33 80t-33 80.5
t-80 33.5zM797 1841h-162l213 244h227z" />
    <glyph glyph-name="aringacute" unicode="&#x1fb;" horiz-adv-x="1048" 
d="M90 260q0 125 79 199t214 94l264 39q51 7 69.5 27.5t18.5 56.5q0 89 -57 141.5t-170 52.5q-106 0 -169.5 -57.5t-74.5 -153.5l-155 37q17 140 126.5 227t268.5 87q101 0 178.5 -28t124 -77t69.5 -111t23 -135v-495q0 -102 12 -164h-159q-13 50 -13 147
q-38 -71 -121.5 -123.5t-203.5 -52.5q-146 0 -235 86.5t-89 202.5zM434 111q134 0 217.5 77t83.5 226v65l-319 -47q-75 -11 -118.5 -52.5t-43.5 -111.5q0 -63 49.5 -110t130.5 -47zM575 1595h-135l178 293h209zM510 1077q-92 0 -157.5 64.5t-65.5 156.5t65.5 157t157.5 65
t157.5 -65t65.5 -157t-65.5 -156.5t-157.5 -64.5zM401 1298q0 -48 31 -80t78 -32t77.5 32t30.5 80t-30.5 80.5t-77.5 32.5t-78 -32.5t-31 -80.5z" />
    <glyph glyph-name="AEacute" unicode="&#x1fc;" horiz-adv-x="2048" 
d="M1188 1554h-162l213 244h227zM1065 0v424h-571l-275 -424h-221l967 1452h970v-158h-698v-489h635v-158h-635v-489h698v-158h-870zM596 582h469v721z" />
    <glyph glyph-name="aeacute" unicode="&#x1fd;" horiz-adv-x="1751" 
d="M918 1108h-136l179 293h208zM504 1010q254 0 348 -172q134 172 348 172q219 0 341 -138t122 -368q0 -30 -4 -58h-756v-8q0 -138 92 -228.5t226 -90.5q117 0 190 58t105 153l141 -51q-43 -134 -158 -221t-276 -87q-131 0 -239 59.5t-173 170.5q-47 -100 -144.5 -165
t-252.5 -65q-146 0 -235 86.5t-89 202.5q0 125 79 199t214 94l264 39q51 7 69.5 27.5t18.5 56.5q0 89 -57 141.5t-170 52.5q-106 0 -169.5 -57.5t-74.5 -153.5l-155 37q17 140 126.5 227t268.5 87zM434 111q134 0 217.5 77t83.5 226v65l-319 -47q-75 -11 -118.5 -52.5
t-43.5 -111.5q0 -63 49.5 -110t130.5 -47zM1493 586q-5 123 -80 200.5t-211 77.5q-124 0 -205.5 -82t-89.5 -196h586z" />
    <glyph glyph-name="Oslashacute" unicode="&#x1fe;" horiz-adv-x="1642" 
d="M102 727q0 176 61.5 321.5t163.5 238.5t229.5 143.5t264.5 50.5q219 0 402 -121l145 188l117 -90l-150 -192q205 -215 205 -539q0 -141 -40 -263.5t-109 -211.5t-160.5 -153.5t-196 -96t-213.5 -31.5q-215 0 -395 117l-145 -186l-121 90l149 192q-207 214 -207 543z
M274 727q0 -251 136 -414l714 920q-140 90 -303 90q-85 0 -164.5 -24t-149.5 -73t-121.5 -119t-81.5 -167.5t-30 -212.5zM1368 727q0 249 -133 408l-713 -920q133 -86 299 -86q108 0 205 38.5t174 111.5t122.5 189t45.5 259zM889 1554h-162l213 244h227z" />
    <glyph glyph-name="oslashacute" unicode="&#x1ff;" horiz-adv-x="1171" 
d="M586 1010q142 0 262 -74l104 137l105 -84l-109 -139q129 -142 129 -358q0 -227 -138.5 -374t-352.5 -147q-146 0 -262 72l-105 -135l-104 84l106 139q-127 143 -127 361q0 226 139 372t353 146zM913 492q0 136 -63 231l-432 -559q68 -45 168 -45q137 0 232 100t95 273z
M586 862q-137 0 -232.5 -99.5t-95.5 -270.5q0 -143 64 -234l432 557q-77 47 -168 47zM647 1108h-135l178 293h209z" />
    <glyph glyph-name="Scommaaccent" unicode="&#x218;" horiz-adv-x="1206" 
d="M938 1067q-9 49 -32 93t-61.5 82.5t-99 61.5t-135.5 23q-127 0 -214 -74t-87 -184q0 -87 54.5 -146.5t154.5 -82.5l213 -47q177 -38 275 -143.5t98 -258.5q0 -173 -137 -296.5t-357 -123.5q-121 0 -220 37t-162.5 99.5t-101.5 137.5t-48 158l162 52q13 -138 110 -233
t260 -95q153 0 237.5 70.5t84.5 179.5q0 92 -60 156t-176 90l-213 47q-158 33 -252 133.5t-94 255.5q0 112 62.5 209t171.5 155t237 58q90 0 166.5 -21.5t129 -56.5t92 -82.5t62 -96.5t34.5 -102zM524 -178q0 45 33 71.5t78 26.5q48 0 84.5 -34t36.5 -103q0 -107 -65 -164.5
t-154 -62.5v75q51 1 89 33.5t40 73.5q-15 -12 -43 -12q-44 0 -71.5 25t-27.5 71z" />
    <glyph glyph-name="scommaaccent" unicode="&#x219;" horiz-adv-x="917" 
d="M227 309q11 -89 75 -143.5t171 -54.5q86 0 138.5 42.5t52.5 106.5q0 105 -150 143l-160 37q-114 27 -178.5 98t-64.5 175q0 123 101 210t241 87q73 0 133 -18t98.5 -45t67.5 -64t43 -69t22 -66l-145 -54q-4 28 -17.5 56t-37.5 56.5t-67 46t-97 17.5q-78 0 -130.5 -42.5
t-52.5 -104.5q0 -103 129 -133l160 -37q129 -29 197.5 -102t68.5 -183q0 -54 -23 -106t-66 -95t-112 -69.5t-153 -26.5q-92 0 -167 27t-120.5 71t-71.5 92t-32 97zM371 -178q0 45 32.5 71.5t77.5 26.5q48 0 84.5 -34t36.5 -103q0 -107 -65 -164.5t-154 -62.5v75
q51 1 89 33.5t40 73.5q-15 -12 -43 -12q-44 0 -71 25t-27 71z" />
    <glyph glyph-name="uni021A" unicode="&#x21a;" horiz-adv-x="1243" 
d="M518 -178q0 45 33 71.5t78 26.5q48 0 84.5 -34t36.5 -103q0 -107 -65 -164.5t-155 -62.5v75q51 1 89 33.5t40 73.5q-15 -12 -43 -12q-44 0 -71 25t-27 71zM707 1294v-1294h-170v1294h-498v158h1165v-158h-497z" />
    <glyph glyph-name="uni021B" unicode="&#x21b;" horiz-adv-x="694" 
d="M397 981h232v-147h-232v-543q0 -79 36.5 -116.5t113.5 -37.5q55 0 82 10v-139q-41 -15 -113 -18l-61 -94q9 4 30 4q82 0 133.5 -45t51.5 -117q0 -77 -60.5 -127.5t-173.5 -50.5q-70 0 -130 27.5t-93 68.5l68 80q74 -74 155 -74q47 0 78 19.5t31 56.5q0 33 -27.5 53.5
t-75.5 20.5q-32 0 -65 -13l-60 70l84 135q-79 25 -123.5 93t-44.5 171v566h-196v147h63q144 0 144 149v162h153v-311z" />
    <glyph glyph-name="dotlessj" unicode="&#x237;" horiz-adv-x="483" 
d="M160 981h164v-1102q0 -136 -72.5 -216.5t-196.5 -80.5q-61 0 -110 17v143q24 -12 69 -12q77 0 111.5 38t34.5 117v1096z" />
    <glyph glyph-name="uni0259" unicode="&#x259;" horiz-adv-x="1107" 
d="M258 395q5 -123 80 -200.5t211 -77.5q123 0 205 82t90 196h-586zM94 702q44 135 158.5 221.5t277.5 86.5q99 0 186.5 -36t154.5 -101.5t106 -165.5t39 -220q0 -114 -38 -211.5t-101.5 -163.5t-148 -103.5t-177.5 -37.5q-219 0 -341 138t-122 368q0 30 4 58h756v8
q0 138 -92 228.5t-226 90.5q-117 0 -189.5 -57.5t-104.5 -153.5z" />
    <glyph glyph-name="circumflex" unicode="&#x2c6;" horiz-adv-x="790" 
d="M82 1108l217 283h195l215 -283h-152l-162 186l-162 -186h-151z" />
    <glyph glyph-name="caron" unicode="&#x2c7;" horiz-adv-x="790" 
d="M233 1391l162 -187l162 187h152l-215 -283h-195l-217 283h151z" />
    <glyph glyph-name="uni02C9" unicode="&#x2c9;" horiz-adv-x="706" 
d="M82 1184v143h543v-143h-543z" />
    <glyph glyph-name="breve" unicode="&#x2d8;" horiz-adv-x="749" 
d="M375 1110q-138 0 -215.5 86t-77.5 205h127q5 -67 45.5 -111.5t120.5 -44.5t120.5 44.5t45.5 111.5h127q0 -119 -77.5 -205t-215.5 -86z" />
    <glyph glyph-name="dotaccent" unicode="&#x2d9;" horiz-adv-x="389" 
d="M82 1255q0 47 33 80t80 33t79.5 -33t32.5 -80t-32.5 -79.5t-79.5 -32.5t-80 32.5t-33 79.5z" />
    <glyph glyph-name="ring" unicode="&#x2da;" horiz-adv-x="610" 
d="M305 1085q-92 0 -157.5 65t-65.5 157t65.5 156.5t157.5 64.5t157.5 -64.5t65.5 -156.5t-65.5 -157t-157.5 -65zM197 1307q0 -48 30.5 -80.5t77.5 -32.5t78 32.5t31 80.5t-31 80t-78 32t-77.5 -32t-30.5 -80z" />
    <glyph glyph-name="ogonek" unicode="&#x2db;" horiz-adv-x="487" 
d="M82 -238q0 172 203 267l108 -29q-172 -88 -172 -207q0 -51 34.5 -77.5t82.5 -26.5q47 0 68 8v-119q-44 -14 -99 -14q-95 0 -160 53.5t-65 144.5z" />
    <glyph glyph-name="tilde" unicode="&#x2dc;" horiz-adv-x="796" 
d="M715 1343q0 -102 -53 -157.5t-136 -55.5q-64 0 -133 48l-31 22q-47 35 -86 35q-35 0 -51 -23t-16 -77h-127v28q0 102 52.5 156.5t135.5 54.5q81 0 140 -47l30 -22q39 -33 82 -33q36 0 52 22.5t16 75.5h125v-27z" />
    <glyph glyph-name="hungarumlaut" unicode="&#x2dd;" horiz-adv-x="731" 
d="M444 1108h-114l135 293h184zM197 1108h-115l127 293h184z" />
    <glyph glyph-name="uni0394" unicode="&#x394;" horiz-adv-x="1454" 
d="M633 1452h186l576 -1452h-1336zM303 158h846l-426 1104z" />
    <glyph glyph-name="uni03A9" unicode="&#x3a9;" horiz-adv-x="1687" 
d="M844 1327q-103 0 -200.5 -37t-175.5 -104t-125.5 -172t-47.5 -230q0 -112 39.5 -211t105.5 -168t146 -114.5t166 -61.5v-229h-617v152h430q-86 29 -164 85.5t-141.5 135.5t-101 185.5t-37.5 223.5q0 158 59.5 291.5t160 221.5t230.5 137t273 49t273 -49t230.5 -137
t160 -221.5t59.5 -291.5q0 -117 -37.5 -223t-101 -185t-142.5 -136t-166 -86h432v-152h-616v229q86 16 166 61.5t146 114.5t105.5 168t39.5 211q0 125 -47.5 230t-125.5 172t-175.5 104t-200.5 37z" />
    <glyph glyph-name="uni03BC" unicode="&#x3bc;" horiz-adv-x="1112" 
d="M809 133q-37 -75 -117.5 -118.5t-179.5 -43.5q-136 0 -203 82v-442h-164v1370h164v-592q0 -116 59.5 -194t180.5 -78q120 0 186 74.5t66 195.5v594h164v-797q0 -129 10 -184h-158q-8 31 -8 127v6z" />
    <glyph glyph-name="pi" unicode="&#x3c0;" horiz-adv-x="1202" 
d="M1114 8q-55 -22 -121 -22q-112 0 -170.5 67.5t-58.5 165.5v619h-371v-838h-164v838h-178v143h1057v-143h-180v-600q0 -111 116 -111q39 0 70 8v-127z" />
    <glyph glyph-name="Wgrave" unicode="&#x1e80;" horiz-adv-x="2052" 
d="M672 1798h227l213 -244h-162zM1487 264l346 1188h176l-430 -1452h-174l-379 1219l-379 -1219h-174l-430 1452h176l346 -1188l367 1188h188z" />
    <glyph glyph-name="wgrave" unicode="&#x1e81;" horiz-adv-x="1652" 
d="M510 1401h209l178 -293h-135zM913 981l273 -776l233 776h174l-319 -981h-172l-275 782l-270 -782h-174l-326 981h176l240 -776l270 776h170z" />
    <glyph glyph-name="Wacute" unicode="&#x1e82;" horiz-adv-x="2052" 
d="M1112 1554h-162l213 244h228zM1487 264l346 1188h176l-430 -1452h-174l-379 1219l-379 -1219h-174l-430 1452h176l346 -1188l367 1188h188z" />
    <glyph glyph-name="wacute" unicode="&#x1e83;" horiz-adv-x="1652" 
d="M897 1108h-135l178 293h209zM913 981l273 -776l233 776h174l-319 -981h-172l-275 782l-270 -782h-174l-326 981h176l240 -776l270 776h170z" />
    <glyph glyph-name="Wdieresis" unicode="&#x1e84;" horiz-adv-x="2052" 
d="M635 1677q0 44 31 75.5t75 31.5t75.5 -31.5t31.5 -75.5t-31.5 -75t-75.5 -31t-75 31t-31 75zM1204 1677q0 44 31.5 75.5t75.5 31.5t75 -31.5t31 -75.5t-31 -75t-75 -31t-75.5 31t-31.5 75zM1487 264l346 1188h176l-430 -1452h-174l-379 1219l-379 -1219h-174l-430 1452
h176l346 -1188l367 1188h188z" />
    <glyph glyph-name="wdieresis" unicode="&#x1e85;" horiz-adv-x="1652" 
d="M494 1262q0 44 31 75t75 31t75.5 -31t31.5 -75t-31.5 -75.5t-75.5 -31.5t-75 31.5t-31 75.5zM948 1262q0 44 31.5 75t75.5 31t75 -31t31 -75t-31 -75.5t-75 -31.5t-75.5 31.5t-31.5 75.5zM913 981l273 -776l233 776h174l-319 -981h-172l-275 782l-270 -782h-174l-326 981
h176l240 -776l270 776h170z" />
    <glyph glyph-name="uni1E8A" unicode="&#x1e8a;" horiz-adv-x="1255" 
d="M729 727l488 -727h-205l-383 590l-389 -590h-207l493 727l-489 725h209l383 -592l385 592h207zM627 1561q-48 0 -82.5 33.5t-34.5 82.5t34.5 83t82.5 34t82 -34t34 -83t-34 -82.5t-82 -33.5z" />
    <glyph glyph-name="uni1E8B" unicode="&#x1e8b;" horiz-adv-x="1011" 
d="M412 502l-359 479h199l256 -360l258 360h192l-358 -479l375 -502h-197l-272 379l-273 -379h-196zM395 1255q0 47 33 80t80 33t80 -33t33 -80t-33 -79.5t-80 -32.5t-80 32.5t-33 79.5z" />
    <glyph glyph-name="uni1EA0" unicode="&#x1ea0;" horiz-adv-x="1445" 
d="M610 -305q0 47 33.5 81t79.5 34q47 0 81 -34t34 -81q0 -46 -34 -79.5t-81 -33.5q-46 0 -79.5 33.5t-33.5 79.5zM1055 424h-666l-162 -424h-186l582 1452h200l584 -1452h-186zM451 582h542l-272 694z" />
    <glyph glyph-name="uni1EA1" unicode="&#x1ea1;" horiz-adv-x="1048" 
d="M377 -305q0 47 33 81t79 34q47 0 81 -34t34 -81q0 -46 -34 -79.5t-81 -33.5q-46 0 -79 33.5t-33 79.5zM90 260q0 125 79 199t214 94l264 39q51 7 69.5 27.5t18.5 56.5q0 89 -57 141.5t-170 52.5q-106 0 -169.5 -57.5t-74.5 -153.5l-155 37q17 140 126.5 227t268.5 87
q101 0 178.5 -28t124 -77t69.5 -111t23 -135v-495q0 -102 12 -164h-159q-13 50 -13 147q-38 -71 -121.5 -123.5t-203.5 -52.5q-146 0 -235 86.5t-89 202.5zM434 111q134 0 217.5 77t83.5 226v65l-319 -47q-75 -11 -118.5 -52.5t-43.5 -111.5q0 -63 49.5 -110t130.5 -47z" />
    <glyph glyph-name="uni1EA2" unicode="&#x1ea2;" horiz-adv-x="1445" 
d="M872 1749q0 -82 -88 -174h-112q73 81 73 145q0 76 -86 76q-34 0 -55 -6v111q47 6 94 6q74 -2 124 -41t50 -117zM1055 424h-666l-162 -424h-186l582 1452h200l584 -1452h-186zM451 582h542l-272 694z" />
    <glyph glyph-name="uni1EA3" unicode="&#x1ea3;" horiz-adv-x="1048" 
d="M664 1311q0 -81 -89 -174h-112q74 82 74 145q0 76 -86 76q-35 0 -56 -6v110q47 6 94 6q75 -2 125 -40.5t50 -116.5zM90 260q0 125 79 199t214 94l264 39q51 7 69.5 27.5t18.5 56.5q0 89 -57 141.5t-170 52.5q-106 0 -169.5 -57.5t-74.5 -153.5l-155 37q17 140 126.5 227
t268.5 87q101 0 178.5 -28t124 -77t69.5 -111t23 -135v-495q0 -102 12 -164h-159q-13 50 -13 147q-38 -71 -121.5 -123.5t-203.5 -52.5q-146 0 -235 86.5t-89 202.5zM434 111q134 0 217.5 77t83.5 226v65l-319 -47q-75 -11 -118.5 -52.5t-43.5 -111.5q0 -63 49.5 -110
t130.5 -47z" />
    <glyph glyph-name="uni1EA4" unicode="&#x1ea4;" horiz-adv-x="1445" 
d="M1100 1757h-129l119 264h188zM1055 424h-666l-162 -424h-186l582 1452h200l584 -1452h-186zM451 582h542l-272 694zM815 1819l199 -265h-150l-141 170l-141 -170h-150l199 265h184z" />
    <glyph glyph-name="uni1EA5" unicode="&#x1ea5;" horiz-adv-x="1048" 
d="M887 1319h-129l119 264h188zM90 260q0 125 79 199t214 94l264 39q51 7 69.5 27.5t18.5 56.5q0 89 -57 141.5t-170 52.5q-106 0 -169.5 -57.5t-74.5 -153.5l-155 37q17 140 126.5 227t268.5 87q101 0 178.5 -28t124 -77t69.5 -111t23 -135v-495q0 -102 12 -164h-159
q-13 50 -13 147q-38 -71 -121.5 -123.5t-203.5 -52.5q-146 0 -235 86.5t-89 202.5zM434 111q134 0 217.5 77t83.5 226v65l-319 -47q-75 -11 -118.5 -52.5t-43.5 -111.5q0 -63 49.5 -110t130.5 -47zM602 1380l199 -264h-150l-141 170l-141 -170h-150l199 264h184z" />
    <glyph glyph-name="uni1EA6" unicode="&#x1ea6;" horiz-adv-x="1445" 
d="M1126 1757h-129l-178 264h189zM1055 424h-666l-162 -424h-186l582 1452h200l584 -1452h-186zM451 582h542l-272 694zM815 1819l199 -265h-150l-141 170l-141 -170h-150l199 265h184z" />
    <glyph glyph-name="uni1EA7" unicode="&#x1ea7;" horiz-adv-x="1048" 
d="M913 1319h-129l-178 264h189zM90 260q0 125 79 199t214 94l264 39q51 7 69.5 27.5t18.5 56.5q0 89 -57 141.5t-170 52.5q-106 0 -169.5 -57.5t-74.5 -153.5l-155 37q17 140 126.5 227t268.5 87q101 0 178.5 -28t124 -77t69.5 -111t23 -135v-495q0 -102 12 -164h-159
q-13 50 -13 147q-38 -71 -121.5 -123.5t-203.5 -52.5q-146 0 -235 86.5t-89 202.5zM434 111q134 0 217.5 77t83.5 226v65l-319 -47q-75 -11 -118.5 -52.5t-43.5 -111.5q0 -63 49.5 -110t130.5 -47zM602 1380l199 -264h-150l-141 170l-141 -170h-150l199 264h184z" />
    <glyph glyph-name="uni1EA8" unicode="&#x1ea8;" horiz-adv-x="1445" 
d="M1161 1931q0 -82 -88 -174h-112q73 81 73 146q0 75 -86 75q-34 0 -55 -6v111q47 6 94 6q74 -2 124 -41t50 -117zM1055 424h-666l-162 -424h-186l582 1452h200l584 -1452h-186zM451 582h542l-272 694zM815 1819l199 -265h-150l-141 170l-141 -170h-150l199 265h184z" />
    <glyph glyph-name="uni1EA9" unicode="&#x1ea9;" horiz-adv-x="1048" 
d="M948 1493q0 -82 -88 -174h-112q73 81 73 145q0 76 -86 76q-34 0 -55 -6v111q47 6 94 6q74 -2 124 -41t50 -117zM90 260q0 125 79 199t214 94l264 39q51 7 69.5 27.5t18.5 56.5q0 89 -57 141.5t-170 52.5q-106 0 -169.5 -57.5t-74.5 -153.5l-155 37q17 140 126.5 227
t268.5 87q101 0 178.5 -28t124 -77t69.5 -111t23 -135v-495q0 -102 12 -164h-159q-13 50 -13 147q-38 -71 -121.5 -123.5t-203.5 -52.5q-146 0 -235 86.5t-89 202.5zM434 111q134 0 217.5 77t83.5 226v65l-319 -47q-75 -11 -118.5 -52.5t-43.5 -111.5q0 -63 49.5 -110
t130.5 -47zM602 1380l199 -264h-150l-141 170l-141 -170h-150l199 264h184z" />
    <glyph glyph-name="uni1EAA" unicode="&#x1eaa;" horiz-adv-x="1445" 
d="M1014 2103q0 -111 -49 -167t-129 -56q-36 0 -69.5 16t-55 35t-49 35t-52.5 16q-26 0 -41.5 -27t-15.5 -71h-121q0 112 49.5 166.5t130.5 54.5q36 0 69.5 -15.5t55 -34.5t49 -34.5t52.5 -15.5q27 0 42 27t15 71h119zM1055 424h-666l-162 -424h-186l582 1452h200l584 -1452
h-186zM451 582h542l-272 694zM815 1819l199 -265h-150l-141 170l-141 -170h-150l199 265h184z" />
    <glyph glyph-name="uni1EAB" unicode="&#x1eab;" horiz-adv-x="1048" 
d="M801 1665q0 -111 -49 -167t-129 -56q-36 0 -69.5 16t-55 35t-49 35t-52.5 16q-26 0 -41.5 -27t-15.5 -71h-121q0 112 49.5 166.5t130.5 54.5q36 0 69.5 -15.5t55 -34.5t49 -34.5t52.5 -15.5q27 0 42 27t15 71h119zM90 260q0 125 79 199t214 94l264 39q51 7 69.5 27.5
t18.5 56.5q0 89 -57 141.5t-170 52.5q-106 0 -169.5 -57.5t-74.5 -153.5l-155 37q17 140 126.5 227t268.5 87q101 0 178.5 -28t124 -77t69.5 -111t23 -135v-495q0 -102 12 -164h-159q-13 50 -13 147q-38 -71 -121.5 -123.5t-203.5 -52.5q-146 0 -235 86.5t-89 202.5z
M434 111q134 0 217.5 77t83.5 226v65l-319 -47q-75 -11 -118.5 -52.5t-43.5 -111.5q0 -63 49.5 -110t130.5 -47zM602 1380l199 -264h-150l-141 170l-141 -170h-150l199 264h184z" />
    <glyph glyph-name="uni1EAC" unicode="&#x1eac;" horiz-adv-x="1445" 
d="M610 -305q0 47 33.5 81t79.5 34q47 0 81 -34t34 -81q0 -46 -34 -79.5t-81 -33.5q-46 0 -79.5 33.5t-33.5 79.5zM1055 424h-666l-162 -424h-186l582 1452h200l584 -1452h-186zM451 582h542l-272 694zM815 1819l199 -265h-150l-141 170l-141 -170h-150l199 265h184z" />
    <glyph glyph-name="uni1EAD" unicode="&#x1ead;" horiz-adv-x="1048" 
d="M377 -305q0 47 33 81t79 34q47 0 81 -34t34 -81q0 -46 -34 -79.5t-81 -33.5q-46 0 -79 33.5t-33 79.5zM90 260q0 125 79 199t214 94l264 39q51 7 69.5 27.5t18.5 56.5q0 89 -57 141.5t-170 52.5q-106 0 -169.5 -57.5t-74.5 -153.5l-155 37q17 140 126.5 227t268.5 87
q101 0 178.5 -28t124 -77t69.5 -111t23 -135v-495q0 -102 12 -164h-159q-13 50 -13 147q-38 -71 -121.5 -123.5t-203.5 -52.5q-146 0 -235 86.5t-89 202.5zM434 111q134 0 217.5 77t83.5 226v65l-319 -47q-75 -11 -118.5 -52.5t-43.5 -111.5q0 -63 49.5 -110t130.5 -47z
M602 1380l199 -264h-150l-141 170l-141 -170h-150l199 264h184z" />
    <glyph glyph-name="uni1EAE" unicode="&#x1eae;" horiz-adv-x="1445" 
d="M778 1858h-129l119 264h188zM1055 424h-666l-162 -424h-186l582 1452h200l584 -1452h-186zM451 582h542l-272 694zM723 1554q-136 0 -211 62.5t-80 179.5h131q3 -56 42.5 -89.5t117.5 -33.5t117.5 33.5t42.5 89.5h131q-5 -117 -80 -179.5t-211 -62.5z" />
    <glyph glyph-name="uni1EAF" unicode="&#x1eaf;" horiz-adv-x="1048" 
d="M565 1419h-129l119 264h188zM90 260q0 125 79 199t214 94l264 39q51 7 69.5 27.5t18.5 56.5q0 89 -57 141.5t-170 52.5q-106 0 -169.5 -57.5t-74.5 -153.5l-155 37q17 140 126.5 227t268.5 87q101 0 178.5 -28t124 -77t69.5 -111t23 -135v-495q0 -102 12 -164h-159
q-13 50 -13 147q-38 -71 -121.5 -123.5t-203.5 -52.5q-146 0 -235 86.5t-89 202.5zM434 111q134 0 217.5 77t83.5 226v65l-319 -47q-75 -11 -118.5 -52.5t-43.5 -111.5q0 -63 49.5 -110t130.5 -47zM510 1116q-136 0 -211 62.5t-80 179.5h131q3 -56 42.5 -89.5t117.5 -33.5
t117.5 33.5t42.5 89.5h131q-5 -117 -80 -179.5t-211 -62.5z" />
    <glyph glyph-name="uni1EB0" unicode="&#x1eb0;" horiz-adv-x="1445" 
d="M795 1858h-129l-179 264h189zM1055 424h-666l-162 -424h-186l582 1452h200l584 -1452h-186zM451 582h542l-272 694zM723 1554q-136 0 -211 62.5t-80 179.5h131q3 -56 42.5 -89.5t117.5 -33.5t117.5 33.5t42.5 89.5h131q-5 -117 -80 -179.5t-211 -62.5z" />
    <glyph glyph-name="uni1EB1" unicode="&#x1eb1;" horiz-adv-x="1048" 
d="M582 1419h-129l-179 264h189zM90 260q0 125 79 199t214 94l264 39q51 7 69.5 27.5t18.5 56.5q0 89 -57 141.5t-170 52.5q-106 0 -169.5 -57.5t-74.5 -153.5l-155 37q17 140 126.5 227t268.5 87q101 0 178.5 -28t124 -77t69.5 -111t23 -135v-495q0 -102 12 -164h-159
q-13 50 -13 147q-38 -71 -121.5 -123.5t-203.5 -52.5q-146 0 -235 86.5t-89 202.5zM434 111q134 0 217.5 77t83.5 226v65l-319 -47q-75 -11 -118.5 -52.5t-43.5 -111.5q0 -63 49.5 -110t130.5 -47zM510 1116q-136 0 -211 62.5t-80 179.5h131q3 -56 42.5 -89.5t117.5 -33.5
t117.5 33.5t42.5 89.5h131q-5 -117 -80 -179.5t-211 -62.5z" />
    <glyph glyph-name="uni1EB2" unicode="&#x1eb2;" horiz-adv-x="1445" 
d="M868 2011q0 -82 -88 -174h-112q73 81 73 145q0 76 -86 76q-34 0 -55 -6v111q47 6 94 6q74 -2 124 -41t50 -117zM1055 424h-666l-162 -424h-186l582 1452h200l584 -1452h-186zM451 582h542l-272 694zM723 1554q-136 0 -211 62.5t-80 179.5h131q3 -56 42.5 -89.5
t117.5 -33.5t117.5 33.5t42.5 89.5h131q-5 -117 -80 -179.5t-211 -62.5z" />
    <glyph glyph-name="uni1EB3" unicode="&#x1eb3;" horiz-adv-x="1048" 
d="M655 1573q0 -82 -88 -174h-112q73 81 73 145q0 76 -86 76q-34 0 -55 -6v110q54 7 94 7q74 -2 124 -41t50 -117zM90 260q0 125 79 199t214 94l264 39q51 7 69.5 27.5t18.5 56.5q0 89 -57 141.5t-170 52.5q-106 0 -169.5 -57.5t-74.5 -153.5l-155 37q17 140 126.5 227
t268.5 87q101 0 178.5 -28t124 -77t69.5 -111t23 -135v-495q0 -102 12 -164h-159q-13 50 -13 147q-38 -71 -121.5 -123.5t-203.5 -52.5q-146 0 -235 86.5t-89 202.5zM434 111q134 0 217.5 77t83.5 226v65l-319 -47q-75 -11 -118.5 -52.5t-43.5 -111.5q0 -63 49.5 -110
t130.5 -47zM510 1116q-136 0 -211 62.5t-80 179.5h131q3 -56 42.5 -89.5t117.5 -33.5t117.5 33.5t42.5 89.5h131q-5 -117 -80 -179.5t-211 -62.5z" />
    <glyph glyph-name="uni1EB4" unicode="&#x1eb4;" horiz-adv-x="1445" 
d="M1014 2081q0 -111 -49 -167t-129 -56q-36 0 -69.5 16t-55 35t-49 35t-52.5 16q-26 0 -41.5 -27t-15.5 -71h-121q0 112 49.5 166.5t130.5 54.5q36 0 69.5 -16t55 -34.5t49 -34.5t52.5 -16q27 0 42 27.5t15 71.5h119zM1055 424h-666l-162 -424h-186l582 1452h200l584 -1452
h-186zM451 582h542l-272 694zM723 1554q-136 0 -211 62.5t-80 179.5h131q3 -56 42.5 -89.5t117.5 -33.5t117.5 33.5t42.5 89.5h131q-5 -117 -80 -179.5t-211 -62.5z" />
    <glyph glyph-name="uni1EB5" unicode="&#x1eb5;" horiz-adv-x="1048" 
d="M801 1642q0 -111 -49 -167t-129 -56q-36 0 -69.5 16t-55 35.5t-49 35.5t-52.5 16q-26 0 -41.5 -27t-15.5 -72h-121q0 112 49.5 167t130.5 55q36 0 69.5 -16t55 -34.5t49 -34.5t52.5 -16q27 0 42 27t15 71h119zM90 260q0 125 79 199t214 94l264 39q51 7 69.5 27.5
t18.5 56.5q0 89 -57 141.5t-170 52.5q-106 0 -169.5 -57.5t-74.5 -153.5l-155 37q17 140 126.5 227t268.5 87q101 0 178.5 -28t124 -77t69.5 -111t23 -135v-495q0 -102 12 -164h-159q-13 50 -13 147q-38 -71 -121.5 -123.5t-203.5 -52.5q-146 0 -235 86.5t-89 202.5z
M434 111q134 0 217.5 77t83.5 226v65l-319 -47q-75 -11 -118.5 -52.5t-43.5 -111.5q0 -63 49.5 -110t130.5 -47zM510 1116q-136 0 -211 62.5t-80 179.5h131q3 -56 42.5 -89.5t117.5 -33.5t117.5 33.5t42.5 89.5h131q-5 -117 -80 -179.5t-211 -62.5z" />
    <glyph glyph-name="uni1EB6" unicode="&#x1eb6;" horiz-adv-x="1445" 
d="M610 -305q0 47 33.5 81t79.5 34q47 0 81 -34t34 -81q0 -46 -34 -79.5t-81 -33.5q-46 0 -79.5 33.5t-33.5 79.5zM1055 424h-666l-162 -424h-186l582 1452h200l584 -1452h-186zM451 582h542l-272 694zM723 1554q-136 0 -211 62.5t-80 179.5h131q3 -56 42.5 -89.5
t117.5 -33.5t117.5 33.5t42.5 89.5h131q-5 -117 -80 -179.5t-211 -62.5z" />
    <glyph glyph-name="uni1EB7" unicode="&#x1eb7;" horiz-adv-x="1048" 
d="M377 -305q0 47 33 81t79 34q47 0 81 -34t34 -81q0 -46 -34 -79.5t-81 -33.5q-46 0 -79 33.5t-33 79.5zM90 260q0 125 79 199t214 94l264 39q51 7 69.5 27.5t18.5 56.5q0 89 -57 141.5t-170 52.5q-106 0 -169.5 -57.5t-74.5 -153.5l-155 37q17 140 126.5 227t268.5 87
q101 0 178.5 -28t124 -77t69.5 -111t23 -135v-495q0 -102 12 -164h-159q-13 50 -13 147q-38 -71 -121.5 -123.5t-203.5 -52.5q-146 0 -235 86.5t-89 202.5zM434 111q134 0 217.5 77t83.5 226v65l-319 -47q-75 -11 -118.5 -52.5t-43.5 -111.5q0 -63 49.5 -110t130.5 -47z
M510 1116q-136 0 -211 62.5t-80 179.5h131q3 -56 42.5 -89.5t117.5 -33.5t117.5 33.5t42.5 89.5h131q-5 -117 -80 -179.5t-211 -62.5z" />
    <glyph glyph-name="uni1EB8" unicode="&#x1eb8;" horiz-adv-x="1183" 
d="M508 -305q0 47 33.5 81t79.5 34q47 0 80.5 -34t33.5 -81q0 -46 -33.5 -79.5t-80.5 -33.5q-46 0 -79.5 33.5t-33.5 79.5zM201 0v1452h870v-158h-698v-489h635v-158h-635v-489h698v-158h-870z" />
    <glyph glyph-name="uni1EB9" unicode="&#x1eb9;" horiz-adv-x="1107" 
d="M459 -305q0 47 33 81t79 34q47 0 81 -34t34 -81q0 -46 -34 -79.5t-81 -33.5q-46 0 -79 33.5t-33 79.5zM850 586q-5 123 -80 200.5t-211 77.5q-124 0 -205.5 -82t-89.5 -196h586zM1014 279q-44 -135 -158.5 -221.5t-277.5 -86.5q-99 0 -186.5 36t-154.5 101.5t-106 165.5
t-39 220q0 114 38 211.5t101.5 163.5t148 103.5t177.5 37.5q219 0 341 -138t122 -368q0 -30 -4 -58h-756v-8q0 -138 92 -228.5t226 -90.5q117 0 189.5 57.5t104.5 153.5z" />
    <glyph glyph-name="uni1EBA" unicode="&#x1eba;" horiz-adv-x="1183" 
d="M788 1749q0 -82 -88 -174h-112q74 82 74 145q0 76 -87 76q-34 0 -55 -6v111q46 6 94 6q74 -2 124 -41t50 -117zM201 0v1452h870v-158h-698v-489h635v-158h-635v-489h698v-158h-870z" />
    <glyph glyph-name="uni1EBB" unicode="&#x1ebb;" horiz-adv-x="1107" 
d="M727 1311q0 -82 -88 -174h-113q74 82 74 145q0 76 -86 76q-34 0 -55 -6v110q47 6 94 6q75 -2 124.5 -40.5t49.5 -116.5zM850 586q-5 123 -80 200.5t-211 77.5q-124 0 -205.5 -82t-89.5 -196h586zM1014 279q-44 -135 -158.5 -221.5t-277.5 -86.5q-99 0 -186.5 36
t-154.5 101.5t-106 165.5t-39 220q0 114 38 211.5t101.5 163.5t148 103.5t177.5 37.5q219 0 341 -138t122 -368q0 -30 -4 -58h-756v-8q0 -138 92 -228.5t226 -90.5q117 0 189.5 57.5t104.5 153.5z" />
    <glyph glyph-name="uni1EBC" unicode="&#x1ebc;" horiz-adv-x="1183" 
d="M911 1798q0 -111 -49 -167t-129 -56q-45 0 -85 25.5t-74.5 51t-65.5 25.5q-26 0 -41.5 -27t-15.5 -71h-121q0 112 49.5 166.5t130.5 54.5q45 0 85 -25t74.5 -50t65.5 -25q27 0 42.5 27t15.5 71h118zM201 0v1452h870v-158h-698v-489h635v-158h-635v-489h698v-158h-870z
" />
    <glyph glyph-name="uni1EBD" unicode="&#x1ebd;" horiz-adv-x="1107" 
d="M862 1360q0 -111 -49 -167t-129 -56q-45 0 -85 25.5t-74.5 51t-65.5 25.5q-26 0 -42 -27t-16 -71h-120q0 112 49.5 166.5t130.5 54.5q45 0 85 -25t74.5 -50t65.5 -25q27 0 42 27t15 71h119zM850 586q-5 123 -80 200.5t-211 77.5q-124 0 -205.5 -82t-89.5 -196h586z
M1014 279q-44 -135 -158.5 -221.5t-277.5 -86.5q-99 0 -186.5 36t-154.5 101.5t-106 165.5t-39 220q0 114 38 211.5t101.5 163.5t148 103.5t177.5 37.5q219 0 341 -138t122 -368q0 -30 -4 -58h-756v-8q0 -138 92 -228.5t226 -90.5q117 0 189.5 57.5t104.5 153.5z" />
    <glyph glyph-name="uni1EBE" unicode="&#x1ebe;" horiz-adv-x="1183" 
d="M997 1757h-129l119 264h189zM201 0v1452h870v-158h-698v-489h635v-158h-635v-489h698v-158h-870zM713 1819l198 -265h-149l-141 170l-142 -170h-149l198 265h185z" />
    <glyph glyph-name="uni1EBF" unicode="&#x1ebf;" horiz-adv-x="1107" 
d="M948 1319h-129l119 264h188zM850 586q-5 123 -80 200.5t-211 77.5q-124 0 -205.5 -82t-89.5 -196h586zM1014 279q-44 -135 -158.5 -221.5t-277.5 -86.5q-99 0 -186.5 36t-154.5 101.5t-106 165.5t-39 220q0 114 38 211.5t101.5 163.5t148 103.5t177.5 37.5
q219 0 341 -138t122 -368q0 -30 -4 -58h-756v-8q0 -138 92 -228.5t226 -90.5q117 0 189.5 57.5t104.5 153.5zM664 1380l198 -264h-149l-142 170l-141 -170h-149l198 264h185z" />
    <glyph glyph-name="uni1EC0" unicode="&#x1ec0;" horiz-adv-x="1183" 
d="M1024 1757h-129l-178 264h188zM201 0v1452h870v-158h-698v-489h635v-158h-635v-489h698v-158h-870zM713 1819l198 -265h-149l-141 170l-142 -170h-149l198 265h185z" />
    <glyph glyph-name="uni1EC1" unicode="&#x1ec1;" horiz-adv-x="1107" 
d="M975 1319h-129l-178 264h188zM850 586q-5 123 -80 200.5t-211 77.5q-124 0 -205.5 -82t-89.5 -196h586zM1014 279q-44 -135 -158.5 -221.5t-277.5 -86.5q-99 0 -186.5 36t-154.5 101.5t-106 165.5t-39 220q0 114 38 211.5t101.5 163.5t148 103.5t177.5 37.5
q219 0 341 -138t122 -368q0 -30 -4 -58h-756v-8q0 -138 92 -228.5t226 -90.5q117 0 189.5 57.5t104.5 153.5zM664 1380l198 -264h-149l-142 170l-141 -170h-149l198 264h185z" />
    <glyph glyph-name="uni1EC2" unicode="&#x1ec2;" horiz-adv-x="1183" 
d="M1059 1931q0 -82 -88 -174h-113q74 82 74 146q0 75 -86 75q-34 0 -55 -6v111q46 6 94 6q74 -2 124 -41t50 -117zM201 0v1452h870v-158h-698v-489h635v-158h-635v-489h698v-158h-870zM713 1819l198 -265h-149l-141 170l-142 -170h-149l198 265h185z" />
    <glyph glyph-name="uni1EC3" unicode="&#x1ec3;" horiz-adv-x="1107" 
d="M1010 1493q0 -82 -88 -174h-113q74 82 74 145q0 76 -86 76q-35 0 -56 -6v111q46 6 95 6q74 -2 124 -41t50 -117zM850 586q-5 123 -80 200.5t-211 77.5q-124 0 -205.5 -82t-89.5 -196h586zM1014 279q-44 -135 -158.5 -221.5t-277.5 -86.5q-99 0 -186.5 36t-154.5 101.5
t-106 165.5t-39 220q0 114 38 211.5t101.5 163.5t148 103.5t177.5 37.5q219 0 341 -138t122 -368q0 -30 -4 -58h-756v-8q0 -138 92 -228.5t226 -90.5q117 0 189.5 57.5t104.5 153.5zM664 1380l198 -264h-149l-142 170l-141 -170h-149l198 264h185z" />
    <glyph glyph-name="uni1EC4" unicode="&#x1ec4;" horiz-adv-x="1183" 
d="M911 2103q0 -111 -49 -167t-129 -56q-45 0 -85 25.5t-74.5 51t-65.5 25.5q-26 0 -41.5 -27t-15.5 -71h-121q0 112 49.5 166.5t130.5 54.5q45 0 85 -25t74.5 -50t65.5 -25q27 0 42.5 27t15.5 71h118zM201 0v1452h870v-158h-698v-489h635v-158h-635v-489h698v-158h-870z
M713 1819l198 -265h-149l-141 170l-142 -170h-149l198 265h185z" />
    <glyph glyph-name="uni1EC5" unicode="&#x1ec5;" horiz-adv-x="1107" 
d="M862 1665q0 -111 -49 -167t-129 -56q-45 0 -85 25.5t-74.5 51t-65.5 25.5q-26 0 -42 -27t-16 -71h-120q0 112 49.5 166.5t130.5 54.5q45 0 85 -25t74.5 -50t65.5 -25q27 0 42 27t15 71h119zM850 586q-5 123 -80 200.5t-211 77.5q-124 0 -205.5 -82t-89.5 -196h586z
M1014 279q-44 -135 -158.5 -221.5t-277.5 -86.5q-99 0 -186.5 36t-154.5 101.5t-106 165.5t-39 220q0 114 38 211.5t101.5 163.5t148 103.5t177.5 37.5q219 0 341 -138t122 -368q0 -30 -4 -58h-756v-8q0 -138 92 -228.5t226 -90.5q117 0 189.5 57.5t104.5 153.5zM664 1380
l198 -264h-149l-142 170l-141 -170h-149l198 264h185z" />
    <glyph glyph-name="uni1EC6" unicode="&#x1ec6;" horiz-adv-x="1183" 
d="M508 -305q0 47 33.5 81t79.5 34q47 0 80.5 -34t33.5 -81q0 -46 -33.5 -79.5t-80.5 -33.5q-46 0 -79.5 33.5t-33.5 79.5zM201 0v1452h870v-158h-698v-489h635v-158h-635v-489h698v-158h-870zM713 1819l198 -265h-149l-141 170l-142 -170h-149l198 265h185z" />
    <glyph glyph-name="uni1EC7" unicode="&#x1ec7;" horiz-adv-x="1107" 
d="M459 -305q0 47 33 81t79 34q47 0 81 -34t34 -81q0 -46 -34 -79.5t-81 -33.5q-46 0 -79 33.5t-33 79.5zM850 586q-5 123 -80 200.5t-211 77.5q-124 0 -205.5 -82t-89.5 -196h586zM1014 279q-44 -135 -158.5 -221.5t-277.5 -86.5q-99 0 -186.5 36t-154.5 101.5t-106 165.5
t-39 220q0 114 38 211.5t101.5 163.5t148 103.5t177.5 37.5q219 0 341 -138t122 -368q0 -30 -4 -58h-756v-8q0 -138 92 -228.5t226 -90.5q117 0 189.5 57.5t104.5 153.5zM664 1380l198 -264h-149l-142 170l-141 -170h-149l198 264h185z" />
    <glyph glyph-name="uni1EC8" unicode="&#x1ec8;" horiz-adv-x="573" 
d="M434 1749q0 -82 -88 -174h-113q74 82 74 145q0 76 -86 76q-34 0 -55 -6v111q47 6 94 6q74 -2 124 -41t50 -117zM201 0v1452h172v-1452h-172z" />
    <glyph glyph-name="uni1EC9" unicode="&#x1ec9;" horiz-adv-x="483" 
d="M391 1311q0 -82 -88 -174h-113q74 82 74 145q0 76 -86 76q-34 0 -55 -6v110q46 6 94 6q75 -2 124.5 -40.5t49.5 -116.5zM160 0v981h164v-981h-164z" />
    <glyph glyph-name="uni1ECA" unicode="&#x1eca;" horiz-adv-x="573" 
d="M174 -305q0 47 33.5 81t79.5 34q47 0 80.5 -34t33.5 -81q0 -46 -33.5 -79.5t-80.5 -33.5q-46 0 -79.5 33.5t-33.5 79.5zM201 0v1452h172v-1452h-172z" />
    <glyph glyph-name="uni1ECB" unicode="&#x1ecb;" horiz-adv-x="483" 
d="M129 -305q0 47 33.5 81t79.5 34q47 0 80.5 -34t33.5 -81q0 -46 -33.5 -79.5t-80.5 -33.5q-46 0 -79.5 33.5t-33.5 79.5zM160 0v981h164v-981h-164zM129 1272q0 47 33.5 80.5t79.5 33.5q47 0 80.5 -33.5t33.5 -80.5q0 -46 -33.5 -79.5t-80.5 -33.5q-46 0 -79.5 33.5
t-33.5 79.5z" />
    <glyph glyph-name="uni1ECC" unicode="&#x1ecc;" horiz-adv-x="1642" 
d="M709 -305q0 47 33 81t79 34q47 0 81 -34t34 -81q0 -46 -34 -79.5t-81 -33.5q-46 0 -79 33.5t-33 79.5zM274 727q0 -143 45.5 -259t123 -189t174.5 -111.5t204 -38.5q108 0 205 38.5t174 111.5t122.5 189t45.5 259t-45.5 258.5t-122.5 188t-174 111t-205 38.5
q-85 0 -164.5 -24t-149.5 -73t-121.5 -119t-81.5 -167.5t-30 -212.5zM102 727q0 176 61.5 321.5t163.5 238.5t229.5 143.5t264.5 50.5q109 0 213.5 -31.5t196 -95t160.5 -152t109 -211.5t40 -264t-40 -263.5t-109 -211.5t-160.5 -153.5t-196 -96t-213.5 -31.5t-213 31.5
t-195.5 96t-161 153.5t-109.5 211.5t-40 263.5z" />
    <glyph glyph-name="uni1ECD" unicode="&#x1ecd;" horiz-adv-x="1167" 
d="M471 -305q0 47 33.5 81t79.5 34q47 0 80.5 -34t33.5 -81q0 -46 -33.5 -79.5t-80.5 -33.5q-46 0 -79.5 33.5t-33.5 79.5zM584 1010q214 0 352.5 -146t138.5 -372q0 -227 -138.5 -374t-352.5 -147t-353 147t-139 374q0 226 139 372t353 146zM584 862q-137 0 -232.5 -99.5
t-95.5 -270.5q0 -173 95.5 -273t232.5 -100t232 100t95 273q0 171 -95 270.5t-232 99.5z" />
    <glyph glyph-name="uni1ECE" unicode="&#x1ece;" horiz-adv-x="1642" 
d="M969 1749q0 -82 -88 -174h-113q74 82 74 145q0 76 -86 76q-35 0 -56 -6v111q46 6 95 6q74 -2 124 -41t50 -117zM274 727q0 -143 45.5 -259t123 -189t174.5 -111.5t204 -38.5q108 0 205 38.5t174 111.5t122.5 189t45.5 259t-45.5 258.5t-122.5 188t-174 111t-205 38.5
q-85 0 -164.5 -24t-149.5 -73t-121.5 -119t-81.5 -167.5t-30 -212.5zM102 727q0 176 61.5 321.5t163.5 238.5t229.5 143.5t264.5 50.5q109 0 213.5 -31.5t196 -95t160.5 -152t109 -211.5t40 -264t-40 -263.5t-109 -211.5t-160.5 -153.5t-196 -96t-213.5 -31.5t-213 31.5
t-195.5 96t-161 153.5t-109.5 211.5t-40 263.5z" />
    <glyph glyph-name="uni1ECF" unicode="&#x1ecf;" horiz-adv-x="1167" 
d="M752 1311q0 -82 -88 -174h-113q74 82 74 145q0 76 -86 76q-35 0 -56 -6v110q46 6 95 6q75 -2 124.5 -40.5t49.5 -116.5zM584 1010q214 0 352.5 -146t138.5 -372q0 -227 -138.5 -374t-352.5 -147t-353 147t-139 374q0 226 139 372t353 146zM584 862q-137 0 -232.5 -99.5
t-95.5 -270.5q0 -173 95.5 -273t232.5 -100t232 100t95 273q0 171 -95 270.5t-232 99.5z" />
    <glyph glyph-name="uni1ED0" unicode="&#x1ed0;" horiz-adv-x="1642" 
d="M1198 1757h-129l119 264h188zM274 727q0 -143 45.5 -259t123 -189t174.5 -111.5t204 -38.5q108 0 205 38.5t174 111.5t122.5 189t45.5 259t-45.5 258.5t-122.5 188t-174 111t-205 38.5q-85 0 -164.5 -24t-149.5 -73t-121.5 -119t-81.5 -167.5t-30 -212.5zM102 727
q0 176 61.5 321.5t163.5 238.5t229.5 143.5t264.5 50.5q109 0 213.5 -31.5t196 -95t160.5 -152t109 -211.5t40 -264t-40 -263.5t-109 -211.5t-160.5 -153.5t-196 -96t-213.5 -31.5t-213 31.5t-195.5 96t-161 153.5t-109.5 211.5t-40 263.5zM913 1819l199 -265h-149l-142 170
l-141 -170h-150l199 265h184z" />
    <glyph glyph-name="uni1ED1" unicode="&#x1ed1;" horiz-adv-x="1167" 
d="M961 1319h-130l119 264h189zM584 1010q214 0 352.5 -146t138.5 -372q0 -227 -138.5 -374t-352.5 -147t-353 147t-139 374q0 226 139 372t353 146zM584 862q-137 0 -232.5 -99.5t-95.5 -270.5q0 -173 95.5 -273t232.5 -100t232 100t95 273q0 171 -95 270.5t-232 99.5z
M676 1380l198 -264h-149l-141 170l-142 -170h-149l199 264h184z" />
    <glyph glyph-name="uni1ED2" unicode="&#x1ed2;" horiz-adv-x="1642" 
d="M1225 1757h-129l-178 264h188zM274 727q0 -143 45.5 -259t123 -189t174.5 -111.5t204 -38.5q108 0 205 38.5t174 111.5t122.5 189t45.5 259t-45.5 258.5t-122.5 188t-174 111t-205 38.5q-85 0 -164.5 -24t-149.5 -73t-121.5 -119t-81.5 -167.5t-30 -212.5zM102 727
q0 176 61.5 321.5t163.5 238.5t229.5 143.5t264.5 50.5q109 0 213.5 -31.5t196 -95t160.5 -152t109 -211.5t40 -264t-40 -263.5t-109 -211.5t-160.5 -153.5t-196 -96t-213.5 -31.5t-213 31.5t-195.5 96t-161 153.5t-109.5 211.5t-40 263.5zM913 1819l199 -265h-149l-142 170
l-141 -170h-150l199 265h184z" />
    <glyph glyph-name="uni1ED3" unicode="&#x1ed3;" horiz-adv-x="1167" 
d="M987 1319h-129l-178 264h188zM584 1010q214 0 352.5 -146t138.5 -372q0 -227 -138.5 -374t-352.5 -147t-353 147t-139 374q0 226 139 372t353 146zM584 862q-137 0 -232.5 -99.5t-95.5 -270.5q0 -173 95.5 -273t232.5 -100t232 100t95 273q0 171 -95 270.5t-232 99.5z
M676 1380l198 -264h-149l-141 170l-142 -170h-149l199 264h184z" />
    <glyph glyph-name="uni1ED4" unicode="&#x1ed4;" horiz-adv-x="1642" 
d="M1260 1931q0 -81 -89 -174h-112q74 82 74 146q0 75 -86 75q-35 0 -56 -6v111q46 6 94 6q75 -2 125 -41t50 -117zM274 727q0 -143 45.5 -259t123 -189t174.5 -111.5t204 -38.5q108 0 205 38.5t174 111.5t122.5 189t45.5 259t-45.5 258.5t-122.5 188t-174 111t-205 38.5
q-85 0 -164.5 -24t-149.5 -73t-121.5 -119t-81.5 -167.5t-30 -212.5zM102 727q0 176 61.5 321.5t163.5 238.5t229.5 143.5t264.5 50.5q109 0 213.5 -31.5t196 -95t160.5 -152t109 -211.5t40 -264t-40 -263.5t-109 -211.5t-160.5 -153.5t-196 -96t-213.5 -31.5t-213 31.5
t-195.5 96t-161 153.5t-109.5 211.5t-40 263.5zM913 1819l199 -265h-149l-142 170l-141 -170h-150l199 265h184z" />
    <glyph glyph-name="uni1ED5" unicode="&#x1ed5;" horiz-adv-x="1167" 
d="M1022 1493q0 -82 -88 -174h-113q74 82 74 145q0 76 -86 76q-34 0 -55 -6v111q46 6 94 6q74 -2 124 -41t50 -117zM584 1010q214 0 352.5 -146t138.5 -372q0 -227 -138.5 -374t-352.5 -147t-353 147t-139 374q0 226 139 372t353 146zM584 862q-137 0 -232.5 -99.5
t-95.5 -270.5q0 -173 95.5 -273t232.5 -100t232 100t95 273q0 171 -95 270.5t-232 99.5zM676 1380l198 -264h-149l-141 170l-142 -170h-149l199 264h184z" />
    <glyph glyph-name="uni1ED6" unicode="&#x1ed6;" horiz-adv-x="1642" 
d="M1112 2103q0 -111 -49 -167t-129 -56q-45 0 -85 25.5t-74.5 51t-65.5 25.5q-26 0 -42 -27t-16 -71h-121q0 112 50 166.5t131 54.5q45 0 85 -25t74.5 -50t65.5 -25q27 0 42 27t15 71h119zM274 727q0 -143 45.5 -259t123 -189t174.5 -111.5t204 -38.5q108 0 205 38.5
t174 111.5t122.5 189t45.5 259t-45.5 258.5t-122.5 188t-174 111t-205 38.5q-85 0 -164.5 -24t-149.5 -73t-121.5 -119t-81.5 -167.5t-30 -212.5zM102 727q0 176 61.5 321.5t163.5 238.5t229.5 143.5t264.5 50.5q109 0 213.5 -31.5t196 -95t160.5 -152t109 -211.5t40 -264
t-40 -263.5t-109 -211.5t-160.5 -153.5t-196 -96t-213.5 -31.5t-213 31.5t-195.5 96t-161 153.5t-109.5 211.5t-40 263.5zM913 1819l199 -265h-149l-142 170l-141 -170h-150l199 265h184z" />
    <glyph glyph-name="uni1ED7" unicode="&#x1ed7;" horiz-adv-x="1167" 
d="M874 1665q0 -111 -49 -167t-129 -56q-45 0 -85 25.5t-74.5 51t-65.5 25.5q-26 0 -41.5 -27t-15.5 -71h-121q0 112 49.5 166.5t130.5 54.5q45 0 85 -25t74.5 -50t65.5 -25q27 0 42.5 27t15.5 71h118zM584 1010q214 0 352.5 -146t138.5 -372q0 -227 -138.5 -374
t-352.5 -147t-353 147t-139 374q0 226 139 372t353 146zM584 862q-137 0 -232.5 -99.5t-95.5 -270.5q0 -173 95.5 -273t232.5 -100t232 100t95 273q0 171 -95 270.5t-232 99.5zM676 1380l198 -264h-149l-141 170l-142 -170h-149l199 264h184z" />
    <glyph glyph-name="uni1ED8" unicode="&#x1ed8;" horiz-adv-x="1642" 
d="M709 -305q0 47 33 81t79 34q47 0 81 -34t34 -81q0 -46 -34 -79.5t-81 -33.5q-46 0 -79 33.5t-33 79.5zM274 727q0 -143 45.5 -259t123 -189t174.5 -111.5t204 -38.5q108 0 205 38.5t174 111.5t122.5 189t45.5 259t-45.5 258.5t-122.5 188t-174 111t-205 38.5
q-85 0 -164.5 -24t-149.5 -73t-121.5 -119t-81.5 -167.5t-30 -212.5zM102 727q0 176 61.5 321.5t163.5 238.5t229.5 143.5t264.5 50.5q109 0 213.5 -31.5t196 -95t160.5 -152t109 -211.5t40 -264t-40 -263.5t-109 -211.5t-160.5 -153.5t-196 -96t-213.5 -31.5t-213 31.5
t-195.5 96t-161 153.5t-109.5 211.5t-40 263.5zM913 1819l199 -265h-149l-142 170l-141 -170h-150l199 265h184z" />
    <glyph glyph-name="uni1ED9" unicode="&#x1ed9;" horiz-adv-x="1167" 
d="M471 -305q0 47 33.5 81t79.5 34q47 0 80.5 -34t33.5 -81q0 -46 -33.5 -79.5t-80.5 -33.5q-46 0 -79.5 33.5t-33.5 79.5zM584 1010q214 0 352.5 -146t138.5 -372q0 -227 -138.5 -374t-352.5 -147t-353 147t-139 374q0 226 139 372t353 146zM584 862q-137 0 -232.5 -99.5
t-95.5 -270.5q0 -173 95.5 -273t232.5 -100t232 100t95 273q0 171 -95 270.5t-232 99.5zM676 1380l198 -264h-149l-141 170l-142 -170h-149l199 264h184z" />
    <glyph glyph-name="uni1EDA" unicode="&#x1eda;" horiz-adv-x="1642" 
d="M883 1575h-129l118 264h189zM102 727q0 176 61.5 321.5t163.5 238.5t229.5 143.5t264.5 50.5q69 0 145 -14.5t99 -14.5q71 0 105 45.5t34 118.5h156q0 -196 -162 -242q157 -94 249.5 -259.5t92.5 -387.5q0 -141 -40 -263.5t-109 -211.5t-160.5 -153.5t-196 -96
t-213.5 -31.5t-213 31.5t-195.5 96t-161 153.5t-109.5 211.5t-40 263.5zM274 727q0 -143 45.5 -259t123 -189t174.5 -111.5t204 -38.5q108 0 205 38.5t174 111.5t122.5 189t45.5 259t-45.5 258.5t-122.5 188t-174 111t-205 38.5q-85 0 -164.5 -24t-149.5 -73t-121.5 -119
t-81.5 -167.5t-30 -212.5z" />
    <glyph glyph-name="uni1EDB" unicode="&#x1edb;" horiz-adv-x="1167" 
d="M645 1137h-129l119 264h188zM584 1010q88 0 170 -29q68 1 101.5 47t33.5 117h155q0 -191 -155 -240q88 -70 137 -177t49 -236q0 -227 -138.5 -374t-352.5 -147t-353 147t-139 374q0 226 139 372t353 146zM584 862q-137 0 -232.5 -99.5t-95.5 -270.5q0 -173 95.5 -273
t232.5 -100t232 100t95 273q0 171 -95 270.5t-232 99.5z" />
    <glyph glyph-name="uni1EDC" unicode="&#x1edc;" horiz-adv-x="1642" 
d="M883 1575h-129l-179 264h189zM102 727q0 176 61.5 321.5t163.5 238.5t229.5 143.5t264.5 50.5q69 0 145 -14.5t99 -14.5q71 0 105 45.5t34 118.5h156q0 -196 -162 -242q157 -94 249.5 -259.5t92.5 -387.5q0 -141 -40 -263.5t-109 -211.5t-160.5 -153.5t-196 -96
t-213.5 -31.5t-213 31.5t-195.5 96t-161 153.5t-109.5 211.5t-40 263.5zM274 727q0 -143 45.5 -259t123 -189t174.5 -111.5t204 -38.5q108 0 205 38.5t174 111.5t122.5 189t45.5 259t-45.5 258.5t-122.5 188t-174 111t-205 38.5q-85 0 -164.5 -24t-149.5 -73t-121.5 -119
t-81.5 -167.5t-30 -212.5z" />
    <glyph glyph-name="uni1EDD" unicode="&#x1edd;" horiz-adv-x="1167" 
d="M645 1137h-129l-178 264h188zM584 1010q88 0 170 -29q68 1 101.5 47t33.5 117h155q0 -191 -155 -240q88 -70 137 -177t49 -236q0 -227 -138.5 -374t-352.5 -147t-353 147t-139 374q0 226 139 372t353 146zM584 862q-137 0 -232.5 -99.5t-95.5 -270.5q0 -173 95.5 -273
t232.5 -100t232 100t95 273q0 171 -95 270.5t-232 99.5z" />
    <glyph glyph-name="uni1EDE" unicode="&#x1ede;" horiz-adv-x="1642" 
d="M969 1749q0 -82 -88 -174h-113q74 82 74 145q0 76 -86 76q-35 0 -56 -6v111q46 6 95 6q74 -2 124 -41t50 -117zM102 727q0 176 61.5 321.5t163.5 238.5t229.5 143.5t264.5 50.5q69 0 145 -14.5t99 -14.5q71 0 105 45.5t34 118.5h156q0 -196 -162 -242
q157 -94 249.5 -259.5t92.5 -387.5q0 -141 -40 -263.5t-109 -211.5t-160.5 -153.5t-196 -96t-213.5 -31.5t-213 31.5t-195.5 96t-161 153.5t-109.5 211.5t-40 263.5zM274 727q0 -143 45.5 -259t123 -189t174.5 -111.5t204 -38.5q108 0 205 38.5t174 111.5t122.5 189
t45.5 259t-45.5 258.5t-122.5 188t-174 111t-205 38.5q-85 0 -164.5 -24t-149.5 -73t-121.5 -119t-81.5 -167.5t-30 -212.5z" />
    <glyph glyph-name="uni1EDF" unicode="&#x1edf;" horiz-adv-x="1167" 
d="M752 1311q0 -82 -88 -174h-113q74 82 74 145q0 76 -86 76q-35 0 -56 -6v110q46 6 95 6q75 -2 124.5 -40.5t49.5 -116.5zM584 1010q88 0 170 -29q68 1 101.5 47t33.5 117h155q0 -191 -155 -240q88 -70 137 -177t49 -236q0 -227 -138.5 -374t-352.5 -147t-353 147t-139 374
q0 226 139 372t353 146zM584 862q-137 0 -232.5 -99.5t-95.5 -270.5q0 -173 95.5 -273t232.5 -100t232 100t95 273q0 171 -95 270.5t-232 99.5z" />
    <glyph glyph-name="uni1EE0" unicode="&#x1ee0;" horiz-adv-x="1642" 
d="M1112 1798q0 -111 -49 -167t-129 -56q-45 0 -85 25.5t-74.5 51t-65.5 25.5q-26 0 -42 -27t-16 -71h-121q0 112 50 166.5t131 54.5q45 0 85 -25t74.5 -50t65.5 -25q27 0 42 27t15 71h119zM102 727q0 176 61.5 321.5t163.5 238.5t229.5 143.5t264.5 50.5q69 0 145 -14.5
t99 -14.5q71 0 105 45.5t34 118.5h156q0 -196 -162 -242q157 -94 249.5 -259.5t92.5 -387.5q0 -141 -40 -263.5t-109 -211.5t-160.5 -153.5t-196 -96t-213.5 -31.5t-213 31.5t-195.5 96t-161 153.5t-109.5 211.5t-40 263.5zM274 727q0 -143 45.5 -259t123 -189t174.5 -111.5
t204 -38.5q108 0 205 38.5t174 111.5t122.5 189t45.5 259t-45.5 258.5t-122.5 188t-174 111t-205 38.5q-85 0 -164.5 -24t-149.5 -73t-121.5 -119t-81.5 -167.5t-30 -212.5z" />
    <glyph glyph-name="uni1EE1" unicode="&#x1ee1;" horiz-adv-x="1167" 
d="M874 1360q0 -111 -49 -167t-129 -56q-45 0 -85 25.5t-74.5 51t-65.5 25.5q-26 0 -41.5 -27t-15.5 -71h-121q0 112 49.5 166.5t130.5 54.5q45 0 85 -25t74.5 -50t65.5 -25q27 0 42.5 27t15.5 71h118zM584 1010q88 0 170 -29q68 1 101.5 47t33.5 117h155q0 -191 -155 -240
q88 -70 137 -177t49 -236q0 -227 -138.5 -374t-352.5 -147t-353 147t-139 374q0 226 139 372t353 146zM584 862q-137 0 -232.5 -99.5t-95.5 -270.5q0 -173 95.5 -273t232.5 -100t232 100t95 273q0 171 -95 270.5t-232 99.5z" />
    <glyph glyph-name="uni1EE2" unicode="&#x1ee2;" horiz-adv-x="1642" 
d="M709 -305q0 47 33 81t79 34q47 0 81 -34t34 -81q0 -46 -34 -79.5t-81 -33.5q-46 0 -79 33.5t-33 79.5zM102 727q0 176 61.5 321.5t163.5 238.5t229.5 143.5t264.5 50.5q69 0 145 -14.5t99 -14.5q71 0 105 45.5t34 118.5h156q0 -196 -162 -242q157 -94 249.5 -259.5
t92.5 -387.5q0 -141 -40 -263.5t-109 -211.5t-160.5 -153.5t-196 -96t-213.5 -31.5t-213 31.5t-195.5 96t-161 153.5t-109.5 211.5t-40 263.5zM274 727q0 -143 45.5 -259t123 -189t174.5 -111.5t204 -38.5q108 0 205 38.5t174 111.5t122.5 189t45.5 259t-45.5 258.5
t-122.5 188t-174 111t-205 38.5q-85 0 -164.5 -24t-149.5 -73t-121.5 -119t-81.5 -167.5t-30 -212.5z" />
    <glyph glyph-name="uni1EE3" unicode="&#x1ee3;" horiz-adv-x="1167" 
d="M471 -305q0 47 33.5 81t79.5 34q47 0 80.5 -34t33.5 -81q0 -46 -33.5 -79.5t-80.5 -33.5q-46 0 -79.5 33.5t-33.5 79.5zM584 1010q88 0 170 -29q68 1 101.5 47t33.5 117h155q0 -191 -155 -240q88 -70 137 -177t49 -236q0 -227 -138.5 -374t-352.5 -147t-353 147t-139 374
q0 226 139 372t353 146zM584 862q-137 0 -232.5 -99.5t-95.5 -270.5q0 -173 95.5 -273t232.5 -100t232 100t95 273q0 171 -95 270.5t-232 99.5z" />
    <glyph glyph-name="uni1EE4" unicode="&#x1ee4;" horiz-adv-x="1396" 
d="M586 -305q0 47 33 81t79 34q47 0 81 -34t34 -81q0 -46 -34 -79.5t-81 -33.5q-46 0 -79 33.5t-33 79.5zM698 -29q-228 0 -371 137t-143 384v960h172v-956q0 -177 88 -272t254 -95t254 95t88 272v956h172v-960q0 -247 -143 -384t-371 -137z" />
    <glyph glyph-name="uni1EE5" unicode="&#x1ee5;" horiz-adv-x="1126" 
d="M418 -305q0 47 33 81t79 34q47 0 81 -34t34 -81q0 -46 -34 -79.5t-81 -33.5q-46 0 -79 33.5t-33 79.5zM811 133q-35 -74 -115.5 -118t-179.5 -44q-173 0 -271 111.5t-98 282.5v616h164v-590q0 -116 60 -194t182 -78q120 0 185 74.5t65 195.5v592h164v-797q0 -106 12 -184
h-158q-10 38 -10 125v8z" />
    <glyph glyph-name="uni1EE6" unicode="&#x1ee6;" horiz-adv-x="1396" 
d="M846 1749q0 -82 -88 -174h-113q74 82 74 145q0 76 -86 76q-34 0 -55 -6v111q46 6 94 6q74 -2 124 -41t50 -117zM698 -29q-228 0 -371 137t-143 384v960h172v-956q0 -177 88 -272t254 -95t254 95t88 272v956h172v-960q0 -247 -143 -384t-371 -137z" />
    <glyph glyph-name="uni1EE7" unicode="&#x1ee7;" horiz-adv-x="1126" 
d="M709 1311q0 -82 -88 -174h-113q74 82 74 145q0 76 -86 76q-35 0 -56 -6v110q46 6 95 6q75 -2 124.5 -40.5t49.5 -116.5zM811 133q-35 -74 -115.5 -118t-179.5 -44q-173 0 -271 111.5t-98 282.5v616h164v-590q0 -116 60 -194t182 -78q120 0 185 74.5t65 195.5v592h164
v-797q0 -106 12 -184h-158q-10 38 -10 125v8z" />
    <glyph glyph-name="uni1EE8" unicode="&#x1ee8;" horiz-adv-x="1396" 
d="M754 1575h-129l118 264h189zM698 -29q-228 0 -371 137t-143 384v960h172v-956q0 -177 88 -272t254 -95t254 95t88 272v956h58q68 1 100.5 46.5t32.5 117.5h155q0 -204 -174 -244v-880q0 -247 -143 -384t-371 -137z" />
    <glyph glyph-name="uni1EE9" unicode="&#x1ee9;" horiz-adv-x="1126" 
d="M616 1137h-129l119 264h189zM811 133q-35 -74 -115.5 -118t-179.5 -44q-173 0 -271 111.5t-98 282.5v616h164v-590q0 -116 60 -194t182 -78q120 0 185 74.5t65 195.5v592h43q71 0 105 45.5t34 118.5h156q0 -204 -174 -244v-717q0 -106 12 -184h-158q-10 38 -10 125v8z
" />
    <glyph glyph-name="uni1EEA" unicode="&#x1eea;" horiz-adv-x="1396" 
d="M793 1575h-129l-179 264h189zM698 -29q-228 0 -371 137t-143 384v960h172v-956q0 -177 88 -272t254 -95t254 95t88 272v956h58q68 1 100.5 46.5t32.5 117.5h155q0 -204 -174 -244v-880q0 -247 -143 -384t-371 -137z" />
    <glyph glyph-name="uni1EEB" unicode="&#x1eeb;" horiz-adv-x="1126" 
d="M637 1137h-129l-178 264h188zM811 133q-35 -74 -115.5 -118t-179.5 -44q-173 0 -271 111.5t-98 282.5v616h164v-590q0 -116 60 -194t182 -78q120 0 185 74.5t65 195.5v592h43q71 0 105 45.5t34 118.5h156q0 -204 -174 -244v-717q0 -106 12 -184h-158q-10 38 -10 125v8z
" />
    <glyph glyph-name="uni1EEC" unicode="&#x1eec;" horiz-adv-x="1396" 
d="M846 1749q0 -82 -88 -174h-113q74 82 74 145q0 76 -86 76q-34 0 -55 -6v111q46 6 94 6q74 -2 124 -41t50 -117zM698 -29q-228 0 -371 137t-143 384v960h172v-956q0 -177 88 -272t254 -95t254 95t88 272v956h58q68 1 100.5 46.5t32.5 117.5h155q0 -204 -174 -244v-880
q0 -247 -143 -384t-371 -137z" />
    <glyph glyph-name="uni1EED" unicode="&#x1eed;" horiz-adv-x="1126" 
d="M709 1311q0 -82 -88 -174h-113q74 82 74 145q0 76 -86 76q-35 0 -56 -6v110q46 6 95 6q75 -2 124.5 -40.5t49.5 -116.5zM811 133q-35 -74 -115.5 -118t-179.5 -44q-173 0 -271 111.5t-98 282.5v616h164v-590q0 -116 60 -194t182 -78q120 0 185 74.5t65 195.5v592h43
q71 0 105 45.5t34 118.5h156q0 -204 -174 -244v-717q0 -106 12 -184h-158q-10 38 -10 125v8z" />
    <glyph glyph-name="uni1EEE" unicode="&#x1eee;" horiz-adv-x="1396" 
d="M993 1798q0 -111 -49 -167t-129 -56q-45 0 -85 25.5t-74.5 51t-65.5 25.5q-26 0 -42 -27t-16 -71h-120q0 112 49.5 166.5t130.5 54.5q45 0 85 -25t74.5 -50t65.5 -25q27 0 42 27t15 71h119zM698 -29q-228 0 -371 137t-143 384v960h172v-956q0 -177 88 -272t254 -95
t254 95t88 272v956h58q68 1 100.5 46.5t32.5 117.5h155q0 -204 -174 -244v-880q0 -247 -143 -384t-371 -137z" />
    <glyph glyph-name="uni1EEF" unicode="&#x1eef;" horiz-adv-x="1126" 
d="M856 1360q0 -111 -49 -167t-129 -56q-45 0 -85 25.5t-74.5 51t-65.5 25.5q-26 0 -42 -27t-16 -71h-121q0 112 50 166.5t131 54.5q45 0 85 -25t74.5 -50t65.5 -25q27 0 42 27t15 71h119zM811 133q-35 -74 -115.5 -118t-179.5 -44q-173 0 -271 111.5t-98 282.5v616h164
v-590q0 -116 60 -194t182 -78q120 0 185 74.5t65 195.5v592h43q71 0 105 45.5t34 118.5h156q0 -204 -174 -244v-717q0 -106 12 -184h-158q-10 38 -10 125v8z" />
    <glyph glyph-name="uni1EF0" unicode="&#x1ef0;" horiz-adv-x="1396" 
d="M586 -305q0 47 33 81t79 34q47 0 81 -34t34 -81q0 -46 -34 -79.5t-81 -33.5q-46 0 -79 33.5t-33 79.5zM698 -29q-228 0 -371 137t-143 384v960h172v-956q0 -177 88 -272t254 -95t254 95t88 272v956h58q68 1 100.5 46.5t32.5 117.5h155q0 -204 -174 -244v-880
q0 -247 -143 -384t-371 -137z" />
    <glyph glyph-name="uni1EF1" unicode="&#x1ef1;" horiz-adv-x="1126" 
d="M418 -305q0 47 33 81t79 34q47 0 81 -34t34 -81q0 -46 -34 -79.5t-81 -33.5q-46 0 -79 33.5t-33 79.5zM811 133q-35 -74 -115.5 -118t-179.5 -44q-173 0 -271 111.5t-98 282.5v616h164v-590q0 -116 60 -194t182 -78q120 0 185 74.5t65 195.5v592h43q71 0 105 45.5
t34 118.5h156q0 -204 -174 -244v-717q0 -106 12 -184h-158q-10 38 -10 125v8z" />
    <glyph glyph-name="Ygrave" unicode="&#x1ef2;" horiz-adv-x="1294" 
d="M51 1452h201l395 -674l395 674h201l-510 -831v-621h-172v621zM729 1575h-129l-178 264h188z" />
    <glyph glyph-name="ygrave" unicode="&#x1ef3;" horiz-adv-x="1071" 
d="M227 -389l238 506l-422 864h188l324 -694l305 694h178l-628 -1370h-183zM627 1137h-129l-179 264h189z" />
    <glyph glyph-name="uni1EF4" unicode="&#x1ef4;" horiz-adv-x="1294" 
d="M535 -305q0 47 33 81t79 34q47 0 81 -34t34 -81q0 -46 -34 -79.5t-81 -33.5q-46 0 -79 33.5t-33 79.5zM51 1452h201l395 -674l395 674h201l-510 -831v-621h-172v621z" />
    <glyph glyph-name="uni1EF5" unicode="&#x1ef5;" horiz-adv-x="1071" 
d="M637 -305q0 47 33.5 81t79.5 34q47 0 80.5 -34t33.5 -81q0 -46 -33.5 -79.5t-80.5 -33.5q-46 0 -79.5 33.5t-33.5 79.5zM227 -389l238 506l-422 864h188l324 -694l305 694h178l-628 -1370h-183z" />
    <glyph glyph-name="uni1EF6" unicode="&#x1ef6;" horiz-adv-x="1294" 
d="M795 1749q0 -82 -88 -174h-113q74 82 74 145q0 76 -86 76q-35 0 -56 -6v111q47 6 95 6q74 -2 124 -41t50 -117zM51 1452h201l395 -674l395 674h201l-510 -831v-621h-172v621z" />
    <glyph glyph-name="uni1EF7" unicode="&#x1ef7;" horiz-adv-x="1071" 
d="M688 1311q0 -82 -88 -174h-113q74 82 74 145q0 76 -86 76q-34 0 -55 -6v110q47 6 94 6q75 -2 124.5 -40.5t49.5 -116.5zM227 -389l238 506l-422 864h188l324 -694l305 694h178l-628 -1370h-183z" />
    <glyph glyph-name="uni1EF8" unicode="&#x1ef8;" horiz-adv-x="1294" 
d="M950 1798q0 -111 -49 -167t-129 -56q-45 0 -85 25.5t-74.5 51t-65.5 25.5q-26 0 -42 -27t-16 -71h-120q0 112 49.5 166.5t130.5 54.5q45 0 85 -25t74.5 -50t65.5 -25q27 0 42 27t15 71h119zM51 1452h201l395 -674l395 674h201l-510 -831v-621h-172v621z" />
    <glyph glyph-name="uni1EF9" unicode="&#x1ef9;" horiz-adv-x="1071" 
d="M831 1360q0 -111 -49 -167t-129 -56q-45 0 -85 25.5t-74.5 51t-65.5 25.5q-26 0 -41.5 -27t-15.5 -71h-121q0 112 49.5 166.5t130.5 54.5q45 0 85 -25t74.5 -50t65.5 -25q27 0 42.5 27t15.5 71h118zM227 -389l238 506l-422 864h188l324 -694l305 694h178l-628 -1370h-183
z" />
    <glyph glyph-name="uni2007" unicode="&#x2007;" horiz-adv-x="1253" 
 />
    <glyph glyph-name="uni2008" unicode="&#x2008;" horiz-adv-x="495" 
 />
    <glyph glyph-name="uni200B" unicode="&#x200b;" horiz-adv-x="0" 
 />
    <glyph glyph-name="endash" unicode="&#x2013;" horiz-adv-x="1316" 
d="M139 516v143h1039v-143h-1039z" />
    <glyph glyph-name="emdash" unicode="&#x2014;" horiz-adv-x="2199" 
d="M139 516v143h1921v-143h-1921z" />
    <glyph glyph-name="quoteleft" unicode="&#x2018;" horiz-adv-x="497" 
d="M375 1065q0 -50 -36 -85.5t-91 -35.5q-59 0 -99 44t-40 126t24 148.5t64 108t85 65.5t93 30v-90q-71 -13 -113.5 -71.5t-42.5 -130.5q10 10 41 10q49 0 82 -32.5t33 -86.5z" />
    <glyph glyph-name="quoteright" unicode="&#x2019;" horiz-adv-x="499" 
d="M137 1348q0 50 36 85t91 35q59 0 99 -44t40 -126t-24 -148.5t-64 -108t-85 -65.5t-93 -30v90q71 13 113.5 72t42.5 131q-10 -10 -41 -10q-49 0 -82 32.5t-33 86.5z" />
    <glyph glyph-name="quotesinglbase" unicode="&#x201a;" horiz-adv-x="509" 
d="M123 111q0 50 36 85t91 35q59 0 99 -44t40 -126t-24 -148.5t-64 -108t-85 -65.5t-93 -30v90q71 13 113.5 72t42.5 131q-10 -10 -41 -10q-49 0 -82 32.5t-33 86.5z" />
    <glyph glyph-name="quotedblleft" unicode="&#x201c;" horiz-adv-x="825" 
d="M375 1065q0 -50 -36 -85.5t-91 -35.5q-59 0 -99 44t-40 126t24 148.5t64 108t85 65.5t93 30v-90q-71 -13 -113.5 -71.5t-42.5 -130.5q10 10 41 10q49 0 82 -32.5t33 -86.5zM702 1065q0 -50 -36 -85.5t-91 -35.5q-59 0 -99 44t-40 126t24 148.5t64 108t85 65.5t93 30v-90
q-71 -13 -113 -71.5t-42 -130.5q10 10 41 10q49 0 81.5 -32.5t32.5 -86.5z" />
    <glyph glyph-name="quotedblright" unicode="&#x201d;" horiz-adv-x="827" 
d="M465 1348q0 50 36 85t91 35q59 0 99 -44t40 -126t-24 -148.5t-64 -108t-85 -65.5t-93 -30v90q71 13 113.5 72t42.5 131q-10 -10 -41 -10q-49 0 -82 32.5t-33 86.5zM137 1348q0 50 36 85t91 35q59 0 99 -44t40 -126t-24 -148.5t-64 -108t-85 -65.5t-93 -30v90
q71 13 113.5 72t42.5 131q-10 -10 -41 -10q-49 0 -82 32.5t-33 86.5z" />
    <glyph glyph-name="quotedblbase" unicode="&#x201e;" horiz-adv-x="837" 
d="M123 111q0 50 36 85t91 35q59 0 99 -44t40 -126t-24 -148.5t-64 -108t-85 -65.5t-93 -30v90q71 13 113.5 72t42.5 131q-10 -10 -41 -10q-49 0 -82 32.5t-33 86.5zM451 111q0 50 36 85t91 35q59 0 99 -44t40 -126t-24 -148.5t-64 -108t-85 -65.5t-93 -30v90q71 13 113 72
t42 131q-10 -10 -41 -10q-49 0 -81.5 32.5t-32.5 86.5z" />
    <glyph glyph-name="dagger" unicode="&#x2020;" horiz-adv-x="839" 
d="M348 332v661h-268v144h268v315h144v-315h268v-144h-268v-661h-144z" />
    <glyph glyph-name="daggerdbl" unicode="&#x2021;" horiz-adv-x="921" 
d="M389 459v534h-268v144h268v315h143v-315h269v-144h-269v-534h269v-144h-269v-315h-143v315h-268v144h268z" />
    <glyph glyph-name="bullet" unicode="&#x2022;" horiz-adv-x="1146" 
d="M152 586q0 178 122 301t299 123t299.5 -123t122.5 -301t-122.5 -301t-299.5 -123t-299 123t-122 301z" />
    <glyph glyph-name="ellipsis" unicode="&#x2026;" horiz-adv-x="1529" 
d="M121 111q0 50 35 84t86 34q50 0 84 -34.5t34 -83.5q0 -51 -34 -86t-84 -35q-51 0 -86 35t-35 86zM645 111q0 50 35 84t86 34q50 0 84.5 -34.5t34.5 -83.5q0 -51 -34.5 -86t-84.5 -35q-51 0 -86 35t-35 86zM1169 111q0 50 35 84t86 34q50 0 84.5 -34.5t34.5 -83.5
q0 -51 -34.5 -86t-84.5 -35q-51 0 -86 35t-35 86z" />
    <glyph glyph-name="perthousand" unicode="&#x2030;" horiz-adv-x="2086" 
d="M1022 303q0 -78 51 -130t125 -52q75 0 126.5 52t51.5 130t-51.5 130t-126.5 52q-74 0 -125 -52t-51 -130zM1524 303q0 -78 51 -130t125 -52q75 0 126.5 52t51.5 130t-51.5 130t-126.5 52q-74 0 -125 -52t-51 -130zM879 303q0 134 94 227t225 93q78 0 144 -36.5t108 -99.5
q42 63 107 99.5t143 36.5q133 0 228 -93t95 -227t-95 -226.5t-228 -92.5q-78 0 -143 35.5t-107 97.5q-42 -61 -108 -97t-144 -36q-132 0 -225.5 92.5t-93.5 226.5zM211 1028q0 -78 51 -130t125 -52q78 0 128 52t50 130t-50 130t-128 52q-74 0 -125 -52t-51 -130zM68 1028
q0 134 94 227t225 93q133 0 228.5 -93t95.5 -227t-95.5 -226.5t-228.5 -92.5q-132 0 -225.5 92.5t-93.5 226.5zM231 0l961 1327h158l-957 -1327h-162z" />
    <glyph glyph-name="guilsinglleft" unicode="&#x2039;" horiz-adv-x="628" 
d="M365 199l-273 391l273 391h161l-268 -391l268 -391h-161z" />
    <glyph glyph-name="guilsinglright" unicode="&#x203a;" horiz-adv-x="628" 
d="M102 199l269 391l-269 391h162l273 -391l-273 -391h-162z" />
    <glyph glyph-name="uni2042" unicode="&#x2042;" horiz-adv-x="1695" 
d="M909 1196l240 82l35 -113l-240 -82l158 -209l-96 -71l-160 215l-152 -213l-96 72l154 206l-242 82l37 113l237 -84v258h125v-256zM469 381l240 82l34 -113l-239 -82l158 -209l-97 -71l-159 215l-152 -213l-96 71l153 207l-241 82l36 113l238 -84v258h125v-256zM1352 381
l239 82l35 -113l-240 -82l158 -209l-96 -71l-160 215l-151 -213l-97 71l154 207l-242 82l37 113l238 -84v258h125v-256z" />
    <glyph glyph-name="fraction" unicode="&#x2044;" horiz-adv-x="356" 
d="M-395 0l960 1327h158l-956 -1327h-162z" />
    <glyph glyph-name="uni2051" unicode="&#x2051;" horiz-adv-x="907" 
d="M516 1196l240 82l35 -113l-240 -82l158 -209l-97 -71l-159 215l-152 -213l-96 72l153 206l-241 82l37 113l237 -84v258h125v-256zM516 381l240 82l35 -113l-240 -82l158 -209l-97 -71l-159 215l-152 -213l-96 71l153 207l-241 82l37 113l237 -84v258h125v-256z" />
    <glyph glyph-name="uni2070" unicode="&#x2070;" horiz-adv-x="778" 
d="M219 1077q0 -268 170 -268q172 0 172 268q0 271 -172 271q-170 0 -170 -271zM80 1077q0 173 74 273q85 114 235 114q153 0 238 -114q71 -96 71 -273q0 -172 -71 -270q-86 -115 -238 -115q-149 0 -235 115q-74 102 -74 270z" />
    <glyph glyph-name="uni2074" unicode="&#x2074;" horiz-adv-x="768" 
d="M55 993l365 459h155v-475h136v-115h-136v-155h-137v155h-383v131zM438 1296l-252 -319h252v319z" />
    <glyph glyph-name="uni2075" unicode="&#x2075;" horiz-adv-x="704" 
d="M178 938q12 -60 56.5 -95.5t107.5 -35.5q68 0 111 37.5t43 101.5q0 67 -43 105.5t-111 38.5q-81 0 -143 -62l-115 43l100 381h412v-115h-322l-53 -202q55 61 158 61q115 0 184.5 -67t69.5 -177q0 -112 -78 -186t-213 -74q-106 0 -185.5 58t-97.5 137z" />
    <glyph glyph-name="uni2076" unicode="&#x2076;" horiz-adv-x="747" 
d="M614 1323q-55 31 -133 31q-112 0 -182 -65.5t-84 -182.5q24 45 79 73.5t120 28.5q119 0 191.5 -67.5t72.5 -188.5q0 -115 -84.5 -187.5t-210.5 -72.5q-60 0 -114 21.5t-97 63t-68.5 108t-25.5 149.5q0 198 111.5 315t281.5 117q110 0 174 -39zM229 952q0 -66 46.5 -105.5
t109.5 -39.5t109.5 39.5t46.5 105.5q0 65 -46.5 104.5t-109.5 39.5t-109.5 -39.5t-46.5 -104.5z" />
    <glyph glyph-name="uni2077" unicode="&#x2077;" horiz-adv-x="688" 
d="M647 1329q-37 -31 -66 -58.5t-75.5 -85.5t-79.5 -120t-63 -157t-41 -201h-144q11 111 43 213.5t67.5 169.5t78.5 125.5t67 83t41 38.5h-426v115h598v-123z" />
    <glyph glyph-name="uni2078" unicode="&#x2078;" horiz-adv-x="737" 
d="M369 1143q61 0 97 29t36 79q0 46 -36 75.5t-97 29.5t-97 -29.5t-36 -75.5q0 -49 36.5 -78.5t96.5 -29.5zM369 805q73 0 113 32t40 83q0 52 -40.5 83t-112.5 31q-71 0 -111.5 -31t-40.5 -83q0 -51 40 -83t112 -32zM369 692q-136 0 -213.5 61t-77.5 156q0 60 39 109t106 72
q-56 20 -88.5 65t-32.5 100q0 92 75 151.5t192 59.5t192.5 -59.5t75.5 -151.5q0 -55 -33.5 -100t-89.5 -65q67 -23 106 -72t39 -109q0 -96 -76.5 -156.5t-213.5 -60.5z" />
    <glyph glyph-name="uni2079" unicode="&#x2079;" horiz-adv-x="745" 
d="M135 840q64 -31 135 -31q113 0 182.5 61.5t79.5 186.5q-25 -47 -79.5 -76t-116.5 -29q-117 0 -191.5 69.5t-74.5 186.5q0 114 84.5 187t210.5 73q127 0 214 -89.5t87 -252.5q0 -203 -103.5 -318.5t-281.5 -115.5q-112 0 -179 41zM514 1208q0 65 -46 105.5t-110 40.5
t-108.5 -40.5t-44.5 -105.5t44.5 -105t108.5 -40q65 0 110.5 40t45.5 105z" />
    <glyph glyph-name="uni2080" unicode="&#x2080;" horiz-adv-x="786" 
d="M223 215q0 -268 170 -268q172 0 172 268q0 270 -172 270q-170 0 -170 -270zM84 215q0 172 74 272q86 115 235 115q152 0 238 -115q71 -96 71 -272q0 -172 -71 -270q-86 -115 -238 -115q-149 0 -235 115q-74 102 -74 270z" />
    <glyph glyph-name="uni2081" unicode="&#x2081;" horiz-adv-x="471" 
d="M227 -156v523h-176v77q73 6 123.5 47.5t61.5 98.5h126v-746h-135z" />
    <glyph glyph-name="uni2082" unicode="&#x2082;" horiz-adv-x="714" 
d="M96 309q-6 18 -6 58q0 100 73.5 167.5t194.5 67.5q118 0 190.5 -66.5t72.5 -162.5q0 -135 -146 -226l-147 -92q-68 -44 -76 -96h375v-115h-541v19q0 186 168 289l131 81q98 61 98 142q0 47 -34.5 80.5t-92.5 33.5q-61 0 -98 -36t-37 -97q0 -33 6 -49z" />
    <glyph glyph-name="uni2083" unicode="&#x2083;" horiz-adv-x="741" 
d="M252 293l213 184h-373v115h547v-113l-217 -184q10 2 29 2q82 0 143 -61.5t61 -161.5q0 -102 -81 -173t-209 -71q-123 0 -200.5 61.5t-96.5 151.5l118 47q10 -66 59 -105.5t117 -39.5t112 37t44 92q0 65 -43.5 96t-109.5 31q-39 0 -60 -8z" />
    <glyph glyph-name="uni2084" unicode="&#x2084;" horiz-adv-x="774" 
d="M59 131l365 459h156v-475h135v-115h-135v-156h-138v156h-383v131zM442 434l-252 -319h252v319z" />
    <glyph glyph-name="uni2085" unicode="&#x2085;" horiz-adv-x="708" 
d="M180 76q12 -60 56.5 -95.5t107.5 -35.5q68 0 111 37t43 102q0 67 -43 105t-111 38q-82 0 -143 -61l-115 43l100 381h412v-115h-322l-53 -203q56 62 158 62q115 0 184.5 -67t69.5 -177q0 -112 -78 -186t-213 -74q-106 0 -185.5 58t-97.5 137z" />
    <glyph glyph-name="uni2086" unicode="&#x2086;" horiz-adv-x="753" 
d="M618 461q-55 31 -133 31q-112 0 -182 -65.5t-84 -182.5q24 45 79 73.5t120 28.5q119 0 191.5 -67.5t72.5 -188.5q0 -115 -84.5 -187.5t-210.5 -72.5q-60 0 -114 21.5t-97 63t-68.5 108t-25.5 149.5q0 198 111.5 315t281.5 117q110 0 174 -39zM233 90q0 -66 46.5 -105.5
t109.5 -39.5t109.5 39.5t46.5 105.5q0 65 -46.5 104t-109.5 39t-109.5 -39t-46.5 -104z" />
    <glyph glyph-name="uni2087" unicode="&#x2087;" horiz-adv-x="692" 
d="M649 467q-37 -31 -66.5 -58.5t-75.5 -85.5t-79 -120.5t-63 -157.5t-41 -201h-144q11 111 43 213.5t67.5 170t78.5 126t67 83t41 38.5h-426v115h598v-123z" />
    <glyph glyph-name="uni2088" unicode="&#x2088;" horiz-adv-x="745" 
d="M373 281q61 0 97 29t36 79q0 46 -36 75.5t-97 29.5t-97 -29.5t-36 -75.5q0 -49 36.5 -78.5t96.5 -29.5zM373 -57q73 0 113 31.5t40 82.5q0 52 -40.5 83.5t-112.5 31.5q-71 0 -111.5 -31.5t-40.5 -83.5q0 -51 40 -82.5t112 -31.5zM373 -170q-136 0 -213.5 61t-77.5 156
q0 60 39 108.5t106 71.5q-56 20 -88.5 65.5t-32.5 100.5q0 92 75 151.5t192 59.5t192.5 -59.5t75.5 -151.5q0 -55 -33.5 -100.5t-89.5 -65.5q68 -23 107 -71.5t39 -108.5q0 -95 -77 -156t-214 -61z" />
    <glyph glyph-name="uni2089" unicode="&#x2089;" horiz-adv-x="751" 
d="M139 -23q61 -30 135 -30q113 0 183 61.5t80 186.5q-25 -47 -80 -76t-117 -29q-117 0 -191.5 69.5t-74.5 186.5q0 114 84.5 187t210.5 73q127 0 214 -89.5t87 -252.5q0 -203 -103.5 -318.5t-281.5 -115.5q-112 0 -179 41zM518 346q0 65 -46 105.5t-110 40.5t-108.5 -40.5
t-44.5 -105.5t44.5 -105t108.5 -40q65 0 110.5 40t45.5 105z" />
    <glyph glyph-name="Euro" unicode="&#x20ac;" horiz-adv-x="1390" 
d="M256 571q-4 50 -4 95q0 36 4 86h-164v135h191q32 115 101 206.5t157 147.5t185.5 85.5t195.5 29.5q211 0 348 -94l-70 -134q-105 76 -278 76q-95 0 -185.5 -33.5t-167 -107t-110.5 -176.5h626l-67 -135h-592q-6 -41 -6 -86q0 -60 6 -95h508l-70 -135h-401
q50 -151 176 -232t276 -81q201 0 322 115l84 -123q-164 -144 -406 -144q-134 0 -258 50t-226 157.5t-146 257.5h-193v135h164z" />
    <glyph glyph-name="uni2113" unicode="&#x2113;" horiz-adv-x="808" 
d="M80 532q55 13 141 54v452q0 150 70.5 234t187.5 84q126 0 193 -78t67 -217q0 -165 -94.5 -315t-259.5 -250v-189q0 -83 38.5 -124.5t102.5 -41.5q108 0 179 56v-150q-57 -57 -185 -57q-147 0 -223 83.5t-76 225.5v121q-90 -31 -141 -41v153zM575 1061q0 145 -90 145
q-100 0 -100 -166v-352q190 161 190 373z" />
    <glyph glyph-name="trademark" unicode="&#x2122;" horiz-adv-x="1775" 
d="M446 1333v-618h-133v618h-233v119h600v-119h-234zM1479 715v508l-224 -508h-106l-217 502v-502h-133v737h172l235 -547l236 547h170v-737h-133z" />
    <glyph glyph-name="Omega" unicode="&#x2126;" horiz-adv-x="1687" 
d="M844 1327q-103 0 -200.5 -37t-175.5 -104t-125.5 -172t-47.5 -230q0 -112 39.5 -211t105.5 -168t146 -114.5t166 -61.5v-229h-617v152h430q-86 29 -164 85.5t-141.5 135.5t-101 185.5t-37.5 223.5q0 158 59.5 291.5t160 221.5t230.5 137t273 49t273 -49t230.5 -137
t160 -221.5t59.5 -291.5q0 -117 -37.5 -223t-101 -185t-142.5 -136t-166 -86h432v-152h-616v229q86 16 166 61.5t146 114.5t105.5 168t39.5 211q0 125 -47.5 230t-125.5 172t-175.5 104t-200.5 37z" />
    <glyph glyph-name="uni2160" unicode="&#x2160;" horiz-adv-x="1001" 
d="M903 1174h-317v-1020h317v-154h-805v154h318v1020h-318v153h805v-153z" />
    <glyph glyph-name="uni2161" unicode="&#x2161;" horiz-adv-x="1540" 
d="M1442 0h-1344v154h301v1020h-301v153h1344v-153h-301v-1020h301v-154zM971 1174h-404v-1020h404v1020z" />
    <glyph glyph-name="uni2162" unicode="&#x2162;" horiz-adv-x="2097" 
d="M1999 0h-1901v154h301v1020h-301v153h1901v-153h-301v-1020h301v-154zM1528 1174h-393v-1020h393v1020zM569 154h396v1020h-396v-1020z" />
    <glyph glyph-name="uni2163" unicode="&#x2163;" horiz-adv-x="2023" 
d="M1925 0h-1827v154h283v1020h-283v153h1825v-153h-235l-351 -1020h588v-154zM551 154h520l-346 1020h-174v-1020zM1516 1174h-613l305 -930z" />
    <glyph glyph-name="uni2164" unicode="&#x2164;" horiz-adv-x="1601" 
d="M1505 1174h-225l-352 -1020h569v-154h-1393v154h560l-347 1020h-223v153h1411v-153zM1108 1174h-612l305 -930z" />
    <glyph glyph-name="uni2165" unicode="&#x2165;" horiz-adv-x="2023" 
d="M1927 0h-1827v154h580l-346 1020h-234v153h1825v-153h-274v-1020h276v-154zM944 154h537v1020h-185zM1124 1174h-612l305 -930z" />
    <glyph glyph-name="uni2166" unicode="&#x2166;" horiz-adv-x="2613" 
d="M2515 0h-2415v154h578l-344 1020h-234v153h2415v-153h-301v-1020h301v-154zM2044 1174h-395v-1020h395v1020zM944 154h535v1020h-185zM1122 1174h-610l303 -930z" />
    <glyph glyph-name="uni2167" unicode="&#x2167;" horiz-adv-x="3123" 
d="M3025 0h-2925v154h572l-338 1020h-234v153h2925v-153h-293v-1020h293v-154zM1638 154h379v1020h-379v-1020zM2185 154h377v1020h-377v-1020zM934 154h534v1020h-186zM1106 1174h-594l297 -930z" />
    <glyph glyph-name="uni2168" unicode="&#x2168;" horiz-adv-x="1961" 
d="M1864 0h-1766v154h281v1020h-281v153h1764v-153h-213l-365 -523l350 -497h230v-154zM729 1174h-180v-1020h190l359 497zM1190 782l268 392h-536zM928 154h514l-254 368z" />
    <glyph glyph-name="uni2169" unicode="&#x2169;" horiz-adv-x="1536" 
d="M1436 1174h-209l-367 -525l350 -495h228v-154h-1338v154h217l357 495l-369 525h-205v153h1336v-153zM766 780l270 394h-540zM506 154h512l-254 366z" />
    <glyph glyph-name="uni216C" unicode="&#x216c;" horiz-adv-x="1288" 
d="M1204 0h-1106v154h275v1020h-275v153h742v-153h-297v-1020h493v417h168v-571z" />
    <glyph glyph-name="uni216D" unicode="&#x216d;" horiz-adv-x="1470" 
d="M1327 0h-168v160q-134 -189 -405 -189q-126 0 -243 47t-209 133t-147 219.5t-55 293.5q0 131 36 244t98.5 194t145.5 139t177.5 86.5t194.5 28.5q264 0 403 -180v151h166v-453h-166q-21 153 -123 240.5t-280 87.5q-99 0 -185.5 -34t-153.5 -99t-106 -169t-39 -236
q0 -134 38.5 -238.5t105.5 -169t153.5 -98t186.5 -33.5q97 0 174.5 29t125 78t74.5 107t33 122h168v-461z" />
    <glyph glyph-name="uni216E" unicode="&#x216e;" horiz-adv-x="1466" 
d="M739 1327q125 0 236 -43t198 -124.5t138 -210t51 -287.5q0 -127 -33.5 -235t-92.5 -186t-139.5 -132.5t-174 -81.5t-195.5 -27h-629v154h285v1020h-285v153h641zM731 154q91 0 172 31.5t146.5 92t104 160t38.5 224.5q0 123 -36.5 221.5t-100.5 161t-147 96t-179 33.5
h-176v-1020h178z" />
    <glyph glyph-name="uni216F" unicode="&#x216f;" horiz-adv-x="2150" 
d="M1069 231l465 1096h518v-153h-268v-1020h270v-154h-657v154h217v944l-477 -1098h-136l-475 1098v-944h230v-154h-658v154h258v1020h-258v153h508z" />
    <glyph glyph-name="arrowleft" unicode="&#x2190;" horiz-adv-x="2117" 
d="M86 590l477 401v-329h1430v-146h-1430v-326z" />
    <glyph glyph-name="arrowup" unicode="&#x2191;" horiz-adv-x="897" 
d="M831 1167h-311v-1468h-143v1468h-311l383 467z" />
    <glyph glyph-name="arrowright" unicode="&#x2192;" horiz-adv-x="2117" 
d="M1554 190v326h-1429v146h1429v329l478 -401z" />
    <glyph glyph-name="arrowdown" unicode="&#x2193;" horiz-adv-x="923" 
d="M461 -328l-400 478h326v1458h145v-1458h330z" />
    <glyph glyph-name="uni2196" unicode="&#x2196;" horiz-adv-x="1638" 
d="M678 1452l-229 -231l1136 -1135l-102 -102l-1137 1134l-231 -233v567h563z" />
    <glyph glyph-name="uni2197" unicode="&#x2197;" horiz-adv-x="1640" 
d="M1526 1452v-567l-234 233l-1136 -1134l-103 102l1139 1135l-229 231h563z" />
    <glyph glyph-name="uni2198" unicode="&#x2198;" horiz-adv-x="1640" 
d="M967 0l227 231l-1137 1135l103 102l1136 -1136l232 235v-567h-561z" />
    <glyph glyph-name="uni2199" unicode="&#x2199;" horiz-adv-x="1642" 
d="M113 0v567l231 -235l1139 1136l102 -102l-1139 -1135l230 -231h-563z" />
    <glyph glyph-name="uni21A9" unicode="&#x21a9;" horiz-adv-x="1781" 
d="M883 1352h374q117 0 216 -54.5t158 -151t59 -212.5q0 -122 -62.5 -219t-163 -148t-215.5 -51h-753v-289l-430 361l430 362v-288h745q125 0 215 74t90 198q0 123 -88.5 197.5t-218.5 74.5h-356v146z" />
    <glyph glyph-name="uni21B0" unicode="&#x21b0;" horiz-adv-x="1497" 
d="M53 1120l430 361v-289h852v-1192h-145v1049h-707v-291z" />
    <glyph glyph-name="uni21B1" unicode="&#x21b1;" horiz-adv-x="1572" 
d="M162 0v1192h928v289l430 -361l-430 -362v291h-783v-1049h-145z" />
    <glyph glyph-name="uni21B2" unicode="&#x21b2;" horiz-adv-x="1583" 
d="M1417 1452v-1186h-928v-289l-430 363l430 360v-288h783v1040h145z" />
    <glyph glyph-name="uni21B3" unicode="&#x21b3;" horiz-adv-x="1583" 
d="M1524 340l-430 -363v289h-928v1186h145v-1040h783v288z" />
    <glyph glyph-name="uni21B4" unicode="&#x21b4;" horiz-adv-x="1593" 
d="M68 1452h1175v-1053h289l-363 -430l-360 430h289v908h-1030v145z" />
    <glyph glyph-name="uni21B5" unicode="&#x21b5;" horiz-adv-x="2166" 
d="M57 727h269q0 153 59.5 292.5t160.5 240.5t240.5 161t292.5 60q199 0 373 -97l-66 -129q-141 80 -305 80q-167 0 -307.5 -81t-221.5 -221t-81 -306h287l-350 -414zM1833 725q0 -154 -60 -293.5t-161 -240.5t-240.5 -160.5t-292.5 -59.5q-198 0 -372 97l65 129
q141 -80 305 -80q125 0 238.5 48t195 129t129.5 193.5t48 237.5h-279l350 414l348 -414h-274z" />
    <glyph glyph-name="uni21C6" unicode="&#x21c6;" horiz-adv-x="2185" 
d="M96 1106l430 362v-288h1520v-146h-1520v-289zM1661 -12v288h-1518v146h1518v289l430 -363z" />
    <glyph glyph-name="partialdiff" unicode="&#x2202;" horiz-adv-x="1245" 
d="M494 1331q-153 0 -287 -63l-55 129q151 84 358 84q93 0 179 -23.5t169.5 -80.5t144.5 -143t98.5 -220.5t37.5 -302.5q0 -341 -143 -540.5t-414 -199.5q-96 0 -183 31.5t-155.5 90t-109 152t-40.5 208.5q0 140 68.5 249t181 165.5t248.5 56.5q124 0 222 -40t155 -106
q-18 268 -136.5 410.5t-338.5 142.5zM614 778q-165 0 -259.5 -95.5t-94.5 -240.5q0 -146 97 -232.5t235 -86.5q77 0 141 28.5t106.5 75t72 109t42.5 129t13 135.5q-55 88 -149 133t-204 45z" />
    <glyph glyph-name="increment" unicode="&#x2206;" horiz-adv-x="1454" 
d="M633 1452h186l576 -1452h-1336zM303 158h846l-426 1104z" />
    <glyph glyph-name="product" unicode="&#x220f;" horiz-adv-x="1351" 
d="M1028 0v1300h-700v-1300h-170v1452h1036v-1452h-166z" />
    <glyph glyph-name="summation" unicode="&#x2211;" horiz-adv-x="1216" 
d="M98 152l566 579l-566 567v154h1008v-158h-782l561 -563l-576 -573h797v-158h-1008v152z" />
    <glyph glyph-name="minus" unicode="&#x2212;" horiz-adv-x="1142" 
d="M139 520v137h865v-137h-865z" />
    <glyph glyph-name="uni2215" unicode="&#x2215;" horiz-adv-x="788" 
d="M143 0h-159l641 1327h159z" />
    <glyph glyph-name="uni2219" unicode="&#x2219;" horiz-adv-x="536" 
d="M141 582q0 54 35.5 90.5t89.5 36.5t91.5 -36.5t37.5 -90.5t-37.5 -90.5t-91.5 -36.5t-89.5 36.5t-35.5 90.5z" />
    <glyph glyph-name="radical" unicode="&#x221a;" horiz-adv-x="1382" 
d="M1118 1612l-545 -1612h-157l-381 1073h186l275 -801l491 1493h381v-153h-250z" />
    <glyph glyph-name="infinity" unicode="&#x221e;" horiz-adv-x="1669" 
d="M831 485q-97 -116 -185 -173.5t-189 -57.5q-148 0 -247 97.5t-99 242.5q0 143 99.5 242.5t246.5 99.5q198 0 381 -234q183 234 372 234q150 0 249.5 -99t99.5 -243q0 -145 -99.5 -242.5t-249.5 -97.5q-201 0 -379 231zM461 795q-91 0 -149 -58t-58 -145t58 -145t149 -58
q78 0 145 51.5t142 149.5q-80 103 -144 154t-143 51zM1208 389q91 0 148 58t57 145t-57 145t-148 58q-42 0 -79.5 -14t-73.5 -44.5t-64.5 -61.5t-68.5 -81q77 -101 142.5 -153t143.5 -52z" />
    <glyph glyph-name="integral" unicode="&#x222b;" horiz-adv-x="692" 
d="M264 1133q0 149 83 234t231 85h67v-149h-55q-75 0 -118.5 -46t-43.5 -135v-1192q0 -150 -80 -234.5t-225 -84.5h-78v149h57q74 0 118 48t44 137v1188z" />
    <glyph glyph-name="approxequal" unicode="&#x2248;" horiz-adv-x="1273" 
d="M1137 791q-112 -162 -287 -162q-88 0 -201 61l-96 53q-76 37 -133 37q-113 0 -191 -96l-92 82q114 166 281 166q87 0 205 -62l94 -51q78 -43 149 -43q107 0 183 94zM1137 393q-111 -160 -287 -160q-90 0 -201 60l-96 53q-67 37 -133 37q-113 0 -191 -96l-92 84
q114 164 281 164q87 0 205 -62l94 -51q78 -43 149 -43q104 0 183 94z" />
    <glyph glyph-name="notequal" unicode="&#x2260;" horiz-adv-x="1196" 
d="M496 322l-156 -213h-168l156 213h-189v139h291l191 258h-482v137h582l156 209h167l-155 -209h184v-137h-285l-190 -258h475v-139h-577z" />
    <glyph glyph-name="lessequal" unicode="&#x2264;" horiz-adv-x="1105" 
d="M967 254v-137h-836v137h836zM131 784l836 299v-147l-652 -225l652 -226v-147l-836 299v147z" />
    <glyph glyph-name="greaterequal" unicode="&#x2265;" horiz-adv-x="1105" 
d="M975 254v-137h-836v137h836zM975 637l-836 -299v147l654 226l-654 225v147l836 -299v-147z" />
    <glyph glyph-name="dotmath" unicode="&#x22c5;" horiz-adv-x="536" 
d="M141 582q0 54 35.5 90.5t89.5 36.5t91.5 -36.5t37.5 -90.5t-37.5 -90.5t-91.5 -36.5t-89.5 36.5t-35.5 90.5z" />
    <glyph glyph-name="uni24C5" unicode="&#x24c5;" horiz-adv-x="1687" 
d="M891 741q73 0 115.5 39t42.5 103q0 66 -42.5 104.5t-115.5 38.5h-156v-285h156zM735 627v-308h-133v822h309q117 0 195 -75t78 -181q0 -111 -77.5 -184.5t-195.5 -73.5h-176zM1591 725q0 -153 -58.5 -292.5t-158.5 -241t-238.5 -161t-291.5 -59.5t-292 59.5t-238.5 161
t-158.5 241t-59 292.5t59 293t158.5 241.5t238.5 161.5t292 60t291.5 -60t238.5 -161.5t158.5 -241.5t58.5 -293zM1456 725q0 128 -47.5 244.5t-128.5 202t-195 136t-241 50.5q-170 0 -311 -85.5t-221.5 -231t-80.5 -316.5q0 -170 80.5 -315t222 -230.5t310.5 -85.5
t310.5 85.5t221.5 230.5t80 315z" />
    <glyph glyph-name="filledbox" unicode="&#x25a0;" horiz-adv-x="1738" 
d="M152 1452h1435v-1452h-1435v1452z" />
    <glyph glyph-name="H22073" unicode="&#x25a1;" horiz-adv-x="1738" 
d="M152 0v1452h1435v-1452h-1435zM295 131h1151v1188h-1151v-1188z" />
    <glyph glyph-name="uni25AF" unicode="&#x25af;" horiz-adv-x="1142" 
d="M152 0v1452h839v-1452h-839zM291 137h561v1176h-561v-1176z" />
    <glyph glyph-name="triagup" unicode="&#x25b2;" horiz-adv-x="1818" 
d="M1767 0h-1716l862 1485z" />
    <glyph glyph-name="uni25B3" unicode="&#x25b3;" horiz-adv-x="1818" 
d="M1767 0h-1716l862 1485zM911 1200l-616 -1069h1227z" />
    <glyph glyph-name="lozenge" unicode="&#x25ca;" horiz-adv-x="1114" 
d="M557 197l309 528l-309 530l-313 -530zM485 1452h142l420 -727l-420 -725h-142l-417 725z" />
    <glyph glyph-name="circle" unicode="&#x25cb;" horiz-adv-x="1710" 
d="M98 725q0 154 60 294.5t161 242t241 161.5t294 60t294.5 -60t242 -161.5t161.5 -242t60 -294.5t-60 -294t-161.5 -241t-242 -161t-294.5 -60t-294 60t-241 161t-161 241t-60 294zM244 725q0 -169 81 -311.5t221.5 -225t307.5 -82.5t307.5 82.5t221.5 225t81 311.5
q0 127 -48 241.5t-129.5 197t-194.5 131t-238 48.5t-238 -48.5t-194.5 -131t-129.5 -197t-48 -241.5z" />
    <glyph glyph-name="H18533" unicode="&#x25cf;" horiz-adv-x="1710" 
d="M98 725q0 154 60 294.5t161 242t241 161.5t294 60t294.5 -60t242 -161.5t161.5 -242t60 -294.5t-60 -294t-161.5 -241t-242 -161t-294.5 -60t-294 60t-241 161t-161 241t-60 294z" />
    <glyph glyph-name="uni262E" unicode="&#x262e;" horiz-adv-x="1689" 
d="M1591 727q0 -153 -58.5 -293t-158.5 -241.5t-239 -161.5t-293 -60q-203 0 -374.5 101.5t-270.5 275.5t-99 379t99 378.5t270.5 274.5t374.5 101q205 0 377.5 -101t272 -274.5t99.5 -378.5zM1450 727q0 243 -154.5 419.5t-384.5 201.5v-519l443 -442q96 156 96 340z
M233 727q0 -183 95 -338l440 440v519q-228 -25 -381.5 -201.5t-153.5 -419.5zM911 104q206 21 353 168l-353 355v-523zM416 274q143 -149 352 -170v523z" />
    <glyph glyph-name="uni2713" unicode="&#x2713;" horiz-adv-x="1992" 
d="M637 -33l-576 643l105 99l479 -525l1194 1291l105 -103z" />
    <glyph glyph-name="uni2715" unicode="&#x2715;" horiz-adv-x="1566" 
d="M782 614l-610 -622l-102 102l610 625l-610 624l104 103l608 -623l609 623l104 -103l-612 -624l614 -625l-104 -102z" />
    <glyph glyph-name="uni2780" unicode="&#x2780;" horiz-adv-x="1689" 
d="M233 727q0 -174 81 -318.5t220.5 -227.5t307.5 -83t307.5 83t220 227.5t80.5 318.5q0 130 -47.5 246t-128.5 199.5t-194 132.5t-238 49t-238 -49t-194.5 -132.5t-129 -199.5t-47.5 -246zM98 727q0 205 99 378.5t270.5 274.5t374.5 101q152 0 291 -60t239 -161
t159.5 -240.5t59.5 -292.5t-59.5 -293t-159.5 -241.5t-239 -161.5t-291 -60q-203 0 -374.5 101.5t-270.5 275.5t-99 379zM799 356v523h-176v77q73 6 123 47.5t61 98.5h127v-746h-135z" />
    <glyph glyph-name="uni2781" unicode="&#x2781;" horiz-adv-x="1689" 
d="M233 727q0 -174 81 -318.5t220.5 -227.5t307.5 -83t307.5 83t220 227.5t80.5 318.5q0 130 -47.5 246t-128.5 199.5t-194 132.5t-238 49t-238 -49t-194.5 -132.5t-129 -199.5t-47.5 -246zM98 727q0 205 99 378.5t270.5 274.5t374.5 101q152 0 291 -60t239 -161
t159.5 -240.5t59.5 -292.5t-59.5 -293t-159.5 -241.5t-239 -161.5t-291 -60q-203 0 -374.5 101.5t-270.5 275.5t-99 379zM573 827q-6 18 -6 58q0 100 74 167.5t195 67.5q118 0 190 -66.5t72 -162.5q0 -134 -146 -225l-147 -93q-68 -44 -76 -96h375v-115h-541v19
q0 186 168 289l131 82q99 61 99 141q0 47 -34.5 81t-92.5 34q-61 0 -98.5 -36.5t-37.5 -97.5q0 -30 7 -49z" />
    <glyph glyph-name="uni2782" unicode="&#x2782;" horiz-adv-x="1689" 
d="M98 727q0 205 99 378.5t270.5 274.5t374.5 101q152 0 291 -60t239 -161t159.5 -240.5t59.5 -292.5t-59.5 -293t-159.5 -241.5t-239 -161.5t-291 -60q-203 0 -374.5 101.5t-270.5 275.5t-99 379zM233 727q0 -174 81 -318.5t220.5 -227.5t307.5 -83t307.5 83t220 227.5
t80.5 318.5q0 130 -47.5 246t-128.5 199.5t-194 132.5t-238 49t-238 -49t-194.5 -132.5t-129 -199.5t-47.5 -246zM721 799l211 184h-371v115h547v-111l-217 -184h6q98 -8 162.5 -64t64.5 -157q0 -103 -81 -173.5t-209 -70.5q-124 0 -202.5 61.5t-94.5 151.5l118 47
q10 -66 59 -105.5t117 -39.5q69 0 112.5 36.5t43.5 92.5q0 64 -43.5 95.5t-109.5 31.5q-27 0 -60 -11z" />
    <glyph glyph-name="uni2783" unicode="&#x2783;" horiz-adv-x="1689" 
d="M233 727q0 -174 81 -318.5t220.5 -227.5t307.5 -83t307.5 83t220 227.5t80.5 318.5q0 130 -47.5 246t-128.5 199.5t-194 132.5t-238 49t-238 -49t-194.5 -132.5t-129 -199.5t-47.5 -246zM98 727q0 205 99 378.5t270.5 274.5t374.5 101q152 0 291 -60t239 -161
t159.5 -240.5t59.5 -292.5t-59.5 -293t-159.5 -241.5t-239 -161.5t-291 -60q-203 0 -374.5 101.5t-270.5 275.5t-99 379zM483 649l365 459h156v-475h135v-115h-135v-156h-138v156h-383v131zM866 952l-252 -319h252v319z" />
    <glyph glyph-name="uni2784" unicode="&#x2784;" horiz-adv-x="1689" 
d="M233 727q0 -174 81 -318.5t220.5 -227.5t307.5 -83t307.5 83t220 227.5t80.5 318.5q0 130 -47.5 246t-128.5 199.5t-194 132.5t-238 49t-238 -49t-194.5 -132.5t-129 -199.5t-47.5 -246zM98 727q0 205 99 378.5t270.5 274.5t374.5 101q152 0 291 -60t239 -161
t159.5 -240.5t59.5 -292.5t-59.5 -293t-159.5 -241.5t-239 -161.5t-291 -60q-203 0 -374.5 101.5t-270.5 275.5t-99 379zM655 584q12 -60 56.5 -95.5t107.5 -35.5q68 0 111 37.5t43 101.5q0 67 -43 105t-111 38q-82 0 -143 -61l-115 43l101 381h411v-115h-321l-54 -203
q56 62 158 62q115 0 184.5 -67t69.5 -177q0 -112 -78 -186t-213 -74q-106 0 -185 57.5t-97 136.5z" />
    <glyph glyph-name="uni2785" unicode="&#x2785;" horiz-adv-x="1689" 
d="M233 727q0 -174 81 -318.5t220.5 -227.5t307.5 -83t307.5 83t220 227.5t80.5 318.5q0 130 -47.5 246t-128.5 199.5t-194 132.5t-238 49t-238 -49t-194.5 -132.5t-129 -199.5t-47.5 -246zM98 727q0 205 99 378.5t270.5 274.5t374.5 101q152 0 291 -60t239 -161
t159.5 -240.5t59.5 -292.5t-59.5 -293t-159.5 -241.5t-239 -161.5t-291 -60q-203 0 -374.5 101.5t-270.5 275.5t-99 379zM1049 973q-55 31 -134 31q-112 0 -182 -65.5t-84 -182.5q24 45 79 73.5t120 28.5q119 0 191.5 -67.5t72.5 -188.5q0 -115 -84.5 -187.5t-210.5 -72.5
q-60 0 -114 21.5t-97 63t-68.5 108t-25.5 149.5q0 198 111.5 315t281.5 117q110 0 174 -39zM664 602q0 -66 46 -105.5t109 -39.5t109.5 39.5t46.5 105.5q0 65 -46.5 104t-109.5 39t-109 -39t-46 -104z" />
    <glyph glyph-name="uni2786" unicode="&#x2786;" horiz-adv-x="1689" 
d="M233 727q0 -174 81 -318.5t220.5 -227.5t307.5 -83t307.5 83t220 227.5t80.5 318.5q0 130 -47.5 246t-128.5 199.5t-194 132.5t-238 49t-238 -49t-194.5 -132.5t-129 -199.5t-47.5 -246zM98 727q0 205 99 378.5t270.5 274.5t374.5 101q152 0 291 -60t239 -161
t159.5 -240.5t59.5 -292.5t-59.5 -293t-159.5 -241.5t-239 -161.5t-291 -60q-203 0 -374.5 101.5t-270.5 275.5t-99 379zM1145 971q-37 -31 -66.5 -58.5t-76 -86t-79.5 -120.5t-63 -157t-41 -201h-143q11 111 43 213.5t67.5 170t78.5 126t67 83t41 38.5h-426v115h598v-123z
" />
    <glyph glyph-name="uni2787" unicode="&#x2787;" horiz-adv-x="1689" 
d="M233 727q0 -174 81 -318.5t220.5 -227.5t307.5 -83t307.5 83t220 227.5t80.5 318.5q0 130 -47.5 246t-128.5 199.5t-194 132.5t-238 49t-238 -49t-194.5 -132.5t-129 -199.5t-47.5 -246zM98 727q0 205 99 378.5t270.5 274.5t374.5 101q152 0 291 -60t239 -161
t159.5 -240.5t59.5 -292.5t-59.5 -293t-159.5 -241.5t-239 -161.5t-291 -60q-203 0 -374.5 101.5t-270.5 275.5t-99 379zM840 793q61 0 97 29t36 79q0 46 -36 75.5t-97 29.5t-97 -29.5t-36 -75.5q0 -49 36.5 -78.5t96.5 -29.5zM840 455q73 0 113 31.5t40 82.5
q0 52 -40.5 83.5t-112.5 31.5q-71 0 -111.5 -31.5t-40.5 -83.5q0 -51 40 -82.5t112 -31.5zM840 342q-136 0 -213.5 61t-77.5 156q0 60 39 108.5t106 71.5q-56 20 -88.5 65.5t-32.5 100.5q0 92 75 151.5t192 59.5t192.5 -59.5t75.5 -151.5q0 -55 -33.5 -100.5t-89.5 -65.5
q67 -23 106 -71.5t39 -108.5q0 -96 -76.5 -156.5t-213.5 -60.5z" />
    <glyph glyph-name="uni2788" unicode="&#x2788;" horiz-adv-x="1689" 
d="M233 727q0 -174 81 -318.5t220.5 -227.5t307.5 -83t307.5 83t220 227.5t80.5 318.5q0 130 -47.5 246t-128.5 199.5t-194 132.5t-238 49t-238 -49t-194.5 -132.5t-129 -199.5t-47.5 -246zM98 727q0 205 99 378.5t270.5 274.5t374.5 101q152 0 291 -60t239 -161
t159.5 -240.5t59.5 -292.5t-59.5 -293t-159.5 -241.5t-239 -161.5t-291 -60q-203 0 -374.5 101.5t-270.5 275.5t-99 379zM616 485q62 -30 136 -30q113 0 182.5 61t79.5 186q-24 -47 -79.5 -75.5t-117.5 -28.5q-117 0 -191.5 69.5t-74.5 186.5q0 114 84.5 187t210.5 73
q127 0 214 -89.5t87 -252.5q0 -203 -103.5 -318.5t-281.5 -115.5q-111 0 -178 41zM995 854q0 65 -45.5 105t-109.5 40t-109 -40t-45 -105t45 -105t109 -40q65 0 110 39.5t45 105.5z" />
    <glyph glyph-name="uniE000" unicode="&#xe000;" horiz-adv-x="1593" 
d="M61 399h289v1053h1176v-145h-1030v-908h288l-360 -430z" />
    <glyph glyph-name="uniE002" unicode="&#xe002;" horiz-adv-x="1955" 
d="M1546 1139l350 -414h-266q0 -153 -60 -292.5t-161 -240.5t-241 -161t-294 -60q-153 0 -292.5 60t-240.5 161t-160.5 240.5t-59.5 292.5q0 154 59.5 294t160.5 241t240.5 161t292.5 60q199 0 373 -97l-65 -129q-141 80 -305 80q-125 0 -238 -48t-194.5 -129.5t-129 -194.5
t-47.5 -238t47.5 -238t129 -195t194.5 -130.5t238 -48.5q167 0 307 82t220.5 222.5t80.5 307.5h-287z" />
    <glyph glyph-name="commaaccent" unicode="&#xf6c3;" horiz-adv-x="395" 
d="M82 1346q0 45 33 71.5t78 26.5q48 0 84 -34t36 -103q0 -107 -65 -165t-154 -63v76q51 1 89 33.5t40 73.5q-16 -13 -43 -13q-44 0 -71 25.5t-27 71.5z" />
    <glyph glyph-name="uniFB00" unicode="&#xfb00;" horiz-adv-x="1331" 
d="M1036 834v-834h-164v834h-475v-834h-164v834h-192v147h192v182q0 156 87 242t223 86q75 0 112 -21v-141q-33 14 -88 14q-70 0 -120 -44t-50 -140v-178h475v182q0 156 87 242t223 86q75 0 112 -21v-141q-33 14 -88 14q-70 0 -120 -44t-50 -140v-178h254v-147h-254z" />
    <glyph glyph-name="fi" unicode="&#xfb01;" horiz-adv-x="1196" 
d="M872 0v834h-475v-834h-164v834h-192v147h192v182q0 156 87 242t223 86q75 0 112 -21v-141q-33 14 -88 14q-70 0 -120 -44t-50 -140v-178h639v-981h-164zM842 1272q0 47 33 80.5t79 33.5q47 0 81 -33.5t34 -80.5q0 -46 -34 -79.5t-81 -33.5q-46 0 -79 33.5t-33 79.5z" />
    <glyph glyph-name="fl" unicode="&#xfb02;" horiz-adv-x="1196" 
d="M872 0v834h-475v-834h-164v834h-192v147h192v182q0 156 87 242t223 86q75 0 112 -21v-141q-33 14 -88 14q-70 0 -120 -44t-50 -140v-178h475v500h164v-1481h-164z" />
    <glyph glyph-name="uniFB03" unicode="&#xfb03;" horiz-adv-x="1835" 
d="M1036 0h-164v834h-475v-834h-164v834h-192v147h192v182q0 156 87 242t223 86q75 0 112 -21v-141q-33 14 -88 14q-70 0 -120 -44t-50 -140v-178h475v182q0 156 87 242t223 86q75 0 112 -21v-141q-33 14 -88 14q-70 0 -120 -44t-50 -140v-178h639v-981h-164v834h-475v-834z
M1481 1272q0 47 33 80.5t79 33.5q47 0 81 -33.5t34 -80.5q0 -46 -34 -79.5t-81 -33.5q-46 0 -79 33.5t-33 79.5z" />
    <glyph glyph-name="uniFB04" unicode="&#xfb04;" horiz-adv-x="1835" 
d="M1036 0h-164v834h-475v-834h-164v834h-192v147h192v182q0 156 87 242t223 86q75 0 112 -21v-141q-33 14 -88 14q-70 0 -120 -44t-50 -140v-178h475v182q0 156 87 242t223 86q75 0 112 -21v-141q-33 14 -88 14q-70 0 -120 -44t-50 -140v-178h475v500h164v-1481h-164v834
h-475v-834z" />
    <glyph glyph-name="uniFEFF" unicode="&#xfeff;" horiz-adv-x="0" 
 />
    <glyph glyph-name="i.latn_TRK" horiz-adv-x="483" 
d="M160 0v981h164v-981h-164zM119 1368q0 51 36 87t87 36t87 -36t36 -87t-36 -87t-87 -36t-87 36t-36 87z" />
    <glyph glyph-name="Ldot.latn_CAT" horiz-adv-x="1130" 
d="M631 766q0 47 35 82t82 35t81.5 -35t34.5 -82t-34.5 -82t-81.5 -35t-82 35t-35 82zM201 0v1452h172v-1294h704v-158h-876z" />
    <glyph glyph-name="ldot.latn_CAT" horiz-adv-x="647" 
d="M160 0v1481h164v-1481h-164zM442 653q0 47 33 80t80 33t80 -33t33 -80t-33 -79.5t-80 -32.5t-80 32.5t-33 79.5z" />
    <glyph glyph-name="zero.numr" horiz-adv-x="782" 
d="M221 952q0 -268 170 -268q172 0 172 268q0 271 -172 271q-170 0 -170 -271zM82 952q0 173 74 273q85 114 235 114q153 0 238 -114q71 -96 71 -273q0 -172 -71 -270q-86 -115 -238 -115q-149 0 -235 115q-74 102 -74 270z" />
    <glyph glyph-name="one.numr" horiz-adv-x="466" 
d="M227 582v522h-176v78q73 6 123.5 47t61.5 98h126v-745h-135z" />
    <glyph glyph-name="two.numr" horiz-adv-x="702" 
d="M90 1047q-6 18 -6 57q0 100 73.5 167.5t194.5 67.5q118 0 190 -66.5t72 -162.5q0 -134 -145 -225l-147 -92q-68 -43 -76 -97h375v-114h-541v18q0 186 168 289l131 82q98 61 98 141q0 47 -34.5 81t-92.5 34q-61 0 -98 -36t-37 -97q0 -34 6 -50z" />
    <glyph glyph-name="three.numr" horiz-adv-x="737" 
d="M252 1028l213 184h-373v115h547v-113l-217 -184q10 2 29 2q82 0 143 -61.5t61 -161.5q0 -102 -81 -173t-209 -71q-123 0 -200.5 61.5t-96.5 151.5l118 47q10 -66 59 -105.5t117 -39.5t112 37t44 92q0 65 -43.5 96t-109.5 31q-39 0 -60 -8z" />
    <glyph glyph-name="four.numr" horiz-adv-x="770" 
d="M57 868l365 459h156v-475h135v-115h-135v-155h-138v155h-383v131zM440 1171l-252 -319h252v319z" />
    <glyph glyph-name="five.numr" horiz-adv-x="704" 
d="M178 813q12 -60 56.5 -95.5t107.5 -35.5q68 0 111 37t43 102q0 67 -43 105.5t-111 38.5q-81 0 -143 -62l-115 43l100 381h412v-115h-322l-53 -202q55 61 158 61q115 0 184.5 -67t69.5 -177q0 -112 -78 -186t-213 -74q-106 0 -185.5 58t-97.5 137z" />
    <glyph glyph-name="six.numr" horiz-adv-x="749" 
d="M616 1198q-55 31 -133 31q-112 0 -182 -65.5t-84 -182.5q24 45 79 73.5t120 28.5q119 0 191.5 -67.5t72.5 -188.5q0 -115 -84.5 -187.5t-210.5 -72.5q-60 0 -114 21.5t-97 63t-68.5 108t-25.5 149.5q0 198 111.5 315t281.5 117q112 0 174 -38zM231 827q0 -66 46.5 -105.5
t109.5 -39.5t109.5 39.5t46.5 105.5q0 65 -46.5 104.5t-109.5 39.5t-109.5 -39.5t-46.5 -104.5z" />
    <glyph glyph-name="seven.numr" horiz-adv-x="692" 
d="M649 1204q-37 -31 -66 -58.5t-75.5 -85.5t-79.5 -120t-63 -157t-41 -201h-144q11 111 43 213.5t67.5 169.5t78.5 125.5t67 83t41 38.5h-426v115h598v-123z" />
    <glyph glyph-name="eight.numr" horiz-adv-x="739" 
d="M369 1018q61 0 97 29t36 79q0 46 -36 75.5t-97 29.5t-97 -29.5t-36 -75.5q0 -49 36.5 -78.5t96.5 -29.5zM369 680q73 0 113 32t40 83q0 52 -40.5 83t-112.5 31q-71 0 -111.5 -31t-40.5 -83q0 -51 40 -83t112 -32zM369 567q-136 0 -213.5 61t-77.5 156q0 60 39 109t106 72
q-56 20 -88.5 65t-32.5 100q0 92 75 151.5t192 59.5t192.5 -59.5t75.5 -151.5q0 -55 -33.5 -100t-89.5 -65q67 -23 106 -72t39 -109q0 -96 -76.5 -156.5t-213.5 -60.5z" />
    <glyph glyph-name="nine.numr" horiz-adv-x="745" 
d="M135 711q64 -31 135 -31q113 0 182.5 61.5t79.5 186.5q-25 -47 -79.5 -76t-116.5 -29q-117 0 -191.5 69.5t-74.5 186.5q0 114 84.5 187t210.5 73q127 0 214 -89.5t87 -252.5q0 -203 -103.5 -318.5t-281.5 -115.5q-112 0 -179 41zM514 1079q0 65 -46 105.5t-110 40.5
t-108.5 -40.5t-44.5 -105.5t44.5 -105t108.5 -40q65 0 110.5 40t45.5 105z" />
    <glyph glyph-name="zero.dnom" horiz-adv-x="786" 
d="M223 371q0 -269 170 -269q172 0 172 269q0 270 -172 270q-170 0 -170 -270zM84 371q0 172 74 272q86 115 235 115q152 0 238 -115q71 -96 71 -272q0 -173 -71 -271q-85 -114 -238 -114q-150 0 -235 114q-74 102 -74 271z" />
    <glyph glyph-name="one.dnom" horiz-adv-x="471" 
d="M229 0v522h-176v78q73 6 123.5 47t61.5 98h127v-745h-136z" />
    <glyph glyph-name="two.dnom" horiz-adv-x="706" 
d="M92 465q-6 18 -6 57q0 100 73.5 168t194.5 68q118 0 190 -67t72 -163q0 -134 -145 -225l-147 -92q-68 -44 -76 -96h375v-115h-541v18q0 186 168 289l131 82q98 61 98 141q0 47 -34.5 81t-92.5 34q-61 0 -98 -36t-37 -97q0 -33 6 -49z" />
    <glyph glyph-name="three.dnom" horiz-adv-x="741" 
d="M252 449l213 184h-373v115h547v-113l-217 -184q10 2 29 2q82 0 143 -62t61 -162q0 -102 -81 -172.5t-209 -70.5q-123 0 -200.5 61.5t-96.5 151.5l118 47q10 -66 59 -106t117 -40t112 37t44 92q0 65 -43.5 96t-109.5 31q-39 0 -60 -8z" />
    <glyph glyph-name="four.dnom" horiz-adv-x="774" 
d="M59 287l365 458h156v-475h135v-114h-135v-156h-138v156h-383v131zM442 590l-252 -320h252v320z" />
    <glyph glyph-name="five.dnom" horiz-adv-x="708" 
d="M180 231q12 -60 56.5 -95.5t107.5 -35.5q68 0 111 37.5t43 102.5q0 67 -43 105t-111 38q-82 0 -143 -61l-115 43l100 380h412v-114h-322l-53 -203q55 61 158 61q115 0 184.5 -66.5t69.5 -176.5q0 -112 -78 -186t-213 -74q-106 0 -185.5 57.5t-97.5 136.5z" />
    <glyph glyph-name="six.dnom" horiz-adv-x="753" 
d="M618 616q-55 31 -133 31q-112 0 -182 -65.5t-84 -182.5q24 45 79 74t120 29q119 0 191.5 -67.5t72.5 -188.5q0 -115 -84.5 -187.5t-210.5 -72.5q-60 0 -114 21.5t-97 63t-68.5 108t-25.5 149.5q0 198 111.5 315t281.5 117q110 0 174 -39zM233 246q0 -66 46.5 -106
t109.5 -40t109.5 40t46.5 106q0 65 -46.5 104t-109.5 39t-109.5 -39t-46.5 -104z" />
    <glyph glyph-name="seven.dnom" horiz-adv-x="696" 
d="M651 623q-37 -31 -66.5 -58.5t-75.5 -85.5t-79 -120.5t-63 -157.5t-41 -201h-144q11 111 43 213.5t67.5 170t78.5 126t67 83t41 38.5h-426v114h598v-122z" />
    <glyph glyph-name="eight.dnom" horiz-adv-x="745" 
d="M373 436q61 0 97 29.5t36 79.5q0 45 -35.5 74.5t-97.5 29.5t-97.5 -29.5t-35.5 -74.5q0 -49 36.5 -79t96.5 -30zM373 98q73 0 113 32t40 83q0 52 -40.5 83.5t-112.5 31.5q-71 0 -111.5 -31.5t-40.5 -83.5q0 -51 40 -83t112 -32zM373 -14q-136 0 -213.5 61t-77.5 156
q0 60 39 108.5t106 71.5q-56 20 -88.5 65.5t-32.5 100.5q0 92 75 151.5t192 59.5t192.5 -59.5t75.5 -151.5q0 -55 -33.5 -100.5t-89.5 -65.5q68 -23 107 -71.5t39 -108.5q0 -95 -77 -156t-214 -61z" />
    <glyph glyph-name="nine.dnom" horiz-adv-x="749" 
d="M137 133q64 -31 135 -31q113 0 183 61.5t80 186.5q-24 -47 -79.5 -75.5t-117.5 -28.5q-117 0 -191.5 69.5t-74.5 186.5q0 114 84.5 187t210.5 73q127 0 214 -89.5t87 -252.5q0 -203 -103.5 -318.5t-281.5 -115.5q-112 0 -179 41zM516 502q0 65 -46 105t-110 40
t-108.5 -40t-44.5 -105t44.5 -105.5t108.5 -40.5q65 0 110.5 40t45.5 106z" />
    <glyph glyph-name="space.frac" horiz-adv-x="104" 
 />
    <glyph glyph-name="a.ordn" horiz-adv-x="774" 
d="M76 819q0 89 56.5 141t152.5 66l184 29q33 4 45 18t12 37q0 57 -37 92t-112 35q-71 0 -114.5 -39.5t-49.5 -103.5l-123 28q11 99 88.5 161.5t196.5 62.5q145 0 213.5 -70t68.5 -180v-346q0 -52 9 -115h-125q-9 24 -9 96q-29 -48 -85.5 -81.5t-137.5 -33.5q-105 0 -169 60
t-64 143zM330 723q92 0 144 52.5t52 158.5v37l-211 -35q-106 -17 -106 -111q0 -44 32 -73t89 -29z" />
    <glyph glyph-name="b.ordn" horiz-adv-x="876" 
d="M123 635v1038h131v-450q26 52 86 87.5t145 35.5q148 0 231 -103t83 -262q0 -160 -85.5 -262.5t-232.5 -102.5q-157 0 -229 127v-108h-129zM668 981q0 112 -56 179t-149 67t-152 -67.5t-59 -178.5t59 -178.5t152 -67.5t149 67t56 179z" />
    <glyph glyph-name="c.ordn" horiz-adv-x="802" 
d="M424 1227q-90 0 -152.5 -66.5t-62.5 -179.5t62.5 -179.5t154.5 -66.5q83 0 132 44t63 102l118 -47q-28 -88 -110.5 -153t-202.5 -65q-151 0 -250.5 103.5t-99.5 261.5q0 159 99 262t249 103q126 0 206.5 -64t102.5 -158l-119 -47q-14 62 -61 106t-129 44z" />
    <glyph glyph-name="d.ordn" horiz-adv-x="876" 
d="M213 981q0 -111 55.5 -178.5t151.5 -67.5q92 0 148.5 68t56.5 178t-56.5 178t-148.5 68q-96 0 -151.5 -67.5t-55.5 -178.5zM754 762q0 -73 6 -127h-127q-8 21 -8 98v8q-27 -51 -83.5 -88t-135.5 -37q-146 0 -237 104t-91 261q0 153 91 259t234 106q91 0 146.5 -36
t73.5 -83v446h131v-911z" />
    <glyph glyph-name="e.ordn" horiz-adv-x="811" 
d="M602 1049q0 78 -51 130t-141 52q-82 0 -136 -54.5t-59 -127.5h387zM733 834q-31 -97 -111 -157.5t-198 -60.5q-146 0 -247 100t-101 267q0 159 99 261t233 102q157 0 244 -96t87 -259q0 -39 -2 -45h-526q1 -95 63 -155t150 -60q150 0 197 139z" />
    <glyph glyph-name="f.ordn" horiz-adv-x="522" 
d="M309 1208v-573h-133v573h-131v119h131v117q0 114 63 176.5t164 62.5q59 0 82 -14v-115q-21 9 -61 9q-48 0 -81.5 -28.5t-33.5 -94.5v-113h174v-119h-174z" />
    <glyph glyph-name="g.ordn" horiz-adv-x="860" 
d="M78 1006q0 144 87.5 242t225.5 98q81 0 136 -33.5t81 -85.5v100h129v-635q0 -54 -10 -102.5t-35 -94.5t-63 -79.5t-98 -53.5t-136 -20q-129 0 -219 73.5t-102 182.5l127 29q8 -73 61 -121.5t131 -48.5q113 0 163 58.5t50 172.5v94q-25 -51 -79.5 -83.5t-135.5 -32.5
q-138 0 -225.5 98t-87.5 242zM610 1006q0 98 -55 160.5t-143 62.5q-90 0 -145.5 -62t-55.5 -161t55.5 -161.5t145.5 -62.5q88 0 143 63t55 161z" />
    <glyph glyph-name="h.ordn" horiz-adv-x="829" 
d="M256 635h-133v1038h133v-430q73 103 209 103q122 0 186 -75t64 -194v-442h-133v420q0 78 -39.5 125t-122.5 47q-76 0 -120 -52.5t-44 -130.5v-409z" />
    <glyph glyph-name="i.ordn" horiz-adv-x="376" 
d="M123 635v692h131v-692h-131zM96 1591q0 38 27 65t65 27t65.5 -27t27.5 -65t-27.5 -65t-65.5 -27t-65 27t-27 65z" />
    <glyph glyph-name="j.ordn" horiz-adv-x="376" 
d="M123 1327h131v-772q0 -98 -52 -155.5t-143 -57.5q-65 0 -88 10v115q24 -6 54 -6q52 0 75 26.5t23 79.5v760zM96 1591q0 38 27 65t65 27t65.5 -27t27.5 -65t-27.5 -65t-65.5 -27t-65 27t-27 65z" />
    <glyph glyph-name="k.ordn" horiz-adv-x="765" 
d="M451 1036l299 -401h-166l-226 309l-104 -106v-203h-131v1038h131v-659l307 313h178z" />
    <glyph glyph-name="l.ordn" horiz-adv-x="376" 
d="M123 635v1038h131v-1038h-131z" />
    <glyph glyph-name="m.ordn" horiz-adv-x="1259" 
d="M123 1327h127v-98q29 54 86.5 85.5t124.5 31.5q73 0 130 -35.5t81 -100.5q72 136 231 136q102 0 172 -68.5t70 -192.5v-450h-129v432q0 72 -38.5 116t-113.5 44q-72 0 -118 -50.5t-46 -125.5v-416h-131v432q0 72 -38 116t-113 44q-72 0 -118 -50.5t-46 -125.5v-416h-131
v692z" />
    <glyph glyph-name="n.ordn" horiz-adv-x="825" 
d="M254 635h-131v692h127v-102q31 59 88 90t125 31q121 0 184.5 -75t63.5 -194v-442h-131v420q0 78 -39.5 125t-122.5 47q-76 0 -120 -53t-44 -134v-405z" />
    <glyph glyph-name="o.ordn" horiz-adv-x="856" 
d="M428 735q91 0 156 66.5t65 179.5t-65 179.5t-156 66.5t-156 -66.5t-65 -179.5t65 -179.5t156 -66.5zM428 616q-154 0 -253 102t-99 263t99 263t253 102t253 -102t99 -263t-99 -263t-253 -102z" />
    <glyph glyph-name="p.ordn" horiz-adv-x="880" 
d="M123 360v967h129v-113q27 56 87.5 94t145.5 38q148 0 233 -103.5t85 -261.5q0 -159 -88 -262t-234 -103q-80 0 -137 33t-90 84v-373h-131zM252 981q0 -107 59 -176.5t152 -69.5t151 69.5t58 176.5t-58 176.5t-151 69.5t-152 -69.5t-59 -176.5z" />
    <glyph glyph-name="q.ordn" horiz-adv-x="878" 
d="M625 360v375q-28 -53 -84.5 -86t-134.5 -33q-145 0 -236.5 105t-91.5 262q0 154 88 258.5t235 104.5q88 0 144 -36.5t84 -88.5v106h127v-967h-131zM627 981q0 107 -57 176.5t-150 69.5t-152 -69.5t-59 -176.5t59 -176.5t152 -69.5t150 69.5t57 176.5z" />
    <glyph glyph-name="r.ordn" horiz-adv-x="544" 
d="M506 1194q-24 8 -62 8q-87 0 -138.5 -53t-51.5 -164v-350h-131v692h129v-119q56 127 203 127q23 0 51 -4v-137z" />
    <glyph glyph-name="s.ordn" horiz-adv-x="677" 
d="M186 858q6 -58 48 -94.5t112 -36.5q59 0 92 25t33 67q0 73 -94 94l-111 23q-84 19 -130 70t-46 124q0 91 71.5 153.5t174.5 62.5q64 0 114 -18.5t79 -49.5t44.5 -61t22.5 -62l-115 -37q-10 47 -43.5 82t-101.5 35q-52 0 -86.5 -25.5t-34.5 -66.5q0 -72 86 -88l109 -23
q93 -20 142.5 -73.5t49.5 -131.5q0 -85 -68 -148t-188 -63q-126 0 -197.5 64t-80.5 143z" />
    <glyph glyph-name="t.ordn" horiz-adv-x="536" 
d="M311 1327h158v-119h-158v-362q0 -101 101 -101q36 0 57 9v-113q-33 -14 -94 -14q-92 0 -143.5 52t-51.5 148v381h-137v119h43q102 0 102 107v112h123v-219z" />
    <glyph glyph-name="u.ordn" horiz-adv-x="827" 
d="M580 727q-26 -53 -81.5 -82t-123.5 -29q-122 0 -191 78.5t-69 198.5v434h131v-412q0 -79 39.5 -129.5t120.5 -50.5q78 0 122.5 49t44.5 129v414h132v-565q0 -71 8 -127h-127q-6 18 -6 92z" />
    <glyph glyph-name="v.ordn" horiz-adv-x="735" 
d="M436 635h-135l-281 692h148l203 -536l196 536h144z" />
    <glyph glyph-name="w.ordn" horiz-adv-x="1179" 
d="M662 1327l182 -522l155 522h140l-226 -692h-137l-186 532l-184 -532h-140l-227 692h143l158 -522l184 522h138z" />
    <glyph glyph-name="x.ordn" horiz-adv-x="739" 
d="M291 985l-250 342h158l174 -240l172 240h153l-252 -340l261 -352h-156l-180 250l-185 -250h-151z" />
    </font>
</defs>
</svg>
