<?xml version="1.0" standalone="no"?>
<!DOCTYPE svg PUBLIC "-//W3C//DTD SVG 1.1//EN" "http://www.w3.org/Graphics/SVG/1.1/DTD/svg11.dtd" >
<svg xmlns="http://www.w3.org/2000/svg" xmlns:xlink="http://www.w3.org/1999/xlink" version="1.1">
<metadata>
Created by FontForge 20170731 at Thu Sep 29 05:36:13 2022
 By Aleksey,,,
(c) 2019, Copyright by Lineto. All rights reserved.
</metadata>
<defs>
<font id="SVN-Circular-Bold" horiz-adv-x="1193" >
  <font-face 
    font-family="SVN-Circular"
    font-weight="700"
    font-stretch="normal"
    units-per-em="2048"
    panose-1="2 1 8 4 1 1 1 1 1 4"
    ascent="1638"
    descent="-410"
    x-height="1008"
    cap-height="1452"
    bbox="-410 -520 3191 2191"
    underline-thickness="102"
    underline-position="-307"
    unicode-range="U+000D-FEFF"
  />
<missing-glyph horiz-adv-x="485" 
 />
    <glyph glyph-name="f_f" unicode="ff" horiz-adv-x="1433" 
d="M1165 1008h228v-234h-228v-774h-272v774h-389v-774h-275v774h-168v234h168v114q0 170 100 272.5t267 102.5q89 0 135 -20v-230q-23 10 -86 10q-56 0 -98.5 -31.5t-42.5 -107.5v-110h389v114q0 170 100 272.5t267 102.5q89 0 135 -20v-230q-23 10 -86 10q-24 0 -47 -6
t-46 -20.5t-37 -43.5t-14 -69v-110z" />
    <glyph glyph-name="f_f_i" unicode="ffi" horiz-adv-x="1986" 
d="M893 1126q0 168 99.5 269.5t264.5 101.5q90 0 136 -20v-230q-23 10 -86 10q-56 0 -99 -31.5t-43 -107.5v-110h680v-1008h-272v774h-408v-774h-272v774h-389v-774h-275v774h-168v234h168v114q0 170 100 272.5t267 102.5q89 0 135 -20v-230q-23 10 -86 10
q-56 0 -98.5 -31.5t-42.5 -107.5v-110h389v118zM1565 1323q0 64 42 107t101 43q64 0 107 -42.5t43 -107.5q0 -59 -43 -101t-107 -42q-58 0 -100.5 42t-42.5 101z" />
    <glyph glyph-name="f_f_l" unicode="ffl" horiz-adv-x="1986" 
d="M893 1122q0 172 99 273.5t265 101.5q90 0 136 -20v-230q-23 10 -86 10q-56 0 -99 -31.5t-43 -107.5v-110h410v475h272v-1483h-272v774h-410v-774h-272v774h-389v-774h-275v774h-168v234h168v114q0 170 100 272.5t267 102.5q89 0 135 -20v-230q-23 10 -86 10
q-56 0 -98.5 -31.5t-42.5 -107.5v-110h389v114z" />
    <glyph glyph-name="f_i" unicode="fi" horiz-adv-x="1318" 
d="M504 774v-774h-275v774h-168v234h168v114q0 170 100 272.5t267 102.5q89 0 135 -20v-230q-23 10 -86 10q-56 0 -98.5 -31.5t-42.5 -107.5v-110h674v-1008h-271v774h-403zM899 1323q0 64 42 107t101 43q64 0 107 -42.5t43 -107.5q0 -59 -43 -101t-107 -42q-58 0 -100.5 42
t-42.5 101z" />
    <glyph glyph-name="f_l" unicode="fl" horiz-adv-x="1316" 
d="M645 1257q-56 0 -98.5 -31.5t-42.5 -107.5v-110h401v475h273v-1483h-273v774h-401v-774h-275v774h-168v234h168v114q0 170 100 272.5t267 102.5q89 0 135 -20v-230q-23 10 -86 10z" />
    <glyph glyph-name=".notdef" horiz-adv-x="485" 
 />
    <glyph glyph-name=".null" horiz-adv-x="0" 
 />
    <glyph glyph-name="nonmarkingreturn" horiz-adv-x="682" 
 />
    <glyph glyph-name="NULL" horiz-adv-x="0" 
 />
    <glyph glyph-name="NULL" horiz-adv-x="0" 
 />
    <glyph glyph-name="CR" unicode="&#xd;" horiz-adv-x="485" 
 />
    <glyph glyph-name="space" unicode=" " horiz-adv-x="485" 
 />
    <glyph glyph-name="exclam" unicode="!" horiz-adv-x="563" 
d="M381 442h-199l-65 1010h329zM121 145q0 68 47 116t113 48q67 0 115 -48t48 -116q0 -67 -47.5 -114t-115.5 -47q-66 0 -113 47t-47 114z" />
    <glyph glyph-name="quotedbl" unicode="&#x22;" horiz-adv-x="864" 
d="M90 1196q0 67 44 111.5t110 44.5t108.5 -44t42.5 -112q0 -34 -8 -53l-96 -375h-96l-97 375q-8 40 -8 53zM469 1196q0 67 44 111.5t110 44.5t108.5 -44t42.5 -112q0 -34 -8 -53l-96 -375h-97l-96 375q-8 40 -8 53z" />
    <glyph glyph-name="numbersign" unicode="#" horiz-adv-x="1478" 
d="M166 1008h293l69 319h215l-69 -319h268l70 319h213l-70 -319h260v-197h-301l-61 -287h260v-194h-303l-70 -330h-213l70 330h-269l-69 -330h-215l69 330h-250v194h293l62 287h-252v197zM571 524h269l61 287h-268z" />
    <glyph glyph-name="dollar" unicode="$" horiz-adv-x="1155" 
d="M496 -240v220q-103 14 -186 57t-135 102.5t-82 125.5t-36 134l254 62q8 -105 81.5 -176.5t205.5 -71.5q98 0 154.5 42.5t56.5 111.5q0 111 -154 145l-188 41q-168 37 -263 138t-95 247q0 160 109.5 273.5t277.5 138.5v219h209v-226q68 -12 125.5 -39t97.5 -61t70 -76
t47 -83.5t26 -84.5l-252 -71q-4 31 -17.5 61t-39 60.5t-71.5 49.5t-105 19q-94 0 -148.5 -46.5t-54.5 -113.5q0 -49 35.5 -84.5t105.5 -52.5l187 -43q188 -41 281 -145t93 -250q0 -147 -101 -260t-279 -141v-222h-209z" />
    <glyph glyph-name="percent" unicode="%" horiz-adv-x="1691" 
d="M262 1016q0 -65 38.5 -104.5t96.5 -39.5q60 0 97.5 40.5t37.5 103.5t-37.5 102t-97.5 39q-58 0 -96.5 -39.5t-38.5 -101.5zM57 1016q0 140 100.5 238t239.5 98t240.5 -98t101.5 -238q0 -141 -101 -237.5t-241 -96.5q-142 0 -241 97t-99 237zM1157 311q0 -65 38.5 -104
t96.5 -39q60 0 97.5 40t37.5 103t-37.5 102.5t-97.5 39.5q-58 0 -96.5 -40t-38.5 -102zM952 311q0 140 100.5 238t239.5 98t240.5 -98t101.5 -238q0 -141 -101 -237.5t-241 -96.5q-142 0 -241 97t-99 237zM258 0l938 1329h238l-938 -1329h-238z" />
    <glyph glyph-name="ampersand" unicode="&#x26;" horiz-adv-x="1433" 
d="M915 156q-178 -185 -389 -185q-103 0 -188.5 33t-139 88.5t-83 124.5t-29.5 143q0 126 60 214.5t188 183.5l10 6l-22 24q-160 160 -160 316q0 89 35 162.5t92 120t128 71.5t146 25q175 0 289.5 -102t114.5 -265q0 -182 -205 -332l-55 -41l219 -231l366 383v-340
l-202 -213l327 -342h-352zM530 209q62 0 112 29.5t110 91.5l-248 262l-31 -23q-59 -42 -88 -86t-29 -106q0 -66 49 -117t125 -51zM420 1112q0 -72 86 -158l39 -43l71 54q93 67 93 153q0 60 -41 99.5t-107 39.5q-56 0 -98.5 -38t-42.5 -107z" />
    <glyph glyph-name="quotesingle" unicode="'" horiz-adv-x="485" 
d="M90 1196q0 67 44 111.5t110 44.5t108.5 -44t42.5 -112q0 -34 -8 -53l-96 -375h-96l-97 375q-8 40 -8 53z" />
    <glyph glyph-name="parenleft" unicode="(" horiz-adv-x="692" 
d="M84 659q0 601 430 1018l158 -145q-175 -188 -267 -399t-92 -474q0 -265 92.5 -478t266.5 -396l-158 -143q-95 93 -168.5 193t-134.5 224.5t-94 276.5t-33 323z" />
    <glyph glyph-name="parenright" unicode=")" horiz-adv-x="692" 
d="M608 659q0 -171 -33 -323t-94 -276.5t-134.5 -224.5t-168.5 -193l-158 143q174 183 266.5 396t92.5 478q0 263 -92 474t-267 399l158 145q430 -417 430 -1018z" />
    <glyph glyph-name="asterisk" unicode="*" horiz-adv-x="968" 
d="M594 1192l237 80l68 -201l-242 -78l152 -205l-170 -124l-156 206l-151 -206l-170 127l149 202l-241 78l65 201l240 -80v260h219v-260z" />
    <glyph glyph-name="plus" unicode="+" horiz-adv-x="1136" 
d="M453 715v399h229v-399h389v-223h-389v-402h-229v402h-387v223h387z" />
    <glyph glyph-name="comma" unicode="," horiz-adv-x="579" 
d="M94 164q0 73 53.5 122.5t133.5 49.5q94 0 148 -66.5t54 -169.5q0 -87 -23 -160t-59.5 -122.5t-84.5 -86t-96.5 -54.5t-96.5 -23v131q75 19 132.5 79t61.5 142q-15 -12 -53 -12q-75 0 -122.5 48t-47.5 122z" />
    <glyph glyph-name="hyphen" unicode="-" horiz-adv-x="847" 
d="M127 487v242h594v-242h-594z" />
    <glyph glyph-name="period" unicode="." horiz-adv-x="563" 
d="M94 172q0 78 54.5 132t132.5 54q79 0 133.5 -54t54.5 -132t-54.5 -132t-133.5 -54q-78 0 -132.5 54t-54.5 132z" />
    <glyph glyph-name="slash" unicode="/" horiz-adv-x="1056" 
d="M297 0h-246l709 1452h248z" />
    <glyph glyph-name="zero" unicode="0" horiz-adv-x="1292" 
d="M375 664q0 -227 71 -338q68 -109 201 -109q131 0 199 109q74 108 74 338q0 229 -74 337q-68 109 -199 109q-133 0 -201 -109q-71 -111 -71 -337zM92 664q0 292 117 473q150 223 438 223q286 0 436 -223q119 -184 119 -473q0 -290 -119 -474q-150 -223 -436 -223
q-288 0 -438 223q-117 181 -117 474z" />
    <glyph glyph-name="one" unicode="1" horiz-adv-x="778" 
d="M365 0v889h-320v190q143 1 239 72t117 178h244v-1329h-280z" />
    <glyph glyph-name="two" unicode="2" horiz-adv-x="1161" 
d="M104 823q-10 30 -10 92q0 88 33 168t93.5 142t154 98.5t205.5 36.5q108 0 199.5 -34.5t152 -93.5t94 -136.5t33.5 -163.5q0 -255 -258 -412l-256 -155q-85 -55 -115 -121h637v-244h-983q0 186 71.5 327t241.5 240l219 131q85 50 121.5 105t36.5 125q0 77 -53 129.5
t-148 52.5q-102 0 -156.5 -61.5t-54.5 -159.5q0 -28 11 -74z" />
    <glyph glyph-name="three" unicode="3" horiz-adv-x="1185" 
d="M348 786l348 299h-581v244h940v-227l-344 -287q160 -8 272.5 -117.5t112.5 -287.5q0 -86 -35.5 -165.5t-99.5 -141t-161.5 -98t-213.5 -36.5q-222 0 -361.5 124t-152.5 300l272 53q5 -103 71.5 -168t170.5 -65q103 0 164 57t61 144q0 92 -59.5 144t-157.5 52
q-59 0 -121 -20z" />
    <glyph glyph-name="four" unicode="4" horiz-adv-x="1243" 
d="M59 580l559 749h349v-803h219v-241h-219v-285h-279v285h-629v295zM688 1034l-379 -508h379v508z" />
    <glyph glyph-name="five" unicode="5" horiz-adv-x="1150" 
d="M326 432q5 -94 72 -158.5t169 -64.5q99 0 164.5 59.5t65.5 157.5q0 109 -68 166t-168 57q-126 0 -205 -90q-17 7 -133 46t-125 42l158 682h750v-244h-557l-66 -292q41 40 106 60.5t134 20.5q204 0 329 -117.5t125 -326.5q0 -93 -35.5 -176.5t-99.5 -147.5t-161.5 -101.5
t-213.5 -37.5q-105 0 -198 34t-158 90.5t-104.5 130t-45.5 151.5z" />
    <glyph glyph-name="six" unicode="6" horiz-adv-x="1216" 
d="M1026 1069q-107 47 -219 47q-176 0 -296 -99t-144 -282q41 62 123.5 105t191.5 43q205 0 332 -121.5t127 -325.5q0 -203 -146.5 -335t-367.5 -132q-110 0 -207 40t-171.5 114.5t-117.5 192.5t-43 264q0 354 203.5 567t533.5 213q176 0 279 -62zM391 430q0 -99 69 -161
t165 -62q100 0 167.5 61.5t67.5 161.5t-67.5 160.5t-167.5 60.5q-99 0 -166.5 -60.5t-67.5 -160.5z" />
    <glyph glyph-name="seven" unicode="7" horiz-adv-x="1091" 
d="M1059 1094q-106 -100 -169 -175q-319 -384 -364 -919h-293q19 246 93.5 452t177.5 359q110 166 229 274h-684v244h1010v-235z" />
    <glyph glyph-name="eight" unicode="8" horiz-adv-x="1187" 
d="M594 784q91 0 144 49.5t53 124.5q0 69 -53.5 118.5t-143.5 49.5q-89 0 -142 -49.5t-53 -118.5q0 -75 52.5 -124.5t142.5 -49.5zM594 203q105 0 165 54.5t60 129.5q0 78 -59 133t-166 55q-105 0 -164 -55.5t-59 -132.5q0 -75 59.5 -129.5t163.5 -54.5zM594 -31
q-226 0 -364 108t-138 281q0 108 64.5 195t171.5 129q-96 36 -152.5 119.5t-56.5 177.5q0 167 134 274t341 107t341 -107t134 -274q0 -91 -56 -176.5t-151 -120.5q105 -38 169.5 -127t64.5 -197q0 -173 -138 -281t-364 -108z" />
    <glyph glyph-name="nine" unicode="9" horiz-adv-x="1206" 
d="M184 270q39 -22 105 -39.5t131 -17.5q185 0 297 97.5t125 279.5q-42 -65 -123.5 -104.5t-183.5 -39.5q-125 0 -228.5 53.5t-167 157t-63.5 236.5q0 204 144 335.5t366 131.5q110 0 205 -39.5t168 -115.5t115 -197.5t42 -276.5q0 -364 -178.5 -563t-515.5 -199
q-85 0 -168.5 20.5t-138.5 53.5zM805 901q0 96 -67 157.5t-163 61.5q-95 0 -161 -61.5t-66 -157.5q0 -98 65.5 -158.5t161.5 -60.5t163 61.5t67 157.5z" />
    <glyph glyph-name="colon" unicode=":" horiz-adv-x="612" 
d="M121 168q0 78 53 131t131 53q77 0 130.5 -53t53.5 -131q0 -75 -54 -128.5t-130 -53.5q-77 0 -130.5 53t-53.5 129zM119 838q0 78 53 131t131 53q77 0 130.5 -53t53.5 -131q0 -75 -54 -129t-130 -54q-77 0 -130.5 53.5t-53.5 129.5z" />
    <glyph glyph-name="semicolon" unicode=";" horiz-adv-x="612" 
d="M121 154q0 69 50.5 116t125.5 47q90 0 141 -63t51 -160q0 -83 -22 -153t-56.5 -117t-80.5 -81.5t-91.5 -52t-91.5 -22.5v125q70 19 125.5 76.5t59.5 134.5q-15 -12 -49 -12q-72 0 -117 46t-45 116zM117 838q0 78 53 131t131 53q77 0 130.5 -53t53.5 -131q0 -75 -54 -129
t-130 -54q-77 0 -130.5 53.5t-53.5 129.5z" />
    <glyph glyph-name="less" unicode="&#x3c;" horiz-adv-x="1060" 
d="M59 707l881 444v-252l-606 -293l606 -293v-256l-881 443v207z" />
    <glyph glyph-name="equal" unicode="=" horiz-adv-x="1239" 
d="M123 698v220h993v-220h-993zM123 291v221h993v-221h-993z" />
    <glyph glyph-name="greater" unicode="&#x3e;" horiz-adv-x="1064" 
d="M1004 502l-881 -445v252l606 293l-606 293v256l881 -444v-205z" />
    <glyph glyph-name="question" unicode="?" horiz-adv-x="1083" 
d="M399 442q-8 36 -8 84q0 175 162 297l98 74q88 64 88 162q0 76 -53 130t-151 54q-102 0 -155.5 -68t-53.5 -163q0 -45 8 -66l-258 10q-10 39 -10 93q0 84 31.5 161.5t89 138.5t148 97.5t200.5 36.5q115 0 208.5 -34.5t152.5 -92t90.5 -130t31.5 -151.5q0 -217 -203 -362
l-84 -60q-110 -78 -110 -198v-13h-222zM352 145q0 68 47.5 116t114.5 48q68 0 116 -48.5t48 -115.5t-48 -114t-116 -47t-115 47t-47 114z" />
    <glyph glyph-name="at" unicode="@" horiz-adv-x="1701" 
d="M1219 283q-82 0 -133.5 35t-65.5 90q-37 -61 -102 -95t-136 -34q-134 0 -222.5 99t-88.5 255q0 199 118.5 330t284.5 131q65 0 121 -30t78 -87l17 90h194l-106 -502q-4 -28 -4 -37q0 -28 17 -47.5t48 -19.5q78 0 139.5 101t61.5 245q0 217 -151 353t-390 136
q-170 0 -306.5 -76.5t-215 -217.5t-78.5 -322q0 -127 42.5 -236t120 -189.5t194.5 -126.5t259 -46q219 0 377 121l99 -140q-81 -73 -216 -118t-260 -45q-178 0 -330.5 56.5t-261 157t-170 245.5t-61.5 317q0 174 64 325.5t172.5 256.5t256.5 165t312 60q155 0 292 -51.5
t234.5 -140.5t154 -214.5t56.5 -267.5q0 -114 -35 -213t-93 -166t-132.5 -106t-154.5 -41zM1028 748q0 75 -36 118t-103 43q-90 0 -148.5 -76t-58.5 -182q0 -87 35.5 -137.5t109.5 -50.5q85 0 140.5 80.5t60.5 204.5z" />
    <glyph glyph-name="A" unicode="A" horiz-adv-x="1476" 
d="M1028 332h-590l-121 -332h-299l557 1452h328l553 -1452h-307zM532 590h402l-201 549z" />
    <glyph glyph-name="B" unicode="B" horiz-adv-x="1269" 
d="M692 1452q207 0 325 -109.5t118 -281.5q0 -111 -58.5 -195.5t-152.5 -115.5q108 -26 182 -120.5t74 -223.5q0 -179 -123.5 -292.5t-325.5 -113.5h-561v1452h522zM649 852q98 0 152.5 48.5t54.5 133.5q0 86 -53 133t-156 47h-198v-362h200zM678 236q104 0 161.5 50
t57.5 138q0 89 -56 141.5t-159 52.5h-233v-382h229z" />
    <glyph glyph-name="C" unicode="C" horiz-adv-x="1548" 
d="M827 -31q-151 0 -286 53.5t-236.5 150t-161 240t-59.5 312.5q0 170 61 314t163 240t235.5 150t279.5 54q117 0 218 -27.5t174 -74t130 -109.5t91.5 -130t52.5 -141l-266 -83q-13 56 -41.5 105t-75.5 92.5t-120 69t-163 25.5q-84 0 -162.5 -30t-142.5 -88t-102.5 -153
t-38.5 -214q0 -112 37.5 -204.5t100.5 -151.5t143.5 -91t168.5 -32q89 0 162.5 27t121.5 71.5t78.5 94.5t45.5 104l264 -80q-17 -69 -51 -136.5t-91.5 -133t-131.5 -114.5t-177 -79.5t-221 -30.5z" />
    <glyph glyph-name="D" unicode="D" horiz-adv-x="1495" 
d="M678 262q91 0 169 28.5t138 83.5t94.5 145.5t34.5 205.5t-34 205t-94 146t-137.5 85t-168.5 29h-227v-928h225zM170 0v1452h520q155 0 286.5 -49.5t227 -141t149.5 -229.5t54 -307q0 -224 -94 -390t-255.5 -250.5t-369.5 -84.5h-518z" />
    <glyph glyph-name="E" unicode="E" horiz-adv-x="1185" 
d="M170 0v1452h909v-266h-626v-332h567v-252h-567v-336h626v-266h-909z" />
    <glyph glyph-name="F" unicode="F" horiz-adv-x="1165" 
d="M170 0v1452h917v-268h-634v-359h565v-260h-563v-565h-285z" />
    <glyph glyph-name="G" unicode="G" horiz-adv-x="1599" 
d="M1255 0l-18 166q-55 -84 -165 -140.5t-263 -56.5q-147 0 -278.5 53t-230.5 148.5t-157.5 239.5t-58.5 315t61 315.5t163.5 240t236.5 149t282 53.5q111 0 209 -25.5t170 -67.5t130 -100.5t95.5 -121.5t59.5 -132l-270 -96q-15 52 -45 99t-76.5 88.5t-117 66.5t-155.5 25
t-164 -29.5t-145.5 -87.5t-106.5 -155.5t-40 -221.5q0 -119 37 -215.5t100.5 -157t145.5 -93t175 -32.5q95 0 171.5 29t120 74.5t67.5 90.5t31 89h-459v246h725v-756h-230z" />
    <glyph glyph-name="H" unicode="H" horiz-adv-x="1540" 
d="M1085 0v602h-632v-602h-283v1452h283v-584h632v584h285v-1452h-285z" />
    <glyph glyph-name="I" unicode="I" horiz-adv-x="626" 
d="M170 0v1452h287v-1452h-287z" />
    <glyph glyph-name="J" unicode="J" horiz-adv-x="1148" 
d="M43 539l272 49v-133q1 -108 56 -162.5t145 -54.5t141.5 57t51.5 154v1003h282v-1003q0 -201 -132 -340.5t-341 -139.5q-215 0 -345 129.5t-130 343.5v97z" />
    <glyph glyph-name="K" unicode="K" horiz-adv-x="1409" 
d="M633 602l-180 -199v-403h-283v1452h283v-657l581 657h371l-576 -633l580 -819h-354z" />
    <glyph glyph-name="L" unicode="L" horiz-adv-x="1132" 
d="M170 0v1452h283v-1182h647v-270h-930z" />
    <glyph glyph-name="M" unicode="M" horiz-adv-x="1959" 
d="M1511 0v1018l-417 -1018h-236l-418 1010v-1010h-270v1452h373l436 -1049l426 1049h385v-1452h-279z" />
    <glyph glyph-name="N" unicode="N" horiz-adv-x="1579" 
d="M1112 0l-659 1030v-1030h-283v1452h352l604 -960v960h283v-1452h-297z" />
    <glyph glyph-name="O" unicode="O" horiz-adv-x="1660" 
d="M377 727q0 -118 39 -213t104 -152.5t144 -87.5t165 -30q69 0 134 18.5t123.5 57.5t102 95t69.5 136.5t26 175.5t-26 175.5t-69.5 136.5t-102 95t-123.5 57.5t-134 18.5q-86 0 -165 -30t-144 -87.5t-104 -152.5t-39 -213zM84 725q0 171 61 315.5t164 240t237.5 149
t282.5 53.5t283.5 -53.5t238.5 -149t164.5 -240t61.5 -315.5q0 -170 -61.5 -314t-164.5 -239.5t-238.5 -149t-283.5 -53.5t-282.5 53.5t-237.5 149t-164 239.5t-61 314z" />
    <glyph glyph-name="P" unicode="P" horiz-adv-x="1239" 
d="M678 791q105 0 166 56t61 150q0 98 -60.5 153.5t-166.5 55.5h-223v-415h223zM453 547v-547h-283v1452h543q213 0 345 -127.5t132 -325.5q0 -199 -131.5 -325.5t-345.5 -126.5h-260z" />
    <glyph glyph-name="Q" unicode="Q" horiz-adv-x="1660" 
d="M84 725q0 171 61 315.5t164 240t237.5 149t282.5 53.5t283.5 -53.5t238.5 -149t164.5 -240t61.5 -315.5q0 -299 -178 -502l174 -192l-187 -160l-178 197q-181 -99 -379 -99q-148 0 -282.5 53.5t-237.5 149t-164 239.5t-61 314zM377 727q0 -118 39 -213t104 -152.5
t144 -87.5t165 -30q103 0 187 37l-228 249l189 162l227 -254q80 121 80 289q0 95 -26 175.5t-69.5 136.5t-102 95t-123.5 57.5t-134 18.5q-86 0 -165 -30t-144 -87.5t-104 -152.5t-39 -213z" />
    <glyph glyph-name="R" unicode="R" horiz-adv-x="1290" 
d="M602 559h-147v-559h-285v1452h567q209 0 336 -126.5t127 -319.5q0 -153 -82.5 -261.5t-226.5 -150.5l311 -594h-315zM684 803q107 0 167 54.5t60 146.5q0 93 -59.5 147.5t-167.5 54.5h-229v-403h229z" />
    <glyph glyph-name="S" unicode="S" horiz-adv-x="1251" 
d="M895 1028q-7 35 -22.5 67t-44.5 65.5t-79.5 53t-117.5 19.5q-100 0 -164 -54.5t-64 -129.5q0 -61 40 -104t118 -60l203 -39q191 -36 298 -153.5t107 -274.5q0 -85 -35.5 -164.5t-100 -143.5t-165.5 -102.5t-223 -38.5q-111 0 -205 27.5t-158 72.5t-111 105.5t-71.5 122.5
t-31.5 127l262 70q8 -115 90 -194t227 -79q113 0 174.5 49t61.5 129q0 64 -45.5 109.5t-130.5 62.5l-203 41q-177 36 -279 144.5t-102 271.5q0 125 69 230.5t185.5 165t251.5 59.5q101 0 185 -24t140 -61.5t98 -88.5t64 -100.5t33 -102.5z" />
    <glyph glyph-name="T" unicode="T" horiz-adv-x="1267" 
d="M776 1184v-1184h-284v1184h-459v268h1202v-268h-459z" />
    <glyph glyph-name="U" unicode="U" horiz-adv-x="1431" 
d="M715 -33q-117 0 -217.5 36t-176.5 103.5t-119.5 172.5t-43.5 235v938h282v-917q0 -141 73 -216t202 -75q131 0 203.5 75t72.5 216v917h283v-938q0 -173 -75.5 -298.5t-200.5 -187t-283 -61.5z" />
    <glyph glyph-name="V" unicode="V" horiz-adv-x="1411" 
d="M1090 1452h299l-539 -1452h-291l-536 1452h309l379 -1079z" />
    <glyph glyph-name="W" unicode="W" horiz-adv-x="2129" 
d="M1802 1452h289l-401 -1452h-291l-332 1034l-332 -1034h-295l-403 1452h299l266 -999l322 999h293l323 -1003z" />
    <glyph glyph-name="X" unicode="X" horiz-adv-x="1331" 
d="M840 725l477 -725h-342l-313 502l-316 -502h-332l478 727l-476 725h340l312 -502l317 502h330z" />
    <glyph glyph-name="Y" unicode="Y" horiz-adv-x="1349" 
d="M27 1452h331l326 -575l326 575h317l-512 -842v-610h-283v610z" />
    <glyph glyph-name="Z" unicode="Z" horiz-adv-x="1316" 
d="M84 0v274l756 910h-729v268h1106v-264l-768 -918h778v-270h-1143z" />
    <glyph glyph-name="bracketleft" unicode="[" horiz-adv-x="665" 
d="M139 -336v1995h473v-207h-245v-1577h245v-211h-473z" />
    <glyph glyph-name="backslash" unicode="\" horiz-adv-x="1054" 
d="M47 1452h252l705 -1452h-250z" />
    <glyph glyph-name="bracketright" unicode="]" horiz-adv-x="665" 
d="M53 -336v211h244v1577h-244v207h473v-1995h-473z" />
    <glyph glyph-name="asciicircum" unicode="^" horiz-adv-x="1159" 
d="M834 719l-252 473l-252 -473h-260l405 733h209l406 -733h-256z" />
    <glyph glyph-name="underscore" unicode="_" horiz-adv-x="1067" 
d="M10 -223v223h1047v-223h-1047z" />
    <glyph glyph-name="grave" unicode="`" horiz-adv-x="606" 
d="M53 1436h316l184 -308h-221z" />
    <glyph glyph-name="a" unicode="a" horiz-adv-x="1101" 
d="M80 274q0 130 83 207t218 99l248 36q76 11 76 72q0 57 -43.5 94t-126.5 37q-86 0 -136.5 -47t-56.5 -117l-242 52q6 61 36.5 118.5t82.5 106t133.5 77.5t179.5 29q116 0 202.5 -31t137 -85t75 -121t24.5 -146v-495q0 -90 12 -160h-250q-10 45 -10 121q-42 -66 -117 -108
t-180 -42q-155 0 -250.5 90t-95.5 213zM483 174q97 0 159.5 55t62.5 179v45l-228 -35q-125 -17 -125 -127q0 -48 34.5 -82.5t96.5 -34.5z" />
    <glyph glyph-name="b" unicode="b" horiz-adv-x="1257" 
d="M139 0v1483h269v-586q38 58 118.5 97.5t186.5 39.5q216 0 340.5 -147t124.5 -379q0 -152 -58.5 -273t-167.5 -190.5t-250 -69.5q-101 0 -178.5 40t-120.5 108v-123h-264zM905 506q0 135 -70.5 210t-179.5 75q-108 0 -180 -75.5t-72 -209.5q0 -131 72.5 -209t179.5 -78
q109 0 179.5 76t70.5 211z" />
    <glyph glyph-name="c" unicode="c" horiz-adv-x="1138" 
d="M606 786q-109 0 -182.5 -75t-73.5 -207t74.5 -208.5t183.5 -76.5q95 0 153.5 50.5t78.5 119.5l239 -80q-17 -65 -55 -124.5t-96 -108.5t-141 -78t-179 -29q-224 0 -377 152.5t-153 382.5q0 115 40.5 214.5t110 169.5t166 110t205.5 40q99 0 183 -29t141 -78t94.5 -108
t54.5 -125l-244 -82q-22 73 -76.5 121.5t-146.5 48.5z" />
    <glyph glyph-name="d" unicode="d" horiz-adv-x="1253" 
d="M1114 182q0 -127 8 -182h-260q-10 38 -10 117q-37 -63 -111 -102.5t-172 -39.5q-214 0 -352.5 150.5t-138.5 380.5q0 224 136 375t347 151q117 0 188.5 -38t96.5 -87v576h268v-1301zM352 506q0 -133 69.5 -210t180.5 -77q107 0 177.5 78t70.5 211q0 131 -70 205.5
t-178 74.5t-179 -75.5t-71 -206.5z" />
    <glyph glyph-name="e" unicode="e" horiz-adv-x="1153" 
d="M805 618q-5 83 -60.5 141t-164.5 58q-99 0 -160 -62t-66 -137h451zM1059 289q-39 -139 -160.5 -229.5t-298.5 -90.5q-141 0 -258 62.5t-189.5 187t-72.5 289.5q0 117 41 218t109.5 168.5t158 105.5t186.5 38q234 0 366 -138.5t132 -383.5q0 -17 -1 -36.5t-2 -32.5t-1 -15
h-721q4 -98 78 -163.5t176 -65.5q173 0 229 153z" />
    <glyph glyph-name="f" unicode="f" horiz-adv-x="770" 
d="M645 1257q-57 0 -99 -31.5t-42 -107.5v-110h227v-234h-227v-774h-275v774h-168v234h168v114q0 170 100 272.5t267 102.5q89 0 135 -20v-230q-23 10 -86 10z" />
    <glyph glyph-name="g" unicode="g" horiz-adv-x="1236" 
d="M326 10q14 -86 76 -138t159 -52q132 0 200 67.5t68 212.5v74q-34 -55 -105.5 -92t-174.5 -37q-202 0 -335.5 139t-133.5 351q0 133 59 245t167 179t243 67q112 0 184.5 -39.5t102.5 -97.5v119h262v-899q0 -85 -18.5 -161t-59.5 -144t-101.5 -117.5t-150 -78t-199.5 -28.5
q-199 0 -333.5 106.5t-155.5 258.5zM596 279q105 0 171.5 70t66.5 186q0 114 -68.5 183.5t-169.5 69.5q-105 0 -173.5 -69t-68.5 -184q0 -117 67.5 -186.5t174.5 -69.5z" />
    <glyph glyph-name="h" unicode="h" horiz-adv-x="1187" 
d="M412 0h-273v1483h273v-559q46 56 119.5 83t152.5 27q124 0 210 -54.5t125.5 -142.5t39.5 -202v-635h-273v588q0 91 -46 145.5t-140 54.5q-84 0 -133.5 -54.5t-54.5 -141.5v-592z" />
    <glyph glyph-name="i" unicode="i" horiz-adv-x="550" 
d="M139 0v1008h273v-1008h-273zM131 1323q0 64 42 107t101 43q64 0 107 -42.5t43 -107.5q0 -59 -43 -101t-107 -42q-58 0 -100.5 42t-42.5 101z" />
    <glyph glyph-name="j" unicode="j" horiz-adv-x="550" 
d="M139 1008h273v-1096q0 -148 -85 -240t-231 -92q-99 0 -153 23v227q30 -10 84 -10q112 0 112 119v1069zM129 1323q0 64 42 107t101 43q64 0 107 -42.5t43 -107.5q0 -59 -43 -101t-107 -42q-58 0 -100.5 42t-42.5 101z" />
    <glyph glyph-name="k" unicode="k" horiz-adv-x="1142" 
d="M713 584l411 -584h-333l-267 385l-112 -119v-266h-273v1483h273v-850l348 375h356z" />
    <glyph glyph-name="l" unicode="l" horiz-adv-x="550" 
d="M139 0v1483h273v-1483h-273z" />
    <glyph glyph-name="m" unicode="m" horiz-adv-x="1806" 
d="M139 0v1008h260v-123q40 70 123.5 110.5t171.5 40.5q105 0 183 -43.5t116 -124.5q109 168 320 168q72 0 135.5 -22.5t115.5 -67t82.5 -120t30.5 -173.5v-653h-264v598q0 86 -44 138t-134 52q-85 0 -135.5 -56.5t-50.5 -141.5v-590h-271v598q0 86 -44.5 138t-133.5 52
q-88 0 -138 -55.5t-50 -142.5v-590h-273z" />
    <glyph glyph-name="n" unicode="n" horiz-adv-x="1187" 
d="M412 0h-273v1008h264v-125q45 74 124.5 112.5t166.5 38.5q180 0 272.5 -111.5t92.5 -287.5v-635h-273v588q0 91 -46 145.5t-140 54.5q-88 0 -138 -58.5t-50 -149.5v-580z" />
    <glyph glyph-name="o" unicode="o" horiz-adv-x="1212" 
d="M606 217q106 0 181 76.5t75 210.5t-75 210.5t-181 76.5t-181 -76.5t-75 -210.5t75 -210.5t181 -76.5zM606 1038q228 0 378.5 -151t150.5 -383q0 -231 -150.5 -383t-378.5 -152t-378 152t-150 383q0 232 150 383t378 151z" />
    <glyph glyph-name="p" unicode="p" horiz-adv-x="1257" 
d="M139 -389v1397h264v-123q37 64 118.5 104.5t191.5 40.5q216 0 340.5 -147t124.5 -377q0 -231 -131.5 -381t-344.5 -150q-99 0 -175 34.5t-115 88.5v-487h-273zM909 504q0 131 -71 206.5t-179 75.5t-179.5 -76t-71.5 -206t72 -207.5t179 -77.5q108 0 179 77t71 208z" />
    <glyph glyph-name="q" unicode="q" horiz-adv-x="1255" 
d="M850 -389v489q-36 -58 -109.5 -91.5t-171.5 -33.5q-214 0 -352.5 151t-138.5 380q0 147 59 266.5t170 189.5t254 70q119 0 193.5 -43.5t101.5 -97.5v117h260v-1397h-266zM352 506q0 -131 71.5 -209t178.5 -78t178.5 78t71.5 209t-71 206.5t-179 75.5t-179 -75.5
t-71 -206.5z" />
    <glyph glyph-name="r" unicode="r" horiz-adv-x="794" 
d="M754 737q-36 8 -82 8q-55 0 -99.5 -14.5t-82 -46t-58 -88t-20.5 -135.5v-461h-273v1008h264v-150q22 47 57.5 80.5t77.5 49t78.5 22t73.5 6.5q18 0 64 -4v-275z" />
    <glyph glyph-name="s" unicode="s" horiz-adv-x="964" 
d="M305 332q5 -65 52 -109.5t132 -44.5q65 0 99.5 28.5t34.5 72.5q0 76 -109 98l-133 31q-142 31 -212.5 110.5t-70.5 190.5q0 137 108 233t269 96q82 0 149.5 -20t110.5 -50.5t73.5 -70.5t44.5 -77t17 -72l-227 -52q-9 55 -48 95t-118 40q-54 0 -91.5 -28.5t-37.5 -71.5
q0 -36 25 -59t67 -31l144 -31q145 -30 222 -112.5t77 -196.5q0 -63 -24.5 -121.5t-71.5 -106t-123.5 -76t-171.5 -28.5q-87 0 -159 21.5t-117.5 55t-78 76.5t-47.5 82.5t-18 76.5z" />
    <glyph glyph-name="t" unicode="t" horiz-adv-x="776" 
d="M494 1008h202v-242h-202v-422q0 -64 28 -90.5t90 -26.5q63 0 84 9v-226q-60 -24 -153 -24q-149 0 -234.5 82t-85.5 229v469h-182v242h51q76 0 116 44t40 115v142h246v-301z" />
    <glyph glyph-name="u" unicode="u" horiz-adv-x="1187" 
d="M799 0q-8 31 -8 109q-39 -68 -116 -102t-163 -34q-177 0 -280 113.5t-103 284.5v637h272v-582q0 -91 46 -147t139 -56q90 0 140 54.5t50 144.5v586h273v-826q0 -124 10 -182h-260z" />
    <glyph glyph-name="v" unicode="v" horiz-adv-x="1134" 
d="M709 0h-273l-411 1008h299l249 -676l240 676h287z" />
    <glyph glyph-name="w" unicode="w" horiz-adv-x="1718" 
d="M1010 1008l217 -650l186 650h270l-315 -1008h-272l-236 688l-231 -688h-277l-321 1008h286l187 -648l219 648h287z" />
    <glyph glyph-name="x" unicode="x" horiz-adv-x="1095" 
d="M387 506l-358 502h323q17 -27 100.5 -149.5t100.5 -149.5l199 299h309l-352 -494l364 -514h-319l-211 309q-135 -193 -207 -309h-307z" />
    <glyph glyph-name="y" unicode="y" horiz-adv-x="1153" 
d="M215 -397l238 524l-428 881h305l268 -590l248 590h291l-633 -1405h-289z" />
    <glyph glyph-name="z" unicode="z" horiz-adv-x="1015" 
d="M90 0v240l477 532h-465v236h813v-228l-491 -542h500v-238h-834z" />
    <glyph glyph-name="braceleft" unicode="{" horiz-adv-x="753" 
d="M33 782q94 0 149.5 46t55.5 145v291q0 198 103.5 296.5t293.5 98.5h63v-207h-61q-170 0 -170 -182v-344q0 -98 -54 -165t-153 -93q98 -25 152.5 -92.5t54.5 -165.5v-342q0 -185 170 -185h61v-207h-63q-190 0 -293.5 99.5t-103.5 298.5v291q0 99 -55.5 144.5t-149.5 45.5
v227z" />
    <glyph glyph-name="bar" unicode="|" horiz-adv-x="505" 
d="M139 -324v1983h228v-1983h-228z" />
    <glyph glyph-name="braceright" unicode="}" horiz-adv-x="751" 
d="M721 555q-95 0 -151 -45.5t-56 -144.5v-291q0 -198 -103 -298t-292 -100h-64v207h60q172 0 172 185v342q0 98 53.5 165.5t151.5 92.5q-98 26 -151.5 93t-53.5 165v344q0 98 -44.5 140t-127.5 42h-60v207h64q189 0 292 -98.5t103 -296.5v-291q0 -99 56.5 -145t150.5 -46
v-227z" />
    <glyph glyph-name="asciitilde" unicode="~" horiz-adv-x="1292" 
d="M537 530q-52 27 -103 27q-113 0 -182 -106l-152 120q57 104 145.5 159.5t194.5 55.5q108 0 213 -57l97 -53q44 -29 108 -29q111 0 180 105l150 -121q-56 -103 -144.5 -158t-193.5 -55q-113 0 -217 59z" />
    <glyph glyph-name="uni00A0" unicode="&#xa0;" horiz-adv-x="485" 
 />
    <glyph glyph-name="exclamdown" unicode="&#xa1;" horiz-adv-x="536" 
d="M432 -430h-328l66 1010h199zM106 877q0 66 47.5 113.5t114.5 47.5q66 0 114 -47.5t48 -113.5q0 -67 -48 -115.5t-114 -48.5q-67 0 -114.5 48t-47.5 116z" />
    <glyph glyph-name="cent" unicode="&#xa2;" horiz-adv-x="1099" 
d="M469 0v178q-171 37 -280 169t-109 312q0 185 109 317.5t280 166.5v186h207v-184q143 -23 232.5 -107.5t121.5 -197.5l-231 -76q-12 33 -27.5 58t-39.5 49.5t-61 37.5t-85 13q-105 0 -175.5 -70t-70.5 -193q0 -121 72.5 -191.5t175.5 -70.5q92 0 147 46.5t72 111.5
l229 -74q-32 -112 -124.5 -199t-235.5 -110v-172h-207z" />
    <glyph glyph-name="sterling" unicode="&#xa3;" horiz-adv-x="1212" 
d="M233 768q-36 89 -36 195q0 78 31 149.5t86 126.5t138 88t181 33q92 0 167 -24t123 -63t80.5 -90.5t46 -104t13.5 -105.5l-246 -37q-2 93 -48 143.5t-132 50.5q-74 0 -125 -44.5t-51 -127.5q0 -77 45 -190h375v-209h-310q0 -7 1 -21.5t1 -21.5q0 -185 -147 -278h317
q76 0 121 48.5t45 123.5l244 -21q0 -170 -101.5 -279.5t-265.5 -109.5h-686v227q101 36 159 103.5t58 156.5q0 41 -8 72h-200v209h124z" />
    <glyph glyph-name="currency" unicode="&#xa4;" horiz-adv-x="1218" 
d="M168 502q0 122 61 221l-147 149l164 164l151 -153q104 55 215 55q116 0 211 -53l150 151l164 -164l-146 -145q64 -101 64 -225q0 -118 -62 -223l144 -146l-164 -164l-148 150q-95 -53 -213 -53q-121 0 -219 55l-147 -152l-164 164l145 148q-59 100 -59 221zM397 502
q0 -94 60.5 -154.5t154.5 -60.5t154.5 60.5t60.5 154.5t-60.5 154.5t-154.5 60.5t-154.5 -60.5t-60.5 -154.5z" />
    <glyph glyph-name="yen" unicode="&#xa5;" horiz-adv-x="1284" 
d="M774 276v-276h-266v276h-354v193h354v143h-354v191h219l-318 526h310l282 -502l279 502h297l-316 -526h236v-191h-369v-143h369v-193h-369z" />
    <glyph glyph-name="brokenbar" unicode="&#xa6;" horiz-adv-x="530" 
d="M379 1659v-815h-227v815h227zM379 492v-816h-227v816h227z" />
    <glyph glyph-name="section" unicode="&#xa7;" horiz-adv-x="1079" 
d="M969 518q0 -165 -158 -256q158 -112 158 -291q0 -87 -36.5 -161.5t-96.5 -124t-138 -77.5t-161 -28q-196 0 -310.5 104t-122.5 277l254 43q0 -96 48.5 -145t132.5 -49q68 0 111.5 39t43.5 104q0 76 -90 127l-207 108q-52 27 -88 49t-76.5 54.5t-65 66.5t-40.5 81t-16 102
q0 88 43 154t112 104q-155 113 -155 293q0 115 62 206t160 138t212 47q193 0 307.5 -106t122.5 -277l-258 -41q0 95 -46.5 143.5t-127.5 48.5q-72 0 -116 -40t-44 -103q0 -38 23.5 -71.5t66.5 -53.5l205 -106q68 -36 112 -65.5t89.5 -73t67.5 -98t22 -122.5zM424 711
q-66 -52 -66 -115q0 -46 19.5 -78t68.5 -57l207 -111q66 52 66 117q0 88 -88 135z" />
    <glyph glyph-name="dieresis" unicode="&#xa8;" horiz-adv-x="829" 
d="M55 1286q0 60 42 103t102 43t102.5 -43t42.5 -103t-42.5 -101.5t-102.5 -41.5t-102 41.5t-42 101.5zM485 1286q0 61 41.5 103.5t102.5 42.5q60 0 102.5 -43t42.5 -103t-42.5 -101.5t-102.5 -41.5q-61 0 -102.5 41.5t-41.5 101.5z" />
    <glyph glyph-name="copyright" unicode="&#xa9;" horiz-adv-x="1683" 
d="M260 725q0 -165 76.5 -301.5t210 -215.5t293.5 -79t293.5 79t209.5 215.5t76 301.5q0 124 -45 235t-122 190.5t-184.5 126t-227.5 46.5q-161 0 -294 -79t-209.5 -216.5t-76.5 -302.5zM86 725q0 154 59.5 294.5t160.5 242.5t240.5 162.5t293.5 60.5t294 -60.5
t241.5 -162.5t161.5 -242.5t60 -294.5q0 -205 -101.5 -379.5t-276 -276.5t-379.5 -102q-154 0 -294 60.5t-240.5 162t-160 242t-59.5 293.5zM846 938q-82 0 -138.5 -57.5t-56.5 -157.5t57 -158.5t140 -58.5q73 0 117.5 39.5t58.5 91.5l182 -62q-28 -104 -122 -181t-236 -77
q-169 0 -286.5 115.5t-117.5 290.5q0 177 114.5 292t283.5 115q145 0 239 -75.5t121 -182.5l-186 -63q-16 55 -57 92t-113 37z" />
    <glyph glyph-name="ordfeminine" unicode="&#xaa;" horiz-adv-x="868" 
d="M98 813q0 176 211 213l170 29q51 8 51 49q0 34 -28 57t-80 23q-57 0 -89.5 -31t-37.5 -76l-182 37q5 89 87.5 162.5t221.5 73.5q83 0 144.5 -22t97 -60.5t52.5 -86t17 -104.5v-348q0 -73 10 -111h-190q-6 30 -6 82q-67 -102 -205 -102q-110 0 -177 64t-67 151zM391 750
q61 0 100 34.5t39 114.5v33l-143 -23q-82 -10 -82 -84q0 -32 22 -53.5t64 -21.5z" />
    <glyph glyph-name="guillemotleft" unicode="&#xab;" horiz-adv-x="1128" 
d="M346 207l-280 397l282 404h256l-278 -406l278 -395h-258zM788 207l-278 397l281 404h258l-281 -406l279 -395h-259z" />
    <glyph glyph-name="logicalnot" unicode="&#xac;" horiz-adv-x="1208" 
d="M860 279v399h-768v225h1002v-624h-234z" />
    <glyph glyph-name="uni00AD" unicode="&#xad;" horiz-adv-x="847" 
d="M127 487v242h594v-242h-594z" />
    <glyph glyph-name="registered" unicode="&#xae;" horiz-adv-x="1683" 
d="M86 725q0 154 59.5 294.5t160.5 242.5t240.5 162.5t293.5 60.5t294 -60.5t241.5 -162.5t161.5 -242.5t60 -294.5q0 -205 -101.5 -379.5t-276 -276.5t-379.5 -102q-154 0 -294 60.5t-240.5 162t-160 242t-59.5 293.5zM260 725q0 -165 76.5 -301.5t210 -215.5t293.5 -79
t293.5 79t209.5 215.5t76 301.5q0 124 -45 235t-122 190.5t-184.5 126t-227.5 46.5q-161 0 -294 -79t-209.5 -216.5t-76.5 -302.5zM821 606h-59v-284h-195v819h324q118 0 199 -78t81 -189q0 -81 -42 -143.5t-115 -93.5l164 -315h-215zM856 766q56 0 87.5 28.5t31.5 77.5
q0 51 -31.5 80t-87.5 29h-94v-215h94z" />
    <glyph glyph-name="overscore" unicode="&#xaf;" horiz-adv-x="686" 
d="M55 1182v198h576v-198h-576z" />
    <glyph glyph-name="degree" unicode="&#xb0;" horiz-adv-x="841" 
d="M285 1022q0 -65 38.5 -104t96.5 -39q60 0 97.5 40t37.5 103t-37.5 102t-97.5 39q-58 0 -96.5 -39.5t-38.5 -101.5zM80 1022q0 140 100.5 238t239.5 98t240.5 -98t101.5 -238q0 -141 -101 -237.5t-241 -96.5q-142 0 -241 97t-99 237z" />
    <glyph glyph-name="plusminus" unicode="&#xb1;" horiz-adv-x="1183" 
d="M477 862v252h230v-252h364v-221h-364v-252h-230v252h-364v221h364zM1071 313v-223h-958v223h958z" />
    <glyph glyph-name="twosuperior" unicode="&#xb2;" horiz-adv-x="733" 
d="M80 1155q-8 19 -8 59q0 111 77 182.5t218 71.5q135 0 212.5 -71.5t77.5 -177.5q0 -71 -40 -126t-121 -104l-144 -86q-24 -15 -24 -31h336v-174h-596v25q0 105 42 184.5t140 136.5l123 72q78 47 78 105q0 32 -23 55.5t-63 23.5q-48 0 -76.5 -28t-28.5 -78q0 -19 6 -37z
" />
    <glyph glyph-name="threesuperior" unicode="&#xb3;" horiz-adv-x="749" 
d="M238 961q5 -48 38 -78.5t86 -30.5q50 0 80.5 25.5t30.5 64.5q0 46 -31 69t-77 23q-38 0 -66 -12l-68 139l179 121h-330v170h582v-168l-185 -125q95 -12 151 -69t56 -152q0 -107 -88.5 -181.5t-233.5 -74.5q-132 0 -215 69t-96 167z" />
    <glyph glyph-name="acute" unicode="&#xb4;" horiz-adv-x="604" 
d="M272 1128h-219l187 308h311z" />
    <glyph glyph-name="mu" unicode="&#xb5;" horiz-adv-x="1175" 
d="M797 0q-9 34 -9 109q-39 -68 -115.5 -102t-162.5 -34q-64 0 -111 15v-377h-272v1397h272v-582q0 -91 46 -147t139 -56q90 0 140 54.5t50 144.5v586h273v-826q0 -137 10 -182h-260z" />
    <glyph glyph-name="paragraph" unicode="&#xb6;" horiz-adv-x="1413" 
d="M725 -389h-213v1005h-35q-171 0 -294.5 119.5t-123.5 290.5q0 133 67 231t176 146.5t243 48.5h792v-209h-198v-1632h-217v1632h-197v-1632z" />
    <glyph glyph-name="middot" unicode="&#xb7;" horiz-adv-x="567" 
d="M106 633q0 73 51.5 123.5t125.5 50.5t125 -50.5t51 -123.5t-51 -122.5t-125 -49.5t-125.5 49.5t-51.5 122.5z" />
    <glyph glyph-name="cedilla" unicode="&#xb8;" horiz-adv-x="610" 
d="M170 -129l98 156h170l-80 -125q88 -2 143.5 -50t55.5 -126q0 -36 -14.5 -69.5t-44.5 -62.5t-82.5 -46t-120.5 -17q-79 0 -144.5 32.5t-99.5 74.5l88 110q76 -76 154 -76q38 0 61 15t23 43q0 24 -21 40.5t-57 16.5q-34 0 -55 -8z" />
    <glyph glyph-name="onesuperior" unicode="&#xb9;" horiz-adv-x="526" 
d="M227 700v457h-186v135q90 0 143.5 48t67.5 112h186v-752h-211z" />
    <glyph glyph-name="ordmasculine" unicode="&#xba;" horiz-adv-x="915" 
d="M459 788q70 0 118 49t48 138q0 88 -48 136t-118 48t-118 -48t-48 -136q0 -89 48 -138t118 -49zM459 1350q160 0 267.5 -106t107.5 -269q0 -164 -107.5 -270.5t-267.5 -106.5q-161 0 -269 106.5t-108 270.5q0 163 108 269t269 106z" />
    <glyph glyph-name="guillemotright" unicode="&#xbb;" horiz-adv-x="1130" 
d="M526 207l279 395l-279 406h256l283 -404l-281 -397h-258zM84 207l276 395l-278 406h256l283 -404l-279 -397h-258z" />
    <glyph glyph-name="onequarter" unicode="&#xbc;" horiz-adv-x="1613" 
d="M254 578v456h-186v135q90 0 143.5 48t67.5 112h186v-751h-211zM172 0l938 1329h238l-938 -1329h-238zM852 348l346 406h223v-447h125v-162h-125v-145h-204v145h-365v203zM1217 541l-199 -234h199v234z" />
    <glyph glyph-name="onehalf" unicode="&#xbd;" horiz-adv-x="1652" 
d="M254 578v456h-186v135q90 0 143.5 48t67.5 112h186v-751h-211zM170 0l938 1329h238l-938 -1329h-238zM987 457q-8 19 -8 59q0 111 77 182.5t218 71.5q135 0 213 -72t78 -178q0 -71 -40.5 -125.5t-121.5 -103.5l-143 -86q-25 -16 -25 -31h336v-174h-596v25q0 105 42 184.5
t140 136.5l123 72q78 47 78 104q0 32 -23 56t-63 24q-48 0 -76.5 -28t-28.5 -78q0 -16 7 -37z" />
    <glyph glyph-name="threequarters" unicode="&#xbe;" horiz-adv-x="1767" 
d="M260 838q5 -48 38.5 -78.5t86.5 -30.5q50 0 80.5 25.5t30.5 64.5q0 46 -31.5 69t-77.5 23q-37 0 -65 -12l-68 139l178 121h-330v170h582v-168l-184 -125q95 -12 151 -69t56 -152q0 -107 -88.5 -181.5t-233.5 -74.5q-132 0 -215 69t-96 167zM340 0l938 1329h238
l-938 -1329h-238zM1006 348l346 406h223v-447h125v-162h-125v-145h-205v145h-364v203zM1370 541l-199 -234h199v234z" />
    <glyph glyph-name="questiondown" unicode="&#xbf;" horiz-adv-x="1069" 
d="M674 582q6 -40 6 -84q0 -90 -36 -163t-122 -136l-98 -72q-86 -64 -86 -162q0 -77 52.5 -129.5t150.5 -52.5q100 0 155.5 64t55.5 153q0 47 -13 84l262 -25q11 -57 11 -90q0 -84 -31.5 -160.5t-89 -137t-148.5 -96.5t-202 -36q-115 0 -208.5 34.5t-152 92.5t-90 130.5
t-31.5 150.5q0 226 199 364l84 60q111 76 111 198v13h221zM397 877q0 67 48 114t116 47t115 -47t47 -114t-47.5 -114.5t-114.5 -47.5q-68 0 -116 47.5t-48 114.5z" />
    <glyph glyph-name="Agrave" unicode="&#xc0;" horiz-adv-x="1476" 
d="M1028 332h-590l-121 -332h-299l557 1452h328l553 -1452h-307zM532 590h402l-201 549zM854 1575h-199l-186 274h264z" />
    <glyph glyph-name="Aacute" unicode="&#xc1;" horiz-adv-x="1476" 
d="M1028 332h-590l-121 -332h-299l557 1452h328l553 -1452h-307zM532 590h402l-201 549zM836 1575h-199l121 274h264z" />
    <glyph glyph-name="Acircumflex" unicode="&#xc2;" horiz-adv-x="1476" 
d="M1028 332h-590l-121 -332h-299l557 1452h328l553 -1452h-307zM532 590h402l-201 549zM864 1829l205 -275h-211l-119 138l-116 -138h-211l204 275h248z" />
    <glyph glyph-name="Atilde" unicode="&#xc3;" horiz-adv-x="1476" 
d="M1028 332h-590l-121 -332h-299l557 1452h328l553 -1452h-307zM532 590h402l-201 549zM1069 1817q0 -120 -55.5 -181t-147.5 -61q-54 0 -96.5 20t-73 40t-55.5 20q-30 0 -43 -16.5t-16 -59.5h-170q0 121 56 181.5t148 60.5q54 0 97 -19.5t73.5 -39t55.5 -19.5q30 0 44 17
t17 57h166z" />
    <glyph glyph-name="Adieresis" unicode="&#xc4;" horiz-adv-x="1476" 
d="M260 1686q0 62 41.5 104.5t104.5 42.5t106 -42.5t43 -104.5q0 -63 -43 -105.5t-106 -42.5t-104.5 42.5t-41.5 105.5zM911 1686q0 62 42.5 104.5t105.5 42.5t106 -42.5t43 -104.5q0 -63 -43 -105.5t-106 -42.5t-105.5 42.5t-42.5 105.5zM1028 332h-590l-121 -332h-299
l557 1452h328l553 -1452h-307zM532 590h402l-201 549z" />
    <glyph glyph-name="Aring" unicode="&#xc5;" horiz-adv-x="1476" 
d="M836 1554q0 46 -30.5 75.5t-72.5 29.5q-43 0 -72.5 -29.5t-29.5 -75.5t29 -74t73 -28q43 0 73 28t30 74zM532 590h402l-201 549zM1028 332h-590l-121 -332h-299l523 1360q-86 77 -86 194q0 115 82.5 193t195.5 78t196 -78t83 -193q0 -108 -78 -186l522 -1368h-307z" />
    <glyph glyph-name="AE" unicode="&#xc6;" horiz-adv-x="2127" 
d="M1112 0v342h-561l-219 -342h-346l962 1452h1073v-266h-624v-332h565v-252h-565v-336h626v-266h-911zM1112 580v639l-410 -639h410z" />
    <glyph glyph-name="Ccedilla" unicode="&#xc7;" horiz-adv-x="1548" 
d="M688 -129l66 102q-139 12 -261 71t-213 154t-143.5 231.5t-52.5 295.5q0 170 61 314t163 240t235.5 150t279.5 54q117 0 218 -27.5t174 -74t130 -109.5t91.5 -130t52.5 -141l-266 -83q-13 56 -41.5 105t-75.5 92.5t-120 69t-163 25.5q-84 0 -162.5 -30t-142.5 -88
t-102.5 -153t-38.5 -214q0 -112 37.5 -204.5t100.5 -151.5t143.5 -91t168.5 -32q89 0 162.5 27t121.5 71.5t78.5 94.5t45.5 104l264 -80q-15 -64 -45 -126t-80 -123t-113 -109.5t-150 -83.5t-187 -46l-47 -73q88 -2 143 -50t55 -126q0 -36 -14.5 -69.5t-44.5 -62.5
t-82.5 -46t-120.5 -17q-79 0 -144.5 32.5t-99.5 74.5l88 110q76 -76 154 -76q38 0 61 15t23 43q0 24 -21 40.5t-57 16.5t-55 -8z" />
    <glyph glyph-name="Egrave" unicode="&#xc8;" horiz-adv-x="1185" 
d="M170 0v1452h909v-266h-626v-332h567v-252h-567v-336h626v-266h-909zM756 1575h-199l-186 274h264z" />
    <glyph glyph-name="Eacute" unicode="&#xc9;" horiz-adv-x="1185" 
d="M170 0v1452h909v-266h-626v-332h567v-252h-567v-336h626v-266h-909zM723 1575h-199l121 274h264z" />
    <glyph glyph-name="Ecircumflex" unicode="&#xca;" horiz-adv-x="1185" 
d="M170 0v1452h909v-266h-626v-332h567v-252h-567v-336h626v-266h-909zM737 1829l205 -275h-211l-119 138l-116 -138h-211l204 275h248z" />
    <glyph glyph-name="Edieresis" unicode="&#xcb;" horiz-adv-x="1185" 
d="M252 1686q0 62 41.5 104.5t103.5 42.5q63 0 106.5 -42.5t43.5 -104.5q0 -63 -43.5 -105.5t-106.5 -42.5t-104 42.5t-41 105.5zM713 1686q0 62 41.5 104.5t103.5 42.5q63 0 106.5 -42.5t43.5 -104.5q0 -63 -43.5 -105.5t-106.5 -42.5t-104 42.5t-41 105.5zM170 0v1452h909
v-266h-626v-332h567v-252h-567v-336h626v-266h-909z" />
    <glyph glyph-name="Igrave" unicode="&#xcc;" horiz-adv-x="626" 
d="M170 0v1452h287v-1452h-287zM428 1575h-199l-186 274h264z" />
    <glyph glyph-name="Iacute" unicode="&#xcd;" horiz-adv-x="626" 
d="M170 0v1452h287v-1452h-287zM387 1575h-199l121 274h264z" />
    <glyph glyph-name="Icircumflex" unicode="&#xce;" horiz-adv-x="626" 
d="M170 0v1452h287v-1452h-287zM-63 1554l245 261h279l250 -261h-256l-138 134l-133 -134h-247z" />
    <glyph glyph-name="Idieresis" unicode="&#xcf;" horiz-adv-x="626" 
d="M-20 1686q0 61 40 102t101 41q60 0 102.5 -41.5t42.5 -101.5q0 -61 -42.5 -102.5t-102.5 -41.5q-61 0 -101 41t-40 103zM367 1686q0 60 40.5 101.5t100.5 41.5q61 0 103 -41.5t42 -101.5q0 -61 -41.5 -102.5t-103.5 -41.5q-60 0 -100.5 41.5t-40.5 102.5zM170 0v1452h287
v-1452h-287z" />
    <glyph glyph-name="Eth" unicode="&#xd0;" horiz-adv-x="1529" 
d="M205 0v645h-180v209h180v598h520q155 0 286.5 -49.5t227 -141t149.5 -229.5t54 -307q0 -224 -94 -390t-255.5 -250.5t-369.5 -84.5h-518zM713 262q91 0 169 28.5t138 83.5t94.5 145.5t34.5 205.5t-34 205t-94 146t-137.5 85t-168.5 29h-228v-336h281v-209h-281v-383h226z
" />
    <glyph glyph-name="Ntilde" unicode="&#xd1;" horiz-adv-x="1579" 
d="M1141 1765q0 -108 -58 -166.5t-149 -58.5q-80 0 -154 49l-12 8q-3 2 -8 5q-63 34 -90 36q-60 0 -60 -88h-164v56q0 108 58.5 165.5t148.5 57.5q75 0 156 -47l12 -8q11 -5 27 -13.5t25 -13t21.5 -8.5t23.5 -4q59 0 59 63v25h164v-58zM1112 0l-659 1030v-1030h-283v1452
h352l604 -960v960h283v-1452h-297z" />
    <glyph glyph-name="Ograve" unicode="&#xd2;" horiz-adv-x="1660" 
d="M377 727q0 -118 39 -213t104 -152.5t144 -87.5t165 -30q69 0 134 18.5t123.5 57.5t102 95t69.5 136.5t26 175.5t-26 175.5t-69.5 136.5t-102 95t-123.5 57.5t-134 18.5q-86 0 -165 -30t-144 -87.5t-104 -152.5t-39 -213zM84 725q0 171 61 315.5t164 240t237.5 149
t282.5 53.5t283.5 -53.5t238.5 -149t164.5 -240t61.5 -315.5q0 -170 -61.5 -314t-164.5 -239.5t-238.5 -149t-283.5 -53.5t-282.5 53.5t-237.5 149t-164 239.5t-61 314zM924 1575h-199l-186 274h264z" />
    <glyph glyph-name="Oacute" unicode="&#xd3;" horiz-adv-x="1660" 
d="M377 727q0 -118 39 -213t104 -152.5t144 -87.5t165 -30q69 0 134 18.5t123.5 57.5t102 95t69.5 136.5t26 175.5t-26 175.5t-69.5 136.5t-102 95t-123.5 57.5t-134 18.5q-86 0 -165 -30t-144 -87.5t-104 -152.5t-39 -213zM84 725q0 171 61 315.5t164 240t237.5 149
t282.5 53.5t283.5 -53.5t238.5 -149t164.5 -240t61.5 -315.5q0 -170 -61.5 -314t-164.5 -239.5t-238.5 -149t-283.5 -53.5t-282.5 53.5t-237.5 149t-164 239.5t-61 314zM920 1575h-199l121 274h264z" />
    <glyph glyph-name="Ocircumflex" unicode="&#xd4;" horiz-adv-x="1660" 
d="M377 727q0 -118 39 -213t104 -152.5t144 -87.5t165 -30q69 0 134 18.5t123.5 57.5t102 95t69.5 136.5t26 175.5t-26 175.5t-69.5 136.5t-102 95t-123.5 57.5t-134 18.5q-86 0 -165 -30t-144 -87.5t-104 -152.5t-39 -213zM84 725q0 171 61 315.5t164 240t237.5 149
t282.5 53.5t283.5 -53.5t238.5 -149t164.5 -240t61.5 -315.5q0 -170 -61.5 -314t-164.5 -239.5t-238.5 -149t-283.5 -53.5t-282.5 53.5t-237.5 149t-164 239.5t-61 314zM954 1829l205 -275h-211l-119 138l-116 -138h-211l205 275h247z" />
    <glyph glyph-name="Otilde" unicode="&#xd5;" horiz-adv-x="1660" 
d="M377 727q0 -118 39 -213t104 -152.5t144 -87.5t165 -30q69 0 134 18.5t123.5 57.5t102 95t69.5 136.5t26 175.5t-26 175.5t-69.5 136.5t-102 95t-123.5 57.5t-134 18.5q-86 0 -165 -30t-144 -87.5t-104 -152.5t-39 -213zM84 725q0 171 61 315.5t164 240t237.5 149
t282.5 53.5t283.5 -53.5t238.5 -149t164.5 -240t61.5 -315.5q0 -170 -61.5 -314t-164.5 -239.5t-238.5 -149t-283.5 -53.5t-282.5 53.5t-237.5 149t-164 239.5t-61 314zM1155 1817q0 -120 -55.5 -181t-147.5 -61q-54 0 -96.5 20t-73 40t-55.5 20q-30 0 -43 -16.5t-16 -59.5
h-170q0 121 56 181.5t148 60.5q54 0 97 -19.5t73.5 -39t55.5 -19.5q30 0 44 17t17 57h166z" />
    <glyph glyph-name="Odieresis" unicode="&#xd6;" horiz-adv-x="1660" 
d="M342 1686q0 62 42 104.5t105 42.5t106.5 -42.5t43.5 -104.5q0 -63 -43.5 -105.5t-106.5 -42.5t-105 42.5t-42 105.5zM1024 1686q0 62 42 104.5t105 42.5q62 0 105 -43t43 -104q0 -63 -43 -105.5t-105 -42.5q-63 0 -105 42.5t-42 105.5zM377 727q0 -118 39 -213
t104 -152.5t144 -87.5t165 -30q69 0 134 18.5t123.5 57.5t102 95t69.5 136.5t26 175.5t-26 175.5t-69.5 136.5t-102 95t-123.5 57.5t-134 18.5q-86 0 -165 -30t-144 -87.5t-104 -152.5t-39 -213zM84 725q0 171 61 315.5t164 240t237.5 149t282.5 53.5t283.5 -53.5
t238.5 -149t164.5 -240t61.5 -315.5q0 -170 -61.5 -314t-164.5 -239.5t-238.5 -149t-283.5 -53.5t-282.5 53.5t-237.5 149t-164 239.5t-61 314z" />
    <glyph glyph-name="multiply" unicode="&#xd7;" horiz-adv-x="1148" 
d="M573 440l-337 -342l-162 162l338 344l-338 344l164 162l335 -342l338 342l164 -160l-340 -346l340 -344l-162 -164z" />
    <glyph glyph-name="Oslash" unicode="&#xd8;" horiz-adv-x="1660" 
d="M84 725q0 171 61 315.5t164 240t237.5 149t282.5 53.5q202 0 371 -94l143 184l181 -135l-144 -187q197 -210 197 -526q0 -170 -61.5 -314t-164.5 -239.5t-238.5 -149t-283.5 -53.5q-194 0 -370 92l-140 -180l-184 133l146 187q-197 210 -197 524zM377 727q0 -176 82 -295
l569 735q-90 43 -199 43q-86 0 -165 -30t-144 -87.5t-104 -152.5t-39 -213zM1284 727q0 176 -82 295l-569 -735q90 -43 196 -43q69 0 134 18.5t123.5 57.5t102 95t69.5 136.5t26 175.5z" />
    <glyph glyph-name="Ugrave" unicode="&#xd9;" horiz-adv-x="1431" 
d="M715 -33q-117 0 -217.5 36t-176.5 103.5t-119.5 172.5t-43.5 235v938h282v-917q0 -141 73 -216t202 -75q131 0 203.5 75t72.5 216v917h283v-938q0 -173 -75.5 -298.5t-200.5 -187t-283 -61.5zM838 1575h-199l-186 274h264z" />
    <glyph glyph-name="Uacute" unicode="&#xda;" horiz-adv-x="1431" 
d="M715 -33q-117 0 -217.5 36t-176.5 103.5t-119.5 172.5t-43.5 235v938h282v-917q0 -141 73 -216t202 -75q131 0 203.5 75t72.5 216v917h283v-938q0 -173 -75.5 -298.5t-200.5 -187t-283 -61.5zM807 1575h-199l121 274h264z" />
    <glyph glyph-name="Ucircumflex" unicode="&#xdb;" horiz-adv-x="1431" 
d="M330 1554l245 261h279l250 -261h-256l-137 134l-133 -134h-248zM715 -33q-117 0 -217.5 36t-176.5 103.5t-119.5 172.5t-43.5 235v938h282v-917q0 -141 73 -216t202 -75q131 0 203.5 75t72.5 216v917h283v-938q0 -173 -75.5 -298.5t-200.5 -187t-283 -61.5z" />
    <glyph glyph-name="Udieresis" unicode="&#xdc;" horiz-adv-x="1431" 
d="M324 1686q0 62 42 104.5t105 42.5q61 0 104 -42.5t43 -104.5q0 -63 -42.5 -105.5t-104.5 -42.5q-63 0 -105 42.5t-42 105.5zM815 1686q0 62 42.5 104.5t105.5 42.5q61 0 104 -42.5t43 -104.5q0 -63 -42.5 -105.5t-104.5 -42.5q-63 0 -105.5 42.5t-42.5 105.5zM715 -33
q-117 0 -217.5 36t-176.5 103.5t-119.5 172.5t-43.5 235v938h282v-917q0 -141 73 -216t202 -75q131 0 203.5 75t72.5 216v917h283v-938q0 -173 -75.5 -298.5t-200.5 -187t-283 -61.5z" />
    <glyph glyph-name="Yacute" unicode="&#xdd;" horiz-adv-x="1349" 
d="M27 1452h331l326 -575l326 575h317l-512 -842v-610h-283v610zM762 1575h-199l121 274h264z" />
    <glyph glyph-name="Thorn" unicode="&#xde;" horiz-adv-x="1241" 
d="M678 526q105 0 166 56.5t61 150.5q0 98 -60.5 154.5t-166.5 56.5h-223v-418h223zM453 285v-285h-283v1452h283v-264h249q209 0 348.5 -130t139.5 -323t-139 -321.5t-346 -128.5h-252z" />
    <glyph glyph-name="germandbls" unicode="&#xdf;" horiz-adv-x="1245" 
d="M815 702q2 -32 33 -50q8 -5 43 -21l61 -27q106 -42 168 -124.5t62 -190.5q0 -55 -21.5 -109t-63.5 -102.5t-115 -78.5t-165 -30q-88 0 -157.5 28.5t-108.5 73.5t-58.5 94t-19.5 97l219 43q0 -49 31.5 -89t95.5 -40q51 0 80 28t29 66q0 39 -22.5 65.5t-76.5 49.5l-61 25
q-45 19 -80 39.5t-70.5 52.5t-55 78.5t-19.5 103.5q0 144 137 238l41 26q100 62 100 148q0 61 -49 104t-143 43t-157.5 -66.5t-63.5 -199.5v-977h-269v995q0 121 40 216t108.5 153.5t155.5 88.5t186 30q207 0 335 -108.5t128 -266.5q0 -191 -181 -307l-41 -25
q-30 -20 -42.5 -35t-12.5 -39z" />
    <glyph glyph-name="agrave" unicode="&#xe0;" horiz-adv-x="1101" 
d="M80 274q0 130 83 207t218 99l248 36q76 11 76 72q0 57 -43.5 94t-126.5 37q-86 0 -136.5 -47t-56.5 -117l-242 52q6 61 36.5 118.5t82.5 106t133.5 77.5t179.5 29q116 0 202.5 -31t137 -85t75 -121t24.5 -146v-495q0 -90 12 -160h-250q-10 45 -10 121q-42 -66 -117 -108
t-180 -42q-155 0 -250.5 90t-95.5 213zM483 174q97 0 159.5 55t62.5 179v45l-228 -35q-125 -17 -125 -127q0 -48 34.5 -82.5t96.5 -34.5zM629 1176h-199l-186 274h264z" />
    <glyph glyph-name="aacute" unicode="&#xe1;" horiz-adv-x="1101" 
d="M80 274q0 130 83 207t218 99l248 36q76 11 76 72q0 57 -43.5 94t-126.5 37q-86 0 -136.5 -47t-56.5 -117l-242 52q6 61 36.5 118.5t82.5 106t133.5 77.5t179.5 29q116 0 202.5 -31t137 -85t75 -121t24.5 -146v-495q0 -90 12 -160h-250q-10 45 -10 121q-42 -66 -117 -108
t-180 -42q-155 0 -250.5 90t-95.5 213zM483 174q97 0 159.5 55t62.5 179v45l-228 -35q-125 -17 -125 -127q0 -48 34.5 -82.5t96.5 -34.5zM623 1176h-199l121 274h264z" />
    <glyph glyph-name="acircumflex" unicode="&#xe2;" horiz-adv-x="1101" 
d="M80 274q0 130 83 207t218 99l248 36q76 11 76 72q0 57 -43.5 94t-126.5 37q-86 0 -136.5 -47t-56.5 -117l-242 52q6 61 36.5 118.5t82.5 106t133.5 77.5t179.5 29q116 0 202.5 -31t137 -85t75 -121t24.5 -146v-495q0 -90 12 -160h-250q-10 45 -10 121q-42 -66 -117 -108
t-180 -42q-155 0 -250.5 90t-95.5 213zM483 174q97 0 159.5 55t62.5 179v45l-228 -35q-125 -17 -125 -127q0 -48 34.5 -82.5t96.5 -34.5zM670 1430l204 -275h-210l-119 137l-117 -137h-211l205 275h248z" />
    <glyph glyph-name="atilde" unicode="&#xe3;" horiz-adv-x="1101" 
d="M80 274q0 130 83 207t218 99l248 36q76 11 76 72q0 57 -43.5 94t-126.5 37q-86 0 -136.5 -47t-56.5 -117l-242 52q6 61 36.5 118.5t82.5 106t133.5 77.5t179.5 29q116 0 202.5 -31t137 -85t75 -121t24.5 -146v-495q0 -90 12 -160h-250q-10 45 -10 121q-42 -66 -117 -108
t-180 -42q-155 0 -250.5 90t-95.5 213zM483 174q97 0 159.5 55t62.5 179v45l-228 -35q-125 -17 -125 -127q0 -48 34.5 -82.5t96.5 -34.5zM874 1417q0 -120 -55 -180.5t-147 -60.5q-54 0 -97 20t-73.5 39.5t-55.5 19.5q-30 0 -43 -16t-16 -59h-170q0 121 56 181t149 60
q54 0 96.5 -19.5t73 -39t55.5 -19.5q31 0 45 17t17 57h165z" />
    <glyph glyph-name="adieresis" unicode="&#xe4;" horiz-adv-x="1101" 
d="M80 274q0 130 83 207t218 99l248 36q76 11 76 72q0 57 -43.5 94t-126.5 37q-86 0 -136.5 -47t-56.5 -117l-242 52q6 61 36.5 118.5t82.5 106t133.5 77.5t179.5 29q116 0 202.5 -31t137 -85t75 -121t24.5 -146v-495q0 -90 12 -160h-250q-10 45 -10 121q-42 -66 -117 -108
t-180 -42q-155 0 -250.5 90t-95.5 213zM483 174q97 0 159.5 55t62.5 179v45l-228 -35q-125 -17 -125 -127q0 -48 34.5 -82.5t96.5 -34.5zM182 1286q0 60 42 103t102 43t102.5 -43t42.5 -103t-42.5 -101.5t-102.5 -41.5t-102 41.5t-42 101.5zM612 1286q0 61 41.5 103.5
t102.5 42.5q60 0 102.5 -43t42.5 -103t-42.5 -101.5t-102.5 -41.5q-61 0 -102.5 41.5t-41.5 101.5z" />
    <glyph glyph-name="aring" unicode="&#xe5;" horiz-adv-x="1101" 
d="M80 274q0 130 83 207t218 99l248 36q76 11 76 72q0 57 -43.5 94t-126.5 37q-86 0 -136.5 -47t-56.5 -117l-242 52q6 61 36.5 118.5t82.5 106t133.5 77.5t179.5 29q116 0 202.5 -31t137 -85t75 -121t24.5 -146v-495q0 -90 12 -160h-250q-10 45 -10 121q-42 -66 -117 -108
t-180 -42q-155 0 -250.5 90t-95.5 213zM483 174q97 0 159.5 55t62.5 179v45l-228 -35q-125 -17 -125 -127q0 -48 34.5 -82.5t96.5 -34.5zM764 1337q0 -96 -70 -160.5t-166 -64.5t-165.5 64.5t-69.5 160.5q0 97 70 163.5t165 66.5t165.5 -66.5t70.5 -163.5zM610 1337
q0 38 -24 62t-60 24t-59 -24t-23 -62q0 -37 23.5 -60.5t58.5 -23.5q36 0 60 24t24 60z" />
    <glyph glyph-name="ae" unicode="&#xe6;" horiz-adv-x="1781" 
d="M1688 289q-38 -138 -163 -229t-300 -91q-117 0 -218 46.5t-173 134.5q-135 -181 -383 -181q-172 0 -272.5 89.5t-100.5 215.5q0 130 83 207t218 99l258 36q76 10 76 72q0 58 -45 95.5t-131 37.5q-88 0 -141.5 -47t-59.5 -117l-238 50q6 62 39 121t87.5 106t136.5 75.5
t178 28.5q234 0 342 -131q140 131 331 131q231 0 360.5 -138.5t129.5 -383.5q0 -66 -6 -84h-723q4 -102 77.5 -166.5t176.5 -64.5q177 0 231 159zM489 174q42 0 80 12t71.5 37.5t53 72.5t19.5 110v47l-238 -35q-58 -8 -93.5 -39t-35.5 -88q0 -47 37.5 -82t105.5 -35z
M1434 618q-5 83 -62 141t-168 58q-98 0 -159 -62t-66 -137h455z" />
    <glyph glyph-name="ccedilla" unicode="&#xe7;" horiz-adv-x="1138" 
d="M463 -129l65 104q-195 25 -322.5 173t-127.5 356q0 115 40.5 214.5t110 169.5t166 110t205.5 40q99 0 183 -29t141 -78t94.5 -108t54.5 -125l-244 -82q-22 73 -76.5 121.5t-146.5 48.5q-109 0 -182.5 -75t-73.5 -207t74.5 -208.5t183.5 -76.5q95 0 153.5 50.5t78.5 119.5
l239 -80q-36 -122 -133 -216.5t-248 -117.5l-47 -73q88 -2 143.5 -50t55.5 -126q0 -36 -14.5 -69.5t-44.5 -62.5t-82.5 -46t-120.5 -17q-79 0 -144.5 32.5t-99.5 74.5l88 110q76 -76 154 -76q38 0 61 15t23 43q0 24 -21 40.5t-57 16.5t-55 -8z" />
    <glyph glyph-name="egrave" unicode="&#xe8;" horiz-adv-x="1153" 
d="M805 618q-5 83 -60.5 141t-164.5 58q-99 0 -160 -62t-66 -137h451zM1059 289q-39 -139 -160.5 -229.5t-298.5 -90.5q-141 0 -258 62.5t-189.5 187t-72.5 289.5q0 117 41 218t109.5 168.5t158 105.5t186.5 38q234 0 366 -138.5t132 -383.5q0 -17 -1 -36.5t-2 -32.5t-1 -15
h-721q4 -98 78 -163.5t176 -65.5q173 0 229 153zM676 1176h-199l-186 274h264z" />
    <glyph glyph-name="eacute" unicode="&#xe9;" horiz-adv-x="1153" 
d="M805 618q-5 83 -60.5 141t-164.5 58q-99 0 -160 -62t-66 -137h451zM1059 289q-39 -139 -160.5 -229.5t-298.5 -90.5q-141 0 -258 62.5t-189.5 187t-72.5 289.5q0 117 41 218t109.5 168.5t158 105.5t186.5 38q234 0 366 -138.5t132 -383.5q0 -17 -1 -36.5t-2 -32.5t-1 -15
h-721q4 -98 78 -163.5t176 -65.5q173 0 229 153zM666 1176h-199l121 274h264z" />
    <glyph glyph-name="ecircumflex" unicode="&#xea;" horiz-adv-x="1153" 
d="M805 618q-5 83 -60.5 141t-164.5 58q-99 0 -160 -62t-66 -137h451zM1059 289q-39 -139 -160.5 -229.5t-298.5 -90.5q-141 0 -258 62.5t-189.5 187t-72.5 289.5q0 117 41 218t109.5 168.5t158 105.5t186.5 38q234 0 366 -138.5t132 -383.5q0 -17 -1 -36.5t-2 -32.5t-1 -15
h-721q4 -98 78 -163.5t176 -65.5q173 0 229 153zM709 1430l204 -275h-211l-118 137l-117 -137h-211l205 275h248z" />
    <glyph glyph-name="edieresis" unicode="&#xeb;" horiz-adv-x="1153" 
d="M229 1286q0 60 42 103t102 43t102.5 -43t42.5 -103t-42.5 -101.5t-102.5 -41.5t-102 41.5t-42 101.5zM659 1286q0 61 41.5 103.5t102.5 42.5q60 0 102.5 -43t42.5 -103t-42.5 -101.5t-102.5 -41.5q-61 0 -102.5 41.5t-41.5 101.5zM805 618q-5 83 -60.5 141t-164.5 58
q-99 0 -160 -62t-66 -137h451zM1059 289q-39 -139 -160.5 -229.5t-298.5 -90.5q-141 0 -258 62.5t-189.5 187t-72.5 289.5q0 117 41 218t109.5 168.5t158 105.5t186.5 38q234 0 366 -138.5t132 -383.5q0 -17 -1 -36.5t-2 -32.5t-1 -15h-721q4 -98 78 -163.5t176 -65.5
q173 0 229 153z" />
    <glyph glyph-name="igrave" unicode="&#xec;" horiz-adv-x="550" 
d="M139 0v1008h273v-1008h-273zM391 1176h-198l-187 274h264z" />
    <glyph glyph-name="iacute" unicode="&#xed;" horiz-adv-x="550" 
d="M139 0v1008h273v-1008h-273zM362 1176h-198l121 274h264z" />
    <glyph glyph-name="icircumflex" unicode="&#xee;" horiz-adv-x="550" 
d="M-82 1130l225 302h271l225 -302h-219l-146 154l-143 -154h-213zM139 0v1008h273v-1008h-273z" />
    <glyph glyph-name="idieresis" unicode="&#xef;" horiz-adv-x="550" 
d="M-49 1286q0 60 39.5 100.5t99.5 40.5t100.5 -40.5t40.5 -100.5t-40.5 -99.5t-100.5 -39.5t-99.5 39.5t-39.5 99.5zM317 1286q0 60 40 100.5t100 40.5t100.5 -40.5t40.5 -100.5t-40.5 -99.5t-100.5 -39.5t-100 39.5t-40 99.5zM139 0v1008h273v-1008h-273z" />
    <glyph glyph-name="eth" unicode="&#xf0;" horiz-adv-x="1218" 
d="M897 1208q231 -259 231 -641q0 -122 -34 -229.5t-98 -190t-166.5 -130.5t-229.5 -48q-225 0 -374.5 142.5t-149.5 357.5q0 91 28 169.5t76 134t111 95.5t134 59t144 19q71 0 138.5 -21t101.5 -57q-44 137 -152 240l-280 -119l-66 164l178 76q-103 55 -227 94l84 205
q231 -58 406 -187l233 99l70 -166zM600 215q106 0 181 68.5t75 189.5t-75 189.5t-181 68.5q-104 0 -179 -70t-75 -188t75 -188t179 -70z" />
    <glyph glyph-name="ntilde" unicode="&#xf1;" horiz-adv-x="1187" 
d="M412 0h-273v1008h264v-125q45 74 124.5 112.5t166.5 38.5q180 0 272.5 -111.5t92.5 -287.5v-635h-273v588q0 91 -46 145.5t-140 54.5q-88 0 -138 -58.5t-50 -149.5v-580zM965 1389q0 -125 -59.5 -188.5t-160.5 -63.5q-80 0 -145 45l-12 8q-4 2 -18.5 12t-22 13.5t-23 7.5
t-32.5 4q-69 0 -72 -88h-168v43q0 120 62.5 184t160.5 64q62 0 148 -46l12 -8q59 -39 98 -39q68 0 68 88h164v-36z" />
    <glyph glyph-name="ograve" unicode="&#xf2;" horiz-adv-x="1212" 
d="M606 217q106 0 181 76.5t75 210.5t-75 210.5t-181 76.5t-181 -76.5t-75 -210.5t75 -210.5t181 -76.5zM606 1038q228 0 378.5 -151t150.5 -383q0 -231 -150.5 -383t-378.5 -152t-378 152t-150 383q0 232 150 383t378 151zM711 1176h-199l-186 274h264z" />
    <glyph glyph-name="oacute" unicode="&#xf3;" horiz-adv-x="1212" 
d="M606 217q106 0 181 76.5t75 210.5t-75 210.5t-181 76.5t-181 -76.5t-75 -210.5t75 -210.5t181 -76.5zM606 1038q228 0 378.5 -151t150.5 -383q0 -231 -150.5 -383t-378.5 -152t-378 152t-150 383q0 232 150 383t378 151zM698 1176h-198l121 274h264z" />
    <glyph glyph-name="ocircumflex" unicode="&#xf4;" horiz-adv-x="1212" 
d="M606 217q106 0 181 76.5t75 210.5t-75 210.5t-181 76.5t-181 -76.5t-75 -210.5t75 -210.5t181 -76.5zM606 1038q228 0 378.5 -151t150.5 -383q0 -231 -150.5 -383t-378.5 -152t-378 152t-150 383q0 232 150 383t378 151zM731 1430l205 -275h-211l-119 137l-117 -137h-210
l204 275h248z" />
    <glyph glyph-name="otilde" unicode="&#xf5;" horiz-adv-x="1212" 
d="M606 217q106 0 181 76.5t75 210.5t-75 210.5t-181 76.5t-181 -76.5t-75 -210.5t75 -210.5t181 -76.5zM606 1038q228 0 378.5 -151t150.5 -383q0 -231 -150.5 -383t-378.5 -152t-378 152t-150 383q0 232 150 383t378 151zM936 1417q0 -120 -55.5 -180.5t-147.5 -60.5
q-54 0 -96.5 20t-73 39.5t-55.5 19.5q-30 0 -43 -16t-16 -59h-170q0 121 55.5 181t148.5 60q54 0 97 -19.5t73.5 -39t55.5 -19.5q30 0 44 17t17 57h166z" />
    <glyph glyph-name="odieresis" unicode="&#xf6;" horiz-adv-x="1212" 
d="M246 1286q0 60 41.5 103t101.5 43t103 -43t43 -103t-43 -101.5t-103 -41.5t-101.5 41.5t-41.5 101.5zM676 1286q0 61 41 103.5t102 42.5q60 0 103 -43t43 -103t-43 -101.5t-103 -41.5q-61 0 -102 41.5t-41 101.5zM606 217q106 0 181 76.5t75 210.5t-75 210.5t-181 76.5
t-181 -76.5t-75 -210.5t75 -210.5t181 -76.5zM606 1038q228 0 378.5 -151t150.5 -383q0 -231 -150.5 -383t-378.5 -152t-378 152t-150 383q0 232 150 383t378 151z" />
    <glyph glyph-name="divide" unicode="&#xf7;" horiz-adv-x="1157" 
d="M414 229q0 66 46 112t113 46t113.5 -46t46.5 -112q0 -65 -46.5 -112t-113.5 -47t-113 47t-46 112zM414 979q0 66 46 112t113 46t113.5 -46t46.5 -112q0 -65 -46.5 -112.5t-113.5 -47.5t-113 47.5t-46 112.5zM78 717h1001v-228h-1001v228z" />
    <glyph glyph-name="oslash" unicode="&#xf8;" horiz-adv-x="1212" 
d="M606 1038q154 0 271 -69l108 133l131 -111l-106 -133q125 -144 125 -354q0 -231 -150.5 -383t-378.5 -152q-137 0 -262 64l-102 -127l-136 110l103 125q-131 153 -131 363q0 232 150 383t378 151zM350 504q0 -84 31 -148l334 412q-61 23 -109 23q-106 0 -181 -76.5
t-75 -210.5zM606 217q106 0 181 76.5t75 210.5q0 77 -26 139l-328 -407q49 -19 98 -19z" />
    <glyph glyph-name="ugrave" unicode="&#xf9;" horiz-adv-x="1187" 
d="M799 0q-8 31 -8 109q-39 -68 -116 -102t-163 -34q-177 0 -280 113.5t-103 284.5v637h272v-582q0 -91 46 -147t139 -56q90 0 140 54.5t50 144.5v586h273v-826q0 -124 10 -182h-260zM702 1176h-198l-187 274h265z" />
    <glyph glyph-name="uacute" unicode="&#xfa;" horiz-adv-x="1187" 
d="M799 0q-8 31 -8 109q-39 -68 -116 -102t-163 -34q-177 0 -280 113.5t-103 284.5v637h272v-582q0 -91 46 -147t139 -56q90 0 140 54.5t50 144.5v586h273v-826q0 -124 10 -182h-260zM686 1176h-199l121 274h264z" />
    <glyph glyph-name="ucircumflex" unicode="&#xfb;" horiz-adv-x="1187" 
d="M231 1130l226 302h270l225 -302h-219l-145 154l-144 -154h-213zM799 0q-8 31 -8 109q-39 -68 -116 -102t-163 -34q-177 0 -280 113.5t-103 284.5v637h272v-582q0 -91 46 -147t139 -56q90 0 140 54.5t50 144.5v586h273v-826q0 -124 10 -182h-260z" />
    <glyph glyph-name="udieresis" unicode="&#xfc;" horiz-adv-x="1187" 
d="M236 1286q0 60 41.5 103t101.5 43t102.5 -43t42.5 -103t-42.5 -101.5t-102.5 -41.5t-101.5 41.5t-41.5 101.5zM666 1286q0 61 41 103.5t102 42.5q60 0 102.5 -43t42.5 -103t-42.5 -101.5t-102.5 -41.5q-61 0 -102 41.5t-41 101.5zM799 0q-8 31 -8 109q-39 -68 -116 -102
t-163 -34q-177 0 -280 113.5t-103 284.5v637h272v-582q0 -91 46 -147t139 -56q90 0 140 54.5t50 144.5v586h273v-826q0 -124 10 -182h-260z" />
    <glyph glyph-name="yacute" unicode="&#xfd;" horiz-adv-x="1153" 
d="M215 -397l238 524l-428 881h305l268 -590l248 590h291l-633 -1405h-289zM666 1176h-199l121 274h264z" />
    <glyph glyph-name="thorn" unicode="&#xfe;" horiz-adv-x="1257" 
d="M139 -389v1872h273v-586q39 58 118.5 95.5t182.5 37.5q216 0 340.5 -147t124.5 -377q0 -231 -131.5 -381t-344.5 -150q-99 0 -175 34.5t-115 88.5v-487h-273zM909 504q0 131 -71 206.5t-179 75.5t-179.5 -76t-71.5 -206t72 -207.5t179 -77.5q108 0 179 77t71 208z" />
    <glyph glyph-name="ydieresis" unicode="&#xff;" horiz-adv-x="1153" 
d="M215 -397l238 524l-428 881h305l268 -590l248 590h291l-633 -1405h-289zM229 1286q0 60 42 103t102 43t102.5 -43t42.5 -103t-42.5 -101.5t-102.5 -41.5t-102 41.5t-42 101.5zM659 1286q0 61 41.5 103.5t102.5 42.5q60 0 102.5 -43t42.5 -103t-42.5 -101.5t-102.5 -41.5
q-61 0 -102.5 41.5t-41.5 101.5z" />
    <glyph glyph-name="Amacron" unicode="&#x100;" horiz-adv-x="1476" 
d="M1028 332h-590l-121 -332h-299l557 1452h328l553 -1452h-307zM532 590h402l-201 549zM420 1585v205h624v-205h-624z" />
    <glyph glyph-name="amacron" unicode="&#x101;" horiz-adv-x="1101" 
d="M80 274q0 130 83 207t218 99l248 36q76 11 76 72q0 57 -43.5 94t-126.5 37q-86 0 -136.5 -47t-56.5 -117l-242 52q6 61 36.5 118.5t82.5 106t133.5 77.5t179.5 29q116 0 202.5 -31t137 -85t75 -121t24.5 -146v-495q0 -90 12 -160h-250q-10 45 -10 121q-42 -66 -117 -108
t-180 -42q-155 0 -250.5 90t-95.5 213zM483 174q97 0 159.5 55t62.5 179v45l-228 -35q-125 -17 -125 -127q0 -48 34.5 -82.5t96.5 -34.5zM258 1182v198h576v-198h-576z" />
    <glyph glyph-name="Abreve" unicode="&#x102;" horiz-adv-x="1476" 
d="M1028 332h-590l-121 -332h-299l557 1452h328l553 -1452h-307zM532 590h402l-201 549zM739 1554q-156 0 -241.5 65.5t-85.5 186.5h188q3 -102 139 -102q139 0 142 102h188q0 -121 -86.5 -186.5t-243.5 -65.5z" />
    <glyph glyph-name="abreve" unicode="&#x103;" horiz-adv-x="1101" 
d="M80 274q0 130 83 207t218 99l248 36q76 11 76 72q0 57 -43.5 94t-126.5 37q-86 0 -136.5 -47t-56.5 -117l-242 52q6 61 36.5 118.5t82.5 106t133.5 77.5t179.5 29q116 0 202.5 -31t137 -85t75 -121t24.5 -146v-495q0 -90 12 -160h-250q-10 45 -10 121q-42 -66 -117 -108
t-180 -42q-155 0 -250.5 90t-95.5 213zM483 174q97 0 159.5 55t62.5 179v45l-228 -35q-125 -17 -125 -127q0 -48 34.5 -82.5t96.5 -34.5zM545 1155q-156 0 -242 65.5t-86 186.5h189q3 -102 139 -102q138 0 141 102h188q0 -121 -86 -186.5t-243 -65.5z" />
    <glyph glyph-name="Aogonek" unicode="&#x104;" horiz-adv-x="1476" 
d="M1028 332h-590l-121 -332h-299l557 1452h328l553 -1452q-69 -34 -115.5 -83.5t-46.5 -109.5q0 -45 28.5 -68.5t72.5 -23.5q38 0 61 6v-161q-46 -17 -106 -17q-111 0 -181.5 60t-70.5 159q0 154 149 238h-98zM532 590h402l-201 549z" />
    <glyph glyph-name="aogonek" unicode="&#x105;" horiz-adv-x="1101" 
d="M922 -285q43 0 61 6v-161q-46 -17 -106 -17q-111 0 -181.5 60t-70.5 159q0 147 147 238h-39q-10 50 -10 121q-42 -66 -117 -108t-180 -42q-155 0 -250.5 90t-95.5 213q0 130 83 207t218 99l248 36q76 11 76 72q0 57 -43.5 94t-126.5 37q-86 0 -136.5 -47t-56.5 -117
l-242 52q6 61 36.5 118.5t82.5 106t133.5 77.5t179.5 29q116 0 202.5 -31t137 -85t75 -121t24.5 -146v-495q0 -94 12 -160q-69 -34 -115.5 -83.5t-46.5 -109.5q0 -45 28.5 -68.5t72.5 -23.5zM483 174q97 0 159.5 55t62.5 179v45l-228 -35q-125 -17 -125 -127
q0 -48 34.5 -82.5t96.5 -34.5z" />
    <glyph glyph-name="Cacute" unicode="&#x106;" horiz-adv-x="1548" 
d="M827 -31q-151 0 -286 53.5t-236.5 150t-161 240t-59.5 312.5q0 170 61 314t163 240t235.5 150t279.5 54q117 0 218 -27.5t174 -74t130 -109.5t91.5 -130t52.5 -141l-266 -83q-13 56 -41.5 105t-75.5 92.5t-120 69t-163 25.5q-84 0 -162.5 -30t-142.5 -88t-102.5 -153
t-38.5 -214q0 -112 37.5 -204.5t100.5 -151.5t143.5 -91t168.5 -32q89 0 162.5 27t121.5 71.5t78.5 94.5t45.5 104l264 -80q-17 -69 -51 -136.5t-91.5 -133t-131.5 -114.5t-177 -79.5t-221 -30.5zM930 1554h-250l211 261h336z" />
    <glyph glyph-name="cacute" unicode="&#x107;" horiz-adv-x="1138" 
d="M686 1128h-219l186 308h312zM606 786q-109 0 -182.5 -75t-73.5 -207t74.5 -208.5t183.5 -76.5q95 0 153.5 50.5t78.5 119.5l239 -80q-17 -65 -55 -124.5t-96 -108.5t-141 -78t-179 -29q-224 0 -377 152.5t-153 382.5q0 115 40.5 214.5t110 169.5t166 110t205.5 40
q99 0 183 -29t141 -78t94.5 -108t54.5 -125l-244 -82q-22 73 -76.5 121.5t-146.5 48.5z" />
    <glyph glyph-name="Ccircumflex" unicode="&#x108;" horiz-adv-x="1548" 
d="M440 1554l246 261h279l249 -261h-256l-137 134l-133 -134h-248zM827 -31q-151 0 -286 53.5t-236.5 150t-161 240t-59.5 312.5q0 170 61 314t163 240t235.5 150t279.5 54q117 0 218 -27.5t174 -74t130 -109.5t91.5 -130t52.5 -141l-266 -83q-13 56 -41.5 105t-75.5 92.5
t-120 69t-163 25.5q-84 0 -162.5 -30t-142.5 -88t-102.5 -153t-38.5 -214q0 -112 37.5 -204.5t100.5 -151.5t143.5 -91t168.5 -32q89 0 162.5 27t121.5 71.5t78.5 94.5t45.5 104l264 -80q-17 -69 -51 -136.5t-91.5 -133t-131.5 -114.5t-177 -79.5t-221 -30.5z" />
    <glyph glyph-name="ccircumflex" unicode="&#x109;" horiz-adv-x="1138" 
d="M242 1130l225 302h270l226 -302h-220l-145 154l-143 -154h-213zM606 786q-109 0 -182.5 -75t-73.5 -207t74.5 -208.5t183.5 -76.5q95 0 153.5 50.5t78.5 119.5l239 -80q-17 -65 -55 -124.5t-96 -108.5t-141 -78t-179 -29q-224 0 -377 152.5t-153 382.5q0 115 40.5 214.5
t110 169.5t166 110t205.5 40q99 0 183 -29t141 -78t94.5 -108t54.5 -125l-244 -82q-22 73 -76.5 121.5t-146.5 48.5z" />
    <glyph glyph-name="Cdotaccent" unicode="&#x10a;" horiz-adv-x="1548" 
d="M827 -31q-151 0 -286 53.5t-236.5 150t-161 240t-59.5 312.5q0 170 61 314t163 240t235.5 150t279.5 54q117 0 218 -27.5t174 -74t130 -109.5t91.5 -130t52.5 -141l-266 -83q-13 56 -41.5 105t-75.5 92.5t-120 69t-163 25.5q-84 0 -162.5 -30t-142.5 -88t-102.5 -153
t-38.5 -214q0 -112 37.5 -204.5t100.5 -151.5t143.5 -91t168.5 -32q89 0 162.5 27t121.5 71.5t78.5 94.5t45.5 104l264 -80q-17 -69 -51 -136.5t-91.5 -133t-131.5 -114.5t-177 -79.5t-221 -30.5zM657 1718q0 69 48 116.5t116 47.5q69 0 117.5 -47.5t48.5 -116.5
q0 -67 -48.5 -114.5t-117.5 -47.5q-68 0 -116 47.5t-48 114.5z" />
    <glyph glyph-name="cdotaccent" unicode="&#x10b;" horiz-adv-x="1138" 
d="M606 786q-109 0 -182.5 -75t-73.5 -207t74.5 -208.5t183.5 -76.5q95 0 153.5 50.5t78.5 119.5l239 -80q-17 -65 -55 -124.5t-96 -108.5t-141 -78t-179 -29q-224 0 -377 152.5t-153 382.5q0 115 40.5 214.5t110 169.5t166 110t205.5 40q99 0 183 -29t141 -78t94.5 -108
t54.5 -125l-244 -82q-22 73 -76.5 121.5t-146.5 48.5zM434 1286q0 68 48 115t116 47t116 -47t48 -115q0 -67 -48 -113.5t-116 -46.5t-116 46.5t-48 113.5z" />
    <glyph glyph-name="Ccaron" unicode="&#x10c;" horiz-adv-x="1548" 
d="M694 1815l135 -132l138 132h247l-249 -261h-279l-246 261h254zM827 -31q-151 0 -286 53.5t-236.5 150t-161 240t-59.5 312.5q0 170 61 314t163 240t235.5 150t279.5 54q117 0 218 -27.5t174 -74t130 -109.5t91.5 -130t52.5 -141l-266 -83q-13 56 -41.5 105t-75.5 92.5
t-120 69t-163 25.5q-84 0 -162.5 -30t-142.5 -88t-102.5 -153t-38.5 -214q0 -112 37.5 -204.5t100.5 -151.5t143.5 -91t168.5 -32q89 0 162.5 27t121.5 71.5t78.5 94.5t45.5 104l264 -80q-17 -69 -51 -136.5t-91.5 -133t-131.5 -114.5t-177 -79.5t-221 -30.5z" />
    <glyph glyph-name="ccaron" unicode="&#x10d;" horiz-adv-x="1138" 
d="M446 1434l144 -154l143 154h215l-223 -304h-272l-226 304h219zM606 786q-109 0 -182.5 -75t-73.5 -207t74.5 -208.5t183.5 -76.5q95 0 153.5 50.5t78.5 119.5l239 -80q-17 -65 -55 -124.5t-96 -108.5t-141 -78t-179 -29q-224 0 -377 152.5t-153 382.5q0 115 40.5 214.5
t110 169.5t166 110t205.5 40q99 0 183 -29t141 -78t94.5 -108t54.5 -125l-244 -82q-22 73 -76.5 121.5t-146.5 48.5z" />
    <glyph glyph-name="Dcaron" unicode="&#x10e;" horiz-adv-x="1495" 
d="M598 1815l135 -132l137 132h248l-250 -261h-278l-246 261h254zM678 262q91 0 169 28.5t138 83.5t94.5 145.5t34.5 205.5t-34 205t-94 146t-137.5 85t-168.5 29h-227v-928h225zM170 0v1452h520q155 0 286.5 -49.5t227 -141t149.5 -229.5t54 -307q0 -224 -94 -390
t-255.5 -250.5t-369.5 -84.5h-518z" />
    <glyph glyph-name="dcaron" unicode="&#x10f;" horiz-adv-x="1253" 
d="M1378 1077h-182l59 406h271zM1114 182q0 -127 8 -182h-260q-10 38 -10 117q-37 -63 -111 -102.5t-172 -39.5q-214 0 -352.5 150.5t-138.5 380.5q0 224 136 375t347 151q117 0 188.5 -38t96.5 -87v576h268v-1301zM352 506q0 -133 69.5 -210t180.5 -77q107 0 177.5 78
t70.5 211q0 131 -70 205.5t-178 74.5t-179 -75.5t-71 -206.5z" />
    <glyph glyph-name="Dcroat" unicode="&#x110;" horiz-adv-x="1529" 
d="M205 0v612h-154v201h154v639h520q155 0 286.5 -49.5t227 -141t149.5 -229.5t54 -307q0 -224 -94 -390t-255.5 -250.5t-369.5 -84.5h-518zM713 262q91 0 169 28.5t138 83.5t94.5 145.5t34.5 205.5t-34 205t-94 146t-137.5 85t-168.5 29h-228v-377h275v-201h-275v-350h226z
" />
    <glyph glyph-name="dslash" unicode="&#x111;" horiz-adv-x="1253" 
d="M1114 1313h139v-174h-139v-957q0 -130 8 -182h-260q-10 38 -10 117q-37 -63 -111 -102.5t-172 -39.5q-214 0 -352.5 150.5t-138.5 380.5q0 224 136 375t347 151q117 0 188.5 -38t96.5 -87v232h-256v174h256v170h268v-170zM352 506q0 -133 69.5 -210t180.5 -77
q107 0 177.5 78t70.5 211q0 131 -70 205.5t-178 74.5t-179 -75.5t-71 -206.5z" />
    <glyph glyph-name="Emacron" unicode="&#x112;" horiz-adv-x="1185" 
d="M170 0v1452h909v-266h-626v-332h567v-252h-567v-336h626v-266h-909zM309 1585v205h625v-205h-625z" />
    <glyph glyph-name="emacron" unicode="&#x113;" horiz-adv-x="1153" 
d="M805 618q-5 83 -60.5 141t-164.5 58q-99 0 -160 -62t-66 -137h451zM1059 289q-39 -139 -160.5 -229.5t-298.5 -90.5q-141 0 -258 62.5t-189.5 187t-72.5 289.5q0 117 41 218t109.5 168.5t158 105.5t186.5 38q234 0 366 -138.5t132 -383.5q0 -17 -1 -36.5t-2 -32.5t-1 -15
h-721q4 -98 78 -163.5t176 -65.5q173 0 229 153zM299 1182v198h575v-198h-575z" />
    <glyph glyph-name="Ebreve" unicode="&#x114;" horiz-adv-x="1185" 
d="M170 0v1452h909v-266h-626v-332h567v-252h-567v-336h626v-266h-909zM618 1542q-80 0 -144.5 24.5t-104 64.5t-61 88t-23.5 100h209q2 -45 33.5 -75t90.5 -30q60 0 91.5 30t33.5 75h209q-2 -52 -24 -100t-61.5 -88t-104 -64.5t-144.5 -24.5z" />
    <glyph glyph-name="ebreve" unicode="&#x115;" horiz-adv-x="1153" 
d="M805 618q-5 83 -60.5 141t-164.5 58q-99 0 -160 -62t-66 -137h451zM1059 289q-39 -139 -160.5 -229.5t-298.5 -90.5q-141 0 -258 62.5t-189.5 187t-72.5 289.5q0 117 41 218t109.5 168.5t158 105.5t186.5 38q234 0 366 -138.5t132 -383.5q0 -17 -1 -36.5t-2 -32.5t-1 -15
h-721q4 -98 78 -163.5t176 -65.5q173 0 229 153zM584 1124q-153 0 -239 90.5t-91 219.5h182q2 -48 39 -84.5t109 -36.5q70 0 106 36t41 85h182q-3 -83 -38.5 -151.5t-111 -113.5t-179.5 -45z" />
    <glyph glyph-name="Edotaccent" unicode="&#x116;" horiz-adv-x="1185" 
d="M457 1706q0 69 48 116.5t116 47.5q69 0 117 -47.5t48 -116.5q0 -68 -48 -115t-117 -47q-68 0 -116 47.5t-48 114.5zM170 0v1452h909v-266h-626v-332h567v-252h-567v-336h626v-266h-909z" />
    <glyph glyph-name="edotaccent" unicode="&#x117;" horiz-adv-x="1153" 
d="M805 618q-5 83 -60.5 141t-164.5 58q-99 0 -160 -62t-66 -137h451zM1059 289q-39 -139 -160.5 -229.5t-298.5 -90.5q-141 0 -258 62.5t-189.5 187t-72.5 289.5q0 117 41 218t109.5 168.5t158 105.5t186.5 38q234 0 366 -138.5t132 -383.5q0 -17 -1 -36.5t-2 -32.5t-1 -15
h-721q4 -98 78 -163.5t176 -65.5q173 0 229 153zM424 1284q0 68 48 115t116 47t116 -47t48 -115q0 -67 -48 -113.5t-116 -46.5t-116 46.5t-48 113.5z" />
    <glyph glyph-name="Eogonek" unicode="&#x118;" horiz-adv-x="1185" 
d="M973 -457q-111 0 -181.5 60t-70.5 159q0 154 149 238h-700v1452h909v-266h-626v-332h567v-252h-567v-336h626v-266q-68 -34 -114.5 -83.5t-46.5 -109.5q0 -45 28 -68.5t72 -23.5q43 0 61 6v-161q-46 -17 -106 -17z" />
    <glyph glyph-name="eogonek" unicode="&#x119;" horiz-adv-x="1153" 
d="M1059 289q-30 -100 -100 -176t-175 -113q-68 -34 -114.5 -83.5t-46.5 -109.5q0 -45 28 -68.5t72 -23.5q38 0 61 6v-161q-46 -17 -106 -17q-111 0 -181.5 60t-70.5 159q0 127 106 211q-126 14 -227 80.5t-163 185t-62 269.5q0 117 41 218t109.5 168.5t158 105.5t186.5 38
q234 0 366 -138.5t132 -383.5q0 -17 -1 -36.5t-2 -32.5t-1 -15h-721q4 -98 78 -163.5t176 -65.5q173 0 229 153zM805 618q-5 83 -60.5 141t-164.5 58q-99 0 -160 -62t-66 -137h451z" />
    <glyph glyph-name="Ecaron" unicode="&#x11a;" horiz-adv-x="1185" 
d="M496 1815l135 -132l137 132h248l-250 -261h-279l-245 261h254zM170 0v1452h909v-266h-626v-332h567v-252h-567v-336h626v-266h-909z" />
    <glyph glyph-name="ecaron" unicode="&#x11b;" horiz-adv-x="1153" 
d="M440 1434l144 -154l143 154h215l-223 -304h-273l-225 304h219zM805 618q-5 83 -60.5 141t-164.5 58q-99 0 -160 -62t-66 -137h451zM1059 289q-39 -139 -160.5 -229.5t-298.5 -90.5q-141 0 -258 62.5t-189.5 187t-72.5 289.5q0 117 41 218t109.5 168.5t158 105.5t186.5 38
q234 0 366 -138.5t132 -383.5q0 -17 -1 -36.5t-2 -32.5t-1 -15h-721q4 -98 78 -163.5t176 -65.5q173 0 229 153z" />
    <glyph glyph-name="Gcircumflex" unicode="&#x11c;" horiz-adv-x="1599" 
d="M436 1554l246 261h279l249 -261h-256l-137 134l-133 -134h-248zM1255 0l-18 166q-55 -84 -165 -140.5t-263 -56.5q-147 0 -278.5 53t-230.5 148.5t-157.5 239.5t-58.5 315t61 315.5t163.5 240t236.5 149t282 53.5q111 0 209 -25.5t170 -67.5t130 -100.5t95.5 -121.5
t59.5 -132l-270 -96q-15 52 -45 99t-76.5 88.5t-117 66.5t-155.5 25t-164 -29.5t-145.5 -87.5t-106.5 -155.5t-40 -221.5q0 -119 37 -215.5t100.5 -157t145.5 -93t175 -32.5q95 0 171.5 29t120 74.5t67.5 90.5t31 89h-459v246h725v-756h-230z" />
    <glyph glyph-name="gcircumflex" unicode="&#x11d;" horiz-adv-x="1236" 
d="M248 1130l225 302h270l226 -302h-219l-146 154l-143 -154h-213zM326 10q14 -86 76 -138t159 -52q132 0 200 67.5t68 212.5v74q-34 -55 -105.5 -92t-174.5 -37q-202 0 -335.5 139t-133.5 351q0 133 59 245t167 179t243 67q112 0 184.5 -39.5t102.5 -97.5v119h262v-899
q0 -85 -18.5 -161t-59.5 -144t-101.5 -117.5t-150 -78t-199.5 -28.5q-199 0 -333.5 106.5t-155.5 258.5zM596 279q105 0 171.5 70t66.5 186q0 114 -68.5 183.5t-169.5 69.5q-105 0 -173.5 -69t-68.5 -184q0 -117 67.5 -186.5t174.5 -69.5z" />
    <glyph glyph-name="Gbreve" unicode="&#x11e;" horiz-adv-x="1599" 
d="M819 1542q-80 0 -144.5 24.5t-104 64.5t-61.5 88t-24 100h209q2 -45 33.5 -75t91.5 -30t91.5 30t33.5 75h209q-2 -52 -24 -100t-61.5 -88t-104 -64.5t-144.5 -24.5zM1255 0l-18 166q-55 -84 -165 -140.5t-263 -56.5q-147 0 -278.5 53t-230.5 148.5t-157.5 239.5
t-58.5 315t61 315.5t163.5 240t236.5 149t282 53.5q111 0 209 -25.5t170 -67.5t130 -100.5t95.5 -121.5t59.5 -132l-270 -96q-15 52 -45 99t-76.5 88.5t-117 66.5t-155.5 25t-164 -29.5t-145.5 -87.5t-106.5 -155.5t-40 -221.5q0 -119 37 -215.5t100.5 -157t145.5 -93
t175 -32.5q95 0 171.5 29t120 74.5t67.5 90.5t31 89h-459v246h725v-756h-230z" />
    <glyph glyph-name="gbreve" unicode="&#x11f;" horiz-adv-x="1236" 
d="M326 10q14 -86 76 -138t159 -52q132 0 200 67.5t68 212.5v74q-34 -55 -105.5 -92t-174.5 -37q-202 0 -335.5 139t-133.5 351q0 133 59 245t167 179t243 67q112 0 184.5 -39.5t102.5 -97.5v119h262v-899q0 -85 -18.5 -161t-59.5 -144t-101.5 -117.5t-150 -78t-199.5 -28.5
q-199 0 -333.5 106.5t-155.5 258.5zM596 279q105 0 171.5 70t66.5 186q0 114 -68.5 183.5t-169.5 69.5q-105 0 -173.5 -69t-68.5 -184q0 -117 67.5 -186.5t174.5 -69.5zM594 1124q-153 0 -239 90.5t-91 219.5h182q2 -48 39 -84.5t109 -36.5q70 0 106 36t41 85h183
q-2 -61 -24 -116t-61.5 -99t-102.5 -69.5t-142 -25.5z" />
    <glyph glyph-name="Gdotaccent" unicode="&#x120;" horiz-adv-x="1599" 
d="M659 1712q0 69 48 116.5t116 47.5q69 0 117.5 -47.5t48.5 -116.5q0 -67 -48.5 -114.5t-117.5 -47.5q-68 0 -116 47.5t-48 114.5zM1255 0l-18 166q-55 -84 -165 -140.5t-263 -56.5q-147 0 -278.5 53t-230.5 148.5t-157.5 239.5t-58.5 315t61 315.5t163.5 240t236.5 149
t282 53.5q111 0 209 -25.5t170 -67.5t130 -100.5t95.5 -121.5t59.5 -132l-270 -96q-15 52 -45 99t-76.5 88.5t-117 66.5t-155.5 25t-164 -29.5t-145.5 -87.5t-106.5 -155.5t-40 -221.5q0 -119 37 -215.5t100.5 -157t145.5 -93t175 -32.5q95 0 171.5 29t120 74.5t67.5 90.5
t31 89h-459v246h725v-756h-230z" />
    <glyph glyph-name="gdotaccent" unicode="&#x121;" horiz-adv-x="1236" 
d="M326 10q14 -86 76 -138t159 -52q132 0 200 67.5t68 212.5v74q-34 -55 -105.5 -92t-174.5 -37q-202 0 -335.5 139t-133.5 351q0 133 59 245t167 179t243 67q112 0 184.5 -39.5t102.5 -97.5v119h262v-899q0 -85 -18.5 -161t-59.5 -144t-101.5 -117.5t-150 -78t-199.5 -28.5
q-199 0 -333.5 106.5t-155.5 258.5zM596 279q105 0 171.5 70t66.5 186q0 114 -68.5 183.5t-169.5 69.5q-105 0 -173.5 -69t-68.5 -184q0 -117 67.5 -186.5t174.5 -69.5zM420 1284q0 68 48 115t116 47t116 -47t48 -115q0 -67 -48 -113.5t-116 -46.5t-116 46.5t-48 113.5z" />
    <glyph glyph-name="Gcommaaccent" unicode="&#x122;" horiz-adv-x="1599" 
d="M676 -213q0 56 42 93.5t107 37.5q70 0 118 -50t48 -128q0 -61 -18.5 -108t-47.5 -75t-68.5 -46t-77 -24.5t-77.5 -6.5v98q72 0 116 26.5t50 69.5q-19 -14 -59 -14q-62 0 -97.5 35t-35.5 92zM1255 0l-18 166q-55 -84 -165 -140.5t-263 -56.5q-147 0 -278.5 53
t-230.5 148.5t-157.5 239.5t-58.5 315t61 315.5t163.5 240t236.5 149t282 53.5q111 0 209 -25.5t170 -67.5t130 -100.5t95.5 -121.5t59.5 -132l-270 -96q-15 52 -45 99t-76.5 88.5t-117 66.5t-155.5 25t-164 -29.5t-145.5 -87.5t-106.5 -155.5t-40 -221.5q0 -119 37 -215.5
t100.5 -157t145.5 -93t175 -32.5q95 0 171.5 29t120 74.5t67.5 90.5t31 89h-459v246h725v-756h-230z" />
    <glyph glyph-name="gcommaaccent" unicode="&#x123;" horiz-adv-x="1236" 
d="M735 1239q0 -57 -41.5 -94t-107.5 -37q-72 0 -119 49t-47 127q0 69 27.5 122t71.5 81.5t92 42.5t98 14v-98q-72 0 -116.5 -27.5t-49.5 -66.5q1 1 8 4.5t21 6.5t28 3q64 0 99.5 -35.5t35.5 -91.5zM326 10q14 -86 76 -138t159 -52q132 0 200 67.5t68 212.5v74
q-34 -55 -105.5 -92t-174.5 -37q-202 0 -335.5 139t-133.5 351q0 133 59 245t167 179t243 67q112 0 184.5 -39.5t102.5 -97.5v119h262v-899q0 -85 -18.5 -161t-59.5 -144t-101.5 -117.5t-150 -78t-199.5 -28.5q-199 0 -333.5 106.5t-155.5 258.5zM596 279q105 0 171.5 70
t66.5 186q0 114 -68.5 183.5t-169.5 69.5q-105 0 -173.5 -69t-68.5 -184q0 -117 67.5 -186.5t174.5 -69.5z" />
    <glyph glyph-name="Hcircumflex" unicode="&#x124;" horiz-adv-x="1540" 
d="M1085 0v602h-632v-602h-283v1452h283v-584h632v584h285v-1452h-285zM383 1554l246 261h278l250 -261h-256l-137 134l-133 -134h-248z" />
    <glyph glyph-name="hcircumflex" unicode="&#x125;" horiz-adv-x="1187" 
d="M213 1575l246 260h278l250 -260h-256l-137 133l-133 -133h-248zM412 0h-273v1483h273v-559q46 56 119.5 83t152.5 27q124 0 210 -54.5t125.5 -142.5t39.5 -202v-635h-273v588q0 91 -46 145.5t-140 54.5q-84 0 -133.5 -54.5t-54.5 -141.5v-592z" />
    <glyph glyph-name="Hbar" unicode="&#x126;" horiz-adv-x="1556" 
d="M1094 0v602h-633v-602h-283v1059h-145v178h145v215h283v-215h633v215h284v-215h146v-178h-146v-1059h-284zM1094 868v191h-633v-191h633z" />
    <glyph glyph-name="hbar" unicode="&#x127;" horiz-adv-x="1187" 
d="M412 0h-273v1130h-162v195h162v158h273v-158h227v-195h-227v-206q46 56 119.5 83t152.5 27q124 0 210 -54.5t125.5 -142.5t39.5 -202v-635h-273v588q0 91 -46 145.5t-140 54.5q-84 0 -133.5 -54.5t-54.5 -141.5v-592z" />
    <glyph glyph-name="Itilde" unicode="&#x128;" horiz-adv-x="626" 
d="M170 0v1452h287v-1452h-287zM641 1817q0 -120 -55.5 -181t-147.5 -61q-54 0 -96.5 20t-73 40t-55.5 20q-30 0 -43 -16.5t-16 -59.5h-170q0 121 56 181.5t148 60.5q54 0 97 -19.5t73.5 -39t55.5 -19.5q30 0 44 17t17 57h166z" />
    <glyph glyph-name="itilde" unicode="&#x129;" horiz-adv-x="550" 
d="M139 0v1008h273v-1008h-273zM606 1417q0 -120 -55.5 -180.5t-147.5 -60.5q-54 0 -96.5 20t-73 39.5t-55.5 19.5q-30 0 -43 -16t-16 -59h-170q0 121 56 181t149 60q54 0 96.5 -19.5t73 -39t55.5 -19.5q30 0 44 17t17 57h166z" />
    <glyph glyph-name="Imacron" unicode="&#x12a;" horiz-adv-x="626" 
d="M170 0v1452h287v-1452h-287zM4 1585v205h625v-205h-625z" />
    <glyph glyph-name="imacron" unicode="&#x12b;" horiz-adv-x="550" 
d="M139 0v1008h273v-1008h-273zM-10 1182v198h575v-198h-575z" />
    <glyph glyph-name="Ibreve" unicode="&#x12c;" horiz-adv-x="626" 
d="M170 0v1452h287v-1452h-287zM315 1542q-80 0 -144.5 24.5t-104 64.5t-61 88t-23.5 100h208q2 -45 33.5 -75t91.5 -30t91.5 30t33.5 75h209q-2 -52 -24 -100t-61.5 -88t-104 -64.5t-144.5 -24.5z" />
    <glyph glyph-name="ibreve" unicode="&#x12d;" horiz-adv-x="550" 
d="M139 0v1008h273v-1008h-273zM276 1124q-153 0 -238.5 90.5t-90.5 219.5h182q2 -48 38.5 -84.5t108.5 -36.5q70 0 106.5 36t41.5 85h182q-2 -61 -24 -116t-61.5 -99t-102.5 -69.5t-142 -25.5z" />
    <glyph glyph-name="Iogonek" unicode="&#x12e;" horiz-adv-x="626" 
d="M350 -457q-111 0 -181.5 60t-70.5 159q0 153 150 238h-78v1452h287v-1452q-69 -34 -115.5 -83.5t-46.5 -109.5q0 -92 102 -92q42 0 60 6v-161q-46 -17 -107 -17z" />
    <glyph glyph-name="iogonek" unicode="&#x12f;" horiz-adv-x="550" 
d="M305 -457q-111 0 -181.5 60t-70.5 159q0 58 22.5 106t52.5 76.5t73 55.5h-62v1008h273v-1008q-69 -34 -115.5 -83.5t-46.5 -109.5q0 -45 28 -68.5t72 -23.5q39 0 62 6v-161q-46 -17 -107 -17zM106 1337q0 71 49 120.5t119 49.5q72 0 120 -49t48 -121q0 -68 -48.5 -117
t-119.5 -49q-69 0 -118.5 49t-49.5 117z" />
    <glyph glyph-name="Idot" unicode="&#x130;" horiz-adv-x="626" 
d="M170 0v1452h287v-1452h-287zM147 1706q0 69 48 116.5t116 47.5q69 0 117.5 -47.5t48.5 -116.5q0 -67 -48.5 -114.5t-117.5 -47.5q-68 0 -116 47.5t-48 114.5z" />
    <glyph glyph-name="dotlessi" unicode="&#x131;" horiz-adv-x="550" 
d="M139 0v1008h273v-1008h-273z" />
    <glyph glyph-name="IJ" unicode="&#x132;" horiz-adv-x="1269" 
d="M158 631v821h286v-821h-286zM444 492v-37q0 -109 51.5 -163t141.5 -54q91 0 141.5 56.5t50.5 154.5v1003h283v-1003q0 -201 -132 -340.5t-341 -139.5q-216 0 -348.5 130t-132.5 343z" />
    <glyph glyph-name="ij" unicode="&#x133;" horiz-adv-x="1101" 
d="M139 0v1008h273v-1008h-273zM106 1337q0 71 49 120.5t119 49.5q72 0 120 -49t48 -121q0 -68 -48.5 -117t-119.5 -49q-69 0 -118.5 49t-49.5 117zM690 1008h273v-1096q0 -148 -85 -240t-231 -92q-99 0 -153 23v227q30 -10 84 -10q112 0 112 119v1069zM657 1339
q0 71 49.5 120.5t118.5 49.5q72 0 120 -49t48 -121q0 -69 -48 -117t-120 -48q-69 0 -118.5 48t-49.5 117z" />
    <glyph glyph-name="Jcircumflex" unicode="&#x134;" horiz-adv-x="1148" 
d="M463 1554l246 261h278l250 -261h-256l-137 134l-133 -134h-248zM43 539l272 49v-133q1 -108 56 -162.5t145 -54.5t141.5 57t51.5 154v1003h282v-1003q0 -201 -132 -340.5t-341 -139.5q-215 0 -345 129.5t-130 343.5v97z" />
    <glyph glyph-name="jcircumflex" unicode="&#x135;" horiz-adv-x="550" 
d="M-86 1130l225 302h271l225 -302h-219l-146 154l-143 -154h-213zM139 1008h273v-1096q0 -148 -85 -240t-231 -92q-99 0 -153 23v227q27 -10 84 -10q112 0 112 119v1069z" />
    <glyph glyph-name="Kcommaaccent" unicode="&#x136;" horiz-adv-x="1409" 
d="M633 602l-180 -199v-403h-283v1452h283v-657l581 657h371l-576 -633l580 -819h-354zM600 -203q0 56 42.5 93.5t107.5 37.5q70 0 117.5 -50t47.5 -128q0 -61 -18.5 -108t-47 -75t-68 -46t-77 -24.5t-77.5 -6.5v98q71 0 115.5 27t50.5 70q-20 -15 -60 -15q-62 0 -97.5 35
t-35.5 92z" />
    <glyph glyph-name="kcommaaccent" unicode="&#x137;" horiz-adv-x="1142" 
d="M713 584l411 -584h-333l-267 385l-112 -119v-266h-273v1483h273v-850l348 375h356zM467 -209q0 56 42 93.5t107 37.5q70 0 118 -50t48 -128q0 -61 -18.5 -108t-47 -75t-68 -46t-77 -24.5t-77.5 -6.5v98q71 0 115 26.5t50 69.5q-19 -14 -59 -14q-62 0 -97.5 35t-35.5 92z
" />
    <glyph glyph-name="kgreenlandic" unicode="&#x138;" horiz-adv-x="1142" 
d="M713 584l411 -584h-333l-267 385l-112 -119v-266h-273v1008h273v-375l348 375h356z" />
    <glyph glyph-name="Lacute" unicode="&#x139;" horiz-adv-x="1132" 
d="M444 1554h-249l211 261h335zM170 0v1452h283v-1182h647v-270h-930z" />
    <glyph glyph-name="lacute" unicode="&#x13a;" horiz-adv-x="550" 
d="M389 1575h-250l211 260h336zM139 0v1483h273v-1483h-273z" />
    <glyph glyph-name="Lcommaaccent" unicode="&#x13b;" horiz-adv-x="1132" 
d="M170 0v1452h283v-1182h647v-270h-930zM489 -209q0 56 42.5 93.5t107.5 37.5q70 0 118 -50t48 -128q0 -61 -18.5 -108t-47.5 -75t-68.5 -46t-77 -24.5t-77.5 -6.5v98q72 0 116 26.5t50 69.5q-19 -14 -59 -14q-62 0 -98 35t-36 92z" />
    <glyph glyph-name="lcommaaccent" unicode="&#x13c;" horiz-adv-x="550" 
d="M139 0v1483h273v-1483h-273zM117 -209q0 56 42 93.5t107 37.5q70 0 118 -50t48 -128q0 -61 -18.5 -108t-47.5 -75t-68.5 -46t-77 -24.5t-77.5 -6.5v98q72 0 116 26.5t50 69.5q-19 -14 -59 -14q-62 0 -97.5 35t-35.5 92z" />
    <glyph glyph-name="Lcaron" unicode="&#x13d;" horiz-adv-x="1132" 
d="M825 1130h-192l63 426h283zM170 0v1452h283v-1182h647v-270h-930z" />
    <glyph glyph-name="lcaron" unicode="&#x13e;" horiz-adv-x="550" 
d="M672 1077h-183l60 406h270zM139 0v1483h273v-1483h-273z" />
    <glyph glyph-name="Ldot" unicode="&#x13f;" horiz-adv-x="1134" 
d="M625 827q0 66 46.5 111t112.5 45t112 -45t46 -111t-46 -110.5t-112 -44.5t-112.5 44.5t-46.5 110.5zM170 0v1452h283v-1182h647v-270h-930z" />
    <glyph glyph-name="ldot" unicode="&#x140;" horiz-adv-x="821" 
d="M139 0v1483h273v-1483h-273zM514 676q0 68 48 115t116 47t116 -47t48 -115q0 -67 -48 -113.5t-116 -46.5t-116 46.5t-48 113.5z" />
    <glyph glyph-name="Lslash" unicode="&#x141;" horiz-adv-x="1181" 
d="M219 0v530l-188 -86v228l188 86v694h283v-565l329 149v-227l-329 -150v-389h647v-270h-930z" />
    <glyph glyph-name="lslash" unicode="&#x142;" horiz-adv-x="761" 
d="M246 0v528l-174 -79v227l174 80v727h272v-604l178 82v-228l-178 -82v-651h-272z" />
    <glyph glyph-name="Nacute" unicode="&#x143;" horiz-adv-x="1579" 
d="M846 1554h-250l211 261h336zM1112 0l-659 1030v-1030h-283v1452h352l604 -960v960h283v-1452h-297z" />
    <glyph glyph-name="nacute" unicode="&#x144;" horiz-adv-x="1187" 
d="M643 1128h-219l186 308h312zM412 0h-273v1008h264v-125q45 74 124.5 112.5t166.5 38.5q180 0 272.5 -111.5t92.5 -287.5v-635h-273v588q0 91 -46 145.5t-140 54.5q-88 0 -138 -58.5t-50 -149.5v-580z" />
    <glyph glyph-name="Ncommaaccent" unicode="&#x145;" horiz-adv-x="1579" 
d="M674 -209q0 56 42 93.5t107 37.5q70 0 118 -50t48 -128q0 -61 -18.5 -108t-47.5 -75t-68.5 -46t-77 -24.5t-77.5 -6.5v98q72 0 116 26.5t50 69.5q-19 -14 -59 -14q-62 0 -97.5 35t-35.5 92zM1112 0l-659 1030v-1030h-283v1452h352l604 -960v960h283v-1452h-297z" />
    <glyph glyph-name="ncommaaccent" unicode="&#x146;" horiz-adv-x="1187" 
d="M453 -205q0 56 42 93.5t107 37.5q70 0 118 -50t48 -128q0 -61 -18.5 -108t-47.5 -75t-68.5 -46t-77 -24.5t-77.5 -6.5v98q71 0 115.5 27t50.5 70q-20 -15 -59 -15q-62 0 -97.5 35t-35.5 92zM412 0h-273v1008h264v-125q45 74 124.5 112.5t166.5 38.5q180 0 272.5 -111.5
t92.5 -287.5v-635h-273v588q0 91 -46 145.5t-140 54.5q-88 0 -138 -58.5t-50 -149.5v-580z" />
    <glyph glyph-name="Ncaron" unicode="&#x147;" horiz-adv-x="1579" 
d="M653 1815l135 -132l138 132h248l-250 -261h-279l-246 261h254zM1112 0l-659 1030v-1030h-283v1452h352l604 -960v960h283v-1452h-297z" />
    <glyph glyph-name="ncaron" unicode="&#x148;" horiz-adv-x="1187" 
d="M436 1434l144 -154l143 154h215l-223 -304h-273l-225 304h219zM412 0h-273v1008h264v-125q45 74 124.5 112.5t166.5 38.5q180 0 272.5 -111.5t92.5 -287.5v-635h-273v588q0 91 -46 145.5t-140 54.5q-88 0 -138 -58.5t-50 -149.5v-580z" />
    <glyph glyph-name="napostrophe" unicode="&#x149;" horiz-adv-x="1187" 
d="M113 1399q0 56 42 93.5t107 37.5q70 0 118 -49.5t48 -126.5q0 -62 -19.5 -110t-49 -75.5t-69.5 -45t-76.5 -23.5t-74.5 -6v96q72 0 116 26t50 68l-7 -3q-7 -3 -13 -5t-17 -4t-22 -2q-62 0 -97.5 36t-35.5 93zM412 0h-273v1008h264v-125q45 74 124.5 112.5t166.5 38.5
q180 0 272.5 -111.5t92.5 -287.5v-635h-273v588q0 91 -46 145.5t-140 54.5q-88 0 -138 -58.5t-50 -149.5v-580z" />
    <glyph glyph-name="Eng" unicode="&#x14a;" horiz-adv-x="1579" 
d="M453 1030v-1030h-283v1452h352l604 -954v954h283v-1528q0 -150 -90.5 -243t-239.5 -93q-110 0 -164 23v231q27 -10 93 -10q63 0 90.5 29t27.5 86v37z" />
    <glyph glyph-name="eng" unicode="&#x14b;" horiz-adv-x="1187" 
d="M412 0h-273v1008h264v-125q45 74 124.5 112.5t166.5 38.5q180 0 272.5 -111.5t92.5 -287.5v-717q0 -148 -88 -240t-234 -92q-115 0 -155 23v225q27 -10 86 -10q118 0 118 121v643q0 91 -46 145.5t-140 54.5q-88 0 -138 -58.5t-50 -149.5v-580z" />
    <glyph glyph-name="Omacron" unicode="&#x14c;" horiz-adv-x="1660" 
d="M377 727q0 -118 39 -213t104 -152.5t144 -87.5t165 -30q69 0 134 18.5t123.5 57.5t102 95t69.5 136.5t26 175.5t-26 175.5t-69.5 136.5t-102 95t-123.5 57.5t-134 18.5q-86 0 -165 -30t-144 -87.5t-104 -152.5t-39 -213zM84 725q0 171 61 315.5t164 240t237.5 149
t282.5 53.5t283.5 -53.5t238.5 -149t164.5 -240t61.5 -315.5q0 -170 -61.5 -314t-164.5 -239.5t-238.5 -149t-283.5 -53.5t-282.5 53.5t-237.5 149t-164 239.5t-61 314zM518 1585v205h625v-205h-625z" />
    <glyph glyph-name="omacron" unicode="&#x14d;" horiz-adv-x="1212" 
d="M319 1182v198h576v-198h-576zM606 217q106 0 181 76.5t75 210.5t-75 210.5t-181 76.5t-181 -76.5t-75 -210.5t75 -210.5t181 -76.5zM606 1038q228 0 378.5 -151t150.5 -383q0 -231 -150.5 -383t-378.5 -152t-378 152t-150 383q0 232 150 383t378 151z" />
    <glyph glyph-name="Obreve" unicode="&#x14e;" horiz-adv-x="1660" 
d="M836 1542q-80 0 -144.5 24.5t-104 64.5t-61.5 88t-24 100h209q2 -45 33.5 -75t91.5 -30t91.5 30t33.5 75h208q-2 -52 -23.5 -100t-61 -88t-104 -64.5t-144.5 -24.5zM377 727q0 -118 39 -213t104 -152.5t144 -87.5t165 -30q69 0 134 18.5t123.5 57.5t102 95t69.5 136.5
t26 175.5t-26 175.5t-69.5 136.5t-102 95t-123.5 57.5t-134 18.5q-86 0 -165 -30t-144 -87.5t-104 -152.5t-39 -213zM84 725q0 171 61 315.5t164 240t237.5 149t282.5 53.5t283.5 -53.5t238.5 -149t164.5 -240t61.5 -315.5q0 -170 -61.5 -314t-164.5 -239.5t-238.5 -149
t-283.5 -53.5t-282.5 53.5t-237.5 149t-164 239.5t-61 314z" />
    <glyph glyph-name="obreve" unicode="&#x14f;" horiz-adv-x="1212" 
d="M606 217q106 0 181 76.5t75 210.5t-75 210.5t-181 76.5t-181 -76.5t-75 -210.5t75 -210.5t181 -76.5zM606 1038q228 0 378.5 -151t150.5 -383q0 -231 -150.5 -383t-378.5 -152t-378 152t-150 383q0 232 150 383t378 151zM606 1124q-153 0 -239 90.5t-91 219.5h183
q2 -48 38.5 -84.5t108.5 -36.5q70 0 106.5 36t41.5 85h182q-2 -61 -24 -116t-61.5 -99t-102.5 -69.5t-142 -25.5z" />
    <glyph glyph-name="Ohungarumlaut" unicode="&#x150;" horiz-adv-x="1660" 
d="M735 1554h-176l109 261h260zM1057 1554h-180l137 261h264zM377 727q0 -118 39 -213t104 -152.5t144 -87.5t165 -30q69 0 134 18.5t123.5 57.5t102 95t69.5 136.5t26 175.5t-26 175.5t-69.5 136.5t-102 95t-123.5 57.5t-134 18.5q-86 0 -165 -30t-144 -87.5t-104 -152.5
t-39 -213zM84 725q0 171 61 315.5t164 240t237.5 149t282.5 53.5t283.5 -53.5t238.5 -149t164.5 -240t61.5 -315.5q0 -170 -61.5 -314t-164.5 -239.5t-238.5 -149t-283.5 -53.5t-282.5 53.5t-237.5 149t-164 239.5t-61 314z" />
    <glyph glyph-name="ohungarumlaut" unicode="&#x151;" horiz-adv-x="1212" 
d="M606 217q106 0 181 76.5t75 210.5t-75 210.5t-181 76.5t-181 -76.5t-75 -210.5t75 -210.5t181 -76.5zM606 1038q228 0 378.5 -151t150.5 -383q0 -231 -150.5 -383t-378.5 -152t-378 152t-150 383q0 232 150 383t378 151zM522 1128h-172l107 308h264zM834 1128h-175
l136 308h268z" />
    <glyph glyph-name="OE" unicode="&#x152;" horiz-adv-x="2299" 
d="M377 727q0 -118 39 -213t104 -152.5t144 -87.5t165 -30q69 0 134 18.5t123.5 57.5t102 95t69.5 136.5t26 175.5t-26 175.5t-69.5 136.5t-102 95t-123.5 57.5t-134 18.5q-86 0 -165 -30t-144 -87.5t-104 -152.5t-39 -213zM1284 0v145q-173 -176 -455 -176
q-148 0 -282.5 53.5t-237.5 149t-164 239.5t-61 314q0 171 61 315.5t164 240t237.5 149t282.5 53.5q280 0 455 -178v147h909v-266h-626v-332h567v-252h-567v-336h626v-266h-909z" />
    <glyph glyph-name="oe" unicode="&#x153;" horiz-adv-x="1937" 
d="M1589 618q-5 83 -60.5 141t-164.5 58q-98 0 -159 -62t-66 -137h450zM606 217q106 0 181 76.5t75 210.5t-75 210.5t-181 76.5t-181 -76.5t-75 -210.5t75 -210.5t181 -76.5zM606 1038q238 0 389 -164q72 79 166.5 121.5t198.5 42.5q234 0 366 -138.5t132 -383.5
q0 -17 -1 -36.5t-2.5 -32.5t-1.5 -15h-720q4 -98 77.5 -163.5t175.5 -65.5q174 0 230 153l227 -67q-39 -139 -160.5 -229.5t-298.5 -90.5q-114 0 -215 42.5t-172 123.5q-73 -79 -173.5 -122.5t-217.5 -43.5q-228 0 -378 152t-150 383q0 232 150 383t378 151z" />
    <glyph glyph-name="Racute" unicode="&#x154;" horiz-adv-x="1290" 
d="M709 1554h-250l211 261h336zM602 559h-147v-559h-285v1452h567q209 0 336 -126.5t127 -319.5q0 -153 -82.5 -261.5t-226.5 -150.5l311 -594h-315zM684 803q107 0 167 54.5t60 146.5q0 93 -59.5 147.5t-167.5 54.5h-229v-403h229z" />
    <glyph glyph-name="racute" unicode="&#x155;" horiz-adv-x="794" 
d="M444 1128h-219l187 308h311zM754 737q-36 8 -82 8q-55 0 -99.5 -14.5t-82 -46t-58 -88t-20.5 -135.5v-461h-273v1008h264v-150q22 47 57.5 80.5t77.5 49t78.5 22t73.5 6.5q18 0 64 -4v-275z" />
    <glyph glyph-name="Rcommaaccent" unicode="&#x156;" horiz-adv-x="1290" 
d="M602 559h-147v-559h-285v1452h567q209 0 336 -126.5t127 -319.5q0 -153 -82.5 -261.5t-226.5 -150.5l311 -594h-315zM684 803q107 0 167 54.5t60 146.5q0 93 -59.5 147.5t-167.5 54.5h-229v-403h229zM530 -203q0 56 42.5 93.5t107.5 37.5q70 0 118 -50t48 -128
q0 -61 -18.5 -108t-47.5 -75t-68.5 -46t-77 -24.5t-77.5 -6.5v98q71 0 115.5 27t50.5 70q-20 -15 -59 -15q-62 0 -98 35t-36 92z" />
    <glyph glyph-name="rcommaaccent" unicode="&#x157;" horiz-adv-x="794" 
d="M754 737q-36 8 -82 8q-55 0 -99.5 -14.5t-82 -46t-58 -88t-20.5 -135.5v-461h-273v1008h264v-150q22 47 57.5 80.5t77.5 49t78.5 22t73.5 6.5q18 0 64 -4v-275zM121 -209q0 56 42 93.5t107 37.5q70 0 118 -50t48 -128q0 -61 -18.5 -108t-47.5 -75t-68.5 -46t-77 -24.5
t-77.5 -6.5v98q72 0 116 26.5t50 69.5q-19 -14 -59 -14q-62 0 -97.5 35t-35.5 92z" />
    <glyph glyph-name="Rcaron" unicode="&#x158;" horiz-adv-x="1290" 
d="M510 1815l135 -132l137 132h248l-250 -261h-278l-246 261h254zM602 559h-147v-559h-285v1452h567q209 0 336 -126.5t127 -319.5q0 -153 -82.5 -261.5t-226.5 -150.5l311 -594h-315zM684 803q107 0 167 54.5t60 146.5q0 93 -59.5 147.5t-167.5 54.5h-229v-403h229z" />
    <glyph glyph-name="rcaron" unicode="&#x159;" horiz-adv-x="794" 
d="M287 1434l143 -154l143 154h215l-223 -304h-272l-225 304h219zM754 737q-36 8 -82 8q-55 0 -99.5 -14.5t-82 -46t-58 -88t-20.5 -135.5v-461h-273v1008h264v-150q22 47 57.5 80.5t77.5 49t78.5 22t73.5 6.5q18 0 64 -4v-275z" />
    <glyph glyph-name="Sacute" unicode="&#x15a;" horiz-adv-x="1251" 
d="M745 1554h-249l211 261h335zM895 1028q-7 35 -22.5 67t-44.5 65.5t-79.5 53t-117.5 19.5q-100 0 -164 -54.5t-64 -129.5q0 -61 40 -104t118 -60l203 -39q191 -36 298 -153.5t107 -274.5q0 -85 -35.5 -164.5t-100 -143.5t-165.5 -102.5t-223 -38.5q-111 0 -205 27.5
t-158 72.5t-111 105.5t-71.5 122.5t-31.5 127l262 70q8 -115 90 -194t227 -79q113 0 174.5 49t61.5 129q0 64 -45.5 109.5t-130.5 62.5l-203 41q-177 36 -279 144.5t-102 271.5q0 125 69 230.5t185.5 165t251.5 59.5q101 0 185 -24t140 -61.5t98 -88.5t64 -100.5t33 -102.5z
" />
    <glyph glyph-name="sacute" unicode="&#x15b;" horiz-adv-x="964" 
d="M584 1128h-219l186 308h311zM305 332q5 -65 52 -109.5t132 -44.5q65 0 99.5 28.5t34.5 72.5q0 76 -109 98l-133 31q-142 31 -212.5 110.5t-70.5 190.5q0 137 108 233t269 96q82 0 149.5 -20t110.5 -50.5t73.5 -70.5t44.5 -77t17 -72l-227 -52q-9 55 -48 95t-118 40
q-54 0 -91.5 -28.5t-37.5 -71.5q0 -36 25 -59t67 -31l144 -31q145 -30 222 -112.5t77 -196.5q0 -63 -24.5 -121.5t-71.5 -106t-123.5 -76t-171.5 -28.5q-87 0 -159 21.5t-117.5 55t-78 76.5t-47.5 82.5t-18 76.5z" />
    <glyph glyph-name="Scircumflex" unicode="&#x15c;" horiz-adv-x="1251" 
d="M272 1554l246 261h279l250 -261h-256l-138 134l-133 -134h-248zM895 1028q-7 35 -22.5 67t-44.5 65.5t-79.5 53t-117.5 19.5q-100 0 -164 -54.5t-64 -129.5q0 -61 40 -104t118 -60l203 -39q191 -36 298 -153.5t107 -274.5q0 -85 -35.5 -164.5t-100 -143.5t-165.5 -102.5
t-223 -38.5q-111 0 -205 27.5t-158 72.5t-111 105.5t-71.5 122.5t-31.5 127l262 70q8 -115 90 -194t227 -79q113 0 174.5 49t61.5 129q0 64 -45.5 109.5t-130.5 62.5l-203 41q-177 36 -279 144.5t-102 271.5q0 125 69 230.5t185.5 165t251.5 59.5q101 0 185 -24t140 -61.5
t98 -88.5t64 -100.5t33 -102.5z" />
    <glyph glyph-name="scircumflex" unicode="&#x15d;" horiz-adv-x="964" 
d="M141 1130l226 302h270l225 -302h-219l-145 154l-144 -154h-213zM305 332q5 -65 52 -109.5t132 -44.5q65 0 99.5 28.5t34.5 72.5q0 76 -109 98l-133 31q-142 31 -212.5 110.5t-70.5 190.5q0 137 108 233t269 96q82 0 149.5 -20t110.5 -50.5t73.5 -70.5t44.5 -77t17 -72
l-227 -52q-9 55 -48 95t-118 40q-54 0 -91.5 -28.5t-37.5 -71.5q0 -36 25 -59t67 -31l144 -31q145 -30 222 -112.5t77 -196.5q0 -63 -24.5 -121.5t-71.5 -106t-123.5 -76t-171.5 -28.5q-87 0 -159 21.5t-117.5 55t-78 76.5t-47.5 82.5t-18 76.5z" />
    <glyph glyph-name="Scedilla" unicode="&#x15e;" horiz-adv-x="1251" 
d="M502 -129l63 102q-119 12 -213.5 56.5t-152 109t-90 136.5t-41.5 149l262 70q8 -115 90 -194t227 -79q113 0 174.5 49t61.5 129q0 64 -45.5 109.5t-130.5 62.5l-203 41q-177 36 -279 144.5t-102 271.5q0 125 69 230.5t185.5 165t251.5 59.5q101 0 185 -24t140 -61.5
t98 -88.5t64 -100.5t33 -102.5l-254 -78q-7 35 -22.5 67t-44.5 65.5t-79.5 53t-117.5 19.5q-100 0 -164 -54.5t-64 -129.5q0 -61 40 -104t118 -60l203 -39q191 -36 298 -153.5t107 -274.5q0 -104 -48.5 -196.5t-148.5 -160t-235 -86.5l-47 -73q88 -2 143.5 -50t55.5 -126
q0 -36 -14.5 -69.5t-44.5 -62.5t-82.5 -46t-120.5 -17q-79 0 -144.5 32.5t-99.5 74.5l88 110q76 -76 154 -76q38 0 61 15t23 43q0 24 -21 40.5t-57 16.5q-37 0 -56 -8z" />
    <glyph glyph-name="scedilla" unicode="&#x15f;" horiz-adv-x="964" 
d="M342 -129l66 104q-69 9 -126 34t-93.5 57t-62.5 71t-38.5 74.5t-15.5 69.5l233 51q5 -65 52 -109.5t132 -44.5q65 0 99.5 28.5t34.5 72.5q0 76 -109 98l-133 31q-142 31 -212.5 110.5t-70.5 190.5q0 137 108 233t269 96q82 0 149.5 -20t110.5 -50.5t73.5 -70.5t44.5 -77
t17 -72l-227 -52q-9 55 -48 95t-118 40q-54 0 -91.5 -28.5t-37.5 -71.5q0 -36 25 -59t67 -31l144 -31q145 -30 222 -112.5t77 -196.5q0 -116 -80 -209t-225 -117l-48 -73q88 -2 143.5 -50t55.5 -126q0 -36 -14.5 -69.5t-44.5 -62.5t-82.5 -46t-120.5 -17q-79 0 -144.5 32.5
t-99.5 74.5l88 110q76 -76 154 -76q38 0 61 15t23 43q0 24 -21 40.5t-57 16.5t-55 -8z" />
    <glyph glyph-name="Scaron" unicode="&#x160;" horiz-adv-x="1251" 
d="M508 1815l135 -132l137 132h248l-250 -261h-278l-246 261h254zM895 1028q-7 35 -22.5 67t-44.5 65.5t-79.5 53t-117.5 19.5q-100 0 -164 -54.5t-64 -129.5q0 -61 40 -104t118 -60l203 -39q191 -36 298 -153.5t107 -274.5q0 -85 -35.5 -164.5t-100 -143.5t-165.5 -102.5
t-223 -38.5q-111 0 -205 27.5t-158 72.5t-111 105.5t-71.5 122.5t-31.5 127l262 70q8 -115 90 -194t227 -79q113 0 174.5 49t61.5 129q0 64 -45.5 109.5t-130.5 62.5l-203 41q-177 36 -279 144.5t-102 271.5q0 125 69 230.5t185.5 165t251.5 59.5q101 0 185 -24t140 -61.5
t98 -88.5t64 -100.5t33 -102.5z" />
    <glyph glyph-name="scaron" unicode="&#x161;" horiz-adv-x="964" 
d="M344 1434l143 -154l144 154h215l-223 -304h-273l-225 304h219zM305 332q5 -65 52 -109.5t132 -44.5q65 0 99.5 28.5t34.5 72.5q0 76 -109 98l-133 31q-142 31 -212.5 110.5t-70.5 190.5q0 137 108 233t269 96q82 0 149.5 -20t110.5 -50.5t73.5 -70.5t44.5 -77t17 -72
l-227 -52q-9 55 -48 95t-118 40q-54 0 -91.5 -28.5t-37.5 -71.5q0 -36 25 -59t67 -31l144 -31q145 -30 222 -112.5t77 -196.5q0 -63 -24.5 -121.5t-71.5 -106t-123.5 -76t-171.5 -28.5q-87 0 -159 21.5t-117.5 55t-78 76.5t-47.5 82.5t-18 76.5z" />
    <glyph glyph-name="Tcommaaccent" unicode="&#x162;" horiz-adv-x="1267" 
d="M469 -129l82 129h-59v1184h-459v268h1202v-268h-459v-1184h-57l-62 -98q88 -2 143.5 -50t55.5 -126q0 -36 -14.5 -69.5t-44.5 -62.5t-82.5 -46t-120.5 -17q-79 0 -144.5 32.5t-99.5 74.5l88 110q76 -76 154 -76q38 0 61 15t23 43q0 24 -21 40.5t-57 16.5q-34 0 -55 -8z
" />
    <glyph glyph-name="tcommaaccent" unicode="&#x163;" horiz-adv-x="776" 
d="M494 1008h202v-242h-202v-422q0 -64 28 -90.5t90 -26.5q63 0 84 9v-226q-60 -24 -153 -24q-149 0 -234.5 82t-85.5 229v469h-182v242h51q76 0 116 44t40 115v142h246v-301zM309 -209q0 56 42.5 93.5t107.5 37.5q70 0 118 -50t48 -128q0 -61 -18.5 -108t-47.5 -75
t-68.5 -46t-77 -24.5t-77.5 -6.5v98q72 0 116 26.5t50 69.5q-19 -14 -60 -14q-62 0 -97.5 35t-35.5 92z" />
    <glyph glyph-name="Tcaron" unicode="&#x164;" horiz-adv-x="1267" 
d="M500 1815l135 -132l137 132h248l-250 -261h-278l-246 261h254zM776 1184v-1184h-284v1184h-459v268h1202v-268h-459z" />
    <glyph glyph-name="tcaron" unicode="&#x165;" horiz-adv-x="776" 
d="M782 1139h-182l59 405h271zM494 1008h202v-242h-202v-422q0 -64 28 -90.5t90 -26.5q63 0 84 9v-226q-60 -24 -153 -24q-149 0 -234.5 82t-85.5 229v469h-182v242h51q76 0 116 44t40 115v142h246v-301z" />
    <glyph glyph-name="Tbar" unicode="&#x166;" horiz-adv-x="1267" 
d="M776 1184v-422h250v-211h-250v-551h-284v551h-242v211h242v422h-459v268h1202v-268h-459z" />
    <glyph glyph-name="tbar" unicode="&#x167;" horiz-adv-x="776" 
d="M494 1008h202v-242h-202v-166h200v-197h-200v-59q0 -64 28 -90.5t90 -26.5q63 0 84 9v-226q-69 -24 -153 -24q-149 0 -234.5 82t-85.5 229v106h-184v197h184v166h-182v242h51q76 0 116 44t40 115v142h246v-301z" />
    <glyph glyph-name="Utilde" unicode="&#x168;" horiz-adv-x="1431" 
d="M715 -33q-117 0 -217.5 36t-176.5 103.5t-119.5 172.5t-43.5 235v938h282v-917q0 -141 73 -216t202 -75q131 0 203.5 75t72.5 216v917h283v-938q0 -173 -75.5 -298.5t-200.5 -187t-283 -61.5zM1049 1817q0 -120 -55.5 -181t-147.5 -61q-54 0 -96.5 20t-73 40t-55.5 20
q-30 0 -43.5 -16.5t-16.5 -59.5h-170q0 121 56 181.5t149 60.5q54 0 96.5 -19.5t73 -39t55.5 -19.5q31 0 45 17t17 57h166z" />
    <glyph glyph-name="utilde" unicode="&#x169;" horiz-adv-x="1187" 
d="M799 0q-8 31 -8 109q-39 -68 -116 -102t-163 -34q-177 0 -280 113.5t-103 284.5v637h272v-582q0 -91 46 -147t139 -56q90 0 140 54.5t50 144.5v586h273v-826q0 -124 10 -182h-260zM928 1417q0 -120 -55.5 -180.5t-147.5 -60.5q-54 0 -96.5 20t-73 39.5t-55.5 19.5
q-30 0 -43.5 -16t-16.5 -59h-170q0 121 56 181t149 60q54 0 96.5 -19.5t73 -39t55.5 -19.5q31 0 45 17t17 57h166z" />
    <glyph glyph-name="Umacron" unicode="&#x16a;" horiz-adv-x="1431" 
d="M715 -33q-117 0 -217.5 36t-176.5 103.5t-119.5 172.5t-43.5 235v938h282v-917q0 -141 73 -216t202 -75q131 0 203.5 75t72.5 216v917h283v-938q0 -173 -75.5 -298.5t-200.5 -187t-283 -61.5zM403 1585v205h625v-205h-625z" />
    <glyph glyph-name="umacron" unicode="&#x16b;" horiz-adv-x="1187" 
d="M799 0q-8 31 -8 109q-39 -68 -116 -102t-163 -34q-177 0 -280 113.5t-103 284.5v637h272v-582q0 -91 46 -147t139 -56q90 0 140 54.5t50 144.5v586h273v-826q0 -124 10 -182h-260zM301 1182v198h576v-198h-576z" />
    <glyph glyph-name="Ubreve" unicode="&#x16c;" horiz-adv-x="1431" 
d="M715 -33q-117 0 -217.5 36t-176.5 103.5t-119.5 172.5t-43.5 235v938h282v-917q0 -141 73 -216t202 -75q131 0 203.5 75t72.5 216v917h283v-938q0 -173 -75.5 -298.5t-200.5 -187t-283 -61.5zM717 1542q-80 0 -144.5 24.5t-104 64.5t-61.5 88t-24 100h209q2 -45 33.5 -75
t91.5 -30t91.5 30t33.5 75h209q-2 -52 -24 -100t-61.5 -88t-104 -64.5t-144.5 -24.5z" />
    <glyph glyph-name="ubreve" unicode="&#x16d;" horiz-adv-x="1187" 
d="M799 0q-8 31 -8 109q-39 -68 -116 -102t-163 -34q-177 0 -280 113.5t-103 284.5v637h272v-582q0 -91 46 -147t139 -56q90 0 140 54.5t50 144.5v586h273v-826q0 -124 10 -182h-260zM586 1124q-153 0 -239 90.5t-91 219.5h182q2 -48 39 -84.5t109 -36.5q70 0 106 36t41 85
h182q-3 -83 -38.5 -151.5t-111 -113.5t-179.5 -45z" />
    <glyph glyph-name="Uring" unicode="&#x16e;" horiz-adv-x="1431" 
d="M715 -33q-117 0 -217.5 36t-176.5 103.5t-119.5 172.5t-43.5 235v938h282v-917q0 -141 73 -216t202 -75q131 0 203.5 75t72.5 216v917h283v-938q0 -173 -75.5 -298.5t-200.5 -187t-283 -61.5zM985 1757q0 -112 -79 -186t-189 -74q-107 0 -187.5 74.5t-80.5 185.5
t80.5 185.5t187.5 74.5q110 0 189 -74t79 -186zM813 1757q0 44 -27 70t-69 26t-70.5 -26.5t-28.5 -69.5t28.5 -70.5t70.5 -27.5t69 27t27 71z" />
    <glyph glyph-name="uring" unicode="&#x16f;" horiz-adv-x="1187" 
d="M827 1327q0 -96 -69.5 -160.5t-165.5 -64.5t-166 64.5t-70 160.5q0 97 70 163t166 66q95 0 165 -66t70 -163zM674 1327q0 38 -24 62t-60 24t-59 -24t-23 -62q0 -37 23.5 -60.5t58.5 -23.5q36 0 60 24t24 60zM799 0q-8 31 -8 109q-39 -68 -116 -102t-163 -34
q-177 0 -280 113.5t-103 284.5v637h272v-582q0 -91 46 -147t139 -56q90 0 140 54.5t50 144.5v586h273v-826q0 -124 10 -182h-260z" />
    <glyph glyph-name="Uhungarumlaut" unicode="&#x170;" horiz-adv-x="1431" 
d="M621 1554h-177l109 261h260zM942 1554h-180l137 261h264zM715 -33q-117 0 -217.5 36t-176.5 103.5t-119.5 172.5t-43.5 235v938h282v-917q0 -141 73 -216t202 -75q131 0 203.5 75t72.5 216v917h283v-938q0 -173 -75.5 -298.5t-200.5 -187t-283 -61.5z" />
    <glyph glyph-name="uhungarumlaut" unicode="&#x171;" horiz-adv-x="1187" 
d="M799 0q-8 31 -8 109q-39 -68 -116 -102t-163 -34q-177 0 -280 113.5t-103 284.5v637h272v-582q0 -91 46 -147t139 -56q90 0 140 54.5t50 144.5v586h273v-826q0 -124 10 -182h-260zM481 1128h-172l107 308h264zM793 1128h-175l136 308h268z" />
    <glyph glyph-name="Uogonek" unicode="&#x172;" horiz-adv-x="1431" 
d="M819 -457q-111 0 -181.5 60t-70.5 159q0 122 103 207q-109 6 -202 44.5t-162.5 106t-108.5 169t-39 225.5v938h282v-917q0 -141 73 -216t202 -75q131 0 203.5 75t72.5 216v917h283v-938q0 -198 -93.5 -327.5t-254.5 -186.5q-67 -25 -114.5 -73t-47.5 -113
q0 -48 27.5 -73.5t72.5 -25.5q44 0 62 6v-161q-46 -17 -107 -17z" />
    <glyph glyph-name="uogonek" unicode="&#x173;" horiz-adv-x="1187" 
d="M952 -457q-111 0 -181.5 60t-70.5 159q0 58 22.5 106t52.5 76.5t73 55.5h-49q-8 31 -8 109q-39 -68 -116 -102t-163 -34q-177 0 -280 113.5t-103 284.5v637h272v-582q0 -91 46 -147t139 -56q90 0 140 54.5t50 144.5v586h273v-826q0 -124 10 -182q-69 -34 -115.5 -83.5
t-46.5 -109.5q0 -45 28 -68.5t72 -23.5q39 0 62 6v-161q-46 -17 -107 -17z" />
    <glyph glyph-name="Wcircumflex" unicode="&#x174;" horiz-adv-x="2129" 
d="M678 1554l246 261h278l250 -261h-256l-137 134l-133 -134h-248zM1802 1452h289l-401 -1452h-291l-332 1034l-332 -1034h-295l-403 1452h299l266 -999l322 999h293l323 -1003z" />
    <glyph glyph-name="wcircumflex" unicode="&#x175;" horiz-adv-x="1718" 
d="M502 1130l225 302h270l226 -302h-219l-146 154l-143 -154h-213zM1010 1008l217 -650l186 650h270l-315 -1008h-272l-236 688l-231 -688h-277l-321 1008h286l187 -648l219 648h287z" />
    <glyph glyph-name="Ycircumflex" unicode="&#x176;" horiz-adv-x="1349" 
d="M27 1452h331l326 -575l326 575h317l-512 -842v-610h-283v610zM289 1554l246 261h278l250 -261h-256l-137 134l-133 -134h-248z" />
    <glyph glyph-name="ycircumflex" unicode="&#x177;" horiz-adv-x="1153" 
d="M215 -397l238 524l-428 881h305l268 -590l248 590h291l-633 -1405h-289zM223 1130l226 302h270l225 -302h-219l-145 154l-144 -154h-213z" />
    <glyph glyph-name="Ydieresis" unicode="&#x178;" horiz-adv-x="1349" 
d="M291 1686q0 62 42 104.5t105 42.5t106.5 -42.5t43.5 -104.5q0 -63 -43.5 -105.5t-106.5 -42.5t-105 42.5t-42 105.5zM776 1686q0 62 42.5 104.5t105.5 42.5q62 0 104.5 -42.5t42.5 -104.5q0 -63 -42.5 -105.5t-104.5 -42.5q-63 0 -105.5 42.5t-42.5 105.5zM27 1452h331
l326 -575l326 575h317l-512 -842v-610h-283v610z" />
    <glyph glyph-name="Zacute" unicode="&#x179;" horiz-adv-x="1316" 
d="M721 1554h-250l211 261h336zM84 0v274l756 910h-729v268h1106v-264l-768 -918h778v-270h-1143z" />
    <glyph glyph-name="zacute" unicode="&#x17a;" horiz-adv-x="1015" 
d="M561 1128h-219l186 308h312zM90 0v240l477 532h-465v236h813v-228l-491 -542h500v-238h-834z" />
    <glyph glyph-name="Zdotaccent" unicode="&#x17b;" horiz-adv-x="1316" 
d="M84 0v274l756 910h-729v268h1106v-264l-768 -918h778v-270h-1143zM506 1706q0 69 48 116.5t116 47.5q69 0 117.5 -47.5t48.5 -116.5q0 -67 -48.5 -114.5t-117.5 -47.5q-68 0 -116 47.5t-48 114.5z" />
    <glyph glyph-name="zdotaccent" unicode="&#x17c;" horiz-adv-x="1015" 
d="M90 0v240l477 532h-465v236h813v-228l-491 -542h500v-238h-834zM346 1284q0 68 48 115t116 47t116 -47t48 -115q0 -67 -48 -113.5t-116 -46.5t-116 46.5t-48 113.5z" />
    <glyph glyph-name="Zcaron" unicode="&#x17d;" horiz-adv-x="1316" 
d="M539 1815l135 -132l137 132h248l-250 -261h-279l-245 261h254zM84 0v274l756 910h-729v268h1106v-264l-768 -918h778v-270h-1143z" />
    <glyph glyph-name="zcaron" unicode="&#x17e;" horiz-adv-x="1015" 
d="M373 1434l143 -154l143 154h215l-223 -304h-272l-225 304h219zM90 0v240l477 532h-465v236h813v-228l-491 -542h500v-238h-834z" />
    <glyph glyph-name="uni018F" unicode="&#x18f;" horiz-adv-x="1611" 
d="M791 1485q155 0 288 -50.5t233 -146t157 -242.5t57 -329q0 -170 -58.5 -312.5t-158 -237.5t-232.5 -147.5t-282 -52.5q-114 0 -219.5 30.5t-197.5 93.5t-160.5 152t-108 213.5t-39.5 270.5q0 24 2 51h1163q-4 110 -43.5 196.5t-103.5 138t-141.5 78t-162.5 26.5
q-87 0 -164.5 -27.5t-131 -72.5t-89.5 -96.5t-51 -105.5l-262 95q25 91 85.5 175t148.5 151.5t211 108t260 40.5zM393 545q29 -149 137.5 -232.5t268.5 -83.5q157 0 267.5 82.5t139.5 233.5h-813z" />
    <glyph glyph-name="florin" unicode="&#x192;" horiz-adv-x="1089" 
d="M393 776h-200v230h247l39 188q16 82 54.5 145.5t92 101t113 56.5t123.5 19q43 0 78 -4t49.5 -8t54.5 -15v-236q-73 15 -126 15q-142 0 -173 -154l-22 -108h240v-230h-287l-162 -803q-16 -81 -55 -144.5t-92 -101t-113 -56.5t-123 -19q-66 0 -102.5 6.5t-85.5 22.5v233
q68 -14 133 -14q141 0 172 155z" />
    <glyph glyph-name="Ohorn" unicode="&#x1a0;" horiz-adv-x="1660" 
d="M84 725q0 171 61 315.5t164 240t237.5 149t282.5 53.5q84 0 158.5 -15.5t97.5 -15.5q72 0 108 48.5t36 121.5h215q0 -217 -187 -268q148 -99 234 -260.5t86 -368.5q0 -170 -61.5 -314t-164.5 -239.5t-238.5 -149t-283.5 -53.5t-282.5 53.5t-237.5 149t-164 239.5t-61 314
zM377 727q0 -118 39 -213t104 -152.5t144 -87.5t165 -30q69 0 134 18.5t123.5 57.5t102 95t69.5 136.5t26 175.5t-26 175.5t-69.5 136.5t-102 95t-123.5 57.5t-134 18.5q-86 0 -165 -30t-144 -87.5t-104 -152.5t-39 -213z" />
    <glyph glyph-name="ohorn" unicode="&#x1a1;" horiz-adv-x="1212" 
d="M606 1038q96 0 182 -30q61 9 91 55.5t30 114.5h215q0 -208 -170 -265q86 -71 133.5 -177t47.5 -232q0 -231 -150.5 -383t-378.5 -152t-378 152t-150 383q0 232 150 383t378 151zM606 217q106 0 181 76.5t75 210.5t-75 210.5t-181 76.5t-181 -76.5t-75 -210.5t75 -210.5
t181 -76.5z" />
    <glyph glyph-name="Uhorn" unicode="&#x1af;" horiz-adv-x="1431" 
d="M715 -33q-117 0 -217.5 36t-176.5 103.5t-119.5 172.5t-43.5 235v938h282v-917q0 -141 73 -216t202 -75q131 0 203.5 75t72.5 216v917h92h7q72 0 107.5 48t35.5 122h215q0 -210 -174 -264v-844q0 -173 -75.5 -298.5t-200.5 -187t-283 -61.5z" />
    <glyph glyph-name="uhorn" unicode="&#x1b0;" horiz-adv-x="1187" 
d="M799 0q-8 31 -8 109q-39 -68 -116 -102t-163 -34q-177 0 -280 113.5t-103 284.5v637h272v-582q0 -91 46 -147t139 -56q90 0 140 54.5t50 144.5v586h92q69 3 103.5 50.5t34.5 119.5h215q0 -207 -172 -265v-731q0 -124 10 -182h-260z" />
    <glyph glyph-name="uni01B5" unicode="&#x1b5;" horiz-adv-x="1316" 
d="M84 0v274l297 359h-244v231h436l267 320h-729v268h1106v-264l-273 -324h236v-231h-428l-303 -363h778v-270h-1143z" />
    <glyph glyph-name="uni01B6" unicode="&#x1b6;" horiz-adv-x="1015" 
d="M90 0v203l180 209h-164v194h332l148 172h-484v230h813v-209l-165 -193h159v-194h-327l-156 -181h498v-231h-834z" />
    <glyph glyph-name="Aringacute" unicode="&#x1fa;" horiz-adv-x="1476" 
d="M532 590h402l-201 549zM854 1868h-250l211 260h336zM829 1550q0 44 -27 70.5t-69 26.5t-70 -27t-28 -70q0 -44 28 -71t70 -27t69 27t27 71zM1001 1550q0 -101 -69 -176l524 -1374h-307l-121 332h-590l-121 -332h-299l525 1366q-78 78 -78 184q0 111 80.5 185.5
t187.5 74.5q110 0 189 -74t79 -186z" />
    <glyph glyph-name="aringacute" unicode="&#x1fb;" horiz-adv-x="1101" 
d="M80 274q0 130 83 207t218 99l248 36q76 11 76 72q0 57 -43.5 94t-126.5 37q-86 0 -136.5 -47t-56.5 -117l-242 52q6 61 36.5 118.5t82.5 106t133.5 77.5t179.5 29q116 0 202.5 -31t137 -85t75 -121t24.5 -146v-495q0 -90 12 -160h-250q-10 45 -10 121q-42 -66 -117 -108
t-180 -42q-155 0 -250.5 90t-95.5 213zM483 174q97 0 159.5 55t62.5 179v45l-228 -35q-125 -17 -125 -127q0 -48 34.5 -82.5t96.5 -34.5zM641 1608h-219l186 307h312zM776 1319q0 -96 -69.5 -160.5t-165.5 -64.5t-166 64.5t-70 160.5q0 97 70 163t166 66q95 0 165 -66
t70 -163zM623 1319q0 38 -24 62t-60 24t-59 -24t-23 -62q0 -37 23.5 -60.5t58.5 -23.5q36 0 60 24t24 60z" />
    <glyph glyph-name="AEacute" unicode="&#x1fc;" horiz-adv-x="2127" 
d="M1249 1554h-250l211 261h336zM1112 0v342h-561l-219 -342h-346l962 1452h1073v-266h-624v-332h565v-252h-565v-336h626v-266h-911zM1112 580v639l-410 -639h410z" />
    <glyph glyph-name="aeacute" unicode="&#x1fd;" horiz-adv-x="1781" 
d="M973 1128h-219l186 308h311zM1688 289q-38 -138 -163 -229t-300 -91q-117 0 -218 46.5t-173 134.5q-135 -181 -383 -181q-172 0 -272.5 89.5t-100.5 215.5q0 130 83 207t218 99l258 36q76 10 76 72q0 58 -45 95.5t-131 37.5q-88 0 -141.5 -47t-59.5 -117l-238 50
q6 62 39 121t87.5 106t136.5 75.5t178 28.5q234 0 342 -131q140 131 331 131q231 0 360.5 -138.5t129.5 -383.5q0 -66 -6 -84h-723q4 -102 77.5 -166.5t176.5 -64.5q177 0 231 159zM489 174q42 0 80 12t71.5 37.5t53 72.5t19.5 110v47l-238 -35q-58 -8 -93.5 -39t-35.5 -88
q0 -47 37.5 -82t105.5 -35zM1434 618q-5 83 -62 141t-168 58q-98 0 -159 -62t-66 -137h455z" />
    <glyph glyph-name="Oslashacute" unicode="&#x1fe;" horiz-adv-x="1660" 
d="M84 725q0 171 61 315.5t164 240t237.5 149t282.5 53.5q202 0 371 -94l143 184l181 -135l-144 -187q197 -210 197 -526q0 -170 -61.5 -314t-164.5 -239.5t-238.5 -149t-283.5 -53.5q-194 0 -370 92l-140 -180l-184 133l146 187q-197 210 -197 524zM377 727q0 -176 82 -295
l569 735q-90 43 -199 43q-86 0 -165 -30t-144 -87.5t-104 -152.5t-39 -213zM1284 727q0 176 -82 295l-569 -735q90 -43 196 -43q69 0 134 18.5t123.5 57.5t102 95t69.5 136.5t26 175.5zM944 1554h-250l211 261h336z" />
    <glyph glyph-name="oslashacute" unicode="&#x1ff;" horiz-adv-x="1212" 
d="M700 1128h-219l187 308h311zM606 1038q154 0 271 -69l108 133l131 -111l-106 -133q125 -144 125 -354q0 -231 -150.5 -383t-378.5 -152q-137 0 -262 64l-102 -127l-136 110l103 125q-131 153 -131 363q0 232 150 383t378 151zM350 504q0 -84 31 -148l334 412
q-61 23 -109 23q-106 0 -181 -76.5t-75 -210.5zM606 217q106 0 181 76.5t75 210.5q0 77 -26 139l-328 -407q49 -19 98 -19z" />
    <glyph glyph-name="Scommaaccent" unicode="&#x218;" horiz-adv-x="1251" 
d="M895 1028q-7 35 -22.5 67t-44.5 65.5t-79.5 53t-117.5 19.5q-100 0 -164 -54.5t-64 -129.5q0 -61 40 -104t118 -60l203 -39q191 -36 298 -153.5t107 -274.5q0 -85 -35.5 -164.5t-100 -143.5t-165.5 -102.5t-223 -38.5q-111 0 -205 27.5t-158 72.5t-111 105.5t-71.5 122.5
t-31.5 127l262 70q8 -115 90 -194t227 -79q113 0 174.5 49t61.5 129q0 64 -45.5 109.5t-130.5 62.5l-203 41q-177 36 -279 144.5t-102 271.5q0 125 69 230.5t185.5 165t251.5 59.5q101 0 185 -24t140 -61.5t98 -88.5t64 -100.5t33 -102.5zM496 -209q0 56 42 93.5t107 37.5
q70 0 118 -50t48 -128q0 -61 -18.5 -108t-47.5 -75t-68.5 -46t-77 -24.5t-77.5 -6.5v98q72 0 116 26.5t50 69.5q-19 -14 -59 -14q-62 0 -97.5 35t-35.5 92z" />
    <glyph glyph-name="scommaaccent" unicode="&#x219;" horiz-adv-x="964" 
d="M305 332q5 -65 52 -109.5t132 -44.5q65 0 99.5 28.5t34.5 72.5q0 76 -109 98l-133 31q-142 31 -212.5 110.5t-70.5 190.5q0 137 108 233t269 96q82 0 149.5 -20t110.5 -50.5t73.5 -70.5t44.5 -77t17 -72l-227 -52q-9 55 -48 95t-118 40q-54 0 -91.5 -28.5t-37.5 -71.5
q0 -36 25 -59t67 -31l144 -31q145 -30 222 -112.5t77 -196.5q0 -63 -24.5 -121.5t-71.5 -106t-123.5 -76t-171.5 -28.5q-87 0 -159 21.5t-117.5 55t-78 76.5t-47.5 82.5t-18 76.5zM334 -213q0 56 42 93.5t107 37.5q70 0 118 -50t48 -128q0 -61 -18.5 -108t-47.5 -75
t-68.5 -46t-77 -24.5t-77.5 -6.5v98q72 0 116 26.5t50 69.5q-19 -14 -59 -14q-62 0 -97.5 35t-35.5 92z" />
    <glyph glyph-name="uni021A" unicode="&#x21a;" horiz-adv-x="1267" 
d="M776 1184v-1184h-284v1184h-459v268h1202v-268h-459zM477 -209q0 56 42.5 93.5t107.5 37.5q70 0 118 -50t48 -128q0 -61 -18.5 -108t-47.5 -75t-68.5 -46t-77 -24.5t-77.5 -6.5v98q72 0 116 26.5t50 69.5q-19 -14 -60 -14q-62 0 -97.5 35t-35.5 92z" />
    <glyph glyph-name="uni021B" unicode="&#x21b;" horiz-adv-x="776" 
d="M293 -129l92 145q-79 35 -120.5 107t-41.5 174v469h-182v242h51q76 0 116 44t40 115v142h246v-301h202v-242h-202v-422q0 -64 28 -90.5t90 -26.5q63 0 84 9v-226q-60 -24 -153 -24h-8l-54 -84q88 -2 143.5 -50t55.5 -126q0 -36 -14.5 -69.5t-44.5 -62.5t-82.5 -46
t-120.5 -17q-79 0 -144.5 32.5t-99.5 74.5l88 110q76 -76 154 -76q38 0 61 15t23 43q0 24 -21 40.5t-57 16.5q-34 0 -55 -8z" />
    <glyph glyph-name="dotlessj" unicode="&#x237;" horiz-adv-x="550" 
d="M139 1008h273v-1096q0 -148 -85 -240t-231 -92q-99 0 -153 23v227q27 -10 84 -10q112 0 112 119v1069z" />
    <glyph glyph-name="uni0259" unicode="&#x259;" horiz-adv-x="1157" 
d="M344 387q5 -84 65 -142.5t171 -58.5q102 0 161.5 59.5t67.5 141.5h-465zM90 725q43 130 172 221.5t307 91.5q228 0 368 -146.5t140 -391.5q0 -118 -39.5 -218.5t-107 -169t-158 -107t-190.5 -38.5q-228 0 -367 141.5t-139 378.5q0 62 6 80h733q-6 110 -73.5 176
t-176.5 66q-93 0 -158.5 -45.5t-93.5 -118.5z" />
    <glyph glyph-name="circumflex" unicode="&#x2c6;" horiz-adv-x="827" 
d="M53 1130l226 302h270l225 -302h-219l-145 154l-144 -154h-213z" />
    <glyph glyph-name="caron" unicode="&#x2c7;" horiz-adv-x="827" 
d="M272 1434l144 -154l143 154h215l-223 -304h-272l-226 304h219z" />
    <glyph glyph-name="uni02C9" unicode="&#x2c9;" horiz-adv-x="686" 
d="M55 1182v198h576v-198h-576z" />
    <glyph glyph-name="breve" unicode="&#x2d8;" horiz-adv-x="765" 
d="M383 1124q-153 0 -239 90.5t-91 219.5h183q2 -48 38.5 -84.5t108.5 -36.5q70 0 106 36t41 85h183q-2 -61 -24 -116t-61.5 -99t-102.5 -69.5t-142 -25.5z" />
    <glyph glyph-name="dotaccent" unicode="&#x2d9;" horiz-adv-x="393" 
d="M33 1284q0 68 48 115t116 47t115.5 -46.5t47.5 -115.5q0 -67 -47.5 -113.5t-115.5 -46.5t-116 46.5t-48 113.5z" />
    <glyph glyph-name="ring" unicode="&#x2da;" horiz-adv-x="577" 
d="M524 1327q0 -96 -69.5 -160.5t-165.5 -64.5t-166 64.5t-70 160.5q0 97 70 163t166 66q95 0 165 -66t70 -163zM371 1327q0 38 -24 62t-60 24t-59 -24t-23 -62q0 -37 23.5 -60.5t58.5 -23.5q36 0 60 24t24 60z" />
    <glyph glyph-name="ogonek" unicode="&#x2db;" horiz-adv-x="458" 
d="M299 -457q-111 0 -181.5 60t-70.5 159q0 55 19 100.5t54 78t66 53t72 39.5l148 -33q-69 -34 -115.5 -83.5t-46.5 -109.5q0 -46 27.5 -69t76.5 -23q34 0 58 6v-161q-46 -17 -107 -17z" />
    <glyph glyph-name="tilde" unicode="&#x2dc;" horiz-adv-x="800" 
d="M756 1389q0 -125 -59 -188.5t-160 -63.5q-81 0 -146 45l-12 8q-4 2 -18.5 12t-22 13.5t-23 7.5t-32.5 4q-69 0 -72 -88h-168v43q0 120 62.5 184t160.5 64q62 0 148 -46l12 -8q59 -39 98 -39q68 0 68 88h164v-36z" />
    <glyph glyph-name="hungarumlaut" unicode="&#x2dd;" horiz-adv-x="811" 
d="M221 1128h-172l107 308h264zM532 1128h-174l136 308h268z" />
    <glyph glyph-name="uni0394" unicode="&#x394;" horiz-adv-x="1521" 
d="M606 1452h307l555 -1452h-1415zM444 262h633l-317 883z" />
    <glyph glyph-name="uni03A9" unicode="&#x3a9;" horiz-adv-x="1628" 
d="M815 1217q-81 0 -155 -27t-132.5 -77.5t-93.5 -130.5t-35 -177q0 -165 99.5 -275.5t240.5 -142.5v-387h-618v258h366q-163 67 -272 215t-109 350q0 147 58 272.5t156 209.5t226 131t269 47t269 -47t226 -131t156 -209.5t58 -272.5q0 -103 -31.5 -196t-86 -163.5
t-121.5 -122t-144 -83.5h366v-258h-618v387q67 15 127 49.5t109 86t77.5 125t28.5 157.5q0 97 -35 177t-93.5 130.5t-132.5 77.5t-155 27z" />
    <glyph glyph-name="uni03BC" unicode="&#x3bc;" horiz-adv-x="1175" 
d="M797 0q-9 34 -9 109q-39 -68 -115.5 -102t-162.5 -34q-64 0 -111 15v-377h-272v1397h272v-582q0 -91 46 -147t139 -56q90 0 140 54.5t50 144.5v586h273v-826q0 -117 10 -182h-260z" />
    <glyph glyph-name="pi" unicode="&#x3c0;" horiz-adv-x="1308" 
d="M1212 10q-5 -4 -21 -9.5t-50 -11t-72 -5.5q-143 0 -217 79t-74 213v498h-272v-774h-273v774h-170v234h1145v-234h-159v-461q0 -51 28 -73.5t72 -22.5q19 0 39 3t24 3v-213z" />
    <glyph glyph-name="Wgrave" unicode="&#x1e80;" horiz-adv-x="2129" 
d="M662 1815h333l213 -261h-250zM1802 1452h289l-401 -1452h-291l-332 1034l-332 -1034h-295l-403 1452h299l266 -999l322 999h293l323 -1003z" />
    <glyph glyph-name="wgrave" unicode="&#x1e81;" horiz-adv-x="1718" 
d="M1010 1008l217 -650l186 650h270l-315 -1008h-272l-236 688l-231 -688h-277l-321 1008h286l187 -648l219 648h287zM477 1436h316l184 -308h-221z" />
    <glyph glyph-name="Wacute" unicode="&#x1e82;" horiz-adv-x="2129" 
d="M1188 1554h-250l211 261h336zM1802 1452h289l-401 -1452h-291l-332 1034l-332 -1034h-295l-403 1452h299l266 -999l322 999h293l323 -1003z" />
    <glyph glyph-name="wacute" unicode="&#x1e83;" horiz-adv-x="1718" 
d="M963 1128h-220l187 308h311zM1010 1008l217 -650l186 650h270l-315 -1008h-272l-236 688l-231 -688h-277l-321 1008h286l187 -648l219 648h287z" />
    <glyph glyph-name="Wdieresis" unicode="&#x1e84;" horiz-adv-x="2129" 
d="M631 1686q0 62 42 104.5t105 42.5t106.5 -42.5t43.5 -104.5q0 -63 -43.5 -105.5t-106.5 -42.5t-105 42.5t-42 105.5zM1210 1686q0 62 42.5 104.5t103.5 42.5q63 0 106 -42.5t43 -104.5q0 -63 -43 -105.5t-106 -42.5q-62 0 -104 42.5t-42 105.5zM1802 1452h289l-401 -1452
h-291l-332 1034l-332 -1034h-295l-403 1452h299l266 -999l322 999h293l323 -1003z" />
    <glyph glyph-name="wdieresis" unicode="&#x1e85;" horiz-adv-x="1718" 
d="M485 1286q0 61 41.5 103.5t102.5 42.5q60 0 102.5 -43t42.5 -103t-42.5 -101.5t-102.5 -41.5q-61 0 -102.5 41.5t-41.5 101.5zM948 1286q0 61 41.5 103.5t102.5 42.5q60 0 101.5 -43t41.5 -103t-41.5 -101.5t-101.5 -41.5q-61 0 -102.5 41.5t-41.5 101.5zM1010 1008
l217 -650l186 650h270l-315 -1008h-272l-236 688l-231 -688h-277l-321 1008h286l187 -648l219 648h287z" />
    <glyph glyph-name="uni1E8A" unicode="&#x1e8a;" horiz-adv-x="1331" 
d="M840 725l477 -725h-342l-313 502l-316 -502h-332l478 727l-476 725h340l312 -502l317 502h330zM502 1706q0 69 48 116.5t116 47.5q69 0 117 -47.5t48 -116.5q0 -68 -48 -115t-117 -47q-68 0 -116 47.5t-48 114.5z" />
    <glyph glyph-name="uni1E8B" unicode="&#x1e8b;" horiz-adv-x="1095" 
d="M387 506l-358 502h323q17 -27 100.5 -149.5t100.5 -149.5l199 299h309l-352 -494l364 -514h-319l-211 309q-135 -193 -207 -309h-307zM385 1284q0 68 48 115t116 47t116 -47t48 -115q0 -67 -48 -113.5t-116 -46.5t-116 46.5t-48 113.5z" />
    <glyph glyph-name="uni1EA0" unicode="&#x1ea0;" horiz-adv-x="1476" 
d="M602 -334q0 61 40.5 102.5t96.5 41.5q61 0 102.5 -41t41.5 -103q0 -56 -41.5 -96.5t-102.5 -40.5q-55 0 -96 40.5t-41 96.5zM1028 332h-590l-121 -332h-299l557 1452h328l553 -1452h-307zM532 590h402l-201 549z" />
    <glyph glyph-name="uni1EA1" unicode="&#x1ea1;" horiz-adv-x="1101" 
d="M381 -334q0 61 40.5 102.5t96.5 41.5q62 0 103 -41t41 -103q0 -56 -41.5 -96.5t-102.5 -40.5q-56 0 -96.5 40.5t-40.5 96.5zM80 274q0 130 83 207t218 99l248 36q76 11 76 72q0 57 -43.5 94t-126.5 37q-86 0 -136.5 -47t-56.5 -117l-242 52q6 61 36.5 118.5t82.5 106
t133.5 77.5t179.5 29q116 0 202.5 -31t137 -85t75 -121t24.5 -146v-495q0 -90 12 -160h-250q-10 45 -10 121q-42 -66 -117 -108t-180 -42q-155 0 -250.5 90t-95.5 213zM483 174q97 0 159.5 55t62.5 179v45l-228 -35q-125 -17 -125 -127q0 -48 34.5 -82.5t96.5 -34.5z" />
    <glyph glyph-name="uni1EA2" unicode="&#x1ea2;" horiz-adv-x="1476" 
d="M911 1755q0 -88 -96 -180h-145q59 66 65 131q1 37 -20.5 52.5t-59.5 15.5q-26 0 -47 -7v146q50 6 105 6q82 -2 140 -43t58 -121zM1028 332h-590l-121 -332h-299l557 1452h328l553 -1452h-307zM532 590h402l-201 549z" />
    <glyph glyph-name="uni1EA3" unicode="&#x1ea3;" horiz-adv-x="1101" 
d="M721 1356q0 -88 -96 -180h-146q61 68 66 131q1 37 -20.5 52t-59.5 15q-29 0 -47 -6v145q58 7 104 7q82 -2 140.5 -43t58.5 -121zM80 274q0 130 83 207t218 99l248 36q76 11 76 72q0 57 -43.5 94t-126.5 37q-86 0 -136.5 -47t-56.5 -117l-242 52q6 61 36.5 118.5t82.5 106
t133.5 77.5t179.5 29q116 0 202.5 -31t137 -85t75 -121t24.5 -146v-495q0 -90 12 -160h-250q-10 45 -10 121q-42 -66 -117 -108t-180 -42q-155 0 -250.5 90t-95.5 213zM483 174q97 0 159.5 55t62.5 179v45l-228 -35q-125 -17 -125 -127q0 -48 34.5 -82.5t96.5 -34.5z" />
    <glyph glyph-name="uni1EA4" unicode="&#x1ea4;" horiz-adv-x="1476" 
d="M1184 1767h-199l121 275h264zM1028 332h-590l-121 -332h-299l557 1452h328l553 -1452h-307zM532 590h402l-201 549zM864 1829l205 -275h-211l-119 138l-116 -138h-211l204 275h248z" />
    <glyph glyph-name="uni1EA5" unicode="&#x1ea5;" horiz-adv-x="1101" 
d="M989 1368h-198l120 274h265zM80 274q0 130 83 207t218 99l248 36q76 11 76 72q0 57 -43.5 94t-126.5 37q-86 0 -136.5 -47t-56.5 -117l-242 52q6 61 36.5 118.5t82.5 106t133.5 77.5t179.5 29q116 0 202.5 -31t137 -85t75 -121t24.5 -146v-495q0 -90 12 -160h-250
q-10 45 -10 121q-42 -66 -117 -108t-180 -42q-155 0 -250.5 90t-95.5 213zM483 174q97 0 159.5 55t62.5 179v45l-228 -35q-125 -17 -125 -127q0 -48 34.5 -82.5t96.5 -34.5zM670 1430l204 -275h-210l-119 137l-117 -137h-211l205 275h248z" />
    <glyph glyph-name="uni1EA6" unicode="&#x1ea6;" horiz-adv-x="1476" 
d="M1225 1767h-199l-186 275h264zM1028 332h-590l-121 -332h-299l557 1452h328l553 -1452h-307zM532 590h402l-201 549zM864 1829l205 -275h-211l-119 138l-116 -138h-211l204 275h248z" />
    <glyph glyph-name="uni1EA7" unicode="&#x1ea7;" horiz-adv-x="1101" 
d="M1030 1368h-199l-186 274h264zM80 274q0 130 83 207t218 99l248 36q76 11 76 72q0 57 -43.5 94t-126.5 37q-86 0 -136.5 -47t-56.5 -117l-242 52q6 61 36.5 118.5t82.5 106t133.5 77.5t179.5 29q116 0 202.5 -31t137 -85t75 -121t24.5 -146v-495q0 -90 12 -160h-250
q-10 45 -10 121q-42 -66 -117 -108t-180 -42q-155 0 -250.5 90t-95.5 213zM483 174q97 0 159.5 55t62.5 179v45l-228 -35q-125 -17 -125 -127q0 -48 34.5 -82.5t96.5 -34.5zM670 1430l204 -275h-210l-119 137l-117 -137h-211l205 275h248z" />
    <glyph glyph-name="uni1EA8" unicode="&#x1ea8;" horiz-adv-x="1476" 
d="M1227 1948q0 -88 -97 -181h-145q61 68 66 131q1 37 -20.5 52.5t-59.5 15.5q-29 0 -47 -6v145q50 6 104 6q83 -2 141 -42.5t58 -120.5zM1028 332h-590l-121 -332h-299l557 1452h328l553 -1452h-307zM532 590h402l-201 549zM864 1829l205 -275h-211l-119 138l-116 -138
h-211l204 275h248z" />
    <glyph glyph-name="uni1EA9" unicode="&#x1ea9;" horiz-adv-x="1101" 
d="M1032 1548q0 -88 -96 -180h-145q59 66 65 131q1 37 -20.5 52.5t-59.5 15.5q-29 0 -47 -6v145q49 6 105 6q82 -2 140 -43t58 -121zM80 274q0 130 83 207t218 99l248 36q76 11 76 72q0 57 -43.5 94t-126.5 37q-86 0 -136.5 -47t-56.5 -117l-242 52q6 61 36.5 118.5
t82.5 106t133.5 77.5t179.5 29q116 0 202.5 -31t137 -85t75 -121t24.5 -146v-495q0 -90 12 -160h-250q-10 45 -10 121q-42 -66 -117 -108t-180 -42q-155 0 -250.5 90t-95.5 213zM483 174q97 0 159.5 55t62.5 179v45l-228 -35q-125 -17 -125 -127q0 -48 34.5 -82.5
t96.5 -34.5zM670 1430l204 -275h-210l-119 137l-117 -137h-211l205 275h248z" />
    <glyph glyph-name="uni1EAA" unicode="&#x1eaa;" horiz-adv-x="1476" 
d="M1067 2132q0 -120 -55.5 -181t-147.5 -61q-54 0 -96.5 20t-73 40t-55.5 20q-30 0 -43 -16.5t-16 -59.5h-170q0 121 56 181.5t148 60.5q54 0 97 -19.5t73.5 -39t55.5 -19.5q30 0 44 17t17 57h166zM1028 332h-590l-121 -332h-299l557 1452h328l553 -1452h-307zM532 590h402
l-201 549zM864 1829l205 -275h-211l-119 138l-116 -138h-211l204 275h248z" />
    <glyph glyph-name="uni1EAB" unicode="&#x1eab;" horiz-adv-x="1101" 
d="M872 1733q0 -120 -55 -181t-147 -61q-42 0 -79 12.5t-57.5 27.5t-45 27.5t-44.5 12.5q-30 0 -43 -16.5t-16 -59.5h-170q0 121 56 181.5t149 60.5q54 0 96.5 -19.5t73 -39t55.5 -19.5q31 0 45 17t17 57h165zM80 274q0 130 83 207t218 99l248 36q76 11 76 72q0 57 -43.5 94
t-126.5 37q-86 0 -136.5 -47t-56.5 -117l-242 52q6 61 36.5 118.5t82.5 106t133.5 77.5t179.5 29q116 0 202.5 -31t137 -85t75 -121t24.5 -146v-495q0 -90 12 -160h-250q-10 45 -10 121q-42 -66 -117 -108t-180 -42q-155 0 -250.5 90t-95.5 213zM483 174q97 0 159.5 55
t62.5 179v45l-228 -35q-125 -17 -125 -127q0 -48 34.5 -82.5t96.5 -34.5zM670 1430l204 -275h-210l-119 137l-117 -137h-211l205 275h248z" />
    <glyph glyph-name="uni1EAC" unicode="&#x1eac;" horiz-adv-x="1476" 
d="M602 -334q0 61 40.5 102.5t96.5 41.5q61 0 102.5 -41t41.5 -103q0 -56 -41.5 -96.5t-102.5 -40.5q-55 0 -96 40.5t-41 96.5zM1028 332h-590l-121 -332h-299l557 1452h328l553 -1452h-307zM532 590h402l-201 549zM864 1829l205 -275h-211l-119 138l-116 -138h-211l204 275
h248z" />
    <glyph glyph-name="uni1EAD" unicode="&#x1ead;" horiz-adv-x="1101" 
d="M381 -334q0 61 40.5 102.5t96.5 41.5q62 0 103 -41t41 -103q0 -56 -41.5 -96.5t-102.5 -40.5q-56 0 -96.5 40.5t-40.5 96.5zM80 274q0 130 83 207t218 99l248 36q76 11 76 72q0 57 -43.5 94t-126.5 37q-86 0 -136.5 -47t-56.5 -117l-242 52q6 61 36.5 118.5t82.5 106
t133.5 77.5t179.5 29q116 0 202.5 -31t137 -85t75 -121t24.5 -146v-495q0 -90 12 -160h-250q-10 45 -10 121q-42 -66 -117 -108t-180 -42q-155 0 -250.5 90t-95.5 213zM483 174q97 0 159.5 55t62.5 179v45l-228 -35q-125 -17 -125 -127q0 -48 34.5 -82.5t96.5 -34.5z
M670 1430l204 -275h-210l-119 137l-117 -137h-211l205 275h248z" />
    <glyph glyph-name="uni1EAE" unicode="&#x1eae;" horiz-adv-x="1476" 
d="M838 1868h-199l121 274h264zM1028 332h-590l-121 -332h-299l557 1452h328l553 -1452h-307zM532 590h402l-201 549zM739 1554q-156 0 -241.5 65.5t-85.5 186.5h188q3 -102 139 -102q139 0 142 102h188q0 -121 -86.5 -186.5t-243.5 -65.5z" />
    <glyph glyph-name="uni1EAF" unicode="&#x1eaf;" horiz-adv-x="1101" 
d="M643 1468h-199l121 275h264zM80 274q0 130 83 207t218 99l248 36q76 11 76 72q0 57 -43.5 94t-126.5 37q-86 0 -136.5 -47t-56.5 -117l-242 52q6 61 36.5 118.5t82.5 106t133.5 77.5t179.5 29q116 0 202.5 -31t137 -85t75 -121t24.5 -146v-495q0 -90 12 -160h-250
q-10 45 -10 121q-42 -66 -117 -108t-180 -42q-155 0 -250.5 90t-95.5 213zM483 174q97 0 159.5 55t62.5 179v45l-228 -35q-125 -17 -125 -127q0 -48 34.5 -82.5t96.5 -34.5zM545 1155q-156 0 -242 65.5t-86 186.5h189q3 -102 139 -102q138 0 141 102h188q0 -121 -86 -186.5
t-243 -65.5z" />
    <glyph glyph-name="uni1EB0" unicode="&#x1eb0;" horiz-adv-x="1476" 
d="M850 1868h-199l-186 274h264zM1028 332h-590l-121 -332h-299l557 1452h328l553 -1452h-307zM532 590h402l-201 549zM739 1554q-156 0 -241.5 65.5t-85.5 186.5h188q3 -102 139 -102q139 0 142 102h188q0 -121 -86.5 -186.5t-243.5 -65.5z" />
    <glyph glyph-name="uni1EB1" unicode="&#x1eb1;" horiz-adv-x="1101" 
d="M655 1468h-198l-187 275h265zM80 274q0 130 83 207t218 99l248 36q76 11 76 72q0 57 -43.5 94t-126.5 37q-86 0 -136.5 -47t-56.5 -117l-242 52q6 61 36.5 118.5t82.5 106t133.5 77.5t179.5 29q116 0 202.5 -31t137 -85t75 -121t24.5 -146v-495q0 -90 12 -160h-250
q-10 45 -10 121q-42 -66 -117 -108t-180 -42q-155 0 -250.5 90t-95.5 213zM483 174q97 0 159.5 55t62.5 179v45l-228 -35q-125 -17 -125 -127q0 -48 34.5 -82.5t96.5 -34.5zM545 1155q-156 0 -242 65.5t-86 186.5h189q3 -102 139 -102q138 0 141 102h188q0 -121 -86 -186.5
t-243 -65.5z" />
    <glyph glyph-name="uni1EB2" unicode="&#x1eb2;" horiz-adv-x="1476" 
d="M915 2028q0 -89 -96 -181h-145q59 66 65 131q1 37 -20.5 52.5t-59.5 15.5q-29 0 -47 -6v145q49 6 105 6q82 -2 140 -42.5t58 -120.5zM1028 332h-590l-121 -332h-299l557 1452h328l553 -1452h-307zM532 590h402l-201 549zM739 1554q-156 0 -241.5 65.5t-85.5 186.5h188
q3 -102 139 -102q139 0 142 102h188q0 -121 -86.5 -186.5t-243.5 -65.5z" />
    <glyph glyph-name="uni1EB3" unicode="&#x1eb3;" horiz-adv-x="1101" 
d="M721 1628q0 -88 -96 -180h-146q61 68 66 131q1 37 -20.5 52.5t-59.5 15.5q-26 0 -47 -7v146q50 6 104 6q82 -2 140.5 -43t58.5 -121zM80 274q0 130 83 207t218 99l248 36q76 11 76 72q0 57 -43.5 94t-126.5 37q-86 0 -136.5 -47t-56.5 -117l-242 52q6 61 36.5 118.5
t82.5 106t133.5 77.5t179.5 29q116 0 202.5 -31t137 -85t75 -121t24.5 -146v-495q0 -90 12 -160h-250q-10 45 -10 121q-42 -66 -117 -108t-180 -42q-155 0 -250.5 90t-95.5 213zM483 174q97 0 159.5 55t62.5 179v45l-228 -35q-125 -17 -125 -127q0 -48 34.5 -82.5
t96.5 -34.5zM545 1155q-156 0 -242 65.5t-86 186.5h189q3 -102 139 -102q138 0 141 102h188q0 -121 -86 -186.5t-243 -65.5z" />
    <glyph glyph-name="uni1EB4" unicode="&#x1eb4;" horiz-adv-x="1476" 
d="M1069 2109q0 -120 -55.5 -180.5t-147.5 -60.5q-54 0 -96.5 20t-73 40t-55.5 20q-30 0 -43 -16.5t-16 -59.5h-170q0 121 56 181.5t148 60.5q54 0 97 -19.5t73.5 -39t55.5 -19.5q31 0 44.5 16.5t16.5 56.5h166zM1028 332h-590l-121 -332h-299l557 1452h328l553 -1452h-307z
M532 590h402l-201 549zM739 1554q-156 0 -241.5 65.5t-85.5 186.5h188q3 -102 139 -102q139 0 142 102h188q0 -121 -86.5 -186.5t-243.5 -65.5z" />
    <glyph glyph-name="uni1EB5" unicode="&#x1eb5;" horiz-adv-x="1101" 
d="M874 1710q0 -120 -55 -181t-147 -61q-42 0 -79 12.5t-57.5 27.5t-45 27.5t-44.5 12.5q-30 0 -43 -16t-16 -59h-170q0 121 56 181t149 60q54 0 96.5 -19.5t73 -39t55.5 -19.5q31 0 45 17t17 57h165zM80 274q0 130 83 207t218 99l248 36q76 11 76 72q0 57 -43.5 94
t-126.5 37q-86 0 -136.5 -47t-56.5 -117l-242 52q6 61 36.5 118.5t82.5 106t133.5 77.5t179.5 29q116 0 202.5 -31t137 -85t75 -121t24.5 -146v-495q0 -90 12 -160h-250q-10 45 -10 121q-42 -66 -117 -108t-180 -42q-155 0 -250.5 90t-95.5 213zM483 174q97 0 159.5 55
t62.5 179v45l-228 -35q-125 -17 -125 -127q0 -48 34.5 -82.5t96.5 -34.5zM545 1155q-156 0 -242 65.5t-86 186.5h189q3 -102 139 -102q138 0 141 102h188q0 -121 -86 -186.5t-243 -65.5z" />
    <glyph glyph-name="uni1EB6" unicode="&#x1eb6;" horiz-adv-x="1476" 
d="M602 -334q0 61 40.5 102.5t96.5 41.5q61 0 102.5 -41t41.5 -103q0 -56 -41.5 -96.5t-102.5 -40.5q-55 0 -96 40.5t-41 96.5zM1028 332h-590l-121 -332h-299l557 1452h328l553 -1452h-307zM532 590h402l-201 549zM739 1554q-156 0 -241.5 65.5t-85.5 186.5h188
q3 -102 139 -102q139 0 142 102h188q0 -121 -86.5 -186.5t-243.5 -65.5z" />
    <glyph glyph-name="uni1EB7" unicode="&#x1eb7;" horiz-adv-x="1101" 
d="M381 -334q0 61 40.5 102.5t96.5 41.5q62 0 103 -41t41 -103q0 -56 -41.5 -96.5t-102.5 -40.5q-56 0 -96.5 40.5t-40.5 96.5zM80 274q0 130 83 207t218 99l248 36q76 11 76 72q0 57 -43.5 94t-126.5 37q-86 0 -136.5 -47t-56.5 -117l-242 52q6 61 36.5 118.5t82.5 106
t133.5 77.5t179.5 29q116 0 202.5 -31t137 -85t75 -121t24.5 -146v-495q0 -90 12 -160h-250q-10 45 -10 121q-42 -66 -117 -108t-180 -42q-155 0 -250.5 90t-95.5 213zM483 174q97 0 159.5 55t62.5 179v45l-228 -35q-125 -17 -125 -127q0 -48 34.5 -82.5t96.5 -34.5z
M545 1155q-156 0 -242 65.5t-86 186.5h189q3 -102 139 -102q138 0 141 102h188q0 -121 -86 -186.5t-243 -65.5z" />
    <glyph glyph-name="uni1EB8" unicode="&#x1eb8;" horiz-adv-x="1185" 
d="M475 -334q0 61 40.5 102.5t96.5 41.5q62 0 103 -41t41 -103q0 -56 -41.5 -96.5t-102.5 -40.5q-56 0 -96.5 40.5t-40.5 96.5zM170 0v1452h909v-266h-626v-332h567v-252h-567v-336h626v-266h-909z" />
    <glyph glyph-name="uni1EB9" unicode="&#x1eb9;" horiz-adv-x="1153" 
d="M440 -334q0 61 41 102.5t97 41.5q61 0 102 -41t41 -103q0 -56 -41 -96.5t-102 -40.5q-56 0 -97 41t-41 96zM805 618q-5 83 -60.5 141t-164.5 58q-99 0 -160 -62t-66 -137h451zM1059 289q-39 -139 -160.5 -229.5t-298.5 -90.5q-141 0 -258 62.5t-189.5 187t-72.5 289.5
q0 117 41 218t109.5 168.5t158 105.5t186.5 38q234 0 366 -138.5t132 -383.5q0 -17 -1 -36.5t-2 -32.5t-1 -15h-721q4 -98 78 -163.5t176 -65.5q173 0 229 153z" />
    <glyph glyph-name="uni1EBA" unicode="&#x1eba;" horiz-adv-x="1185" 
d="M807 1755q0 -88 -96 -180h-146q61 68 66 131q1 37 -20.5 52.5t-59.5 15.5q-26 0 -47 -7v146q49 6 104 6q82 -2 140.5 -43t58.5 -121zM170 0v1452h909v-266h-626v-332h567v-252h-567v-336h626v-266h-909z" />
    <glyph glyph-name="uni1EBB" unicode="&#x1ebb;" horiz-adv-x="1153" 
d="M776 1356q0 -88 -96 -180h-145q59 66 65 131q1 37 -20.5 52t-59.5 15q-29 0 -47 -6v145q58 7 105 7q82 -2 140 -43t58 -121zM805 618q-5 83 -60.5 141t-164.5 58q-99 0 -160 -62t-66 -137h451zM1059 289q-39 -139 -160.5 -229.5t-298.5 -90.5q-141 0 -258 62.5
t-189.5 187t-72.5 289.5q0 117 41 218t109.5 168.5t158 105.5t186.5 38q234 0 366 -138.5t132 -383.5q0 -17 -1 -36.5t-2 -32.5t-1 -15h-721q4 -98 78 -163.5t176 -65.5q173 0 229 153z" />
    <glyph glyph-name="uni1EBC" unicode="&#x1ebc;" horiz-adv-x="1185" 
d="M942 1817q0 -120 -55.5 -181t-147.5 -61q-54 0 -96.5 20t-73 40t-55.5 20q-30 0 -43 -16.5t-16 -59.5h-170q0 121 56 181.5t148 60.5q54 0 97 -19.5t73.5 -39t55.5 -19.5q30 0 44 17t17 57h166zM170 0v1452h909v-266h-626v-332h567v-252h-567v-336h626v-266h-909z" />
    <glyph glyph-name="uni1EBD" unicode="&#x1ebd;" horiz-adv-x="1153" 
d="M913 1417q0 -120 -55 -180.5t-147 -60.5q-54 0 -97 20t-73.5 39.5t-55.5 19.5q-30 0 -43 -16t-16 -59h-170q0 121 56 181t149 60q54 0 96.5 -19.5t73 -39t55.5 -19.5q31 0 45 17t17 57h165zM805 618q-5 83 -60.5 141t-164.5 58q-99 0 -160 -62t-66 -137h451zM1059 289
q-39 -139 -160.5 -229.5t-298.5 -90.5q-141 0 -258 62.5t-189.5 187t-72.5 289.5q0 117 41 218t109.5 168.5t158 105.5t186.5 38q234 0 366 -138.5t132 -383.5q0 -17 -1 -36.5t-2 -32.5t-1 -15h-721q4 -98 78 -163.5t176 -65.5q173 0 229 153z" />
    <glyph glyph-name="uni1EBE" unicode="&#x1ebe;" horiz-adv-x="1185" 
d="M1057 1767h-199l121 275h264zM170 0v1452h909v-266h-626v-332h567v-252h-567v-336h626v-266h-909zM737 1829l205 -275h-211l-119 138l-116 -138h-211l204 275h248z" />
    <glyph glyph-name="uni1EBF" unicode="&#x1ebf;" horiz-adv-x="1153" 
d="M1028 1368h-199l121 274h264zM805 618q-5 83 -60.5 141t-164.5 58q-99 0 -160 -62t-66 -137h451zM1059 289q-39 -139 -160.5 -229.5t-298.5 -90.5q-141 0 -258 62.5t-189.5 187t-72.5 289.5q0 117 41 218t109.5 168.5t158 105.5t186.5 38q234 0 366 -138.5t132 -383.5
q0 -17 -1 -36.5t-2 -32.5t-1 -15h-721q4 -98 78 -163.5t176 -65.5q173 0 229 153zM709 1430l204 -275h-211l-118 137l-117 -137h-211l205 275h248z" />
    <glyph glyph-name="uni1EC0" unicode="&#x1ec0;" horiz-adv-x="1185" 
d="M1098 1767h-199l-186 275h264zM170 0v1452h909v-266h-626v-332h567v-252h-567v-336h626v-266h-909zM737 1829l205 -275h-211l-119 138l-116 -138h-211l204 275h248z" />
    <glyph glyph-name="uni1EC1" unicode="&#x1ec1;" horiz-adv-x="1153" 
d="M1069 1368h-199l-186 274h264zM805 618q-5 83 -60.5 141t-164.5 58q-99 0 -160 -62t-66 -137h451zM1059 289q-39 -139 -160.5 -229.5t-298.5 -90.5q-141 0 -258 62.5t-189.5 187t-72.5 289.5q0 117 41 218t109.5 168.5t158 105.5t186.5 38q234 0 366 -138.5t132 -383.5
q0 -17 -1 -36.5t-2 -32.5t-1 -15h-721q4 -98 78 -163.5t176 -65.5q173 0 229 153zM709 1430l204 -275h-211l-118 137l-117 -137h-211l205 275h248z" />
    <glyph glyph-name="uni1EC2" unicode="&#x1ec2;" horiz-adv-x="1185" 
d="M1100 1948q0 -89 -96 -181h-146q61 68 66 131q1 37 -20.5 52.5t-59.5 15.5q-29 0 -47 -6v145q49 6 104 6q83 -2 141 -42.5t58 -120.5zM170 0v1452h909v-266h-626v-332h567v-252h-567v-336h626v-266h-909zM737 1829l205 -275h-211l-119 138l-116 -138h-211l204 275h248z
" />
    <glyph glyph-name="uni1EC3" unicode="&#x1ec3;" horiz-adv-x="1153" 
d="M1071 1548q0 -88 -96 -180h-146q61 68 66 131q1 37 -20.5 52.5t-59.5 15.5q-29 0 -47 -6v145q49 6 104 6q82 -2 140.5 -43t58.5 -121zM805 618q-5 83 -60.5 141t-164.5 58q-99 0 -160 -62t-66 -137h451zM1059 289q-39 -139 -160.5 -229.5t-298.5 -90.5q-141 0 -258 62.5
t-189.5 187t-72.5 289.5q0 117 41 218t109.5 168.5t158 105.5t186.5 38q234 0 366 -138.5t132 -383.5q0 -17 -1 -36.5t-2 -32.5t-1 -15h-721q4 -98 78 -163.5t176 -65.5q173 0 229 153zM709 1430l204 -275h-211l-118 137l-117 -137h-211l205 275h248z" />
    <glyph glyph-name="uni1EC4" unicode="&#x1ec4;" horiz-adv-x="1185" 
d="M940 2132q0 -120 -55.5 -181t-147.5 -61q-54 0 -96.5 20t-73 40t-55.5 20q-30 0 -43 -16.5t-16 -59.5h-170q0 121 56 181.5t148 60.5q54 0 97 -19.5t73.5 -39t55.5 -19.5q30 0 44 17t17 57h166zM170 0v1452h909v-266h-626v-332h567v-252h-567v-336h626v-266h-909z
M737 1829l205 -275h-211l-119 138l-116 -138h-211l204 275h248z" />
    <glyph glyph-name="uni1EC5" unicode="&#x1ec5;" horiz-adv-x="1153" 
d="M911 1733q0 -120 -55 -181t-147 -61q-42 0 -79 12.5t-57.5 27.5t-45 27.5t-44.5 12.5q-30 0 -43 -16.5t-16 -59.5h-170q0 121 56 181.5t149 60.5q54 0 96.5 -19.5t73 -39t55.5 -19.5q30 0 44 17t17 57h166zM805 618q-5 83 -60.5 141t-164.5 58q-99 0 -160 -62t-66 -137
h451zM1059 289q-39 -139 -160.5 -229.5t-298.5 -90.5q-141 0 -258 62.5t-189.5 187t-72.5 289.5q0 117 41 218t109.5 168.5t158 105.5t186.5 38q234 0 366 -138.5t132 -383.5q0 -17 -1 -36.5t-2 -32.5t-1 -15h-721q4 -98 78 -163.5t176 -65.5q173 0 229 153zM709 1430
l204 -275h-211l-118 137l-117 -137h-211l205 275h248z" />
    <glyph glyph-name="uni1EC6" unicode="&#x1ec6;" horiz-adv-x="1185" 
d="M475 -334q0 61 40.5 102.5t96.5 41.5q62 0 103 -41t41 -103q0 -56 -41.5 -96.5t-102.5 -40.5q-56 0 -96.5 40.5t-40.5 96.5zM170 0v1452h909v-266h-626v-332h567v-252h-567v-336h626v-266h-909zM737 1829l205 -275h-211l-119 138l-116 -138h-211l204 275h248z" />
    <glyph glyph-name="uni1EC7" unicode="&#x1ec7;" horiz-adv-x="1153" 
d="M440 -334q0 61 41 102.5t97 41.5q61 0 102 -41t41 -103q0 -56 -41 -96.5t-102 -40.5q-56 0 -97 41t-41 96zM805 618q-5 83 -60.5 141t-164.5 58q-99 0 -160 -62t-66 -137h451zM1059 289q-39 -139 -160.5 -229.5t-298.5 -90.5q-141 0 -258 62.5t-189.5 187t-72.5 289.5
q0 117 41 218t109.5 168.5t158 105.5t186.5 38q234 0 366 -138.5t132 -383.5q0 -17 -1 -36.5t-2 -32.5t-1 -15h-721q4 -98 78 -163.5t176 -65.5q173 0 229 153zM709 1430l204 -275h-211l-118 137l-117 -137h-211l205 275h248z" />
    <glyph glyph-name="uni1EC8" unicode="&#x1ec8;" horiz-adv-x="626" 
d="M485 1755q0 -88 -96 -180h-145q59 66 65 131q1 37 -20.5 52.5t-59.5 15.5q-26 0 -47 -7v146q49 6 105 6q82 -2 140 -43t58 -121zM170 0v1452h287v-1452h-287z" />
    <glyph glyph-name="uni1EC9" unicode="&#x1ec9;" horiz-adv-x="550" 
d="M442 1356q0 -88 -96 -180h-145q59 66 65 131q1 37 -20.5 52t-59.5 15q-29 0 -47 -6v145q58 7 105 7q82 -2 140 -43t58 -121zM139 0v1008h273v-1008h-273z" />
    <glyph glyph-name="uni1ECA" unicode="&#x1eca;" horiz-adv-x="626" 
d="M176 -334q0 61 40.5 102.5t96.5 41.5q61 0 102.5 -41t41.5 -103q0 -56 -41.5 -96.5t-102.5 -40.5q-55 0 -96 40.5t-41 96.5zM170 0v1452h287v-1452h-287z" />
    <glyph glyph-name="uni1ECB" unicode="&#x1ecb;" horiz-adv-x="550" 
d="M139 -334q0 61 40.5 102.5t96.5 41.5q62 0 103 -41t41 -103q0 -56 -41.5 -96.5t-102.5 -40.5q-56 0 -96.5 40.5t-40.5 96.5zM139 0v1008h273v-1008h-273zM131 1323q0 64 42 107t101 43q64 0 107 -42.5t43 -107.5q0 -59 -43 -101t-107 -42q-58 0 -100.5 42t-42.5 101z" />
    <glyph glyph-name="uni1ECC" unicode="&#x1ecc;" horiz-adv-x="1660" 
d="M692 -334q0 61 40.5 102.5t96.5 41.5q61 0 102.5 -41t41.5 -103q0 -56 -41.5 -96.5t-102.5 -40.5q-55 0 -96 40.5t-41 96.5zM377 727q0 -118 39 -213t104 -152.5t144 -87.5t165 -30q69 0 134 18.5t123.5 57.5t102 95t69.5 136.5t26 175.5t-26 175.5t-69.5 136.5t-102 95
t-123.5 57.5t-134 18.5q-86 0 -165 -30t-144 -87.5t-104 -152.5t-39 -213zM84 725q0 171 61 315.5t164 240t237.5 149t282.5 53.5t283.5 -53.5t238.5 -149t164.5 -240t61.5 -315.5q0 -170 -61.5 -314t-164.5 -239.5t-238.5 -149t-283.5 -53.5t-282.5 53.5t-237.5 149
t-164 239.5t-61 314z" />
    <glyph glyph-name="uni1ECD" unicode="&#x1ecd;" horiz-adv-x="1212" 
d="M463 -334q0 61 40.5 102.5t96.5 41.5q61 0 102 -41t41 -103q0 -56 -41 -96.5t-102 -40.5q-56 0 -96.5 40.5t-40.5 96.5zM606 217q106 0 181 76.5t75 210.5t-75 210.5t-181 76.5t-181 -76.5t-75 -210.5t75 -210.5t181 -76.5zM606 1038q228 0 378.5 -151t150.5 -383
q0 -231 -150.5 -383t-378.5 -152t-378 152t-150 383q0 232 150 383t378 151z" />
    <glyph glyph-name="uni1ECE" unicode="&#x1ece;" horiz-adv-x="1660" 
d="M1026 1755q0 -88 -96 -180h-146q61 68 66 131q1 37 -20.5 52.5t-59.5 15.5q-26 0 -47 -7v146q50 6 104 6q82 -2 140.5 -43t58.5 -121zM377 727q0 -118 39 -213t104 -152.5t144 -87.5t165 -30q69 0 134 18.5t123.5 57.5t102 95t69.5 136.5t26 175.5t-26 175.5t-69.5 136.5
t-102 95t-123.5 57.5t-134 18.5q-86 0 -165 -30t-144 -87.5t-104 -152.5t-39 -213zM84 725q0 171 61 315.5t164 240t237.5 149t282.5 53.5t283.5 -53.5t238.5 -149t164.5 -240t61.5 -315.5q0 -170 -61.5 -314t-164.5 -239.5t-238.5 -149t-283.5 -53.5t-282.5 53.5
t-237.5 149t-164 239.5t-61 314z" />
    <glyph glyph-name="uni1ECF" unicode="&#x1ecf;" horiz-adv-x="1212" 
d="M803 1356q0 -88 -96 -180h-146q61 68 66 131q1 37 -20.5 52t-59.5 15q-29 0 -47 -6v145q58 7 104 7q82 -2 140.5 -43t58.5 -121zM606 217q106 0 181 76.5t75 210.5t-75 210.5t-181 76.5t-181 -76.5t-75 -210.5t75 -210.5t181 -76.5zM606 1038q228 0 378.5 -151
t150.5 -383q0 -231 -150.5 -383t-378.5 -152t-378 152t-150 383q0 232 150 383t378 151z" />
    <glyph glyph-name="uni1ED0" unicode="&#x1ed0;" horiz-adv-x="1660" 
d="M1274 1767h-199l121 275h264zM377 727q0 -118 39 -213t104 -152.5t144 -87.5t165 -30q69 0 134 18.5t123.5 57.5t102 95t69.5 136.5t26 175.5t-26 175.5t-69.5 136.5t-102 95t-123.5 57.5t-134 18.5q-86 0 -165 -30t-144 -87.5t-104 -152.5t-39 -213zM84 725
q0 171 61 315.5t164 240t237.5 149t282.5 53.5t283.5 -53.5t238.5 -149t164.5 -240t61.5 -315.5q0 -170 -61.5 -314t-164.5 -239.5t-238.5 -149t-283.5 -53.5t-282.5 53.5t-237.5 149t-164 239.5t-61 314zM954 1829l205 -275h-211l-119 138l-116 -138h-211l205 275h247z" />
    <glyph glyph-name="uni1ED1" unicode="&#x1ed1;" horiz-adv-x="1212" 
d="M1051 1368h-199l121 274h264zM606 217q106 0 181 76.5t75 210.5t-75 210.5t-181 76.5t-181 -76.5t-75 -210.5t75 -210.5t181 -76.5zM606 1038q228 0 378.5 -151t150.5 -383q0 -231 -150.5 -383t-378.5 -152t-378 152t-150 383q0 232 150 383t378 151zM731 1430l205 -275
h-211l-119 137l-117 -137h-210l204 275h248z" />
    <glyph glyph-name="uni1ED2" unicode="&#x1ed2;" horiz-adv-x="1660" 
d="M1315 1767h-199l-186 275h264zM377 727q0 -118 39 -213t104 -152.5t144 -87.5t165 -30q69 0 134 18.5t123.5 57.5t102 95t69.5 136.5t26 175.5t-26 175.5t-69.5 136.5t-102 95t-123.5 57.5t-134 18.5q-86 0 -165 -30t-144 -87.5t-104 -152.5t-39 -213zM84 725
q0 171 61 315.5t164 240t237.5 149t282.5 53.5t283.5 -53.5t238.5 -149t164.5 -240t61.5 -315.5q0 -170 -61.5 -314t-164.5 -239.5t-238.5 -149t-283.5 -53.5t-282.5 53.5t-237.5 149t-164 239.5t-61 314zM954 1829l205 -275h-211l-119 138l-116 -138h-211l205 275h247z" />
    <glyph glyph-name="uni1ED3" unicode="&#x1ed3;" horiz-adv-x="1212" 
d="M1092 1368h-199l-186 274h264zM606 217q106 0 181 76.5t75 210.5t-75 210.5t-181 76.5t-181 -76.5t-75 -210.5t75 -210.5t181 -76.5zM606 1038q228 0 378.5 -151t150.5 -383q0 -231 -150.5 -383t-378.5 -152t-378 152t-150 383q0 232 150 383t378 151zM731 1430l205 -275
h-211l-119 137l-117 -137h-210l204 275h248z" />
    <glyph glyph-name="uni1ED4" unicode="&#x1ed4;" horiz-adv-x="1660" 
d="M1317 1948q0 -89 -96 -181h-146q61 68 66 131q1 37 -20.5 52.5t-59.5 15.5q-29 0 -47 -6v145q50 6 104 6q83 -2 141 -42.5t58 -120.5zM377 727q0 -118 39 -213t104 -152.5t144 -87.5t165 -30q69 0 134 18.5t123.5 57.5t102 95t69.5 136.5t26 175.5t-26 175.5t-69.5 136.5
t-102 95t-123.5 57.5t-134 18.5q-86 0 -165 -30t-144 -87.5t-104 -152.5t-39 -213zM84 725q0 171 61 315.5t164 240t237.5 149t282.5 53.5t283.5 -53.5t238.5 -149t164.5 -240t61.5 -315.5q0 -170 -61.5 -314t-164.5 -239.5t-238.5 -149t-283.5 -53.5t-282.5 53.5
t-237.5 149t-164 239.5t-61 314zM954 1829l205 -275h-211l-119 138l-116 -138h-211l205 275h247z" />
    <glyph glyph-name="uni1ED5" unicode="&#x1ed5;" horiz-adv-x="1212" 
d="M1094 1548q0 -87 -97 -180h-145q61 68 66 131q1 37 -20.5 52.5t-59.5 15.5q-29 0 -47 -6v145q50 6 104 6q82 -2 140.5 -43t58.5 -121zM606 217q106 0 181 76.5t75 210.5t-75 210.5t-181 76.5t-181 -76.5t-75 -210.5t75 -210.5t181 -76.5zM606 1038q228 0 378.5 -151
t150.5 -383q0 -231 -150.5 -383t-378.5 -152t-378 152t-150 383q0 232 150 383t378 151zM731 1430l205 -275h-211l-119 137l-117 -137h-210l204 275h248z" />
    <glyph glyph-name="uni1ED6" unicode="&#x1ed6;" horiz-adv-x="1660" 
d="M1157 2132q0 -120 -55.5 -181t-147.5 -61q-54 0 -96.5 20t-73 40t-55.5 20q-30 0 -43 -16.5t-16 -59.5h-170q0 121 56 181.5t149 60.5q54 0 96.5 -19.5t73 -39t55.5 -19.5q30 0 44 17t17 57h166zM377 727q0 -118 39 -213t104 -152.5t144 -87.5t165 -30q69 0 134 18.5
t123.5 57.5t102 95t69.5 136.5t26 175.5t-26 175.5t-69.5 136.5t-102 95t-123.5 57.5t-134 18.5q-86 0 -165 -30t-144 -87.5t-104 -152.5t-39 -213zM84 725q0 171 61 315.5t164 240t237.5 149t282.5 53.5t283.5 -53.5t238.5 -149t164.5 -240t61.5 -315.5q0 -170 -61.5 -314
t-164.5 -239.5t-238.5 -149t-283.5 -53.5t-282.5 53.5t-237.5 149t-164 239.5t-61 314zM954 1829l205 -275h-211l-119 138l-116 -138h-211l205 275h247z" />
    <glyph glyph-name="uni1ED7" unicode="&#x1ed7;" horiz-adv-x="1212" 
d="M934 1733q0 -120 -55.5 -181t-147.5 -61q-54 0 -96.5 20t-73 40t-55.5 20q-30 0 -43.5 -16.5t-16.5 -59.5h-170q0 121 56 181.5t149 60.5q54 0 97 -19.5t73.5 -39t55.5 -19.5q30 0 44 17t17 57h166zM606 217q106 0 181 76.5t75 210.5t-75 210.5t-181 76.5t-181 -76.5
t-75 -210.5t75 -210.5t181 -76.5zM606 1038q228 0 378.5 -151t150.5 -383q0 -231 -150.5 -383t-378.5 -152t-378 152t-150 383q0 232 150 383t378 151zM731 1430l205 -275h-211l-119 137l-117 -137h-210l204 275h248z" />
    <glyph glyph-name="uni1ED8" unicode="&#x1ed8;" horiz-adv-x="1660" 
d="M692 -334q0 61 40.5 102.5t96.5 41.5q61 0 102.5 -41t41.5 -103q0 -56 -41.5 -96.5t-102.5 -40.5q-55 0 -96 40.5t-41 96.5zM377 727q0 -118 39 -213t104 -152.5t144 -87.5t165 -30q69 0 134 18.5t123.5 57.5t102 95t69.5 136.5t26 175.5t-26 175.5t-69.5 136.5t-102 95
t-123.5 57.5t-134 18.5q-86 0 -165 -30t-144 -87.5t-104 -152.5t-39 -213zM84 725q0 171 61 315.5t164 240t237.5 149t282.5 53.5t283.5 -53.5t238.5 -149t164.5 -240t61.5 -315.5q0 -170 -61.5 -314t-164.5 -239.5t-238.5 -149t-283.5 -53.5t-282.5 53.5t-237.5 149
t-164 239.5t-61 314zM954 1829l205 -275h-211l-119 138l-116 -138h-211l205 275h247z" />
    <glyph glyph-name="uni1ED9" unicode="&#x1ed9;" horiz-adv-x="1212" 
d="M463 -334q0 61 40.5 102.5t96.5 41.5q61 0 102 -41t41 -103q0 -56 -41 -96.5t-102 -40.5q-56 0 -96.5 40.5t-40.5 96.5zM606 217q106 0 181 76.5t75 210.5t-75 210.5t-181 76.5t-181 -76.5t-75 -210.5t75 -210.5t181 -76.5zM606 1038q228 0 378.5 -151t150.5 -383
q0 -231 -150.5 -383t-378.5 -152t-378 152t-150 383q0 232 150 383t378 151zM731 1430l205 -275h-211l-119 137l-117 -137h-210l204 275h248z" />
    <glyph glyph-name="uni1EDA" unicode="&#x1eda;" horiz-adv-x="1660" 
d="M920 1575h-199l121 274h264zM84 725q0 171 61 315.5t164 240t237.5 149t282.5 53.5q84 0 158.5 -15.5t97.5 -15.5q72 0 108 48.5t36 121.5h215q0 -217 -187 -268q148 -99 234 -260.5t86 -368.5q0 -170 -61.5 -314t-164.5 -239.5t-238.5 -149t-283.5 -53.5t-282.5 53.5
t-237.5 149t-164 239.5t-61 314zM377 727q0 -118 39 -213t104 -152.5t144 -87.5t165 -30q69 0 134 18.5t123.5 57.5t102 95t69.5 136.5t26 175.5t-26 175.5t-69.5 136.5t-102 95t-123.5 57.5t-134 18.5q-86 0 -165 -30t-144 -87.5t-104 -152.5t-39 -213z" />
    <glyph glyph-name="uni1EDB" unicode="&#x1edb;" horiz-adv-x="1212" 
d="M698 1176h-198l121 274h264zM606 1038q96 0 182 -30q61 9 91 55.5t30 114.5h215q0 -208 -170 -265q86 -71 133.5 -177t47.5 -232q0 -231 -150.5 -383t-378.5 -152t-378 152t-150 383q0 232 150 383t378 151zM606 217q106 0 181 76.5t75 210.5t-75 210.5t-181 76.5
t-181 -76.5t-75 -210.5t75 -210.5t181 -76.5z" />
    <glyph glyph-name="uni1EDC" unicode="&#x1edc;" horiz-adv-x="1660" 
d="M924 1575h-199l-186 274h264zM84 725q0 171 61 315.5t164 240t237.5 149t282.5 53.5q84 0 158.5 -15.5t97.5 -15.5q72 0 108 48.5t36 121.5h215q0 -217 -187 -268q148 -99 234 -260.5t86 -368.5q0 -170 -61.5 -314t-164.5 -239.5t-238.5 -149t-283.5 -53.5t-282.5 53.5
t-237.5 149t-164 239.5t-61 314zM377 727q0 -118 39 -213t104 -152.5t144 -87.5t165 -30q69 0 134 18.5t123.5 57.5t102 95t69.5 136.5t26 175.5t-26 175.5t-69.5 136.5t-102 95t-123.5 57.5t-134 18.5q-86 0 -165 -30t-144 -87.5t-104 -152.5t-39 -213z" />
    <glyph glyph-name="uni1EDD" unicode="&#x1edd;" horiz-adv-x="1212" 
d="M711 1176h-199l-186 274h264zM606 1038q96 0 182 -30q61 9 91 55.5t30 114.5h215q0 -208 -170 -265q86 -71 133.5 -177t47.5 -232q0 -231 -150.5 -383t-378.5 -152t-378 152t-150 383q0 232 150 383t378 151zM606 217q106 0 181 76.5t75 210.5t-75 210.5t-181 76.5
t-181 -76.5t-75 -210.5t75 -210.5t181 -76.5z" />
    <glyph glyph-name="uni1EDE" unicode="&#x1ede;" horiz-adv-x="1660" 
d="M1026 1755q0 -88 -96 -180h-146q61 68 66 131q1 37 -20.5 52.5t-59.5 15.5q-26 0 -47 -7v146q50 6 104 6q82 -2 140.5 -43t58.5 -121zM84 725q0 171 61 315.5t164 240t237.5 149t282.5 53.5q84 0 158.5 -15.5t97.5 -15.5q72 0 108 48.5t36 121.5h215q0 -217 -187 -268
q148 -99 234 -260.5t86 -368.5q0 -170 -61.5 -314t-164.5 -239.5t-238.5 -149t-283.5 -53.5t-282.5 53.5t-237.5 149t-164 239.5t-61 314zM377 727q0 -118 39 -213t104 -152.5t144 -87.5t165 -30q69 0 134 18.5t123.5 57.5t102 95t69.5 136.5t26 175.5t-26 175.5
t-69.5 136.5t-102 95t-123.5 57.5t-134 18.5q-86 0 -165 -30t-144 -87.5t-104 -152.5t-39 -213z" />
    <glyph glyph-name="uni1EDF" unicode="&#x1edf;" horiz-adv-x="1212" 
d="M803 1356q0 -88 -96 -180h-146q61 68 66 131q1 37 -20.5 52t-59.5 15q-29 0 -47 -6v145q58 7 104 7q82 -2 140.5 -43t58.5 -121zM606 1038q96 0 182 -30q61 9 91 55.5t30 114.5h215q0 -208 -170 -265q86 -71 133.5 -177t47.5 -232q0 -231 -150.5 -383t-378.5 -152
t-378 152t-150 383q0 232 150 383t378 151zM606 217q106 0 181 76.5t75 210.5t-75 210.5t-181 76.5t-181 -76.5t-75 -210.5t75 -210.5t181 -76.5z" />
    <glyph glyph-name="uni1EE0" unicode="&#x1ee0;" horiz-adv-x="1660" 
d="M1155 1817q0 -120 -55.5 -181t-147.5 -61q-54 0 -96.5 20t-73 40t-55.5 20q-30 0 -43 -16.5t-16 -59.5h-170q0 121 56 181.5t148 60.5q54 0 97 -19.5t73.5 -39t55.5 -19.5q30 0 44 17t17 57h166zM84 725q0 171 61 315.5t164 240t237.5 149t282.5 53.5q84 0 158.5 -15.5
t97.5 -15.5q72 0 108 48.5t36 121.5h215q0 -217 -187 -268q148 -99 234 -260.5t86 -368.5q0 -170 -61.5 -314t-164.5 -239.5t-238.5 -149t-283.5 -53.5t-282.5 53.5t-237.5 149t-164 239.5t-61 314zM377 727q0 -118 39 -213t104 -152.5t144 -87.5t165 -30q69 0 134 18.5
t123.5 57.5t102 95t69.5 136.5t26 175.5t-26 175.5t-69.5 136.5t-102 95t-123.5 57.5t-134 18.5q-86 0 -165 -30t-144 -87.5t-104 -152.5t-39 -213z" />
    <glyph glyph-name="uni1EE1" unicode="&#x1ee1;" horiz-adv-x="1212" 
d="M936 1417q0 -120 -55.5 -180.5t-147.5 -60.5q-54 0 -96.5 20t-73 39.5t-55.5 19.5q-30 0 -43 -16t-16 -59h-170q0 121 55.5 181t148.5 60q54 0 97 -19.5t73.5 -39t55.5 -19.5q30 0 44 17t17 57h166zM606 1038q96 0 182 -30q61 9 91 55.5t30 114.5h215q0 -208 -170 -265
q86 -71 133.5 -177t47.5 -232q0 -231 -150.5 -383t-378.5 -152t-378 152t-150 383q0 232 150 383t378 151zM606 217q106 0 181 76.5t75 210.5t-75 210.5t-181 76.5t-181 -76.5t-75 -210.5t75 -210.5t181 -76.5z" />
    <glyph glyph-name="uni1EE2" unicode="&#x1ee2;" horiz-adv-x="1660" 
d="M692 -334q0 61 40.5 102.5t96.5 41.5q61 0 102.5 -41t41.5 -103q0 -56 -41.5 -96.5t-102.5 -40.5q-55 0 -96 40.5t-41 96.5zM84 725q0 171 61 315.5t164 240t237.5 149t282.5 53.5q84 0 158.5 -15.5t97.5 -15.5q72 0 108 48.5t36 121.5h215q0 -217 -187 -268
q148 -99 234 -260.5t86 -368.5q0 -170 -61.5 -314t-164.5 -239.5t-238.5 -149t-283.5 -53.5t-282.5 53.5t-237.5 149t-164 239.5t-61 314zM377 727q0 -118 39 -213t104 -152.5t144 -87.5t165 -30q69 0 134 18.5t123.5 57.5t102 95t69.5 136.5t26 175.5t-26 175.5
t-69.5 136.5t-102 95t-123.5 57.5t-134 18.5q-86 0 -165 -30t-144 -87.5t-104 -152.5t-39 -213z" />
    <glyph glyph-name="uni1EE3" unicode="&#x1ee3;" horiz-adv-x="1212" 
d="M463 -334q0 61 40.5 102.5t96.5 41.5q61 0 102 -41t41 -103q0 -56 -41 -96.5t-102 -40.5q-56 0 -96.5 40.5t-40.5 96.5zM606 1038q96 0 182 -30q61 9 91 55.5t30 114.5h215q0 -208 -170 -265q86 -71 133.5 -177t47.5 -232q0 -231 -150.5 -383t-378.5 -152t-378 152
t-150 383q0 232 150 383t378 151zM606 217q106 0 181 76.5t75 210.5t-75 210.5t-181 76.5t-181 -76.5t-75 -210.5t75 -210.5t181 -76.5z" />
    <glyph glyph-name="uni1EE4" unicode="&#x1ee4;" horiz-adv-x="1431" 
d="M578 -334q0 61 40.5 102.5t96.5 41.5q61 0 102 -41t41 -103q0 -56 -41 -96.5t-102 -40.5q-55 0 -96 40.5t-41 96.5zM715 -33q-117 0 -217.5 36t-176.5 103.5t-119.5 172.5t-43.5 235v938h282v-917q0 -141 73 -216t202 -75q131 0 203.5 75t72.5 216v917h283v-938
q0 -173 -75.5 -298.5t-200.5 -187t-283 -61.5z" />
    <glyph glyph-name="uni1EE5" unicode="&#x1ee5;" horiz-adv-x="1187" 
d="M399 -334q0 61 41 102.5t97 41.5q61 0 102 -41t41 -103q0 -56 -41 -96.5t-102 -40.5q-56 0 -97 41t-41 96zM799 0q-8 31 -8 109q-39 -68 -116 -102t-163 -34q-177 0 -280 113.5t-103 284.5v637h272v-582q0 -91 46 -147t139 -56q90 0 140 54.5t50 144.5v586h273v-826
q0 -124 10 -182h-260z" />
    <glyph glyph-name="uni1EE6" unicode="&#x1ee6;" horiz-adv-x="1431" 
d="M891 1755q0 -88 -96 -180h-146q61 68 66 131q1 37 -20.5 52.5t-59.5 15.5q-26 0 -47 -7v146q49 6 104 6q82 -2 140.5 -43t58.5 -121zM715 -33q-117 0 -217.5 36t-176.5 103.5t-119.5 172.5t-43.5 235v938h282v-917q0 -141 73 -216t202 -75q131 0 203.5 75t72.5 216v917
h283v-938q0 -173 -75.5 -298.5t-200.5 -187t-283 -61.5z" />
    <glyph glyph-name="uni1EE7" unicode="&#x1ee7;" horiz-adv-x="1187" 
d="M756 1356q0 -87 -97 -180h-145q61 68 66 131q1 37 -20.5 52t-59.5 15q-29 0 -47 -6v145q58 7 104 7q82 -2 140.5 -43t58.5 -121zM799 0q-8 31 -8 109q-39 -68 -116 -102t-163 -34q-177 0 -280 113.5t-103 284.5v637h272v-582q0 -91 46 -147t139 -56q90 0 140 54.5
t50 144.5v586h273v-826q0 -124 10 -182h-260z" />
    <glyph glyph-name="uni1EE8" unicode="&#x1ee8;" horiz-adv-x="1431" 
d="M807 1575h-199l121 274h264zM715 -33q-117 0 -217.5 36t-176.5 103.5t-119.5 172.5t-43.5 235v938h282v-917q0 -141 73 -216t202 -75q131 0 203.5 75t72.5 216v917h92h7q72 0 107.5 48t35.5 122h215q0 -210 -174 -264v-844q0 -173 -75.5 -298.5t-200.5 -187t-283 -61.5z
" />
    <glyph glyph-name="uni1EE9" unicode="&#x1ee9;" horiz-adv-x="1187" 
d="M686 1176h-199l121 274h264zM799 0q-8 31 -8 109q-39 -68 -116 -102t-163 -34q-177 0 -280 113.5t-103 284.5v637h272v-582q0 -91 46 -147t139 -56q90 0 140 54.5t50 144.5v586h92q69 3 103.5 50.5t34.5 119.5h215q0 -207 -172 -265v-731q0 -124 10 -182h-260z" />
    <glyph glyph-name="uni1EEA" unicode="&#x1eea;" horiz-adv-x="1431" 
d="M838 1575h-199l-186 274h264zM715 -33q-117 0 -217.5 36t-176.5 103.5t-119.5 172.5t-43.5 235v938h282v-917q0 -141 73 -216t202 -75q131 0 203.5 75t72.5 216v917h92h7q72 0 107.5 48t35.5 122h215q0 -210 -174 -264v-844q0 -173 -75.5 -298.5t-200.5 -187t-283 -61.5z
" />
    <glyph glyph-name="uni1EEB" unicode="&#x1eeb;" horiz-adv-x="1187" 
d="M702 1176h-198l-187 274h265zM799 0q-8 31 -8 109q-39 -68 -116 -102t-163 -34q-177 0 -280 113.5t-103 284.5v637h272v-582q0 -91 46 -147t139 -56q90 0 140 54.5t50 144.5v586h92q69 3 103.5 50.5t34.5 119.5h215q0 -207 -172 -265v-731q0 -124 10 -182h-260z" />
    <glyph glyph-name="uni1EEC" unicode="&#x1eec;" horiz-adv-x="1431" 
d="M891 1755q0 -88 -96 -180h-146q61 68 66 131q1 37 -20.5 52.5t-59.5 15.5q-26 0 -47 -7v146q49 6 104 6q82 -2 140.5 -43t58.5 -121zM715 -33q-117 0 -217.5 36t-176.5 103.5t-119.5 172.5t-43.5 235v938h282v-917q0 -141 73 -216t202 -75q131 0 203.5 75t72.5 216v917
h92h7q72 0 107.5 48t35.5 122h215q0 -210 -174 -264v-844q0 -173 -75.5 -298.5t-200.5 -187t-283 -61.5z" />
    <glyph glyph-name="uni1EED" unicode="&#x1eed;" horiz-adv-x="1187" 
d="M756 1356q0 -87 -97 -180h-145q61 68 66 131q1 37 -20.5 52t-59.5 15q-29 0 -47 -6v145q58 7 104 7q82 -2 140.5 -43t58.5 -121zM799 0q-8 31 -8 109q-39 -68 -116 -102t-163 -34q-177 0 -280 113.5t-103 284.5v637h272v-582q0 -91 46 -147t139 -56q90 0 140 54.5
t50 144.5v586h92q69 3 103.5 50.5t34.5 119.5h215q0 -207 -172 -265v-731q0 -124 10 -182h-260z" />
    <glyph glyph-name="uni1EEE" unicode="&#x1eee;" horiz-adv-x="1431" 
d="M1049 1817q0 -120 -55.5 -181t-147.5 -61q-54 0 -96.5 20t-73 40t-55.5 20q-30 0 -43.5 -16.5t-16.5 -59.5h-170q0 121 56 181.5t149 60.5q54 0 96.5 -19.5t73 -39t55.5 -19.5q31 0 45 17t17 57h166zM715 -33q-117 0 -217.5 36t-176.5 103.5t-119.5 172.5t-43.5 235v938
h282v-917q0 -141 73 -216t202 -75q131 0 203.5 75t72.5 216v917h92h7q72 0 107.5 48t35.5 122h215q0 -210 -174 -264v-844q0 -173 -75.5 -298.5t-200.5 -187t-283 -61.5z" />
    <glyph glyph-name="uni1EEF" unicode="&#x1eef;" horiz-adv-x="1187" 
d="M928 1417q0 -120 -55.5 -180.5t-147.5 -60.5q-54 0 -96.5 20t-73 39.5t-55.5 19.5q-30 0 -43.5 -16t-16.5 -59h-170q0 121 56 181t149 60q54 0 96.5 -19.5t73 -39t55.5 -19.5q31 0 45 17t17 57h166zM799 0q-8 31 -8 109q-39 -68 -116 -102t-163 -34q-177 0 -280 113.5
t-103 284.5v637h272v-582q0 -91 46 -147t139 -56q90 0 140 54.5t50 144.5v586h92q69 3 103.5 50.5t34.5 119.5h215q0 -207 -172 -265v-731q0 -124 10 -182h-260z" />
    <glyph glyph-name="uni1EF0" unicode="&#x1ef0;" horiz-adv-x="1431" 
d="M578 -334q0 61 40.5 102.5t96.5 41.5q61 0 102 -41t41 -103q0 -56 -41 -96.5t-102 -40.5q-55 0 -96 40.5t-41 96.5zM715 -33q-117 0 -217.5 36t-176.5 103.5t-119.5 172.5t-43.5 235v938h282v-917q0 -141 73 -216t202 -75q131 0 203.5 75t72.5 216v917h92h7
q72 0 107.5 48t35.5 122h215q0 -210 -174 -264v-844q0 -173 -75.5 -298.5t-200.5 -187t-283 -61.5z" />
    <glyph glyph-name="uni1EF1" unicode="&#x1ef1;" horiz-adv-x="1187" 
d="M399 -334q0 61 41 102.5t97 41.5q61 0 102 -41t41 -103q0 -56 -41 -96.5t-102 -40.5q-56 0 -97 41t-41 96zM799 0q-8 31 -8 109q-39 -68 -116 -102t-163 -34q-177 0 -280 113.5t-103 284.5v637h272v-582q0 -91 46 -147t139 -56q90 0 140 54.5t50 144.5v586h92
q69 3 103.5 50.5t34.5 119.5h215q0 -207 -172 -265v-731q0 -124 10 -182h-260z" />
    <glyph glyph-name="Ygrave" unicode="&#x1ef2;" horiz-adv-x="1349" 
d="M793 1575h-199l-186 274h264zM27 1452h331l326 -575l326 575h317l-512 -842v-610h-283v610z" />
    <glyph glyph-name="ygrave" unicode="&#x1ef3;" horiz-adv-x="1153" 
d="M684 1176h-199l-186 274h264zM215 -397l238 524l-428 881h305l268 -590l248 590h291l-633 -1405h-289z" />
    <glyph glyph-name="uni1EF4" unicode="&#x1ef4;" horiz-adv-x="1349" 
d="M535 -334q0 61 40.5 102.5t96.5 41.5q61 0 102 -41t41 -103q0 -56 -41 -96.5t-102 -40.5q-56 0 -96.5 40.5t-40.5 96.5zM27 1452h331l326 -575l326 575h317l-512 -842v-610h-283v610z" />
    <glyph glyph-name="uni1EF5" unicode="&#x1ef5;" horiz-adv-x="1153" 
d="M743 -334q0 61 41 102.5t97 41.5q61 0 102 -41t41 -103q0 -56 -41 -96.5t-102 -40.5q-56 0 -97 41t-41 96zM215 -397l238 524l-428 881h305l268 -590l248 590h291l-633 -1405h-289z" />
    <glyph glyph-name="uni1EF6" unicode="&#x1ef6;" horiz-adv-x="1349" 
d="M850 1755q0 -88 -96 -180h-146q61 68 66 131q1 37 -20.5 52.5t-59.5 15.5q-26 0 -47 -7v146q49 6 104 6q82 -2 140.5 -43t58.5 -121zM27 1452h331l326 -575l326 575h317l-512 -842v-610h-283v610z" />
    <glyph glyph-name="uni1EF7" unicode="&#x1ef7;" horiz-adv-x="1153" 
d="M748 1356q0 -87 -97 -180h-145q59 66 65 131q1 37 -20 52t-59 15q-30 0 -48 -6v145q58 7 105 7q82 -2 140.5 -43t58.5 -121zM215 -397l238 524l-428 881h305l268 -590l248 590h291l-633 -1405h-289z" />
    <glyph glyph-name="uni1EF8" unicode="&#x1ef8;" horiz-adv-x="1349" 
d="M1014 1817q0 -120 -55.5 -181t-147.5 -61q-54 0 -96.5 20t-73 40t-55.5 20q-30 0 -43.5 -16.5t-16.5 -59.5h-170q0 121 56 181.5t149 60.5q54 0 96.5 -19.5t73 -39t55.5 -19.5q31 0 45 17t17 57h166zM27 1452h331l326 -575l326 575h317l-512 -842v-610h-283v610z" />
    <glyph glyph-name="uni1EF9" unicode="&#x1ef9;" horiz-adv-x="1153" 
d="M915 1417q0 -120 -55 -180.5t-147 -60.5q-54 0 -97 20t-73.5 39.5t-55.5 19.5q-30 0 -43 -16t-16 -59h-170q0 121 56 181t149 60q54 0 96.5 -19.5t73 -39t55.5 -19.5q31 0 45 17t17 57h165zM215 -397l238 524l-428 881h305l268 -590l248 590h291l-633 -1405h-289z" />
    <glyph glyph-name="uni2007" unicode="&#x2007;" horiz-adv-x="1292" 
 />
    <glyph glyph-name="uni2008" unicode="&#x2008;" horiz-adv-x="563" 
 />
    <glyph glyph-name="uni200B" unicode="&#x200b;" horiz-adv-x="0" 
 />
    <glyph glyph-name="endash" unicode="&#x2013;" horiz-adv-x="1314" 
d="M129 489v236h1057v-236h-1057z" />
    <glyph glyph-name="emdash" unicode="&#x2014;" horiz-adv-x="2183" 
d="M129 489v236h1925v-236h-1925z" />
    <glyph glyph-name="quoteleft" unicode="&#x2018;" horiz-adv-x="524" 
d="M426 1040q0 -62 -45 -105.5t-115 -43.5q-80 0 -129 56t-49 140q0 78 21 142.5t53.5 106t76 71t85 43t82.5 16.5v-125q-65 -11 -114.5 -56.5t-53.5 -113.5q18 11 43 11q69 0 107 -38t38 -104z" />
    <glyph glyph-name="quoteright" unicode="&#x2019;" horiz-adv-x="528" 
d="M106 1317q0 61 46.5 105t117.5 44q80 0 129.5 -57t49.5 -141q0 -78 -21 -143.5t-54 -108t-75.5 -73t-84.5 -45t-83 -17.5v125q65 11 114.5 58.5t53.5 115.5q-18 -11 -43 -11q-68 0 -109 40.5t-41 107.5z" />
    <glyph glyph-name="quotesinglbase" unicode="&#x201a;" horiz-adv-x="542" 
d="M100 141q0 61 46.5 104.5t117.5 43.5q80 0 129 -56.5t49 -142.5q0 -78 -20.5 -143.5t-53.5 -108t-76 -73t-84.5 -45t-82.5 -17.5v127q64 8 114 55.5t54 116.5q-17 -10 -43 -10q-68 0 -109 41t-41 108z" />
    <glyph glyph-name="quotedblleft" unicode="&#x201c;" horiz-adv-x="927" 
d="M426 1040q0 -62 -45 -105.5t-115 -43.5q-80 0 -129 56t-49 140q0 78 21 142.5t53.5 106t76 71t85 43t82.5 16.5v-125q-65 -11 -114.5 -56.5t-53.5 -113.5q18 11 43 11q69 0 107 -38t38 -104zM829 1040q0 -62 -44.5 -105.5t-114.5 -43.5q-80 0 -129 56t-49 140
q0 78 21 142.5t53.5 106t75.5 71t84.5 43t82.5 16.5v-125q-65 -11 -114.5 -56.5t-53.5 -113.5q18 11 43 11q69 0 107 -38t38 -104z" />
    <glyph glyph-name="quotedblright" unicode="&#x201d;" horiz-adv-x="929" 
d="M106 1317q0 61 46.5 105t117.5 44q80 0 129.5 -57t49.5 -141q0 -78 -21 -143.5t-54 -108t-75.5 -73t-84.5 -45t-83 -17.5v125q65 11 114.5 58.5t53.5 115.5q-18 -11 -43 -11q-68 0 -109 40.5t-41 107.5zM508 1317q0 61 46.5 105t117.5 44q80 0 129 -57t49 -141
q0 -78 -21 -143.5t-54 -108t-75.5 -73t-84.5 -45t-83 -17.5v125q65 11 114.5 58.5t53.5 115.5q-18 -11 -43 -11q-68 0 -108.5 40.5t-40.5 107.5z" />
    <glyph glyph-name="quotedblbase" unicode="&#x201e;" horiz-adv-x="940" 
d="M100 143q0 61 46.5 104.5t117.5 43.5q80 0 129 -56.5t49 -142.5q0 -78 -20.5 -143.5t-53.5 -108t-76 -73t-84.5 -45t-82.5 -17.5v127q64 8 114 55.5t54 116.5q-17 -10 -45 -10q-68 0 -108 41t-40 108zM498 143q0 61 46.5 104.5t117.5 43.5q80 0 129 -56.5t49 -142.5
q0 -78 -21 -143.5t-54 -108t-75.5 -73t-84.5 -45t-83 -17.5v127q64 8 114 55.5t54 116.5q-17 -10 -45 -10q-68 0 -107.5 41t-39.5 108z" />
    <glyph glyph-name="dagger" unicode="&#x2020;" horiz-adv-x="870" 
d="M322 334v614h-252v213h252v291h227v-291h252v-213h-252v-614h-227z" />
    <glyph glyph-name="daggerdbl" unicode="&#x2021;" horiz-adv-x="944" 
d="M358 506v440h-252v211h252v295h228v-295h252v-211h-252v-440h252v-211h-252v-295h-228v295h-252v211h252z" />
    <glyph glyph-name="bullet" unicode="&#x2022;" horiz-adv-x="1118" 
d="M133 612q0 177 125.5 302.5t300.5 125.5q177 0 301.5 -125.5t124.5 -302.5t-124.5 -302.5t-301.5 -125.5q-175 0 -300.5 125.5t-125.5 302.5z" />
    <glyph glyph-name="ellipsis" unicode="&#x2026;" horiz-adv-x="1769" 
d="M1675 143q0 -68 -48.5 -115.5t-117.5 -47.5q-67 0 -115 48t-48 115q0 69 47.5 117.5t115.5 48.5q69 0 117.5 -48.5t48.5 -117.5zM1051 143q0 -68 -48.5 -115.5t-117.5 -47.5q-68 0 -117 48t-49 115q0 69 49 117.5t117 48.5q69 0 117.5 -48.5t48.5 -117.5zM426 143
q0 -68 -47.5 -115.5t-116.5 -47.5t-117.5 47.5t-48.5 115.5q0 69 48.5 117.5t117.5 48.5t116.5 -48.5t47.5 -117.5z" />
    <glyph glyph-name="perthousand" unicode="&#x2030;" horiz-adv-x="2160" 
d="M262 1016q0 -65 38.5 -104.5t96.5 -39.5q60 0 97.5 39t37.5 105q0 62 -37.5 101.5t-97.5 39.5q-57 0 -96 -40t-39 -101zM57 1016q0 140 100.5 237t239.5 97t240.5 -97t101.5 -237q0 -142 -101 -238t-241 -96q-142 0 -241 97t-99 237zM1155 313q0 -65 38 -104t99 -39
q60 0 99 40t39 103t-39 102.5t-99 39.5t-98.5 -39.5t-38.5 -102.5zM258 0l938 1329h238l-938 -1329h-238zM1624 313q0 -65 39 -104t98 -39q60 0 98.5 40t38.5 103t-38.5 102.5t-98.5 39.5q-58 0 -97.5 -40t-39.5 -102zM950 313q0 140 101.5 238t240.5 98q149 0 236 -108
q90 108 233 108q141 0 242.5 -98t101.5 -238q0 -141 -101.5 -237t-242.5 -96q-145 0 -233 106q-86 -106 -238 -106q-139 0 -239.5 96.5t-100.5 236.5z" />
    <glyph glyph-name="guilsinglleft" unicode="&#x2039;" horiz-adv-x="686" 
d="M346 207l-280 397l282 404h256l-278 -406l278 -395h-258z" />
    <glyph glyph-name="guilsinglright" unicode="&#x203a;" horiz-adv-x="686" 
d="M84 207l276 395l-278 406h258l281 -404l-279 -397h-258z" />
    <glyph glyph-name="uni2042" unicode="&#x2042;" horiz-adv-x="1695" 
d="M938 1225l207 69l59 -174l-211 -67l133 -179l-149 -108l-135 180l-131 -180l-148 111l129 176l-209 67l56 174l209 -69v227h190v-227zM514 432l207 70l59 -174l-211 -68l133 -178l-149 -109l-135 181l-131 -181l-148 111l129 176l-209 68l56 174l209 -70v227h190v-227z
M1370 432l207 70l59 -174l-211 -68l134 -178l-150 -109l-135 181l-131 -181l-148 111l129 176l-209 68l56 174l209 -70v227h190v-227z" />
    <glyph glyph-name="fraction" unicode="&#x2044;" horiz-adv-x="397" 
d="M-401 0l938 1329h237l-938 -1329h-237z" />
    <glyph glyph-name="uni2051" unicode="&#x2051;" horiz-adv-x="909" 
d="M549 1225l207 69l59 -174l-211 -67l133 -179l-149 -108l-135 180l-131 -180l-148 111l129 176l-209 67l56 174l208 -69v227h191v-227zM549 438l207 70l59 -174l-211 -68l133 -178l-149 -108l-135 180l-131 -180l-148 110l129 176l-209 68l56 174l208 -70v228h191v-228z
" />
    <glyph glyph-name="uni2070" unicode="&#x2070;" horiz-adv-x="806" 
d="M276 1075q0 -45 4.5 -79t17 -68.5t39 -53t66.5 -18.5t67.5 18.5t40 53t17 68.5t4.5 79q0 35 -2.5 63t-10.5 58.5t-21.5 51.5t-37.5 34.5t-57 13.5q-40 0 -66.5 -18.5t-39 -53t-17 -69t-4.5 -80.5zM63 1075q0 169 74 268q95 125 266 125q174 0 269 -125q71 -98 71 -268
q0 -168 -71 -266q-93 -125 -269 -125q-173 0 -266 125q-74 99 -74 266z" />
    <glyph glyph-name="uni2074" unicode="&#x2074;" horiz-adv-x="792" 
d="M49 1047l346 405h223v-446h125v-162h-125v-146h-204v146h-365v203zM414 1239l-199 -233h199v233z" />
    <glyph glyph-name="uni2075" unicode="&#x2075;" horiz-adv-x="727" 
d="M231 958q6 -46 41.5 -74t83.5 -28q49 0 79 26t30 72q0 52 -31 78.5t-84 26.5q-64 0 -106 -45l-170 51l94 387h455v-170h-332l-31 -129q53 47 146 47q122 0 193 -64.5t71 -179.5t-83.5 -192.5t-230.5 -77.5q-121 0 -208 65t-99 160z" />
    <glyph glyph-name="uni2076" unicode="&#x2076;" horiz-adv-x="768" 
d="M643 1274q-67 24 -133 24q-87 0 -152.5 -41t-87.5 -127q63 66 174 66q118 0 192.5 -63.5t74.5 -180.5q0 -119 -90.5 -195.5t-231.5 -76.5q-139 0 -233.5 93t-94.5 253q0 201 124 319.5t313 118.5q105 0 182 -32zM279 946q0 -43 33 -71.5t77 -28.5q45 0 78 28.5t33 71.5
q0 46 -32.5 74.5t-78.5 28.5q-45 0 -77.5 -28.5t-32.5 -74.5z" />
    <glyph glyph-name="uni2077" unicode="&#x2077;" horiz-adv-x="704" 
d="M670 1278q-28 -21 -55.5 -47t-68 -79t-72 -113t-59 -150t-36.5 -191h-219q18 241 141 432q51 83 121 150h-381v172h629v-174z" />
    <glyph glyph-name="uni2078" unicode="&#x2078;" horiz-adv-x="763" 
d="M383 1151q43 0 67.5 23t24.5 57q0 29 -24 51.5t-68 22.5t-69 -22.5t-25 -51.5q0 -34 24.5 -57t69.5 -23zM383 844q57 0 85 25t28 63q0 33 -29.5 57.5t-83.5 24.5q-56 0 -84.5 -24t-28.5 -58q0 -38 28 -63t85 -25zM383 682q-151 0 -235.5 61.5t-84.5 163.5q0 61 41.5 109
t108.5 69q-60 20 -93.5 66t-33.5 102q0 94 79.5 153.5t217.5 59.5t216.5 -59t78.5 -154q0 -56 -33.5 -102t-93.5 -66q65 -19 108 -67t43 -107q0 -105 -84 -167t-235 -62z" />
    <glyph glyph-name="uni2079" unicode="&#x2079;" horiz-adv-x="761" 
d="M129 874q67 -24 129 -24q93 0 159 40t85 130q-29 -32 -76.5 -50t-99.5 -18q-112 0 -191.5 66t-79.5 178q0 122 87.5 197t234.5 75q138 0 230.5 -93.5t92.5 -254.5q0 -207 -117 -322.5t-302 -115.5q-105 0 -187 33zM481 1202q0 43 -32.5 72t-77.5 29q-48 0 -79.5 -28.5
t-31.5 -72.5q0 -47 31.5 -75.5t79.5 -28.5q46 0 78 29t32 75z" />
    <glyph glyph-name="uni2080" unicode="&#x2080;" horiz-adv-x="815" 
d="M281 164q0 -45 4.5 -79t17 -68.5t39 -53t66.5 -18.5t67.5 18.5t40 53t17 68.5t4.5 79q0 35 -2.5 63t-10.5 58.5t-21.5 51.5t-37.5 34.5t-57 13.5q-40 0 -66.5 -18.5t-39 -53t-17 -69t-4.5 -80.5zM68 164q0 171 73 268q95 125 267 125q173 0 268 -125q72 -99 72 -268
q0 -167 -72 -266q-93 -125 -268 -125q-174 0 -267 125q-73 97 -73 266z" />
    <glyph glyph-name="uni2081" unicode="&#x2081;" horiz-adv-x="532" 
d="M229 -213v457h-186v135q90 0 143.5 48t67.5 112h186v-752h-211z" />
    <glyph glyph-name="uni2082" unicode="&#x2082;" horiz-adv-x="737" 
d="M82 244q-8 19 -8 59q0 111 77 182.5t218 71.5q134 0 212 -72t78 -178q0 -71 -40 -125.5t-121 -103.5l-144 -86q-24 -15 -24 -31h336v-174h-596v25q0 105 42 184.5t140 136.5l123 72q78 47 78 104q0 32 -23 56t-63 24q-48 0 -76.5 -28t-28.5 -78q0 -19 6 -37z" />
    <glyph glyph-name="uni2083" unicode="&#x2083;" horiz-adv-x="755" 
d="M242 51q5 -48 38.5 -78t86.5 -30q50 0 80 25.5t30 64.5q0 46 -31 69t-77 23q-38 0 -66 -12l-67 139l178 121h-330v170h582v-168l-185 -125q95 -12 151 -69t56 -152q0 -107 -88 -181.5t-233 -74.5q-132 0 -215.5 68.5t-96.5 166.5z" />
    <glyph glyph-name="uni2084" unicode="&#x2084;" horiz-adv-x="796" 
d="M51 135l346 406h224v-447h124v-162h-124v-145h-205v145h-365v203zM416 328l-199 -234h199v234z" />
    <glyph glyph-name="uni2085" unicode="&#x2085;" horiz-adv-x="733" 
d="M233 47q6 -46 41.5 -74t83.5 -28q49 0 79 26t30 72q0 52 -31 78t-84 26q-64 0 -106 -45l-170 52l94 387h455v-170h-332l-31 -129q53 47 146 47q122 0 193 -64.5t71 -179.5t-83.5 -192.5t-230.5 -77.5q-121 0 -208 65t-99 160z" />
    <glyph glyph-name="uni2086" unicode="&#x2086;" horiz-adv-x="774" 
d="M645 365q-67 24 -133 24q-87 0 -152.5 -41t-87.5 -127q63 66 174 66q118 0 192.5 -63.5t74.5 -180.5q0 -119 -90.5 -195.5t-231.5 -76.5q-139 0 -233.5 93t-94.5 253q0 201 124 319.5t313 118.5q103 0 182 -33zM281 37q0 -43 33 -71.5t77 -28.5q45 0 78 28.5t33 71.5
q0 46 -32.5 74t-78.5 28q-45 0 -77.5 -28t-32.5 -74z" />
    <glyph glyph-name="uni2087" unicode="&#x2087;" horiz-adv-x="710" 
d="M674 365q-28 -21 -55.5 -47t-68 -79t-72 -113t-59 -150t-36.5 -191h-219q18 241 141 432q51 83 121 150h-381v172h629v-174z" />
    <glyph glyph-name="uni2088" unicode="&#x2088;" horiz-adv-x="768" 
d="M385 240q43 0 67.5 22.5t24.5 56.5q0 29 -24 51.5t-68 22.5t-69 -22.5t-25 -51.5q0 -34 24.5 -56.5t69.5 -22.5zM385 -68q57 0 85 25t28 63q0 33 -29.5 57.5t-83.5 24.5q-56 0 -84.5 -24t-28.5 -58q0 -38 28 -63t85 -25zM385 -229q-151 0 -235 61.5t-84 163.5
q0 61 41 109.5t108 68.5q-60 20 -93.5 66t-33.5 102q0 94 79.5 153.5t217.5 59.5t216.5 -59t78.5 -154q0 -56 -33.5 -102t-93.5 -66q65 -19 108.5 -67.5t43.5 -106.5q0 -105 -84.5 -167t-235.5 -62z" />
    <glyph glyph-name="uni2089" unicode="&#x2089;" horiz-adv-x="765" 
d="M131 -35q67 -24 129 -24q93 0 159 40t85 130q-29 -32 -76.5 -50t-99.5 -18q-112 0 -191.5 66t-79.5 178q0 122 87.5 197t234.5 75q138 0 230.5 -93.5t92.5 -254.5q0 -207 -117 -322.5t-302 -115.5q-108 0 -187 32zM483 293q0 43 -32.5 71.5t-77.5 28.5q-48 0 -79.5 -28
t-31.5 -72q0 -47 31.5 -76t79.5 -29q45 0 77.5 29.5t32.5 75.5z" />
    <glyph glyph-name="Euro" unicode="&#x20ac;" horiz-adv-x="1374" 
d="M1317 102q-171 -135 -397 -135q-222 0 -397 114.5t-247 319.5h-190v193h150q-3 58 -3 65q0 17 3 66h-150v193h190q72 205 249.5 323.5t394.5 118.5q205 0 352 -94l-105 -215q-92 63 -247 63q-110 0 -202 -48.5t-145 -147.5h533l-90 -193h-496q-4 -21 -4 -68q0 -37 4 -63
h443l-89 -193h-294q53 -91 142 -137.5t198 -46.5q164 0 270 88z" />
    <glyph glyph-name="uni2113" unicode="&#x2113;" horiz-adv-x="892" 
d="M72 555q65 14 141 47v414q0 157 87 249.5t224 92.5q142 0 224.5 -86t82.5 -240q0 -153 -98.5 -306t-269.5 -263v-76q0 -82 42.5 -121t96.5 -39q21 0 40.5 2t34 4t29 6.5t23.5 8t20.5 9t16 8t13 8t9.5 6.5v-228q-10 -10 -28 -21t-70.5 -25.5t-116.5 -14.5
q-173 0 -266.5 97.5t-93.5 252.5v10q-89 -27 -141 -35v240zM584 1042q0 84 -60 84q-61 0 -61 -98v-266q121 128 121 280z" />
    <glyph glyph-name="trademark" unicode="&#x2122;" horiz-adv-x="1818" 
d="M475 1280v-575h-192v575h-213v172h616v-172h-211zM1487 705v454l-182 -454h-140l-184 448v-448h-186v747h262l182 -438l176 438h258v-747h-186z" />
    <glyph glyph-name="Omega" unicode="&#x2126;" horiz-adv-x="1628" 
d="M815 1217q-81 0 -155 -27t-132.5 -77.5t-93.5 -130.5t-35 -177q0 -165 99.5 -275.5t240.5 -142.5v-387h-618v258h366q-163 67 -272 215t-109 350q0 147 58 272.5t156 209.5t226 131t269 47t269 -47t226 -131t156 -209.5t58 -272.5q0 -103 -31.5 -196t-86 -163.5
t-121.5 -122t-144 -83.5h366v-258h-618v387q67 15 127 49.5t109 86t77.5 125t28.5 157.5q0 97 -35 177t-93.5 130.5t-132.5 77.5t-155 27z" />
    <glyph glyph-name="uni2160" unicode="&#x2160;" horiz-adv-x="1032" 
d="M932 1090h-275v-850h275v-240h-832v240h277v850h-277v239h832v-239z" />
    <glyph glyph-name="uni2161" unicode="&#x2161;" horiz-adv-x="1622" 
d="M1522 0h-1422v240h281v850h-281v239h1422v-239h-279v-850h279v-240zM963 1090h-301v-850h301v850z" />
    <glyph glyph-name="uni2162" unicode="&#x2162;" horiz-adv-x="2183" 
d="M2083 0h-1983v240h281v850h-281v239h1983v-239h-279v-850h279v-240zM1524 1090h-291v-850h291v850zM662 240h290v850h-290v-850z" />
    <glyph glyph-name="uni2163" unicode="&#x2163;" horiz-adv-x="2168" 
d="M2068 0h-1968v240h271v850h-271v239h1968v-239h-221l-274 -850h495v-240zM651 240h436l-278 850h-158v-850zM1563 1090h-459l229 -750z" />
    <glyph glyph-name="uni2164" unicode="&#x2164;" horiz-adv-x="1662" 
d="M1565 1090h-217l-275 -850h488v-240h-1459v240h486l-279 850h-211v239h1467v-239zM1063 1090h-459l230 -750z" />
    <glyph glyph-name="uni2165" unicode="&#x2165;" horiz-adv-x="2162" 
d="M2062 0h-1962v240h492l-279 850h-213v239h1962v-239h-268v-850h268v-240zM1079 240h434v850h-157zM1069 1090h-461l232 -750z" />
    <glyph glyph-name="uni2166" unicode="&#x2166;" horiz-adv-x="2734" 
d="M2636 0h-2536v240h492l-279 850h-213v239h2534v-239h-277v-850h279v-240zM2077 1090h-285v-850h285v850zM1077 240h434v850h-157zM1067 1090h-459l232 -750z" />
    <glyph glyph-name="uni2167" unicode="&#x2167;" horiz-adv-x="3274" 
d="M3176 0h-3076v240h490l-275 850h-215v239h3074v-239h-272v-850h274v-240zM1075 240h432v850h-161zM1788 240h276v850h-276v-850zM2345 240h276v850h-276v-850zM1061 1090h-451l226 -750z" />
    <glyph glyph-name="uni2168" unicode="&#x2168;" horiz-adv-x="2113" 
d="M2013 0h-1913v240h271v850h-271v239h1913v-239h-211l-315 -437l305 -413h221v-240zM815 1090h-164v-850h170l309 417zM1311 854l166 236h-332zM1147 240h315l-157 221z" />
    <glyph glyph-name="uni2169" unicode="&#x2169;" horiz-adv-x="1609" 
d="M1509 1090h-211l-315 -437l305 -413h221v-240h-1409v240h217l310 417l-316 433h-211v239h1409v-239zM805 854l166 236h-330zM643 240h313l-155 221z" />
    <glyph glyph-name="uni216C" unicode="&#x216c;" horiz-adv-x="1333" 
d="M1260 0h-1160v240h240v850h-240v239h783v-239h-262v-850h370v358h269v-598z" />
    <glyph glyph-name="uni216D" unicode="&#x216d;" horiz-adv-x="1536" 
d="M1407 0h-274v123q-133 -154 -373 -154q-137 0 -259.5 50t-214 139t-145 220t-53.5 286q0 154 54 286t145.5 221t213 139t255.5 50q232 0 368 -150v119h273v-491h-273q-9 50 -32 95.5t-63.5 87t-107.5 66.5t-153 25q-79 0 -150.5 -27.5t-130 -80.5t-93 -141t-34.5 -199
q0 -105 33.5 -190.5t90.5 -140t131 -83.5t157 -29q87 0 157 28t111 72.5t63.5 90t29.5 90.5h274v-502z" />
    <glyph glyph-name="uni216E" unicode="&#x216e;" horiz-adv-x="1523" 
d="M788 1329q143 -2 262.5 -49t204.5 -131t132 -208.5t47 -276.5q0 -307 -181.5 -485.5t-474.5 -178.5h-678v240h252v850h-252v239h688zM766 240q167 0 275 111t108 313q0 205 -109.5 315.5t-277.5 110.5h-129v-850h133z" />
    <glyph glyph-name="uni216F" unicode="&#x216f;" horiz-adv-x="2164" 
d="M774 0h-674v240h240v850h-240v239h625l354 -887l346 887h639v-239h-239v-850h239v-240h-686v240h170v675l-366 -903h-207l-365 899v-671h164v-240z" />
    <glyph glyph-name="arrowleft" unicode="&#x2190;" horiz-adv-x="2248" 
d="M55 608l602 484v-367h1497v-236h-1497v-362z" />
    <glyph glyph-name="arrowup" unicode="&#x2191;" horiz-adv-x="1034" 
d="M989 1092h-352v-1393h-234v1393h-356l473 546z" />
    <glyph glyph-name="arrowright" unicode="&#x2192;" horiz-adv-x="2248" 
d="M1591 127v362h-1497v236h1497v367l602 -484z" />
    <glyph glyph-name="arrowdown" unicode="&#x2193;" horiz-adv-x="1058" 
d="M530 -311l-481 551h365v1386h233v-1386h363z" />
    <glyph glyph-name="uni2196" unicode="&#x2196;" horiz-adv-x="1636" 
d="M791 1450l-256 -258l1052 -1051l-166 -166l-1052 1051l-258 -260v684h680z" />
    <glyph glyph-name="uni2197" unicode="&#x2197;" horiz-adv-x="1636" 
d="M1526 1450v-684l-260 260l-1051 -1051l-166 166l1051 1051l-254 258h680z" />
    <glyph glyph-name="uni2198" unicode="&#x2198;" horiz-adv-x="1636" 
d="M848 2l254 256l-1051 1053l166 166l1051 -1053l260 262v-684h-680z" />
    <glyph glyph-name="uni2199" unicode="&#x2199;" horiz-adv-x="1638" 
d="M111 2v684l258 -262l1052 1053l166 -166l-1052 -1053l256 -256h-680z" />
    <glyph glyph-name="uni21A9" unicode="&#x21a9;" horiz-adv-x="1910" 
d="M53 561l539 463v-346h737q109 0 182.5 59t73.5 152q0 97 -71 154t-189 57h-399v235h411q215 0 352.5 -127t137.5 -319q0 -193 -136 -321t-354 -128h-745v-338z" />
    <glyph glyph-name="uni21B0" unicode="&#x21b0;" horiz-adv-x="1587" 
d="M43 1022l539 463v-344h864v-1141h-234v905h-630v-344z" />
    <glyph glyph-name="uni21B1" unicode="&#x21b1;" horiz-adv-x="1628" 
d="M141 0v1141h906v344l538 -463l-538 -461v344h-670v-905h-236z" />
    <glyph glyph-name="uni21B2" unicode="&#x21b2;" horiz-adv-x="1640" 
d="M1493 1452v-1141h-905v-344l-539 463l539 461v-344h672v905h233z" />
    <glyph glyph-name="uni21B3" unicode="&#x21b3;" horiz-adv-x="1640" 
d="M1591 430l-538 -463v344h-906v1141h236v-905h670v344z" />
    <glyph glyph-name="uni21B4" unicode="&#x21b4;" horiz-adv-x="1617" 
d="M66 1452h1157v-956h344l-457 -527l-461 527h338v721h-921v235z" />
    <glyph glyph-name="uni21B5" unicode="&#x21b5;" horiz-adv-x="2240" 
d="M51 725h314q0 154 60 294.5t162 242.5t242 162.5t293 60.5q187 0 357 -88l-109 -209q-116 61 -246 61q-143 0 -263.5 -70t-190.5 -191t-70 -263h330l-438 -512zM1874 725q0 -155 -60 -295.5t-161 -241.5t-241.5 -161t-295.5 -60q-184 0 -354 88l106 209q123 -63 248 -63
q106 0 202 41.5t166 112t111 167.5t41 203h-325l438 514l440 -514h-315z" />
    <glyph glyph-name="uni21C6" unicode="&#x21c6;" horiz-adv-x="2275" 
d="M1673 -127v342h-1550v236h1550v344l539 -463zM66 1139l538 463v-349h1548v-235h-1548v-338z" />
    <glyph glyph-name="partialdiff" unicode="&#x2202;" horiz-adv-x="1288" 
d="M522 1229q-144 0 -297 -70l-94 217q175 101 408 101q60 0 118.5 -8.5t125 -32t124.5 -59.5t112 -96t92.5 -137.5t61.5 -188t23 -242.5q0 -161 -36.5 -295.5t-108.5 -236t-187 -158t-262 -56.5q-81 0 -157 20t-142.5 61t-116 99.5t-78 140.5t-28.5 179q0 110 43 201
t114 149.5t160 90.5t183 32q223 0 329 -115q-6 105 -38.5 184.5t-85.5 126.5t-119 70t-144 23zM641 709q-139 0 -212 -71t-73 -183q0 -107 77.5 -171.5t178.5 -64.5q80 0 141.5 35.5t95 93t50 120t16.5 126.5q-101 115 -274 115z" />
    <glyph glyph-name="increment" unicode="&#x2206;" horiz-adv-x="1521" 
d="M606 1452h307l555 -1452h-1415zM444 262h633l-317 883z" />
    <glyph glyph-name="product" unicode="&#x220f;" horiz-adv-x="1351" 
d="M930 0v1192h-508v-1192h-283v1452h1073v-1452h-282z" />
    <glyph glyph-name="summation" unicode="&#x2211;" horiz-adv-x="1255" 
d="M98 256l525 469l-525 471v256h1053v-262h-666l516 -465l-534 -463h684v-262h-1053v256z" />
    <glyph glyph-name="minus" unicode="&#x2212;" horiz-adv-x="1218" 
d="M123 494v223h973v-223h-973z" />
    <glyph glyph-name="uni2215" unicode="&#x2215;" horiz-adv-x="856" 
d="M219 0h-248l645 1329h248z" />
    <glyph glyph-name="uni2219" unicode="&#x2219;" horiz-adv-x="567" 
d="M106 635q0 72 51.5 122t125.5 50t125 -50t51 -122q0 -74 -51 -124t-125 -50t-125.5 50t-51.5 124z" />
    <glyph glyph-name="radical" unicode="&#x221a;" horiz-adv-x="1454" 
d="M1176 1573l-529 -1573h-241l-390 1100h267l245 -725l467 1425h449v-227h-268z" />
    <glyph glyph-name="infinity" unicode="&#x221e;" horiz-adv-x="1714" 
d="M854 412q-94 -101 -180.5 -149t-188.5 -48q-170 0 -281.5 107.5t-111.5 271.5t111.5 272.5t281.5 108.5q197 0 375 -203q184 203 369 203q170 0 281.5 -108.5t111.5 -272.5t-111.5 -271.5t-281.5 -107.5q-199 0 -375 197zM489 741q-70 0 -111.5 -42t-41.5 -107
t41.5 -106.5t111.5 -41.5q101 0 220 144q-62 76 -112.5 114.5t-107.5 38.5zM1225 444q70 0 111.5 41.5t41.5 106.5t-41.5 107t-111.5 42q-57 0 -106.5 -37t-112.5 -112q62 -73 113 -110.5t106 -37.5z" />
    <glyph glyph-name="integral" unicode="&#x222b;" horiz-adv-x="768" 
d="M248 1075q0 175 101 277t278 102h104v-242h-92q-55 0 -87 -34t-32 -99v-1089q0 -175 -99.5 -277t-275.5 -102h-110v239h94q55 0 87 35.5t32 100.5v1089z" />
    <glyph glyph-name="approxequal" unicode="&#x2248;" horiz-adv-x="1275" 
d="M1182 827q-55 -98 -141.5 -151t-190.5 -53q-111 0 -221 61l-97 53q-60 31 -112 31q-103 0 -176 -98l-148 121q57 100 142 153t188 53q108 0 221 -61l98 -53q56 -33 115 -33q104 0 178 98zM1182 416q-57 -99 -142.5 -152t-187.5 -53q-115 0 -223 61l-97 54q-54 28 -106 28
q-107 0 -182 -96l-148 121q57 100 143 153.5t189 53.5q104 0 219 -62l98 -53q56 -33 117 -33q107 0 176 97z" />
    <glyph glyph-name="notequal" unicode="&#x2260;" horiz-adv-x="1216" 
d="M539 291l-129 -199h-246l129 199h-176v221h321l121 186h-442v220h585l123 188h246l-123 -188h162v-220h-305l-121 -186h426v-221h-571z" />
    <glyph glyph-name="lessequal" unicode="&#x2264;" horiz-adv-x="1132" 
d="M995 313v-223h-880v223h880zM115 868l880 279v-225l-571 -160l571 -162v-229l-880 276v221z" />
    <glyph glyph-name="greaterequal" unicode="&#x2265;" horiz-adv-x="1132" 
d="M1018 313v-223h-881v223h881zM1018 647l-881 -276v225l572 160l-572 162v229l881 -279v-221z" />
    <glyph glyph-name="dotmath" unicode="&#x22c5;" horiz-adv-x="567" 
d="M106 635q0 72 51.5 122t125.5 50t125 -50t51 -122q0 -74 -51 -124t-125 -50t-125.5 50t-51.5 124z" />
    <glyph glyph-name="uni24C5" unicode="&#x24c5;" horiz-adv-x="1675" 
d="M256 725q0 -165 76.5 -301.5t210 -215.5t293.5 -79t293.5 79t209.5 215.5t76 301.5q0 124 -45 235t-122 190.5t-184.5 126t-227.5 46.5q-161 0 -294 -79t-209.5 -216.5t-76.5 -302.5zM82 725q0 154 59.5 294.5t160.5 242.5t240.5 162.5t293.5 60.5t294 -60.5
t241.5 -162.5t161.5 -242.5t60 -294.5q0 -205 -101.5 -379.5t-276 -276.5t-379.5 -102q-154 0 -294 60.5t-240.5 162t-160 242t-59.5 293.5zM885 758q55 0 87 29t32 79q0 51 -32 81t-87 30h-111v-219h111zM774 598v-281h-192v820h338q117 0 198.5 -80t81.5 -191t-81 -189.5
t-199 -78.5h-146z" />
    <glyph glyph-name="filledbox" unicode="&#x25a0;" horiz-adv-x="1712" 
d="M133 1452h1446v-1452h-1446v1452z" />
    <glyph glyph-name="H22073" unicode="&#x25a1;" horiz-adv-x="1712" 
d="M133 0v1452h1446v-1452h-1446zM367 227h972v996h-972v-996z" />
    <glyph glyph-name="uni25AF" unicode="&#x25af;" horiz-adv-x="1210" 
d="M133 0v1452h944v-1452h-944zM360 213h490v1030h-490v-1030z" />
    <glyph glyph-name="triagup" unicode="&#x25b2;" horiz-adv-x="1798" 
d="M1757 0h-1716l862 1485z" />
    <glyph glyph-name="uni25B3" unicode="&#x25b3;" horiz-adv-x="1798" 
d="M1757 0h-1716l858 1485zM899 1016l-453 -787h904z" />
    <glyph glyph-name="lozenge" unicode="&#x25ca;" horiz-adv-x="1247" 
d="M625 270l262 455l-262 457l-265 -457zM475 1452h297l424 -727l-424 -725h-297l-424 725z" />
    <glyph glyph-name="circle" unicode="&#x25cb;" horiz-adv-x="1681" 
d="M82 725q0 155 60 295.5t162 242.5t242.5 162t295.5 60t295 -60t241.5 -162t161 -242.5t59.5 -295.5t-59.5 -295.5t-161 -241.5t-241.5 -161t-295 -60t-295.5 60t-242.5 161t-162 241.5t-60 295.5zM317 725q0 -142 70 -263.5t191 -193t264 -71.5q141 0 260.5 71.5
t188.5 193t69 263.5t-69 263.5t-188.5 193t-260.5 71.5q-143 0 -264 -71.5t-191 -193t-70 -263.5z" />
    <glyph glyph-name="H18533" unicode="&#x25cf;" horiz-adv-x="1681" 
d="M82 725q0 155 60 295.5t161 242.5t241.5 162t295.5 60t295.5 -60t242 -162t161.5 -242.5t60 -295.5t-60 -295.5t-161.5 -241.5t-242 -161t-295.5 -60t-295.5 60t-241.5 161t-161 241.5t-60 295.5z" />
    <glyph glyph-name="uni262E" unicode="&#x262e;" horiz-adv-x="1673" 
d="M1591 725q0 -123 -38 -239t-108 -209t-162.5 -163t-208 -108.5t-238.5 -38.5q-154 0 -293.5 60t-240.5 161.5t-160.5 242t-59.5 294.5q0 155 59.5 295.5t160.5 242.5t240.5 162t293.5 60t294 -60t241 -162t160.5 -242.5t59.5 -295.5zM1360 725q0 191 -117.5 336.5
t-296.5 187.5v-397l371 -322q43 94 43 195zM309 725q0 -105 39 -190l369 317v393q-179 -42 -293.5 -185.5t-114.5 -334.5zM946 203q142 34 250 133l-250 225v-358zM469 340q98 -101 248 -137v358z" />
    <glyph glyph-name="uni2713" unicode="&#x2713;" horiz-adv-x="1955" 
d="M649 -33l-600 664l170 160l438 -478l1088 1174l168 -166z" />
    <glyph glyph-name="uni2715" unicode="&#x2715;" horiz-adv-x="1591" 
d="M795 561l-568 -571l-164 166l568 571l-568 567l166 164l566 -565l561 565l164 -164l-562 -567l574 -571l-164 -166z" />
    <glyph glyph-name="uni2780" unicode="&#x2780;" horiz-adv-x="1675" 
d="M256 725q0 -165 76.5 -301.5t210 -215.5t293.5 -79t293.5 79t209.5 215.5t76 301.5q0 124 -45 235t-122 190.5t-184.5 126t-227.5 46.5q-161 0 -294 -79t-209.5 -216.5t-76.5 -302.5zM82 725q0 154 59.5 294.5t160.5 242.5t240.5 162.5t293.5 60.5t294 -60.5
t241.5 -162.5t161.5 -242.5t60 -294.5q0 -205 -101.5 -379.5t-276 -276.5t-379.5 -102q-154 0 -294 60.5t-240.5 162t-160 242t-59.5 293.5zM768 354v457h-186v135q90 0 143.5 48t67.5 112h186v-752h-211z" />
    <glyph glyph-name="uni2781" unicode="&#x2781;" horiz-adv-x="1675" 
d="M256 725q0 -165 76.5 -301.5t210 -215.5t293.5 -79t293.5 79t209.5 215.5t76 301.5q0 124 -45 235t-122 190.5t-184.5 126t-227.5 46.5q-161 0 -294 -79t-209.5 -216.5t-76.5 -302.5zM82 725q0 154 59.5 294.5t160.5 242.5t240.5 162.5t293.5 60.5t294 -60.5
t241.5 -162.5t161.5 -242.5t60 -294.5q0 -205 -101.5 -379.5t-276 -276.5t-379.5 -102q-154 0 -294 60.5t-240.5 162t-160 242t-59.5 293.5zM543 829q-8 19 -8 60q0 111 76.5 182.5t217.5 71.5q135 0 213 -72t78 -178q0 -71 -40.5 -125.5t-121.5 -103.5l-143 -86
q-24 -15 -24 -31h335v-174h-596v24q0 105 42.5 185t140.5 137l123 72q77 47 77 104q0 32 -23 56t-63 24q-48 0 -76 -28.5t-28 -78.5q0 -19 6 -37z" />
    <glyph glyph-name="uni2782" unicode="&#x2782;" horiz-adv-x="1675" 
d="M256 725q0 -165 76.5 -301.5t210 -215.5t293.5 -79t293.5 79t209.5 215.5t76 301.5q0 124 -45 235t-122 190.5t-184.5 126t-227.5 46.5q-161 0 -294 -79t-209.5 -216.5t-76.5 -302.5zM82 725q0 154 59.5 294.5t160.5 242.5t240.5 162.5t293.5 60.5t294 -60.5
t241.5 -162.5t161.5 -242.5t60 -294.5q0 -205 -101.5 -379.5t-276 -276.5t-379.5 -102q-154 0 -294 60.5t-240.5 162t-160 242t-59.5 293.5zM700 606q5 -48 38.5 -78t86.5 -30q50 0 80.5 25.5t30.5 64.5q0 46 -31.5 69t-77.5 23q-37 0 -65 -12l-68 139l178 121h-329v170h581
v-168l-184 -125q95 -12 151 -69t56 -152q0 -107 -88.5 -181.5t-233.5 -74.5q-132 0 -215 68.5t-96 166.5z" />
    <glyph glyph-name="uni2783" unicode="&#x2783;" horiz-adv-x="1675" 
d="M256 725q0 -165 76.5 -301.5t210 -215.5t293.5 -79t293.5 79t209.5 215.5t76 301.5q0 124 -45 235t-122 190.5t-184.5 126t-227.5 46.5q-161 0 -294 -79t-209.5 -216.5t-76.5 -302.5zM82 725q0 154 59.5 294.5t160.5 242.5t240.5 162.5t293.5 60.5t294 -60.5
t241.5 -162.5t161.5 -242.5t60 -294.5q0 -205 -101.5 -379.5t-276 -276.5t-379.5 -102q-154 0 -294 60.5t-240.5 162t-160 242t-59.5 293.5zM469 713l346 405h223v-446h125v-162h-125v-145h-204v145h-365v203zM834 905l-199 -233h199v233z" />
    <glyph glyph-name="uni2784" unicode="&#x2784;" horiz-adv-x="1675" 
d="M256 725q0 -165 76.5 -301.5t210 -215.5t293.5 -79t293.5 79t209.5 215.5t76 301.5q0 124 -45 235t-122 190.5t-184.5 126t-227.5 46.5q-161 0 -294 -79t-209.5 -216.5t-76.5 -302.5zM82 725q0 154 59.5 294.5t160.5 242.5t240.5 162.5t293.5 60.5t294 -60.5
t241.5 -162.5t161.5 -242.5t60 -294.5q0 -205 -101.5 -379.5t-276 -276.5t-379.5 -102q-154 0 -294 60.5t-240.5 162t-160 242t-59.5 293.5zM692 598q6 -46 41.5 -74t83.5 -28q49 0 79 26t30 72q0 52 -31 78t-84 26q-64 0 -106 -45l-170 52l94 387h454v-170h-331l-31 -129
q53 47 145 47q122 0 193 -64.5t71 -179.5t-83 -192.5t-230 -77.5q-121 0 -208 65t-99 160z" />
    <glyph glyph-name="uni2785" unicode="&#x2785;" horiz-adv-x="1675" 
d="M256 725q0 -165 76.5 -301.5t210 -215.5t293.5 -79t293.5 79t209.5 215.5t76 301.5q0 124 -45 235t-122 190.5t-184.5 126t-227.5 46.5q-161 0 -294 -79t-209.5 -216.5t-76.5 -302.5zM82 725q0 154 59.5 294.5t160.5 242.5t240.5 162.5t293.5 60.5t294 -60.5
t241.5 -162.5t161.5 -242.5t60 -294.5q0 -205 -101.5 -379.5t-276 -276.5t-379.5 -102q-154 0 -294 60.5t-240.5 162t-160 242t-59.5 293.5zM1069 930q-67 24 -133 24q-87 0 -152.5 -41t-87.5 -127q63 66 174 66q118 0 192.5 -63.5t74.5 -180.5q0 -119 -90.5 -195.5
t-231.5 -76.5q-139 0 -233.5 93t-94.5 253q0 201 124 319.5t313 118.5q103 0 182 -33zM705 602q0 -43 33 -71.5t77 -28.5q45 0 78 28.5t33 71.5q0 46 -32.5 74.5t-78.5 28.5q-45 0 -77.5 -28.5t-32.5 -74.5z" />
    <glyph glyph-name="uni2786" unicode="&#x2786;" horiz-adv-x="1675" 
d="M256 725q0 -165 76.5 -301.5t210 -215.5t293.5 -79t293.5 79t209.5 215.5t76 301.5q0 124 -45 235t-122 190.5t-184.5 126t-227.5 46.5q-161 0 -294 -79t-209.5 -216.5t-76.5 -302.5zM82 725q0 154 59.5 294.5t160.5 242.5t240.5 162.5t293.5 60.5t294 -60.5
t241.5 -162.5t161.5 -242.5t60 -294.5q0 -205 -101.5 -379.5t-276 -276.5t-379.5 -102q-154 0 -294 60.5t-240.5 162t-160 242t-59.5 293.5zM1147 913q-28 -21 -55.5 -47t-68 -78.5t-72 -112.5t-59 -150t-36.5 -191h-219q18 241 141 432q50 81 121 149h-381v172h629v-174z
" />
    <glyph glyph-name="uni2787" unicode="&#x2787;" horiz-adv-x="1675" 
d="M256 725q0 -165 76.5 -301.5t210 -215.5t293.5 -79t293.5 79t209.5 215.5t76 301.5q0 124 -45 235t-122 190.5t-184.5 126t-227.5 46.5q-161 0 -294 -79t-209.5 -216.5t-76.5 -302.5zM82 725q0 154 59.5 294.5t160.5 242.5t240.5 162.5t293.5 60.5t294 -60.5
t241.5 -162.5t161.5 -242.5t60 -294.5q0 -205 -101.5 -379.5t-276 -276.5t-379.5 -102q-154 0 -294 60.5t-240.5 162t-160 242t-59.5 293.5zM838 807q43 0 67.5 23t24.5 57q0 29 -24 51.5t-68 22.5t-69.5 -22.5t-25.5 -51.5q0 -34 25 -57t70 -23zM838 500q57 0 84.5 25
t27.5 63q0 34 -29 58t-83 24q-56 0 -84.5 -24t-28.5 -58q0 -38 28 -63t85 -25zM838 338q-151 0 -235.5 61.5t-84.5 163.5q0 61 41.5 109t108.5 69q-60 20 -93.5 66t-33.5 102q0 94 79.5 153.5t217.5 59.5t216.5 -59t78.5 -154q0 -56 -33.5 -102t-93.5 -66q65 -19 108 -67
t43 -107q0 -105 -84 -167t-235 -62z" />
    <glyph glyph-name="uni2788" unicode="&#x2788;" horiz-adv-x="1675" 
d="M256 725q0 -165 76.5 -301.5t210 -215.5t293.5 -79t293.5 79t209.5 215.5t76 301.5q0 124 -45 235t-122 190.5t-184.5 126t-227.5 46.5q-161 0 -294 -79t-209.5 -216.5t-76.5 -302.5zM82 725q0 154 59.5 294.5t160.5 242.5t240.5 162.5t293.5 60.5t294 -60.5
t241.5 -162.5t161.5 -242.5t60 -294.5q0 -205 -101.5 -379.5t-276 -276.5t-379.5 -102q-154 0 -294 60.5t-240.5 162t-160 242t-59.5 293.5zM600 528q67 -24 129 -24q93 0 159 40t85 130q-29 -32 -76.5 -50t-99.5 -18q-112 0 -191.5 66t-79.5 178q0 122 87.5 197t234.5 75
q138 0 230.5 -93.5t92.5 -254.5q0 -207 -117 -322.5t-302 -115.5q-105 0 -187 33zM952 856q0 43 -32.5 71.5t-77.5 28.5q-48 0 -79.5 -28t-31.5 -72q0 -47 31.5 -75.5t79.5 -28.5q46 0 78 29t32 75z" />
    <glyph glyph-name="uniE000" unicode="&#xe000;" horiz-adv-x="1617" 
d="M51 496h344v956h1157v-235h-921v-721h338l-461 -527z" />
    <glyph glyph-name="uniE002" unicode="&#xe002;" horiz-adv-x="1986" 
d="M1495 1239l440 -514h-309q0 -155 -60 -295.5t-161 -241.5t-241.5 -161t-295.5 -60q-154 0 -294 60t-241.5 161t-161.5 241.5t-60 295.5t60 295.5t161.5 242.5t241.5 162t294 60q174 0 324 -72l-94 -217q-109 53 -228 53q-143 0 -263.5 -70t-190.5 -191t-70 -263
q0 -106 41.5 -203t111 -168t167 -113t204.5 -42q141 0 260.5 71t189 192.5t69.5 262.5h-332z" />
    <glyph glyph-name="commaaccent" unicode="&#xf6c3;" horiz-adv-x="423" 
d="M53 1403q0 56 42.5 93.5t107.5 37.5q70 0 118 -49.5t48 -126.5q0 -62 -19.5 -110t-49 -75.5t-69.5 -45t-76.5 -23.5t-74.5 -6v96q72 0 116 26t50 68q-42 -14 -60 -14q-62 0 -97.5 36t-35.5 93z" />
    <glyph glyph-name="uniFB00" unicode="&#xfb00;" horiz-adv-x="1433" 
d="M1165 1008h228v-234h-228v-774h-272v774h-389v-774h-275v774h-168v234h168v114q0 170 100 272.5t267 102.5q89 0 135 -20v-230q-23 10 -86 10q-56 0 -98.5 -31.5t-42.5 -107.5v-110h389v114q0 170 100 272.5t267 102.5q89 0 135 -20v-230q-23 10 -86 10q-24 0 -47 -6
t-46 -20.5t-37 -43.5t-14 -69v-110z" />
    <glyph glyph-name="fi" unicode="&#xfb01;" horiz-adv-x="1318" 
d="M504 774v-774h-275v774h-168v234h168v114q0 170 100 272.5t267 102.5q89 0 135 -20v-230q-23 10 -86 10q-56 0 -98.5 -31.5t-42.5 -107.5v-110h674v-1008h-271v774h-403zM874 1339q0 71 49 120.5t119 49.5t119 -49.5t49 -120.5q0 -69 -49.5 -117t-118.5 -48t-118.5 48
t-49.5 117z" />
    <glyph glyph-name="fl" unicode="&#xfb02;" horiz-adv-x="1316" 
d="M645 1257q-56 0 -98.5 -31.5t-42.5 -107.5v-110h401v475h273v-1483h-273v774h-401v-774h-275v774h-168v234h168v114q0 170 100 272.5t267 102.5q89 0 135 -20v-230q-23 10 -86 10z" />
    <glyph glyph-name="uniFB03" unicode="&#xfb03;" horiz-adv-x="1986" 
d="M1542 1339q0 72 48.5 121t117.5 49q72 0 121 -49t49 -121q0 -69 -49 -117t-121 -48q-69 0 -117.5 48t-48.5 117zM893 1126q0 168 99.5 269.5t264.5 101.5q90 0 136 -20v-230q-23 10 -86 10q-56 0 -99 -31.5t-43 -107.5v-110h680v-1008h-272v774h-408v-774h-272v774h-389
v-774h-275v774h-168v234h168v114q0 170 100 272.5t267 102.5q89 0 135 -20v-230q-23 10 -86 10q-56 0 -98.5 -31.5t-42.5 -107.5v-110h389v118z" />
    <glyph glyph-name="uniFB04" unicode="&#xfb04;" horiz-adv-x="1986" 
d="M893 1122q0 172 99 273.5t265 101.5q90 0 136 -20v-230q-23 10 -86 10q-56 0 -99 -31.5t-43 -107.5v-110h410v475h272v-1483h-272v774h-410v-774h-272v774h-389v-774h-275v774h-168v234h168v114q0 170 100 272.5t267 102.5q89 0 135 -20v-230q-23 10 -86 10
q-56 0 -98.5 -31.5t-42.5 -107.5v-110h389v114z" />
    <glyph glyph-name="uniFEFF" unicode="&#xfeff;" horiz-adv-x="0" 
 />
    <glyph glyph-name="i.latn_TRK" horiz-adv-x="550" 
d="M139 0v1008h273v-1008h-273zM106 1337q0 71 49 120.5t119 49.5q72 0 120 -49t48 -121q0 -68 -48.5 -117t-119.5 -49q-69 0 -118.5 49t-49.5 117z" />
    <glyph glyph-name="Ldot.latn_CAT" horiz-adv-x="1150" 
d="M625 827q0 66 46.5 111t112.5 45t112 -45t46 -111t-46 -110.5t-112 -44.5t-112.5 44.5t-46.5 110.5zM170 0v1452h283v-1182h647v-270h-930z" />
    <glyph glyph-name="ldot.latn_CAT" horiz-adv-x="821" 
d="M139 0v1483h273v-1483h-273zM514 676q0 68 48 115t116 47t116 -47t48 -115q0 -67 -48 -113.5t-116 -46.5t-116 46.5t-48 113.5z" />
    <glyph glyph-name="zero.numr" horiz-adv-x="811" 
d="M279 952q0 -45 4.5 -79t17 -68.5t39 -53t66.5 -18.5t67.5 18.5t40 53t17 68.5t4.5 79q0 44 -4.5 78.5t-17 69.5t-40 54.5t-67.5 19.5t-66.5 -19t-39 -53.5t-17 -69t-4.5 -80.5zM66 952q0 172 73 269q95 125 267 125q173 0 268 -125q71 -98 71 -269q0 -168 -71 -266
q-93 -125 -268 -125q-174 0 -267 125q-73 97 -73 266z" />
    <glyph glyph-name="one.numr" horiz-adv-x="526" 
d="M227 578v456h-186v135q90 0 143.5 48t67.5 112h186v-751h-211z" />
    <glyph glyph-name="two.numr" horiz-adv-x="733" 
d="M80 1032q-8 19 -8 60q0 111 77 182.5t218 71.5q134 0 212 -72t78 -178q0 -71 -40 -126t-121 -104l-144 -86q-24 -15 -24 -30h336v-175h-596v25q0 106 42 185.5t140 136.5l123 71q78 47 78 105q0 32 -23 56t-63 24q-48 0 -76.5 -28.5t-28.5 -78.5q0 -19 6 -37z" />
    <glyph glyph-name="three.numr" horiz-adv-x="751" 
d="M240 838q5 -48 38.5 -78.5t86.5 -30.5q50 0 80 25.5t30 64.5q0 46 -31 69t-77 23q-38 0 -66 -12l-68 139l179 121h-330v170h582v-168l-185 -125q95 -12 151 -69t56 -152q0 -107 -88 -181.5t-233 -74.5q-132 0 -215.5 69t-96.5 167z" />
    <glyph glyph-name="four.numr" horiz-adv-x="792" 
d="M49 924l346 405h223v-446h125v-162h-125v-146h-204v146h-365v203zM414 1116l-199 -233h199v233z" />
    <glyph glyph-name="five.numr" horiz-adv-x="727" 
d="M231 836q6 -46 41.5 -74.5t83.5 -28.5q49 0 79 26t30 72q0 52 -31 78.5t-84 26.5q-64 0 -106 -45l-170 51l94 387h455v-170h-332l-31 -129q53 47 146 47q122 0 193 -64t71 -179t-83.5 -193t-230.5 -78q-121 0 -208 65t-99 160z" />
    <glyph glyph-name="six.numr" horiz-adv-x="770" 
d="M643 1151q-70 25 -133 25q-87 0 -152.5 -41t-87.5 -127q62 65 174 65q118 0 192.5 -63.5t74.5 -180.5q0 -119 -90.5 -195.5t-231.5 -76.5q-139 0 -233.5 93t-94.5 253q0 201 124 319.5t313 118.5q105 0 182 -32zM279 823q0 -43 33 -71.5t77 -28.5q45 0 78 28.5t33 71.5
q0 46 -32.5 74.5t-78.5 28.5q-45 0 -77.5 -28.5t-32.5 -74.5z" />
    <glyph glyph-name="seven.numr" horiz-adv-x="706" 
d="M672 1155q-28 -21 -55.5 -47t-68 -79t-72 -113t-59 -150t-36.5 -191h-219q18 242 141 433q50 81 121 149h-381v172h629v-174z" />
    <glyph glyph-name="eight.numr" horiz-adv-x="763" 
d="M383 1028q43 0 67.5 23t24.5 57q0 29 -24 51.5t-68 22.5t-69 -22.5t-25 -51.5q0 -34 24.5 -57t69.5 -23zM383 721q57 0 85 25t28 63q0 33 -29.5 57.5t-83.5 24.5q-56 0 -84.5 -24t-28.5 -58q0 -38 28 -63t85 -25zM383 559q-151 0 -235.5 61.5t-84.5 163.5q0 61 41.5 110
t108.5 69q-60 20 -93.5 65.5t-33.5 101.5q0 94 79.5 153.5t217.5 59.5t216.5 -59t78.5 -154q0 -56 -33.5 -101.5t-93.5 -65.5q65 -19 108 -67.5t43 -107.5q0 -105 -84 -167t-235 -62z" />
    <glyph glyph-name="nine.numr" horiz-adv-x="761" 
d="M129 750q70 -25 129 -25q93 0 159 40t85 130q-29 -32 -76.5 -50t-99.5 -18q-112 0 -191.5 66t-79.5 178q0 122 87.5 197t234.5 75q138 0 230.5 -93.5t92.5 -254.5q0 -207 -117 -322.5t-302 -115.5q-105 0 -187 33zM481 1077q0 43 -32.5 72t-77.5 29q-48 0 -79.5 -28.5
t-31.5 -72.5q0 -47 31.5 -75.5t79.5 -28.5q46 0 78 29t32 75z" />
    <glyph glyph-name="zero.dnom" horiz-adv-x="815" 
d="M281 375q0 -45 4.5 -79t17 -68.5t39 -53t66.5 -18.5t67.5 18.5t40 53t17 68.5t4.5 79q0 35 -2.5 63t-10.5 58.5t-21.5 51.5t-37.5 34.5t-57 13.5q-40 0 -66.5 -18.5t-39 -53t-17 -69t-4.5 -80.5zM68 375q0 171 73 268q95 125 267 125q173 0 268 -125q72 -99 72 -268
q0 -167 -72 -266q-93 -125 -268 -125q-174 0 -267 125q-73 97 -73 266z" />
    <glyph glyph-name="one.dnom" horiz-adv-x="532" 
d="M231 0v457h-186v135q90 0 143.5 48t67.5 112h186v-752h-211z" />
    <glyph glyph-name="two.dnom" horiz-adv-x="737" 
d="M82 457q-8 19 -8 59q0 111 77 182.5t218 71.5q134 0 212 -72t78 -178q0 -71 -40 -125.5t-121 -103.5l-144 -86q-24 -15 -24 -31h336v-174h-596v25q0 105 42 184.5t140 136.5l123 72q78 47 78 104q0 32 -23 56t-63 24q-48 0 -76.5 -28t-28.5 -78q0 -19 6 -37z" />
    <glyph glyph-name="three.dnom" horiz-adv-x="753" 
d="M240 262q5 -48 38.5 -78t86.5 -30q50 0 80 25.5t30 64.5q0 46 -31 69t-77 23q-38 0 -66 -12l-68 139l179 121h-330v170h582v-168l-185 -125q95 -12 151 -69t56 -152q0 -107 -88 -181.5t-233 -74.5q-132 0 -215.5 68.5t-96.5 166.5z" />
    <glyph glyph-name="four.dnom" horiz-adv-x="796" 
d="M51 348l346 406h224v-447h124v-162h-124v-145h-205v145h-365v203zM416 541l-199 -234h199v234z" />
    <glyph glyph-name="five.dnom" horiz-adv-x="733" 
d="M233 258q6 -46 41.5 -74t83.5 -28q49 0 79 26t30 72q0 52 -31 78t-84 26q-64 0 -106 -45l-170 52l94 387h455v-170h-332l-31 -129q53 47 146 47q122 0 193 -64.5t71 -179.5t-83.5 -192.5t-230.5 -77.5q-121 0 -208 65t-99 160z" />
    <glyph glyph-name="six.dnom" horiz-adv-x="774" 
d="M645 578q-67 24 -133 24q-87 0 -152.5 -41t-87.5 -127q63 66 174 66q118 0 192.5 -63.5t74.5 -180.5q0 -119 -90.5 -195.5t-231.5 -76.5q-139 0 -233.5 93t-94.5 253q0 201 124 319.5t313 118.5q103 0 182 -33zM281 250q0 -43 33 -71.5t77 -28.5q45 0 78 28.5t33 71.5
q0 46 -32.5 74t-78.5 28q-45 0 -77.5 -28t-32.5 -74z" />
    <glyph glyph-name="seven.dnom" horiz-adv-x="710" 
d="M674 580q-28 -21 -55.5 -47t-68 -79t-72 -113t-59 -150t-36.5 -191h-219q18 241 141 432q51 83 121 150h-381v172h629v-174z" />
    <glyph glyph-name="eight.dnom" horiz-adv-x="768" 
d="M385 453q43 0 67.5 22.5t24.5 56.5q0 29 -24 51.5t-68 22.5t-69 -22.5t-25 -51.5q0 -34 24.5 -56.5t69.5 -22.5zM385 145q57 0 85 25t28 63q0 33 -29.5 57.5t-83.5 24.5q-56 0 -84.5 -24t-28.5 -58q0 -38 28 -63t85 -25zM385 -16q-151 0 -235 61.5t-84 163.5
q0 61 41 109.5t108 68.5q-60 20 -93.5 66t-33.5 102q0 94 79.5 153.5t217.5 59.5t216.5 -59t78.5 -154q0 -56 -33.5 -102t-93.5 -66q65 -19 108.5 -67.5t43.5 -106.5q0 -105 -84.5 -167t-235.5 -62z" />
    <glyph glyph-name="nine.dnom" horiz-adv-x="768" 
d="M133 176q67 -24 129 -24q93 0 159 40t85 130q-29 -32 -76.5 -50t-99.5 -18q-112 0 -191.5 66t-79.5 178q0 122 87.5 197t234.5 75q139 0 231.5 -93.5t92.5 -254.5q0 -207 -117.5 -322.5t-302.5 -115.5q-108 0 -187 32zM485 504q0 43 -32.5 71.5t-77.5 28.5
q-48 0 -79.5 -28t-31.5 -72q0 -47 31.5 -76t79.5 -29q45 0 77.5 29.5t32.5 75.5z" />
    <glyph glyph-name="space.frac" horiz-adv-x="96" 
 />
    <glyph glyph-name="a.ordn" horiz-adv-x="788" 
d="M498 934l-150 -25q-84 -14 -84 -82q0 -33 23 -56t67 -23q62 0 103 36t41 119v31zM61 815q0 88 60 143.5t153 69.5l170 25q54 9 54 49q0 38 -29 62t-86 24t-90.5 -32.5t-38.5 -78.5l-178 39q9 91 89.5 162.5t219.5 71.5q158 0 233.5 -77t75.5 -196v-346q0 -57 8 -113h-184
q-6 42 -6 82q-70 -102 -205 -102q-113 0 -179.5 63.5t-66.5 153.5z" />
    <glyph glyph-name="b.ordn" horiz-adv-x="907" 
d="M102 618v1039h205v-400q25 38 81.5 64.5t127.5 26.5q152 0 241 -104.5t89 -268.5q0 -162 -94.5 -267.5t-243.5 -105.5q-69 0 -123 27.5t-82 70.5v-82h-201zM637 975q0 88 -47.5 136t-120.5 48q-70 0 -117 -48t-47 -136t47 -137.5t117 -49.5q71 0 119.5 49.5t48.5 137.5z
" />
    <glyph glyph-name="c.ordn" horiz-adv-x="823" 
d="M436 1157q-72 0 -120 -48.5t-48 -135.5q0 -88 48.5 -136.5t123.5 -48.5q61 0 99.5 32t52.5 79l184 -57q-27 -101 -115.5 -172.5t-220.5 -71.5q-161 0 -271 106t-110 269q0 164 108 270.5t265 106.5q138 0 225 -71.5t115 -172.5l-188 -59q-13 48 -50 79t-98 31z" />
    <glyph glyph-name="d.ordn" horiz-adv-x="907" 
d="M272 975q0 -89 47.5 -138t118.5 -49q70 0 117 49.5t47 137.5t-47 136t-117 48q-71 0 -118.5 -48t-47.5 -136zM805 745q0 -53 6 -127h-201q-4 32 -4 78q-24 -42 -75.5 -68t-118.5 -26q-152 0 -251.5 105t-99.5 268q0 159 97.5 266t247.5 107q82 0 129 -24.5t65 -55.5v389
h205v-912z" />
    <glyph glyph-name="e.ordn" horiz-adv-x="827" 
d="M563 1057q-2 53 -37.5 90t-109.5 37q-66 0 -104.5 -39t-43.5 -88h295zM756 823q-31 -99 -115.5 -162t-212.5 -63q-153 0 -261 103t-108 276q0 110 50.5 196.5t131 131.5t173.5 45q166 0 259 -97t93 -270q0 -51 -4 -63h-498q4 -63 52 -104.5t116 -41.5q108 0 148 98z" />
    <glyph glyph-name="f.ordn" horiz-adv-x="569" 
d="M379 1153v-535h-211v535h-115v176h115v68q0 125 71 198.5t197 73.5q63 0 103 -14v-174q-19 8 -66 8q-37 0 -65.5 -21.5t-28.5 -70.5v-68h156v-176h-156z" />
    <glyph glyph-name="g.ordn" horiz-adv-x="888" 
d="M244 633q12 -56 53.5 -89.5t105.5 -33.5q181 0 181 188v37q-64 -84 -193 -84q-143 0 -237.5 97.5t-94.5 246.5q0 144 94 246t238 102q78 0 127 -27.5t70 -64.5v78h200v-624q0 -78 -22 -144.5t-66 -119t-117.5 -83t-170.5 -30.5q-145 0 -240 74t-113 178zM428 834
q70 0 114 43.5t44 117.5q0 75 -46 120.5t-112 45.5q-68 0 -113 -45t-45 -121q0 -74 44 -117.5t114 -43.5z" />
    <glyph glyph-name="h.ordn" horiz-adv-x="858" 
d="M311 618h-209v1039h209v-379q30 35 81.5 52.5t103.5 17.5q132 0 200 -79.5t68 -203.5v-447h-209v412q0 58 -31 92.5t-90 34.5q-54 0 -86 -33t-37 -88v-418z" />
    <glyph glyph-name="i.ordn" horiz-adv-x="413" 
d="M102 621v708h209v-708h-209zM82 1552q0 54 36 89.5t87 35.5q54 0 90.5 -35.5t36.5 -89.5q0 -51 -36.5 -86.5t-90.5 -35.5q-51 0 -87 35.5t-36 86.5z" />
    <glyph glyph-name="j.ordn" horiz-adv-x="413" 
d="M102 1329h209v-764q0 -106 -63 -171.5t-168 -65.5q-87 0 -117 18v174q19 -8 64 -8q75 0 75 76v741zM82 1554q0 51 36 88t87 37q53 0 90 -36.5t37 -88.5q0 -54 -36.5 -89t-90.5 -35q-52 0 -87.5 35.5t-35.5 88.5z" />
    <glyph glyph-name="k.ordn" horiz-adv-x="819" 
d="M528 1032l285 -411h-254l-176 256l-72 -76v-180h-209v1038h209v-576l226 246h272z" />
    </font>
</defs>
</svg>
