<?xml version="1.0" standalone="no"?>
<!DOCTYPE svg PUBLIC "-//W3C//DTD SVG 1.1//EN" "http://www.w3.org/Graphics/SVG/1.1/DTD/svg11.dtd" >
<svg xmlns="http://www.w3.org/2000/svg" xmlns:xlink="http://www.w3.org/1999/xlink" version="1.1">
<metadata>
Created by FontForge 20170731 at Thu Sep 29 05:36:11 2022
 By Aleksey,,,
(c) 2019, Copyright by Lineto. All rights reserved.
</metadata>
<defs>
<font id="SVN-Circular-BoldItalic" horiz-adv-x="1193" >
  <font-face 
    font-family="SVN-Circular"
    font-weight="700"
    font-style="italic"
    font-stretch="normal"
    units-per-em="2048"
    panose-1="2 1 8 4 1 1 1 1 1 4"
    ascent="1638"
    descent="-410"
    x-height="1008"
    cap-height="1452"
    bbox="-526 -512 3353 2191"
    underline-thickness="102"
    underline-position="-307"
    slope="-12"
    unicode-range="U+000D-FEFF"
  />
<missing-glyph horiz-adv-x="481" 
 />
    <glyph glyph-name="f_f" unicode="ff" horiz-adv-x="1404" 
d="M100 0l164 776h-170l49 232h172l31 151q20 93 60 161t94.5 105.5t114 54.5t128.5 17q50 0 96.5 -11t69.5 -24l-47 -223l-9 4q-9 4 -31 9t-48 5q-130 0 -162 -127l-24 -122h377l30 151q20 94 60 161.5t94.5 105t115 54.5t130.5 17q50 0 95.5 -10.5t68.5 -24.5l-48 -223
l-9 4q-9 4 -31 9t-48 5q-129 0 -161 -127l-25 -122h215l-51 -232h-213l-164 -776h-274l163 776h-374l-164 -776h-275z" />
    <glyph glyph-name="f_f_i" unicode="ffi" horiz-adv-x="1939" 
d="M100 0l164 776h-170l49 232h172l31 151q20 93 60 161t94.5 105.5t114 54.5t128.5 17q50 0 96.5 -11t69.5 -24l-47 -223l-9 4q-9 4 -31 9t-48 5q-130 0 -162 -127l-24 -122h377l30 151q20 94 60 161.5t94.5 105t115 54.5t130.5 17q50 0 95.5 -10.5t68.5 -24.5l-48 -223
l-9 4q-9 4 -31 9t-48 5q-129 0 -161 -127l-25 -122h649l-215 -1008h-270l166 776h-379l-164 -776h-274l163 776h-374l-164 -776h-275zM1669 1311q0 67 48 114.5t116 47.5q59 0 97 -38t38 -94q0 -69 -50 -115t-116 -46q-58 0 -95.5 37.5t-37.5 93.5z" />
    <glyph glyph-name="f_f_l" unicode="ffl" horiz-adv-x="1949" 
d="M100 0l164 776h-170l49 232h172l31 151q20 93 60 161t94.5 105.5t114 54.5t128.5 17q50 0 96.5 -11t69.5 -24l-47 -223l-9 4q-9 4 -31 9t-48 5q-130 0 -162 -127l-24 -122h377l30 151q20 94 60 161.5t94.5 105t115 54.5t130.5 17q50 0 95.5 -10.5t68.5 -24.5l-48 -223
l-9 4q-9 4 -31 9t-48 5q-129 0 -161 -127l-25 -122h391l101 475h272l-315 -1483h-271l164 776h-391l-164 -776h-274l163 776h-374l-164 -776h-275z" />
    <glyph glyph-name="f_i" unicode="fi" horiz-adv-x="1298" 
d="M375 0h-275l164 776h-170l49 232h172l35 163q39 173 143.5 249.5t249.5 76.5q50 0 96.5 -11t69.5 -24l-47 -223l-10 4q-10 4 -33 9t-49 5q-127 0 -160 -139l-22 -110h657l-215 -1008h-270l166 776h-387zM1028 1311q0 67 48 114.5t116 47.5q59 0 97 -38t38 -94
q0 -69 -50 -115t-116 -46q-58 0 -95.5 37.5t-37.5 93.5z" />
    <glyph glyph-name="f_l" unicode="fl" horiz-adv-x="1294" 
d="M375 0h-275l164 776h-170l49 232h172l35 163q39 173 143.5 249.5t249.5 76.5q50 0 96.5 -11t69.5 -24l-47 -223l-10 4q-10 4 -33 9t-49 5q-127 0 -160 -139l-22 -110h385l100 475h273l-316 -1483h-270l164 776h-385z" />
    <glyph glyph-name=".notdef" horiz-adv-x="481" 
 />
    <glyph glyph-name=".null" horiz-adv-x="0" 
 />
    <glyph glyph-name="nonmarkingreturn" horiz-adv-x="682" 
 />
    <glyph glyph-name="NULL" horiz-adv-x="0" 
 />
    <glyph glyph-name="NULL" horiz-adv-x="0" 
 />
    <glyph glyph-name="CR" unicode="&#xd;" horiz-adv-x="481" 
 />
    <glyph glyph-name="space" unicode=" " horiz-adv-x="481" 
 />
    <glyph glyph-name="exclam" unicode="!" horiz-adv-x="559" 
d="M291 1452h330l-279 -1010h-199zM27 129q0 74 52.5 127t127.5 53q65 0 105 -42t40 -103q0 -72 -54.5 -126t-121.5 -54q-65 0 -107 41.5t-42 103.5z" />
    <glyph glyph-name="quotedbl" unicode="&#x22;" horiz-adv-x="868" 
d="M225 768l-12 315q-1 20 -2 46l-1.5 39t-0.5 16q0 73 46.5 120.5t119.5 47.5q65 0 104 -37t39 -98q0 -52 -31 -107l-165 -342h-97zM610 768l-12 315q-1 20 -2 46l-1.5 39t-0.5 16q0 73 46.5 120.5t119.5 47.5q65 0 104 -37t39 -98q0 -52 -31 -107l-165 -342h-97z" />
    <glyph glyph-name="numbersign" unicode="#" horiz-adv-x="1443" 
d="M162 1008h293l69 319h215l-69 -319h268l70 319h213l-70 -319h260v-197h-301l-61 -287h260v-194h-303l-70 -330h-213l70 330h-269l-69 -330h-215l69 330h-250v194h293l62 287h-252v197zM567 524h269l61 287h-268z" />
    <glyph glyph-name="dollar" unicode="$" horiz-adv-x="1126" 
d="M338 -6q-82 24 -146 70t-100.5 103.5t-55 118t-18.5 120.5q0 8 5 43l253 43q-2 -16 -2 -39q0 -47 14.5 -90.5t43.5 -79.5t78 -58t112 -22q92 0 144.5 42.5t54.5 114.5q0 90 -111 148q-15 5 -80 36t-79 36q-261 117 -261 358q0 175 125.5 290.5t311.5 127.5l43 213h223
l-49 -236q77 -23 135 -67t89 -96.5t45.5 -102t14.5 -96.5l-258 -45q0 20 -3.5 41t-17 50.5t-36 52t-64.5 38.5t-98 16q-83 0 -133.5 -46.5t-50.5 -114.5q0 -96 102 -146l152 -69q280 -128 280 -369q0 -77 -31 -148.5t-87 -128.5t-141.5 -93t-186.5 -40l-43 -207h-223z" />
    <glyph glyph-name="percent" unicode="%" horiz-adv-x="1720" 
d="M465 877q59 0 104 44.5t45 118.5q0 55 -31.5 88t-86.5 33q-57 0 -102.5 -46t-45.5 -118q0 -55 31 -87.5t86 -32.5zM449 684q-131 0 -217.5 87t-86.5 214q0 103 52.5 189t137 133t179.5 47q130 0 216.5 -87.5t86.5 -215.5q0 -104 -54 -189.5t-138 -131.5t-176 -46z
M1249 172q59 0 104.5 45t45.5 119q0 55 -32 88t-87 33q-57 0 -102 -46t-45 -118q0 -55 30.5 -88t85.5 -33zM1233 -20q-131 0 -217 87t-86 214q0 103 52.5 188.5t136.5 132.5t179 47q130 0 217 -87.5t87 -215.5q0 -78 -32 -147.5t-83.5 -116.5t-118 -74.5t-135.5 -27.5z
M387 0h-248l1215 1329h248z" />
    <glyph glyph-name="ampersand" unicode="&#x26;" horiz-adv-x="1406" 
d="M954 0l-104 152l-27 -23q-172 -145 -372 -145q-94 0 -173 31t-130 82.5t-79 117.5t-28 137q0 79 24 144.5t72 118.5t103 93t133 83l22 12l-16 24q-100 145 -100 267q0 94 37 170t98 122.5t136 71.5t155 25q166 0 270 -96.5t104 -235.5q0 -56 -17 -106.5t-43 -87.5
t-66 -73t-76 -59.5t-84 -50.5l-52 -29l172 -245l441 372l-76 -356l-236 -201l222 -315h-310zM313 377q0 -65 47.5 -110.5t120.5 -45.5q98 0 221 101l19 14l-201 287l-53 -29q-81 -43 -117.5 -92t-36.5 -125zM682 958q139 76 139 179q0 54 -38.5 87t-98.5 33
q-56 0 -102.5 -38.5t-46.5 -114.5q0 -62 49 -131l34 -49z" />
    <glyph glyph-name="quotesingle" unicode="'" horiz-adv-x="483" 
d="M225 768l-12 315q-1 20 -2 46l-1.5 39t-0.5 16q0 73 46.5 120.5t119.5 47.5q65 0 104 -37t39 -98q0 -52 -31 -107l-165 -342h-97z" />
    <glyph glyph-name="parenleft" unicode="(" horiz-adv-x="702" 
d="M82 422q0 408 167.5 718t500.5 533l122 -164q-559 -404 -559 -1071q0 -355 201 -657l-184 -121q-109 153 -178.5 350.5t-69.5 411.5z" />
    <glyph glyph-name="parenright" unicode=")" horiz-adv-x="700" 
d="M647 899q0 -766 -670 -1243l-124 162q99 76 179.5 156.5t154 182t123.5 211.5t79 245.5t29 283.5q0 363 -201 647l184 121q246 -359 246 -766z" />
    <glyph glyph-name="asterisk" unicode="*" horiz-adv-x="960" 
d="M705 1192l251 78l31 -205l-256 -76l119 -201l-184 -122l-123 213l-197 -215l-151 127l200 210l-227 78l94 193l223 -80l45 260h226z" />
    <glyph glyph-name="plus" unicode="+" horiz-adv-x="1157" 
d="M692 90h-229v402h-387v223h387v399h229v-399h387v-223h-387v-402z" />
    <glyph glyph-name="comma" unicode="," horiz-adv-x="587" 
d="M6 141q0 85 58 139t145 54q85 0 136.5 -56t51.5 -143q0 -196 -135 -333.5t-332 -149.5l29 139q79 8 154 67t96 142q-11 -8 -47 -8q-71 0 -113.5 42.5t-42.5 106.5z" />
    <glyph glyph-name="hyphen" unicode="-" horiz-adv-x="849" 
d="M100 487l52 242h596l-54 -242h-594z" />
    <glyph glyph-name="period" unicode="." horiz-adv-x="563" 
d="M176 -12q-76 0 -123 48t-47 118q0 84 61 144t148 60q76 0 123 -48t47 -117q0 -85 -61.5 -145t-147.5 -60z" />
    <glyph glyph-name="slash" unicode="/" horiz-adv-x="1093" 
d="M170 -31h-258l1055 1514h262z" />
    <glyph glyph-name="zero" unicode="0" horiz-adv-x="1280" 
d="M371 487q0 -125 53.5 -196.5t165.5 -71.5q73 0 133.5 44t98.5 112t65 153.5t38 165t11 150.5q0 264 -219 264q-74 0 -134.5 -43.5t-99 -110.5t-64.5 -152t-37 -164.5t-11 -150.5zM575 -31q-126 0 -222.5 43.5t-152 117.5t-83 163t-27.5 190q0 74 10 153t33 165.5
t57.5 166t87 151.5t116.5 125t151.5 84.5t187.5 31.5q102 0 185 -29t138 -78t92 -115.5t53 -139.5t16 -152q0 -89 -15.5 -183.5t-46 -194.5t-83 -188.5t-121 -158.5t-166 -111t-210.5 -41z" />
    <glyph glyph-name="one" unicode="1" horiz-adv-x="737" 
d="M197 0l192 903h-283l41 187q128 4 228 69t141 170h244l-281 -1329h-282z" />
    <glyph glyph-name="two" unicode="2" horiz-adv-x="1159" 
d="M-33 0q0 4 4 28.5t4 28.5q36 190 134.5 322t291.5 219l244 109q104 46 155.5 102t51.5 133q0 71 -46.5 120.5t-141.5 49.5q-114 0 -173 -77t-59 -214l-262 29q0 220 138.5 365t371.5 145q112 0 200.5 -31.5t142.5 -85.5t82 -122.5t28 -147.5q0 -306 -355 -465l-282 -127
q-45 -21 -85.5 -57t-64.5 -80h647l-51 -244h-975z" />
    <glyph glyph-name="three" unicode="3" horiz-adv-x="1175" 
d="M375 823l413 264h-585l47 242h942l-55 -276l-396 -254q129 -12 214 -107.5t85 -238.5q0 -94 -38 -181.5t-105.5 -155t-168 -107.5t-216.5 -40q-114 0 -208 36.5t-153.5 97.5t-91.5 138t-32 160q0 26 4 37l274 31q-2 -14 -2 -39q0 -95 57 -156t154 -61q107 0 174.5 63
t67.5 166q0 92 -58.5 138.5t-144.5 46.5q-49 0 -84 -15z" />
    <glyph glyph-name="four" unicode="4" horiz-adv-x="1249" 
d="M55 582l727 747h340l-172 -803h228l-52 -241h-227l-57 -285h-279l58 285h-627zM780 1026l-485 -500h377z" />
    <glyph glyph-name="five" unicode="5" horiz-adv-x="1138" 
d="M18 406l267 51q-2 -6 -2 -27q0 -92 57.5 -156.5t159.5 -64.5q101 0 172 64.5t71 181.5q0 92 -59 144t-152 52q-107 0 -186 -69l-235 116l276 631h748l-52 -244h-542l-119 -264q82 49 194 49q195 0 303.5 -102.5t108.5 -282.5q0 -107 -38 -201.5t-105.5 -164.5
t-168.5 -111t-220 -41q-106 0 -196.5 35t-151.5 94t-95.5 137t-34.5 164v9z" />
    <glyph glyph-name="six" unicode="6" horiz-adv-x="1214" 
d="M1126 1053q-102 55 -252 55q-161 0 -289.5 -90.5t-181.5 -253.5q50 56 126.5 87.5t162.5 31.5q191 0 300.5 -106t109.5 -279q0 -114 -42.5 -213t-114.5 -167.5t-171 -107.5t-209 -39q-210 0 -347.5 140t-137.5 370q0 175 59 333t163.5 276.5t258.5 188t334 69.5
q234 0 344 -78zM606 655q-103 0 -174.5 -68t-71.5 -173q0 -91 58.5 -147t152.5 -56q99 0 171.5 67t72.5 179q0 91 -55.5 144.5t-153.5 53.5z" />
    <glyph glyph-name="seven" unicode="7" horiz-adv-x="1091" 
d="M1157 1094q-33 -22 -69.5 -50.5t-98.5 -84.5t-120.5 -119t-128.5 -154.5t-130 -190.5t-118.5 -228.5t-98.5 -266.5h-297q36 134 90.5 262t112 226.5t126.5 192.5t124.5 156.5t115.5 120.5t91 84t59 48h-665l51 239h1005z" />
    <glyph glyph-name="eight" unicode="8" horiz-adv-x="1179" 
d="M645 780q91 0 150 56t59 135q0 65 -44.5 110t-129.5 45q-101 0 -158 -56t-57 -134q0 -63 46 -109.5t134 -46.5zM317 373q0 -78 59 -126t152 -48q101 0 167.5 60t66.5 144q0 74 -53.5 124.5t-157.5 50.5q-105 0 -169.5 -60t-64.5 -145zM1034 381q0 -125 -74.5 -221
t-192 -143.5t-255.5 -47.5q-133 0 -238.5 42t-169 126.5t-63.5 200.5q0 131 89.5 225t238.5 127q-73 32 -123.5 106t-50.5 162q0 118 65.5 210t178 142t251.5 50q210 0 329.5 -100.5t119.5 -253.5q0 -119 -76 -211.5t-209 -130.5q83 -31 131.5 -111t48.5 -172z" />
    <glyph glyph-name="nine" unicode="9" horiz-adv-x="1218" 
d="M420 877q0 -91 56 -144t153 -53q104 0 171.5 66.5t67.5 171.5q0 92 -56.5 146t-149.5 54q-98 0 -170 -65.5t-72 -175.5zM117 293q122 -74 266 -74q167 0 293 98t162 261q-97 -123 -281 -123q-185 0 -301.5 112t-116.5 289q0 114 43 209.5t116 159.5t169.5 99.5
t204.5 35.5q214 0 349.5 -137.5t135.5 -372.5q0 -198 -58 -363t-160 -278.5t-245.5 -176.5t-312.5 -63q-225 0 -375 107z" />
    <glyph glyph-name="colon" unicode=":" horiz-adv-x="614" 
d="M195 -12q-73 0 -119.5 47.5t-46.5 116.5q0 82 59 141t145 59q74 0 121 -47.5t47 -116.5q0 -82 -60.5 -141t-145.5 -59zM336 657q-73 0 -119.5 47.5t-46.5 116.5q0 82 59.5 141.5t145.5 59.5q74 0 121 -47.5t47 -116.5q0 -82 -61 -141.5t-146 -59.5z" />
    <glyph glyph-name="semicolon" unicode=";" horiz-adv-x="614" 
d="M20 135q0 81 55 132.5t138 51.5q81 0 130.5 -53.5t49.5 -136.5q0 -188 -128 -318.5t-316 -142.5l26 133q74 8 148 64.5t90 134.5q-11 -8 -45 -8q-67 0 -107.5 40.5t-40.5 102.5zM336 657q-73 0 -119.5 47.5t-46.5 116.5q0 82 59.5 141.5t145.5 59.5q74 0 121 -47.5
t47 -116.5q0 -82 -61 -141.5t-146 -59.5z" />
    <glyph glyph-name="less" unicode="&#x3c;" horiz-adv-x="1128" 
d="M76 707l880 444v-252l-606 -293l606 -293v-256l-880 443v207z" />
    <glyph glyph-name="equal" unicode="=" horiz-adv-x="1325" 
d="M160 918h993v-220h-993v220zM160 512h993v-221h-993v221z" />
    <glyph glyph-name="greater" unicode="&#x3e;" horiz-adv-x="1134" 
d="M1059 502l-881 -445v252l606 293l-606 293v256l881 -444v-205z" />
    <glyph glyph-name="question" unicode="?" horiz-adv-x="1079" 
d="M367 438q0 266 221 387l114 66q123 69 123 190q0 66 -45 112t-135 46q-113 0 -173 -76t-60 -188l-254 29q5 206 145 342.5t363 136.5q107 0 193 -31t139.5 -82.5t81.5 -115.5t28 -134q0 -267 -283 -426l-94 -55q-70 -42 -105 -88.5t-42 -112.5h-217zM283 129
q0 74 52.5 127t127.5 53q65 0 105 -42t40 -103q0 -72 -54.5 -126t-121.5 -54q-65 0 -107 41.5t-42 103.5z" />
    <glyph glyph-name="at" unicode="@" horiz-adv-x="1705" 
d="M946 -98q-178 0 -330.5 56.5t-261 157t-170 245.5t-61.5 317q0 174 64 325.5t172.5 256.5t256.5 165t312 60q155 0 292 -51.5t234.5 -140.5t154 -214.5t56.5 -267.5q0 -150 -61 -272.5t-156.5 -188t-202.5 -65.5q-75 0 -125 35t-69 88q-37 -60 -102.5 -93.5t-135.5 -33.5
q-134 0 -222.5 99t-88.5 255q0 199 118.5 330t284.5 131q65 0 120.5 -28.5t78.5 -84.5l16 86h195l-107 -502q-6 -24 -6 -39q0 -28 17.5 -46.5t48.5 -18.5q78 0 140 101.5t62 244.5q0 217 -150.5 353t-389.5 136q-170 0 -306.5 -76.5t-215 -217.5t-78.5 -322
q0 -127 42.5 -236t120 -189.5t194.5 -126.5t259 -46q219 0 377 121l98 -139q-81 -73 -216 -118.5t-259 -45.5zM1059 750q0 75 -36 118t-103 43q-90 0 -148.5 -76t-58.5 -182q0 -87 35.5 -137.5t109.5 -50.5q85 0 140.5 80.5t60.5 204.5z" />
    <glyph glyph-name="A" unicode="A" horiz-adv-x="1445" 
d="M956 332h-561l-186 -332h-318l850 1452h324l231 -1452h-292zM541 590h379l-76 545z" />
    <glyph glyph-name="B" unicode="B" horiz-adv-x="1263" 
d="M831 1452q186 0 287 -94.5t101 -247.5q0 -128 -80 -235.5t-201 -139.5q80 -27 138.5 -104t58.5 -185q0 -196 -141.5 -321t-362.5 -125h-588l307 1452h481zM690 852q110 0 177 58t67 155q0 71 -47 110t-139 39h-170l-78 -362h190zM592 236q117 0 189.5 60.5t72.5 162.5
q0 75 -47.5 117t-144.5 42h-211l-80 -382h221z" />
    <glyph glyph-name="C" unicode="C" horiz-adv-x="1492" 
d="M901 1483q113 0 209 -28t163 -73.5t117.5 -107.5t78.5 -126.5t40 -133.5l-274 -82q-11 53 -35.5 100t-65.5 89.5t-106.5 67.5t-146.5 25q-130 0 -239.5 -70.5t-176 -202.5t-66.5 -298q0 -181 101 -292t276 -111q75 0 139 22.5t109.5 62.5t78 86t56.5 101l254 -102
q-35 -85 -90 -160t-134.5 -140.5t-192 -104t-244.5 -38.5q-285 0 -463 185.5t-178 474.5q0 159 43.5 297.5t119.5 239.5t176.5 174t215.5 109t235 36z" />
    <glyph glyph-name="D" unicode="D" horiz-adv-x="1468" 
d="M641 266q89 0 174.5 39t153.5 108t109.5 176t41.5 232q0 175 -92 272t-274 97h-181l-196 -924h264zM43 0l305 1452h430q293 0 462 -165.5t169 -438.5q0 -160 -42.5 -298.5t-116.5 -238t-172.5 -170.5t-212 -106t-234.5 -35h-588z" />
    <glyph glyph-name="E" unicode="E" horiz-adv-x="1181" 
d="M43 0l307 1452h905l-57 -266h-620l-72 -332h563l-53 -252h-563l-72 -336h623l-56 -266h-905z" />
    <glyph glyph-name="F" unicode="F" horiz-adv-x="1167" 
d="M43 0l307 1452h914l-58 -268h-631l-75 -359h561l-53 -260h-562l-120 -565h-283z" />
    <glyph glyph-name="G" unicode="G" horiz-adv-x="1568" 
d="M881 1217q-96 0 -183 -41t-153 -113.5t-105 -181.5t-39 -238q0 -188 99 -301t276 -113q151 0 257.5 77t144.5 204h-451l51 246h713l-158 -756h-217l6 150q-65 -82 -165.5 -129.5t-225.5 -47.5q-276 0 -447 180.5t-171 473.5q0 133 30.5 252.5t85 212t128.5 167.5
t162 123.5t185.5 74.5t198.5 26q113 0 210 -26.5t165 -70.5t119 -104t80 -123.5t41 -132.5l-277 -82q-11 52 -36 98.5t-67 87t-108 64t-149 23.5z" />
    <glyph glyph-name="H" unicode="H" horiz-adv-x="1492" 
d="M909 0l127 602h-583l-127 -602h-283l307 1452h283l-123 -584h584l123 584h284l-307 -1452h-285z" />
    <glyph glyph-name="I" unicode="I" horiz-adv-x="628" 
d="M43 0l307 1452h287l-307 -1452h-287z" />
    <glyph glyph-name="J" unicode="J" horiz-adv-x="1126" 
d="M1147 1452l-223 -1049q-40 -197 -173 -315.5t-323 -118.5q-198 0 -312 112t-114 290q0 75 12 131l13 53l276 39l-22 -113q-9 -35 -9 -67q0 -78 43 -128t127 -50q78 0 130 52.5t71 145.5l217 1018h287z" />
    <glyph glyph-name="K" unicode="K" horiz-adv-x="1394" 
d="M623 602l-211 -190l-86 -412h-283l307 1452h283l-129 -612l680 612h389l-727 -651l420 -801h-332z" />
    <glyph glyph-name="L" unicode="L" horiz-adv-x="1114" 
d="M43 0l307 1452h283l-250 -1182h631l-58 -270h-913z" />
    <glyph glyph-name="M" unicode="M" horiz-adv-x="1945" 
d="M1368 0l213 1012l-616 -1012h-224l-215 999l-213 -999h-270l307 1452h346l230 -1042l624 1042h404l-307 -1452h-279z" />
    <glyph glyph-name="N" unicode="N" horiz-adv-x="1542" 
d="M961 0l-420 1026l-217 -1026h-281l307 1452h326l385 -969l207 969h282l-307 -1452h-282z" />
    <glyph glyph-name="O" unicode="O" horiz-adv-x="1593" 
d="M111 618q0 134 30.5 255t84 214.5t127 169t160.5 125t183 75.5t195 26q288 0 464.5 -179t176.5 -470q0 -161 -43 -301t-117.5 -242t-173.5 -175.5t-212.5 -110t-231.5 -36.5q-288 0 -465.5 180t-177.5 469zM1241 817q0 185 -98 291t-269 106q-132 0 -241.5 -77.5
t-171.5 -209t-62 -288.5q0 -183 100 -290t267 -107q129 0 236.5 72t171.5 204t67 299z" />
    <glyph glyph-name="P" unicode="P" horiz-adv-x="1226" 
d="M823 1452q195 0 316 -112t121 -289q0 -229 -156.5 -364.5t-405.5 -135.5h-256l-116 -551h-283l307 1452h473zM584 1206l-90 -411h202q122 0 197.5 61t75.5 174q0 82 -52.5 129t-158.5 47h-174z" />
    <glyph glyph-name="Q" unicode="Q" horiz-adv-x="1593" 
d="M111 618q0 134 30.5 255t84 214.5t127 169t160.5 125t183 75.5t195 26q288 0 464.5 -179t176.5 -470q0 -209 -70 -376t-192 -282l145 -207l-213 -137l-143 203q-150 -66 -305 -66q-288 0 -465.5 180t-177.5 469zM909 692l197 -282q135 176 135 407q0 185 -98 291
t-269 106q-132 0 -241.5 -77.5t-171.5 -209t-62 -288.5q0 -183 100 -290t267 -107q74 0 133 20l-205 291z" />
    <glyph glyph-name="R" unicode="R" horiz-adv-x="1304" 
d="M629 561h-185l-118 -561h-283l307 1452h506q197 0 306.5 -104t109.5 -269q0 -180 -100 -304.5t-265 -176.5l226 -598h-302zM713 807q123 0 196.5 64.5t73.5 170.5q0 76 -47.5 120t-142.5 44h-211l-86 -399h217z" />
    <glyph glyph-name="S" unicode="S" horiz-adv-x="1228" 
d="M578 215q103 0 163 49.5t62 128.5q0 109 -123 162l-176 78q-281 124 -281 389q0 132 70 238t187 163.5t257 57.5q110 0 198.5 -29t142 -74t89.5 -103t50 -111t14 -103l-264 -45q0 21 -4 44t-18.5 56t-39 58t-71.5 43t-109 18q-95 0 -156 -54.5t-61 -129.5
q0 -106 115 -160l168 -74q158 -71 230.5 -169.5t72.5 -231.5q0 -86 -35.5 -166t-99 -142.5t-162 -100.5t-215.5 -38q-116 0 -210.5 30t-155.5 78.5t-103 112t-60 127t-18 127.5q0 34 4 43l264 45q-2 -18 -2 -43q0 -72 27 -131t91.5 -99.5t158.5 -43.5z" />
    <glyph glyph-name="T" unicode="T" horiz-adv-x="1212" 
d="M879 1184l-250 -1184h-283l250 1184h-440l57 268h1145l-58 -268h-421z" />
    <glyph glyph-name="U" unicode="U" horiz-adv-x="1409" 
d="M1430 1452l-211 -993q-48 -236 -204 -363t-374 -127q-230 0 -370 126t-140 339q0 59 16 141l185 877h282l-186 -889q-10 -55 -10 -92q0 -107 60.5 -167t185.5 -60q224 0 280 262l199 946h287z" />
    <glyph glyph-name="V" unicode="V" horiz-adv-x="1386" 
d="M635 369l590 1083h317l-833 -1452h-289l-219 1452h291z" />
    <glyph glyph-name="W" unicode="W" horiz-adv-x="2082" 
d="M1350 1452l110 -1008l455 1008h301l-688 -1452h-285l-113 1034l-524 -1034h-297l-96 1452h283l55 -1003l506 1003h293z" />
    <glyph glyph-name="X" unicode="X" horiz-adv-x="1323" 
d="M242 0h-355l637 733l-329 719h321l213 -481l406 481h352l-639 -737l332 -715h-326l-211 477z" />
    <glyph glyph-name="Y" unicode="Y" horiz-adv-x="1302" 
d="M193 1452h299l206 -569l404 569h340l-645 -844l-129 -608h-283l129 612z" />
    <glyph glyph-name="Z" unicode="Z" horiz-adv-x="1290" 
d="M-43 0l57 272l918 912h-705l58 268h1085l-55 -262l-932 -922h745l-57 -268h-1114z" />
    <glyph glyph-name="bracketleft" unicode="[" horiz-adv-x="661" 
d="M-61 -336l421 1995h474l-43 -207h-250l-334 -1577h248l-45 -211h-471z" />
    <glyph glyph-name="backslash" unicode="\" horiz-adv-x="1081" 
d="M231 1483h234l438 -1514h-233z" />
    <glyph glyph-name="bracketright" unicode="]" horiz-adv-x="661" 
d="M-147 -336l45 211h247l334 1577h-248l43 207h474l-424 -1995h-471z" />
    <glyph glyph-name="asciicircum" unicode="^" horiz-adv-x="1177" 
d="M729 1452l406 -733h-256l-252 473l-252 -473h-260l405 733h209z" />
    <glyph glyph-name="underscore" unicode="_" horiz-adv-x="1114" 
d="M-119 0h1047v-223h-1047v223z" />
    <glyph glyph-name="grave" unicode="`" horiz-adv-x="569" 
d="M6 1436h303l119 -308h-211z" />
    <glyph glyph-name="a" unicode="a" horiz-adv-x="1208" 
d="M594 788q-82 0 -144.5 -53.5t-92 -131.5t-29.5 -163q0 -104 52 -163.5t144 -59.5q109 0 185.5 98t76.5 258q0 101 -50.5 158t-141.5 57zM1153 1008l-166 -787q-18 -76 -18 -182q0 -21 2 -39h-252q-2 16 -2 47q0 26 4 76q-92 -141 -270 -141q-181 0 -287.5 128t-106.5 320
q0 256 148 429t366 173q124 0 195 -43t98 -96l25 115h264z" />
    <glyph glyph-name="b" unicode="b" horiz-adv-x="1232" 
d="M8 0l311 1483h269l-117 -557q42 48 113.5 76t156.5 28q189 0 291.5 -118.5t102.5 -303.5q0 -136 -40.5 -254t-110.5 -201t-168 -130.5t-210 -47.5q-111 0 -192.5 49.5t-110.5 116.5l-31 -141h-264zM647 791q-116 0 -194 -99t-78 -243q0 -107 56.5 -169.5t148.5 -62.5
q50 0 98.5 23t89.5 65t66.5 110t25.5 150q0 109 -58 167.5t-155 58.5z" />
    <glyph glyph-name="c" unicode="c" horiz-adv-x="1118" 
d="M815 627q-13 70 -66 117t-143 47q-109 0 -193.5 -91t-84.5 -251q0 -109 61 -170.5t162 -61.5q151 0 227 148l226 -89q-60 -131 -180.5 -219t-288.5 -88q-208 0 -343 131t-135 342q0 131 46.5 244t124.5 189.5t181 119.5t216 43q98 0 178 -29t131 -79t82.5 -107.5
t44.5 -122.5z" />
    <glyph glyph-name="d" unicode="d" horiz-adv-x="1208" 
d="M987 221q-18 -80 -22 -178q0 -35 2 -43h-248q-2 18 -2 51q0 26 4 72q-92 -141 -270 -141q-181 0 -287.5 128t-106.5 320q0 256 148 429t366 173q115 0 184.5 -38.5t102.5 -92.5l123 582h272zM594 788q-82 0 -144.5 -53.5t-92 -131.5t-29.5 -163q0 -104 52 -163.5
t144 -59.5q109 0 185.5 98t76.5 258q0 101 -50.5 158t-141.5 57z" />
    <glyph glyph-name="e" unicode="e" horiz-adv-x="1122" 
d="M780 618q2 14 2 25q0 67 -47.5 120.5t-142.5 53.5q-99 0 -163 -55.5t-91 -143.5h442zM309 430q0 -102 59.5 -167.5t166.5 -65.5q80 0 136.5 36t88.5 95l209 -105q-55 -109 -170 -181.5t-281 -72.5q-127 0 -231.5 56t-168 163t-63.5 246q0 135 46.5 250.5t123 191.5
t173 119t198.5 43q206 0 324 -117.5t118 -306.5q0 -86 -28 -182z" />
    <glyph glyph-name="f" unicode="f" horiz-adv-x="755" 
d="M539 776l-164 -776h-275l164 776h-170l49 232h172l35 163q39 173 143.5 249.5t249.5 76.5q50 0 96.5 -11t69.5 -24l-47 -223l-10 4q-10 4 -33 9t-49 5q-127 0 -160 -139l-22 -110h213l-49 -232h-213z" />
    <glyph glyph-name="g" unicode="g" horiz-adv-x="1210" 
d="M791 590q0 87 -52.5 142.5t-144.5 55.5q-112 0 -186 -81.5t-74 -214.5q0 -94 54 -150.5t149 -56.5q108 0 181 83t73 222zM182 12q0 -83 56 -139.5t161 -56.5q225 0 291 274l17 68q-32 -42 -94.5 -71.5t-143.5 -29.5q-186 0 -297 118t-111 300q0 152 65 278.5t181.5 200.5
t261.5 74q114 0 189.5 -38t107.5 -97l25 115h266l-192 -920q-23 -107 -66.5 -195t-111 -160t-167.5 -112.5t-223 -40.5q-113 0 -203 34t-144 89.5t-82.5 122.5t-28.5 137z" />
    <glyph glyph-name="h" unicode="h" horiz-adv-x="1167" 
d="M641 0l125 584q6 30 6 59q0 69 -40 109.5t-114 40.5q-83 0 -137.5 -59t-74.5 -150l-127 -584h-271l314 1483h272l-117 -557q94 108 264 108q150 0 233 -88t83 -229q0 -47 -13 -107l-131 -610h-272z" />
    <glyph glyph-name="i" unicode="i" horiz-adv-x="546" 
d="M8 0l215 1008h271l-215 -1008h-271zM276 1311q0 67 48 114.5t116 47.5q59 0 97 -38t38 -94q0 -69 -49.5 -115t-115.5 -46q-58 0 -96 37.5t-38 93.5z" />
    <glyph glyph-name="j" unicode="j" horiz-adv-x="544" 
d="M223 1008h271l-242 -1135q-30 -145 -118.5 -219t-219.5 -74q-65 0 -114 15t-68 30l45 213l5 -2q5 -2 13.5 -4.5t19 -5t26 -4.5t30.5 -2q102 3 121 114zM276 1311q0 67 48 114.5t116 47.5q59 0 97 -38t38 -94q0 -69 -49.5 -115t-115.5 -46q-58 0 -96 37.5t-38 93.5z" />
    <glyph glyph-name="k" unicode="k" horiz-adv-x="1132" 
d="M489 403l-153 -131l-57 -272h-271l314 1483h272l-176 -828l401 353h379l-502 -428l287 -580h-305z" />
    <glyph glyph-name="l" unicode="l" horiz-adv-x="542" 
d="M8 0l314 1483h272l-315 -1483h-271z" />
    <glyph glyph-name="m" unicode="m" horiz-adv-x="1769" 
d="M629 0l125 592q6 27 6 55q0 66 -39 107t-111 41q-158 0 -200 -203l-129 -592h-271l176 836q21 88 21 172h264q0 -58 -6 -99q48 61 120 93t154 32q95 0 162.5 -40.5t104.5 -110.5q117 151 329 151q144 0 234 -87.5t90 -233.5q0 -42 -10 -97l-133 -616h-271l127 592
q6 27 6 53q0 69 -38 109.5t-113 40.5q-78 0 -129.5 -55t-71.5 -146l-127 -594h-270z" />
    <glyph glyph-name="n" unicode="n" horiz-adv-x="1169" 
d="M643 0l125 584q6 30 6 59q0 69 -39.5 109.5t-113.5 40.5q-83 0 -138 -59t-75 -150l-127 -584h-271l176 836q21 88 21 172h264q0 -62 -6 -103q47 65 123 97t160 32q148 0 229.5 -88t81.5 -229q0 -51 -12 -107l-132 -610h-272z" />
    <glyph glyph-name="o" unicode="o" horiz-adv-x="1179" 
d="M602 791q-117 0 -194.5 -97.5t-77.5 -242.5q0 -109 56.5 -171.5t150.5 -62.5q49 0 96.5 22t87 62.5t64 108t24.5 149.5q0 109 -56 170.5t-151 61.5zM1081 569q0 -162 -71.5 -299t-201.5 -219t-290 -82q-137 0 -243 62.5t-162 169t-56 237.5q0 130 44.5 242.5t121 190.5
t180.5 122.5t220 44.5q210 0 334 -133.5t124 -335.5z" />
    <glyph glyph-name="p" unicode="p" horiz-adv-x="1234" 
d="M653 791q-117 0 -195.5 -99t-78.5 -243q0 -112 56.5 -172t150.5 -60q108 0 192 93.5t84 254.5q0 108 -57 167t-152 59zM465 903q44 57 119 91t164 34q186 0 287.5 -117t101.5 -303q0 -136 -40 -254t-109.5 -201t-167 -130.5t-208.5 -47.5q-110 0 -190.5 41t-118.5 105
l-106 -510h-271l260 1225q21 88 21 172h264q0 -66 -6 -105z" />
    <glyph glyph-name="q" unicode="q" horiz-adv-x="1206" 
d="M858 -391h-270l98 465q-92 -92 -231 -92q-179 0 -288.5 129.5t-109.5 318.5q0 256 148 429t366 173q122 0 193.5 -42.5t101.5 -94.5l25 113h264zM594 786q-82 0 -144.5 -52.5t-92 -130t-29.5 -163.5q0 -104 54 -163.5t148 -59.5q108 0 184.5 96t76.5 256
q0 104 -51.5 160.5t-145.5 56.5z" />
    <glyph glyph-name="r" unicode="r" horiz-adv-x="786" 
d="M770 731q-58 14 -98 14q-228 0 -291 -280l-100 -465h-271l176 836q23 96 23 172h264q0 -76 -12 -125q95 131 280 131q55 0 86 -8z" />
    <glyph glyph-name="s" unicode="s" horiz-adv-x="937" 
d="M240 350q-2 -6 -2 -18q0 -68 43.5 -113t115.5 -45q62 0 93.5 29t31.5 71q0 64 -76 99l-112 49q-114 48 -164.5 118t-50.5 165q0 139 108 236t277 97q86 0 153.5 -21.5t107 -53.5t66 -75.5t36.5 -81.5t12 -77l-236 -37q0 57 -34.5 100.5t-112.5 43.5q-53 0 -87 -29.5
t-34 -71.5q0 -60 63 -86l129 -55q224 -98 224 -295q0 -59 -25 -116.5t-71.5 -106t-123 -78t-170.5 -29.5q-96 0 -169.5 25.5t-114.5 62.5t-67 86t-34 88.5t-8 77.5z" />
    <glyph glyph-name="t" unicode="t" horiz-adv-x="759" 
d="M428 -12q-133 0 -208 69t-75 191q0 40 9 80l94 438h-178l51 242h41q85 0 131.5 41t64.5 122l31 138h246l-66 -301h197l-51 -242h-197l-88 -420q-6 -21 -6 -41q0 -86 108 -86q51 0 72 8l-47 -217q-51 -22 -129 -22z" />
    <glyph glyph-name="u" unicode="u" horiz-adv-x="1159" 
d="M481 1008l-116 -545q-15 -64 -15 -96q0 -70 38 -111t114 -41q82 0 133.5 57t71.5 150l127 586h270l-168 -803q-23 -106 -23 -182v-23h-260q-2 14 -2 43q0 30 2 61q-40 -61 -110 -95t-142 -34q-156 0 -242.5 92t-86.5 238q0 57 20 150l119 553h270z" />
    <glyph glyph-name="v" unicode="v" horiz-adv-x="1093" 
d="M559 0h-270l-178 1008h280l88 -674l361 674h303z" />
    <glyph glyph-name="w" unicode="w" horiz-adv-x="1683" 
d="M1059 1008l78 -646l309 646h283l-519 -1008h-268l-86 686l-356 -686h-279l-98 1008h264l51 -643l334 643h287z" />
    <glyph glyph-name="x" unicode="x" horiz-adv-x="1091" 
d="M225 0h-327l477 516l-262 492h297l145 -295l258 295h332l-471 -508q20 -33 135.5 -250t134.5 -250h-299l-151 303z" />
    <glyph glyph-name="y" unicode="y" horiz-adv-x="1077" 
d="M-57 -389l348 549l-221 848h286l136 -566l339 566h306l-893 -1397h-301z" />
    <glyph glyph-name="z" unicode="z" horiz-adv-x="1009" 
d="M-41 0l51 242l580 530h-451l49 236h809l-49 -230l-598 -542h494l-49 -236h-836z" />
    <glyph glyph-name="braceleft" unicode="{" horiz-adv-x="747" 
d="M63 782q94 0 161 45.5t89 143.5l62 295q43 213 155 303t304 90h84l-44 -207h-61q-89 0 -140 -40.5t-73 -141.5l-74 -344q-24 -105 -88.5 -173.5t-169.5 -86.5q73 -23 112.5 -77.5t39.5 -131.5q0 -29 -6 -64l-68 -313q-6 -34 -6 -64q0 -133 149 -133h52l-43 -207h-60
q-156 0 -241.5 77t-85.5 222q0 62 14 117l59 275q6 27 6 53q0 69 -48 101t-126 32z" />
    <glyph glyph-name="bar" unicode="|" horiz-adv-x="503" 
d="M-59 -324l419 1983h230l-422 -1983h-227z" />
    <glyph glyph-name="braceright" unicode="}" horiz-adv-x="745" 
d="M709 551q-204 0 -248 -186l-64 -293q-46 -205 -163.5 -300.5t-307.5 -95.5h-71l45 207h57q172 0 217 191l74 344q21 100 86 165.5t172 88.5q-74 20 -114 73.5t-40 126.5q0 32 6 62l70 332q6 38 6 63q0 65 -36.5 94t-108.5 29h-56l43 207h66q151 0 236.5 -74t85.5 -217
q0 -48 -13 -115l-63 -282q-6 -27 -6 -53q0 -71 48 -104.5t128 -33.5z" />
    <glyph glyph-name="asciitilde" unicode="~" horiz-adv-x="1284" 
d="M1180 631q-57 -103 -144 -158t-192 -55q-113 0 -219 59l-97 53q-53 27 -104 27q-107 0 -180 -106l-152 120q57 103 144.5 159t191.5 56q112 0 217 -57l96 -53q56 -29 103 -29q116 0 186 105z" />
    <glyph glyph-name="uni00A0" unicode="&#xa0;" horiz-adv-x="481" 
 />
    <glyph glyph-name="exclamdown" unicode="&#xa1;" horiz-adv-x="538" 
d="M217 -430h-330l279 1010h199zM481 893q0 -74 -52.5 -127t-125.5 -53q-66 0 -106.5 41.5t-40.5 103.5q0 73 53 126.5t123 53.5q65 0 107 -41.5t42 -103.5z" />
    <glyph glyph-name="cent" unicode="&#xa2;" horiz-adv-x="1093" 
d="M377 186q-133 44 -208 154.5t-75 259.5q0 152 67.5 275t177.5 193.5t243 84.5l36 176h209l-41 -192q116 -35 185 -116.5t88 -180.5l-238 -68q-11 66 -61 109t-137 43q-50 0 -97.5 -20t-87 -58.5t-63 -100.5t-23.5 -139q0 -101 58.5 -158t156.5 -57q149 0 221 137l216 -82
q-55 -118 -163.5 -199.5t-260.5 -88.5l-33 -158h-209z" />
    <glyph glyph-name="sterling" unicode="&#xa3;" horiz-adv-x="1214" 
d="M145 768h138q-15 77 -15 133q0 124 51.5 226t157.5 165.5t248 63.5q102 0 180.5 -28.5t124 -77.5t68 -109.5t22.5 -130.5q0 -40 -6 -58l-246 -26q4 20 4 47q0 69 -39.5 112t-115.5 43q-85 0 -139 -56t-54 -171q0 -33 17 -133h362l-45 -209h-295q-8 -107 -65.5 -194
t-153.5 -127h330q86 0 135.5 49t60.5 127l236 -43q-28 -168 -141 -269.5t-279 -101.5h-711l52 246q122 24 196 112.5t82 200.5h-205z" />
    <glyph glyph-name="currency" unicode="&#xa4;" horiz-adv-x="1308" 
d="M193 502q0 118 59 221l-148 149l164 164l152 -153q99 55 215 55t211 -53l149 151l166 -164l-145 -145q63 -100 63 -225q0 -126 -63 -223l145 -146l-164 -164l-149 150q-95 -53 -213 -53q-119 0 -217 55l-150 -152l-164 164l148 150q-59 95 -59 219zM420 502
q0 -93 61 -154t154 -61q94 0 154.5 60.5t60.5 154.5t-60.5 154.5t-154.5 60.5q-93 0 -154 -61t-61 -154z" />
    <glyph glyph-name="yen" unicode="&#xa5;" horiz-adv-x="1267" 
d="M186 803h222l-199 526h295l170 -502l373 502h307l-420 -526h235l-41 -193h-364l-31 -141h367l-43 -193h-365l-57 -276h-266l57 276h-352l43 193h350l31 141h-353z" />
    <glyph glyph-name="brokenbar" unicode="&#xa6;" horiz-adv-x="528" 
d="M201 844l172 815h229l-174 -815h-227zM-47 -324l172 816h229l-174 -816h-227z" />
    <glyph glyph-name="section" unicode="&#xa7;" horiz-adv-x="1087" 
d="M240 23q-9 -30 -9 -62q0 -73 45 -113.5t121 -40.5q69 0 117.5 43t48.5 113q0 72 -61 115l-187 129q-103 68 -160 144t-57 177q0 206 219 295q-102 102 -102 248q0 92 41 171t107 131t147.5 81t165.5 29q192 0 299.5 -100t107.5 -253q0 -32 -6 -69l-262 -19q6 14 6 60
q0 72 -44.5 111.5t-119.5 39.5q-68 0 -116.5 -44t-48.5 -111q0 -65 63 -113l182 -129q105 -71 162 -144.5t57 -172.5q0 -116 -63.5 -191.5t-155.5 -109.5q103 -97 103 -238q0 -95 -40 -175.5t-105.5 -133t-148 -82t-169.5 -29.5q-190 0 -298 99.5t-108 250.5q0 34 6 74z
M453 721q-95 -52 -95 -141q0 -68 62 -109l182 -131q94 53 94 143q0 66 -61 109z" />
    <glyph glyph-name="dieresis" unicode="&#xa8;" horiz-adv-x="792" 
d="M-27 1272q0 63 47 111.5t113 48.5q58 0 94.5 -39t36.5 -95q0 -65 -50 -110t-112 -45q-56 0 -92.5 37t-36.5 92zM403 1272q0 63 47 111.5t113 48.5q58 0 94.5 -39t36.5 -95q0 -65 -50 -110t-112 -45q-56 0 -92.5 37t-36.5 92z" />
    <glyph glyph-name="copyright" unicode="&#xa9;" horiz-adv-x="1712" 
d="M125 725q0 154 59.5 294.5t160.5 242.5t240.5 162.5t293.5 60.5t294 -60.5t241.5 -162.5t161.5 -242.5t60 -294.5q0 -205 -101.5 -379.5t-276 -276.5t-379.5 -102q-154 0 -294 60.5t-240.5 162t-160 242t-59.5 293.5zM299 725q0 -165 76.5 -301.5t210 -215.5t293.5 -79
t293.5 79t209.5 215.5t76 301.5q0 124 -45 235t-122 190.5t-184.5 126t-227.5 46.5q-161 0 -294 -79t-209.5 -216.5t-76.5 -302.5zM1071 819q-12 55 -52.5 91t-109.5 36q-85 0 -149 -69.5t-64 -192.5q0 -85 46.5 -131.5t125.5 -46.5q117 0 176 112l166 -67
q-46 -100 -136.5 -167t-217.5 -67q-162 0 -262 103t-100 258q0 100 35 185.5t94 143.5t137 90.5t164 32.5q76 0 136 -22t98.5 -60.5t61.5 -81t35 -92.5z" />
    <glyph glyph-name="ordfeminine" unicode="&#xaa;" horiz-adv-x="937" 
d="M539 1157q-81 0 -125.5 -67.5t-44.5 -155.5q0 -70 35.5 -109t93.5 -39q68 0 118 60.5t50 169.5q0 68 -34.5 104.5t-92.5 36.5zM942 1327l-121 -561q-14 -58 -14 -115q0 -17 2 -33h-191q-2 14 -2 31q0 21 7 53q-69 -96 -187 -96q-126 0 -201 91t-75 227q0 183 103.5 302.5
t256.5 119.5q90 0 137.5 -30t63.5 -65l18 76h203z" />
    <glyph glyph-name="guillemotleft" unicode="&#xab;" horiz-adv-x="1134" 
d="M268 207l-205 403l361 398h272l-379 -414l197 -387h-246zM717 207l-205 403l360 398h273l-379 -414l197 -387h-246z" />
    <glyph glyph-name="logicalnot" unicode="&#xac;" horiz-adv-x="1282" 
d="M872 279v399h-768v225h1002v-624h-234z" />
    <glyph glyph-name="uni00AD" unicode="&#xad;" horiz-adv-x="849" 
d="M100 487l52 242h596l-54 -242h-594z" />
    <glyph glyph-name="registered" unicode="&#xae;" horiz-adv-x="1712" 
d="M125 725q0 154 59.5 294.5t160.5 242.5t240.5 162.5t293.5 60.5t294 -60.5t241.5 -162.5t161.5 -242.5t60 -294.5q0 -205 -101.5 -379.5t-276 -276.5t-379.5 -102q-154 0 -294 60.5t-240.5 162t-160 242t-59.5 293.5zM299 725q0 -165 76.5 -301.5t210 -215.5t293.5 -79
t293.5 79t209.5 215.5t76 301.5q0 124 -45 235t-122 190.5t-184.5 126t-227.5 46.5q-161 0 -294 -79t-209.5 -216.5t-76.5 -302.5zM922 758q63 0 105 36t42 97q0 86 -102 86h-84l-49 -219h88zM862 602h-61l-60 -285h-192l174 818h297q106 0 174 -68t68 -164
q0 -102 -59.5 -177t-158.5 -105l107 -299h-199z" />
    <glyph glyph-name="overscore" unicode="&#xaf;" horiz-adv-x="649" 
d="M-47 1182l43 198h575l-41 -198h-577z" />
    <glyph glyph-name="degree" unicode="&#xb0;" horiz-adv-x="829" 
d="M483 883q59 0 104.5 45t45.5 119q0 54 -32 87t-87 33q-57 0 -102 -45.5t-45 -117.5q0 -55 30.5 -88t85.5 -33zM467 690q-131 0 -217 87t-86 214q0 156 111 262.5t257 106.5q130 0 217 -87.5t87 -215.5q0 -104 -54 -189.5t-138.5 -131.5t-176.5 -46z" />
    <glyph glyph-name="plusminus" unicode="&#xb1;" horiz-adv-x="1241" 
d="M711 389h-230v252h-364v221h364v252h230v-252h364v-221h-364v-252zM117 313h958v-223h-958v223z" />
    <glyph glyph-name="twosuperior" unicode="&#xb2;" horiz-adv-x="729" 
d="M485 1116q97 42 97 105q0 31 -19.5 55t-62.5 24q-55 0 -83 -34t-28 -95l-188 13q0 123 83.5 202.5t221.5 79.5q136 0 210.5 -65.5t74.5 -163.5q0 -172 -218 -264l-155 -66q-32 -16 -37 -35h330l-37 -174h-576q9 255 254 361z" />
    <glyph glyph-name="threesuperior" unicode="&#xb3;" horiz-adv-x="743" 
d="M340 1167l221 115h-338l37 170h574l-39 -195l-209 -108q72 -14 115.5 -67.5t43.5 -131.5q0 -108 -92 -188t-231 -80q-132 0 -214.5 73t-82.5 175q0 21 2 35l190 10q-2 -6 -2 -17q0 -45 29.5 -75.5t81.5 -30.5q53 0 83 28t30 76q0 39 -28 61.5t-69 22.5q-30 0 -49 -8z" />
    <glyph glyph-name="acute" unicode="&#xb4;" horiz-adv-x="567" 
d="M170 1128h-233l245 308h332z" />
    <glyph glyph-name="mu" unicode="&#xb5;" horiz-adv-x="1275" 
d="M147 1008h273v-582q0 -92 46 -147.5t138 -55.5q90 0 140.5 54.5t50.5 144.5v586h272v-826q0 -117 10 -182h-260q-8 31 -8 109q-39 -68 -116 -102t-163 -34q-60 0 -110 21v-383h-273v1397z" />
    <glyph glyph-name="paragraph" unicode="&#xb6;" horiz-adv-x="1419" 
d="M518 -389h-215l215 1005h-18q-152 0 -253.5 100t-101.5 247q0 94 33 175t89.5 137.5t131 97t157.5 60t169 19.5h797l-45 -209h-199l-346 -1632h-217l346 1632h-197z" />
    <glyph glyph-name="middot" unicode="&#xb7;" horiz-adv-x="559" 
d="M106 616q0 75 57.5 133t135.5 58q70 0 114 -44.5t44 -109.5q0 -83 -56 -137.5t-135 -54.5q-71 0 -115.5 44t-44.5 111z" />
    <glyph glyph-name="cedilla" unicode="&#xb8;" horiz-adv-x="573" 
d="M408 27l-142 -136q72 -7 114 -50.5t42 -104.5q0 -81 -67 -143t-189 -62q-104 0 -177.5 48.5t-90.5 90.5l112 94q55 -92 150 -92q37 0 60.5 16t23.5 44q0 29 -22.5 44t-59.5 15q-15 0 -35 -4l-49 102l141 138h189z" />
    <glyph glyph-name="onesuperior" unicode="&#xb9;" horiz-adv-x="516" 
d="M240 700l100 467h-182l28 136q87 1 151 44.5t89 104.5h182l-159 -752h-209z" />
    <glyph glyph-name="ordmasculine" unicode="&#xba;" horiz-adv-x="888" 
d="M541 1161q-76 0 -126 -65.5t-50 -157.5q0 -70 37 -110t96 -40q69 0 123.5 58t54.5 164q0 72 -36 110.5t-99 40.5zM885 1018q0 -112 -50 -208t-143 -154t-209 -58q-146 0 -236.5 94.5t-90.5 237.5q0 186 116.5 303t284.5 117q149 0 238.5 -94t89.5 -238z" />
    <glyph glyph-name="guillemotright" unicode="&#xbb;" horiz-adv-x="1142" 
d="M416 1008l207 -406l-363 -395h-270l377 414l-197 387h246zM872 1008l207 -406l-362 -395h-271l377 414l-196 387h245z" />
    <glyph glyph-name="onequarter" unicode="&#xbc;" horiz-adv-x="1681" 
d="M244 578l100 466h-182l28 136q87 1 151 44.5t89 104.5h182l-159 -751h-209zM324 0h-248l1214 1329h248zM879 362l415 392h228l-95 -445h125l-34 -159h-125q-21 -91 -31 -150h-207l33 150h-352zM1272 537l-240 -228h189z" />
    <glyph glyph-name="onehalf" unicode="&#xbd;" horiz-adv-x="1724" 
d="M242 578l100 466h-182l28 136q87 1 151 44.5t89 104.5h182l-159 -751h-209zM319 0h-247l1214 1329h248zM1325 418q96 41 96 104q0 32 -19.5 56t-62.5 24q-54 0 -82 -34t-28 -95l-189 12q0 123 84 203t222 80q136 0 210 -65.5t74 -163.5q0 -174 -217 -265l-156 -65
q-30 -15 -36 -35h329l-37 -174h-575q9 254 254 360z" />
    <glyph glyph-name="threequarters" unicode="&#xbe;" horiz-adv-x="1869" 
d="M334 1044l221 115h-338l37 170h573l-39 -194l-208 -109q72 -14 115.5 -67.5t43.5 -131.5q0 -108 -92 -188t-231 -80q-132 0 -214.5 73t-82.5 175q0 21 2 35l190 10q-2 -6 -2 -16q0 -45 29.5 -76t81.5 -31q53 0 82.5 28.5t29.5 76.5q0 39 -28 61.5t-68 22.5q-28 0 -49 -9z
M512 0h-248l1215 1329h247zM1067 362l416 392h227l-94 -445h125l-35 -159h-125q-21 -91 -31 -150h-207l33 150h-352zM1460 537l-239 -228h188z" />
    <glyph glyph-name="questiondown" unicode="&#xbf;" horiz-adv-x="1064" 
d="M662 582q0 -257 -224 -385l-114 -66q-119 -68 -119 -190q0 -67 45 -113.5t133 -46.5q112 0 173.5 77.5t61.5 188.5l254 -29q-5 -207 -144.5 -343t-362.5 -136q-107 0 -193 31t-139.5 83t-82 116t-28.5 133q0 146 73 249t206 177l96 55q72 41 105.5 87t39.5 112h220z
M745 893q0 -73 -53.5 -126.5t-126.5 -53.5q-66 0 -105.5 41.5t-39.5 103.5q0 73 53 126.5t123 53.5q65 0 107 -41.5t42 -103.5z" />
    <glyph glyph-name="Agrave" unicode="&#xc0;" horiz-adv-x="1445" 
d="M956 332h-561l-186 -332h-318l850 1452h324l231 -1452h-292zM541 590h379l-76 545zM1020 1575h-191l-161 274h256z" />
    <glyph glyph-name="Aacute" unicode="&#xc1;" horiz-adv-x="1445" 
d="M956 332h-561l-186 -332h-318l850 1452h324l231 -1452h-292zM541 590h379l-76 545zM1012 1575h-199l188 274h265z" />
    <glyph glyph-name="Acircumflex" unicode="&#xc2;" horiz-adv-x="1445" 
d="M956 332h-561l-186 -332h-318l850 1452h324l231 -1452h-292zM541 590h379l-76 545zM1079 1829l162 -275h-203l-94 138l-141 -138h-215l248 275h243z" />
    <glyph glyph-name="Atilde" unicode="&#xc3;" horiz-adv-x="1445" 
d="M956 332h-561l-186 -332h-318l850 1452h324l231 -1452h-292zM541 590h379l-76 545zM1276 1817q-22 -120 -85.5 -181t-150.5 -61q-40 0 -70.5 12.5t-46 27.5t-35 27.5t-38.5 12.5q-46 0 -64 -76h-172q22 121 86 181.5t150 60.5q40 0 71.5 -12t47 -27t35 -27t38.5 -12
q46 0 66 74h168z" />
    <glyph glyph-name="Adieresis" unicode="&#xc4;" horiz-adv-x="1445" 
d="M451 1669q0 64 47.5 114t115.5 50q59 0 96.5 -38t37.5 -93q0 -70 -48.5 -117t-113.5 -47q-60 0 -97.5 37t-37.5 94zM1104 1669q0 64 48 114t116 50q59 0 96 -38t37 -93q0 -70 -48.5 -117t-113.5 -47q-60 0 -97.5 37t-37.5 94zM956 332h-561l-186 -332h-318l850 1452h324
l231 -1452h-292zM541 590h379l-76 545z" />
    <glyph glyph-name="Aring" unicode="&#xc5;" horiz-adv-x="1445" 
d="M541 590h379l-76 540zM920 1653q-43 0 -77 -32.5t-34 -80.5q0 -41 26 -64.5t68 -23.5q45 0 79 31t34 80q0 41 -27 65.5t-69 24.5zM635 1524q0 122 90.5 209.5t212.5 87.5q107 0 182.5 -70.5t75.5 -173.5q0 -136 -115 -229l215 -1348h-292l-48 332h-561l-186 -332h-318
l801 1368q-57 63 -57 156z" />
    <glyph glyph-name="AE" unicode="&#xc6;" horiz-adv-x="2146" 
d="M1968 266l-57 -266h-905l71 338h-563l-287 -338h-360l1268 1452h1083l-55 -266h-623l-70 -332h564l-54 -252h-563l-71 -336h622zM1128 575l138 644l-549 -644h411z" />
    <glyph glyph-name="Ccedilla" unicode="&#xc7;" horiz-adv-x="1492" 
d="M633 -23q-236 37 -379 216t-143 434q0 159 43.5 297.5t119.5 239.5t176.5 174t215.5 109t235 36q113 0 209 -28t163 -73.5t117.5 -107.5t78.5 -126.5t40 -133.5l-274 -82q-11 53 -35.5 100t-65.5 89.5t-106.5 67.5t-146.5 25q-130 0 -239.5 -70.5t-176 -202.5t-66.5 -298
q0 -181 101 -292t276 -111q75 0 139 22.5t109.5 62.5t78 86t56.5 101l254 -102q-33 -80 -84 -151.5t-123.5 -135t-174 -105t-218.5 -49.5l-82 -78q72 -7 114 -50.5t42 -104.5q0 -81 -67 -143t-189 -62q-104 0 -178 48.5t-91 90.5l113 94q55 -92 150 -92q37 0 60.5 16
t23.5 44q0 29 -22.5 44t-59.5 15q-15 0 -35 -4l-49 102z" />
    <glyph glyph-name="Egrave" unicode="&#xc8;" horiz-adv-x="1181" 
d="M43 0l307 1452h905l-57 -266h-620l-72 -332h563l-53 -252h-563l-72 -336h623l-56 -266h-905zM932 1575h-191l-161 274h256z" />
    <glyph glyph-name="Eacute" unicode="&#xc9;" horiz-adv-x="1181" 
d="M43 0l307 1452h905l-57 -266h-620l-72 -332h563l-53 -252h-563l-72 -336h623l-56 -266h-905zM893 1575h-199l189 274h264z" />
    <glyph glyph-name="Ecircumflex" unicode="&#xca;" horiz-adv-x="1181" 
d="M43 0l307 1452h905l-57 -266h-620l-72 -332h563l-53 -252h-563l-72 -336h623l-56 -266h-905zM961 1829l161 -275h-202l-95 138l-141 -138h-215l248 275h244z" />
    <glyph glyph-name="Edieresis" unicode="&#xcb;" horiz-adv-x="1181" 
d="M469 1669q0 65 48.5 113.5t115.5 48.5q59 0 95 -37t36 -92q0 -71 -47.5 -116.5t-114.5 -45.5q-60 0 -96.5 36t-36.5 93zM909 1669q0 65 48.5 113.5t115.5 48.5q59 0 95 -37t36 -92q0 -71 -47.5 -116.5t-114.5 -45.5q-60 0 -96.5 36t-36.5 93zM43 0l307 1452h905l-57 -266
h-620l-72 -332h563l-53 -252h-563l-72 -336h623l-56 -266h-905z" />
    <glyph glyph-name="Igrave" unicode="&#xcc;" horiz-adv-x="628" 
d="M43 0l307 1452h287l-307 -1452h-287zM612 1575h-190l-162 274h256z" />
    <glyph glyph-name="Iacute" unicode="&#xcd;" horiz-adv-x="628" 
d="M43 0l307 1452h287l-307 -1452h-287zM598 1575h-199l189 274h264z" />
    <glyph glyph-name="Icircumflex" unicode="&#xce;" horiz-adv-x="628" 
d="M43 0l307 1452h287l-307 -1452h-287zM123 1554l299 261h280l193 -261h-238l-110 134l-168 -134h-256z" />
    <glyph glyph-name="Idieresis" unicode="&#xcf;" horiz-adv-x="628" 
d="M43 0l307 1452h287l-307 -1452h-287zM197 1669q0 63 46 110.5t111 47.5q54 0 89.5 -36.5t35.5 -88.5q0 -68 -45.5 -112t-109.5 -44q-56 0 -91.5 34.5t-35.5 88.5zM575 1669q0 63 46.5 110.5t111.5 47.5q54 0 89.5 -36.5t35.5 -88.5q0 -68 -46 -112t-110 -44
q-56 0 -91.5 34.5t-35.5 88.5z" />
    <glyph glyph-name="Eth" unicode="&#xd0;" horiz-adv-x="1497" 
d="M76 850h174l127 602h430q293 0 462 -165.5t169 -438.5q0 -160 -42.5 -298.5t-116.5 -238t-173 -170.5t-212.5 -106t-234.5 -35h-587l135 641h-174zM670 266q89 0 174.5 39t153.5 108t109.5 176t41.5 232q0 174 -92.5 271.5t-274.5 97.5h-180l-72 -340h306l-43 -209h-308
l-79 -375h264z" />
    <glyph glyph-name="Ntilde" unicode="&#xd1;" horiz-adv-x="1542" 
d="M1372 1823q-22 -147 -88.5 -214t-163.5 -67q-73 0 -149 49l-10 6q-62 41 -97 41q-59 0 -73 -88h-175q16 145 87 212t171 67q72 0 152 -51l6 -4q26 -17 35.5 -22.5t24.5 -11t30 -5.5q62 0 76 88h174zM961 0l-420 1026l-217 -1026h-281l307 1452h326l385 -969l207 969h282
l-307 -1452h-282z" />
    <glyph glyph-name="Ograve" unicode="&#xd2;" horiz-adv-x="1593" 
d="M111 618q0 134 30.5 255t84 214.5t127 169t160.5 125t183 75.5t195 26q288 0 464.5 -179t176.5 -470q0 -161 -43 -301t-117.5 -242t-173.5 -175.5t-212.5 -110t-231.5 -36.5q-288 0 -465.5 180t-177.5 469zM1241 817q0 185 -98 291t-269 106q-132 0 -241.5 -77.5
t-171.5 -209t-62 -288.5q0 -183 100 -290t267 -107q129 0 236.5 72t171.5 204t67 299zM1036 1575h-190l-162 274h256z" />
    <glyph glyph-name="Oacute" unicode="&#xd3;" horiz-adv-x="1593" 
d="M111 618q0 134 30.5 255t84 214.5t127 169t160.5 125t183 75.5t195 26q288 0 464.5 -179t176.5 -470q0 -161 -43 -301t-117.5 -242t-173.5 -175.5t-212.5 -110t-231.5 -36.5q-288 0 -465.5 180t-177.5 469zM1241 817q0 185 -98 291t-269 106q-132 0 -241.5 -77.5
t-171.5 -209t-62 -288.5q0 -183 100 -290t267 -107q129 0 236.5 72t171.5 204t67 299zM1036 1575h-198l188 274h264z" />
    <glyph glyph-name="Ocircumflex" unicode="&#xd4;" horiz-adv-x="1593" 
d="M111 618q0 134 30.5 255t84 214.5t127 169t160.5 125t183 75.5t195 26q288 0 464.5 -179t176.5 -470q0 -161 -43 -301t-117.5 -242t-173.5 -175.5t-212.5 -110t-231.5 -36.5q-288 0 -465.5 180t-177.5 469zM1241 817q0 185 -98 291t-269 106q-132 0 -241.5 -77.5
t-171.5 -209t-62 -288.5q0 -183 100 -290t267 -107q129 0 236.5 72t171.5 204t67 299zM1112 1829l162 -275h-203l-94 138l-141 -138h-215l247 275h244z" />
    <glyph glyph-name="Otilde" unicode="&#xd5;" horiz-adv-x="1593" 
d="M111 618q0 134 30.5 255t84 214.5t127 169t160.5 125t183 75.5t195 26q288 0 464.5 -179t176.5 -470q0 -161 -43 -301t-117.5 -242t-173.5 -175.5t-212.5 -110t-231.5 -36.5q-288 0 -465.5 180t-177.5 469zM1241 817q0 185 -98 291t-269 106q-132 0 -241.5 -77.5
t-171.5 -209t-62 -288.5q0 -183 100 -290t267 -107q129 0 236.5 72t171.5 204t67 299zM1309 1817q-22 -120 -85.5 -181t-150.5 -61q-40 0 -70.5 12.5t-46 27.5t-35 27.5t-38.5 12.5q-46 0 -64 -76h-172q22 121 86 181.5t150 60.5q40 0 71.5 -12t47 -27t35 -27t38.5 -12
q46 0 66 74h168z" />
    <glyph glyph-name="Odieresis" unicode="&#xd6;" horiz-adv-x="1593" 
d="M461 1669q0 64 48 114t116 50q59 0 96 -38t37 -93q0 -70 -48.5 -117t-113.5 -47q-60 0 -97.5 37t-37.5 94zM1196 1669q0 64 48 114t116 50q59 0 96 -38t37 -93q0 -70 -48.5 -117t-113.5 -47q-60 0 -97.5 37t-37.5 94zM111 618q0 134 30.5 255t84 214.5t127 169t160.5 125
t183 75.5t195 26q288 0 464.5 -179t176.5 -470q0 -161 -43 -301t-117.5 -242t-173.5 -175.5t-212.5 -110t-231.5 -36.5q-288 0 -465.5 180t-177.5 469zM1241 817q0 185 -98 291t-269 106q-132 0 -241.5 -77.5t-171.5 -209t-62 -288.5q0 -183 100 -290t267 -107
q129 0 236.5 72t171.5 204t67 299z" />
    <glyph glyph-name="multiply" unicode="&#xd7;" horiz-adv-x="1247" 
d="M123 260l338 344l-338 344l164 162l336 -342l338 342l163 -160l-340 -346l340 -344l-161 -164l-340 344l-338 -342z" />
    <glyph glyph-name="Oslash" unicode="&#xd8;" horiz-adv-x="1593" 
d="M111 618q0 134 30.5 255t84 214.5t127 169t160.5 125t183 75.5t195 26q215 0 371 -103l153 172l164 -143l-160 -180q113 -158 113 -395q0 -161 -43 -301t-117.5 -242t-173.5 -175.5t-212.5 -110t-231.5 -36.5q-208 0 -365 99l-147 -166l-168 143l155 174
q-118 165 -118 399zM399 639q0 -104 35 -188l637 714q-87 49 -197 49q-132 0 -241.5 -77.5t-171.5 -209t-62 -288.5zM1241 817q0 97 -31 176l-628 -708q76 -43 184 -43q129 0 236.5 72t171.5 204t67 299z" />
    <glyph glyph-name="Ugrave" unicode="&#xd9;" horiz-adv-x="1409" 
d="M1430 1452l-211 -993q-48 -236 -204 -363t-374 -127q-230 0 -370 126t-140 339q0 59 16 141l185 877h282l-186 -889q-10 -55 -10 -92q0 -107 60.5 -167t185.5 -60q224 0 280 262l199 946h287zM993 1575h-190l-162 274h256z" />
    <glyph glyph-name="Uacute" unicode="&#xda;" horiz-adv-x="1409" 
d="M1430 1452l-211 -993q-48 -236 -204 -363t-374 -127q-230 0 -370 126t-140 339q0 59 16 141l185 877h282l-186 -889q-10 -55 -10 -92q0 -107 60.5 -167t185.5 -60q224 0 280 262l199 946h287zM971 1575h-199l189 274h264z" />
    <glyph glyph-name="Ucircumflex" unicode="&#xdb;" horiz-adv-x="1409" 
d="M504 1554l299 261h280l193 -261h-238l-110 134l-168 -134h-256zM1430 1452l-211 -993q-48 -236 -204 -363t-374 -127q-230 0 -370 126t-140 339q0 59 16 141l185 877h282l-186 -889q-10 -55 -10 -92q0 -107 60.5 -167t185.5 -60q224 0 280 262l199 946h287z" />
    <glyph glyph-name="Udieresis" unicode="&#xdc;" horiz-adv-x="1409" 
d="M516 1669q0 64 48 114t116 50q59 0 96 -38t37 -93q0 -70 -48.5 -117t-113.5 -47q-60 0 -97.5 37t-37.5 94zM1006 1669q0 64 47.5 114t115.5 50q59 0 96.5 -38t37.5 -93q0 -70 -48.5 -117t-113.5 -47q-60 0 -97.5 37t-37.5 94zM1430 1452l-211 -993q-48 -236 -204 -363
t-374 -127q-230 0 -370 126t-140 339q0 59 16 141l185 877h282l-186 -889q-10 -55 -10 -92q0 -107 60.5 -167t185.5 -60q224 0 280 262l199 946h287z" />
    <glyph glyph-name="Yacute" unicode="&#xdd;" horiz-adv-x="1302" 
d="M193 1452h299l206 -569l404 569h340l-645 -844l-129 -608h-283l129 612zM874 1575h-198l188 274h264z" />
    <glyph glyph-name="Thorn" unicode="&#xde;" horiz-adv-x="1236" 
d="M530 942l-90 -412h207q123 0 197.5 60.5t75.5 175.5q0 83 -52 129.5t-159 46.5h-179zM43 0l307 1452h285l-55 -264h192q196 0 317 -111t121 -289q0 -230 -155.5 -365.5t-405.5 -135.5h-260l-61 -287h-285z" />
    <glyph glyph-name="germandbls" unicode="&#xdf;" horiz-adv-x="1234" 
d="M831 678q0 -35 58 -72l53 -35q162 -109 162 -272q0 -52 -21.5 -107.5t-64 -107t-118 -84.5t-171.5 -33q-155 0 -241.5 83.5t-86.5 199.5q0 9 5 49l225 18q-4 -12 -4 -28q0 -47 25.5 -81t86.5 -34q51 0 79 28.5t28 67.5q0 31 -16.5 54.5t-55.5 48.5l-51 33
q-73 46 -118.5 107t-45.5 134q0 183 184 273l45 22q70 34 101 70.5t31 93.5q0 51 -48.5 94t-140.5 43q-41 0 -76.5 -12.5t-68.5 -39t-58 -74.5t-39 -113l-210 -1004h-269l219 1051q24 111 75.5 195.5t121 135.5t150 76t169.5 25q104 0 189.5 -29.5t140 -79.5t84 -113
t29.5 -131q0 -242 -246 -358l-45 -20q-34 -16 -50 -31.5t-16 -42.5z" />
    <glyph glyph-name="agrave" unicode="&#xe0;" horiz-adv-x="1208" 
d="M594 788q-82 0 -144.5 -53.5t-92 -131.5t-29.5 -163q0 -104 52 -163.5t144 -59.5q109 0 185.5 98t76.5 258q0 101 -50.5 158t-141.5 57zM1153 1008l-166 -787q-18 -76 -18 -182q0 -21 2 -39h-252q-2 16 -2 47q0 26 4 76q-92 -141 -270 -141q-181 0 -287.5 128t-106.5 320
q0 256 148 429t366 173q124 0 195 -43t98 -96l25 115h264zM729 1176h-190l-162 274h256z" />
    <glyph glyph-name="aacute" unicode="&#xe1;" horiz-adv-x="1208" 
d="M594 788q-82 0 -144.5 -53.5t-92 -131.5t-29.5 -163q0 -104 52 -163.5t144 -59.5q109 0 185.5 98t76.5 258q0 101 -50.5 158t-141.5 57zM1153 1008l-166 -787q-18 -76 -18 -182q0 -21 2 -39h-252q-2 16 -2 47q0 26 4 76q-92 -141 -270 -141q-181 0 -287.5 128t-106.5 320
q0 256 148 429t366 173q124 0 195 -43t98 -96l25 115h264zM768 1176h-199l189 274h264z" />
    <glyph glyph-name="acircumflex" unicode="&#xe2;" horiz-adv-x="1208" 
d="M594 788q-82 0 -144.5 -53.5t-92 -131.5t-29.5 -163q0 -104 52 -163.5t144 -59.5q109 0 185.5 98t76.5 258q0 101 -50.5 158t-141.5 57zM1153 1008l-166 -787q-18 -76 -18 -182q0 -21 2 -39h-252q-2 16 -2 47q0 26 4 76q-92 -141 -270 -141q-181 0 -287.5 128t-106.5 320
q0 256 148 429t366 173q124 0 195 -43t98 -96l25 115h264zM846 1430l162 -275h-203l-94 137l-142 -137h-215l248 275h244z" />
    <glyph glyph-name="atilde" unicode="&#xe3;" horiz-adv-x="1208" 
d="M594 788q-82 0 -144.5 -53.5t-92 -131.5t-29.5 -163q0 -104 52 -163.5t144 -59.5q109 0 185.5 98t76.5 258q0 101 -50.5 158t-141.5 57zM1153 1008l-166 -787q-18 -76 -18 -182q0 -21 2 -39h-252q-2 16 -2 47q0 26 4 76q-92 -141 -270 -141q-181 0 -287.5 128t-106.5 320
q0 256 148 429t366 173q124 0 195 -43t98 -96l25 115h264zM1042 1417q-22 -120 -85 -180.5t-150 -60.5q-40 0 -71 12.5t-46.5 27t-35 27t-38.5 12.5q-45 0 -63 -75h-172q22 121 85.5 181t149.5 60q40 0 71.5 -12t47.5 -27t35.5 -27t38.5 -12q45 0 65 74h168z" />
    <glyph glyph-name="adieresis" unicode="&#xe4;" horiz-adv-x="1208" 
d="M342 1272q0 63 47 111.5t113 48.5q58 0 94.5 -39t36.5 -95q0 -65 -50 -110t-112 -45q-56 0 -92.5 37t-36.5 92zM772 1272q0 63 47 111.5t113 48.5q58 0 94.5 -39t36.5 -95q0 -65 -50 -110t-112 -45q-56 0 -92.5 37t-36.5 92zM594 788q-82 0 -144.5 -53.5t-92 -131.5
t-29.5 -163q0 -104 52 -163.5t144 -59.5q109 0 185.5 98t76.5 258q0 101 -50.5 158t-141.5 57zM1153 1008l-166 -787q-18 -76 -18 -182q0 -21 2 -39h-252q-2 16 -2 47q0 26 4 76q-92 -141 -270 -141q-181 0 -287.5 128t-106.5 320q0 256 148 429t366 173q124 0 195 -43
t98 -96l25 115h264z" />
    <glyph glyph-name="aring" unicode="&#xe5;" horiz-adv-x="1208" 
d="M594 788q-82 0 -144.5 -53.5t-92 -131.5t-29.5 -163q0 -104 52 -163.5t144 -59.5q109 0 185.5 98t76.5 258q0 101 -50.5 158t-141.5 57zM1153 1008l-166 -787q-18 -76 -18 -182q0 -21 2 -39h-252q-2 16 -2 47q0 26 4 76q-92 -141 -270 -141q-181 0 -287.5 128t-106.5 320
q0 256 148 429t366 173q124 0 195 -43t98 -96l25 115h264zM721 1565q94 0 155.5 -57t61.5 -148q0 -104 -76.5 -176t-177.5 -72q-91 0 -153 59t-62 146q0 107 76.5 177.5t175.5 70.5zM616 1329q0 -35 21 -54.5t57 -19.5q38 0 64 25.5t26 65.5q0 33 -20 53t-55 20
q-37 0 -65 -25t-28 -65z" />
    <glyph glyph-name="ae" unicode="&#xe6;" horiz-adv-x="1738" 
d="M631 602q92 3 92 90q0 52 -46 89.5t-132 37.5q-75 0 -129 -40.5t-72 -102.5l-225 74q35 119 154 203.5t288 84.5q227 0 328 -123q138 123 323 123q205 0 323 -117.5t118 -306.5q0 -93 -29 -182h-694q-2 -4 -2 -14q2 -96 62.5 -158.5t162.5 -62.5q80 0 137.5 36.5
t85.5 94.5l207 -105q-55 -109 -169 -181.5t-279 -72.5q-118 0 -214 48t-155 139q-60 -81 -154.5 -132t-220.5 -51q-178 0 -277.5 83.5t-99.5 207.5q0 146 97 233t254 95zM283 285q0 -52 38 -81.5t97 -29.5q37 0 75 13t74.5 39t63.5 72.5t37 107.5l4 26l-242 -10
q-63 -5 -105 -39.5t-42 -97.5zM1208 817q-98 0 -161.5 -55t-90.5 -144h439q2 6 2 25q0 67 -47 120.5t-142 53.5z" />
    <glyph glyph-name="ccedilla" unicode="&#xe7;" horiz-adv-x="1118" 
d="M403 -14q-159 37 -252.5 160.5t-93.5 295.5q0 131 46.5 244t124.5 189.5t181 119.5t216 43q98 0 178 -29t131 -79t82.5 -107.5t44.5 -122.5l-246 -73q-13 70 -66 117t-143 47q-109 0 -193.5 -91t-84.5 -251q0 -109 61 -170.5t162 -61.5q151 0 227 148l226 -89
q-54 -123 -166 -209.5t-265 -97.5l-79 -78q72 -7 113.5 -50.5t41.5 -104.5q0 -81 -67 -143t-189 -62q-104 0 -177.5 48.5t-90.5 90.5l113 94q55 -92 149 -92q37 0 60.5 16t23.5 44q0 29 -22.5 44t-59.5 15q-15 0 -35 -4l-49 102z" />
    <glyph glyph-name="egrave" unicode="&#xe8;" horiz-adv-x="1122" 
d="M780 618q2 14 2 25q0 67 -47.5 120.5t-142.5 53.5q-99 0 -163 -55.5t-91 -143.5h442zM309 430q0 -102 59.5 -167.5t166.5 -65.5q80 0 136.5 36t88.5 95l209 -105q-55 -109 -170 -181.5t-281 -72.5q-127 0 -231.5 56t-168 163t-63.5 246q0 135 46.5 250.5t123 191.5
t173 119t198.5 43q206 0 324 -117.5t118 -306.5q0 -86 -28 -182zM719 1176h-191l-161 274h256z" />
    <glyph glyph-name="eacute" unicode="&#xe9;" horiz-adv-x="1122" 
d="M780 618q2 14 2 25q0 67 -47.5 120.5t-142.5 53.5q-99 0 -163 -55.5t-91 -143.5h442zM309 430q0 -102 59.5 -167.5t166.5 -65.5q80 0 136.5 36t88.5 95l209 -105q-55 -109 -170 -181.5t-281 -72.5q-127 0 -231.5 56t-168 163t-63.5 246q0 135 46.5 250.5t123 191.5
t173 119t198.5 43q206 0 324 -117.5t118 -306.5q0 -86 -28 -182zM737 1176h-198l188 274h264z" />
    <glyph glyph-name="ecircumflex" unicode="&#xea;" horiz-adv-x="1122" 
d="M780 618q2 14 2 25q0 67 -47.5 120.5t-142.5 53.5q-99 0 -163 -55.5t-91 -143.5h442zM309 430q0 -102 59.5 -167.5t166.5 -65.5q80 0 136.5 36t88.5 95l209 -105q-55 -109 -170 -181.5t-281 -72.5q-127 0 -231.5 56t-168 163t-63.5 246q0 135 46.5 250.5t123 191.5
t173 119t198.5 43q206 0 324 -117.5t118 -306.5q0 -86 -28 -182zM817 1430l162 -275h-203l-94 137l-141 -137h-215l247 275h244z" />
    <glyph glyph-name="edieresis" unicode="&#xeb;" horiz-adv-x="1122" 
d="M313 1272q0 63 47 111.5t113 48.5q58 0 94.5 -39t36.5 -95q0 -65 -50 -110t-112 -45q-56 0 -92.5 37t-36.5 92zM743 1272q0 63 47 111.5t113 48.5q58 0 94.5 -39t36.5 -95q0 -65 -50 -110t-112 -45q-56 0 -92.5 37t-36.5 92zM780 618q2 14 2 25q0 67 -47.5 120.5
t-142.5 53.5q-99 0 -163 -55.5t-91 -143.5h442zM309 430q0 -102 59.5 -167.5t166.5 -65.5q80 0 136.5 36t88.5 95l209 -105q-55 -109 -170 -181.5t-281 -72.5q-127 0 -231.5 56t-168 163t-63.5 246q0 135 46.5 250.5t123 191.5t173 119t198.5 43q206 0 324 -117.5
t118 -306.5q0 -86 -28 -182z" />
    <glyph glyph-name="igrave" unicode="&#xec;" horiz-adv-x="546" 
d="M8 0l215 1008h273l-215 -1008h-273zM485 1176h-190l-162 274h256z" />
    <glyph glyph-name="iacute" unicode="&#xed;" horiz-adv-x="546" 
d="M8 0l215 1008h273l-215 -1008h-273zM467 1176h-199l189 274h264z" />
    <glyph glyph-name="icircumflex" unicode="&#xee;" horiz-adv-x="546" 
d="M8 1130l295 302h270l164 -302h-213l-108 154l-174 -154h-234zM8 0l215 1008h273l-215 -1008h-273z" />
    <glyph glyph-name="idieresis" unicode="&#xef;" horiz-adv-x="546" 
d="M8 0l215 1008h273l-215 -1008h-273zM102 1272q0 60 45.5 105.5t108.5 45.5q55 0 90 -35.5t35 -87.5q0 -64 -47.5 -107.5t-106.5 -43.5q-58 0 -91.5 35t-33.5 88zM446 1272q0 60 45.5 105.5t108.5 45.5q55 0 90 -35.5t35 -87.5q0 -64 -47.5 -107.5t-106.5 -43.5
q-58 0 -91.5 35t-33.5 88z" />
    <glyph glyph-name="eth" unicode="&#xf0;" horiz-adv-x="1189" 
d="M956 1200q150 -197 150 -471q0 -170 -44 -312t-121.5 -240.5t-187.5 -153t-239 -54.5q-110 0 -199.5 36.5t-147.5 99t-89 143t-31 170.5q0 147 67 265.5t183 184.5t258 66q101 0 177 -33.5t114 -89.5q-21 174 -129 285l-275 -121l-65 158l180 77q-103 50 -223 62l78 217
q107 -8 214.5 -48t198.5 -110l234 103l67 -160zM793 500q0 98 -58 154.5t-157 56.5q-108 0 -184.5 -78t-76.5 -211q0 -90 56 -153.5t155 -63.5q107 0 186 80t79 215z" />
    <glyph glyph-name="ntilde" unicode="&#xf1;" horiz-adv-x="1169" 
d="M307 1139q16 149 91 220t177 71q73 0 148 -48l10 -6q53 -39 92 -39q69 0 84 90h176q-22 -150 -92 -221t-168 -71q-76 0 -149 47l-17 10q-2 1 -18 10.5t-23 13t-21 7.5t-28 4q-66 0 -86 -88h-176zM643 0l125 584q6 30 6 59q0 69 -39.5 109.5t-113.5 40.5q-83 0 -138 -59
t-75 -150l-127 -584h-271l176 836q21 88 21 172h264q0 -62 -6 -103q47 65 123 97t160 32q148 0 229.5 -88t81.5 -229q0 -51 -12 -107l-132 -610h-272z" />
    <glyph glyph-name="ograve" unicode="&#xf2;" horiz-adv-x="1179" 
d="M602 791q-117 0 -194.5 -97.5t-77.5 -242.5q0 -109 56.5 -171.5t150.5 -62.5q49 0 96.5 22t87 62.5t64 108t24.5 149.5q0 109 -56 170.5t-151 61.5zM1081 569q0 -162 -71.5 -299t-201.5 -219t-290 -82q-137 0 -243 62.5t-162 169t-56 237.5q0 130 44.5 242.5t121 190.5
t180.5 122.5t220 44.5q210 0 334 -133.5t124 -335.5zM739 1176h-190l-162 274h256z" />
    <glyph glyph-name="oacute" unicode="&#xf3;" horiz-adv-x="1179" 
d="M602 791q-117 0 -194.5 -97.5t-77.5 -242.5q0 -109 56.5 -171.5t150.5 -62.5q49 0 96.5 22t87 62.5t64 108t24.5 149.5q0 109 -56 170.5t-151 61.5zM1081 569q0 -162 -71.5 -299t-201.5 -219t-290 -82q-137 0 -243 62.5t-162 169t-56 237.5q0 130 44.5 242.5t121 190.5
t180.5 122.5t220 44.5q210 0 334 -133.5t124 -335.5zM764 1176h-199l189 274h264z" />
    <glyph glyph-name="ocircumflex" unicode="&#xf4;" horiz-adv-x="1179" 
d="M602 791q-117 0 -194.5 -97.5t-77.5 -242.5q0 -109 56.5 -171.5t150.5 -62.5q49 0 96.5 22t87 62.5t64 108t24.5 149.5q0 109 -56 170.5t-151 61.5zM1081 569q0 -162 -71.5 -299t-201.5 -219t-290 -82q-137 0 -243 62.5t-162 169t-56 237.5q0 130 44.5 242.5t121 190.5
t180.5 122.5t220 44.5q210 0 334 -133.5t124 -335.5zM829 1430l162 -275h-203l-94 137l-141 -137h-215l248 275h243z" />
    <glyph glyph-name="otilde" unicode="&#xf5;" horiz-adv-x="1179" 
d="M602 791q-117 0 -194.5 -97.5t-77.5 -242.5q0 -109 56.5 -171.5t150.5 -62.5q49 0 96.5 22t87 62.5t64 108t24.5 149.5q0 109 -56 170.5t-151 61.5zM1081 569q0 -162 -71.5 -299t-201.5 -219t-290 -82q-137 0 -243 62.5t-162 169t-56 237.5q0 130 44.5 242.5t121 190.5
t180.5 122.5t220 44.5q210 0 334 -133.5t124 -335.5zM1026 1417q-22 -120 -85 -180.5t-150 -60.5q-40 0 -71 12.5t-46.5 27t-35 27t-38.5 12.5q-45 0 -63 -75h-172q22 121 85.5 181t149.5 60q40 0 71.5 -12t47.5 -27t35.5 -27t38.5 -12q45 0 65 74h168z" />
    <glyph glyph-name="odieresis" unicode="&#xf6;" horiz-adv-x="1179" 
d="M326 1272q0 63 46.5 111.5t112.5 48.5q58 0 94.5 -39t36.5 -95q0 -65 -49.5 -110t-111.5 -45q-56 0 -92.5 37t-36.5 92zM756 1272q0 63 46.5 111.5t112.5 48.5q58 0 95 -39t37 -95q0 -65 -50 -110t-112 -45q-56 0 -92.5 37t-36.5 92zM602 791q-117 0 -194.5 -97.5
t-77.5 -242.5q0 -109 56.5 -171.5t150.5 -62.5q49 0 96.5 22t87 62.5t64 108t24.5 149.5q0 109 -56 170.5t-151 61.5zM1081 569q0 -162 -71.5 -299t-201.5 -219t-290 -82q-137 0 -243 62.5t-162 169t-56 237.5q0 130 44.5 242.5t121 190.5t180.5 122.5t220 44.5
q210 0 334 -133.5t124 -335.5z" />
    <glyph glyph-name="divide" unicode="&#xf7;" horiz-adv-x="1167" 
d="M418 981q0 66 46.5 112t113.5 46t113 -46t46 -112q0 -65 -46 -112.5t-113 -47.5t-113.5 47.5t-46.5 112.5zM418 229q0 66 47 113t113 47t112.5 -47t46.5 -113q0 -65 -46 -112t-113 -47t-113.5 47t-46.5 112zM82 719h1001v-227h-1001v227z" />
    <glyph glyph-name="oslash" unicode="&#xf8;" horiz-adv-x="1179" 
d="M-27 45l148 141q-64 113 -64 252q0 130 44.5 242.5t121 190.5t180.5 122.5t220 44.5q169 0 290 -94l142 137l112 -116l-149 -144q63 -108 63 -252q0 -162 -71.5 -299t-201.5 -219t-290 -82q-174 0 -291 97l-141 -136zM809 559q0 21 -4 57l-385 -366q44 -33 117 -33
q49 0 96.5 22t87 62.5t64 108t24.5 149.5zM602 791q-117 0 -194.5 -97.5t-77.5 -242.5q0 -36 6 -60l383 367q-50 33 -117 33z" />
    <glyph glyph-name="ugrave" unicode="&#xf9;" horiz-adv-x="1159" 
d="M481 1008l-116 -545q-15 -64 -15 -96q0 -70 38 -111t114 -41q82 0 133.5 57t71.5 150l127 586h270l-168 -803q-23 -106 -23 -182v-23h-260q-2 14 -2 43q0 30 2 61q-40 -61 -110 -95t-142 -34q-156 0 -242.5 92t-86.5 238q0 57 20 150l119 553h270zM772 1176h-190
l-162 274h256z" />
    <glyph glyph-name="uacute" unicode="&#xfa;" horiz-adv-x="1159" 
d="M481 1008l-116 -545q-15 -64 -15 -96q0 -70 38 -111t114 -41q82 0 133.5 57t71.5 150l127 586h270l-168 -803q-23 -106 -23 -182v-23h-260q-2 14 -2 43q0 30 2 61q-40 -61 -110 -95t-142 -34q-156 0 -242.5 92t-86.5 238q0 57 20 150l119 553h270zM766 1176h-199l189 274
h264z" />
    <glyph glyph-name="ucircumflex" unicode="&#xfb;" horiz-adv-x="1159" 
d="M309 1130l295 302h270l164 -302h-213l-108 154l-174 -154h-234zM481 1008l-116 -545q-15 -64 -15 -96q0 -70 38 -111t114 -41q82 0 133.5 57t71.5 150l127 586h270l-168 -803q-23 -106 -23 -182v-23h-260q-2 14 -2 43q0 30 2 61q-40 -61 -110 -95t-142 -34
q-156 0 -242.5 92t-86.5 238q0 57 20 150l119 553h270z" />
    <glyph glyph-name="udieresis" unicode="&#xfc;" horiz-adv-x="1159" 
d="M344 1272q0 63 47 111.5t113 48.5q58 0 94.5 -39t36.5 -95q0 -65 -50 -110t-112 -45q-56 0 -92.5 37t-36.5 92zM774 1272q0 63 47 111.5t113 48.5q58 0 94.5 -39t36.5 -95q0 -65 -50 -110t-112 -45q-56 0 -92.5 37t-36.5 92zM481 1008l-116 -545q-15 -64 -15 -96
q0 -70 38 -111t114 -41q82 0 133.5 57t71.5 150l127 586h270l-168 -803q-23 -106 -23 -182v-23h-260q-2 14 -2 43q0 30 2 61q-40 -61 -110 -95t-142 -34q-156 0 -242.5 92t-86.5 238q0 57 20 150l119 553h270z" />
    <glyph glyph-name="yacute" unicode="&#xfd;" horiz-adv-x="1077" 
d="M-57 -389l348 549l-221 848h286l136 -566l339 566h306l-893 -1397h-301zM686 1176h-199l189 274h264z" />
    <glyph glyph-name="thorn" unicode="&#xfe;" horiz-adv-x="1232" 
d="M324 1483h272l-119 -565q45 50 117.5 80t153.5 30q186 0 287.5 -117t101.5 -303q0 -136 -40 -254t-109.5 -201t-167 -130.5t-208.5 -47.5q-110 0 -190.5 41t-118.5 105l-106 -510h-271zM653 791q-117 0 -195.5 -99t-78.5 -243q0 -112 56.5 -172t150.5 -60q108 0 192 93.5
t84 254.5q0 108 -57 167t-152 59z" />
    <glyph glyph-name="ydieresis" unicode="&#xff;" horiz-adv-x="1077" 
d="M268 1272q0 63 47 111.5t113 48.5q58 0 94.5 -39t36.5 -95q0 -65 -50 -110t-112 -45q-56 0 -92.5 37t-36.5 92zM698 1272q0 63 47 111.5t113 48.5q58 0 94.5 -39t36.5 -95q0 -65 -50 -110t-112 -45q-56 0 -92.5 37t-36.5 92zM-57 -389l348 549l-221 848h286l136 -566
l339 566h306l-893 -1397h-301z" />
    <glyph glyph-name="Amacron" unicode="&#x100;" horiz-adv-x="1445" 
d="M956 332h-561l-186 -332h-318l850 1452h324l231 -1452h-292zM541 590h379l-76 545zM606 1585l41 205h625l-43 -205h-623z" />
    <glyph glyph-name="amacron" unicode="&#x101;" horiz-adv-x="1208" 
d="M594 788q-82 0 -144.5 -53.5t-92 -131.5t-29.5 -163q0 -104 52 -163.5t144 -59.5q109 0 185.5 98t76.5 258q0 101 -50.5 158t-141.5 57zM1153 1008l-166 -787q-18 -76 -18 -182q0 -21 2 -39h-252q-2 16 -2 47q0 26 4 76q-92 -141 -270 -141q-181 0 -287.5 128t-106.5 320
q0 256 148 429t366 173q124 0 195 -43t98 -96l25 115h264zM393 1182l43 198h576l-41 -198h-578z" />
    <glyph glyph-name="Abreve" unicode="&#x102;" horiz-adv-x="1445" 
d="M956 332h-561l-186 -332h-318l850 1452h324l231 -1452h-292zM541 590h379l-76 545zM926 1554q-148 0 -216.5 65.5t-43.5 186.5h178q-9 -49 17.5 -75.5t92.5 -26.5q127 0 150 102h182q-25 -121 -118.5 -186.5t-241.5 -65.5z" />
    <glyph glyph-name="abreve" unicode="&#x103;" horiz-adv-x="1208" 
d="M594 788q-82 0 -144.5 -53.5t-92 -131.5t-29.5 -163q0 -104 52 -163.5t144 -59.5q109 0 185.5 98t76.5 258q0 101 -50.5 158t-141.5 57zM1153 1008l-166 -787q-18 -76 -18 -182q0 -21 2 -39h-252q-2 16 -2 47q0 26 4 76q-92 -141 -270 -141q-181 0 -287.5 128t-106.5 320
q0 256 148 429t366 173q124 0 195 -43t98 -96l25 115h264zM684 1155q-148 0 -216.5 65.5t-43.5 186.5h178q-9 -49 18 -75.5t93 -26.5q126 0 149 102h182q-25 -121 -118.5 -186.5t-241.5 -65.5z" />
    <glyph glyph-name="Aogonek" unicode="&#x104;" horiz-adv-x="1445" 
d="M956 332h-561l-186 -332h-318l850 1452h324l231 -1452q-80 -29 -142 -83.5t-62 -119.5q0 -40 26.5 -61t69.5 -23q29 0 49 4l-33 -161q-41 -13 -90 -13q-95 0 -160 55t-65 146q0 159 160 256h-45zM541 590h379l-76 545z" />
    <glyph glyph-name="aogonek" unicode="&#x105;" horiz-adv-x="1208" 
d="M788 -457q-95 0 -160 55t-65 146q0 155 158 256q-4 28 -4 57q0 34 4 66q-92 -141 -270 -141q-181 0 -287.5 128t-106.5 320q0 256 148 429t366 173q124 0 195 -43t98 -96l25 115h264l-166 -787q-18 -76 -18 -186q0 -17 2 -35q-80 -29 -142.5 -83.5t-62.5 -119.5
q0 -40 26.5 -61t69.5 -23q29 0 49 4l-32 -161q-41 -13 -91 -13zM594 788q-82 0 -144.5 -53.5t-92 -131.5t-29.5 -163q0 -104 52 -163.5t144 -59.5q109 0 185.5 98t76.5 258q0 101 -50.5 158t-141.5 57z" />
    <glyph glyph-name="Cacute" unicode="&#x106;" horiz-adv-x="1492" 
d="M901 1483q113 0 209 -28t163 -73.5t117.5 -107.5t78.5 -126.5t40 -133.5l-274 -82q-11 53 -35.5 100t-65.5 89.5t-106.5 67.5t-146.5 25q-130 0 -239.5 -70.5t-176 -202.5t-66.5 -298q0 -181 101 -292t276 -111q75 0 139 22.5t109.5 62.5t78 86t56.5 101l254 -102
q-35 -85 -90 -160t-134.5 -140.5t-192 -104t-244.5 -38.5q-285 0 -463 185.5t-178 474.5q0 159 43.5 297.5t119.5 239.5t176.5 174t215.5 109t235 36zM1079 1554h-262l262 261h346z" />
    <glyph glyph-name="cacute" unicode="&#x107;" horiz-adv-x="1118" 
d="M748 1128h-234l246 308h332zM815 627q-13 70 -66 117t-143 47q-109 0 -193.5 -91t-84.5 -251q0 -109 61 -170.5t162 -61.5q151 0 227 148l226 -89q-60 -131 -180.5 -219t-288.5 -88q-208 0 -343 131t-135 342q0 131 46.5 244t124.5 189.5t181 119.5t216 43q98 0 178 -29
t131 -79t82.5 -107.5t44.5 -122.5z" />
    <glyph glyph-name="Ccircumflex" unicode="&#x108;" horiz-adv-x="1492" 
d="M559 1554l299 261h281l192 -261h-237l-111 134l-168 -134h-256zM901 1483q113 0 209 -28t163 -73.5t117.5 -107.5t78.5 -126.5t40 -133.5l-274 -82q-11 53 -35.5 100t-65.5 89.5t-106.5 67.5t-146.5 25q-130 0 -239.5 -70.5t-176 -202.5t-66.5 -298q0 -181 101 -292
t276 -111q75 0 139 22.5t109.5 62.5t78 86t56.5 101l254 -102q-35 -85 -90 -160t-134.5 -140.5t-192 -104t-244.5 -38.5q-285 0 -463 185.5t-178 474.5q0 159 43.5 297.5t119.5 239.5t176.5 174t215.5 109t235 36z" />
    <glyph glyph-name="ccircumflex" unicode="&#x109;" horiz-adv-x="1118" 
d="M295 1130l295 302h270l164 -302h-213l-109 154l-174 -154h-233zM815 627q-13 70 -66 117t-143 47q-109 0 -193.5 -91t-84.5 -251q0 -109 61 -170.5t162 -61.5q151 0 227 148l226 -89q-60 -131 -180.5 -219t-288.5 -88q-208 0 -343 131t-135 342q0 131 46.5 244
t124.5 189.5t181 119.5t216 43q98 0 178 -29t131 -79t82.5 -107.5t44.5 -122.5z" />
    <glyph glyph-name="Cdotaccent" unicode="&#x10a;" horiz-adv-x="1492" 
d="M901 1483q113 0 209 -28t163 -73.5t117.5 -107.5t78.5 -126.5t40 -133.5l-274 -82q-11 53 -35.5 100t-65.5 89.5t-106.5 67.5t-146.5 25q-130 0 -239.5 -70.5t-176 -202.5t-66.5 -298q0 -181 101 -292t276 -111q75 0 139 22.5t109.5 62.5t78 86t56.5 101l254 -102
q-35 -85 -90 -160t-134.5 -140.5t-192 -104t-244.5 -38.5q-285 0 -463 185.5t-178 474.5q0 159 43.5 297.5t119.5 239.5t176.5 174t215.5 109t235 36zM805 1706q0 68 54.5 122t127.5 54q65 0 107.5 -41t42.5 -102q0 -76 -53.5 -129.5t-127.5 -53.5q-66 0 -108.5 43.5
t-42.5 106.5z" />
    <glyph glyph-name="cdotaccent" unicode="&#x10b;" horiz-adv-x="1118" 
d="M815 627q-13 70 -66 117t-143 47q-109 0 -193.5 -91t-84.5 -251q0 -109 61 -170.5t162 -61.5q151 0 227 148l226 -89q-60 -131 -180.5 -219t-288.5 -88q-208 0 -343 131t-135 342q0 131 46.5 244t124.5 189.5t181 119.5t216 43q98 0 178 -29t131 -79t82.5 -107.5
t44.5 -122.5zM518 1270q0 71 52 125.5t128 54.5q65 0 106.5 -41t41.5 -102q0 -77 -52.5 -131t-125.5 -54q-65 0 -107.5 43.5t-42.5 104.5z" />
    <glyph glyph-name="Ccaron" unicode="&#x10c;" horiz-adv-x="1492" 
d="M1380 1815l-303 -261h-280l-189 261h236l108 -132l166 132h262zM901 1483q113 0 209 -28t163 -73.5t117.5 -107.5t78.5 -126.5t40 -133.5l-274 -82q-11 53 -35.5 100t-65.5 89.5t-106.5 67.5t-146.5 25q-130 0 -239.5 -70.5t-176 -202.5t-66.5 -298q0 -181 101 -292
t276 -111q75 0 139 22.5t109.5 62.5t78 86t56.5 101l254 -102q-35 -85 -90 -160t-134.5 -140.5t-192 -104t-244.5 -38.5q-285 0 -463 185.5t-178 474.5q0 159 43.5 297.5t119.5 239.5t176.5 174t215.5 109t235 36z" />
    <glyph glyph-name="ccaron" unicode="&#x10d;" horiz-adv-x="1118" 
d="M1092 1434l-291 -304h-273l-161 304h211l110 -154l168 154h236zM815 627q-13 70 -66 117t-143 47q-109 0 -193.5 -91t-84.5 -251q0 -109 61 -170.5t162 -61.5q151 0 227 148l226 -89q-60 -131 -180.5 -219t-288.5 -88q-208 0 -343 131t-135 342q0 131 46.5 244
t124.5 189.5t181 119.5t216 43q98 0 178 -29t131 -79t82.5 -107.5t44.5 -122.5z" />
    <glyph glyph-name="Dcaron" unicode="&#x10e;" horiz-adv-x="1468" 
d="M1280 1815l-303 -261h-281l-188 261h235l109 -132l166 132h262zM641 266q89 0 174.5 39t153.5 108t109.5 176t41.5 232q0 175 -92 272t-274 97h-181l-196 -924h264zM43 0l305 1452h430q293 0 462 -165.5t169 -438.5q0 -160 -42.5 -298.5t-116.5 -238t-172.5 -170.5
t-212 -106t-234.5 -35h-588z" />
    <glyph glyph-name="dcaron" unicode="&#x10f;" horiz-adv-x="1208" 
d="M1456 1077h-190l143 406h279zM987 221q-18 -80 -22 -178q0 -35 2 -43h-248q-2 18 -2 51q0 26 4 72q-92 -141 -270 -141q-181 0 -287.5 128t-106.5 320q0 256 148 429t366 173q115 0 184.5 -38.5t102.5 -92.5l123 582h272zM594 788q-82 0 -144.5 -53.5t-92 -131.5
t-29.5 -163q0 -104 52 -163.5t144 -59.5q109 0 185.5 98t76.5 258q0 101 -50.5 158t-141.5 57z" />
    <glyph glyph-name="Dcroat" unicode="&#x110;" horiz-adv-x="1497" 
d="M51 612l43 201h148l135 639h430q293 0 462 -165.5t169 -438.5q0 -160 -42.5 -298.5t-116.5 -238t-173 -170.5t-212.5 -106t-234.5 -35h-587l129 612h-150zM670 266q89 0 174.5 39t153.5 108t109.5 176t41.5 232q0 174 -92.5 271.5t-274.5 97.5h-180l-80 -377h269
l-43 -201h-269l-73 -346h264z" />
    <glyph glyph-name="dslash" unicode="&#x111;" horiz-adv-x="1208" 
d="M637 1139l37 174h270l37 170h272l-36 -170h120l-37 -174h-120l-193 -918q-18 -80 -22 -178q0 -35 2 -43h-248q-2 16 -2 55q0 22 4 68q-92 -141 -270 -141q-181 0 -287.5 128t-106.5 320q0 256 148 429t366 173q115 0 184.5 -38.5t102.5 -92.5l49 238h-270zM594 788
q-82 0 -144.5 -53.5t-92 -131.5t-29.5 -163q0 -104 52 -163.5t144 -59.5q109 0 185.5 98t76.5 258q0 101 -50.5 158t-141.5 57z" />
    <glyph glyph-name="Emacron" unicode="&#x112;" horiz-adv-x="1181" 
d="M43 0l307 1452h905l-57 -266h-620l-72 -332h563l-53 -252h-563l-72 -336h623l-56 -266h-905zM506 1585l41 205h624l-43 -205h-622z" />
    <glyph glyph-name="emacron" unicode="&#x113;" horiz-adv-x="1122" 
d="M367 1182l43 198h575l-41 -198h-577zM780 618q2 14 2 25q0 67 -47.5 120.5t-142.5 53.5q-99 0 -163 -55.5t-91 -143.5h442zM309 430q0 -102 59.5 -167.5t166.5 -65.5q80 0 136.5 36t88.5 95l209 -105q-55 -109 -170 -181.5t-281 -72.5q-127 0 -231.5 56t-168 163
t-63.5 246q0 135 46.5 250.5t123 191.5t173 119t198.5 43q206 0 324 -117.5t118 -306.5q0 -86 -28 -182z" />
    <glyph glyph-name="Ebreve" unicode="&#x114;" horiz-adv-x="1181" 
d="M43 0l307 1452h905l-57 -266h-620l-72 -332h563l-53 -252h-563l-72 -336h623l-56 -266h-905zM811 1544q-132 0 -214.5 65.5t-82.5 176.5q0 23 4 35h197q-2 -6 -2 -21q0 -37 28 -60.5t82 -23.5q62 0 100.5 30t49.5 75h213q-33 -113 -129.5 -195t-245.5 -82z" />
    <glyph glyph-name="ebreve" unicode="&#x115;" horiz-adv-x="1122" 
d="M780 618q2 14 2 25q0 67 -47.5 120.5t-142.5 53.5q-99 0 -163 -55.5t-91 -143.5h442zM309 430q0 -102 59.5 -167.5t166.5 -65.5q80 0 136.5 36t88.5 95l209 -105q-55 -109 -170 -181.5t-281 -72.5q-127 0 -231.5 56t-168 163t-63.5 246q0 135 46.5 250.5t123 191.5
t173 119t198.5 43q206 0 324 -117.5t118 -306.5q0 -86 -28 -182zM666 1124q-136 0 -210.5 75t-74.5 185q0 20 4 52h178q-2 -6 -2 -17q0 -44 28.5 -75t90.5 -31q69 0 109 36.5t55 86.5h200q-32 -135 -127.5 -223.5t-250.5 -88.5z" />
    <glyph glyph-name="Edotaccent" unicode="&#x116;" horiz-adv-x="1181" 
d="M672 1694q0 68 54 122t128 54q65 0 107.5 -41.5t42.5 -102.5q0 -76 -53.5 -129t-127.5 -53q-66 0 -108.5 43.5t-42.5 106.5zM43 0l307 1452h905l-57 -266h-620l-72 -332h563l-53 -252h-563l-72 -336h623l-56 -266h-905z" />
    <glyph glyph-name="edotaccent" unicode="&#x117;" horiz-adv-x="1122" 
d="M780 618q2 14 2 25q0 67 -47.5 120.5t-142.5 53.5q-99 0 -163 -55.5t-91 -143.5h442zM309 430q0 -102 59.5 -167.5t166.5 -65.5q80 0 136.5 36t88.5 95l209 -105q-55 -109 -170 -181.5t-281 -72.5q-127 0 -231.5 56t-168 163t-63.5 246q0 135 46.5 250.5t123 191.5
t173 119t198.5 43q206 0 324 -117.5t118 -306.5q0 -86 -28 -182zM508 1268q0 71 52 125.5t128 54.5q65 0 106.5 -41t41.5 -102q0 -77 -53 -131t-126 -54q-65 0 -107 43.5t-42 104.5z" />
    <glyph glyph-name="Eogonek" unicode="&#x118;" horiz-adv-x="1181" 
d="M948 0q-80 -29 -142.5 -83.5t-62.5 -119.5q0 -40 27 -61t70 -23q29 0 49 4l-33 -161q-41 -13 -90 -13q-95 0 -160 55t-65 146q0 159 159 256h-657l307 1452h905l-57 -266h-620l-72 -332h563l-53 -252h-563l-72 -336h623z" />
    <glyph glyph-name="eogonek" unicode="&#x119;" horiz-adv-x="1122" 
d="M309 430q0 -102 59.5 -167.5t166.5 -65.5q80 0 136.5 36t88.5 95l209 -105q-37 -75 -108.5 -136t-166.5 -91q-75 -24 -133.5 -77.5t-58.5 -113.5q0 -45 26 -67.5t70 -24.5q29 0 49 4l-33 -161q-41 -13 -90 -13q-95 0 -160 55t-65 146q0 139 125 233q-161 30 -265 152
t-104 305q0 135 46.5 250.5t123 191.5t173 119t198.5 43q206 0 324 -117.5t118 -306.5q0 -86 -28 -182zM780 618q0 3 1 12.5t1 12.5q0 67 -47.5 120.5t-142.5 53.5q-99 0 -163 -55.5t-91 -143.5h442z" />
    <glyph glyph-name="Ecaron" unicode="&#x11a;" horiz-adv-x="1181" 
d="M1257 1815l-303 -261h-280l-189 261h236l108 -132l166 132h262zM43 0l307 1452h905l-57 -266h-620l-72 -332h563l-53 -252h-563l-72 -336h623l-56 -266h-905z" />
    <glyph glyph-name="ecaron" unicode="&#x11b;" horiz-adv-x="1122" 
d="M1055 1434l-291 -304h-272l-162 304h211l110 -154l168 154h236zM780 618q2 14 2 25q0 67 -47.5 120.5t-142.5 53.5q-99 0 -163 -55.5t-91 -143.5h442zM309 430q0 -102 59.5 -167.5t166.5 -65.5q80 0 136.5 36t88.5 95l209 -105q-55 -109 -170 -181.5t-281 -72.5
q-127 0 -231.5 56t-168 163t-63.5 246q0 135 46.5 250.5t123 191.5t173 119t198.5 43q206 0 324 -117.5t118 -306.5q0 -86 -28 -182z" />
    <glyph glyph-name="Gcircumflex" unicode="&#x11c;" horiz-adv-x="1568" 
d="M549 1554l299 261h280l193 -261h-238l-110 134l-168 -134h-256zM881 1217q-96 0 -183 -41t-153 -113.5t-105 -181.5t-39 -238q0 -188 99 -301t276 -113q151 0 257.5 77t144.5 204h-451l51 246h713l-158 -756h-217l6 150q-65 -82 -165.5 -129.5t-225.5 -47.5
q-276 0 -447 180.5t-171 473.5q0 133 30.5 252.5t85 212t128.5 167.5t162 123.5t185.5 74.5t198.5 26q113 0 210 -26.5t165 -70.5t119 -104t80 -123.5t41 -132.5l-277 -82q-11 52 -36 98.5t-67 87t-108 64t-149 23.5z" />
    <glyph glyph-name="gcircumflex" unicode="&#x11d;" horiz-adv-x="1210" 
d="M338 1130l295 302h270l164 -302h-213l-109 154l-174 -154h-233zM791 590q0 87 -52.5 142.5t-144.5 55.5q-112 0 -186 -81.5t-74 -214.5q0 -94 54 -150.5t149 -56.5q108 0 181 83t73 222zM182 12q0 -83 56 -139.5t161 -56.5q225 0 291 274l17 68q-32 -42 -94.5 -71.5
t-143.5 -29.5q-186 0 -297 118t-111 300q0 152 65 278.5t181.5 200.5t261.5 74q114 0 189.5 -38t107.5 -97l25 115h266l-192 -920q-23 -107 -66.5 -195t-111 -160t-167.5 -112.5t-223 -40.5q-113 0 -203 34t-144 89.5t-82.5 122.5t-28.5 137z" />
    <glyph glyph-name="Gbreve" unicode="&#x11e;" horiz-adv-x="1568" 
d="M963 1544q-132 0 -214.5 65.5t-82.5 176.5q0 23 4 35h196q-2 -6 -2 -21q0 -37 28 -60.5t83 -23.5q62 0 99.5 30t49.5 75h213q-15 -52 -45 -99.5t-75 -88.5t-111 -65t-143 -24zM881 1217q-96 0 -183 -41t-153 -113.5t-105 -181.5t-39 -238q0 -188 99 -301t276 -113
q151 0 257.5 77t144.5 204h-451l51 246h713l-158 -756h-217l6 150q-65 -82 -165.5 -129.5t-225.5 -47.5q-276 0 -447 180.5t-171 473.5q0 133 30.5 252.5t85 212t128.5 167.5t162 123.5t185.5 74.5t198.5 26q113 0 210 -26.5t165 -70.5t119 -104t80 -123.5t41 -132.5
l-277 -82q-11 52 -36 98.5t-67 87t-108 64t-149 23.5z" />
    <glyph glyph-name="gbreve" unicode="&#x11f;" horiz-adv-x="1210" 
d="M791 590q0 87 -52.5 142.5t-144.5 55.5q-112 0 -186 -81.5t-74 -214.5q0 -94 54 -150.5t149 -56.5q108 0 181 83t73 222zM182 12q0 -83 56 -139.5t161 -56.5q225 0 291 274l17 68q-32 -42 -94.5 -71.5t-143.5 -29.5q-186 0 -297 118t-111 300q0 152 65 278.5t181.5 200.5
t261.5 74q114 0 189.5 -38t107.5 -97l25 115h266l-192 -920q-23 -107 -66.5 -195t-111 -160t-167.5 -112.5t-223 -40.5q-113 0 -203 34t-144 89.5t-82.5 122.5t-28.5 137zM690 1124q-136 0 -210 75t-74 185q0 20 4 52h178q-2 -6 -2 -17q0 -44 28.5 -75t90.5 -31
q69 0 108.5 36.5t54.5 86.5h201q-32 -135 -128 -223.5t-251 -88.5z" />
    <glyph glyph-name="Gdotaccent" unicode="&#x120;" horiz-adv-x="1568" 
d="M817 1700q0 68 54.5 122t127.5 54q65 0 107.5 -41t42.5 -102q0 -76 -53 -129.5t-127 -53.5q-66 0 -109 43.5t-43 106.5zM881 1217q-96 0 -183 -41t-153 -113.5t-105 -181.5t-39 -238q0 -188 99 -301t276 -113q151 0 257.5 77t144.5 204h-451l51 246h713l-158 -756h-217
l6 150q-65 -82 -165.5 -129.5t-225.5 -47.5q-276 0 -447 180.5t-171 473.5q0 133 30.5 252.5t85 212t128.5 167.5t162 123.5t185.5 74.5t198.5 26q113 0 210 -26.5t165 -70.5t119 -104t80 -123.5t41 -132.5l-277 -82q-11 52 -36 98.5t-67 87t-108 64t-149 23.5z" />
    <glyph glyph-name="gdotaccent" unicode="&#x121;" horiz-adv-x="1210" 
d="M532 1268q0 71 52.5 125.5t128.5 54.5q65 0 106 -41t41 -102q0 -77 -52.5 -131t-125.5 -54q-65 0 -107.5 43.5t-42.5 104.5zM791 590q0 87 -52.5 142.5t-144.5 55.5q-112 0 -186 -81.5t-74 -214.5q0 -94 54 -150.5t149 -56.5q108 0 181 83t73 222zM182 12
q0 -83 56 -139.5t161 -56.5q225 0 291 274l17 68q-32 -42 -94.5 -71.5t-143.5 -29.5q-186 0 -297 118t-111 300q0 152 65 278.5t181.5 200.5t261.5 74q114 0 189.5 -38t107.5 -97l25 115h266l-192 -920q-23 -107 -66.5 -195t-111 -160t-167.5 -112.5t-223 -40.5
q-113 0 -203 34t-144 89.5t-82.5 122.5t-28.5 137z" />
    <glyph glyph-name="Gcommaaccent" unicode="&#x122;" horiz-adv-x="1568" 
d="M514 -227q0 60 44.5 100.5t111.5 40.5q70 0 111.5 -43t41.5 -111q0 -127 -85.5 -199.5t-200.5 -72.5q-36 0 -60 6l23 96q10 -2 28 -2q122 0 154 80q-8 -8 -43 -8q-59 0 -92 33t-33 80zM881 1217q-96 0 -183 -41t-153 -113.5t-105 -181.5t-39 -238q0 -188 99 -301
t276 -113q151 0 257.5 77t144.5 204h-451l51 246h713l-158 -756h-217l6 150q-65 -82 -165.5 -129.5t-225.5 -47.5q-276 0 -447 180.5t-171 473.5q0 133 30.5 252.5t85 212t128.5 167.5t162 123.5t185.5 74.5t198.5 26q113 0 210 -26.5t165 -70.5t119 -104t80 -123.5
t41 -132.5l-277 -82q-11 52 -36 98.5t-67 87t-108 64t-149 23.5z" />
    <glyph glyph-name="gcommaaccent" unicode="&#x123;" horiz-adv-x="1210" 
d="M836 1255q0 -60 -44.5 -101.5t-111.5 -41.5t-109.5 44.5t-42.5 111.5q0 86 44.5 150t110.5 94t140 30q19 0 47 -4l-20 -100q-12 4 -33 4q-63 0 -102.5 -26t-48.5 -56q1 1 7.5 3.5t18 4.5t21.5 2q59 0 91 -33.5t32 -81.5zM791 590q0 87 -52.5 142.5t-144.5 55.5
q-112 0 -186 -81.5t-74 -214.5q0 -94 54 -150.5t149 -56.5q108 0 181 83t73 222zM182 12q0 -83 56 -139.5t161 -56.5q225 0 291 274l17 68q-32 -42 -94.5 -71.5t-143.5 -29.5q-186 0 -297 118t-111 300q0 152 65 278.5t181.5 200.5t261.5 74q114 0 189.5 -38t107.5 -97
l25 115h266l-192 -920q-23 -107 -66.5 -195t-111 -160t-167.5 -112.5t-223 -40.5q-113 0 -203 34t-144 89.5t-82.5 122.5t-28.5 137z" />
    <glyph glyph-name="Hcircumflex" unicode="&#x124;" horiz-adv-x="1492" 
d="M551 1554l299 261h280l193 -261h-238l-110 134l-168 -134h-256zM909 0l127 602h-583l-127 -602h-283l307 1452h283l-123 -584h584l123 584h284l-307 -1452h-285z" />
    <glyph glyph-name="hcircumflex" unicode="&#x125;" horiz-adv-x="1167" 
d="M641 0l125 584q6 30 6 59q0 69 -40 109.5t-114 40.5q-83 0 -137.5 -59t-74.5 -150l-127 -584h-271l314 1483h272l-117 -557q94 108 264 108q150 0 233 -88t83 -229q0 -47 -13 -107l-131 -610h-272zM381 1575l299 260h281l192 -260h-238l-110 133l-168 -133h-256z" />
    <glyph glyph-name="Hbar" unicode="&#x126;" horiz-adv-x="1525" 
d="M158 1237h164l45 215h282l-45 -215h584l45 215h285l-45 -215h161l-37 -178h-163l-224 -1059h-284l127 602h-584l-127 -602h-283l224 1059h-162zM1110 868l39 191h-584l-39 -191h584z" />
    <glyph glyph-name="hbar" unicode="&#x127;" horiz-adv-x="1167" 
d="M641 0l125 584q6 30 6 59q0 69 -40 109.5t-114 40.5q-83 0 -137.5 -59t-74.5 -150l-127 -584h-271l238 1130h-156l43 195h154l35 158h272l-33 -158h236l-43 -195h-234l-43 -204q94 108 264 108q150 0 233 -88t83 -229q0 -47 -13 -107l-131 -610h-272z" />
    <glyph glyph-name="Itilde" unicode="&#x128;" horiz-adv-x="628" 
d="M43 0l307 1452h287l-307 -1452h-287zM858 1817q-22 -120 -85 -181t-150 -61q-40 0 -71 12.5t-46.5 27.5t-35 27.5t-38.5 12.5q-45 0 -63 -76h-172q22 121 85.5 181.5t149.5 60.5q40 0 71.5 -12t47.5 -27t35.5 -27t38.5 -12q45 0 65 74h168z" />
    <glyph glyph-name="itilde" unicode="&#x129;" horiz-adv-x="546" 
d="M8 0l215 1008h273l-215 -1008h-273zM727 1417q-22 -120 -85 -180.5t-150 -60.5q-40 0 -71 12.5t-46.5 27t-35 27t-38.5 12.5q-45 0 -63 -75h-172q22 121 85.5 181t149.5 60q40 0 71.5 -12t47.5 -27t35.5 -27t38.5 -12q45 0 65 74h168z" />
    <glyph glyph-name="Imacron" unicode="&#x12a;" horiz-adv-x="628" 
d="M43 0l307 1452h287l-307 -1452h-287zM201 1585l41 205h624l-43 -205h-622z" />
    <glyph glyph-name="imacron" unicode="&#x12b;" horiz-adv-x="546" 
d="M8 0l215 1008h273l-215 -1008h-273zM98 1182l43 198h576l-41 -198h-578z" />
    <glyph glyph-name="Ibreve" unicode="&#x12c;" horiz-adv-x="628" 
d="M43 0l307 1452h287l-307 -1452h-287zM526 1544q-132 0 -214.5 65.5t-82.5 176.5q0 23 4 35h197q-2 -6 -2 -21q0 -37 28 -60.5t83 -23.5q62 0 99.5 30t49.5 75h213q-33 -113 -129.5 -195t-245.5 -82z" />
    <glyph glyph-name="ibreve" unicode="&#x12d;" horiz-adv-x="546" 
d="M8 0l215 1008h273l-215 -1008h-273zM379 1124q-136 0 -210.5 75t-74.5 185q0 20 4 52h178q-2 -6 -2 -17q0 -44 28.5 -75t90.5 -31q69 0 109 36.5t55 86.5h201q-32 -135 -128 -223.5t-251 -88.5z" />
    <glyph glyph-name="Iogonek" unicode="&#x12e;" horiz-adv-x="628" 
d="M147 -457q-95 0 -160 55t-65 146q0 156 160 256h-39l307 1452h287l-307 -1452q-80 -29 -142.5 -83.5t-62.5 -119.5q0 -40 26.5 -61t69.5 -23q29 0 49 4l-32 -161q-41 -13 -91 -13z" />
    <glyph glyph-name="iogonek" unicode="&#x12f;" horiz-adv-x="546" 
d="M96 -457q-95 0 -160 55t-65 146q0 159 160 256h-23l215 1008h271l-215 -1008q-80 -29 -142.5 -83.5t-62.5 -119.5q0 -40 26.5 -61t69.5 -23q29 0 49 4l-33 -161q-41 -13 -90 -13zM258 1327q0 75 54.5 128.5t129.5 53.5q67 0 109.5 -42.5t42.5 -104.5q0 -77 -56 -129.5
t-130 -52.5q-66 0 -108 42t-42 105z" />
    <glyph glyph-name="Idot" unicode="&#x130;" horiz-adv-x="628" 
d="M43 0l307 1452h287l-307 -1452h-287zM375 1694q0 68 54.5 122t127.5 54q65 0 107.5 -41.5t42.5 -102.5q0 -76 -53.5 -129t-127.5 -53q-66 0 -108.5 43.5t-42.5 106.5z" />
    <glyph glyph-name="dotlessi" unicode="&#x131;" horiz-adv-x="546" 
d="M8 0l215 1008h273l-215 -1008h-273z" />
    <glyph glyph-name="IJ" unicode="&#x132;" horiz-adv-x="1236" 
d="M172 696l166 756h268l-160 -731zM1257 1452l-223 -1049q-40 -197 -172.5 -315.5t-322.5 -118.5q-198 0 -312 112t-114 290q0 78 12 131l8 33l279 40l-19 -81q-10 -41 -10 -80q0 -78 43 -128t127 -50q78 0 130 52.5t71 145.5l217 1018h286z" />
    <glyph glyph-name="ij" unicode="&#x133;" horiz-adv-x="1089" 
d="M258 1327q0 75 54.5 128.5t129.5 53.5q67 0 109.5 -42.5t42.5 -104.5q0 -77 -56 -129.5t-130 -52.5q-66 0 -108 42t-42 105zM8 0l215 1008h271l-215 -1008h-271zM768 1008h270l-241 -1135q-30 -145 -118.5 -219t-219.5 -74q-65 0 -114.5 15t-68.5 30l46 213l5 -2
q5 -2 13.5 -4.5t19 -5t26 -4.5t30.5 -2q102 3 121 114zM803 1327q0 75 54.5 128.5t129.5 53.5q67 0 109.5 -42.5t42.5 -104.5q0 -77 -56.5 -129.5t-130.5 -52.5q-66 0 -107.5 42t-41.5 105z" />
    <glyph glyph-name="Jcircumflex" unicode="&#x134;" horiz-adv-x="1126" 
d="M618 1554l300 261h280l193 -261h-238l-111 134l-168 -134h-256zM1147 1452l-223 -1049q-40 -197 -173 -315.5t-323 -118.5q-198 0 -312 112t-114 290q0 75 12 131l13 53l276 39l-22 -113q-9 -35 -9 -67q0 -78 43 -128t127 -50q78 0 130 52.5t71 145.5l217 1018h287z" />
    <glyph glyph-name="jcircumflex" unicode="&#x135;" horiz-adv-x="544" 
d="M10 1130l295 302h270l164 -302h-213l-108 154l-174 -154h-234zM223 1008h271l-242 -1135q-30 -145 -118.5 -219t-219.5 -74q-65 0 -114 15t-68 30l45 213l5 -2q5 -2 13.5 -4.5t19 -5t26 -4.5t30.5 -2q102 3 121 114z" />
    <glyph glyph-name="Kcommaaccent" unicode="&#x136;" horiz-adv-x="1394" 
d="M623 602l-211 -190l-86 -412h-283l307 1452h283l-129 -612l680 612h389l-727 -651l420 -801h-332zM442 -227q0 60 44.5 100.5t111.5 40.5q71 0 112.5 -43.5t41.5 -110.5q0 -127 -86 -199.5t-201 -72.5q-35 0 -59 6l22 96q10 -2 29 -2q121 0 153 80q-8 -8 -43 -8
q-59 0 -92 33t-33 80z" />
    <glyph glyph-name="kcommaaccent" unicode="&#x137;" horiz-adv-x="1132" 
d="M489 403l-153 -131l-57 -272h-271l314 1483h272l-176 -828l401 353h379l-502 -428l287 -580h-305zM283 -227q0 60 44 100.5t111 40.5q71 0 112.5 -43.5t41.5 -110.5q0 -127 -86 -199.5t-201 -72.5q-35 0 -59 6l22 96q10 -2 29 -2q122 0 154 80q-8 -8 -43 -8q-59 0 -92 33
t-33 80z" />
    <glyph glyph-name="kgreenlandic" unicode="&#x138;" horiz-adv-x="1132" 
d="M489 403l-153 -131l-57 -272h-271l213 1008h273l-76 -353l401 353h379l-502 -428l287 -580h-305z" />
    <glyph glyph-name="Lacute" unicode="&#x139;" horiz-adv-x="1114" 
d="M643 1554h-262l262 261h346zM43 0l307 1452h283l-250 -1182h631l-58 -270h-913z" />
    <glyph glyph-name="lacute" unicode="&#x13a;" horiz-adv-x="542" 
d="M600 1575h-262l262 260h346zM8 0l314 1483h272l-315 -1483h-271z" />
    <glyph glyph-name="Lcommaaccent" unicode="&#x13b;" horiz-adv-x="1114" 
d="M334 -227q0 60 44 100.5t111 40.5q71 0 112.5 -43.5t41.5 -110.5q0 -127 -86 -199.5t-201 -72.5q-35 0 -59 6l22 96q10 -2 29 -2q122 0 154 80q-8 -8 -43 -8q-59 0 -92 33t-33 80zM43 0l307 1452h283l-250 -1182h631l-58 -270h-913z" />
    <glyph glyph-name="lcommaaccent" unicode="&#x13c;" horiz-adv-x="542" 
d="M-57 -227q0 60 44 100.5t111 40.5q71 0 112.5 -43.5t41.5 -110.5q0 -127 -86 -199.5t-201 -72.5q-35 0 -59 6l22 96q10 -2 29 -2q122 0 154 80q-8 -8 -43 -8q-59 0 -92 33t-33 80zM8 0l314 1483h272l-315 -1483h-271z" />
    <glyph glyph-name="Lcaron" unicode="&#x13d;" horiz-adv-x="1114" 
d="M43 0l307 1452h283l-250 -1182h631l-58 -270h-913zM918 1130h-199l149 426h291z" />
    <glyph glyph-name="lcaron" unicode="&#x13e;" horiz-adv-x="542" 
d="M797 1077h-191l144 406h278zM8 0l314 1483h272l-315 -1483h-271z" />
    <glyph glyph-name="Ldot" unicode="&#x13f;" horiz-adv-x="1114" 
d="M662 791q0 67 54 121.5t128 54.5q65 0 107 -41.5t42 -102.5q0 -76 -53 -129t-127 -53q-66 0 -108.5 43.5t-42.5 106.5zM43 0l307 1452h283l-250 -1182h631l-58 -270h-913z" />
    <glyph glyph-name="ldot" unicode="&#x140;" horiz-adv-x="811" 
d="M8 0l314 1483h272l-315 -1483h-271zM524 659q0 71 52.5 126t128.5 55q65 0 106 -41.5t41 -102.5q0 -77 -52.5 -130.5t-125.5 -53.5q-65 0 -107.5 43t-42.5 104z" />
    <glyph glyph-name="Lslash" unicode="&#x141;" horiz-adv-x="1161" 
d="M92 0l123 580l-209 -86l49 227l207 84l137 647h283l-111 -520l312 129l-47 -225l-312 -129l-92 -437h631l-57 -270h-914z" />
    <glyph glyph-name="lslash" unicode="&#x142;" horiz-adv-x="757" 
d="M115 0l125 588l-191 -78l49 227l189 76l141 670h272l-116 -547l211 86l-50 -225l-208 -86l-152 -711h-270z" />
    <glyph glyph-name="Nacute" unicode="&#x143;" horiz-adv-x="1542" 
d="M1059 1554h-262l262 261h346zM961 0l-420 1026l-217 -1026h-281l307 1452h326l385 -969l207 969h282l-307 -1452h-282z" />
    <glyph glyph-name="nacute" unicode="&#x144;" horiz-adv-x="1169" 
d="M743 1128h-233l246 308h331zM643 0l125 584q6 30 6 59q0 69 -39.5 109.5t-113.5 40.5q-83 0 -138 -59t-75 -150l-127 -584h-271l176 836q21 88 21 172h264q0 -62 -6 -103q47 65 123 97t160 32q148 0 229.5 -88t81.5 -229q0 -51 -12 -107l-132 -610h-272z" />
    <glyph glyph-name="Ncommaaccent" unicode="&#x145;" horiz-adv-x="1542" 
d="M508 -227q0 60 44.5 100.5t111.5 40.5q70 0 111.5 -43t41.5 -111q0 -127 -86 -199.5t-201 -72.5q-35 0 -59 6l23 96q10 -2 28 -2q122 0 154 80q-8 -8 -43 -8q-59 0 -92 33t-33 80zM961 0l-420 1026l-217 -1026h-281l307 1452h326l385 -969l207 969h282l-307 -1452h-282z
" />
    <glyph glyph-name="ncommaaccent" unicode="&#x146;" horiz-adv-x="1169" 
d="M291 -227q0 60 44 100.5t111 40.5q71 0 112.5 -43.5t41.5 -110.5q0 -127 -86 -199.5t-201 -72.5q-35 0 -59 6l22 96q10 -2 29 -2q122 0 154 80q-8 -8 -43 -8q-59 0 -92 33t-33 80zM643 0l125 584q6 30 6 59q0 69 -39.5 109.5t-113.5 40.5q-83 0 -138 -59t-75 -150
l-127 -584h-271l176 836q21 88 21 172h264q0 -62 -6 -103q47 65 123 97t160 32q148 0 229.5 -88t81.5 -229q0 -51 -12 -107l-132 -610h-272z" />
    <glyph glyph-name="Ncaron" unicode="&#x147;" horiz-adv-x="1542" 
d="M1395 1815l-303 -261h-281l-188 261h235l109 -132l166 132h262zM961 0l-420 1026l-217 -1026h-281l307 1452h326l385 -969l207 969h282l-307 -1452h-282z" />
    <glyph glyph-name="ncaron" unicode="&#x148;" horiz-adv-x="1169" 
d="M1087 1434l-290 -304h-273l-162 304h211l111 -154l168 154h235zM643 0l125 584q6 30 6 59q0 69 -39.5 109.5t-113.5 40.5q-83 0 -138 -59t-75 -150l-127 -584h-271l176 836q21 88 21 172h264q0 -62 -6 -103q47 65 123 97t160 32q148 0 229.5 -88t81.5 -229
q0 -51 -12 -107l-132 -610h-272z" />
    <glyph glyph-name="napostrophe" unicode="&#x149;" horiz-adv-x="1169" 
d="M254 1202q6 -2 31 -2q114 0 153 80q-24 -8 -45 -8q-59 0 -92 32.5t-33 79.5q0 60 45 101t111 41q71 0 111 -41.5t40 -110.5q0 -125 -83 -199.5t-205 -74.5q-18 0 -54 4zM643 0l125 584q6 30 6 59q0 69 -39.5 109.5t-113.5 40.5q-83 0 -138 -59t-75 -150l-127 -584h-271
l176 836q21 88 21 172h264q0 -62 -6 -103q47 65 123 97t160 32q148 0 229.5 -88t81.5 -229q0 -51 -12 -107l-132 -610h-272z" />
    <glyph glyph-name="Eng" unicode="&#x14a;" horiz-adv-x="1542" 
d="M965 -8l-424 1034l-217 -1026h-281l307 1452h326l385 -969l207 969h282l-333 -1575q-29 -136 -125.5 -215.5t-227.5 -79.5q-52 0 -99.5 10t-68.5 19t-28 14l49 228q2 -2 14 -7t39 -10.5t55 -5.5q104 0 127 104z" />
    <glyph glyph-name="eng" unicode="&#x14b;" horiz-adv-x="1169" 
d="M547 -428q-64 0 -113.5 15t-68.5 30l45 213q42 -18 88 -18q59 0 88 25.5t41 86.5l141 660q6 30 6 59q0 69 -39.5 109.5t-113.5 40.5q-83 0 -138 -59t-75 -150l-127 -584h-271l176 836q21 88 21 172h264q0 -60 -6 -103q47 65 123 97t160 32q148 0 228.5 -88t80.5 -229
q0 -58 -10 -107l-160 -747q-30 -143 -119 -217t-221 -74z" />
    <glyph glyph-name="Omacron" unicode="&#x14c;" horiz-adv-x="1593" 
d="M635 1585l41 205h624l-43 -205h-622zM111 618q0 134 30.5 255t84 214.5t127 169t160.5 125t183 75.5t195 26q288 0 464.5 -179t176.5 -470q0 -161 -43 -301t-117.5 -242t-173.5 -175.5t-212.5 -110t-231.5 -36.5q-288 0 -465.5 180t-177.5 469zM1241 817q0 185 -98 291
t-269 106q-132 0 -241.5 -77.5t-171.5 -209t-62 -288.5q0 -183 100 -290t267 -107q129 0 236.5 72t171.5 204t67 299z" />
    <glyph glyph-name="omacron" unicode="&#x14d;" horiz-adv-x="1179" 
d="M377 1182l43 198h575l-41 -198h-577zM602 791q-117 0 -194.5 -97.5t-77.5 -242.5q0 -109 56.5 -171.5t150.5 -62.5q49 0 96.5 22t87 62.5t64 108t24.5 149.5q0 109 -56 170.5t-151 61.5zM1081 569q0 -162 -71.5 -299t-201.5 -219t-290 -82q-137 0 -243 62.5t-162 169
t-56 237.5q0 130 44.5 242.5t121 190.5t180.5 122.5t220 44.5q210 0 334 -133.5t124 -335.5z" />
    <glyph glyph-name="Obreve" unicode="&#x14e;" horiz-adv-x="1593" 
d="M979 1544q-132 0 -214.5 65.5t-82.5 176.5q0 23 4 35h197q-2 -6 -2 -21q0 -37 28 -60.5t82 -23.5q62 0 100.5 30t49.5 75h213q-33 -113 -129.5 -195t-245.5 -82zM111 618q0 134 30.5 255t84 214.5t127 169t160.5 125t183 75.5t195 26q288 0 464.5 -179t176.5 -470
q0 -161 -43 -301t-117.5 -242t-173.5 -175.5t-212.5 -110t-231.5 -36.5q-288 0 -465.5 180t-177.5 469zM1241 817q0 185 -98 291t-269 106q-132 0 -241.5 -77.5t-171.5 -209t-62 -288.5q0 -183 100 -290t267 -107q129 0 236.5 72t171.5 204t67 299z" />
    <glyph glyph-name="obreve" unicode="&#x14f;" horiz-adv-x="1179" 
d="M602 791q-117 0 -194.5 -97.5t-77.5 -242.5q0 -109 56.5 -171.5t150.5 -62.5q49 0 96.5 22t87 62.5t64 108t24.5 149.5q0 109 -56 170.5t-151 61.5zM1081 569q0 -162 -71.5 -299t-201.5 -219t-290 -82q-137 0 -243 62.5t-162 169t-56 237.5q0 130 44.5 242.5t121 190.5
t180.5 122.5t220 44.5q210 0 334 -133.5t124 -335.5zM680 1124q-136 0 -210.5 75t-74.5 185q0 20 4 52h179q-3 -9 -3 -17q0 -44 28.5 -75t90.5 -31q69 0 109 36.5t55 86.5h201q-32 -135 -128 -223.5t-251 -88.5z" />
    <glyph glyph-name="Ohungarumlaut" unicode="&#x150;" horiz-adv-x="1593" 
d="M836 1554h-181l160 261h268zM1163 1554h-184l188 261h271zM111 618q0 134 30.5 255t84 214.5t127 169t160.5 125t183 75.5t195 26q288 0 464.5 -179t176.5 -470q0 -161 -43 -301t-117.5 -242t-173.5 -175.5t-212.5 -110t-231.5 -36.5q-288 0 -465.5 180t-177.5 469z
M1241 817q0 185 -98 291t-269 106q-132 0 -241.5 -77.5t-171.5 -209t-62 -288.5q0 -183 100 -290t267 -107q129 0 236.5 72t171.5 204t67 299z" />
    <glyph glyph-name="ohungarumlaut" unicode="&#x151;" horiz-adv-x="1179" 
d="M557 1128h-180l172 308h274zM870 1128h-182l203 308h276zM602 791q-117 0 -194.5 -97.5t-77.5 -242.5q0 -109 56.5 -171.5t150.5 -62.5q49 0 96.5 22t87 62.5t64 108t24.5 149.5q0 109 -56 170.5t-151 61.5zM1081 569q0 -162 -71.5 -299t-201.5 -219t-290 -82
q-137 0 -243 62.5t-162 169t-56 237.5q0 130 44.5 242.5t121 190.5t180.5 122.5t220 44.5q210 0 334 -133.5t124 -335.5z" />
    <glyph glyph-name="OE" unicode="&#x152;" horiz-adv-x="2222" 
d="M1083 0l23 111q-164 -142 -375 -142q-182 0 -323.5 82.5t-219 230t-77.5 336.5q0 134 30.5 255t84 214.5t127 169t160.5 125t183 75.5t195 26q184 0 296 -63.5t161 -164.5l43 197h905l-58 -266h-620l-72 -332h563l-53 -252h-563l-72 -336h623l-55 -266h-906zM1241 817
q0 185 -98 291t-269 106q-137 0 -247 -80.5t-169 -211t-59 -283.5q0 -183 100 -290t267 -107q129 0 236.5 72t171.5 204t67 299z" />
    <glyph glyph-name="oe" unicode="&#x153;" horiz-adv-x="1869" 
d="M1268 -31q-110 0 -205 44t-158 124q-155 -168 -387 -168q-137 0 -243 62.5t-162 169t-56 237.5q0 130 44.5 242.5t121 190.5t180.5 122.5t220 44.5q232 0 350 -164q75 78 171.5 121t198.5 43q208 0 325.5 -117.5t117.5 -306.5q0 -93 -29 -182h-698q-2 -4 -2 -14
q2 -96 62.5 -158.5t162.5 -62.5q80 0 136.5 36t88.5 95l209 -105q-55 -109 -169 -181.5t-279 -72.5zM1528 618q2 6 2 25q0 67 -48 120.5t-143 53.5q-98 0 -161.5 -55t-92.5 -144h443zM809 559q0 109 -56 170.5t-151 61.5q-117 0 -194.5 -97.5t-77.5 -242.5
q0 -109 56.5 -171.5t150.5 -62.5q49 0 96.5 22t87 62.5t64 108t24.5 149.5z" />
    <glyph glyph-name="Racute" unicode="&#x154;" horiz-adv-x="1304" 
d="M885 1554h-262l262 261h346zM629 561h-185l-118 -561h-283l307 1452h506q197 0 306.5 -104t109.5 -269q0 -180 -100 -304.5t-265 -176.5l226 -598h-302zM713 807q123 0 196.5 64.5t73.5 170.5q0 76 -47.5 120t-142.5 44h-211l-86 -399h217z" />
    <glyph glyph-name="racute" unicode="&#x155;" horiz-adv-x="786" 
d="M578 1128h-234l246 308h332zM770 731q-58 14 -98 14q-228 0 -291 -280l-100 -465h-271l176 836q23 96 23 172h264q0 -76 -12 -125q95 131 280 131q55 0 86 -8z" />
    <glyph glyph-name="Rcommaaccent" unicode="&#x156;" horiz-adv-x="1304" 
d="M629 561h-185l-118 -561h-283l307 1452h506q197 0 306.5 -104t109.5 -269q0 -180 -100 -304.5t-265 -176.5l226 -598h-302zM713 807q123 0 196.5 64.5t73.5 170.5q0 76 -47.5 120t-142.5 44h-211l-86 -399h217zM397 -227q0 60 44.5 100.5t111.5 40.5q71 0 112.5 -43.5
t41.5 -110.5q0 -127 -86 -199.5t-201 -72.5q-36 0 -60 6l23 96q10 -2 29 -2q121 0 153 80q-8 -8 -43 -8q-59 0 -92 33t-33 80z" />
    <glyph glyph-name="rcommaaccent" unicode="&#x157;" horiz-adv-x="786" 
d="M770 731q-58 14 -98 14q-228 0 -291 -280l-100 -465h-271l176 836q23 96 23 172h264q0 -76 -12 -125q95 131 280 131q55 0 86 -8zM-49 -227q0 60 44 100.5t111 40.5q71 0 112.5 -43.5t41.5 -110.5q0 -127 -86 -199.5t-201 -72.5q-35 0 -59 6l23 96q10 -2 28 -2
q122 0 154 80q-8 -8 -43 -8q-59 0 -92 33t-33 80z" />
    <glyph glyph-name="Rcaron" unicode="&#x158;" horiz-adv-x="1304" 
d="M1247 1815l-303 -261h-280l-189 261h236l108 -132l166 132h262zM629 561h-185l-118 -561h-283l307 1452h506q197 0 306.5 -104t109.5 -269q0 -180 -100 -304.5t-265 -176.5l226 -598h-302zM713 807q123 0 196.5 64.5t73.5 170.5q0 76 -47.5 120t-142.5 44h-211l-86 -399
h217z" />
    <glyph glyph-name="rcaron" unicode="&#x159;" horiz-adv-x="786" 
d="M948 1434l-291 -304h-272l-162 304h211l111 -154l168 154h235zM770 731q-58 14 -98 14q-228 0 -291 -280l-100 -465h-271l176 836q23 96 23 172h264q0 -76 -12 -125q95 131 280 131q55 0 86 -8z" />
    <glyph glyph-name="Sacute" unicode="&#x15a;" horiz-adv-x="1228" 
d="M578 215q103 0 163 49.5t62 128.5q0 109 -123 162l-176 78q-281 124 -281 389q0 132 70 238t187 163.5t257 57.5q110 0 198.5 -29t142 -74t89.5 -103t50 -111t14 -103l-264 -45q0 21 -4 44t-18.5 56t-39 58t-71.5 43t-109 18q-95 0 -156 -54.5t-61 -129.5
q0 -106 115 -160l168 -74q158 -71 230.5 -169.5t72.5 -231.5q0 -86 -35.5 -166t-99 -142.5t-162 -100.5t-215.5 -38q-116 0 -210.5 30t-155.5 78.5t-103 112t-60 127t-18 127.5q0 34 4 43l264 45q-2 -18 -2 -43q0 -72 27 -131t91.5 -99.5t158.5 -43.5zM913 1554h-262
l262 261h347z" />
    <glyph glyph-name="sacute" unicode="&#x15b;" horiz-adv-x="937" 
d="M668 1128h-234l246 308h332zM240 350q-2 -6 -2 -18q0 -68 43.5 -113t115.5 -45q62 0 93.5 29t31.5 71q0 64 -76 99l-112 49q-114 48 -164.5 118t-50.5 165q0 139 108 236t277 97q86 0 153.5 -21.5t107 -53.5t66 -75.5t36.5 -81.5t12 -77l-236 -37q0 57 -34.5 100.5
t-112.5 43.5q-53 0 -87 -29.5t-34 -71.5q0 -60 63 -86l129 -55q224 -98 224 -295q0 -59 -25 -116.5t-71.5 -106t-123 -78t-170.5 -29.5q-96 0 -169.5 25.5t-114.5 62.5t-67 86t-34 88.5t-8 77.5z" />
    <glyph glyph-name="Scircumflex" unicode="&#x15c;" horiz-adv-x="1228" 
d="M420 1554l299 261h280l193 -261h-238l-110 134l-168 -134h-256zM578 215q103 0 163 49.5t62 128.5q0 109 -123 162l-176 78q-281 124 -281 389q0 132 70 238t187 163.5t257 57.5q110 0 198.5 -29t142 -74t89.5 -103t50 -111t14 -103l-264 -45q0 21 -4 44t-18.5 56t-39 58
t-71.5 43t-109 18q-95 0 -156 -54.5t-61 -129.5q0 -106 115 -160l168 -74q158 -71 230.5 -169.5t72.5 -231.5q0 -86 -35.5 -166t-99 -142.5t-162 -100.5t-215.5 -38q-116 0 -210.5 30t-155.5 78.5t-103 112t-60 127t-18 127.5q0 34 4 43l264 45q-2 -18 -2 -43q0 -72 27 -131
t91.5 -99.5t158.5 -43.5z" />
    <glyph glyph-name="scircumflex" unicode="&#x15d;" horiz-adv-x="937" 
d="M205 1130l295 302h270l164 -302h-213l-109 154l-174 -154h-233zM240 350q-2 -6 -2 -18q0 -68 43.5 -113t115.5 -45q62 0 93.5 29t31.5 71q0 64 -76 99l-112 49q-114 48 -164.5 118t-50.5 165q0 139 108 236t277 97q86 0 153.5 -21.5t107 -53.5t66 -75.5t36.5 -81.5
t12 -77l-236 -37q0 57 -34.5 100.5t-112.5 43.5q-53 0 -87 -29.5t-34 -71.5q0 -60 63 -86l129 -55q224 -98 224 -295q0 -59 -25 -116.5t-71.5 -106t-123 -78t-170.5 -29.5q-96 0 -169.5 25.5t-114.5 62.5t-67 86t-34 88.5t-8 77.5z" />
    <glyph glyph-name="Scedilla" unicode="&#x15e;" horiz-adv-x="1228" 
d="M422 -14q-100 21 -177.5 71.5t-121.5 116t-66 134t-22 136.5q0 25 4 43l264 45q-2 -18 -2 -43q0 -120 73.5 -197t203.5 -77q103 0 163 49.5t62 128.5q0 109 -123 162l-176 78q-281 124 -281 389q0 132 70 238t187 163.5t257 57.5q110 0 198.5 -29t142 -74t89.5 -103
t50 -111t14 -103l-264 -45q0 21 -4 44t-18.5 56t-39 58t-71.5 43t-109 18q-95 0 -156 -54.5t-61 -129.5q0 -106 115 -160l168 -74q158 -71 230.5 -169.5t72.5 -231.5q0 -84 -34.5 -163t-97 -141.5t-159 -101.5t-211.5 -41l-80 -78q72 -7 114 -50.5t42 -104.5q0 -81 -67 -143
t-189 -62q-104 0 -178 48.5t-91 90.5l113 94q55 -92 150 -92q37 0 60 16t23 44q0 59 -81 59q-15 0 -35 -4l-49 102z" />
    <glyph glyph-name="scedilla" unicode="&#x15f;" horiz-adv-x="937" 
d="M362 -109q72 -7 114 -50.5t42 -104.5q0 -81 -67 -143t-189 -62q-104 0 -177.5 48.5t-90.5 90.5l112 94q55 -92 150 -92q37 0 60.5 16t23.5 44q0 29 -22.5 44t-59.5 15q-15 0 -35 -4l-49 102l96 95q-63 14 -111.5 44t-76.5 64.5t-45.5 76.5t-23 75t-5.5 65l232 41
q-2 -6 -2 -18q0 -68 43.5 -113t115.5 -45q62 0 93.5 29t31.5 71q0 64 -76 99l-112 49q-114 48 -164.5 118t-50.5 165q0 139 108 236t277 97q86 0 153.5 -21.5t107 -53.5t66 -75.5t36.5 -81.5t12 -77l-236 -37q0 57 -34.5 100.5t-112.5 43.5q-53 0 -87 -29.5t-34 -71.5
q0 -60 63 -86l129 -55q224 -98 224 -295q0 -56 -21.5 -110.5t-62 -101.5t-108.5 -78.5t-153 -37.5z" />
    <glyph glyph-name="Scaron" unicode="&#x160;" horiz-adv-x="1228" 
d="M1247 1815l-303 -261h-280l-189 261h236l108 -132l166 132h262zM578 215q103 0 163 49.5t62 128.5q0 109 -123 162l-176 78q-281 124 -281 389q0 132 70 238t187 163.5t257 57.5q110 0 198.5 -29t142 -74t89.5 -103t50 -111t14 -103l-264 -45q0 21 -4 44t-18.5 56t-39 58
t-71.5 43t-109 18q-95 0 -156 -54.5t-61 -129.5q0 -106 115 -160l168 -74q158 -71 230.5 -169.5t72.5 -231.5q0 -86 -35.5 -166t-99 -142.5t-162 -100.5t-215.5 -38q-116 0 -210.5 30t-155.5 78.5t-103 112t-60 127t-18 127.5q0 34 4 43l264 45q-2 -18 -2 -43q0 -72 27 -131
t91.5 -99.5t158.5 -43.5z" />
    <glyph glyph-name="scaron" unicode="&#x161;" horiz-adv-x="937" 
d="M993 1434l-291 -304h-272l-162 304h211l111 -154l168 154h235zM240 350q-2 -6 -2 -18q0 -68 43.5 -113t115.5 -45q62 0 93.5 29t31.5 71q0 64 -76 99l-112 49q-114 48 -164.5 118t-50.5 165q0 139 108 236t277 97q86 0 153.5 -21.5t107 -53.5t66 -75.5t36.5 -81.5t12 -77
l-236 -37q0 57 -34.5 100.5t-112.5 43.5q-53 0 -87 -29.5t-34 -71.5q0 -60 63 -86l129 -55q224 -98 224 -295q0 -59 -25 -116.5t-71.5 -106t-123 -78t-170.5 -29.5q-96 0 -169.5 25.5t-114.5 62.5t-67 86t-34 88.5t-8 77.5z" />
    <glyph glyph-name="Tcommaaccent" unicode="&#x162;" horiz-adv-x="1212" 
d="M879 1184l-250 -1184h-45l-113 -109q72 -7 114 -50.5t42 -104.5q0 -81 -67 -143t-189 -62q-104 0 -178 48.5t-91 90.5l113 94q55 -92 150 -92q37 0 60.5 16t23.5 44q0 29 -22.5 44t-59.5 15q-15 0 -35 -4l-49 102l112 111h-49l250 1184h-440l57 268h1145l-58 -268h-421z
" />
    <glyph glyph-name="tcommaaccent" unicode="&#x163;" horiz-adv-x="759" 
d="M117 -227q0 60 44 100.5t111 40.5q71 0 112.5 -43.5t41.5 -110.5q0 -127 -86 -199.5t-201 -72.5q-35 0 -59 6l22 96q10 -2 29 -2q122 0 154 80q-8 -8 -43 -8q-59 0 -92 33t-33 80zM428 -12q-133 0 -208 69t-75 191q0 40 9 80l94 438h-178l51 242h41q85 0 131.5 41
t64.5 122l31 138h246l-66 -301h197l-51 -242h-197l-88 -420q-6 -21 -6 -41q0 -86 108 -86q51 0 72 8l-47 -217q-51 -22 -129 -22z" />
    <glyph glyph-name="Tcaron" unicode="&#x164;" horiz-adv-x="1212" 
d="M1249 1815l-303 -261h-280l-189 261h236l108 -132l166 132h262zM879 1184l-250 -1184h-283l250 1184h-440l57 268h1145l-58 -268h-421z" />
    <glyph glyph-name="tcaron" unicode="&#x165;" horiz-adv-x="759" 
d="M428 -12q-133 0 -208 69t-75 191q0 40 9 80l94 438h-178l51 242h41q85 0 131.5 41t64.5 122l31 138h246l-66 -301h197l-51 -242h-197l-88 -420q-6 -21 -6 -41q0 -86 108 -86q51 0 72 8l-47 -217q-51 -22 -129 -22zM889 1139h-191l144 405h278z" />
    <glyph glyph-name="Tbar" unicode="&#x166;" horiz-adv-x="1212" 
d="M879 1184l-91 -422h252l-45 -211h-250l-116 -551h-283l117 551h-260l45 211h258l90 422h-440l57 268h1145l-58 -268h-421z" />
    <glyph glyph-name="tbar" unicode="&#x167;" horiz-adv-x="759" 
d="M483 602h203l-41 -194h-203l-12 -58q-6 -24 -6 -45q0 -86 108 -86q51 0 72 8l-47 -217q-51 -22 -129 -22q-133 0 -208 69t-75 191q0 40 9 80l16 80h-174l41 194h176l35 164h-178l51 242h41q85 0 131.5 41t64.5 122l31 138h246l-66 -301h197l-51 -242h-197z" />
    <glyph glyph-name="Utilde" unicode="&#x168;" horiz-adv-x="1409" 
d="M1430 1452l-211 -993q-48 -236 -204 -363t-374 -127q-230 0 -370 126t-140 339q0 59 16 141l185 877h282l-186 -889q-10 -55 -10 -92q0 -107 60.5 -167t185.5 -60q224 0 280 262l199 946h287zM1223 1817q-22 -120 -85.5 -181t-150.5 -61q-40 0 -70.5 12.5t-46 27.5
t-35 27.5t-38.5 12.5q-46 0 -64 -76h-172q22 121 86 181.5t150 60.5q40 0 71.5 -12t47 -27t35 -27t38.5 -12q46 0 66 74h168z" />
    <glyph glyph-name="utilde" unicode="&#x169;" horiz-adv-x="1159" 
d="M481 1008l-116 -545q-15 -64 -15 -96q0 -70 38 -111t114 -41q82 0 133.5 57t71.5 150l127 586h270l-168 -803q-23 -106 -23 -182v-23h-260q-2 14 -2 43q0 30 2 61q-40 -61 -110 -95t-142 -34q-156 0 -242.5 92t-86.5 238q0 57 20 150l119 553h270zM1022 1417
q-22 -120 -85.5 -180.5t-150.5 -60.5q-40 0 -70.5 12.5t-46 27t-35 27t-38.5 12.5q-46 0 -64 -75h-172q22 121 86 181t150 60q40 0 71.5 -12t47 -27t35 -27t38.5 -12q46 0 66 74h168z" />
    <glyph glyph-name="Umacron" unicode="&#x16a;" horiz-adv-x="1409" 
d="M1430 1452l-211 -993q-48 -236 -204 -363t-374 -127q-230 0 -370 126t-140 339q0 59 16 141l185 877h282l-186 -889q-10 -55 -10 -92q0 -107 60.5 -167t185.5 -60q224 0 280 262l199 946h287zM588 1585l41 205h624l-43 -205h-622z" />
    <glyph glyph-name="umacron" unicode="&#x16b;" horiz-adv-x="1159" 
d="M481 1008l-116 -545q-15 -64 -15 -96q0 -70 38 -111t114 -41q82 0 133.5 57t71.5 150l127 586h270l-168 -803q-23 -106 -23 -182v-23h-260q-2 14 -2 43q0 30 2 61q-40 -61 -110 -95t-142 -34q-156 0 -242.5 92t-86.5 238q0 57 20 150l119 553h270zM383 1182l43 198h575
l-40 -198h-578z" />
    <glyph glyph-name="Ubreve" unicode="&#x16c;" horiz-adv-x="1409" 
d="M1430 1452l-211 -993q-48 -236 -204 -363t-374 -127q-230 0 -370 126t-140 339q0 59 16 141l185 877h282l-186 -889q-10 -55 -10 -92q0 -107 60.5 -167t185.5 -60q224 0 280 262l199 946h287zM899 1544q-132 0 -214.5 65.5t-82.5 176.5q0 23 4 35h197q-2 -6 -2 -21
q0 -37 28 -60.5t82 -23.5q62 0 100.5 30t49.5 75h213q-33 -113 -129.5 -195t-245.5 -82z" />
    <glyph glyph-name="ubreve" unicode="&#x16d;" horiz-adv-x="1159" 
d="M481 1008l-116 -545q-15 -64 -15 -96q0 -70 38 -111t114 -41q82 0 133.5 57t71.5 150l127 586h270l-168 -803q-23 -106 -23 -182v-23h-260q-2 14 -2 43q0 30 2 61q-40 -61 -110 -95t-142 -34q-156 0 -242.5 92t-86.5 238q0 57 20 150l119 553h270zM678 1124
q-136 0 -210.5 75t-74.5 185q0 20 4 52h178q-2 -6 -2 -17q0 -44 28.5 -75t90.5 -31q69 0 109 36.5t55 86.5h201q-32 -135 -128 -223.5t-251 -88.5z" />
    <glyph glyph-name="Uring" unicode="&#x16e;" horiz-adv-x="1409" 
d="M1430 1452l-211 -993q-48 -236 -204 -363t-374 -127q-230 0 -370 126t-140 339q0 59 16 141l185 877h282l-186 -889q-10 -55 -10 -92q0 -107 60.5 -167t185.5 -60q224 0 280 262l199 946h287zM915 1853q-42 0 -74 -31t-32 -77q0 -38 24.5 -61t65.5 -23q44 0 76.5 29.5
t32.5 76.5q0 38 -26 62t-67 24zM641 1731q0 118 86.5 201t204.5 83q105 0 176.5 -67t71.5 -166q0 -119 -89.5 -202t-203.5 -83q-103 0 -174.5 67.5t-71.5 166.5z" />
    <glyph glyph-name="uring" unicode="&#x16f;" horiz-adv-x="1159" 
d="M715 1554q94 0 155.5 -56.5t61.5 -147.5q0 -104 -76.5 -176t-177.5 -72q-91 0 -153 59t-62 146q0 106 76.5 176.5t175.5 70.5zM610 1319q0 -35 21 -54.5t57 -19.5q38 0 64 25t26 65q0 33 -20.5 53.5t-55.5 20.5q-37 0 -64.5 -25t-27.5 -65zM481 1008l-116 -545
q-15 -64 -15 -96q0 -70 38 -111t114 -41q82 0 133.5 57t71.5 150l127 586h270l-168 -803q-23 -106 -23 -182v-23h-260q-2 14 -2 43q0 30 2 61q-40 -61 -110 -95t-142 -34q-156 0 -242.5 92t-86.5 238q0 57 20 150l119 553h270z" />
    <glyph glyph-name="Uhungarumlaut" unicode="&#x170;" horiz-adv-x="1409" 
d="M799 1554h-181l160 261h269zM1126 1554h-184l188 261h271zM1430 1452l-211 -993q-48 -236 -204 -363t-374 -127q-230 0 -370 126t-140 339q0 59 16 141l185 877h282l-186 -889q-10 -55 -10 -92q0 -107 60.5 -167t185.5 -60q224 0 280 262l199 946h287z" />
    <glyph glyph-name="uhungarumlaut" unicode="&#x171;" horiz-adv-x="1159" 
d="M481 1008l-116 -545q-15 -64 -15 -96q0 -70 38 -111t114 -41q82 0 133.5 57t71.5 150l127 586h270l-168 -803q-23 -106 -23 -182v-23h-260q-2 14 -2 43q0 30 2 61q-40 -61 -110 -95t-142 -34q-156 0 -242.5 92t-86.5 238q0 57 20 150l119 553h270zM567 1128h-180l172 308
h275zM881 1128h-183l203 308h277z" />
    <glyph glyph-name="Uogonek" unicode="&#x172;" horiz-adv-x="1409" 
d="M1430 1452l-211 -993q-37 -179 -133.5 -294t-239.5 -163q-51 -18 -96 -46t-80 -71t-35 -88q0 -40 26.5 -61t69.5 -23q29 0 49 4l-32 -161q-41 -13 -91 -13q-95 0 -160 55t-65 146q0 140 121 231q-197 23 -309.5 144t-112.5 315q0 59 16 141l185 877h282l-186 -889
q-10 -55 -10 -92q0 -107 60.5 -167t185.5 -60q224 0 280 262l199 946h287z" />
    <glyph glyph-name="uogonek" unicode="&#x173;" horiz-adv-x="1159" 
d="M481 1008l-123 -574q-8 -31 -8 -67q0 -70 38 -111t114 -41q82 0 133.5 57t71.5 150l127 586h270l-168 -803q-23 -106 -23 -182v-23q-80 -29 -142 -83.5t-62 -119.5q0 -40 26.5 -61t69.5 -23q29 0 49 4l-33 -161q-41 -13 -90 -13q-95 0 -160 55t-65 146q0 159 160 256h-13
q-2 23 -2 43q0 28 2 61q-40 -61 -110 -95t-142 -34q-156 0 -242.5 92t-86.5 238q0 53 12 111l127 592h270z" />
    <glyph glyph-name="Wcircumflex" unicode="&#x174;" horiz-adv-x="2082" 
d="M836 1554l299 261h280l193 -261h-238l-110 134l-168 -134h-256zM1350 1452l110 -1008l455 1008h301l-688 -1452h-285l-113 1034l-524 -1034h-297l-96 1452h283l55 -1003l506 1003h293z" />
    <glyph glyph-name="wcircumflex" unicode="&#x175;" horiz-adv-x="1683" 
d="M551 1130l295 302h270l164 -302h-213l-109 154l-174 -154h-233zM1059 1008l78 -646l309 646h283l-519 -1008h-268l-86 686l-356 -686h-279l-98 1008h264l51 -643l334 643h287z" />
    <glyph glyph-name="Ycircumflex" unicode="&#x176;" horiz-adv-x="1302" 
d="M193 1452h299l206 -569l404 569h340l-645 -844l-129 -608h-283l129 612zM408 1554l299 261h280l193 -261h-238l-111 134l-167 -134h-256z" />
    <glyph glyph-name="ycircumflex" unicode="&#x177;" horiz-adv-x="1077" 
d="M233 1130l295 302h271l164 -302h-213l-109 154l-174 -154h-234zM-57 -389l348 549l-221 848h286l136 -566l339 566h306l-893 -1397h-301z" />
    <glyph glyph-name="Ydieresis" unicode="&#x178;" horiz-adv-x="1302" 
d="M434 1669q0 64 48 114t116 50q59 0 96 -38t37 -93q0 -70 -48.5 -117t-113.5 -47q-60 0 -97.5 37t-37.5 94zM903 1669q0 64 48 114t116 50q59 0 96 -38t37 -93q0 -70 -48.5 -117t-113.5 -47q-60 0 -97.5 37t-37.5 94zM193 1452h299l206 -569l404 569h340l-645 -844
l-129 -608h-283l129 612z" />
    <glyph glyph-name="Zacute" unicode="&#x179;" horiz-adv-x="1290" 
d="M911 1554h-262l262 261h346zM-43 0l57 272l918 912h-705l58 268h1085l-55 -262l-932 -922h745l-57 -268h-1114z" />
    <glyph glyph-name="zacute" unicode="&#x17a;" horiz-adv-x="1009" 
d="M684 1128h-233l245 308h332zM-41 0l51 242l580 530h-451l49 236h809l-49 -230l-598 -542h494l-49 -236h-836z" />
    <glyph glyph-name="Zdotaccent" unicode="&#x17b;" horiz-adv-x="1290" 
d="M-43 0l57 272l918 912h-705l58 268h1085l-55 -262l-932 -922h745l-57 -268h-1114zM688 1694q0 68 54 122t128 54q65 0 107.5 -41.5t42.5 -102.5q0 -76 -53 -129t-127 -53q-66 0 -109 43.5t-43 106.5z" />
    <glyph glyph-name="zdotaccent" unicode="&#x17c;" horiz-adv-x="1009" 
d="M-41 0l51 242l580 530h-451l49 236h809l-49 -230l-598 -542h494l-49 -236h-836zM467 1268q0 71 52 125.5t128 54.5q65 0 106.5 -41t41.5 -102q0 -77 -53 -131t-126 -54q-65 0 -107 43.5t-42 104.5z" />
    <glyph glyph-name="Zcaron" unicode="&#x17d;" horiz-adv-x="1290" 
d="M1284 1815l-303 -261h-281l-188 261h236l108 -132l166 132h262zM-43 0l57 272l918 912h-705l58 268h1085l-55 -262l-932 -922h745l-57 -268h-1114z" />
    <glyph glyph-name="zcaron" unicode="&#x17e;" horiz-adv-x="1009" 
d="M1024 1434l-291 -304h-272l-162 304h211l111 -154l167 154h236zM-41 0l51 242l580 530h-451l49 236h809l-49 -230l-598 -542h494l-49 -236h-836z" />
    <glyph glyph-name="uni018F" unicode="&#x18f;" horiz-adv-x="1597" 
d="M862 1483q301 0 488.5 -180t187.5 -467q0 -160 -44 -300t-120.5 -242.5t-178 -176.5t-218.5 -111t-240 -37q-184 0 -333 81.5t-234.5 229t-85.5 332.5q0 107 14 166h1149q2 14 2 41q0 188 -115 291.5t-294 103.5q-149 0 -261 -74t-163 -177l-238 118q40 79 105.5 150
t151.5 128t197 90.5t230 33.5zM758 225q146 0 266.5 81.5t179.5 238.5h-829q5 -138 110.5 -229t272.5 -91z" />
    <glyph glyph-name="florin" unicode="&#x192;" horiz-adv-x="886" 
d="M309 776h-200v230h247l39 188q16 82 54.5 145.5t92 101t113 56.5t123.5 19q24 0 44.5 -1t32 -2t30.5 -5t23 -4.5t27 -7t26 -7.5v-236q-73 15 -123 15q-35 0 -66 -10t-64.5 -46.5t-45.5 -97.5l-23 -108h240v-230h-287l-162 -803q-16 -81 -55 -144.5t-92 -101t-113 -56.5
t-123 -19q-66 0 -102.5 6.5t-85.5 22.5v233q68 -14 133 -14q141 0 172 155z" />
    <glyph glyph-name="Ohorn" unicode="&#x1a0;" horiz-adv-x="1593" 
d="M111 618q0 134 30.5 255t84 214.5t127 169t160.5 125t183 75.5t195 26q74 0 150.5 -15.5t109.5 -15.5q72 0 119 48.5t63 121.5h221q-50 -223 -254 -270q110 -86 171 -219.5t61 -298.5q0 -161 -43 -301t-117.5 -242t-173.5 -175.5t-212.5 -110t-231.5 -36.5
q-288 0 -465.5 180t-177.5 469zM1241 817q0 185 -98 291t-269 106q-132 0 -241.5 -77.5t-171.5 -209t-62 -288.5q0 -183 100 -290t267 -107q129 0 236.5 72t171.5 204t67 299z" />
    <glyph glyph-name="ohorn" unicode="&#x1a1;" horiz-adv-x="1179" 
d="M1081 569q0 -162 -71.5 -299t-201.5 -219t-290 -82q-137 0 -243 62.5t-162 169t-56 237.5q0 130 44.5 242.5t121 190.5t180.5 122.5t220 44.5q88 0 176 -30q72 0 119 48.5t63 121.5h221q-50 -221 -250 -269q129 -135 129 -340zM602 791q-117 0 -194.5 -97.5t-77.5 -242.5
q0 -109 56.5 -171.5t150.5 -62.5q49 0 96.5 22t87 62.5t64 108t24.5 149.5q0 109 -56 170.5t-151 61.5z" />
    <glyph glyph-name="Uhorn" unicode="&#x1af;" horiz-adv-x="1409" 
d="M1419 1622h221q-47 -210 -231 -264l-190 -899q-48 -236 -204 -363t-374 -127q-230 0 -370 126t-140 339q0 59 16 141l185 877h282l-186 -889q-10 -55 -10 -92q0 -107 60.5 -167t185.5 -60q224 0 280 262l199 946h88h6q72 0 119 48.5t63 121.5z" />
    <glyph glyph-name="uhorn" unicode="&#x1b0;" horiz-adv-x="1159" 
d="M481 1008l-116 -545q-15 -64 -15 -96q0 -70 38 -111t114 -41q82 0 133.5 57t71.5 150l127 586h67h6q72 0 119.5 48.5t63.5 121.5h221q-48 -209 -228 -263l-147 -710q-23 -106 -23 -182v-23h-260q-2 14 -2 43q0 30 2 61q-40 -61 -110 -95t-142 -34q-156 0 -242.5 92
t-86.5 238q0 57 20 150l119 553h270z" />
    <glyph glyph-name="uni01B5" unicode="&#x1b5;" horiz-adv-x="1290" 
d="M-43 0l57 272l363 361h-234l50 231h417l322 320h-705l58 268h1085l-55 -262l-330 -326h260l-51 -231h-442l-369 -365h745l-57 -268h-1114z" />
    <glyph glyph-name="uni01B6" unicode="&#x1b6;" horiz-adv-x="1009" 
d="M111 606h321l184 172h-477l49 230h809l-45 -211l-204 -191h163l-43 -194h-331l-193 -181h500l-49 -231h-836l43 205l221 207h-153z" />
    <glyph glyph-name="Aringacute" unicode="&#x1fa;" horiz-adv-x="1445" 
d="M541 590h379l-76 545zM1075 1868h-262l262 260h346zM922 1645q-42 0 -74.5 -31.5t-32.5 -77.5q0 -38 24.5 -61t65.5 -23q43 0 76 30t33 77q0 38 -25.5 62t-66.5 24zM647 1522q0 118 86.5 201t204.5 83q105 0 176.5 -67t71.5 -166q0 -130 -107 -217l217 -1356h-292
l-48 332h-561l-186 -332h-318l805 1376q-49 61 -49 146z" />
    <glyph glyph-name="aringacute" unicode="&#x1fb;" horiz-adv-x="1208" 
d="M594 788q-82 0 -144.5 -53.5t-92 -131.5t-29.5 -163q0 -104 52 -163.5t144 -59.5q109 0 185.5 98t76.5 258q0 101 -50.5 158t-141.5 57zM1153 1008l-166 -787q-18 -76 -18 -182q0 -21 2 -39h-252q-2 16 -2 47q0 26 4 76q-92 -141 -270 -141q-181 0 -287.5 128t-106.5 320
q0 256 148 429t366 173q124 0 195 -43t98 -96l25 115h264zM872 1632h-233l246 307h332zM725 1556q94 0 155.5 -56.5t61.5 -147.5q0 -104 -76.5 -176t-177.5 -72q-91 0 -153 59t-62 146q0 106 76.5 176.5t175.5 70.5zM621 1321q0 -35 20.5 -54.5t56.5 -19.5q38 0 64 25t26 65
q0 33 -20 53.5t-55 20.5q-37 0 -64.5 -25t-27.5 -65z" />
    <glyph glyph-name="AEacute" unicode="&#x1fc;" horiz-adv-x="2146" 
d="M1470 1554h-262l262 261h347zM1968 266l-57 -266h-905l71 338h-563l-287 -338h-360l1268 1452h1083l-55 -266h-623l-70 -332h564l-54 -252h-563l-71 -336h622zM1128 575l138 644l-549 -644h411z" />
    <glyph glyph-name="aeacute" unicode="&#x1fd;" horiz-adv-x="1738" 
d="M1006 1128h-234l246 308h332zM631 602q92 3 92 90q0 52 -46 89.5t-132 37.5q-75 0 -129 -40.5t-72 -102.5l-225 74q35 119 154 203.5t288 84.5q227 0 328 -123q138 123 323 123q205 0 323 -117.5t118 -306.5q0 -93 -29 -182h-694q-2 -4 -2 -14q2 -96 62.5 -158.5
t162.5 -62.5q80 0 137.5 36.5t85.5 94.5l207 -105q-55 -109 -169 -181.5t-279 -72.5q-118 0 -214 48t-155 139q-60 -81 -154.5 -132t-220.5 -51q-178 0 -277.5 83.5t-99.5 207.5q0 146 97 233t254 95zM283 285q0 -52 38 -81.5t97 -29.5q37 0 75 13t74.5 39t63.5 72.5
t37 107.5l4 26l-242 -10q-63 -5 -105 -39.5t-42 -97.5zM1208 817q-98 0 -161.5 -55t-90.5 -144h439q2 6 2 25q0 67 -47 120.5t-142 53.5z" />
    <glyph glyph-name="Oslashacute" unicode="&#x1fe;" horiz-adv-x="1593" 
d="M1067 1554h-262l262 261h346zM111 618q0 134 30.5 255t84 214.5t127 169t160.5 125t183 75.5t195 26q215 0 371 -103l153 172l164 -143l-160 -180q113 -158 113 -395q0 -161 -43 -301t-117.5 -242t-173.5 -175.5t-212.5 -110t-231.5 -36.5q-208 0 -365 99l-147 -166
l-168 143l155 174q-118 165 -118 399zM399 639q0 -104 35 -188l637 714q-87 49 -197 49q-132 0 -241.5 -77.5t-171.5 -209t-62 -288.5zM1241 817q0 97 -31 176l-628 -708q76 -43 184 -43q129 0 236.5 72t171.5 204t67 299z" />
    <glyph glyph-name="oslashacute" unicode="&#x1ff;" horiz-adv-x="1179" 
d="M764 1128h-234l246 308h332zM-27 45l148 141q-64 113 -64 252q0 130 44.5 242.5t121 190.5t180.5 122.5t220 44.5q169 0 290 -94l142 137l112 -116l-149 -144q63 -108 63 -252q0 -162 -71.5 -299t-201.5 -219t-290 -82q-174 0 -291 97l-141 -136zM809 559q0 21 -4 57
l-385 -366q44 -33 117 -33q49 0 96.5 22t87 62.5t64 108t24.5 149.5zM602 791q-117 0 -194.5 -97.5t-77.5 -242.5q0 -36 6 -60l383 367q-50 33 -117 33z" />
    <glyph glyph-name="Scommaaccent" unicode="&#x218;" horiz-adv-x="1228" 
d="M578 215q103 0 163 49.5t62 128.5q0 109 -123 162l-176 78q-281 124 -281 389q0 132 70 238t187 163.5t257 57.5q110 0 198.5 -29t142 -74t89.5 -103t50 -111t14 -103l-264 -45q0 21 -4 44t-18.5 56t-39 58t-71.5 43t-109 18q-95 0 -156 -54.5t-61 -129.5
q0 -106 115 -160l168 -74q158 -71 230.5 -169.5t72.5 -231.5q0 -86 -35.5 -166t-99 -142.5t-162 -100.5t-215.5 -38q-116 0 -210.5 30t-155.5 78.5t-103 112t-60 127t-18 127.5q0 34 4 43l264 45q-2 -18 -2 -43q0 -72 27 -131t91.5 -99.5t158.5 -43.5zM313 -227
q0 60 44.5 100.5t111.5 40.5q71 0 112.5 -43.5t41.5 -110.5q0 -127 -86 -199.5t-201 -72.5q-36 0 -60 6l23 96q10 -2 29 -2q121 0 153 80q-8 -8 -43 -8q-59 0 -92 33t-33 80z" />
    <glyph glyph-name="scommaaccent" unicode="&#x219;" horiz-adv-x="937" 
d="M240 350q-2 -6 -2 -18q0 -68 43.5 -113t115.5 -45q62 0 93.5 29t31.5 71q0 64 -76 99l-112 49q-114 48 -164.5 118t-50.5 165q0 139 108 236t277 97q86 0 153.5 -21.5t107 -53.5t66 -75.5t36.5 -81.5t12 -77l-236 -37q0 57 -34.5 100.5t-112.5 43.5q-53 0 -87 -29.5
t-34 -71.5q0 -60 63 -86l129 -55q224 -98 224 -295q0 -59 -25 -116.5t-71.5 -106t-123 -78t-170.5 -29.5q-96 0 -169.5 25.5t-114.5 62.5t-67 86t-34 88.5t-8 77.5zM160 -227q0 60 44 100.5t111 40.5q71 0 112.5 -43.5t41.5 -110.5q0 -127 -86 -199.5t-201 -72.5
q-35 0 -59 6l22 96q10 -2 29 -2q122 0 154 80q-8 -8 -43 -8q-59 0 -92 33t-33 80z" />
    <glyph glyph-name="uni021A" unicode="&#x21a;" horiz-adv-x="1212" 
d="M879 1184l-250 -1184h-283l250 1184h-440l57 268h1145l-58 -268h-421zM287 -227q0 60 44 100.5t111 40.5q71 0 112.5 -43.5t41.5 -110.5q0 -127 -86 -199.5t-201 -72.5q-35 0 -59 6l22 96q10 -2 29 -2q122 0 154 80q-8 -8 -43 -8q-59 0 -92 33t-33 80z" />
    <glyph glyph-name="uni021B" unicode="&#x21b;" horiz-adv-x="759" 
d="M420 -12l-101 -97q72 -7 114 -50.5t42 -104.5q0 -81 -67 -143t-189 -62q-104 0 -177.5 48.5t-90.5 90.5l112 94q55 -92 150 -92q37 0 60.5 16t23.5 44q0 29 -22.5 44t-59.5 15q-15 0 -35 -4l-49 102l137 134q-123 66 -123 225q0 40 9 80l94 438h-178l51 242h41
q85 0 131.5 41t64.5 122l31 138h246l-66 -301h197l-51 -242h-197l-88 -420q-6 -21 -6 -41q0 -86 108 -86q51 0 72 8l-47 -217q-51 -22 -129 -22h-8z" />
    <glyph glyph-name="dotlessj" unicode="&#x237;" horiz-adv-x="544" 
d="M223 1008h271l-242 -1135q-30 -145 -118.5 -219t-219.5 -74q-65 0 -114 15t-68 30l45 213l5 -2q5 -2 13.5 -4.5t19 -5t26 -4.5t30.5 -2q102 3 121 114z" />
    <glyph glyph-name="uni0259" unicode="&#x259;" horiz-adv-x="1144" 
d="M41 408q0 89 18 159h732v11q-5 108 -64.5 169.5t-167.5 61.5q-83 0 -147.5 -37t-100.5 -100l-202 104q63 115 184 188.5t285 73.5q212 0 338 -131t126 -332q0 -143 -44 -260t-119.5 -192t-173.5 -115.5t-207 -40.5q-206 0 -331.5 125t-125.5 316zM293 387q-2 -2 -2 -10
q0 -76 54.5 -133.5t166.5 -57.5q87 0 154.5 50.5t101.5 150.5h-475z" />
    <glyph glyph-name="circumflex" unicode="&#x2c6;" horiz-adv-x="790" 
d="M-66 1130l295 302h271l164 -302h-213l-109 154l-174 -154h-234z" />
    <glyph glyph-name="caron" unicode="&#x2c7;" horiz-adv-x="790" 
d="M729 1434l-291 -304h-272l-162 304h211l111 -154l168 154h235z" />
    <glyph glyph-name="uni02C9" unicode="&#x2c9;" horiz-adv-x="649" 
d="M-47 1182l43 198h575l-41 -198h-577z" />
    <glyph glyph-name="breve" unicode="&#x2d8;" horiz-adv-x="729" 
d="M444 1124q-136 0 -210 75t-74 185q0 20 4 52h178q-2 -6 -2 -17q0 -44 28.5 -75t90.5 -31q69 0 109 36.5t55 86.5h200q-32 -135 -128 -223.5t-251 -88.5z" />
    <glyph glyph-name="dotaccent" unicode="&#x2d9;" horiz-adv-x="376" 
d="M-39 1268q0 71 52 125.5t128 54.5q65 0 106.5 -41t41.5 -102q0 -77 -52.5 -131t-125.5 -54q-65 0 -107.5 43.5t-42.5 104.5z" />
    <glyph glyph-name="ring" unicode="&#x2da;" horiz-adv-x="540" 
d="M227 1554q94 0 155.5 -56.5t61.5 -147.5q0 -104 -76.5 -176t-177.5 -72q-91 0 -153 59t-62 146q0 106 76.5 176.5t175.5 70.5zM123 1319q0 -35 21 -54.5t57 -19.5q38 0 64 25t26 65q0 33 -20.5 53.5t-55.5 20.5q-37 0 -64.5 -25t-27.5 -65z" />
    <glyph glyph-name="ogonek" unicode="&#x2db;" horiz-adv-x="421" 
d="M164 -457q-95 0 -160 55t-65 146q0 64 26 118t69.5 90.5t85 59.5t87.5 39l139 -51q-80 -29 -142.5 -83.5t-62.5 -119.5q0 -40 27 -61t70 -23q29 0 49 4l-33 -161q-41 -13 -90 -13z" />
    <glyph glyph-name="tilde" unicode="&#x2dc;" horiz-adv-x="763" 
d="M96 1139q16 149 91.5 220t177.5 71q72 0 147 -48l10 -6q53 -39 92 -39q69 0 84 90h176q-22 -150 -92 -221t-168 -71q-76 0 -149 47l-16 10q-4 2 -15 8.5t-17.5 10t-16.5 8t-20.5 6.5t-21.5 2q-66 0 -86 -88h-176z" />
    <glyph glyph-name="hungarumlaut" unicode="&#x2dd;" horiz-adv-x="774" 
d="M111 1128h-181l172 308h275zM424 1128h-182l202 308h277z" />
    <glyph glyph-name="uni0394" unicode="&#x394;" horiz-adv-x="1570" 
d="M688 1145l-315 -883h633zM535 1452h307l555 -1452h-1415z" />
    <glyph glyph-name="uni03A9" unicode="&#x3a9;" horiz-adv-x="1753" 
d="M874 1219q-109 0 -202 -46t-153 -141.5t-60 -224.5q0 -165 99.5 -275.5t240.5 -142.5v-389h-619v258h357q-162 66 -266.5 214t-104.5 353q0 147 58 272.5t155.5 209.5t225.5 131t269 47t269 -47t226 -131t156 -209.5t58 -272.5q0 -205 -105 -353t-268 -214h357v-258h-619
v389q67 15 127 49.5t109 86t77.5 125t28.5 157.5q0 97 -35 177t-93.5 130.5t-132.5 77.5t-155 27z" />
    <glyph glyph-name="uni03BC" unicode="&#x3bc;" horiz-adv-x="1275" 
d="M147 1008h273v-582q0 -92 46 -147.5t138 -55.5q90 0 140.5 54.5t50.5 144.5v586h272v-826q0 -117 10 -182h-260q-8 31 -8 109q-39 -68 -116 -102t-163 -34q-60 0 -110 21v-383h-273v1397z" />
    <glyph glyph-name="pi" unicode="&#x3c0;" horiz-adv-x="1435" 
d="M1114 313q0 -51 28 -73.5t72 -22.5q15 0 25 1t20.5 2.5t18.5 2.5v-213q-58 -26 -143 -26q-143 0 -217 79t-74 213v498h-273v-774h-272v774h-170v234h1145v-234h-160v-461z" />
    <glyph glyph-name="Wgrave" unicode="&#x1e80;" horiz-adv-x="2082" 
d="M862 1815h318l155 -261h-235zM1350 1452l110 -1008l455 1008h301l-688 -1452h-285l-113 1034l-524 -1034h-297l-96 1452h283l55 -1003l506 1003h293z" />
    <glyph glyph-name="wgrave" unicode="&#x1e81;" horiz-adv-x="1683" 
d="M596 1436h303l119 -308h-211zM1059 1008l78 -646l309 646h283l-519 -1008h-268l-86 686l-356 -686h-279l-98 1008h264l51 -643l334 643h287z" />
    <glyph glyph-name="Wacute" unicode="&#x1e82;" horiz-adv-x="2082" 
d="M1321 1554h-262l262 261h346zM1350 1452l110 -1008l455 1008h301l-688 -1452h-285l-113 1034l-524 -1034h-297l-96 1452h283l55 -1003l506 1003h293z" />
    <glyph glyph-name="wacute" unicode="&#x1e83;" horiz-adv-x="1683" 
d="M1038 1128h-233l246 308h331zM1059 1008l78 -646l309 646h283l-519 -1008h-268l-86 686l-356 -686h-279l-98 1008h264l51 -643l334 643h287z" />
    <glyph glyph-name="Wdieresis" unicode="&#x1e84;" horiz-adv-x="2082" 
d="M764 1669q0 64 48 114t116 50q59 0 96 -38t37 -93q0 -70 -48.5 -117t-113.5 -47q-60 0 -97.5 37t-37.5 94zM1397 1669q0 64 48 114t116 50q59 0 96 -38t37 -93q0 -70 -48.5 -117t-113.5 -47q-60 0 -97.5 37t-37.5 94zM1350 1452l110 -1008l455 1008h301l-688 -1452h-285
l-113 1034l-524 -1034h-297l-96 1452h283l55 -1003l506 1003h293z" />
    <glyph glyph-name="wdieresis" unicode="&#x1e85;" horiz-adv-x="1683" 
d="M547 1272q0 63 47 111.5t113 48.5q58 0 94.5 -39t36.5 -95q0 -65 -50 -110t-112 -45q-56 0 -92.5 37t-36.5 92zM1038 1272q0 63 47 111.5t113 48.5q58 0 94.5 -39t36.5 -95q0 -65 -50 -110t-112 -45q-56 0 -92.5 37t-36.5 92zM1059 1008l78 -646l309 646h283l-519 -1008
h-268l-86 686l-356 -686h-279l-98 1008h264l51 -643l334 643h287z" />
    <glyph glyph-name="uni1E8A" unicode="&#x1e8a;" horiz-adv-x="1323" 
d="M242 0h-355l637 733l-329 719h321l213 -481l406 481h352l-639 -737l332 -715h-326l-211 477zM672 1694q0 68 54 122t128 54q65 0 107.5 -41.5t42.5 -102.5q0 -76 -53.5 -129t-127.5 -53q-66 0 -108.5 43.5t-42.5 106.5z" />
    <glyph glyph-name="uni1E8B" unicode="&#x1e8b;" horiz-adv-x="1091" 
d="M225 0h-327l477 516l-262 492h297l145 -295l258 295h332l-471 -508q20 -33 135.5 -250t134.5 -250h-299l-151 303zM481 1268q0 71 52.5 125.5t128.5 54.5q65 0 106 -41t41 -102q0 -77 -52.5 -131t-125.5 -54q-65 0 -107.5 43.5t-42.5 104.5z" />
    <glyph glyph-name="uni1EA0" unicode="&#x1ea0;" horiz-adv-x="1445" 
d="M391 -346q0 65 46 110.5t112 45.5q56 0 92.5 -36t36.5 -89q0 -66 -48 -111t-112 -45q-55 0 -91 36t-36 89zM956 332h-561l-186 -332h-318l850 1452h324l231 -1452h-292zM541 590h379l-76 545z" />
    <glyph glyph-name="uni1EA1" unicode="&#x1ea1;" horiz-adv-x="1208" 
d="M248 -346q0 65 46 110.5t112 45.5q56 0 92.5 -36t36.5 -89q0 -66 -48 -111t-112 -45q-55 0 -91 36t-36 89zM594 788q-82 0 -144.5 -53.5t-92 -131.5t-29.5 -163q0 -104 52 -163.5t144 -59.5q109 0 185.5 98t76.5 258q0 101 -50.5 158t-141.5 57zM1153 1008l-166 -787
q-18 -76 -18 -182q0 -21 2 -39h-252q-2 16 -2 47q0 26 4 76q-92 -141 -270 -141q-181 0 -287.5 128t-106.5 320q0 256 148 429t366 173q124 0 195 -43t98 -96l25 115h264z" />
    <glyph glyph-name="uni1EA2" unicode="&#x1ea2;" horiz-adv-x="1445" 
d="M1122 1755q-17 -88 -131 -180h-145q81 74 96 131q10 37 -9 54.5t-56 17.5q-34 0 -52 -6l29 141q52 6 107 6q82 -2 130 -43t31 -121zM956 332h-561l-186 -332h-318l850 1452h324l231 -1452h-292zM541 590h379l-76 545z" />
    <glyph glyph-name="uni1EA3" unicode="&#x1ea3;" horiz-adv-x="1208" 
d="M870 1356q-17 -88 -131 -180h-145q81 74 96 131q10 37 -9 54t-56 17q-34 0 -52 -6l29 141q61 7 107 7q82 -2 130 -43t31 -121zM594 788q-82 0 -144.5 -53.5t-92 -131.5t-29.5 -163q0 -104 52 -163.5t144 -59.5q109 0 185.5 98t76.5 258q0 101 -50.5 158t-141.5 57z
M1153 1008l-166 -787q-18 -76 -18 -182q0 -21 2 -39h-252q-2 16 -2 47q0 26 4 76q-92 -141 -270 -141q-181 0 -287.5 128t-106.5 320q0 256 148 429t366 173q124 0 195 -43t98 -96l25 115h264z" />
    <glyph glyph-name="uni1EA4" unicode="&#x1ea4;" horiz-adv-x="1445" 
d="M1382 1767h-198l188 275h264zM956 332h-561l-186 -332h-318l850 1452h324l231 -1452h-292zM541 590h379l-76 545zM1079 1829l162 -275h-203l-94 138l-141 -138h-215l248 275h243z" />
    <glyph glyph-name="uni1EA5" unicode="&#x1ea5;" horiz-adv-x="1208" 
d="M1149 1368h-199l189 274h264zM594 788q-82 0 -144.5 -53.5t-92 -131.5t-29.5 -163q0 -104 52 -163.5t144 -59.5q109 0 185.5 98t76.5 258q0 101 -50.5 158t-141.5 57zM1153 1008l-166 -787q-18 -76 -18 -182q0 -21 2 -39h-252q-2 16 -2 47q0 26 4 76q-92 -141 -270 -141
q-181 0 -287.5 128t-106.5 320q0 256 148 429t366 173q124 0 195 -43t98 -96l25 115h264zM846 1430l162 -275h-203l-94 137l-142 -137h-215l248 275h244z" />
    <glyph glyph-name="uni1EA6" unicode="&#x1ea6;" horiz-adv-x="1445" 
d="M1411 1767h-190l-162 275h256zM956 332h-561l-186 -332h-318l850 1452h324l231 -1452h-292zM541 590h379l-76 545zM1079 1829l162 -275h-203l-94 138l-141 -138h-215l248 275h243z" />
    <glyph glyph-name="uni1EA7" unicode="&#x1ea7;" horiz-adv-x="1208" 
d="M1178 1368h-191l-162 274h256zM594 788q-82 0 -144.5 -53.5t-92 -131.5t-29.5 -163q0 -104 52 -163.5t144 -59.5q109 0 185.5 98t76.5 258q0 101 -50.5 158t-141.5 57zM1153 1008l-166 -787q-18 -76 -18 -182q0 -21 2 -39h-252q-2 16 -2 47q0 26 4 76q-92 -141 -270 -141
q-181 0 -287.5 128t-106.5 320q0 256 148 429t366 173q124 0 195 -43t98 -96l25 115h264zM846 1430l162 -275h-203l-94 137l-142 -137h-215l248 275h244z" />
    <glyph glyph-name="uni1EA8" unicode="&#x1ea8;" horiz-adv-x="1445" 
d="M1454 1948q-17 -89 -131 -181h-145q81 74 96 131q10 37 -9.5 54.5t-56.5 17.5q-33 0 -51 -6l29 141q53 6 106 6q82 -2 130.5 -42.5t31.5 -120.5zM956 332h-561l-186 -332h-318l850 1452h324l231 -1452h-292zM541 590h379l-76 545zM1079 1829l162 -275h-203l-94 138
l-141 -138h-215l248 275h243z" />
    <glyph glyph-name="uni1EA9" unicode="&#x1ea9;" horiz-adv-x="1208" 
d="M1221 1548q-17 -88 -131 -180h-146q81 74 96 131q10 37 -9 54.5t-56 17.5q-33 0 -51 -6l28 141q52 6 107 6q82 -2 130.5 -43t31.5 -121zM594 788q-82 0 -144.5 -53.5t-92 -131.5t-29.5 -163q0 -104 52 -163.5t144 -59.5q109 0 185.5 98t76.5 258q0 101 -50.5 158
t-141.5 57zM1153 1008l-166 -787q-18 -76 -18 -182q0 -21 2 -39h-252q-2 16 -2 47q0 26 4 76q-92 -141 -270 -141q-181 0 -287.5 128t-106.5 320q0 256 148 429t366 173q124 0 195 -43t98 -96l25 115h264zM846 1430l162 -275h-203l-94 137l-142 -137h-215l248 275h244z" />
    <glyph glyph-name="uni1EAA" unicode="&#x1eaa;" horiz-adv-x="1445" 
d="M1307 2132q-22 -120 -85.5 -181t-150.5 -61q-40 0 -70.5 12.5t-46 27.5t-35 27.5t-38.5 12.5q-46 0 -64 -76h-172q22 121 86 181.5t150 60.5q40 0 71.5 -12t47 -27t35 -27t38.5 -12q46 0 66 74h168zM956 332h-561l-186 -332h-318l850 1452h324l231 -1452h-292zM541 590
h379l-76 545zM1079 1829l162 -275h-203l-94 138l-141 -138h-215l248 275h243z" />
    <glyph glyph-name="uni1EAB" unicode="&#x1eab;" horiz-adv-x="1208" 
d="M1073 1733q-22 -120 -85 -181t-150 -61q-40 0 -71 12.5t-46.5 27.5t-35 27.5t-38.5 12.5q-45 0 -63 -76h-172q22 121 85.5 181.5t149.5 60.5q40 0 71.5 -12t47.5 -27t35.5 -27t38.5 -12q45 0 65 74h168zM594 788q-82 0 -144.5 -53.5t-92 -131.5t-29.5 -163
q0 -104 52 -163.5t144 -59.5q109 0 185.5 98t76.5 258q0 101 -50.5 158t-141.5 57zM1153 1008l-166 -787q-18 -76 -18 -182q0 -21 2 -39h-252q-2 16 -2 47q0 26 4 76q-92 -141 -270 -141q-181 0 -287.5 128t-106.5 320q0 256 148 429t366 173q124 0 195 -43t98 -96l25 115
h264zM846 1430l162 -275h-203l-94 137l-142 -137h-215l248 275h244z" />
    <glyph glyph-name="uni1EAC" unicode="&#x1eac;" horiz-adv-x="1445" 
d="M391 -346q0 65 46 110.5t112 45.5q56 0 92.5 -36t36.5 -89q0 -66 -48 -111t-112 -45q-55 0 -91 36t-36 89zM956 332h-561l-186 -332h-318l850 1452h324l231 -1452h-292zM541 590h379l-76 545zM1079 1829l162 -275h-203l-94 138l-141 -138h-215l248 275h243z" />
    <glyph glyph-name="uni1EAD" unicode="&#x1ead;" horiz-adv-x="1208" 
d="M248 -346q0 65 46 110.5t112 45.5q56 0 92.5 -36t36.5 -89q0 -66 -48 -111t-112 -45q-55 0 -91 36t-36 89zM594 788q-82 0 -144.5 -53.5t-92 -131.5t-29.5 -163q0 -104 52 -163.5t144 -59.5q109 0 185.5 98t76.5 258q0 101 -50.5 158t-141.5 57zM1153 1008l-166 -787
q-18 -76 -18 -182q0 -21 2 -39h-252q-2 16 -2 47q0 26 4 76q-92 -141 -270 -141q-181 0 -287.5 128t-106.5 320q0 256 148 429t366 173q124 0 195 -43t98 -96l25 115h264zM846 1430l162 -275h-203l-94 137l-142 -137h-215l248 275h244z" />
    <glyph glyph-name="uni1EAE" unicode="&#x1eae;" horiz-adv-x="1445" 
d="M1077 1868h-198l188 274h264zM956 332h-561l-186 -332h-318l850 1452h324l231 -1452h-292zM541 590h379l-76 545zM926 1554q-148 0 -216.5 65.5t-43.5 186.5h178q-9 -49 17.5 -75.5t92.5 -26.5q127 0 150 102h182q-25 -121 -118.5 -186.5t-241.5 -65.5z" />
    <glyph glyph-name="uni1EAF" unicode="&#x1eaf;" horiz-adv-x="1208" 
d="M836 1468h-199l188 275h265zM594 788q-82 0 -144.5 -53.5t-92 -131.5t-29.5 -163q0 -104 52 -163.5t144 -59.5q109 0 185.5 98t76.5 258q0 101 -50.5 158t-141.5 57zM1153 1008l-166 -787q-18 -76 -18 -182q0 -21 2 -39h-252q-2 16 -2 47q0 26 4 76q-92 -141 -270 -141
q-181 0 -287.5 128t-106.5 320q0 256 148 429t366 173q124 0 195 -43t98 -96l25 115h264zM684 1155q-148 0 -216.5 65.5t-43.5 186.5h178q-9 -49 18 -75.5t93 -26.5q126 0 149 102h182q-25 -121 -118.5 -186.5t-241.5 -65.5z" />
    <glyph glyph-name="uni1EB0" unicode="&#x1eb0;" horiz-adv-x="1445" 
d="M1073 1868h-190l-162 274h256zM956 332h-561l-186 -332h-318l850 1452h324l231 -1452h-292zM541 590h379l-76 545zM926 1554q-148 0 -216.5 65.5t-43.5 186.5h178q-9 -49 17.5 -75.5t92.5 -26.5q127 0 150 102h182q-25 -121 -118.5 -186.5t-241.5 -65.5z" />
    <glyph glyph-name="uni1EB1" unicode="&#x1eb1;" horiz-adv-x="1208" 
d="M831 1468h-190l-162 275h256zM594 788q-82 0 -144.5 -53.5t-92 -131.5t-29.5 -163q0 -104 52 -163.5t144 -59.5q109 0 185.5 98t76.5 258q0 101 -50.5 158t-141.5 57zM1153 1008l-166 -787q-18 -76 -18 -182q0 -21 2 -39h-252q-2 16 -2 47q0 26 4 76q-92 -141 -270 -141
q-181 0 -287.5 128t-106.5 320q0 256 148 429t366 173q124 0 195 -43t98 -96l25 115h264zM684 1155q-148 0 -216.5 65.5t-43.5 186.5h178q-9 -49 18 -75.5t93 -26.5q126 0 149 102h182q-25 -121 -118.5 -186.5t-241.5 -65.5z" />
    <glyph glyph-name="uni1EB2" unicode="&#x1eb2;" horiz-adv-x="1445" 
d="M1180 2028q-17 -89 -131 -181h-146q81 74 96 131q10 37 -9 54.5t-56 17.5q-33 0 -51 -6l28 141q53 6 107 6q82 -2 130.5 -42.5t31.5 -120.5zM956 332h-561l-186 -332h-318l850 1452h324l231 -1452h-292zM541 590h379l-76 545zM926 1554q-148 0 -216.5 65.5t-43.5 186.5
h178q-9 -49 17.5 -75.5t92.5 -26.5q127 0 150 102h182q-25 -121 -118.5 -186.5t-241.5 -65.5z" />
    <glyph glyph-name="uni1EB3" unicode="&#x1eb3;" horiz-adv-x="1208" 
d="M938 1628q-17 -88 -131 -180h-145q81 74 96 131q10 37 -9.5 54.5t-56.5 17.5q-33 0 -51 -6l29 141q53 6 106 6q82 -2 130.5 -43t31.5 -121zM594 788q-82 0 -144.5 -53.5t-92 -131.5t-29.5 -163q0 -104 52 -163.5t144 -59.5q109 0 185.5 98t76.5 258q0 101 -50.5 158
t-141.5 57zM1153 1008l-166 -787q-18 -76 -18 -182q0 -21 2 -39h-252q-2 16 -2 47q0 26 4 76q-92 -141 -270 -141q-181 0 -287.5 128t-106.5 320q0 256 148 429t366 173q124 0 195 -43t98 -96l25 115h264zM684 1155q-148 0 -216.5 65.5t-43.5 186.5h178q-9 -49 18 -75.5
t93 -26.5q126 0 149 102h182q-25 -121 -118.5 -186.5t-241.5 -65.5z" />
    <glyph glyph-name="uni1EB4" unicode="&#x1eb4;" horiz-adv-x="1445" 
d="M1319 2109q-22 -120 -85.5 -180.5t-150.5 -60.5q-40 0 -70.5 12.5t-46 27.5t-35 27.5t-38.5 12.5q-46 0 -64 -76h-172q22 121 86 181.5t150 60.5q40 0 71.5 -12t47 -27t35 -27t38.5 -12q47 0 66 73h168zM956 332h-561l-186 -332h-318l850 1452h324l231 -1452h-292z
M541 590h379l-76 545zM926 1554q-148 0 -216.5 65.5t-43.5 186.5h178q-9 -49 17.5 -75.5t92.5 -26.5q127 0 150 102h182q-25 -121 -118.5 -186.5t-241.5 -65.5z" />
    <glyph glyph-name="uni1EB5" unicode="&#x1eb5;" horiz-adv-x="1208" 
d="M1077 1710q-22 -120 -85 -181t-150 -61q-40 0 -71 12.5t-46.5 27.5t-35 27.5t-38.5 12.5q-45 0 -63 -75h-172q22 121 85.5 181t149.5 60q40 0 71.5 -12t47.5 -27t35.5 -27t38.5 -12q45 0 65 74h168zM594 788q-82 0 -144.5 -53.5t-92 -131.5t-29.5 -163q0 -104 52 -163.5
t144 -59.5q109 0 185.5 98t76.5 258q0 101 -50.5 158t-141.5 57zM1153 1008l-166 -787q-18 -76 -18 -182q0 -21 2 -39h-252q-2 16 -2 47q0 26 4 76q-92 -141 -270 -141q-181 0 -287.5 128t-106.5 320q0 256 148 429t366 173q124 0 195 -43t98 -96l25 115h264zM684 1155
q-148 0 -216.5 65.5t-43.5 186.5h178q-9 -49 18 -75.5t93 -26.5q126 0 149 102h182q-25 -121 -118.5 -186.5t-241.5 -65.5z" />
    <glyph glyph-name="uni1EB6" unicode="&#x1eb6;" horiz-adv-x="1445" 
d="M391 -346q0 65 46 110.5t112 45.5q56 0 92.5 -36t36.5 -89q0 -66 -48 -111t-112 -45q-55 0 -91 36t-36 89zM956 332h-561l-186 -332h-318l850 1452h324l231 -1452h-292zM541 590h379l-76 545zM926 1554q-148 0 -216.5 65.5t-43.5 186.5h178q-9 -49 17.5 -75.5t92.5 -26.5
q127 0 150 102h182q-25 -121 -118.5 -186.5t-241.5 -65.5z" />
    <glyph glyph-name="uni1EB7" unicode="&#x1eb7;" horiz-adv-x="1208" 
d="M248 -346q0 65 46 110.5t112 45.5q56 0 92.5 -36t36.5 -89q0 -66 -48 -111t-112 -45q-55 0 -91 36t-36 89zM594 788q-82 0 -144.5 -53.5t-92 -131.5t-29.5 -163q0 -104 52 -163.5t144 -59.5q109 0 185.5 98t76.5 258q0 101 -50.5 158t-141.5 57zM1153 1008l-166 -787
q-18 -76 -18 -182q0 -21 2 -39h-252q-2 16 -2 47q0 26 4 76q-92 -141 -270 -141q-181 0 -287.5 128t-106.5 320q0 256 148 429t366 173q124 0 195 -43t98 -96l25 115h264zM684 1155q-148 0 -216.5 65.5t-43.5 186.5h178q-9 -49 18 -75.5t93 -26.5q126 0 149 102h182
q-25 -121 -118.5 -186.5t-241.5 -65.5z" />
    <glyph glyph-name="uni1EB8" unicode="&#x1eb8;" horiz-adv-x="1181" 
d="M289 -346q0 65 45.5 110.5t111.5 45.5q56 0 92.5 -36t36.5 -89q0 -66 -47.5 -111t-111.5 -45q-55 0 -91 36t-36 89zM43 0l307 1452h905l-57 -266h-620l-72 -332h563l-53 -252h-563l-72 -336h623l-56 -266h-905z" />
    <glyph glyph-name="uni1EB9" unicode="&#x1eb9;" horiz-adv-x="1122" 
d="M289 -346q0 65 45.5 110.5t111.5 45.5q56 0 92.5 -36t36.5 -89q0 -66 -47.5 -111t-111.5 -45q-55 0 -91 36t-36 89zM780 618q2 14 2 25q0 67 -47.5 120.5t-142.5 53.5q-99 0 -163 -55.5t-91 -143.5h442zM309 430q0 -102 59.5 -167.5t166.5 -65.5q80 0 136.5 36t88.5 95
l209 -105q-55 -109 -170 -181.5t-281 -72.5q-127 0 -231.5 56t-168 163t-63.5 246q0 135 46.5 250.5t123 191.5t173 119t198.5 43q206 0 324 -117.5t118 -306.5q0 -86 -28 -182z" />
    <glyph glyph-name="uni1EBA" unicode="&#x1eba;" horiz-adv-x="1181" 
d="M1020 1755q-17 -88 -131 -180h-146q83 75 97 131q10 37 -9.5 54.5t-56.5 17.5q-33 0 -51 -6l29 141q52 6 106 6q82 -2 130.5 -43t31.5 -121zM43 0l307 1452h905l-57 -266h-620l-72 -332h563l-53 -252h-563l-72 -336h623l-56 -266h-905z" />
    <glyph glyph-name="uni1EBB" unicode="&#x1ebb;" horiz-adv-x="1122" 
d="M846 1356q-17 -88 -131 -180h-146q83 75 97 131q10 37 -9.5 54t-56.5 17q-33 0 -51 -6l29 141q61 7 106 7q82 -2 130.5 -43t31.5 -121zM780 618q2 14 2 25q0 67 -47.5 120.5t-142.5 53.5q-99 0 -163 -55.5t-91 -143.5h442zM309 430q0 -102 59.5 -167.5t166.5 -65.5
q80 0 136.5 36t88.5 95l209 -105q-55 -109 -170 -181.5t-281 -72.5q-127 0 -231.5 56t-168 163t-63.5 246q0 135 46.5 250.5t123 191.5t173 119t198.5 43q206 0 324 -117.5t118 -306.5q0 -86 -28 -182z" />
    <glyph glyph-name="uni1EBC" unicode="&#x1ebc;" horiz-adv-x="1181" 
d="M1159 1817q-22 -120 -85 -181t-150 -61q-40 0 -71 12.5t-46.5 27.5t-35 27.5t-38.5 12.5q-45 0 -63 -76h-172q22 121 85.5 181.5t149.5 60.5q40 0 71.5 -12t47.5 -27t35.5 -27t38.5 -12q45 0 65 74h168zM43 0l307 1452h905l-57 -266h-620l-72 -332h563l-53 -252h-563
l-72 -336h623l-56 -266h-905z" />
    <glyph glyph-name="uni1EBD" unicode="&#x1ebd;" horiz-adv-x="1122" 
d="M1014 1417q-22 -120 -85.5 -180.5t-150.5 -60.5q-40 0 -70.5 12.5t-46 27t-35 27t-38.5 12.5q-46 0 -64 -75h-172q22 121 86 181t150 60q40 0 71.5 -12t47 -27t35 -27t38.5 -12q46 0 66 74h168zM780 618q2 14 2 25q0 67 -47.5 120.5t-142.5 53.5q-99 0 -163 -55.5
t-91 -143.5h442zM309 430q0 -102 59.5 -167.5t166.5 -65.5q80 0 136.5 36t88.5 95l209 -105q-55 -109 -170 -181.5t-281 -72.5q-127 0 -231.5 56t-168 163t-63.5 246q0 135 46.5 250.5t123 191.5t173 119t198.5 43q206 0 324 -117.5t118 -306.5q0 -86 -28 -182z" />
    <glyph glyph-name="uni1EBE" unicode="&#x1ebe;" horiz-adv-x="1181" 
d="M1264 1767h-199l188 275h265zM43 0l307 1452h905l-57 -266h-620l-72 -332h563l-53 -252h-563l-72 -336h623l-56 -266h-905zM961 1829l161 -275h-202l-95 138l-141 -138h-215l248 275h244z" />
    <glyph glyph-name="uni1EBF" unicode="&#x1ebf;" horiz-adv-x="1122" 
d="M1120 1368h-198l188 274h264zM780 618q2 14 2 25q0 67 -47.5 120.5t-142.5 53.5q-99 0 -163 -55.5t-91 -143.5h442zM309 430q0 -102 59.5 -167.5t166.5 -65.5q80 0 136.5 36t88.5 95l209 -105q-55 -109 -170 -181.5t-281 -72.5q-127 0 -231.5 56t-168 163t-63.5 246
q0 135 46.5 250.5t123 191.5t173 119t198.5 43q206 0 324 -117.5t118 -306.5q0 -86 -28 -182zM817 1430l162 -275h-203l-94 137l-141 -137h-215l247 275h244z" />
    <glyph glyph-name="uni1EC0" unicode="&#x1ec0;" horiz-adv-x="1181" 
d="M1292 1767h-190l-162 275h256zM43 0l307 1452h905l-57 -266h-620l-72 -332h563l-53 -252h-563l-72 -336h623l-56 -266h-905zM961 1829l161 -275h-202l-95 138l-141 -138h-215l248 275h244z" />
    <glyph glyph-name="uni1EC1" unicode="&#x1ec1;" horiz-adv-x="1122" 
d="M1149 1368h-191l-161 274h256zM780 618q2 14 2 25q0 67 -47.5 120.5t-142.5 53.5q-99 0 -163 -55.5t-91 -143.5h442zM309 430q0 -102 59.5 -167.5t166.5 -65.5q80 0 136.5 36t88.5 95l209 -105q-55 -109 -170 -181.5t-281 -72.5q-127 0 -231.5 56t-168 163t-63.5 246
q0 135 46.5 250.5t123 191.5t173 119t198.5 43q206 0 324 -117.5t118 -306.5q0 -86 -28 -182zM817 1430l162 -275h-203l-94 137l-141 -137h-215l247 275h244z" />
    <glyph glyph-name="uni1EC2" unicode="&#x1ec2;" horiz-adv-x="1181" 
d="M1335 1948q-17 -89 -131 -181h-145q81 74 96 131q10 37 -9 54.5t-56 17.5q-34 0 -52 -6l29 141q52 6 107 6q82 -2 130 -42.5t31 -120.5zM43 0l307 1452h905l-57 -266h-620l-72 -332h563l-53 -252h-563l-72 -336h623l-56 -266h-905zM961 1829l161 -275h-202l-95 138
l-141 -138h-215l248 275h244z" />
    <glyph glyph-name="uni1EC3" unicode="&#x1ec3;" horiz-adv-x="1122" 
d="M1192 1548q-17 -88 -131 -180h-146q83 75 97 131q10 37 -9.5 54.5t-56.5 17.5q-33 0 -51 -6l29 141q52 6 106 6q82 -2 130.5 -43t31.5 -121zM780 618q2 14 2 25q0 67 -47.5 120.5t-142.5 53.5q-99 0 -163 -55.5t-91 -143.5h442zM309 430q0 -102 59.5 -167.5t166.5 -65.5
q80 0 136.5 36t88.5 95l209 -105q-55 -109 -170 -181.5t-281 -72.5q-127 0 -231.5 56t-168 163t-63.5 246q0 135 46.5 250.5t123 191.5t173 119t198.5 43q206 0 324 -117.5t118 -306.5q0 -86 -28 -182zM817 1430l162 -275h-203l-94 137l-141 -137h-215l247 275h244z" />
    <glyph glyph-name="uni1EC4" unicode="&#x1ec4;" horiz-adv-x="1181" 
d="M1188 2132q-22 -120 -85.5 -181t-150.5 -61q-40 0 -70.5 12.5t-46 27.5t-35 27.5t-38.5 12.5q-46 0 -64 -76h-172q22 121 86 181.5t150 60.5q40 0 71.5 -12t47 -27t35 -27t38.5 -12q46 0 66 74h168zM43 0l307 1452h905l-57 -266h-620l-72 -332h563l-53 -252h-563
l-72 -336h623l-56 -266h-905zM961 1829l161 -275h-202l-95 138l-141 -138h-215l248 275h244z" />
    <glyph glyph-name="uni1EC5" unicode="&#x1ec5;" horiz-adv-x="1122" 
d="M1044 1733q-22 -120 -85 -181t-150 -61q-40 0 -71 12.5t-46.5 27.5t-35 27.5t-38.5 12.5q-45 0 -63 -76h-172q22 121 85.5 181.5t149.5 60.5q40 0 71.5 -12t47.5 -27t35.5 -27t38.5 -12q46 0 66 74h167zM780 618q2 14 2 25q0 67 -47.5 120.5t-142.5 53.5
q-99 0 -163 -55.5t-91 -143.5h442zM309 430q0 -102 59.5 -167.5t166.5 -65.5q80 0 136.5 36t88.5 95l209 -105q-55 -109 -170 -181.5t-281 -72.5q-127 0 -231.5 56t-168 163t-63.5 246q0 135 46.5 250.5t123 191.5t173 119t198.5 43q206 0 324 -117.5t118 -306.5
q0 -86 -28 -182zM817 1430l162 -275h-203l-94 137l-141 -137h-215l247 275h244z" />
    <glyph glyph-name="uni1EC6" unicode="&#x1ec6;" horiz-adv-x="1181" 
d="M289 -346q0 65 45.5 110.5t111.5 45.5q56 0 92.5 -36t36.5 -89q0 -66 -47.5 -111t-111.5 -45q-55 0 -91 36t-36 89zM43 0l307 1452h905l-57 -266h-620l-72 -332h563l-53 -252h-563l-72 -336h623l-56 -266h-905zM961 1829l161 -275h-202l-95 138l-141 -138h-215l248 275
h244z" />
    <glyph glyph-name="uni1EC7" unicode="&#x1ec7;" horiz-adv-x="1122" 
d="M289 -346q0 65 45.5 110.5t111.5 45.5q56 0 92.5 -36t36.5 -89q0 -66 -47.5 -111t-111.5 -45q-55 0 -91 36t-36 89zM780 618q2 14 2 25q0 67 -47.5 120.5t-142.5 53.5q-99 0 -163 -55.5t-91 -143.5h442zM309 430q0 -102 59.5 -167.5t166.5 -65.5q80 0 136.5 36t88.5 95
l209 -105q-55 -109 -170 -181.5t-281 -72.5q-127 0 -231.5 56t-168 163t-63.5 246q0 135 46.5 250.5t123 191.5t173 119t198.5 43q206 0 324 -117.5t118 -306.5q0 -86 -28 -182zM817 1430l162 -275h-203l-94 137l-141 -137h-215l247 275h244z" />
    <glyph glyph-name="uni1EC8" unicode="&#x1ec8;" horiz-adv-x="628" 
d="M717 1755q-17 -88 -131 -180h-146q83 75 97 131q10 37 -9.5 54.5t-56.5 17.5q-33 0 -51 -6l29 141q52 6 106 6q82 -2 130.5 -43t31.5 -121zM43 0l307 1452h287l-307 -1452h-287z" />
    <glyph glyph-name="uni1EC9" unicode="&#x1ec9;" horiz-adv-x="546" 
d="M588 1356q-17 -88 -131 -180h-146q83 75 97 131q10 37 -9.5 54t-56.5 17q-33 0 -51 -6l28 141q61 7 107 7q82 -2 130.5 -43t31.5 -121zM8 0l215 1008h273l-215 -1008h-273z" />
    <glyph glyph-name="uni1ECA" unicode="&#x1eca;" horiz-adv-x="628" 
d="M-25 -346q0 65 46 110.5t112 45.5q56 0 92.5 -36t36.5 -89q0 -66 -48 -111t-112 -45q-55 0 -91 36t-36 89zM43 0l307 1452h287l-307 -1452h-287z" />
    <glyph glyph-name="uni1ECB" unicode="&#x1ecb;" horiz-adv-x="546" 
d="M-70 -346q0 65 46 110.5t112 45.5q56 0 92.5 -36t36.5 -89q0 -66 -48 -111t-112 -45q-55 0 -91 36t-36 89zM8 0l215 1008h271l-215 -1008h-271zM276 1311q0 67 48 114.5t116 47.5q59 0 97 -38t38 -94q0 -69 -49.5 -115t-115.5 -46q-58 0 -96 37.5t-38 93.5z" />
    <glyph glyph-name="uni1ECC" unicode="&#x1ecc;" horiz-adv-x="1593" 
d="M489 -346q0 65 46 110.5t112 45.5q56 0 92.5 -36t36.5 -89q0 -66 -48 -111t-112 -45q-55 0 -91 36t-36 89zM111 618q0 134 30.5 255t84 214.5t127 169t160.5 125t183 75.5t195 26q288 0 464.5 -179t176.5 -470q0 -161 -43 -301t-117.5 -242t-173.5 -175.5t-212.5 -110
t-231.5 -36.5q-288 0 -465.5 180t-177.5 469zM1241 817q0 185 -98 291t-269 106q-132 0 -241.5 -77.5t-171.5 -209t-62 -288.5q0 -183 100 -290t267 -107q129 0 236.5 72t171.5 204t67 299z" />
    <glyph glyph-name="uni1ECD" unicode="&#x1ecd;" horiz-adv-x="1179" 
d="M303 -346q0 65 46 110.5t112 45.5q56 0 92.5 -36t36.5 -89q0 -66 -48 -111t-112 -45q-55 0 -91 36t-36 89zM602 791q-117 0 -194.5 -97.5t-77.5 -242.5q0 -109 56.5 -171.5t150.5 -62.5q49 0 96.5 22t87 62.5t64 108t24.5 149.5q0 109 -56 170.5t-151 61.5zM1081 569
q0 -162 -71.5 -299t-201.5 -219t-290 -82q-137 0 -243 62.5t-162 169t-56 237.5q0 130 44.5 242.5t121 190.5t180.5 122.5t220 44.5q210 0 334 -133.5t124 -335.5z" />
    <glyph glyph-name="uni1ECE" unicode="&#x1ece;" horiz-adv-x="1593" 
d="M1169 1755q-17 -88 -131 -180h-145q81 74 96 131q10 37 -9 54.5t-56 17.5q-34 0 -52 -6l29 141q52 6 107 6q82 -2 130 -43t31 -121zM111 618q0 134 30.5 255t84 214.5t127 169t160.5 125t183 75.5t195 26q288 0 464.5 -179t176.5 -470q0 -161 -43 -301t-117.5 -242
t-173.5 -175.5t-212.5 -110t-231.5 -36.5q-288 0 -465.5 180t-177.5 469zM1241 817q0 185 -98 291t-269 106q-132 0 -241.5 -77.5t-171.5 -209t-62 -288.5q0 -183 100 -290t267 -107q129 0 236.5 72t171.5 204t67 299z" />
    <glyph glyph-name="uni1ECF" unicode="&#x1ecf;" horiz-adv-x="1179" 
d="M874 1356q-17 -88 -131 -180h-145q81 74 96 131q10 37 -9 54t-56 17q-33 0 -51 -6l28 141q61 7 107 7q82 -2 130 -43t31 -121zM602 791q-117 0 -194.5 -97.5t-77.5 -242.5q0 -109 56.5 -171.5t150.5 -62.5q49 0 96.5 22t87 62.5t64 108t24.5 149.5q0 109 -56 170.5
t-151 61.5zM1081 569q0 -162 -71.5 -299t-201.5 -219t-290 -82q-137 0 -243 62.5t-162 169t-56 237.5q0 130 44.5 242.5t121 190.5t180.5 122.5t220 44.5q210 0 334 -133.5t124 -335.5z" />
    <glyph glyph-name="uni1ED0" unicode="&#x1ed0;" horiz-adv-x="1593" 
d="M1415 1767h-198l188 275h264zM111 618q0 134 30.5 255t84 214.5t127 169t160.5 125t183 75.5t195 26q288 0 464.5 -179t176.5 -470q0 -161 -43 -301t-117.5 -242t-173.5 -175.5t-212.5 -110t-231.5 -36.5q-288 0 -465.5 180t-177.5 469zM1241 817q0 185 -98 291t-269 106
q-132 0 -241.5 -77.5t-171.5 -209t-62 -288.5q0 -183 100 -290t267 -107q129 0 236.5 72t171.5 204t67 299zM1112 1829l162 -275h-203l-94 138l-141 -138h-215l247 275h244z" />
    <glyph glyph-name="uni1ED1" unicode="&#x1ed1;" horiz-adv-x="1179" 
d="M1133 1368h-199l188 274h264zM602 791q-117 0 -194.5 -97.5t-77.5 -242.5q0 -109 56.5 -171.5t150.5 -62.5q49 0 96.5 22t87 62.5t64 108t24.5 149.5q0 109 -56 170.5t-151 61.5zM1081 569q0 -162 -71.5 -299t-201.5 -219t-290 -82q-137 0 -243 62.5t-162 169t-56 237.5
q0 130 44.5 242.5t121 190.5t180.5 122.5t220 44.5q210 0 334 -133.5t124 -335.5zM829 1430l162 -275h-203l-94 137l-141 -137h-215l248 275h243z" />
    <glyph glyph-name="uni1ED2" unicode="&#x1ed2;" horiz-adv-x="1593" 
d="M1444 1767h-191l-161 275h256zM111 618q0 134 30.5 255t84 214.5t127 169t160.5 125t183 75.5t195 26q288 0 464.5 -179t176.5 -470q0 -161 -43 -301t-117.5 -242t-173.5 -175.5t-212.5 -110t-231.5 -36.5q-288 0 -465.5 180t-177.5 469zM1241 817q0 185 -98 291
t-269 106q-132 0 -241.5 -77.5t-171.5 -209t-62 -288.5q0 -183 100 -290t267 -107q129 0 236.5 72t171.5 204t67 299zM1112 1829l162 -275h-203l-94 138l-141 -138h-215l247 275h244z" />
    <glyph glyph-name="uni1ED3" unicode="&#x1ed3;" horiz-adv-x="1179" 
d="M1161 1368h-190l-162 274h256zM602 791q-117 0 -194.5 -97.5t-77.5 -242.5q0 -109 56.5 -171.5t150.5 -62.5q49 0 96.5 22t87 62.5t64 108t24.5 149.5q0 109 -56 170.5t-151 61.5zM1081 569q0 -162 -71.5 -299t-201.5 -219t-290 -82q-137 0 -243 62.5t-162 169t-56 237.5
q0 130 44.5 242.5t121 190.5t180.5 122.5t220 44.5q210 0 334 -133.5t124 -335.5zM829 1430l162 -275h-203l-94 137l-141 -137h-215l248 275h243z" />
    <glyph glyph-name="uni1ED4" unicode="&#x1ed4;" horiz-adv-x="1593" 
d="M1487 1948q-17 -89 -131 -181h-146q83 75 97 131q10 37 -9.5 54.5t-56.5 17.5q-33 0 -51 -6l29 141q52 6 106 6q82 -2 130.5 -42.5t31.5 -120.5zM111 618q0 134 30.5 255t84 214.5t127 169t160.5 125t183 75.5t195 26q288 0 464.5 -179t176.5 -470q0 -161 -43 -301
t-117.5 -242t-173.5 -175.5t-212.5 -110t-231.5 -36.5q-288 0 -465.5 180t-177.5 469zM1241 817q0 185 -98 291t-269 106q-132 0 -241.5 -77.5t-171.5 -209t-62 -288.5q0 -183 100 -290t267 -107q129 0 236.5 72t171.5 204t67 299zM1112 1829l162 -275h-203l-94 138
l-141 -138h-215l247 275h244z" />
    <glyph glyph-name="uni1ED5" unicode="&#x1ed5;" horiz-adv-x="1179" 
d="M1204 1548q-17 -88 -131 -180h-145q81 74 96 131q10 37 -9.5 54.5t-56.5 17.5q-33 0 -51 -6l29 141q52 6 106 6q82 -2 130.5 -43t31.5 -121zM602 791q-117 0 -194.5 -97.5t-77.5 -242.5q0 -109 56.5 -171.5t150.5 -62.5q49 0 96.5 22t87 62.5t64 108t24.5 149.5
q0 109 -56 170.5t-151 61.5zM1081 569q0 -162 -71.5 -299t-201.5 -219t-290 -82q-137 0 -243 62.5t-162 169t-56 237.5q0 130 44.5 242.5t121 190.5t180.5 122.5t220 44.5q210 0 334 -133.5t124 -335.5zM829 1430l162 -275h-203l-94 137l-141 -137h-215l248 275h243z" />
    <glyph glyph-name="uni1ED6" unicode="&#x1ed6;" horiz-adv-x="1593" 
d="M1339 2132q-22 -120 -85 -181t-150 -61q-40 0 -71 12.5t-46.5 27.5t-35 27.5t-38.5 12.5q-45 0 -63 -76h-172q22 121 85.5 181.5t149.5 60.5q40 0 71.5 -12t47.5 -27t35.5 -27t38.5 -12q45 0 65 74h168zM111 618q0 134 30.5 255t84 214.5t127 169t160.5 125t183 75.5
t195 26q288 0 464.5 -179t176.5 -470q0 -161 -43 -301t-117.5 -242t-173.5 -175.5t-212.5 -110t-231.5 -36.5q-288 0 -465.5 180t-177.5 469zM1241 817q0 185 -98 291t-269 106q-132 0 -241.5 -77.5t-171.5 -209t-62 -288.5q0 -183 100 -290t267 -107q129 0 236.5 72
t171.5 204t67 299zM1112 1829l162 -275h-203l-94 138l-141 -138h-215l247 275h244z" />
    <glyph glyph-name="uni1ED7" unicode="&#x1ed7;" horiz-adv-x="1179" 
d="M1057 1733q-22 -120 -85.5 -181t-150.5 -61q-40 0 -70.5 12.5t-46 27.5t-35 27.5t-38.5 12.5q-46 0 -64 -76h-172q22 121 86 181.5t150 60.5q40 0 71.5 -12t47 -27t35 -27t38.5 -12q46 0 66 74h168zM602 791q-117 0 -194.5 -97.5t-77.5 -242.5q0 -109 56.5 -171.5
t150.5 -62.5q49 0 96.5 22t87 62.5t64 108t24.5 149.5q0 109 -56 170.5t-151 61.5zM1081 569q0 -162 -71.5 -299t-201.5 -219t-290 -82q-137 0 -243 62.5t-162 169t-56 237.5q0 130 44.5 242.5t121 190.5t180.5 122.5t220 44.5q210 0 334 -133.5t124 -335.5zM829 1430
l162 -275h-203l-94 137l-141 -137h-215l248 275h243z" />
    <glyph glyph-name="uni1ED8" unicode="&#x1ed8;" horiz-adv-x="1593" 
d="M489 -346q0 65 46 110.5t112 45.5q56 0 92.5 -36t36.5 -89q0 -66 -48 -111t-112 -45q-55 0 -91 36t-36 89zM111 618q0 134 30.5 255t84 214.5t127 169t160.5 125t183 75.5t195 26q288 0 464.5 -179t176.5 -470q0 -161 -43 -301t-117.5 -242t-173.5 -175.5t-212.5 -110
t-231.5 -36.5q-288 0 -465.5 180t-177.5 469zM1241 817q0 185 -98 291t-269 106q-132 0 -241.5 -77.5t-171.5 -209t-62 -288.5q0 -183 100 -290t267 -107q129 0 236.5 72t171.5 204t67 299zM1112 1829l162 -275h-203l-94 138l-141 -138h-215l247 275h244z" />
    <glyph glyph-name="uni1ED9" unicode="&#x1ed9;" horiz-adv-x="1179" 
d="M303 -346q0 65 46 110.5t112 45.5q56 0 92.5 -36t36.5 -89q0 -66 -48 -111t-112 -45q-55 0 -91 36t-36 89zM602 791q-117 0 -194.5 -97.5t-77.5 -242.5q0 -109 56.5 -171.5t150.5 -62.5q49 0 96.5 22t87 62.5t64 108t24.5 149.5q0 109 -56 170.5t-151 61.5zM1081 569
q0 -162 -71.5 -299t-201.5 -219t-290 -82q-137 0 -243 62.5t-162 169t-56 237.5q0 130 44.5 242.5t121 190.5t180.5 122.5t220 44.5q210 0 334 -133.5t124 -335.5zM829 1430l162 -275h-203l-94 137l-141 -137h-215l248 275h243z" />
    <glyph glyph-name="uni1EDA" unicode="&#x1eda;" horiz-adv-x="1593" 
d="M1036 1575h-198l188 274h264zM111 618q0 134 30.5 255t84 214.5t127 169t160.5 125t183 75.5t195 26q74 0 150.5 -15.5t109.5 -15.5q72 0 119 48.5t63 121.5h221q-50 -223 -254 -270q110 -86 171 -219.5t61 -298.5q0 -161 -43 -301t-117.5 -242t-173.5 -175.5
t-212.5 -110t-231.5 -36.5q-288 0 -465.5 180t-177.5 469zM1241 817q0 185 -98 291t-269 106q-132 0 -241.5 -77.5t-171.5 -209t-62 -288.5q0 -183 100 -290t267 -107q129 0 236.5 72t171.5 204t67 299z" />
    <glyph glyph-name="uni1EDB" unicode="&#x1edb;" horiz-adv-x="1179" 
d="M764 1176h-199l189 274h264zM1081 569q0 -162 -71.5 -299t-201.5 -219t-290 -82q-137 0 -243 62.5t-162 169t-56 237.5q0 130 44.5 242.5t121 190.5t180.5 122.5t220 44.5q88 0 176 -30q72 0 119 48.5t63 121.5h221q-50 -221 -250 -269q129 -135 129 -340zM602 791
q-117 0 -194.5 -97.5t-77.5 -242.5q0 -109 56.5 -171.5t150.5 -62.5q49 0 96.5 22t87 62.5t64 108t24.5 149.5q0 109 -56 170.5t-151 61.5z" />
    <glyph glyph-name="uni1EDC" unicode="&#x1edc;" horiz-adv-x="1593" 
d="M1036 1575h-190l-162 274h256zM111 618q0 134 30.5 255t84 214.5t127 169t160.5 125t183 75.5t195 26q74 0 150.5 -15.5t109.5 -15.5q72 0 119 48.5t63 121.5h221q-50 -223 -254 -270q110 -86 171 -219.5t61 -298.5q0 -161 -43 -301t-117.5 -242t-173.5 -175.5
t-212.5 -110t-231.5 -36.5q-288 0 -465.5 180t-177.5 469zM1241 817q0 185 -98 291t-269 106q-132 0 -241.5 -77.5t-171.5 -209t-62 -288.5q0 -183 100 -290t267 -107q129 0 236.5 72t171.5 204t67 299z" />
    <glyph glyph-name="uni1EDD" unicode="&#x1edd;" horiz-adv-x="1179" 
d="M739 1176h-190l-162 274h256zM1081 569q0 -162 -71.5 -299t-201.5 -219t-290 -82q-137 0 -243 62.5t-162 169t-56 237.5q0 130 44.5 242.5t121 190.5t180.5 122.5t220 44.5q88 0 176 -30q72 0 119 48.5t63 121.5h221q-50 -221 -250 -269q129 -135 129 -340zM602 791
q-117 0 -194.5 -97.5t-77.5 -242.5q0 -109 56.5 -171.5t150.5 -62.5q49 0 96.5 22t87 62.5t64 108t24.5 149.5q0 109 -56 170.5t-151 61.5z" />
    <glyph glyph-name="uni1EDE" unicode="&#x1ede;" horiz-adv-x="1593" 
d="M1169 1755q-17 -88 -131 -180h-145q81 74 96 131q10 37 -9 54.5t-56 17.5q-34 0 -52 -6l29 141q52 6 107 6q82 -2 130 -43t31 -121zM111 618q0 134 30.5 255t84 214.5t127 169t160.5 125t183 75.5t195 26q74 0 150.5 -15.5t109.5 -15.5q72 0 119 48.5t63 121.5h221
q-50 -223 -254 -270q110 -86 171 -219.5t61 -298.5q0 -161 -43 -301t-117.5 -242t-173.5 -175.5t-212.5 -110t-231.5 -36.5q-288 0 -465.5 180t-177.5 469zM1241 817q0 185 -98 291t-269 106q-132 0 -241.5 -77.5t-171.5 -209t-62 -288.5q0 -183 100 -290t267 -107
q129 0 236.5 72t171.5 204t67 299z" />
    <glyph glyph-name="uni1EDF" unicode="&#x1edf;" horiz-adv-x="1179" 
d="M874 1356q-17 -88 -131 -180h-145q81 74 96 131q10 37 -9 54t-56 17q-33 0 -51 -6l28 141q61 7 107 7q82 -2 130 -43t31 -121zM1081 569q0 -162 -71.5 -299t-201.5 -219t-290 -82q-137 0 -243 62.5t-162 169t-56 237.5q0 130 44.5 242.5t121 190.5t180.5 122.5t220 44.5
q88 0 176 -30q72 0 119 48.5t63 121.5h221q-50 -221 -250 -269q129 -135 129 -340zM602 791q-117 0 -194.5 -97.5t-77.5 -242.5q0 -109 56.5 -171.5t150.5 -62.5q49 0 96.5 22t87 62.5t64 108t24.5 149.5q0 109 -56 170.5t-151 61.5z" />
    <glyph glyph-name="uni1EE0" unicode="&#x1ee0;" horiz-adv-x="1593" 
d="M1309 1817q-22 -120 -85.5 -181t-150.5 -61q-40 0 -70.5 12.5t-46 27.5t-35 27.5t-38.5 12.5q-46 0 -64 -76h-172q22 121 86 181.5t150 60.5q40 0 71.5 -12t47 -27t35 -27t38.5 -12q46 0 66 74h168zM111 618q0 134 30.5 255t84 214.5t127 169t160.5 125t183 75.5t195 26
q74 0 150.5 -15.5t109.5 -15.5q72 0 119 48.5t63 121.5h221q-50 -223 -254 -270q110 -86 171 -219.5t61 -298.5q0 -161 -43 -301t-117.5 -242t-173.5 -175.5t-212.5 -110t-231.5 -36.5q-288 0 -465.5 180t-177.5 469zM1241 817q0 185 -98 291t-269 106q-132 0 -241.5 -77.5
t-171.5 -209t-62 -288.5q0 -183 100 -290t267 -107q129 0 236.5 72t171.5 204t67 299z" />
    <glyph glyph-name="uni1EE1" unicode="&#x1ee1;" horiz-adv-x="1179" 
d="M1026 1417q-22 -120 -85 -180.5t-150 -60.5q-40 0 -71 12.5t-46.5 27t-35 27t-38.5 12.5q-45 0 -63 -75h-172q22 121 85.5 181t149.5 60q40 0 71.5 -12t47.5 -27t35.5 -27t38.5 -12q45 0 65 74h168zM1081 569q0 -162 -71.5 -299t-201.5 -219t-290 -82q-137 0 -243 62.5
t-162 169t-56 237.5q0 130 44.5 242.5t121 190.5t180.5 122.5t220 44.5q88 0 176 -30q72 0 119 48.5t63 121.5h221q-50 -221 -250 -269q129 -135 129 -340zM602 791q-117 0 -194.5 -97.5t-77.5 -242.5q0 -109 56.5 -171.5t150.5 -62.5q49 0 96.5 22t87 62.5t64 108
t24.5 149.5q0 109 -56 170.5t-151 61.5z" />
    <glyph glyph-name="uni1EE2" unicode="&#x1ee2;" horiz-adv-x="1593" 
d="M489 -346q0 65 46 110.5t112 45.5q56 0 92.5 -36t36.5 -89q0 -66 -48 -111t-112 -45q-55 0 -91 36t-36 89zM111 618q0 134 30.5 255t84 214.5t127 169t160.5 125t183 75.5t195 26q74 0 150.5 -15.5t109.5 -15.5q72 0 119 48.5t63 121.5h221q-50 -223 -254 -270
q110 -86 171 -219.5t61 -298.5q0 -161 -43 -301t-117.5 -242t-173.5 -175.5t-212.5 -110t-231.5 -36.5q-288 0 -465.5 180t-177.5 469zM1241 817q0 185 -98 291t-269 106q-132 0 -241.5 -77.5t-171.5 -209t-62 -288.5q0 -183 100 -290t267 -107q129 0 236.5 72t171.5 204
t67 299z" />
    <glyph glyph-name="uni1EE3" unicode="&#x1ee3;" horiz-adv-x="1179" 
d="M303 -346q0 65 46 110.5t112 45.5q56 0 92.5 -36t36.5 -89q0 -66 -48 -111t-112 -45q-55 0 -91 36t-36 89zM1081 569q0 -162 -71.5 -299t-201.5 -219t-290 -82q-137 0 -243 62.5t-162 169t-56 237.5q0 130 44.5 242.5t121 190.5t180.5 122.5t220 44.5q88 0 176 -30
q72 0 119 48.5t63 121.5h221q-50 -221 -250 -269q129 -135 129 -340zM602 791q-117 0 -194.5 -97.5t-77.5 -242.5q0 -109 56.5 -171.5t150.5 -62.5q49 0 96.5 22t87 62.5t64 108t24.5 149.5q0 109 -56 170.5t-151 61.5z" />
    <glyph glyph-name="uni1EE4" unicode="&#x1ee4;" horiz-adv-x="1409" 
d="M356 -346q0 65 46 110.5t112 45.5q56 0 92.5 -36t36.5 -89q0 -66 -48 -111t-112 -45q-55 0 -91 36t-36 89zM1430 1452l-211 -993q-48 -236 -204 -363t-374 -127q-230 0 -370 126t-140 339q0 59 16 141l185 877h282l-186 -889q-10 -55 -10 -92q0 -107 60.5 -167t185.5 -60
q224 0 280 262l199 946h287z" />
    <glyph glyph-name="uni1EE5" unicode="&#x1ee5;" horiz-adv-x="1159" 
d="M236 -346q0 65 45.5 110.5t111.5 45.5q56 0 92.5 -36t36.5 -89q0 -66 -48 -111t-112 -45q-55 0 -90.5 36t-35.5 89zM481 1008l-116 -545q-15 -64 -15 -96q0 -70 38 -111t114 -41q82 0 133.5 57t71.5 150l127 586h270l-168 -803q-23 -106 -23 -182v-23h-260q-2 14 -2 43
q0 30 2 61q-40 -61 -110 -95t-142 -34q-156 0 -242.5 92t-86.5 238q0 57 20 150l119 553h270z" />
    <glyph glyph-name="uni1EE6" unicode="&#x1ee6;" horiz-adv-x="1409" 
d="M1085 1755q-17 -88 -131 -180h-145q81 74 96 131q10 37 -9 54.5t-56 17.5q-34 0 -52 -6l29 141q53 6 107 6q82 -2 130 -43t31 -121zM1430 1452l-211 -993q-48 -236 -204 -363t-374 -127q-230 0 -370 126t-140 339q0 59 16 141l185 877h282l-186 -889q-10 -55 -10 -92
q0 -107 60.5 -167t185.5 -60q224 0 280 262l199 946h287z" />
    <glyph glyph-name="uni1EE7" unicode="&#x1ee7;" horiz-adv-x="1159" 
d="M877 1356q-17 -87 -132 -180h-145q81 74 96 131q10 37 -9 54t-56 17q-33 0 -51 -6l28 141q61 7 107 7q82 -2 130.5 -43t31.5 -121zM481 1008l-116 -545q-15 -64 -15 -96q0 -70 38 -111t114 -41q82 0 133.5 57t71.5 150l127 586h270l-168 -803q-23 -106 -23 -182v-23h-260
q-2 14 -2 43q0 30 2 61q-40 -61 -110 -95t-142 -34q-156 0 -242.5 92t-86.5 238q0 57 20 150l119 553h270z" />
    <glyph glyph-name="uni1EE8" unicode="&#x1ee8;" horiz-adv-x="1409" 
d="M971 1575h-199l189 274h264zM1419 1622h221q-47 -210 -231 -264l-190 -899q-48 -236 -204 -363t-374 -127q-230 0 -370 126t-140 339q0 59 16 141l185 877h282l-186 -889q-10 -55 -10 -92q0 -107 60.5 -167t185.5 -60q224 0 280 262l199 946h88h6q72 0 119 48.5t63 121.5
z" />
    <glyph glyph-name="uni1EE9" unicode="&#x1ee9;" horiz-adv-x="1159" 
d="M766 1176h-199l189 274h264zM481 1008l-116 -545q-15 -64 -15 -96q0 -70 38 -111t114 -41q82 0 133.5 57t71.5 150l127 586h67h6q72 0 119.5 48.5t63.5 121.5h221q-48 -209 -228 -263l-147 -710q-23 -106 -23 -182v-23h-260q-2 14 -2 43q0 30 2 61q-40 -61 -110 -95
t-142 -34q-156 0 -242.5 92t-86.5 238q0 57 20 150l119 553h270z" />
    <glyph glyph-name="uni1EEA" unicode="&#x1eea;" horiz-adv-x="1409" 
d="M993 1575h-190l-162 274h256zM1419 1622h221q-47 -210 -231 -264l-190 -899q-48 -236 -204 -363t-374 -127q-230 0 -370 126t-140 339q0 59 16 141l185 877h282l-186 -889q-10 -55 -10 -92q0 -107 60.5 -167t185.5 -60q224 0 280 262l199 946h88h6q72 0 119 48.5
t63 121.5z" />
    <glyph glyph-name="uni1EEB" unicode="&#x1eeb;" horiz-adv-x="1159" 
d="M772 1176h-190l-162 274h256zM481 1008l-116 -545q-15 -64 -15 -96q0 -70 38 -111t114 -41q82 0 133.5 57t71.5 150l127 586h67h6q72 0 119.5 48.5t63.5 121.5h221q-48 -209 -228 -263l-147 -710q-23 -106 -23 -182v-23h-260q-2 14 -2 43q0 30 2 61q-40 -61 -110 -95
t-142 -34q-156 0 -242.5 92t-86.5 238q0 57 20 150l119 553h270z" />
    <glyph glyph-name="uni1EEC" unicode="&#x1eec;" horiz-adv-x="1409" 
d="M1085 1755q-17 -88 -131 -180h-145q81 74 96 131q10 37 -9 54.5t-56 17.5q-34 0 -52 -6l29 141q53 6 107 6q82 -2 130 -43t31 -121zM1419 1622h221q-47 -210 -231 -264l-190 -899q-48 -236 -204 -363t-374 -127q-230 0 -370 126t-140 339q0 59 16 141l185 877h282
l-186 -889q-10 -55 -10 -92q0 -107 60.5 -167t185.5 -60q224 0 280 262l199 946h88h6q72 0 119 48.5t63 121.5z" />
    <glyph glyph-name="uni1EED" unicode="&#x1eed;" horiz-adv-x="1159" 
d="M877 1356q-17 -87 -132 -180h-145q81 74 96 131q10 37 -9 54t-56 17q-33 0 -51 -6l28 141q61 7 107 7q82 -2 130.5 -43t31.5 -121zM481 1008l-116 -545q-15 -64 -15 -96q0 -70 38 -111t114 -41q82 0 133.5 57t71.5 150l127 586h67h6q72 0 119.5 48.5t63.5 121.5h221
q-48 -209 -228 -263l-147 -710q-23 -106 -23 -182v-23h-260q-2 14 -2 43q0 30 2 61q-40 -61 -110 -95t-142 -34q-156 0 -242.5 92t-86.5 238q0 57 20 150l119 553h270z" />
    <glyph glyph-name="uni1EEE" unicode="&#x1eee;" horiz-adv-x="1409" 
d="M1223 1817q-22 -120 -85.5 -181t-150.5 -61q-40 0 -70.5 12.5t-46 27.5t-35 27.5t-38.5 12.5q-46 0 -64 -76h-172q22 121 86 181.5t150 60.5q40 0 71.5 -12t47 -27t35 -27t38.5 -12q46 0 66 74h168zM1419 1622h221q-47 -210 -231 -264l-190 -899q-48 -236 -204 -363
t-374 -127q-230 0 -370 126t-140 339q0 59 16 141l185 877h282l-186 -889q-10 -55 -10 -92q0 -107 60.5 -167t185.5 -60q224 0 280 262l199 946h88h6q72 0 119 48.5t63 121.5z" />
    <glyph glyph-name="uni1EEF" unicode="&#x1eef;" horiz-adv-x="1159" 
d="M1022 1417q-22 -120 -85.5 -180.5t-150.5 -60.5q-40 0 -70.5 12.5t-46 27t-35 27t-38.5 12.5q-46 0 -64 -75h-172q22 121 86 181t150 60q40 0 71.5 -12t47 -27t35 -27t38.5 -12q46 0 66 74h168zM481 1008l-116 -545q-15 -64 -15 -96q0 -70 38 -111t114 -41q82 0 133.5 57
t71.5 150l127 586h67h6q72 0 119.5 48.5t63.5 121.5h221q-48 -209 -228 -263l-147 -710q-23 -106 -23 -182v-23h-260q-2 14 -2 43q0 30 2 61q-40 -61 -110 -95t-142 -34q-156 0 -242.5 92t-86.5 238q0 57 20 150l119 553h270z" />
    <glyph glyph-name="uni1EF0" unicode="&#x1ef0;" horiz-adv-x="1409" 
d="M356 -346q0 65 46 110.5t112 45.5q56 0 92.5 -36t36.5 -89q0 -66 -48 -111t-112 -45q-55 0 -91 36t-36 89zM1419 1622h221q-47 -210 -231 -264l-190 -899q-48 -236 -204 -363t-374 -127q-230 0 -370 126t-140 339q0 59 16 141l185 877h282l-186 -889q-10 -55 -10 -92
q0 -107 60.5 -167t185.5 -60q224 0 280 262l199 946h88h6q72 0 119 48.5t63 121.5z" />
    <glyph glyph-name="uni1EF1" unicode="&#x1ef1;" horiz-adv-x="1159" 
d="M236 -346q0 65 45.5 110.5t111.5 45.5q56 0 92.5 -36t36.5 -89q0 -66 -48 -111t-112 -45q-55 0 -90.5 36t-35.5 89zM481 1008l-116 -545q-15 -64 -15 -96q0 -70 38 -111t114 -41q82 0 133.5 57t71.5 150l127 586h67h6q72 0 119.5 48.5t63.5 121.5h221q-48 -209 -228 -263
l-147 -710q-23 -106 -23 -182v-23h-260q-2 14 -2 43q0 30 2 61q-40 -61 -110 -95t-142 -34q-156 0 -242.5 92t-86.5 238q0 57 20 150l119 553h270z" />
    <glyph glyph-name="Ygrave" unicode="&#x1ef2;" horiz-adv-x="1302" 
d="M193 1452h299l206 -569l404 569h340l-645 -844l-129 -608h-283l129 612zM895 1575h-190l-162 274h256z" />
    <glyph glyph-name="ygrave" unicode="&#x1ef3;" horiz-adv-x="1077" 
d="M-57 -389l348 549l-221 848h286l136 -566l339 566h306l-893 -1397h-301zM696 1176h-190l-162 274h256z" />
    <glyph glyph-name="uni1EF4" unicode="&#x1ef4;" horiz-adv-x="1302" 
d="M313 -346q0 65 46 110.5t112 45.5q56 0 92.5 -36t36.5 -89q0 -66 -48 -111t-112 -45q-55 0 -91 36t-36 89zM193 1452h299l206 -569l404 569h340l-645 -844l-129 -608h-283l129 612z" />
    <glyph glyph-name="uni1EF5" unicode="&#x1ef5;" horiz-adv-x="1077" 
d="M510 -346q0 65 46 110.5t112 45.5q56 0 92.5 -36t36.5 -89q0 -66 -48 -111t-112 -45q-55 0 -91 36t-36 89zM-57 -389l348 549l-221 848h286l136 -566l339 566h306l-893 -1397h-301z" />
    <glyph glyph-name="uni1EF6" unicode="&#x1ef6;" horiz-adv-x="1302" 
d="M991 1755q-17 -88 -131 -180h-145q81 74 96 131q10 37 -9.5 54.5t-56.5 17.5q-33 0 -51 -6l29 141q52 6 106 6q82 -2 130.5 -43t31.5 -121zM193 1452h299l206 -569l404 569h340l-645 -844l-129 -608h-283l129 612z" />
    <glyph glyph-name="uni1EF7" unicode="&#x1ef7;" horiz-adv-x="1077" 
d="M803 1356q-17 -88 -131 -180h-146q83 75 97 131q10 37 -9.5 54t-56.5 17q-33 0 -51 -6l29 141q61 7 106 7q82 -2 130.5 -43t31.5 -121zM-57 -389l348 549l-221 848h286l136 -566l339 566h306l-893 -1397h-301z" />
    <glyph glyph-name="uni1EF8" unicode="&#x1ef8;" horiz-adv-x="1302" 
d="M1143 1817q-22 -120 -85.5 -181t-150.5 -61q-40 0 -70.5 12.5t-46 27.5t-35 27.5t-38.5 12.5q-46 0 -64 -76h-172q22 121 86 181.5t150 60.5q40 0 71.5 -12t47 -27t35 -27t38.5 -12q46 0 66 74h168zM193 1452h299l206 -569l404 569h340l-645 -844l-129 -608h-283l129 612
z" />
    <glyph glyph-name="uni1EF9" unicode="&#x1ef9;" horiz-adv-x="1077" 
d="M946 1417q-22 -120 -85 -180.5t-150 -60.5q-40 0 -71 12.5t-46.5 27t-35 27t-38.5 12.5q-45 0 -63 -75h-172q22 121 85.5 181t149.5 60q40 0 71.5 -12t47.5 -27t35.5 -27t38.5 -12q45 0 65 74h168zM-57 -389l348 549l-221 848h286l136 -566l339 566h306l-893 -1397h-301z
" />
    <glyph glyph-name="uni2007" unicode="&#x2007;" horiz-adv-x="1280" 
 />
    <glyph glyph-name="uni2008" unicode="&#x2008;" horiz-adv-x="563" 
 />
    <glyph glyph-name="uni200B" unicode="&#x200b;" horiz-adv-x="0" 
 />
    <glyph glyph-name="endash" unicode="&#x2013;" horiz-adv-x="1314" 
d="M102 489l50 236h1056l-49 -236h-1057z" />
    <glyph glyph-name="emdash" unicode="&#x2014;" horiz-adv-x="2183" 
d="M102 489l50 236h1925l-49 -236h-1926z" />
    <glyph glyph-name="quoteleft" unicode="&#x2018;" horiz-adv-x="534" 
d="M524 1051q0 -72 -50.5 -121t-125.5 -49q-76 0 -120 49.5t-44 124.5q0 159 122 281t288 130l-27 -127q-74 -8 -136.5 -56t-80.5 -116q9 9 43 9q60 0 95.5 -36.5t35.5 -88.5z" />
    <glyph glyph-name="quoteright" unicode="&#x2019;" horiz-adv-x="536" 
d="M254 1296q0 72 50.5 121t125.5 49q76 0 120 -49.5t44 -124.5q0 -105 -56 -199t-151 -151.5t-203 -60.5l27 125q68 5 134 55t83 117q-9 -9 -43 -9q-61 0 -96 37t-35 90z" />
    <glyph glyph-name="quotesinglbase" unicode="&#x201a;" horiz-adv-x="538" 
d="M4 119q0 72 50.5 121t125.5 49q76 0 120 -49.5t44 -124.5q0 -105 -56 -199t-151 -152t-203 -61l27 125q70 8 135 57t82 115q-8 -8 -43 -8q-61 0 -96 37t-35 90z" />
    <glyph glyph-name="quotedblleft" unicode="&#x201c;" horiz-adv-x="935" 
d="M926 1057q0 -73 -48.5 -120.5t-125.5 -47.5q-76 0 -119 48.5t-43 123.5q0 157 120.5 277t284.5 128l-26 -125q-71 -8 -134.5 -55.5t-80.5 -111.5q6 6 43 6q59 0 94 -35.5t35 -87.5zM520 1057q0 -72 -49.5 -120t-124.5 -48q-76 0 -119 48.5t-43 123.5q0 157 120.5 277
t283.5 128l-27 -125q-70 -8 -133 -55.5t-80 -111.5q6 6 41 6q61 0 96 -35.5t35 -87.5z" />
    <glyph glyph-name="quotedblright" unicode="&#x201d;" horiz-adv-x="946" 
d="M254 1296q0 69 50.5 117.5t125.5 48.5t117.5 -49t42.5 -121q0 -105 -54.5 -197.5t-148 -148.5t-201.5 -59l27 123q69 10 132.5 56.5t82.5 113.5q-9 -9 -43 -9q-60 0 -95.5 36t-35.5 89zM666 1296q0 70 50 118t124 48q75 0 118 -49t43 -121q0 -160 -120.5 -280
t-284.5 -125l27 123q69 10 132.5 56.5t82.5 113.5q-9 -9 -43 -9q-59 0 -94 36t-35 89z" />
    <glyph glyph-name="quotedblbase" unicode="&#x201e;" horiz-adv-x="935" 
d="M4 117q0 72 50.5 120t125.5 48t117.5 -48.5t42.5 -123.5q0 -160 -118.5 -279t-284.5 -127l26 125q66 5 130.5 54t84.5 114q-6 -6 -43 -6q-59 0 -95 36t-36 87zM406 117q0 72 49.5 120t124.5 48q76 0 118.5 -48.5t42.5 -123.5q0 -159 -119.5 -278.5t-283.5 -127.5l27 125
q66 5 132.5 54.5t80.5 113.5q-6 -6 -41 -6q-61 0 -96 35.5t-35 87.5z" />
    <glyph glyph-name="dagger" unicode="&#x2020;" horiz-adv-x="870" 
d="M729 1452l-63 -291h252l-46 -213h-251l-132 -614h-227l131 614h-252l45 213h252l62 291h229z" />
    <glyph glyph-name="daggerdbl" unicode="&#x2021;" horiz-adv-x="940" 
d="M227 0l62 295h-250l43 211h252l94 440h-252l45 211h252l62 295h229l-64 -295h252l-45 -211h-252l-94 -440h252l-45 -211h-250l-63 -295h-228z" />
    <glyph glyph-name="bullet" unicode="&#x2022;" horiz-adv-x="1128" 
d="M139 612q0 177 125.5 302.5t300.5 125.5q177 0 301.5 -125.5t124.5 -302.5t-124.5 -302.5t-301.5 -125.5q-175 0 -300.5 125.5t-125.5 302.5z" />
    <glyph glyph-name="ellipsis" unicode="&#x2026;" horiz-adv-x="1740" 
d="M154 -23q-67 0 -109.5 43.5t-42.5 106.5q0 73 54.5 127.5t131.5 54.5q68 0 110 -43t42 -106q0 -74 -54.5 -128.5t-131.5 -54.5zM762 -23q-68 0 -111 43.5t-43 106.5q0 73 55 127.5t132 54.5q70 0 111.5 -42.5t41.5 -106.5q0 -74 -54.5 -128.5t-131.5 -54.5zM1370 -23
q-67 0 -109 43.5t-42 106.5q0 73 54.5 127.5t131.5 54.5q67 0 109 -43t42 -106q0 -74 -54.5 -128.5t-131.5 -54.5z" />
    <glyph glyph-name="perthousand" unicode="&#x2030;" horiz-adv-x="2187" 
d="M465 877q59 0 104 44.5t45 118.5q0 55 -31.5 88t-86.5 33q-57 0 -102.5 -46t-45.5 -118q0 -55 31 -87.5t86 -32.5zM449 684q-131 0 -217.5 87t-86.5 214q0 103 52.5 189t137 133t179.5 47q130 0 216.5 -87.5t86.5 -215.5q0 -104 -54 -189.5t-138 -131.5t-176 -46z
M1251 176q59 0 104.5 45t45.5 119q0 55 -32 88t-87 33q-57 0 -102 -46t-45 -118q0 -55 30.5 -88t85.5 -33zM1718 176q59 0 104.5 45t45.5 119q0 55 -32 88t-87 33q-57 0 -102 -46t-45 -118q0 -55 30.5 -88t85.5 -33zM385 0h-248l1215 1329h247zM1702 -16q-135 0 -223 94
q-108 -94 -244 -94q-131 0 -217 87t-86 214q0 103 52.5 188.5t136.5 132.5t179 47q131 0 222 -94q108 94 245 94q130 0 217 -87.5t87 -215.5q0 -78 -32 -147.5t-83.5 -116.5t-118 -74.5t-135.5 -27.5z" />
    <glyph glyph-name="guilsinglleft" unicode="&#x2039;" horiz-adv-x="686" 
d="M268 207l-205 403l361 398h272l-379 -414l197 -387h-246z" />
    <glyph glyph-name="guilsinglright" unicode="&#x203a;" horiz-adv-x="686" 
d="M416 1008l207 -406l-363 -395h-270l377 414l-197 387h246z" />
    <glyph glyph-name="uni2042" unicode="&#x2042;" horiz-adv-x="1673" 
d="M1026 1227l219 67l27 -178l-223 -65l102 -177l-160 -106l-106 186l-172 -188l-131 111l174 184l-199 67l82 168l195 -69l40 225h195zM475 432l219 68l27 -178l-223 -66l102 -176l-160 -107l-106 187l-172 -189l-131 111l174 184l-199 68l82 168l195 -70l41 225h194z
M1311 432l219 68l26 -178l-223 -66l103 -176l-160 -107l-107 187l-172 -189l-131 111l174 184l-198 68l82 168l194 -70l41 225h195z" />
    <glyph glyph-name="fraction" unicode="&#x2044;" horiz-adv-x="405" 
d="M-279 0h-247l1214 1329h248z" />
    <glyph glyph-name="uni2051" unicode="&#x2051;" horiz-adv-x="901" 
d="M678 1227l219 67l27 -178l-224 -65l103 -177l-160 -106l-106 186l-172 -188l-132 111l175 184l-199 67l82 168l194 -69l41 225h195zM500 438l219 68l26 -178l-223 -66l103 -176l-160 -106l-107 186l-172 -189l-131 111l174 184l-198 68l82 168l194 -70l41 226h195z" />
    <glyph glyph-name="uni2070" unicode="&#x2070;" horiz-adv-x="811" 
d="M156 981q0 65 13 130.5t43.5 130.5t74 114.5t110.5 80.5t148 31q152 0 230.5 -84t78.5 -213q0 -68 -13.5 -135.5t-44 -132t-74.5 -113t-110 -78.5t-145 -30q-141 0 -226 80t-85 219zM360 985q0 -55 26 -91t87 -36q45 0 80.5 31t55.5 79.5t30 100t10 100.5q0 125 -112 125
q-46 0 -82.5 -34t-56 -85t-29 -100.5t-9.5 -89.5z" />
    <glyph glyph-name="uni2074" unicode="&#x2074;" horiz-adv-x="780" 
d="M145 1061l416 391h227l-94 -444h125l-35 -160h-125q-20 -91 -30 -150h-207l33 150h-353zM539 1235l-240 -227h188z" />
    <glyph glyph-name="uni2075" unicode="&#x2075;" horiz-adv-x="714" 
d="M309 961q0 -52 32.5 -77.5t74.5 -25.5q45 0 77.5 29.5t32.5 81.5q0 41 -28 65.5t-68 24.5q-47 0 -92 -35l-162 78l156 350h454l-34 -170h-316l-49 -113q47 27 107 27q110 0 173.5 -58t63.5 -157q0 -126 -89.5 -210.5t-229.5 -84.5q-126 0 -208.5 69.5t-82.5 186.5z" />
    <glyph glyph-name="uni2076" unicode="&#x2076;" horiz-adv-x="759" 
d="M782 1260q-78 36 -157 36q-75 0 -140.5 -37t-95.5 -104q57 45 148 45q111 0 173 -60.5t62 -160.5q0 -132 -94 -215.5t-229 -83.5q-128 0 -211.5 84.5t-83.5 226.5q0 139 65 248t172.5 167t235.5 58q137 0 223 -51zM475 1051q-45 0 -80 -30t-35 -79q0 -42 27.5 -68
t69.5 -26q46 0 79 31t33 84q0 39 -26 63.5t-68 24.5z" />
    <glyph glyph-name="uni2077" unicode="&#x2077;" horiz-adv-x="698" 
d="M805 1282q-37 -25 -71.5 -53t-87.5 -82t-96.5 -114t-89 -148.5t-75.5 -186.5h-217q25 100 73.5 196t96.5 159.5t101 118.5t80 77.5t40 30.5h-375l35 172h623z" />
    <glyph glyph-name="uni2078" unicode="&#x2078;" horiz-adv-x="745" 
d="M416 1223q0 -30 21.5 -50t56.5 -20q42 0 70 24t28 62q0 27 -20.5 47.5t-61.5 20.5q-45 0 -69.5 -24.5t-24.5 -59.5zM334 918q0 -36 28 -57t70 -21q52 0 83.5 27t31.5 67q0 32 -25.5 55t-75.5 23q-51 0 -81.5 -28t-30.5 -66zM432 680q-149 0 -227 58.5t-78 154.5
q0 73 53 127.5t139 71.5q-43 19 -70.5 60.5t-27.5 86.5q0 98 82 162.5t215 64.5q132 0 205.5 -56.5t73.5 -145.5q0 -63 -45 -113.5t-121 -73.5q50 -17 83.5 -61t33.5 -94q0 -106 -90 -174t-226 -68z" />
    <glyph glyph-name="uni2079" unicode="&#x2079;" horiz-adv-x="759" 
d="M180 893q67 -41 168 -41q71 0 136.5 39t88.5 108q-52 -49 -141 -49q-111 0 -177.5 60.5t-66.5 158.5q0 131 94 214t228 83q129 0 212 -82.5t83 -222.5q0 -217 -131 -348t-330 -131q-138 0 -233 59zM483 1094q46 0 79.5 32t33.5 82q0 41 -26.5 66.5t-65.5 25.5
q-46 0 -79.5 -32t-33.5 -84q0 -39 25.5 -64.5t66.5 -25.5z" />
    <glyph glyph-name="uni2080" unicode="&#x2080;" horiz-adv-x="815" 
d="M-23 72q0 65 13 130.5t43.5 130.5t74.5 114.5t111 80.5t148 31q152 0 230.5 -84t78.5 -213q0 -68 -13.5 -135.5t-44 -132t-74.5 -113t-110 -78.5t-145 -30q-141 0 -226.5 80t-85.5 219zM182 76q0 -55 26 -91t87 -36q45 0 80.5 31t55.5 79.5t30 100t10 100.5
q0 125 -113 125q-46 0 -82 -34t-55.5 -85t-29 -100.5t-9.5 -89.5z" />
    <glyph glyph-name="uni2081" unicode="&#x2081;" horiz-adv-x="520" 
d="M47 -213l100 467h-182l29 135q87 1 150.5 45t88.5 105h183l-160 -752h-209z" />
    <glyph glyph-name="uni2082" unicode="&#x2082;" horiz-adv-x="735" 
d="M293 205q96 41 96 104q0 32 -19.5 56t-62.5 24q-54 0 -82 -34t-28 -95l-189 12q0 123 83.5 203t221.5 80q136 0 210.5 -65.5t74.5 -163.5q0 -174 -217 -265l-156 -65q-31 -16 -37 -35h330l-37 -174h-575q9 254 254 360z" />
    <glyph glyph-name="uni2083" unicode="&#x2083;" horiz-adv-x="745" 
d="M147 258l222 115h-338l37 170h573l-39 -195l-209 -108q72 -14 116 -67.5t44 -131.5q0 -107 -92.5 -187.5t-231.5 -80.5q-132 0 -214.5 72.5t-82.5 174.5q0 21 2 35l191 11q-2 -6 -2 -17q0 -45 29 -75.5t81 -30.5q53 0 83 28t30 76q0 39 -28 61.5t-68 22.5q-30 0 -49 -8z
" />
    <glyph glyph-name="uni2084" unicode="&#x2084;" horiz-adv-x="784" 
d="M-47 150l416 391h227l-94 -445h125l-35 -159h-125q-21 -91 -31 -150h-207l33 150h-352zM346 324l-240 -228h189z" />
    <glyph glyph-name="uni2085" unicode="&#x2085;" horiz-adv-x="714" 
d="M115 49q0 -52 32 -77t74 -25q45 0 78 29t33 81q0 41 -28 65.5t-68 24.5q-50 0 -93 -34l-161 77l155 351h455l-35 -170h-315l-49 -113q46 27 106 27q110 0 174 -58t64 -157q0 -126 -90 -210.5t-230 -84.5q-126 0 -208.5 69.5t-82.5 186.5z" />
    <glyph glyph-name="uni2086" unicode="&#x2086;" horiz-adv-x="763" 
d="M590 350q-80 37 -158 37q-75 0 -140 -37t-95 -104q57 45 147 45q111 0 173.5 -60.5t62.5 -160.5q0 -132 -94.5 -215.5t-229.5 -83.5q-128 0 -211.5 84.5t-83.5 226.5q0 139 65 248t172.5 167t235.5 58q137 0 223 -51zM283 141q-46 0 -80.5 -29.5t-34.5 -78.5
q0 -42 27 -68t69 -26q46 0 79.5 30.5t33.5 83.5q0 39 -26 63.5t-68 24.5z" />
    <glyph glyph-name="uni2087" unicode="&#x2087;" horiz-adv-x="700" 
d="M612 369q-48 -33 -94 -73.5t-110 -111.5t-121.5 -174.5t-93.5 -224.5h-218q25 100 73.5 196t97 159.5t101.5 118.5t80 77t40 31h-375l35 172h622z" />
    <glyph glyph-name="uni2088" unicode="&#x2088;" horiz-adv-x="749" 
d="M223 311q0 -30 21.5 -49.5t56.5 -19.5q42 0 70 24t28 62q0 27 -20.5 47t-61.5 20q-45 0 -69.5 -24.5t-24.5 -59.5zM141 6q0 -36 28 -57t71 -21q52 0 83 27.5t31 67.5q0 32 -25 54.5t-75 22.5q-51 0 -82 -28t-31 -66zM240 -231q-149 0 -227.5 58.5t-78.5 154.5
q0 73 53.5 127t139.5 71q-42 19 -70 61t-28 87q0 98 82 162.5t215 64.5q132 0 205 -56.5t73 -146.5q0 -62 -45 -112.5t-121 -73.5q50 -17 83.5 -61.5t33.5 -94.5q0 -106 -89.5 -173.5t-225.5 -67.5z" />
    <glyph glyph-name="uni2089" unicode="&#x2089;" horiz-adv-x="763" 
d="M-12 -16q67 -41 168 -41q71 0 136.5 39t88.5 108q-52 -49 -141 -49q-111 0 -177.5 60.5t-66.5 158.5q0 131 93.5 214t227.5 83q129 0 212 -82.5t83 -222.5q0 -217 -130.5 -348t-329.5 -131q-139 0 -234 59zM291 184q46 0 79 32.5t33 82.5q0 41 -26.5 66.5t-65.5 25.5
q-46 0 -79 -32.5t-33 -84.5q0 -39 25.5 -64.5t66.5 -25.5z" />
    <glyph glyph-name="Euro" unicode="&#x20ac;" horiz-adv-x="1386" 
d="M152 915h165q96 208 287 326.5t408 118.5q256 0 405 -135l-147 -201q-48 43 -122 68.5t-159 25.5q-105 0 -206.5 -51t-170.5 -152h582l-123 -188h-534q-13 -67 -13 -135h469l-121 -189h-311q43 -95 133 -142.5t211 -47.5q136 0 230 61l82 -211q-152 -94 -349 -94
q-222 0 -384 117.5t-214 316.5h-229l41 189h168q0 70 12 135h-151z" />
    <glyph glyph-name="uni2113" unicode="&#x2113;" horiz-adv-x="890" 
d="M154 276q0 51 6 99q-39 -8 -150 -21l49 238q69 9 150 31l90 426q35 151 125.5 231t214.5 80q134 0 207.5 -72t73.5 -196q0 -113 -61 -232t-174.5 -224.5t-260.5 -174.5l-12 -66q-6 -31 -6 -49q0 -129 159 -129q28 0 54 4.5t40 9.5t31 12.5t21 8.5l-49 -227
q-71 -43 -170 -43q-163 0 -250.5 79t-87.5 215zM489 764q95 73 140 162q43 71 43 145q0 55 -49 55q-57 0 -74 -90z" />
    <glyph glyph-name="trademark" unicode="&#x2122;" horiz-adv-x="1816" 
d="M616 1280l-120 -575h-193l123 575h-213l35 172h614l-37 -172h-209zM1505 705l94 460l-272 -460h-137l-94 460l-99 -460h-186l158 747h250l92 -438l262 438h274l-157 -747h-185z" />
    <glyph glyph-name="Omega" unicode="&#x2126;" horiz-adv-x="1753" 
d="M874 1219q-109 0 -202 -46t-153 -141.5t-60 -224.5q0 -165 99.5 -275.5t240.5 -142.5v-389h-619v258h357q-162 66 -266.5 214t-104.5 353q0 147 58 272.5t155.5 209.5t225.5 131t269 47t269 -47t226 -131t156 -209.5t58 -272.5q0 -205 -105 -353t-268 -214h357v-258h-619
v389q67 15 127 49.5t109 86t77.5 125t28.5 157.5q0 97 -35 177t-93.5 130.5t-132.5 77.5t-155 27z" />
    <glyph glyph-name="uni2160" unicode="&#x2160;" horiz-adv-x="1026" 
d="M1081 1329l-49 -239h-276l-181 -850h275l-49 -240h-830l49 240h275l180 850h-274l49 239h831z" />
    <glyph glyph-name="uni2161" unicode="&#x2161;" horiz-adv-x="1615" 
d="M1671 1329l-49 -239h-281l-180 -850h279l-49 -240h-1420l49 240h279l180 850h-278l49 239h1421zM881 240l180 850h-301l-180 -850h301z" />
    <glyph glyph-name="uni2162" unicode="&#x2162;" horiz-adv-x="2177" 
d="M1622 1090h-291l-178 -850h291zM1051 1090h-291l-178 -850h290zM20 240h281l178 850h-278l49 239h1982l-49 -239h-280l-179 -850h277l-49 -240h-1981z" />
    <glyph glyph-name="uni2163" unicode="&#x2163;" horiz-adv-x="2164" 
d="M250 1329h1968l-49 -239h-221l-455 -850h496l-50 -240h-1968l49 240h269l180 850h-268zM569 240h439l-99 850h-159zM1264 340l387 750h-457z" />
    <glyph glyph-name="uni2164" unicode="&#x2164;" horiz-adv-x="1658" 
d="M508 240l-100 850h-209l49 239h1466l-49 -239h-217l-455 -850h488l-49 -240h-1459l50 240h485zM764 340l387 750h-457z" />
    <glyph glyph-name="uni2165" unicode="&#x2165;" horiz-adv-x="2156" 
d="M250 1329h1962l-49 -239h-271l-180 -850h270l-49 -240h-1962l49 240h494l-100 850h-213zM999 240h433l180 850h-158zM770 340l387 750h-457z" />
    <glyph glyph-name="uni2166" unicode="&#x2166;" horiz-adv-x="2727" 
d="M1159 1090h-461l72 -750zM1612 1090h-158l-455 -850h435zM2175 1090h-283l-178 -850h283zM-29 0l49 240h492l-96 850h-215l49 239h2533l-49 -239h-278l-179 -850h277l-49 -240h-2534z" />
    <glyph glyph-name="uni2167" unicode="&#x2167;" horiz-adv-x="3268" 
d="M250 1329h3074l-49 -239h-275l-180 -850h275l-50 -240h-3074l49 240h490l-96 850h-213zM995 240h430l181 850h-160zM1706 240h276l181 850h-277zM2263 240h277l180 850h-277zM766 340l385 750h-453z" />
    <glyph glyph-name="uni2168" unicode="&#x2168;" horiz-adv-x="2109" 
d="M250 1329h1913l-49 -239h-211l-408 -437l217 -413h221l-49 -240h-1913l49 240h269l180 850h-268zM913 1090h-163l-181 -850h172l398 417zM1352 854l215 236h-330zM1077 240h314l-109 221z" />
    <glyph glyph-name="uni2169" unicode="&#x2169;" horiz-adv-x="1605" 
d="M410 1090h-209l49 239h1409l-49 -239h-211l-408 -437l217 -413h222l-50 -240h-1409l49 240h220l395 417zM846 854l217 236h-332zM573 240h314l-109 221z" />
    <glyph glyph-name="uni216C" unicode="&#x216c;" horiz-adv-x="1318" 
d="M1032 1329l-49 -239h-262l-180 -850h362l76 358h268l-125 -598h-1151l49 240h240l180 850h-239l49 239h782z" />
    <glyph glyph-name="uni216D" unicode="&#x216d;" horiz-adv-x="1507" 
d="M1079 481h275l-101 -481h-274l22 109q-128 -142 -335 -142q-116 0 -220 44.5t-181 122t-122 190t-45 241.5q0 145 40 273t109 222.5t160.5 162.5t196.5 102.5t215 34.5q148 0 250 -53t148 -131l32 153h275l-109 -512h-274q-2 39 -13.5 77t-37.5 77.5t-62.5 69t-93.5 48.5
t-127 19q-61 0 -121.5 -19t-118 -60.5t-101.5 -101.5t-70.5 -149t-26.5 -196q0 -167 99 -265t255 -98q78 0 142 23.5t105 62t66 77.5t39 81z" />
    <glyph glyph-name="uni216E" unicode="&#x216e;" horiz-adv-x="1519" 
d="M18 240h254l179 850h-250l47 239h645q258 0 407.5 -140.5t149.5 -389.5q0 -185 -60.5 -338t-164 -253t-240.5 -154t-291 -54h-725zM551 240h127q92 0 178 34t156 98.5t112.5 169.5t42.5 234q0 151 -87 232.5t-232 81.5h-115z" />
    <glyph glyph-name="uni216F" unicode="&#x216f;" horiz-adv-x="2142" 
d="M637 0h-666l49 240h232l178 850h-229l49 239h606l166 -887l526 887h650l-50 -239h-233l-178 -850h229l-49 -240h-682l49 240h172l143 684l-557 -912h-202l-174 899l-142 -671h162z" />
    <glyph glyph-name="arrowleft" unicode="&#x2190;" horiz-adv-x="2254" 
d="M53 608l602 484v-367h1497v-236h-1497v-362z" />
    <glyph glyph-name="arrowup" unicode="&#x2191;" horiz-adv-x="1056" 
d="M1090 1092h-353v-1393h-233v1393h-357l474 546z" />
    <glyph glyph-name="arrowright" unicode="&#x2192;" horiz-adv-x="2250" 
d="M1595 127v362h-1497v236h1497v367l603 -484z" />
    <glyph glyph-name="arrowdown" unicode="&#x2193;" horiz-adv-x="1079" 
d="M475 -311l-481 551h364v1386h234v-1386h362z" />
    <glyph glyph-name="uni2196" unicode="&#x2196;" horiz-adv-x="1865" 
d="M922 1450l-256 -258l1052 -1051l-166 -166l-1052 1051l-258 -260v684h680z" />
    <glyph glyph-name="uni2197" unicode="&#x2197;" horiz-adv-x="1468" 
d="M1427 1450v-684l-260 260l-1050 -1051l-166 166l1050 1051l-253 258h679z" />
    <glyph glyph-name="uni2198" unicode="&#x2198;" horiz-adv-x="1865" 
d="M995 2l254 256l-1050 1053l166 166l1050 -1053l260 262v-684h-680z" />
    <glyph glyph-name="uni2199" unicode="&#x2199;" horiz-adv-x="1472" 
d="M92 2v684l258 -262l1053 1053l166 -166l-1053 -1053l256 -256h-680z" />
    <glyph glyph-name="uni21A9" unicode="&#x21a9;" horiz-adv-x="1849" 
d="M43 561l539 463v-346h739q112 0 183 60t71 151q0 97 -71 154t-189 57h-400v235h412q215 0 352.5 -127t137.5 -319q0 -193 -136 -321t-354 -128h-745v-338z" />
    <glyph glyph-name="uni21B0" unicode="&#x21b0;" horiz-adv-x="1724" 
d="M131 1022l539 463v-344h864v-1141h-234v905h-630v-344z" />
    <glyph glyph-name="uni21B1" unicode="&#x21b1;" horiz-adv-x="1585" 
d="M186 0v1141h906v344l538 -463l-538 -461v344h-670v-905h-236z" />
    <glyph glyph-name="uni21B2" unicode="&#x21b2;" horiz-adv-x="1601" 
d="M1456 1452v-1141h-905v-344l-539 463l539 461v-344h672v905h233z" />
    <glyph glyph-name="uni21B3" unicode="&#x21b3;" horiz-adv-x="1773" 
d="M1688 430l-539 -463v344h-905v1141h235v-905h670v344z" />
    <glyph glyph-name="uni21B4" unicode="&#x21b4;" horiz-adv-x="1812" 
d="M229 1452h1157v-956h345l-457 -527l-461 527h338v721h-922v235z" />
    <glyph glyph-name="uni21B5" unicode="&#x21b5;" horiz-adv-x="2238" 
d="M74 725h311q0 154 60.5 294.5t163 242.5t243 162.5t293.5 60.5q186 0 356 -88l-108 -209q-116 61 -246 61q-143 0 -263.5 -70t-190.5 -191t-70 -263h329l-438 -512zM1896 725q0 -155 -59.5 -295.5t-161 -241.5t-241.5 -161t-295 -60q-185 0 -355 88l107 209
q123 -63 248 -63q106 0 202 41.5t166 112t111 167.5t41 203h-326l439 514l440 -514h-316z" />
    <glyph glyph-name="uni21C6" unicode="&#x21c6;" horiz-adv-x="2422" 
d="M1774 -127v342h-1551v236h1551v344l538 -463zM166 1139l539 463v-349h1548v-235h-1548v-338z" />
    <glyph glyph-name="partialdiff" unicode="&#x2202;" horiz-adv-x="1263" 
d="M500 1229q-144 0 -297 -70l-94 217q175 101 407 101q60 0 118.5 -8.5t125.5 -32t124.5 -59.5t112 -96t93 -137.5t61.5 -188t23 -242.5q0 -161 -36.5 -295.5t-108.5 -236t-187 -158t-262 -56.5q-81 0 -157 20t-142.5 61t-116.5 99.5t-78.5 140.5t-28.5 179q0 110 43 201
t114 149.5t160 90.5t183 32q224 0 330 -115q-6 105 -38.5 184.5t-85.5 126.5t-119 70t-144 23zM618 709q-139 0 -211.5 -71t-72.5 -183q0 -107 77.5 -171.5t178.5 -64.5q80 0 141.5 35.5t95 93t50 120t16.5 126.5q-101 115 -275 115z" />
    <glyph glyph-name="increment" unicode="&#x2206;" horiz-adv-x="1570" 
d="M688 1145l-315 -883h633zM535 1452h307l555 -1452h-1415z" />
    <glyph glyph-name="product" unicode="&#x220f;" horiz-adv-x="1517" 
d="M1036 0v1192h-508v-1192h-282v1452h1073v-1452h-283z" />
    <glyph glyph-name="summation" unicode="&#x2211;" horiz-adv-x="1472" 
d="M233 256l525 469l-525 471v256h1053v-262h-665l516 -465l-535 -463h684v-262h-1053v256z" />
    <glyph glyph-name="minus" unicode="&#x2212;" horiz-adv-x="1263" 
d="M143 717h973v-223h-973v223z" />
    <glyph glyph-name="uni2215" unicode="&#x2215;" horiz-adv-x="882" 
d="M1038 1329l-934 -1329h-251l927 1329h258z" />
    <glyph glyph-name="uni2219" unicode="&#x2219;" horiz-adv-x="557" 
d="M104 621q0 74 55 130t132 56q71 0 117.5 -45.5t46.5 -112.5q0 -81 -55 -135.5t-134 -54.5q-71 0 -116.5 47.5t-45.5 114.5z" />
    <glyph glyph-name="radical" unicode="&#x221a;" horiz-adv-x="1333" 
d="M1262 1573l-529 -1573h-241l-390 1100h267l245 -725l467 1425h449v-227h-268z" />
    <glyph glyph-name="infinity" unicode="&#x221e;" horiz-adv-x="1722" 
d="M92 594q0 164 111.5 272.5t281.5 108.5q197 0 375 -203q184 203 369 203q170 0 281.5 -108.5t111.5 -272.5t-111.5 -271.5t-281.5 -107.5q-200 0 -375 199q-94 -102 -181 -150.5t-188 -48.5q-170 0 -281.5 107.5t-111.5 271.5zM489 741q-70 0 -111.5 -42t-41.5 -107
t41.5 -106.5t111.5 -41.5q101 0 220 144q-62 76 -112.5 114.5t-107.5 38.5zM1225 444q70 0 111.5 41.5t41.5 106.5t-41.5 107t-111.5 42q-56 0 -105.5 -37t-113.5 -110q60 -74 111.5 -112t107.5 -38z" />
    <glyph glyph-name="integral" unicode="&#x222b;" horiz-adv-x="694" 
d="M193 1075q0 175 100.5 277t277.5 102h105v-242h-92q-55 0 -87 -34t-32 -99v-1110q0 -175 -99.5 -277t-275.5 -102h-110v240h94q55 0 87 35t32 100v1110z" />
    <glyph glyph-name="approxequal" unicode="&#x2248;" horiz-adv-x="1294" 
d="M1188 827q-57 -99 -143 -151.5t-191 -52.5q-109 0 -219 61l-96 53q-57 31 -111 31q-102 0 -178 -98l-148 121q57 99 143.5 152.5t186.5 53.5q108 0 221 -61l99 -53q59 -33 116 -33q106 0 176 98zM1188 416q-57 -99 -143 -152t-191 -53q-109 0 -219 61l-96 54
q-47 28 -111 28q-103 0 -178 -96l-148 121q57 100 143 153.5t189 53.5q104 0 219 -62l99 -53q56 -33 116 -33q107 0 176 97z" />
    <glyph glyph-name="notequal" unicode="&#x2260;" horiz-adv-x="1239" 
d="M123 918h594l123 188h245l-122 -188h153v-220h-297l-121 -186h418v-221h-563l-129 -199h-246l129 199h-184v221h330l120 186h-450v220z" />
    <glyph glyph-name="lessequal" unicode="&#x2264;" horiz-adv-x="1167" 
d="M119 313h880v-223h-880v223zM119 868l880 279v-225l-571 -160l571 -162v-229l-880 276v221z" />
    <glyph glyph-name="greaterequal" unicode="&#x2265;" horiz-adv-x="1228" 
d="M1061 90h-881v223h881v-223zM1061 647l-881 -276v225l572 160l-572 162v229l881 -279v-221z" />
    <glyph glyph-name="dotmath" unicode="&#x22c5;" horiz-adv-x="557" 
d="M104 621q0 74 55 130t132 56q71 0 117.5 -45.5t46.5 -112.5q0 -81 -55 -135.5t-134 -54.5q-71 0 -116.5 47.5t-45.5 114.5z" />
    <glyph glyph-name="uni24C5" unicode="&#x24c5;" horiz-adv-x="1701" 
d="M121 725q0 154 59.5 294.5t160 242.5t240 162.5t293.5 60.5t294.5 -60.5t242 -162.5t161.5 -242.5t60 -294.5q0 -153 -60 -293.5t-161.5 -242t-242 -162t-294.5 -60.5t-293.5 60.5t-240 162t-160 242t-59.5 293.5zM295 725q0 -165 76 -301.5t209.5 -215.5t293.5 -79
t293.5 79t210 215.5t76.5 301.5t-76.5 302.5t-209.5 216.5t-294 79q-120 0 -227.5 -46.5t-184.5 -126t-122 -190.5t-45 -235zM932 758q65 0 106 35.5t41 97.5q0 86 -100 86h-86l-47 -219h86zM811 600l-59 -283h-191l174 818h297q105 0 173.5 -68t68.5 -164
q0 -126 -89 -214.5t-224 -88.5h-150z" />
    <glyph glyph-name="filledbox" unicode="&#x25a0;" horiz-adv-x="1878" 
d="M238 1452h1452v-1452h-1452v1452z" />
    <glyph glyph-name="H22073" unicode="&#x25a1;" horiz-adv-x="1878" 
d="M238 0v1452h1452v-1452h-1452zM471 227h979v996h-979v-996z" />
    <glyph glyph-name="uni25AF" unicode="&#x25af;" horiz-adv-x="1370" 
d="M238 0v1452h944v-1452h-944zM465 213h489v1030h-489v-1030z" />
    <glyph glyph-name="triagup" unicode="&#x25b2;" horiz-adv-x="1816" 
d="M1651 0h-1717l863 1485z" />
    <glyph glyph-name="uni25B3" unicode="&#x25b3;" horiz-adv-x="1816" 
d="M793 1485l858 -1485h-1717zM338 229h909l-454 787z" />
    <glyph glyph-name="lozenge" unicode="&#x25ca;" horiz-adv-x="1263" 
d="M920 725l-263 457l-264 -457l264 -455zM508 0l-424 725l424 727h297l424 -727l-424 -725h-297z" />
    <glyph glyph-name="circle" unicode="&#x25cb;" horiz-adv-x="1708" 
d="M1638 725q0 -155 -59.5 -295.5t-161 -241.5t-241.5 -161t-295 -60t-295.5 60t-242.5 161t-162 241.5t-60 295.5t60 295.5t162 242.5t242.5 162t295.5 60t295 -60t241.5 -162t161 -242.5t59.5 -295.5zM1401 725q0 107 -41 204.5t-111 168.5t-166 113t-202 42
q-107 0 -204.5 -42t-168 -113t-112.5 -168.5t-42 -204.5t42 -204.5t112.5 -168.5t168 -113t204.5 -42q106 0 202 42t166 113t111 168.5t41 204.5z" />
    <glyph glyph-name="H18533" unicode="&#x25cf;" horiz-adv-x="1708" 
d="M121 725q0 155 60 295.5t161 242.5t241.5 162t295.5 60t295.5 -60t242 -162t161.5 -242.5t60 -295.5t-60 -295.5t-161.5 -241.5t-242 -161t-295.5 -60t-295.5 60t-241.5 161t-161 241.5t-60 295.5z" />
    <glyph glyph-name="uni262E" unicode="&#x262e;" horiz-adv-x="1699" 
d="M1630 725q0 -154 -60 -294.5t-161 -242t-241 -161.5t-294 -60t-293.5 60t-240 161.5t-160 242t-59.5 294.5q0 155 59.5 295.5t160 242.5t240 162t293.5 60t294 -60t241 -162t161 -242.5t60 -295.5zM1399 725q0 192 -118 339.5t-296 184.5v-399l379 -320q35 96 35 195z
M348 725q0 -100 33 -190l375 315v397q-179 -42 -293.5 -187t-114.5 -335zM985 201q147 30 254 137l-254 221v-358zM506 342q103 -106 250 -141v356z" />
    <glyph glyph-name="uni2713" unicode="&#x2713;" horiz-adv-x="1804" 
d="M649 -33l-600 664l170 160l438 -478l1088 1174l168 -166z" />
    <glyph glyph-name="uni2715" unicode="&#x2715;" horiz-adv-x="1802" 
d="M195 154l567 573l-567 567l163 164l566 -567l563 567l164 -164l-561 -567l573 -573l-164 -164l-573 571l-568 -571z" />
    <glyph glyph-name="uni2780" unicode="&#x2780;" horiz-adv-x="1701" 
d="M121 725q0 154 59.5 294.5t160 242.5t240 162.5t293.5 60.5t294.5 -60.5t242 -162.5t161.5 -242.5t60 -294.5q0 -153 -60 -293.5t-161.5 -242t-242 -162t-294.5 -60.5t-293.5 60.5t-240 162t-160 242t-59.5 293.5zM295 725q0 -165 76 -301.5t209.5 -215.5t293.5 -79
t293.5 79t210 215.5t76.5 301.5t-76.5 302.5t-209.5 216.5t-294 79q-120 0 -227.5 -46.5t-184.5 -126t-122 -190.5t-45 -235zM803 352v457h-189v137q90 0 143.5 47t67.5 111h187v-752h-209z" />
    <glyph glyph-name="uni2781" unicode="&#x2781;" horiz-adv-x="1701" 
d="M874 1485q154 0 294.5 -60.5t242 -162.5t161.5 -242.5t60 -294.5q0 -153 -60 -293.5t-161.5 -242t-242 -162t-294.5 -60.5t-293.5 60.5t-240 162t-160 242t-59.5 293.5q0 154 59.5 294.5t160 242.5t240 162.5t293.5 60.5zM295 725q0 -165 76 -301.5t209.5 -215.5
t293.5 -79t293.5 79t210 215.5t76.5 301.5t-76.5 302.5t-209.5 216.5t-294 79q-120 0 -227.5 -46.5t-184.5 -126t-122 -190.5t-45 -235zM877 791q79 46 79 104q0 33 -23 56.5t-67 23.5q-46 0 -72 -25t-28 -67q0 -34 6 -52h-188q-6 27 -6 58q0 109 76.5 181.5t215.5 72.5
q135 0 213 -72t78 -178q0 -71 -40.5 -125.5t-121.5 -103.5l-143 -86q-25 -14 -25 -31h336v-174h-596v24q0 105 42.5 185t140.5 137z" />
    <glyph glyph-name="uni2782" unicode="&#x2782;" horiz-adv-x="1701" 
d="M121 725q0 154 59.5 294.5t160 242.5t240 162.5t293.5 60.5t294.5 -60.5t242 -162.5t161.5 -242.5t60 -294.5q0 -153 -60 -293.5t-161.5 -242t-242 -162t-294.5 -60.5t-293.5 60.5t-240 162t-160 242t-59.5 293.5zM295 725q0 -165 76 -301.5t209.5 -215.5t293.5 -79
t293.5 79t210 215.5t76.5 301.5t-76.5 302.5t-209.5 216.5t-294 79q-120 0 -227.5 -46.5t-184.5 -126t-122 -190.5t-45 -235zM739 606q5 -47 39.5 -77.5t85.5 -30.5q53 0 83 25.5t30 64.5q0 46 -32 69t-79 23q-35 0 -65 -12l-68 139l178 121h-329v170h581v-168l-182 -125
q94 -12 149.5 -69t55.5 -152q0 -107 -87.5 -181.5t-232.5 -74.5q-133 0 -216.5 68.5t-96.5 166.5z" />
    <glyph glyph-name="uni2783" unicode="&#x2783;" horiz-adv-x="1701" 
d="M121 725q0 154 59.5 294.5t160 242.5t240 162.5t293.5 60.5t294.5 -60.5t242 -162.5t161.5 -242.5t60 -294.5q0 -153 -60 -293.5t-161.5 -242t-242 -162t-294.5 -60.5t-293.5 60.5t-240 162t-160 242t-59.5 293.5zM295 725q0 -165 76 -301.5t209.5 -215.5t293.5 -79
t293.5 79t210 215.5t76.5 301.5t-76.5 302.5t-209.5 216.5t-294 79q-120 0 -227.5 -46.5t-184.5 -126t-122 -190.5t-45 -235zM508 700l346 416h223v-444h125v-162h-125v-145h-207v145h-362v190zM870 889l-180 -217h180v217z" />
    <glyph glyph-name="uni2784" unicode="&#x2784;" horiz-adv-x="1701" 
d="M121 725q0 154 59.5 294.5t160 242.5t240 162.5t293.5 60.5t294.5 -60.5t242 -162.5t161.5 -242.5t60 -294.5q0 -153 -60 -293.5t-161.5 -242t-242 -162t-294.5 -60.5t-293.5 60.5t-240 162t-160 242t-59.5 293.5zM295 725q0 -165 76 -301.5t209.5 -215.5t293.5 -79
t293.5 79t210 215.5t76.5 301.5t-76.5 302.5t-209.5 216.5t-294 79q-120 0 -227.5 -46.5t-184.5 -126t-122 -190.5t-45 -235zM731 598q6 -46 41.5 -74t83.5 -28q49 0 79 26t30 72q0 52 -31 78t-84 26q-65 0 -107 -45l-170 52l95 387h454v-170h-331l-31 -129q53 47 145 47
q122 0 193 -64.5t71 -179.5t-83 -192.5t-230 -77.5q-121 0 -208 65t-99 160z" />
    <glyph glyph-name="uni2785" unicode="&#x2785;" horiz-adv-x="1701" 
d="M121 725q0 154 59.5 294.5t160 242.5t240 162.5t293.5 60.5t294.5 -60.5t242 -162.5t161.5 -242.5t60 -294.5q0 -153 -60 -293.5t-161.5 -242t-242 -162t-294.5 -60.5t-293.5 60.5t-240 162t-160 242t-59.5 293.5zM295 725q0 -165 76 -301.5t209.5 -215.5t293.5 -79
t293.5 79t210 215.5t76.5 301.5t-76.5 302.5t-209.5 216.5t-294 79q-120 0 -227.5 -46.5t-184.5 -126t-122 -190.5t-45 -235zM1106 930q-67 24 -133 24q-86 0 -152 -42t-88 -128q65 68 174 68q120 0 193.5 -63t73.5 -181q0 -119 -90.5 -195.5t-229.5 -76.5t-233.5 93
t-94.5 253q0 201 123.5 319.5t311.5 118.5q99 0 184 -33zM743 602q0 -46 32.5 -73t78.5 -27t78.5 27t32.5 73t-32.5 74.5t-78.5 28.5t-78.5 -28.5t-32.5 -74.5z" />
    <glyph glyph-name="uni2786" unicode="&#x2786;" horiz-adv-x="1701" 
d="M121 725q0 154 59.5 294.5t160 242.5t240 162.5t293.5 60.5t294.5 -60.5t242 -162.5t161.5 -242.5t60 -294.5q0 -153 -60 -293.5t-161.5 -242t-242 -162t-294.5 -60.5t-293.5 60.5t-240 162t-160 242t-59.5 293.5zM295 725q0 -165 76 -301.5t209.5 -215.5t293.5 -79
t293.5 79t210 215.5t76.5 301.5t-76.5 302.5t-209.5 216.5t-294 79q-120 0 -227.5 -46.5t-184.5 -126t-122 -190.5t-45 -235zM1186 913q-28 -21 -55.5 -47t-68 -78.5t-72 -112.5t-59 -150t-36.5 -191h-219q18 244 139 432q50 81 121 149h-379v172h629v-174z" />
    <glyph glyph-name="uni2787" unicode="&#x2787;" horiz-adv-x="1701" 
d="M121 725q0 154 59.5 294.5t160 242.5t240 162.5t293.5 60.5t294.5 -60.5t242 -162.5t161.5 -242.5t60 -294.5q0 -153 -60 -293.5t-161.5 -242t-242 -162t-294.5 -60.5t-293.5 60.5t-240 162t-160 242t-59.5 293.5zM295 725q0 -165 76 -301.5t209.5 -215.5t293.5 -79
t293.5 79t210 215.5t76.5 301.5t-76.5 302.5t-209.5 216.5t-294 79q-120 0 -227.5 -46.5t-184.5 -126t-122 -190.5t-45 -235zM874 807q45 0 70 23t25 57q0 29 -25.5 51.5t-69.5 22.5t-68 -22.5t-24 -51.5q0 -34 24.5 -57t67.5 -23zM874 500q57 0 85 25t28 63q0 34 -28.5 58
t-84.5 24q-54 0 -83 -24t-29 -58q0 -38 27.5 -63t84.5 -25zM874 338q-149 0 -233 61.5t-84 163.5q0 61 41.5 109t108.5 69q-60 20 -93.5 66t-33.5 102q0 95 78 154t216 59t217.5 -59.5t79.5 -153.5q0 -56 -33.5 -102t-93.5 -66q65 -21 107.5 -68.5t42.5 -105.5
q0 -105 -84 -167t-236 -62z" />
    <glyph glyph-name="uni2788" unicode="&#x2788;" horiz-adv-x="1701" 
d="M121 725q0 154 59.5 294.5t160 242.5t240 162.5t293.5 60.5t294.5 -60.5t242 -162.5t161.5 -242.5t60 -294.5q0 -153 -60 -293.5t-161.5 -242t-242 -162t-294.5 -60.5t-293.5 60.5t-240 162t-160 242t-59.5 293.5zM295 725q0 -165 76 -301.5t209.5 -215.5t293.5 -79
t293.5 79t210 215.5t76.5 301.5t-76.5 302.5t-209.5 216.5t-294 79q-120 0 -227.5 -46.5t-184.5 -126t-122 -190.5t-45 -235zM639 528q56 -24 133 -24q90 0 155.5 40.5t84.5 127.5q-66 -66 -178 -66q-110 0 -189.5 66t-79.5 178q0 122 87.5 197t232.5 75q140 0 232.5 -93.5
t92.5 -254.5q0 -204 -118.5 -322t-303.5 -118q-99 0 -184 33zM989 854q0 46 -31 74t-79 28q-46 0 -77.5 -28t-31.5 -74t31.5 -74t77.5 -28q48 0 79 28t31 74z" />
    <glyph glyph-name="uniE000" unicode="&#xe000;" horiz-adv-x="1462" 
d="M33 496h344v956h1157v-235h-922v-721h338l-461 -527z" />
    <glyph glyph-name="uniE002" unicode="&#xe002;" horiz-adv-x="2000" 
d="M1534 1239l440 -514h-309q0 -155 -60 -295.5t-161 -241.5t-241.5 -161t-295.5 -60q-154 0 -294 60t-241.5 161t-161.5 241.5t-60 295.5t60 295.5t161.5 242.5t241.5 162t294 60q174 0 324 -72l-94 -217q-109 53 -228 53q-143 0 -263.5 -70t-190.5 -191t-70 -263
q0 -106 41.5 -203t111 -168t167 -113t204.5 -42q106 0 202 42t165 113t110 168t41 203h-331z" />
    <glyph glyph-name="commaaccent" unicode="&#xf6c3;" horiz-adv-x="387" 
d="M-27 1206q6 -2 31 -2q115 0 154 80q-24 -8 -45 -8q-59 0 -92 33t-33 80q0 60 44.5 100.5t110.5 40.5q71 0 111.5 -41.5t40.5 -110.5q0 -125 -83.5 -199.5t-205.5 -74.5q-17 0 -53 4z" />
    <glyph glyph-name="uniFB00" unicode="&#xfb00;" horiz-adv-x="1404" 
d="M100 0l164 776h-170l49 232h172l31 151q20 93 60 161t94.5 105.5t114 54.5t128.5 17q50 0 96.5 -11t69.5 -24l-47 -223l-9 4q-9 4 -31 9t-48 5q-130 0 -162 -127l-24 -122h377l30 151q20 94 60 161.5t94.5 105t115 54.5t130.5 17q50 0 95.5 -10.5t68.5 -24.5l-48 -223
l-9 4q-9 4 -31 9t-48 5q-129 0 -161 -127l-25 -122h215l-51 -232h-213l-164 -776h-274l163 776h-374l-164 -776h-275z" />
    <glyph glyph-name="fi" unicode="&#xfb01;" horiz-adv-x="1298" 
d="M375 0h-275l164 776h-170l49 232h172l35 163q39 173 143.5 249.5t249.5 76.5q50 0 96.5 -11t69.5 -24l-47 -223l-10 4q-10 4 -33 9t-49 5q-127 0 -160 -139l-22 -110h657l-215 -1008h-270l166 776h-387zM1028 1311q0 67 48 114.5t116 47.5q59 0 97 -38t38 -94
q0 -69 -50 -115t-116 -46q-58 0 -95.5 37.5t-37.5 93.5z" />
    <glyph glyph-name="fl" unicode="&#xfb02;" horiz-adv-x="1294" 
d="M375 0h-275l164 776h-170l49 232h172l35 163q39 173 143.5 249.5t249.5 76.5q50 0 96.5 -11t69.5 -24l-47 -223l-10 4q-10 4 -33 9t-49 5q-127 0 -160 -139l-22 -110h385l100 475h273l-316 -1483h-270l164 776h-385z" />
    <glyph glyph-name="uniFB03" unicode="&#xfb03;" horiz-adv-x="1939" 
d="M100 0l164 776h-170l49 232h172l31 151q20 93 60 161t94.5 105.5t114 54.5t128.5 17q50 0 96.5 -11t69.5 -24l-47 -223l-9 4q-9 4 -31 9t-48 5q-130 0 -162 -127l-24 -122h377l30 151q20 94 60 161.5t94.5 105t115 54.5t130.5 17q50 0 95.5 -10.5t68.5 -24.5l-48 -223
l-9 4q-9 4 -31 9t-48 5q-129 0 -161 -127l-25 -122h649l-215 -1008h-270l166 776h-379l-164 -776h-274l163 776h-374l-164 -776h-275zM1669 1311q0 67 48 114.5t116 47.5q59 0 97 -38t38 -94q0 -69 -50 -115t-116 -46q-58 0 -95.5 37.5t-37.5 93.5z" />
    <glyph glyph-name="uniFB04" unicode="&#xfb04;" horiz-adv-x="1949" 
d="M100 0l164 776h-170l49 232h172l31 151q20 93 60 161t94.5 105.5t114 54.5t128.5 17q50 0 96.5 -11t69.5 -24l-47 -223l-9 4q-9 4 -31 9t-48 5q-130 0 -162 -127l-24 -122h377l30 151q20 94 60 161.5t94.5 105t115 54.5t130.5 17q50 0 95.5 -10.5t68.5 -24.5l-48 -223
l-9 4q-9 4 -31 9t-48 5q-129 0 -161 -127l-25 -122h391l101 475h272l-315 -1483h-271l164 776h-391l-164 -776h-274l163 776h-374l-164 -776h-275z" />
    <glyph glyph-name="uniFEFF" unicode="&#xfeff;" horiz-adv-x="0" 
 />
    <glyph glyph-name="i.latn_TRK" horiz-adv-x="544" 
d="M258 1327q0 75 54.5 128.5t129.5 53.5q67 0 109.5 -42.5t42.5 -104.5q0 -77 -56 -129.5t-130 -52.5q-66 0 -108 42t-42 105zM8 0l215 1008h271l-215 -1008h-271z" />
    <glyph glyph-name="Ldot.latn_CAT" horiz-adv-x="1132" 
d="M43 0l307 1452h283l-250 -1182h631l-58 -270h-913zM662 788q0 68 54.5 122.5t127.5 54.5q65 0 107 -41.5t42 -102.5q0 -76 -53 -129t-127 -53q-66 0 -108.5 43t-42.5 106z" />
    <glyph glyph-name="ldot.latn_CAT" horiz-adv-x="811" 
d="M524 659q0 71 52.5 126t128.5 55q65 0 106 -41.5t41 -102.5q0 -77 -52.5 -130.5t-125.5 -53.5q-65 0 -107.5 43t-42.5 104zM8 0l314 1483h272l-315 -1483h-271z" />
    <glyph glyph-name="zero.numr" horiz-adv-x="813" 
d="M131 858q0 65 13 130.5t43.5 130.5t74 115t110.5 81t148 31q152 0 230.5 -84t78.5 -213q0 -87 -22.5 -170.5t-67.5 -156.5t-122 -118t-175 -45q-141 0 -226 80t-85 219zM336 862q0 -55 26 -91t87 -36q45 0 80.5 31t55.5 80t30 100.5t10 100.5q0 124 -113 124
q-46 0 -82 -34t-55.5 -85t-29 -100.5t-9.5 -89.5z" />
    <glyph glyph-name="one.numr" horiz-adv-x="518" 
d="M215 578l100 466h-182l29 136q87 1 150.5 44.5t88.5 104.5h183l-160 -751h-209z" />
    <glyph glyph-name="two.numr" horiz-adv-x="729" 
d="M459 993q96 41 96 105q0 32 -19.5 56t-62.5 24q-55 0 -83 -34t-28 -95l-188 12q0 123 83.5 202.5t221.5 79.5q136 0 210.5 -65.5t74.5 -163.5q0 -173 -217 -264l-156 -66q-32 -16 -37 -34h330l-37 -175h-575q9 255 254 361z" />
    <glyph glyph-name="three.numr" horiz-adv-x="741" 
d="M313 1044l222 115h-338l36 170h574l-39 -194l-209 -109q72 -14 116 -67.5t44 -131.5q0 -107 -92.5 -187.5t-231.5 -80.5q-132 0 -214.5 73t-82.5 175q0 21 2 35l191 10q-2 -6 -2 -16q0 -45 29 -76t81 -31q53 0 83 28.5t30 76.5q0 39 -28 61.5t-68 22.5q-28 0 -49 -9z" />
    <glyph glyph-name="four.numr" horiz-adv-x="782" 
d="M121 938l416 391h227l-94 -444h125l-35 -160h-125q-21 -91 -31 -150h-207l33 150h-352zM514 1112l-240 -227h189z" />
    <glyph glyph-name="five.numr" horiz-adv-x="712" 
d="M283 838q0 -52 32.5 -77.5t73.5 -25.5q45 0 78 29.5t33 81.5q0 41 -28.5 65.5t-68.5 24.5q-47 0 -92 -35l-161 78l155 350h455l-35 -170h-315l-50 -112q45 26 107 26q110 0 174 -58t64 -157q0 -126 -90 -210.5t-230 -84.5q-126 0 -208.5 69.5t-82.5 186.5z" />
    <glyph glyph-name="six.numr" horiz-adv-x="761" 
d="M758 1137q-80 37 -158 37q-75 0 -140 -37.5t-95 -104.5q57 45 147 45q111 0 173.5 -60.5t62.5 -160.5q0 -132 -94.5 -215.5t-229.5 -83.5q-128 0 -211.5 84.5t-83.5 226.5q0 139 65 248t172.5 167t235.5 58q137 0 223 -51zM451 928q-45 0 -80 -30t-35 -79q0 -42 27 -68
t69 -26q46 0 79.5 31t33.5 84q0 39 -26 63.5t-68 24.5z" />
    <glyph glyph-name="seven.numr" horiz-adv-x="698" 
d="M778 1159q-37 -25 -71.5 -53t-87.5 -82t-96.5 -114t-89 -148.5t-75.5 -186.5h-217q25 100 73.5 196t96.5 159.5t101 118.5t80 77.5t40 30.5h-374l35 172h622z" />
    <glyph glyph-name="eight.numr" horiz-adv-x="745" 
d="M389 1100q0 -30 21.5 -50t56.5 -20q42 0 70 24t28 62q0 27 -20.5 47.5t-61.5 20.5q-45 0 -69.5 -24.5t-24.5 -59.5zM307 795q0 -36 28 -57t71 -21q52 0 83 27t31 67q0 33 -25 55.5t-75 22.5q-51 0 -82 -28t-31 -66zM406 557q-149 0 -227.5 58.5t-78.5 154.5
q0 73 53.5 127.5t139.5 71.5q-43 19 -70.5 60.5t-27.5 86.5q0 98 82 162.5t215 64.5q132 0 205 -56.5t73 -145.5q0 -63 -45 -113.5t-121 -73.5q50 -17 83.5 -61t33.5 -94q0 -106 -89.5 -174t-225.5 -68z" />
    <glyph glyph-name="nine.numr" horiz-adv-x="759" 
d="M154 768q67 -41 168 -41q71 0 136.5 39t88.5 108q-52 -49 -141 -49q-111 0 -177.5 60.5t-66.5 158.5q0 131 93.5 214t227.5 83q129 0 212 -82.5t83 -222.5q0 -217 -131 -348t-330 -131q-138 0 -233 59zM457 969q46 0 79 32t33 82q0 41 -26.5 67t-65.5 26q-46 0 -79 -32.5
t-33 -84.5q0 -39 25.5 -64.5t66.5 -25.5z" />
    <glyph glyph-name="zero.dnom" horiz-adv-x="815" 
d="M8 281q0 65 13 130.5t43.5 130.5t74 114.5t110.5 80.5t148 31q152 0 231 -84.5t79 -212.5q0 -68 -13.5 -135.5t-44.5 -132t-75 -113t-110 -78.5t-145 -30q-141 0 -226 80t-85 219zM213 285q0 -55 26 -91t87 -36q45 0 80.5 31t55.5 79.5t30 100t10 100.5q0 125 -113 125
q-46 0 -82 -34t-55.5 -85t-29 -100.5t-9.5 -89.5z" />
    <glyph glyph-name="one.dnom" horiz-adv-x="520" 
d="M92 0l101 467h-183l29 135q87 1 151 45t89 105h182l-160 -752h-209z" />
    <glyph glyph-name="two.dnom" horiz-adv-x="733" 
d="M338 418q96 41 96 104q0 32 -19.5 56t-62.5 24q-54 0 -82 -34t-28 -95l-189 12q0 123 83.5 203t221.5 80q136 0 210.5 -65.5t74.5 -163.5q0 -174 -217 -265l-156 -65q-32 -16 -37 -35h330l-37 -174h-575q9 254 254 360z" />
    <glyph glyph-name="three.dnom" horiz-adv-x="745" 
d="M193 469l221 115h-338l37 170h573l-39 -195l-209 -108q72 -14 116 -67.5t44 -131.5q0 -107 -92.5 -187.5t-231.5 -80.5q-132 0 -214.5 72.5t-82.5 174.5q0 14 3 35l190 10q-2 -6 -2 -16q0 -45 29.5 -75.5t81.5 -30.5q53 0 82.5 28t29.5 76q0 39 -28 61.5t-68 22.5
q-30 0 -49 -8z" />
    <glyph glyph-name="four.dnom" horiz-adv-x="784" 
d="M-2 362l416 392h227l-94 -445h125l-35 -159h-125q-21 -91 -31 -150h-207l33 150h-352zM391 537l-239 -228h188z" />
    <glyph glyph-name="five.dnom" horiz-adv-x="716" 
d="M160 260q0 -52 32 -77t74 -25q45 0 78 29t33 81q0 41 -28 65.5t-68 24.5q-50 0 -93 -34l-161 77l155 351h455l-35 -170h-315l-49 -113q47 27 106 27q110 0 174 -58t64 -157q0 -126 -90 -210.5t-230 -84.5q-126 0 -208.5 69.5t-82.5 186.5z" />
    </font>
</defs>
</svg>
