<?xml version="1.0" standalone="no"?>
<!DOCTYPE svg PUBLIC "-//W3C//DTD SVG 1.1//EN" "http://www.w3.org/Graphics/SVG/1.1/DTD/svg11.dtd" >
<svg xmlns="http://www.w3.org/2000/svg" xmlns:xlink="http://www.w3.org/1999/xlink" version="1.1">
<metadata>
Created by FontForge 20170731 at Thu Sep 29 05:36:12 2022
 By Aleksey,,,
(c) 2019, Copyright by Lineto. All rights reserved.
</metadata>
<defs>
<font id="SVN-Circular-BookItalic" horiz-adv-x="1173" >
  <font-face 
    font-family="SVN-Circular Book"
    font-weight="450"
    font-style="italic"
    font-stretch="normal"
    units-per-em="2048"
    panose-1="2 1 5 4 1 1 1 1 1 4"
    ascent="1638"
    descent="-410"
    x-height="985"
    cap-height="1452"
    bbox="-532 -477 3277 2169"
    underline-thickness="102"
    underline-position="-307"
    slope="-12"
    unicode-range="U+000D-FEFF"
  />
<missing-glyph horiz-adv-x="512" 
 />
    <glyph glyph-name="f_f" unicode="ff" horiz-adv-x="1282" 
d="M717 1317q-67 0 -110 -35.5t-62 -122.5l-37 -174h387l43 205q60 303 352 303q36 0 67.5 -6.5t45.5 -12.5t18 -10l-37 -164l-6 2q-5 3 -11.5 5t-16 4.5t-22 4t-25.5 1.5q-67 0 -110.5 -35.5t-62.5 -122.5l-36 -174h223l-37 -170h-223l-172 -815h-199l172 815h-387
l-172 -815h-199l172 815h-166l37 170h166l43 205q60 303 353 303q36 0 67.5 -6.5t45.5 -12.5t18 -10l-37 -164q-51 17 -82 17z" />
    <glyph glyph-name="f_f_i" unicode="ffi" horiz-adv-x="1779" 
d="M717 1317q-67 0 -110 -35.5t-62 -122.5l-37 -174h387l43 205q60 303 352 303q36 0 67.5 -6.5t45.5 -12.5t18 -10l-37 -164l-6 2q-5 3 -11.5 5t-16 4.5t-22 4t-25.5 1.5q-67 0 -110.5 -35.5t-62.5 -122.5l-36 -174h614l-211 -985h-192l174 815h-422l-172 -815h-199
l172 815h-387l-172 -815h-199l172 815h-166l37 170h166l43 205q60 303 353 303q36 0 67.5 -6.5t45.5 -12.5t18 -10l-37 -164q-51 17 -82 17zM1552 1266q0 58 41.5 96.5t94.5 38.5q47 0 77.5 -31t30.5 -76q0 -54 -41.5 -94.5t-93.5 -40.5q-46 0 -77.5 31.5t-31.5 75.5z" />
    <glyph glyph-name="f_f_l" unicode="ffl" horiz-adv-x="1792" 
d="M717 1317q-67 0 -110 -35.5t-62 -122.5l-37 -174h387l43 205q60 303 352 303q36 0 67.5 -6.5t45.5 -12.5t18 -10l-37 -164l-6 2q-5 3 -11.5 5t-16 4.5t-22 4t-25.5 1.5q-67 0 -110.5 -35.5t-62.5 -122.5l-36 -174h434l106 498h193l-316 -1483h-192l174 815h-436
l-172 -815h-199l172 815h-387l-172 -815h-199l172 815h-166l37 170h166l43 205q60 303 353 303q36 0 67.5 -6.5t45.5 -12.5t18 -10l-37 -164q-51 17 -82 17z" />
    <glyph glyph-name="f_i" unicode="fi" horiz-adv-x="1208" 
d="M717 1317q-67 0 -110 -35.5t-62 -122.5l-37 -174h629l-211 -985h-193l174 815h-436l-172 -815h-199l172 815h-166l37 170h166l43 205q60 303 353 303q36 0 67.5 -6.5t45.5 -12.5t18 -10l-37 -164q-51 17 -82 17zM981 1266q0 58 41 96.5t94 38.5q47 0 78 -31t31 -76
q0 -54 -41.5 -94.5t-93.5 -40.5q-46 0 -77.5 31.5t-31.5 75.5z" />
    <glyph glyph-name="f_l" unicode="fl" horiz-adv-x="1208" 
d="M717 1317q-67 0 -110 -35.5t-62 -122.5l-37 -174h436l107 498h192l-315 -1483h-193l172 815h-436l-172 -815h-199l172 815h-166l37 170h166l43 205q60 303 353 303q36 0 67.5 -6.5t45.5 -12.5t18 -10l-37 -164q-51 17 -82 17z" />
    <glyph glyph-name=".notdef" horiz-adv-x="512" 
 />
    <glyph glyph-name=".null" horiz-adv-x="0" 
 />
    <glyph glyph-name="nonmarkingreturn" horiz-adv-x="682" 
 />
    <glyph glyph-name="NULL" horiz-adv-x="0" 
 />
    <glyph glyph-name="NULL" horiz-adv-x="0" 
 />
    <glyph glyph-name="CR" unicode="&#xd;" horiz-adv-x="514" 
 />
    <glyph glyph-name="space" unicode=" " horiz-adv-x="514" 
 />
    <glyph glyph-name="exclam" unicode="!" horiz-adv-x="518" 
d="M313 1452h246l-270 -1036h-137zM29 109q0 61 42.5 105t104.5 44q55 0 89 -33.5t34 -85.5q0 -62 -43.5 -105.5t-101.5 -43.5q-55 0 -90 34t-35 85z" />
    <glyph glyph-name="quotedbl" unicode="&#x22;" horiz-adv-x="819" 
d="M236 805v405q0 59 36 99.5t99 40.5q53 0 83.5 -30.5t30.5 -78.5q0 -33 -14 -65l-164 -371h-71zM590 805v405q0 59 36 99.5t99 40.5q53 0 84 -30.5t31 -78.5q0 -30 -15 -65l-163 -371h-72z" />
    <glyph glyph-name="numbersign" unicode="#" horiz-adv-x="1427" 
d="M176 985h295l74 342h172l-74 -342h291l74 342h172l-74 -342h276v-156h-309l-69 -327h278v-156h-313l-74 -346h-172l74 346h-291l-74 -346h-172l74 346h-258v156h293l69 327h-262v156zM541 502h290l70 327h-291z" />
    <glyph glyph-name="dollar" unicode="$" horiz-adv-x="1105" 
d="M365 -12q-86 19 -152 64.5t-104.5 106t-58 126t-19.5 131.5v26l182 31q-2 -14 -2 -35q0 -98 47 -175.5t141 -108.5l97 446l-47 25q-116 59 -177 140.5t-61 199.5q0 165 127.5 279t316.5 114l45 211h156l-49 -232q75 -21 133 -63t90 -92.5t48 -101.5t16 -99l-174 -35
q0 24 -6 51t-20.5 61t-46.5 64t-77 47l-94 -452l31 -15q129 -67 193.5 -151t64.5 -193q0 -159 -127 -274t-322 -115l-43 -209h-156zM397 987q0 -125 138 -196l86 401q-98 -6 -161 -63t-63 -142zM772 348q0 104 -137 180l-82 -389q102 11 160.5 65.5t58.5 143.5z" />
    <glyph glyph-name="percent" unicode="%" horiz-adv-x="1636" 
d="M467 864q71 0 122.5 52t51.5 135q0 62 -38.5 99.5t-104.5 37.5q-68 0 -119 -52t-51 -130q0 -63 37 -102.5t102 -39.5zM451 705q-128 0 -210.5 82.5t-82.5 205.5q0 144 105.5 250.5t252.5 106.5q126 0 210.5 -85t84.5 -208q0 -98 -52.5 -180t-135 -127t-172.5 -45z
M1165 152q71 0 122.5 51.5t51.5 134.5q0 62 -38.5 99.5t-104.5 37.5q-68 0 -119 -52t-51 -130q0 -63 37 -102t102 -39zM1149 -8q-128 0 -210.5 83t-82.5 206q0 144 105.5 250t252.5 106q126 0 210.5 -84.5t84.5 -208.5q0 -98 -52.5 -180t-135 -127t-172.5 -45zM303 0h-199
l1242 1327h194z" />
    <glyph glyph-name="ampersand" unicode="&#x26;" horiz-adv-x="1402" 
d="M1001 0l-127 180l-18 -16q-104 -91 -199 -134.5t-213 -43.5q-169 0 -279 102.5t-110 257.5q0 79 26 146.5t76 121t106 94.5t134 83l35 18l-33 49q-28 43 -45.5 74t-34 82.5t-16.5 99.5q0 90 35 162.5t92.5 116.5t127 67t142.5 23q160 0 256.5 -90.5t96.5 -223.5
q0 -69 -24 -127t-69 -102.5t-88 -74.5t-102 -62l-70 -39l220 -315l423 366l-59 -278l-264 -230l215 -307h-234zM260 362q0 -87 55.5 -140.5t151.5 -53.5q129 0 297 145l10 9l-244 348l-92 -52q-94 -52 -136 -111.5t-42 -144.5zM680 942q98 52 136 105t38 118q0 66 -46.5 106
t-117.5 40q-41 0 -82 -17.5t-73.5 -62.5t-32.5 -109q0 -74 53 -151l49 -70z" />
    <glyph glyph-name="quotesingle" unicode="'" horiz-adv-x="464" 
d="M236 805v405q0 59 36 99.5t99 40.5q53 0 83.5 -30.5t30.5 -78.5q0 -33 -14 -65l-164 -371h-71z" />
    <glyph glyph-name="parenleft" unicode="(" horiz-adv-x="643" 
d="M88 412q0 360 160 675.5t461 524.5l92 -125q-118 -86 -214.5 -193.5t-172 -239.5t-117 -293.5t-41.5 -338.5q0 -333 182 -645l-137 -76q-213 326 -213 711z" />
    <glyph glyph-name="parenright" unicode=")" horiz-adv-x="641" 
d="M575 885q0 -359 -161 -668t-459 -526l-92 123q119 87 214.5 193t171.5 238t117.5 294.5t41.5 341.5q0 335 -181 645l135 76q213 -336 213 -717z" />
    <glyph glyph-name="asterisk" unicode="*" horiz-adv-x="937" 
d="M668 1178l266 86l18 -148l-270 -88l127 -211l-133 -94l-129 223l-207 -221l-115 94l211 217l-237 84l71 144l234 -88l43 276h174z" />
    <glyph glyph-name="plus" unicode="+" horiz-adv-x="1097" 
d="M629 104h-168v404h-383v162h383v399h168v-399h385v-162h-385v-404z" />
    <glyph glyph-name="comma" unicode="," horiz-adv-x="550" 
d="M23 113q0 66 47 110.5t116 44.5q68 0 112 -44.5t44 -123.5q0 -105 -52 -201.5t-145.5 -159t-205.5 -67.5l22 111q85 17 152 77t84 136q-13 -8 -47 -8q-56 0 -91.5 33.5t-35.5 91.5z" />
    <glyph glyph-name="hyphen" unicode="-" horiz-adv-x="835" 
d="M119 504l35 168h555l-35 -168h-555z" />
    <glyph glyph-name="period" unicode="." horiz-adv-x="514" 
d="M154 -10q-59 0 -96.5 36.5t-37.5 88.5q0 65 46.5 112t113.5 47q59 0 95 -36t36 -91q0 -66 -46.5 -111.5t-110.5 -45.5z" />
    <glyph glyph-name="slash" unicode="/" horiz-adv-x="1046" 
d="M117 -31h-197l1059 1514h199z" />
    <glyph glyph-name="zero" unicode="0" horiz-adv-x="1271" 
d="M307 489q0 -157 67.5 -247t207.5 -90q87 0 158.5 48t117.5 122.5t77.5 169.5t44.5 185t13 173q0 157 -64 241.5t-210 84.5q-73 0 -136 -32.5t-106.5 -88.5t-77.5 -125.5t-53.5 -148t-29 -151.5t-9.5 -141zM567 -31q-119 0 -209.5 43t-143.5 117.5t-79 165.5t-26 197
q0 119 23.5 239t74 233t122 200.5t176.5 140.5t228 53q98 0 176.5 -28t130.5 -76t87 -114.5t50 -140t15 -155.5q0 -126 -25 -250t-77.5 -237t-125 -199.5t-175.5 -137.5t-222 -51z" />
    <glyph glyph-name="one" unicode="1" horiz-adv-x="688" 
d="M213 0l205 958h-291l27 129q124 11 219.5 73.5t142.5 166.5h176l-280 -1327h-199z" />
    <glyph glyph-name="two" unicode="2" horiz-adv-x="1155" 
d="M-10 39q27 174 133.5 313.5t288.5 225.5l247 118q126 59 185 125.5t59 161.5q0 86 -58 144.5t-167 58.5q-131 0 -210 -86t-79 -238v-20l-194 18v17q0 98 34 185t95.5 153t155 104.5t206.5 38.5q206 0 313 -100t107 -261q0 -293 -340 -454l-295 -140q-166 -81 -217 -217
h725l-39 -186h-956z" />
    <glyph glyph-name="three" unicode="3" horiz-adv-x="1159" 
d="M416 825l473 320h-647l37 182h895l-48 -231l-446 -299q134 -13 227.5 -108.5t93.5 -248.5q0 -92 -35.5 -177t-98.5 -150.5t-158.5 -104.5t-208.5 -39q-108 0 -197 35t-144.5 93.5t-85.5 131.5t-30 152q0 44 4 59l197 23q-4 -12 -4 -55q0 -68 27 -126.5t87 -97.5t142 -39
q130 0 214.5 78t84.5 203q0 59 -21.5 103.5t-57.5 69t-76.5 36.5t-84.5 12q-27 0 -63 -8z" />
    <glyph glyph-name="four" unicode="4" horiz-adv-x="1222" 
d="M53 537l760 790h260l-184 -842h248l-39 -186h-248l-57 -299h-195l57 299h-651zM831 1110l-598 -625h461z" />
    <glyph glyph-name="five" unicode="5" horiz-adv-x="1128" 
d="M33 391q0 13 2 21l194 37q-2 -6 -2 -33q0 -53 15 -100t45 -86t81.5 -62t118.5 -23q123 0 209 81.5t86 224.5q0 110 -65.5 174.5t-177.5 64.5q-128 0 -215 -74l-181 115l285 596h711l-39 -184h-565l-162 -334q86 51 205 51q183 0 296 -103t113 -284q0 -137 -63.5 -252
t-180 -183.5t-260.5 -68.5q-196 0 -323 118.5t-127 303.5z" />
    <glyph glyph-name="six" unicode="6" horiz-adv-x="1200" 
d="M1124 1135q-107 49 -235 49q-205 0 -345.5 -114.5t-195.5 -311.5q51 54 131 87.5t180 33.5q190 0 303 -108t113 -284q0 -119 -44 -218.5t-118 -164t-168 -100t-196 -35.5q-90 0 -171 32.5t-143.5 93t-99.5 156t-37 212.5q0 139 34 270.5t101.5 244.5t160.5 198t220 133.5
t271 48.5q205 0 313 -66zM610 707q-131 0 -217 -86t-86 -218q0 -113 73.5 -185.5t184.5 -72.5q123 0 213 84.5t90 229.5q0 116 -68.5 182t-189.5 66z" />
    <glyph glyph-name="seven" unicode="7" horiz-adv-x="1073" 
d="M1139 1135q-43 -30 -79 -57t-104.5 -86.5t-126.5 -121t-132.5 -156.5t-135 -196t-120.5 -236.5t-103 -281.5h-209q130 507 473 874q142 155 318 269h-748l39 184h969z" />
    <glyph glyph-name="eight" unicode="8" horiz-adv-x="1169" 
d="M637 758q119 0 197.5 67t78.5 176q0 82 -57.5 137.5t-157.5 55.5q-133 0 -208.5 -67.5t-75.5 -178.5q0 -79 60.5 -134.5t162.5 -55.5zM258 342q0 -96 70 -151.5t188 -55.5q125 0 210 68.5t85 181.5q0 93 -64 152t-186 59q-132 0 -217.5 -69.5t-85.5 -184.5zM1012 383
q0 -187 -145.5 -300.5t-366.5 -113.5q-216 0 -330.5 102.5t-114.5 256.5q0 130 86.5 226.5t243.5 131.5q-66 25 -117 102t-51 160q0 184 138.5 297t340.5 113q195 0 305.5 -95t110.5 -237q0 -126 -79 -222t-220 -132q95 -32 147 -110t52 -179z" />
    <glyph glyph-name="nine" unicode="9" horiz-adv-x="1206" 
d="M365 879q0 -113 68.5 -180.5t184.5 -67.5q130 0 211.5 84.5t81.5 214.5q0 114 -71 183t-178 69q-119 0 -208 -81t-89 -222zM104 233q116 -83 287 -83q207 0 342 126t156 328q-100 -145 -318 -145q-172 0 -291.5 109.5t-119.5 289.5q0 114 43 209.5t115.5 158.5
t165.5 97.5t194 34.5q96 0 177 -30t142.5 -89.5t96 -154.5t34.5 -218q0 -192 -47.5 -354.5t-138.5 -284t-232 -190t-319 -68.5q-104 0 -204.5 28t-163.5 81z" />
    <glyph glyph-name="colon" unicode=":" horiz-adv-x="573" 
d="M172 -10q-59 0 -96 36.5t-37 88.5q0 65 46.5 112t113.5 47q59 0 95 -36t36 -91q0 -66 -47 -111.5t-111 -45.5zM332 711q-59 0 -96 36.5t-37 88.5q0 65 46 112t113 47q59 0 95 -36t36 -91q0 -66 -46.5 -111.5t-110.5 -45.5z" />
    <glyph glyph-name="semicolon" unicode=";" horiz-adv-x="573" 
d="M25 113q0 63 44.5 106t110.5 43q65 0 107.5 -43t42.5 -119q0 -101 -49 -193t-139 -152.5t-199 -65.5l22 106q82 17 145 74.5t80 130.5q-13 -8 -45 -8q-52 0 -86 32.5t-34 88.5zM332 711q-59 0 -96 36.5t-37 88.5q0 65 46 112t113 47q59 0 95 -36t36 -91
q0 -66 -46.5 -111.5t-110.5 -45.5z" />
    <glyph glyph-name="less" unicode="&#x3c;" horiz-adv-x="1087" 
d="M76 674l844 422v-195l-635 -313l635 -314v-194l-844 420v174z" />
    <glyph glyph-name="equal" unicode="=" horiz-adv-x="1343" 
d="M190 866h949v-157h-949v157zM190 471h949v-162h-949v162z" />
    <glyph glyph-name="greater" unicode="&#x3e;" horiz-adv-x="1091" 
d="M1006 500l-844 -420v194l639 314l-639 313v195l844 -422v-174z" />
    <glyph glyph-name="question" unicode="?" horiz-adv-x="1052" 
d="M367 416q22 263 245 391l105 61q160 95 160 240q0 81 -57.5 138t-162.5 57q-74 0 -131.5 -26.5t-92.5 -72.5t-53 -102.5t-18 -120.5l-194 27q8 212 146.5 343.5t363.5 131.5q189 0 297 -99t108 -245q0 -266 -288 -424l-111 -64q-64 -37 -100 -100t-41 -135h-176zM287 109
q0 61 42.5 105t104.5 44q55 0 89 -33.5t34 -85.5q0 -62 -43.5 -105.5t-101.5 -43.5q-55 0 -90 34t-35 85z" />
    <glyph glyph-name="at" unicode="@" horiz-adv-x="1720" 
d="M954 -96q-238 0 -424.5 97t-290.5 274.5t-104 406.5q0 117 29 224t81 195t125.5 159.5t161.5 120.5t189.5 75.5t208.5 26.5q205 0 373 -87t264 -240.5t96 -342.5q0 -112 -31 -211.5t-83.5 -169.5t-124 -110.5t-150.5 -40.5q-75 0 -129 31.5t-72 95.5q-46 -64 -112 -98
t-134 -34q-140 0 -226.5 96t-86.5 255q0 203 121 340t289 137q70 0 133 -31.5t86 -93.5l18 98h162l-111 -514q-6 -30 -6 -57q0 -84 78 -84q86 0 153.5 118t67.5 271q0 227 -158.5 374.5t-414.5 147.5q-179 0 -322 -81t-225 -230.5t-82 -341.5q0 -135 44.5 -250t126.5 -198.5
t205.5 -131t274.5 -47.5q239 0 420 144l84 -111q-88 -84 -228 -133t-276 -49zM1098 758q0 93 -44 142.5t-128 49.5q-110 0 -177 -94t-67 -221q0 -96 42.5 -152.5t131.5 -56.5q105 0 173.5 94t68.5 238z" />
    <glyph glyph-name="A" unicode="A" horiz-adv-x="1406" 
d="M979 406h-608l-236 -406h-227l866 1452h221l252 -1452h-203zM479 592h469l-102 631z" />
    <glyph glyph-name="B" unicode="B" horiz-adv-x="1253" 
d="M813 1452q180 0 278.5 -92.5t98.5 -239.5q0 -133 -80 -241t-211 -144q95 -30 153 -108.5t58 -184.5q0 -190 -140 -316t-356 -126h-546l307 1452h438zM676 817q139 0 225 77t86 196q0 88 -57 137t-166 49h-225l-99 -459h236zM586 176q137 0 227 78.5t90 196.5
q0 91 -56.5 142.5t-176.5 51.5h-267l-98 -469h281z" />
    <glyph glyph-name="C" unicode="C" horiz-adv-x="1497" 
d="M909 1483q125 0 229.5 -36t176 -99.5t117.5 -146t65 -179.5l-190 -55q-31 147 -139 239t-279 92q-129 0 -236.5 -56t-176.5 -150t-106.5 -213.5t-37.5 -249.5q0 -223 113.5 -350t314.5 -127q156 0 276 82.5t191 244.5l176 -71q-93 -208 -262.5 -323.5t-399.5 -115.5
q-269 0 -441.5 180.5t-172.5 466.5q0 165 44 307t119.5 243.5t176 174t213 107.5t229.5 35z" />
    <glyph glyph-name="D" unicode="D" horiz-adv-x="1445" 
d="M602 178q83 0 164.5 27t156 83.5t131 136t90.5 192t34 243.5q0 198 -121.5 306t-323.5 108h-194l-234 -1096h297zM68 0l307 1452h395q278 0 443 -158t165 -422q0 -165 -43.5 -307.5t-118.5 -245t-174.5 -175.5t-211 -108.5t-228.5 -35.5h-534z" />
    <glyph glyph-name="E" unicode="E" horiz-adv-x="1177" 
d="M68 0l307 1452h872l-39 -186h-671l-95 -447h609l-41 -188h-609l-94 -445h672l-39 -186h-872z" />
    <glyph glyph-name="F" unicode="F" horiz-adv-x="1167" 
d="M68 0l307 1452h872l-39 -186h-671l-101 -467h608l-38 -189h-609l-129 -610h-200z" />
    <glyph glyph-name="G" unicode="G" horiz-adv-x="1562" 
d="M891 1298q-169 0 -299 -94.5t-196 -245.5t-66 -329q0 -221 115.5 -349t316.5 -128q164 0 301 102t180 276h-504l37 181h694l-149 -711h-156l17 164q-168 -195 -439 -195q-168 0 -307 76.5t-224 225.5t-85 345q0 165 44.5 307.5t120.5 243.5t176.5 173.5t213 107.5
t229.5 35q125 0 229.5 -36t176 -99.5t117.5 -146t65 -179.5l-190 -55q-31 147 -139 239t-279 92z" />
    <glyph glyph-name="H" unicode="H" horiz-adv-x="1470" 
d="M948 0l135 645h-680l-135 -645h-200l307 1452h200l-131 -621h680l131 621h201l-307 -1452h-201z" />
    <glyph glyph-name="I" unicode="I" horiz-adv-x="593" 
d="M68 0l307 1452h205l-308 -1452h-204z" />
    <glyph glyph-name="J" unicode="J" horiz-adv-x="1097" 
d="M1100 1452l-226 -1051q-43 -201 -157.5 -315.5t-298.5 -114.5q-191 0 -296.5 109t-105.5 282q0 51 17 138l10 47l205 31l-23 -107q-10 -41 -10 -96q0 -101 54 -162t155 -61q197 0 250 254l223 1046h203z" />
    <glyph glyph-name="K" unicode="K" horiz-adv-x="1349" 
d="M625 680l-263 -229l-94 -451h-200l307 1452h200l-149 -704l803 704h276l-727 -639l439 -813h-228z" />
    <glyph glyph-name="L" unicode="L" horiz-adv-x="1091" 
d="M68 0l307 1452h200l-268 -1264h666l-39 -188h-866z" />
    <glyph glyph-name="M" unicode="M" horiz-adv-x="1916" 
d="M1397 0l235 1112l-706 -1112h-152l-272 1106l-236 -1106h-198l307 1452h235l287 -1167l739 1167h267l-308 -1452h-198z" />
    <glyph glyph-name="N" unicode="N" horiz-adv-x="1531" 
d="M1001 0l-483 1176l-250 -1176h-200l307 1452h239l461 -1135l242 1135h201l-308 -1452h-209z" />
    <glyph glyph-name="O" unicode="O" horiz-adv-x="1595" 
d="M125 602q0 169 44 314t119 247.5t174 175.5t210 108.5t225 35.5q283 0 455 -173.5t172 -461.5q0 -169 -44 -314t-119 -247.5t-174 -175t-209 -107.5t-224 -35q-283 0 -456 174.5t-173 458.5zM1319 827q0 222 -120.5 346.5t-313.5 124.5q-128 0 -235 -57t-176 -152
t-106.5 -215.5t-37.5 -250.5q0 -221 120.5 -345t313.5 -124q129 0 235.5 56.5t175.5 150.5t106.5 214.5t37.5 251.5z" />
    <glyph glyph-name="P" unicode="P" horiz-adv-x="1210" 
d="M836 1452q187 0 296 -103t109 -266q0 -216 -153 -348.5t-381 -132.5h-312l-127 -602h-200l307 1452h461zM539 1274l-107 -494h275q146 0 238.5 77.5t92.5 213.5q0 94 -61 148.5t-174 54.5h-264z" />
    <glyph glyph-name="Q" unicode="Q" horiz-adv-x="1595" 
d="M125 602q0 169 44 314t119 247.5t174 175.5t210 108.5t225 35.5q283 0 455 -173.5t172 -461.5q0 -225 -73.5 -397.5t-203.5 -288.5l160 -215l-147 -101l-158 211q-169 -88 -348 -88q-283 0 -456 174.5t-173 458.5zM909 616l226 -303q89 95 136.5 229.5t47.5 284.5
q0 222 -120.5 346.5t-313.5 124.5q-128 0 -235 -57t-176 -152t-106.5 -215.5t-37.5 -250.5q0 -221 120.5 -345t313.5 -124q128 0 227 51l-229 311z" />
    <glyph glyph-name="R" unicode="R" horiz-adv-x="1284" 
d="M653 602h-258l-127 -602h-200l307 1452h471q186 0 292.5 -102.5t106.5 -266.5q0 -182 -107 -305.5t-282 -161.5l238 -616h-213zM717 780q146 0 235.5 77t89.5 214q0 95 -58 149t-171 54h-274l-107 -494h285z" />
    <glyph glyph-name="S" unicode="S" horiz-adv-x="1210" 
d="M573 150q129 2 206 64.5t77 166.5q0 63 -39.5 117t-116.5 90l-192 86q-264 121 -264 375q0 183 139.5 308.5t347.5 125.5q102 0 185 -27.5t135.5 -70.5t88.5 -99t51 -109.5t15 -105.5l-190 -37q0 28 -5.5 58t-25 70t-50.5 70t-88.5 51.5t-131.5 21.5q-114 0 -190 -67.5
t-76 -162.5q0 -138 135 -201l198 -92q283 -131 283 -383q0 -85 -35.5 -163.5t-98.5 -137.5t-155 -94t-198 -35q-109 0 -199.5 29t-150.5 77t-101 111.5t-59.5 130.5t-18.5 136v30l203 35q-2 -14 -2 -41q0 -63 19 -120t56.5 -104t101 -75t146.5 -28z" />
    <glyph glyph-name="T" unicode="T" horiz-adv-x="1198" 
d="M850 1268l-268 -1268h-201l268 1268h-469l39 184h1120l-39 -184h-450z" />
    <glyph glyph-name="U" unicode="U" horiz-adv-x="1390" 
d="M1393 1452l-213 -1010q-47 -226 -191.5 -349.5t-359.5 -123.5q-220 0 -347.5 113t-127.5 319q0 89 16 152l190 899h193l-188 -924q-13 -63 -13 -108q0 -125 71.5 -194.5t215.5 -69.5q135 0 223 79t119 226l209 991h203z" />
    <glyph glyph-name="V" unicode="V" horiz-adv-x="1331" 
d="M588 258l665 1194h215l-831 -1452h-199l-215 1452h201z" />
    <glyph glyph-name="W" unicode="W" horiz-adv-x="1994" 
d="M1260 1452l129 -1149l516 1149h202l-669 -1452h-199l-129 1178l-573 -1178h-205l-113 1452h195l80 -1137l555 1137h211z" />
    <glyph glyph-name="X" unicode="X" horiz-adv-x="1265" 
d="M158 0h-250l637 729l-332 723h219l252 -559l481 559h252l-645 -739l330 -713h-221l-248 549z" />
    <glyph glyph-name="Y" unicode="Y" horiz-adv-x="1263" 
d="M211 1452h211l252 -637l467 637h239l-641 -840l-127 -612h-200l131 625z" />
    <glyph glyph-name="Z" unicode="Z" horiz-adv-x="1257" 
d="M-41 0l41 197l1044 1071h-796l39 184h1052l-41 -190l-1048 -1076h831l-39 -186h-1083z" />
    <glyph glyph-name="bracketleft" unicode="[" horiz-adv-x="604" 
d="M-41 -303l406 1911h395l-33 -154h-238l-339 -1606h237l-33 -151h-395z" />
    <glyph glyph-name="backslash" unicode="\" horiz-adv-x="1034" 
d="M240 1483h176l436 -1514h-176z" />
    <glyph glyph-name="bracketright" unicode="]" horiz-adv-x="602" 
d="M-133 -303l33 151h235l340 1606h-237l32 154h396l-406 -1911h-393z" />
    <glyph glyph-name="asciicircum" unicode="^" horiz-adv-x="1146" 
d="M700 1454l398 -729h-203l-279 528l-280 -528h-203l397 729h170z" />
    <glyph glyph-name="underscore" unicode="_" horiz-adv-x="1101" 
d="M-117 0h1049v-162h-1049v162z" />
    <glyph glyph-name="grave" unicode="`" horiz-adv-x="557" 
d="M-47 1411h229l115 -299h-152z" />
    <glyph glyph-name="a" unicode="a" horiz-adv-x="1183" 
d="M592 848q-102 0 -179.5 -68t-114 -165t-36.5 -201q0 -122 59.5 -195.5t174.5 -73.5q140 0 232.5 128.5t92.5 320.5q0 112 -58 183t-171 71zM1106 985l-154 -729q-22 -99 -22 -223q0 -7 0.5 -15t1.5 -13v-5h-182v2q-1 3 -1.5 7.5t-1.5 11t-1.5 16t-0.5 20.5q0 28 3 68
q-120 -145 -291 -145q-185 0 -287 122t-102 310q0 159 64.5 296.5t183.5 221.5t266 84q116 0 193.5 -43.5t113.5 -110.5l26 125h191z" />
    <glyph glyph-name="b" unicode="b" horiz-adv-x="1200" 
d="M29 0l313 1483h190l-122 -580q108 111 297 111q184 0 283.5 -121t99.5 -305q0 -266 -148.5 -440.5t-376.5 -174.5q-108 0 -192 51t-119 138l-35 -162h-190zM635 844q-134 0 -228 -115t-94 -309q0 -121 64 -198t176 -77q136 0 238 117t102 311q0 129 -68 200t-190 71z" />
    <glyph glyph-name="c" unicode="c" horiz-adv-x="1093" 
d="M838 643q-55 201 -244 201q-64 0 -123 -27t-106 -78t-75 -132t-28 -181q0 -131 72.5 -208t195.5 -77q186 0 275 187l164 -72q-66 -127 -177 -207t-270 -80q-207 0 -330.5 129t-123.5 326q0 258 156 425t382 167q77 0 141.5 -19.5t108.5 -50t78 -72.5t52.5 -83t29.5 -86z
" />
    <glyph glyph-name="d" unicode="d" horiz-adv-x="1181" 
d="M952 256q-26 -118 -26 -223q0 -8 0.5 -14.5t0.5 -10t1 -6.5v-2h-180v2q-1 3 -1.5 7.5t-1.5 11t-1.5 16t-0.5 20.5q0 1 5 68q-120 -145 -291 -145q-185 0 -287 122t-102 310q0 159 64.5 296.5t183.5 221.5t266 84q116 0 193.5 -43.5t113.5 -110.5l131 623h190zM592 848
q-102 0 -179.5 -68t-114 -165t-36.5 -201q0 -122 59.5 -195.5t174.5 -73.5q140 0 232.5 128.5t92.5 320.5q0 112 -58 183t-171 71z" />
    <glyph glyph-name="e" unicode="e" horiz-adv-x="1110" 
d="M813 594q4 20 4 41q0 39 -11.5 74.5t-36 67t-68.5 50.5t-103 19q-116 0 -199 -74t-110 -178h524zM262 438q-2 -14 -2 -35q0 -119 71.5 -191.5t178.5 -72.5q104 0 179 48t112 116l145 -94q-56 -103 -171.5 -171.5t-260.5 -68.5q-124 0 -223.5 49.5t-161 153t-61.5 246.5
q0 135 46 250t122 190t172.5 116.5t199.5 41.5q195 0 301.5 -109t106.5 -289q0 -84 -29 -180h-725z" />
    <glyph glyph-name="f" unicode="f" horiz-adv-x="696" 
d="M471 815l-172 -815h-199l172 815h-166l37 170h166l43 205q60 303 353 303q36 0 67.5 -6.5t45.5 -12.5t18 -10l-37 -164q-51 17 -82 17q-67 0 -110 -35.5t-62 -122.5l-37 -174h223l-37 -170h-223z" />
    <glyph glyph-name="g" unicode="g" horiz-adv-x="1179" 
d="M825 600q0 44 -14 84.5t-41.5 75.5t-75.5 56.5t-110 21.5q-135 0 -224.5 -99t-89.5 -266q0 -121 63 -192.5t181 -71.5q142 0 226.5 104.5t84.5 286.5zM137 -16v-15q0 -95 60 -158t182 -63q265 0 342 340l16 80q-34 -53 -103.5 -87t-158.5 -34q-185 0 -292 117.5
t-107 296.5q0 151 63.5 275.5t178.5 197t260 72.5q104 0 184 -40t121 -112l26 131h197l-184 -891q-18 -83 -43 -151t-69.5 -138t-102.5 -117.5t-145.5 -77.5t-194.5 -30q-95 0 -174.5 29.5t-130.5 79t-79 112t-28 129.5v11z" />
    <glyph glyph-name="h" unicode="h" horiz-adv-x="1124" 
d="M662 0l126 596q9 41 9 76q0 83 -45.5 127.5t-135.5 44.5q-57 0 -105 -23t-81 -63t-55 -86.5t-33 -98.5l-123 -573h-192l315 1483h193l-123 -580q100 111 282 111q137 0 220 -79.5t83 -213.5q0 -41 -10 -96l-133 -625h-192z" />
    <glyph glyph-name="i" unicode="i" horiz-adv-x="501" 
d="M27 0l211 985h192l-211 -985h-192zM274 1266q0 58 41.5 96.5t94.5 38.5q47 0 77.5 -31t30.5 -76q0 -54 -41.5 -94.5t-93.5 -40.5q-46 0 -77.5 31.5t-31.5 75.5z" />
    <glyph glyph-name="j" unicode="j" horiz-adv-x="499" 
d="M238 985h190l-244 -1147q-26 -122 -105 -190t-192 -68q-38 0 -71 6.5t-47.5 12.5t-20.5 10l33 153q36 -12 76 -12q64 0 96.5 32t46.5 101zM274 1266q0 58 41.5 96.5t94.5 38.5q47 0 77.5 -31t30.5 -76q0 -54 -41.5 -94.5t-93.5 -40.5q-46 0 -77.5 31.5t-31.5 75.5z" />
    <glyph glyph-name="k" unicode="k" horiz-adv-x="1075" 
d="M481 467l-200 -164l-64 -303h-190l315 1483h190l-192 -901l489 403h287l-487 -397l291 -588h-215z" />
    <glyph glyph-name="l" unicode="l" horiz-adv-x="499" 
d="M27 0l315 1483h193l-316 -1483h-192z" />
    <glyph glyph-name="m" unicode="m" horiz-adv-x="1683" 
d="M625 0l131 618q8 31 8 66q0 74 -41 118t-129 44q-100 0 -161.5 -67.5t-86.5 -184.5l-127 -594h-190l172 811q24 100 24 174h189q0 -12 -11 -102q55 67 122.5 99t162.5 32q89 0 152.5 -42t93.5 -116q122 158 338 158q122 0 204.5 -78t82.5 -205q0 -31 -11 -92l-137 -639
h-190l131 618q8 31 8 66q0 74 -42 118t-128 44q-98 0 -159.5 -68.5t-86.5 -181.5l-127 -596h-192z" />
    <glyph glyph-name="n" unicode="n" horiz-adv-x="1126" 
d="M664 0l127 596q8 36 8 76q0 83 -45.5 127.5t-135.5 44.5q-57 0 -105 -23t-81 -63t-55 -86.5t-33 -98.5l-123 -573h-192l172 811q24 100 24 174h189q0 -28 -13 -108q100 137 306 137q130 0 211 -80.5t81 -214.5q0 -39 -10 -94l-133 -625h-192z" />
    <glyph glyph-name="o" unicode="o" horiz-adv-x="1153" 
d="M594 844q-135 0 -232.5 -112t-97.5 -304q0 -131 67.5 -209t182.5 -78q137 0 234.5 113t97.5 305q0 130 -67.5 207.5t-184.5 77.5zM1042 563q0 -165 -70 -301t-193 -214.5t-273 -78.5q-135 0 -236 62.5t-151.5 164.5t-50.5 228q0 253 154 422.5t384 169.5q105 0 189 -35.5
t137.5 -98t81.5 -144t28 -175.5z" />
    <glyph glyph-name="p" unicode="p" horiz-adv-x="1200" 
d="M643 838q-134 0 -231 -113t-97 -305q0 -130 65 -202.5t181 -72.5q136 0 234 116t98 312q0 128 -66 196.5t-184 68.5zM401 872q55 68 137.5 104t176.5 36q124 0 210 -57t125.5 -150.5t39.5 -214.5q0 -176 -65 -317t-183.5 -220.5t-268.5 -79.5q-105 0 -193 48t-130 131
l-115 -541h-190l256 1200q24 100 24 174h189q-5 -74 -13 -113z" />
    <glyph glyph-name="q" unicode="q" horiz-adv-x="1181" 
d="M819 -389h-190l102 483q-108 -114 -266 -114q-185 0 -292 123.5t-107 308.5q0 159 64.5 296t184 220.5t267.5 83.5q115 0 194.5 -42t118.5 -106l25 121h190zM592 844q-102 0 -180 -66t-115 -162.5t-37 -201.5q0 -120 64 -194.5t184 -74.5q140 0 230.5 126.5t90.5 312.5
q0 119 -59 189.5t-178 70.5z" />
    <glyph glyph-name="r" unicode="r" horiz-adv-x="733" 
d="M731 786q-44 7 -69 7q-139 0 -223.5 -89.5t-116.5 -236.5l-101 -467h-190l172 811q24 100 24 174h189q0 -87 -19 -154q50 83 134.5 125.5t191.5 42.5q37 0 53 -2z" />
    <glyph glyph-name="s" unicode="s" horiz-adv-x="909" 
d="M180 346q2 -91 60 -152t155 -61q77 0 117.5 38.5t40.5 92.5q0 73 -92 117l-144 65q-176 78 -176 250q0 131 99.5 225.5t261.5 94.5q74 0 134.5 -20t98 -50t64 -70t38.5 -75.5t15 -69.5l-172 -47q-4 31 -15.5 58.5t-33.5 54t-60 42t-88 15.5q-71 0 -113 -38t-42 -91
q0 -74 78 -111l135 -61q98 -44 151 -115t53 -159q0 -39 -12 -80t-39.5 -83t-68 -74t-103 -52.5t-137.5 -20.5q-96 0 -171.5 32.5t-118 84t-64 108.5t-21.5 113z" />
    <glyph glyph-name="t" unicode="t" horiz-adv-x="684" 
d="M453 158q9 0 19 0.5t17.5 1t14 1t10.5 1.5h4l-33 -158q-42 -14 -104 -14q-110 0 -174 58t-64 161q0 39 9 74l112 528h-180l37 174h29q164 0 202 160l33 151h176l-67 -311h198l-37 -174h-198l-109 -518q-6 -27 -6 -47q0 -88 111 -88z" />
    <glyph glyph-name="u" unicode="u" horiz-adv-x="1112" 
d="M883 256q-27 -122 -27 -223q0 -8 0.5 -14.5t0.5 -10t1 -6.5v-2h-184v2q-1 3 -1.5 7.5t-1 11t-1 16t-0.5 20.5q0 35 2 58q-47 -66 -119 -100.5t-145 -34.5q-150 0 -234 86.5t-84 230.5q0 55 12 113l123 575h193l-121 -571q-10 -55 -10 -92q0 -81 41.5 -130t132.5 -49
q103 0 172.5 77t91.5 190l121 575h190z" />
    <glyph glyph-name="v" unicode="v" horiz-adv-x="1042" 
d="M489 0h-186l-176 985h199l108 -754l422 754h217z" />
    <glyph glyph-name="w" unicode="w" horiz-adv-x="1622" 
d="M975 985l94 -735l371 735h211l-523 -985h-198l-99 745l-389 -745h-202l-101 985h185l63 -733l385 733h203z" />
    <glyph glyph-name="x" unicode="x" horiz-adv-x="1040" 
d="M156 0h-248l481 504l-258 481h211q34 -68 99.5 -194.5t76.5 -147.5l311 342h246l-465 -487q23 -41 119 -221t150 -277h-211l-187 356z" />
    <glyph glyph-name="y" unicode="y" horiz-adv-x="1028" 
d="M-53 -389l370 559l-241 815h209l174 -618l385 618h227l-903 -1374h-221z" />
    <glyph glyph-name="z" unicode="z" horiz-adv-x="972" 
d="M-39 0l37 172l670 639h-516l36 174h762l-37 -174l-669 -637h551l-37 -174h-797z" />
    <glyph glyph-name="braceleft" unicode="{" horiz-adv-x="708" 
d="M59 739q100 0 173 48.5t96 156.5l59 287q41 207 140 292t290 85h47l-33 -154h-28q-118 0 -173 -49.5t-81 -165.5l-72 -338q-24 -107 -90.5 -172t-173.5 -78q72 -18 116 -70.5t44 -134.5q0 -28 -6 -63l-64 -299q-10 -55 -10 -88q0 -75 41.5 -111.5t132.5 -36.5h27
l-33 -151h-29q-303 0 -303 256q0 63 14 123l62 282q6 30 6 58q0 145 -188 145z" />
    <glyph glyph-name="bar" unicode="|" horiz-adv-x="468" 
d="M-41 -303l406 1911h167l-405 -1911h-168z" />
    <glyph glyph-name="braceright" unicode="}" horiz-adv-x="704" 
d="M670 559q-44 0 -83 -9t-78 -29.5t-67.5 -62t-40.5 -100.5l-61 -282q-42 -194 -149.5 -286.5t-296.5 -92.5h-29l33 151h24q209 0 262 236l72 336q20 94 88.5 153.5t175.5 83.5q-78 17 -123 68t-45 123q0 26 6 53l72 338q12 55 12 94q0 63 -38 92t-128 29h-38l32 154h47
q291 0 291 -238q0 -62 -14 -117l-70 -309q-6 -30 -6 -57q0 -77 52 -113.5t137 -36.5z" />
    <glyph glyph-name="asciitilde" unicode="~" horiz-adv-x="1284" 
d="M1151 625q-57 -93 -135.5 -142t-171.5 -49q-98 0 -199 55l-94 52q-59 30 -111 30q-107 0 -196 -116l-117 94q57 94 137 144t174 50q105 0 195 -53l94 -51q56 -33 117 -33q116 0 190 113z" />
    <glyph glyph-name="uni00A0" unicode="&#xa0;" horiz-adv-x="514" 
 />
    <glyph glyph-name="exclamdown" unicode="&#xa1;" horiz-adv-x="493" 
d="M152 -446h-246l270 1036h137zM436 897q0 -61 -42.5 -105t-104.5 -44q-55 0 -89 33t-34 85q0 62 43.5 106t101.5 44q55 0 90 -34t35 -85z" />
    <glyph glyph-name="cent" unicode="&#xa2;" horiz-adv-x="1091" 
d="M406 188q-137 39 -216 151.5t-79 260.5q0 236 144.5 393.5t356.5 165.5l35 168h156l-39 -180q117 -31 183.5 -108.5t92.5 -172.5l-176 -59q-28 126 -137 168l-133 -639q154 12 240 172l159 -68q-65 -120 -172.5 -196t-263.5 -76l-35 -168h-155zM301 602q0 -89 37 -150.5
t104 -91.5l133 629q-120 -22 -197 -119.5t-77 -267.5z" />
    <glyph glyph-name="sterling" unicode="&#xa3;" horiz-adv-x="1220" 
d="M158 735h151q-22 99 -22 180q0 188 120 315.5t312 127.5q172 0 270 -86.5t98 -239.5q0 -48 -8 -67l-190 -29q6 34 6 65q0 77 -48 129t-136 52q-103 0 -165.5 -66.5t-62.5 -187.5q0 -66 27 -193h395l-37 -176h-342q-6 -125 -78 -226t-196 -155h430q99 0 162.5 63.5
t81.5 161.5l180 -36q-30 -172 -142.5 -269.5t-273.5 -97.5h-700l41 213q142 41 217.5 134.5t81.5 211.5h-209z" />
    <glyph glyph-name="currency" unicode="&#xa4;" horiz-adv-x="1302" 
d="M199 489q0 131 75 246l-153 160l123 121l153 -160q110 72 238 72q118 0 227 -66l148 154l123 -121l-144 -150q84 -119 84 -256t-82 -253l142 -144l-121 -121l-144 148q-108 -68 -233 -68q-135 0 -244 74l-149 -154l-121 121l149 156q-71 109 -71 241zM369 489
q0 -118 77 -194t189 -76t187 75.5t75 194.5q0 117 -75.5 193t-186.5 76q-112 0 -189 -76t-77 -193z" />
    <glyph glyph-name="yen" unicode="&#xa5;" horiz-adv-x="1191" 
d="M188 772h250l-217 555h225l189 -536l397 536h232l-437 -555h250l-30 -145h-345l-2 -2l-34 -162h346l-33 -148h-344l-66 -315h-198l65 315h-346l33 148h344l35 162l-2 2h-342z" />
    <glyph glyph-name="brokenbar" unicode="&#xa6;" horiz-adv-x="491" 
d="M203 791l172 817h168l-172 -817h-168zM-31 -303l174 817h168l-174 -817h-168z" />
    <glyph glyph-name="section" unicode="&#xa7;" horiz-adv-x="1062" 
d="M184 16q-10 -52 -10 -79q0 -91 51.5 -144t155.5 -53q91 0 157 55.5t66 153.5q0 90 -82 153l-184 131q-100 71 -156.5 144t-56.5 168q0 60 23 112t60.5 87t74.5 57.5t75 36.5q-125 107 -125 258q0 115 63.5 205t162.5 136t211 46q181 0 279 -94.5t98 -235.5q0 -45 -9 -86
l-188 -18q10 52 10 81q0 89 -51.5 141t-151.5 52q-94 0 -162.5 -57.5t-68.5 -149.5q0 -87 88 -151l182 -134q52 -39 82 -64t64.5 -63.5t50.5 -81.5t16 -94q0 -112 -72.5 -194.5t-156.5 -108.5q59 -50 91 -118t32 -138q0 -88 -37.5 -162.5t-99.5 -123t-140 -75t-161 -26.5
q-179 0 -277 93t-98 235q0 46 8 90zM453 768q-49 -13 -94.5 -68.5t-45.5 -119.5q0 -85 90 -152l179 -131q49 13 95 68t46 118q0 84 -94 154z" />
    <glyph glyph-name="dieresis" unicode="&#xa8;" horiz-adv-x="776" 
d="M-86 1257q0 54 38.5 94t92.5 40q48 0 78.5 -32.5t30.5 -76.5q0 -55 -41.5 -92t-94.5 -37q-44 0 -74 30.5t-30 73.5zM313 1257q0 54 38.5 94t92.5 40q48 0 78.5 -32.5t30.5 -76.5q0 -55 -41 -92t-94 -37q-44 0 -74.5 30.5t-30.5 73.5z" />
    <glyph glyph-name="copyright" unicode="&#xa9;" horiz-adv-x="1728" 
d="M143 727q0 205 99.5 379t271.5 275.5t375 101.5q153 0 292.5 -60t239.5 -161.5t159.5 -241.5t59.5 -293t-59.5 -293.5t-159.5 -242t-239.5 -162t-292.5 -60.5q-203 0 -375 102t-271.5 276.5t-99.5 379.5zM303 727q0 -127 46 -240t124 -193.5t186.5 -127.5t229.5 -47
t229.5 47t186.5 127.5t124 193.5t46 240t-45.5 239.5t-124 193t-187 127t-229.5 46.5t-229.5 -46.5t-187 -127t-124 -193t-45.5 -239.5zM1130 852q-43 166 -200 166q-111 0 -192 -90.5t-81 -251.5q0 -108 60.5 -171t161.5 -63q149 0 225 152l133 -59q-49 -101 -142.5 -167.5
t-224.5 -66.5q-170 0 -271 105t-101 268q0 212 128 348.5t314 136.5q77 0 139 -23t101 -62.5t62 -81.5t34 -89z" />
    <glyph glyph-name="ordfeminine" unicode="&#xaa;" horiz-adv-x="925" 
d="M545 1212q-98 0 -157.5 -87.5t-59.5 -196.5q0 -81 39.5 -128.5t115.5 -47.5q93 0 153 82t60 210q0 76 -38 122t-113 46zM913 1327l-108 -524q-14 -55 -14 -170h-142q-2 23 -2 69v19q-81 -103 -198 -103q-130 0 -202.5 87.5t-72.5 220.5q0 114 45.5 210.5t129 154
t186.5 57.5q145 0 213 -107l16 86h149z" />
    <glyph glyph-name="guillemotleft" unicode="&#xab;" horiz-adv-x="1054" 
d="M283 203l-201 397l350 385h211l-360 -403l190 -379h-190zM678 203l-201 397l350 385h211l-360 -403l190 -379h-190z" />
    <glyph glyph-name="logicalnot" unicode="&#xac;" horiz-adv-x="1265" 
d="M899 305v400h-776v167h948v-567h-172z" />
    <glyph glyph-name="uni00AD" unicode="&#xad;" horiz-adv-x="835" 
d="M119 504l35 168h555l-35 -168h-555z" />
    <glyph glyph-name="registered" unicode="&#xae;" horiz-adv-x="1728" 
d="M143 727q0 205 99.5 379t271.5 275.5t375 101.5q153 0 292.5 -60t239.5 -161.5t159.5 -241.5t59.5 -293t-59.5 -293.5t-159.5 -242t-239.5 -162t-292.5 -60.5q-203 0 -375 102t-271.5 276.5t-99.5 379.5zM303 727q0 -127 46 -240t124 -193.5t186.5 -127.5t229.5 -47
t229.5 47t186.5 127.5t124 193.5t46 240t-45.5 239.5t-124 193t-187 127t-229.5 46.5t-229.5 -46.5t-187 -127t-124 -193t-45.5 -239.5zM874 627h-83l-64 -305h-149l174 821h270q104 0 169.5 -68.5t65.5 -161.5q0 -108 -67.5 -182.5t-175.5 -93.5l135 -315h-152zM924 752
q84 0 133 39.5t49 115.5q0 105 -129 105h-103l-59 -260h109z" />
    <glyph glyph-name="overscore" unicode="&#xaf;" horiz-adv-x="702" 
d="M-98 1182l35 166h559l-35 -166h-559z" />
    <glyph glyph-name="degree" unicode="&#xb0;" horiz-adv-x="837" 
d="M489 872q71 0 123 52t52 135q0 62 -39 99.5t-105 37.5q-68 0 -119 -52t-51 -130q0 -63 37 -102.5t102 -39.5zM473 713q-128 0 -210.5 82.5t-82.5 205.5q0 144 106 250.5t253 106.5q125 0 210 -85t85 -208q0 -98 -53 -180t-135.5 -127t-172.5 -45z" />
    <glyph glyph-name="plusminus" unicode="&#xb1;" horiz-adv-x="1191" 
d="M655 358h-168v275h-362v158h362v278h168v-278h365v-158h-365v-275zM125 266h895v-162h-895v162z" />
    <glyph glyph-name="twosuperior" unicode="&#xb2;" horiz-adv-x="722" 
d="M487 1102q117 52 117 133q0 39 -27 68.5t-77 29.5q-63 0 -99 -39t-36 -118h-154q0 138 80 213t213 75q123 0 191.5 -64.5t68.5 -156.5q0 -173 -197 -256l-155 -67q-61 -28 -86 -82h376l-28 -133h-561q12 123 71.5 205.5t173.5 133.5z" />
    <glyph glyph-name="threesuperior" unicode="&#xb3;" horiz-adv-x="722" 
d="M336 1178l233 141h-327l28 133h533l-29 -152l-233 -137q75 -14 124.5 -69t49.5 -129q0 -111 -82.5 -193t-218.5 -82q-115 0 -196 64.5t-81 171.5q0 11 4 39l142 10q-2 -6 -2 -23q0 -53 36.5 -90t94.5 -37q65 0 106 34t41 97q0 49 -35.5 78t-85.5 29q-30 0 -49 -8z" />
    <glyph glyph-name="acute" unicode="&#xb4;" horiz-adv-x="561" 
d="M55 1112h-172l236 299h254z" />
    <glyph glyph-name="mu" unicode="&#xb5;" horiz-adv-x="1210" 
d="M152 985h194v-592q0 -112 54.5 -183t168.5 -71t174 68t60 184v594h192v-803q0 -27 1 -56t2.5 -50.5t3.5 -38.5t3 -27l1 -10h-185q-8 31 -8 119q-39 -74 -119 -112t-172 -38q-101 0 -178 41v-399h-192v1374z" />
    <glyph glyph-name="paragraph" unicode="&#xb6;" horiz-adv-x="1310" 
d="M457 -389h-170l223 1046h-18q-143 0 -239.5 93.5t-96.5 232.5q0 110 48 200.5t127 148t177.5 89t202.5 31.5h696l-35 -166h-198l-357 -1675h-170l357 1675h-191z" />
    <glyph glyph-name="middot" unicode="&#xb7;" horiz-adv-x="546" 
d="M121 565q0 65 46.5 112.5t113.5 47.5q59 0 95 -36t36 -91q0 -66 -47 -112t-111 -46q-59 0 -96 36.5t-37 88.5z" />
    <glyph glyph-name="cedilla" unicode="&#xb8;" horiz-adv-x="602" 
d="M315 29l-161 -135q67 -10 103 -51t36 -97q0 -80 -66.5 -134t-169.5 -54q-95 0 -164 47t-90 98l107 66q6 -14 15 -28t26 -31.5t44 -28.5t60 -11q39 0 67 18.5t28 53.5q0 30 -25.5 49t-63.5 19q-19 0 -28 -3l-45 87l155 135h172z" />
    <glyph glyph-name="onesuperior" unicode="&#xb9;" horiz-adv-x="468" 
d="M231 705l115 512h-164l21 104q74 4 130 39.5t79 91.5h139l-162 -747h-158z" />
    <glyph glyph-name="ordmasculine" unicode="&#xba;" horiz-adv-x="884" 
d="M545 1210q-90 0 -153.5 -74.5t-63.5 -197.5q0 -87 45 -137.5t119 -50.5q89 0 154 73t65 201q0 87 -44 136.5t-122 49.5zM866 1028q0 -113 -49 -208.5t-137 -151.5t-195 -56q-143 0 -228 92.5t-85 227.5q0 179 110.5 298.5t272.5 119.5q145 0 228 -92.5t83 -229.5z" />
    <glyph glyph-name="guillemotright" unicode="&#xbb;" horiz-adv-x="1081" 
d="M371 985l200 -397l-350 -385h-211l361 403l-191 379h191zM797 985l200 -397l-350 -385h-211l361 403l-191 379h191z" />
    <glyph glyph-name="onequarter" unicode="&#xbc;" horiz-adv-x="1570" 
d="M795 330l422 418h180l-99 -459h134l-29 -133h-131q-1 -1 -5 -21q-12 -58 -28 -135h-156l33 156h-354zM1206 569l-282 -280h219zM238 580l114 512h-164l21 104q74 4 130 39.5t79 91.5h139l-162 -747h-157zM236 0h-199l1241 1327h195z" />
    <glyph glyph-name="onehalf" unicode="&#xbd;" horiz-adv-x="1642" 
d="M233 0h-198l1241 1327h194zM236 580l114 512h-164l21 104q74 4 130 39.5t79 91.5h139l-162 -747h-157zM1253 397q117 53 117 133q0 39 -27 69t-77 30q-63 0 -99.5 -39.5t-36.5 -118.5h-153q0 138 80.5 213.5t212.5 75.5q123 0 191.5 -64.5t68.5 -156.5q0 -173 -197 -256
l-155 -68q-61 -28 -86 -82h376l-28 -133h-561q12 123 71.5 206.5t173.5 133.5z" />
    <glyph glyph-name="threequarters" unicode="&#xbe;" horiz-adv-x="1763" 
d="M987 330l422 418h180l-98 -459h133l-29 -133h-131q-1 -1 -3 -12q-10 -54 -29 -144h-156l33 156h-355zM1399 569l-283 -280h219zM428 0h-199l1241 1327h195zM330 1053l233 141h-327l28 133h533l-29 -151l-233 -138q75 -14 124.5 -69t49.5 -129q0 -111 -82.5 -193
t-218.5 -82q-115 0 -196 64.5t-81 171.5q0 11 4 39l141 10q-2 -6 -2 -23q0 -53 37 -90t95 -37q65 0 106 34t41 97q0 49 -35.5 78t-85.5 29q-30 0 -49 -8z" />
    <glyph glyph-name="questiondown" unicode="&#xbf;" horiz-adv-x="1036" 
d="M633 590q-11 -128 -69 -224.5t-177 -166.5l-104 -62q-154 -89 -154 -239q0 -83 54.5 -139t164.5 -56q74 0 131.5 26.5t92.5 72.5t53 102.5t18 120.5l195 -27q-8 -212 -146.5 -343.5t-363.5 -131.5q-188 0 -297 100.5t-109 243.5q0 147 74 246t209 178l110 63
q132 75 142 236h176zM713 897q0 -61 -43 -105t-105 -44q-55 0 -89 33t-34 85q0 62 44 106t102 44q55 0 90 -34t35 -85z" />
    <glyph glyph-name="Agrave" unicode="&#xc0;" horiz-adv-x="1406" 
d="M979 406h-608l-236 -406h-227l866 1452h221l252 -1452h-203zM479 592h469l-102 631zM981 1575h-141l-154 264h203z" />
    <glyph glyph-name="Aacute" unicode="&#xc1;" horiz-adv-x="1406" 
d="M979 406h-608l-236 -406h-227l866 1452h221l252 -1452h-203zM479 592h469l-102 631zM969 1575h-152l184 264h216z" />
    <glyph glyph-name="Acircumflex" unicode="&#xc2;" horiz-adv-x="1406" 
d="M979 406h-608l-236 -406h-227l866 1452h221l252 -1452h-203zM479 592h469l-102 631zM1030 1819l158 -265h-158l-108 154l-156 -154h-168l240 265h192z" />
    <glyph glyph-name="Atilde" unicode="&#xc3;" horiz-adv-x="1406" 
d="M979 406h-608l-236 -406h-227l866 1452h221l252 -1452h-203zM479 592h469l-102 631zM1217 1804q-22 -114 -80.5 -171.5t-135.5 -57.5q-34 0 -61.5 15t-43 33t-36.5 33t-43 15q-20 0 -37 -24t-26 -68h-136q22 115 81 172t137 57q34 0 61.5 -15t43 -33t36.5 -33t43 -15
q20 0 37 24.5t26 67.5h134z" />
    <glyph glyph-name="Adieresis" unicode="&#xc4;" horiz-adv-x="1406" 
d="M979 406h-608l-236 -406h-227l866 1452h221l252 -1452h-203zM479 592h469l-102 631zM553 1665q0 59 38.5 96t96.5 37q47 0 77 -30.5t30 -75.5q0 -59 -39 -97.5t-94 -38.5q-47 0 -78 31t-31 78zM1024 1665q0 59 38.5 96t96.5 37q47 0 77 -30.5t30 -75.5q0 -59 -39 -97.5
t-94 -38.5q-47 0 -78 31t-31 78z" />
    <glyph glyph-name="Aring" unicode="&#xc5;" horiz-adv-x="1406" 
d="M979 406h-608l-236 -406h-227l811 1358q-86 64 -86 172q0 118 83 195t191 77q97 0 164.5 -66.5t67.5 -158.5q0 -65 -34.5 -125.5t-92.5 -97.5l235 -1354h-203zM479 592h469l-102 631zM891 1661q-44 0 -79.5 -32t-35.5 -81q0 -44 27 -70t71 -26q49 0 83 31.5t34 81.5
q0 42 -28 69t-72 27z" />
    <glyph glyph-name="AE" unicode="&#xc6;" horiz-adv-x="2072" 
d="M1874 186l-39 -186h-872l81 391h-575l-334 -391h-254l1260 1452h1001l-39 -186h-671l-95 -447h609l-41 -188h-609l-94 -445h672zM1083 571l152 717l-612 -717h460z" />
    <glyph glyph-name="Ccedilla" unicode="&#xc7;" horiz-adv-x="1497" 
d="M909 1483q125 0 229.5 -36t176 -99.5t117.5 -146t65 -179.5l-190 -55q-31 147 -139 239t-279 92q-129 0 -236.5 -56t-176.5 -150t-106.5 -213.5t-37.5 -249.5q0 -223 113.5 -350t314.5 -127q156 0 276 82.5t191 244.5l176 -71q-88 -198 -246 -312.5t-371 -124.5l-92 -77
q67 -10 103.5 -51t36.5 -97q0 -80 -66.5 -134t-169.5 -54q-95 0 -164 47t-90 98l107 66q6 -14 15 -28t26 -31.5t44 -28.5t60 -11q38 0 66 18.5t28 53.5q0 30 -25.5 49t-62.5 19q-20 0 -29 -3l-45 87l99 86q-224 37 -362 210.5t-138 425.5q0 165 44 307t119.5 243.5t176 174
t213 107.5t229.5 35z" />
    <glyph glyph-name="Egrave" unicode="&#xc8;" horiz-adv-x="1177" 
d="M68 0l307 1452h872l-39 -186h-671l-95 -447h609l-41 -188h-609l-94 -445h672l-39 -186h-872zM915 1575h-141l-153 264h202z" />
    <glyph glyph-name="Eacute" unicode="&#xc9;" horiz-adv-x="1177" 
d="M68 0l307 1452h872l-39 -186h-671l-95 -447h609l-41 -188h-609l-94 -445h672l-39 -186h-872zM866 1575h-151l184 264h215z" />
    <glyph glyph-name="Ecircumflex" unicode="&#xca;" horiz-adv-x="1177" 
d="M68 0l307 1452h872l-39 -186h-671l-95 -447h609l-41 -188h-609l-94 -445h672l-39 -186h-872zM952 1819l158 -265h-158l-108 154l-156 -154h-168l240 265h192z" />
    <glyph glyph-name="Edieresis" unicode="&#xcb;" horiz-adv-x="1177" 
d="M489 1665q0 59 39 96t97 37q47 0 76.5 -30.5t29.5 -75.5q0 -59 -39 -97.5t-94 -38.5q-47 0 -78 31t-31 78zM961 1665q0 59 38.5 96t96.5 37q47 0 76.5 -30.5t29.5 -75.5q0 -59 -39 -97.5t-94 -38.5q-47 0 -77.5 31t-30.5 78zM68 0l307 1452h872l-39 -186h-671l-95 -447
h609l-41 -188h-609l-94 -445h672l-39 -186h-872z" />
    <glyph glyph-name="Igrave" unicode="&#xcc;" horiz-adv-x="593" 
d="M68 0l307 1452h205l-308 -1452h-204zM575 1575h-141l-153 264h202z" />
    <glyph glyph-name="Iacute" unicode="&#xcd;" horiz-adv-x="593" 
d="M68 0l307 1452h205l-308 -1452h-204zM555 1575h-152l185 264h215z" />
    <glyph glyph-name="Icircumflex" unicode="&#xce;" horiz-adv-x="593" 
d="M141 1554l277 244h246l184 -244h-170l-152 132l-207 -132h-178zM68 0l307 1452h205l-308 -1452h-204z" />
    <glyph glyph-name="Idieresis" unicode="&#xcf;" horiz-adv-x="593" 
d="M68 0l307 1452h205l-308 -1452h-204z" />
    <glyph glyph-name="Eth" unicode="&#xd0;" horiz-adv-x="1449" 
d="M106 823h140l133 629h395q278 0 443 -158t165 -422q0 -165 -43.5 -307.5t-118.5 -245t-174.5 -175.5t-211 -108.5t-228.5 -35.5h-534l137 655h-137zM606 178q83 0 164.5 27t156 83.5t131 136t90.5 192t34 243.5q0 198 -121.5 306t-323.5 108h-194l-97 -451h308l-35 -168
h-309l-101 -477h297z" />
    <glyph glyph-name="Ntilde" unicode="&#xd1;" horiz-adv-x="1531" 
d="M1346 1804q-24 -139 -82.5 -198.5t-149.5 -59.5q-74 0 -143 49l-25 17q-44 28 -78 28q-61 0 -80 -90h-143q16 133 79 195.5t155 62.5q74 0 143 -49l25 -16q45 -29 77 -29q61 0 80 90h142zM1001 0l-483 1176l-250 -1176h-200l307 1452h239l461 -1135l242 1135h201
l-308 -1452h-209z" />
    <glyph glyph-name="Ograve" unicode="&#xd2;" horiz-adv-x="1595" 
d="M125 602q0 169 44 314t119 247.5t174 175.5t210 108.5t225 35.5q283 0 455 -173.5t172 -461.5q0 -169 -44 -314t-119 -247.5t-174 -175t-209 -107.5t-224 -35q-283 0 -456 174.5t-173 458.5zM1319 827q0 222 -120.5 346.5t-313.5 124.5q-128 0 -235 -57t-176 -152
t-106.5 -215.5t-37.5 -250.5q0 -221 120.5 -345t313.5 -124q129 0 235.5 56.5t175.5 150.5t106.5 214.5t37.5 251.5zM1008 1575h-142l-153 264h202z" />
    <glyph glyph-name="Oacute" unicode="&#xd3;" horiz-adv-x="1595" 
d="M125 602q0 169 44 314t119 247.5t174 175.5t210 108.5t225 35.5q283 0 455 -173.5t172 -461.5q0 -169 -44 -314t-119 -247.5t-174 -175t-209 -107.5t-224 -35q-283 0 -456 174.5t-173 458.5zM1319 827q0 222 -120.5 346.5t-313.5 124.5q-128 0 -235 -57t-176 -152
t-106.5 -215.5t-37.5 -250.5q0 -221 120.5 -345t313.5 -124q129 0 235.5 56.5t175.5 150.5t106.5 214.5t37.5 251.5zM1014 1575h-152l185 264h215z" />
    <glyph glyph-name="Ocircumflex" unicode="&#xd4;" horiz-adv-x="1595" 
d="M125 602q0 169 44 314t119 247.5t174 175.5t210 108.5t225 35.5q283 0 455 -173.5t172 -461.5q0 -169 -44 -314t-119 -247.5t-174 -175t-209 -107.5t-224 -35q-283 0 -456 174.5t-173 458.5zM1319 827q0 222 -120.5 346.5t-313.5 124.5q-128 0 -235 -57t-176 -152
t-106.5 -215.5t-37.5 -250.5q0 -221 120.5 -345t313.5 -124q129 0 235.5 56.5t175.5 150.5t106.5 214.5t37.5 251.5zM1075 1819l158 -265h-158l-108 154l-156 -154h-168l240 265h192z" />
    <glyph glyph-name="Otilde" unicode="&#xd5;" horiz-adv-x="1595" 
d="M125 602q0 169 44 314t119 247.5t174 175.5t210 108.5t225 35.5q283 0 455 -173.5t172 -461.5q0 -169 -44 -314t-119 -247.5t-174 -175t-209 -107.5t-224 -35q-283 0 -456 174.5t-173 458.5zM1319 827q0 222 -120.5 346.5t-313.5 124.5q-128 0 -235 -57t-176 -152
t-106.5 -215.5t-37.5 -250.5q0 -221 120.5 -345t313.5 -124q129 0 235.5 56.5t175.5 150.5t106.5 214.5t37.5 251.5zM1262 1804q-22 -114 -80 -171.5t-135 -57.5q-34 0 -62 15t-43.5 33t-36.5 33t-43 15q-20 0 -37 -24t-26 -68h-135q22 115 80.5 172t136.5 57q34 0 61.5 -15
t43 -33t36.5 -33t43 -15q20 0 37 24.5t26 67.5h134z" />
    <glyph glyph-name="Odieresis" unicode="&#xd6;" horiz-adv-x="1595" 
d="M125 602q0 169 44 314t119 247.5t174 175.5t210 108.5t225 35.5q283 0 455 -173.5t172 -461.5q0 -169 -44 -314t-119 -247.5t-174 -175t-209 -107.5t-224 -35q-283 0 -456 174.5t-173 458.5zM1319 827q0 222 -120.5 346.5t-313.5 124.5q-128 0 -235 -57t-176 -152
t-106.5 -215.5t-37.5 -250.5q0 -221 120.5 -345t313.5 -124q129 0 235.5 56.5t175.5 150.5t106.5 214.5t37.5 251.5zM606 1665q0 59 38.5 96t96.5 37q47 0 77 -30.5t30 -75.5q0 -59 -39 -97.5t-94 -38.5q-47 0 -78 31t-31 78zM1077 1665q0 59 38.5 96t96.5 37q47 0 77 -30.5
t30 -75.5q0 -59 -39 -97.5t-94 -38.5q-47 0 -78 31t-31 78z" />
    <glyph glyph-name="multiply" unicode="&#xd7;" horiz-adv-x="1189" 
d="M129 229l346 359l-344 358l117 117l342 -356l342 356l117 -115l-347 -358l349 -361l-115 -116l-348 358l-344 -356z" />
    <glyph glyph-name="Oslash" unicode="&#xd8;" horiz-adv-x="1597" 
d="M127 602q0 169 44 314t119 247.5t174 175.5t210 108.5t225 35.5q254 0 422 -146l158 160l120 -117l-167 -170q94 -149 94 -362q0 -169 -44 -314t-119 -247.5t-174 -175t-209 -107.5t-224 -35q-252 0 -418 140l-150 -152l-120 117l159 159q-100 150 -100 369zM332 623
q0 -133 47 -236l799 807q-116 104 -291 104q-128 0 -235 -57t-176 -152t-106.5 -215.5t-37.5 -250.5zM1321 827q0 132 -43 230l-799 -805q110 -98 287 -98q129 0 235.5 56.5t175.5 150.5t106.5 214.5t37.5 251.5z" />
    <glyph glyph-name="Ugrave" unicode="&#xd9;" horiz-adv-x="1390" 
d="M1393 1452l-213 -1010q-47 -226 -191.5 -349.5t-359.5 -123.5q-220 0 -347.5 113t-127.5 319q0 89 16 152l190 899h193l-188 -924q-13 -63 -13 -108q0 -125 71.5 -194.5t215.5 -69.5q135 0 223 79t119 226l209 991h203zM967 1575h-142l-153 264h202z" />
    <glyph glyph-name="Uacute" unicode="&#xda;" horiz-adv-x="1390" 
d="M1393 1452l-213 -1010q-47 -226 -191.5 -349.5t-359.5 -123.5q-220 0 -347.5 113t-127.5 319q0 89 16 152l190 899h193l-188 -924q-13 -63 -13 -108q0 -125 71.5 -194.5t215.5 -69.5q135 0 223 79t119 226l209 991h203zM946 1575h-151l184 264h215z" />
    <glyph glyph-name="Ucircumflex" unicode="&#xdb;" horiz-adv-x="1390" 
d="M1393 1452l-213 -1010q-47 -226 -191.5 -349.5t-359.5 -123.5q-220 0 -347.5 113t-127.5 319q0 89 16 152l190 899h193l-188 -924q-13 -63 -13 -108q0 -125 71.5 -194.5t215.5 -69.5q135 0 223 79t119 226l209 991h203zM535 1554l276 244h246l184 -244h-170l-151 132
l-207 -132h-178z" />
    <glyph glyph-name="Udieresis" unicode="&#xdc;" horiz-adv-x="1390" 
d="M1393 1452l-213 -1010q-47 -226 -191.5 -349.5t-359.5 -123.5q-220 0 -347.5 113t-127.5 319q0 89 16 152l190 899h193l-188 -924q-13 -63 -13 -108q0 -125 71.5 -194.5t215.5 -69.5q135 0 223 79t119 226l209 991h203zM545 1665q0 59 38.5 96t96.5 37q47 0 76.5 -30.5
t29.5 -75.5q0 -59 -39 -97.5t-94 -38.5q-47 0 -77.5 31t-30.5 78zM1016 1665q0 59 38.5 96t96.5 37q47 0 76.5 -30.5t29.5 -75.5q0 -59 -39 -97.5t-94 -38.5q-47 0 -77.5 31t-30.5 78z" />
    <glyph glyph-name="Yacute" unicode="&#xdd;" horiz-adv-x="1263" 
d="M211 1452h211l252 -637l467 637h239l-641 -840l-127 -612h-200l131 625zM838 1575h-152l184 264h215z" />
    <glyph glyph-name="Thorn" unicode="&#xde;" horiz-adv-x="1222" 
d="M479 989l-106 -493h284q147 0 239.5 77t92.5 213q0 94 -61 148.5t-174 54.5h-275zM68 0l307 1452h200l-61 -285h272q187 0 296.5 -102.5t109.5 -265.5q0 -144 -72 -255t-193 -169t-270 -58h-321l-68 -317h-200z" />
    <glyph glyph-name="germandbls" unicode="&#xdf;" horiz-adv-x="1163" 
d="M754 674q0 -10 3.5 -20.5t7 -16.5t13 -16t13 -13t17.5 -14t15 -12l56 -45q143 -118 143 -258q0 -53 -20.5 -106t-60 -99.5t-107.5 -75.5t-154 -29q-131 0 -222 75.5t-91 199.5q0 41 4 53l178 27q-6 -21 -6 -43q0 -27 7 -52t22 -48.5t45 -37.5t71 -14q71 0 106 40t35 85
q0 30 -11 53.5t-23.5 36.5t-42.5 39l-52 43q-143 118 -143 244q0 154 160 239l71 37q74 38 115 83t41 112t-58 119.5t-159 52.5q-47 0 -89.5 -15t-82 -47.5t-70.5 -89.5t-47 -135l-217 -1026h-192l221 1057q44 213 177 319.5t312 106.5q186 0 293 -97.5t107 -234.5
q0 -73 -22 -131.5t-63 -99.5t-77 -65.5t-86 -49.5l-64 -31q-37 -21 -55 -42t-18 -58z" />
    <glyph glyph-name="agrave" unicode="&#xe0;" horiz-adv-x="1183" 
d="M592 848q-102 0 -179.5 -68t-114 -165t-36.5 -201q0 -122 59.5 -195.5t174.5 -73.5q140 0 232.5 128.5t92.5 320.5q0 112 -58 183t-171 71zM1106 985l-154 -729q-22 -99 -22 -223q0 -7 0.5 -15t1.5 -13v-5h-182v2q-1 3 -1.5 7.5t-1.5 11t-1.5 16t-0.5 20.5q0 28 3 68
q-120 -145 -291 -145q-185 0 -287 122t-102 310q0 159 64.5 296.5t183.5 221.5t266 84q116 0 193.5 -43.5t113.5 -110.5l26 125h191zM715 1137h-142l-153 264h203z" />
    <glyph glyph-name="aacute" unicode="&#xe1;" horiz-adv-x="1183" 
d="M592 848q-102 0 -179.5 -68t-114 -165t-36.5 -201q0 -122 59.5 -195.5t174.5 -73.5q140 0 232.5 128.5t92.5 320.5q0 112 -58 183t-171 71zM1106 985l-154 -729q-22 -99 -22 -223q0 -7 0.5 -15t1.5 -13v-5h-182v2q-1 3 -1.5 7.5t-1.5 11t-1.5 16t-0.5 20.5q0 28 3 68
q-120 -145 -291 -145q-185 0 -287 122t-102 310q0 159 64.5 296.5t183.5 221.5t266 84q116 0 193.5 -43.5t113.5 -110.5l26 125h191zM707 1137h-152l184 264h215z" />
    <glyph glyph-name="acircumflex" unicode="&#xe2;" horiz-adv-x="1183" 
d="M592 848q-102 0 -179.5 -68t-114 -165t-36.5 -201q0 -122 59.5 -195.5t174.5 -73.5q140 0 232.5 128.5t92.5 320.5q0 112 -58 183t-171 71zM1106 985l-154 -729q-22 -99 -22 -223q0 -7 0.5 -15t1.5 -13v-5h-182v2q-1 3 -1.5 7.5t-1.5 11t-1.5 16t-0.5 20.5q0 28 3 68
q-120 -145 -291 -145q-185 0 -287 122t-102 310q0 159 64.5 296.5t183.5 221.5t266 84q116 0 193.5 -43.5t113.5 -110.5l26 125h191zM795 1380l157 -264h-157l-109 154l-156 -154h-168l240 264h193z" />
    <glyph glyph-name="atilde" unicode="&#xe3;" horiz-adv-x="1183" 
d="M592 848q-102 0 -179.5 -68t-114 -165t-36.5 -201q0 -122 59.5 -195.5t174.5 -73.5q140 0 232.5 128.5t92.5 320.5q0 112 -58 183t-171 71zM1106 985l-154 -729q-22 -99 -22 -223q0 -7 0.5 -15t1.5 -13v-5h-182v2q-1 3 -1.5 7.5t-1.5 11t-1.5 16t-0.5 20.5q0 28 3 68
q-120 -145 -291 -145q-185 0 -287 122t-102 310q0 159 64.5 296.5t183.5 221.5t266 84q116 0 193.5 -43.5t113.5 -110.5l26 125h191zM983 1366q-22 -114 -80 -171.5t-135 -57.5q-34 0 -61.5 15t-43 33t-36.5 33t-43 15q-20 0 -37.5 -24t-26.5 -68h-135q22 115 80.5 172
t136.5 57q34 0 61.5 -15t43 -33t36.5 -33t43 -15q20 0 37.5 24.5t26.5 67.5h133z" />
    <glyph glyph-name="adieresis" unicode="&#xe4;" horiz-adv-x="1183" 
d="M367 1257q0 54 38.5 94t92.5 40q48 0 78 -32.5t30 -76.5q0 -55 -41 -92t-94 -37q-44 0 -74 30.5t-30 73.5zM766 1257q0 54 38.5 94t92.5 40q48 0 78.5 -32.5t30.5 -76.5q0 -55 -41.5 -92t-94.5 -37q-44 0 -74 30.5t-30 73.5zM592 848q-102 0 -179.5 -68t-114 -165
t-36.5 -201q0 -122 59.5 -195.5t174.5 -73.5q140 0 232.5 128.5t92.5 320.5q0 112 -58 183t-171 71zM1106 985l-154 -729q-22 -99 -22 -223q0 -7 0.5 -15t1.5 -13v-5h-182v2q-1 3 -1.5 7.5t-1.5 11t-1.5 16t-0.5 20.5q0 28 3 68q-120 -145 -291 -145q-185 0 -287 122
t-102 310q0 159 64.5 296.5t183.5 221.5t266 84q116 0 193.5 -43.5t113.5 -110.5l26 125h191z" />
    <glyph glyph-name="aring" unicode="&#xe5;" horiz-adv-x="1183" 
d="M705 1536q89 0 149.5 -60t60.5 -145q0 -95 -73.5 -169.5t-171.5 -74.5q-91 0 -153 57.5t-62 143.5q0 106 76 177t174 71zM586 1305q0 -41 23.5 -63.5t64.5 -22.5q44 0 75 28t31 74q0 37 -24.5 61.5t-65.5 24.5t-72.5 -28.5t-31.5 -73.5zM592 848q-102 0 -179.5 -68
t-114 -165t-36.5 -201q0 -122 59.5 -195.5t174.5 -73.5q140 0 232.5 128.5t92.5 320.5q0 112 -58 183t-171 71zM1106 985l-154 -729q-22 -99 -22 -223q0 -7 0.5 -15t1.5 -13v-5h-182v2q-1 3 -1.5 7.5t-1.5 11t-1.5 16t-0.5 20.5q0 28 3 68q-120 -145 -291 -145
q-185 0 -287 122t-102 310q0 159 64.5 296.5t183.5 221.5t266 84q116 0 193.5 -43.5t113.5 -110.5l26 125h191z" />
    <glyph glyph-name="ae" unicode="&#xe6;" horiz-adv-x="1753" 
d="M666 580q44 2 70 29t26 75q0 72 -57 121t-166 49q-90 0 -156.5 -46.5t-89.5 -125.5l-166 53q40 131 161.5 206t272.5 75q116 0 199.5 -41t128.5 -111q152 152 362 152q195 0 301.5 -109t106.5 -289q0 -84 -29 -180h-725q-2 -14 -2 -35q0 -119 71.5 -191.5t178.5 -72.5
q104 0 179 48t112 116l145 -94q-56 -103 -171.5 -171.5t-260.5 -68.5q-130 0 -231 55t-154 162q-143 -217 -399 -217q-163 0 -258 80t-95 205q0 138 103.5 225t255.5 92zM219 264q0 -63 49 -99t121 -36q50 0 99 17t95.5 52t82 97.5t49.5 144.5l-324 -12q-73 -5 -122.5 -45.5
t-49.5 -118.5zM1241 846q-116 0 -199 -74t-110 -178h524q4 20 4 41q0 39 -11.5 74.5t-36 67t-68.5 50.5t-103 19z" />
    <glyph glyph-name="ccedilla" unicode="&#xe7;" horiz-adv-x="1093" 
d="M838 643q-55 201 -244 201q-64 0 -123 -27t-106 -78t-75 -132t-28 -181q0 -131 72.5 -208t195.5 -77q186 0 275 187l164 -72q-149 -272 -416 -285l-92 -77q67 -10 103 -51t36 -97q0 -80 -66 -134t-169 -54q-95 0 -164 47t-90 98l106 66q6 -14 15 -28t26 -31.5t44 -28.5
t60 -11q39 0 67 18.5t28 53.5q0 30 -25.5 49t-62.5 19q-20 0 -29 -3l-45 87l102 90q-154 36 -241.5 154.5t-87.5 285.5q0 258 156 425t382 167q77 0 141.5 -19.5t108.5 -50t78 -72.5t52.5 -83t29.5 -86z" />
    <glyph glyph-name="egrave" unicode="&#xe8;" horiz-adv-x="1110" 
d="M813 594q4 20 4 41q0 39 -11.5 74.5t-36 67t-68.5 50.5t-103 19q-116 0 -199 -74t-110 -178h524zM262 438q-2 -14 -2 -35q0 -119 71.5 -191.5t178.5 -72.5q104 0 179 48t112 116l145 -94q-56 -103 -171.5 -171.5t-260.5 -68.5q-124 0 -223.5 49.5t-161 153t-61.5 246.5
q0 135 46 250t122 190t172.5 116.5t199.5 41.5q195 0 301.5 -109t106.5 -289q0 -84 -29 -180h-725zM715 1137h-142l-153 264h203z" />
    <glyph glyph-name="eacute" unicode="&#xe9;" horiz-adv-x="1110" 
d="M813 594q4 20 4 41q0 39 -11.5 74.5t-36 67t-68.5 50.5t-103 19q-116 0 -199 -74t-110 -178h524zM262 438q-2 -14 -2 -35q0 -119 71.5 -191.5t178.5 -72.5q104 0 179 48t112 116l145 -94q-56 -103 -171.5 -171.5t-260.5 -68.5q-124 0 -223.5 49.5t-161 153t-61.5 246.5
q0 135 46 250t122 190t172.5 116.5t199.5 41.5q195 0 301.5 -109t106.5 -289q0 -84 -29 -180h-725zM707 1137h-152l184 264h215z" />
    <glyph glyph-name="ecircumflex" unicode="&#xea;" horiz-adv-x="1110" 
d="M813 594q4 20 4 41q0 39 -11.5 74.5t-36 67t-68.5 50.5t-103 19q-116 0 -199 -74t-110 -178h524zM262 438q-2 -14 -2 -35q0 -119 71.5 -191.5t178.5 -72.5q104 0 179 48t112 116l145 -94q-56 -103 -171.5 -171.5t-260.5 -68.5q-124 0 -223.5 49.5t-161 153t-61.5 246.5
q0 135 46 250t122 190t172.5 116.5t199.5 41.5q195 0 301.5 -109t106.5 -289q0 -84 -29 -180h-725zM774 1380l158 -264h-158l-108 154l-156 -154h-168l240 264h192z" />
    <glyph glyph-name="edieresis" unicode="&#xeb;" horiz-adv-x="1110" 
d="M358 1257q0 54 38.5 94t92.5 40q48 0 78.5 -32.5t30.5 -76.5q0 -55 -41 -92t-94 -37q-44 0 -74.5 30.5t-30.5 73.5zM758 1257q0 54 38.5 94t92.5 40q48 0 78 -32.5t30 -76.5q0 -55 -41 -92t-94 -37q-44 0 -74 30.5t-30 73.5zM813 594q4 20 4 41q0 39 -11.5 74.5t-36 67
t-68.5 50.5t-103 19q-116 0 -199 -74t-110 -178h524zM262 438q-2 -14 -2 -35q0 -119 71.5 -191.5t178.5 -72.5q104 0 179 48t112 116l145 -94q-56 -103 -171.5 -171.5t-260.5 -68.5q-124 0 -223.5 49.5t-161 153t-61.5 246.5q0 135 46 250t122 190t172.5 116.5t199.5 41.5
q195 0 301.5 -109t106.5 -289q0 -84 -29 -180h-725z" />
    <glyph glyph-name="igrave" unicode="&#xec;" horiz-adv-x="501" 
d="M27 0l211 985h192l-211 -985h-192zM434 1137h-141l-154 264h203z" />
    <glyph glyph-name="iacute" unicode="&#xed;" horiz-adv-x="501" 
d="M27 0l211 985h192l-211 -985h-192zM420 1137h-152l185 264h215z" />
    <glyph glyph-name="icircumflex" unicode="&#xee;" horiz-adv-x="501" 
d="M27 0l211 985h192l-211 -985h-192zM33 1116l268 285h231l146 -285h-174l-107 166l-180 -166h-184z" />
    <glyph glyph-name="idieresis" unicode="&#xef;" horiz-adv-x="501" 
d="M27 0l211 985h192l-211 -985h-192zM139 1260q0 49 33.5 85.5t85.5 36.5q44 0 72 -28t28 -70q0 -52 -35.5 -85.5t-84.5 -33.5q-46 0 -72.5 26.5t-26.5 68.5zM428 1260q0 49 33.5 85.5t85.5 36.5q44 0 72 -28t28 -70q0 -52 -36 -85.5t-85 -33.5q-46 0 -72 26.5t-26 68.5z
" />
    <glyph glyph-name="eth" unicode="&#xf0;" horiz-adv-x="1150" 
d="M915 1176q134 -203 134 -478q0 -206 -65 -371t-191.5 -262.5t-294.5 -97.5q-135 0 -236 60t-151 159t-50 222q0 144 61.5 268.5t179.5 203t267 78.5q102 0 181.5 -39t117.5 -102q-26 167 -120 295l-252 -92l-52 133l197 74q-90 78 -207 119l78 147q174 -59 307 -199
l250 95l55 -136zM840 526q0 125 -75 196t-190 71q-61 0 -118 -25t-102.5 -71.5t-73 -121.5t-27.5 -167q0 -111 68 -191t184 -80q60 0 117.5 24.5t107 71t79.5 123t30 170.5z" />
    <glyph glyph-name="ntilde" unicode="&#xf1;" horiz-adv-x="1126" 
d="M342 1135q16 133 78.5 195.5t154.5 62.5q70 0 140 -50l24 -16q45 -29 74 -29q61 0 80 91h141q-24 -139 -82.5 -199t-148.5 -60q-69 0 -139 50l-25 16q-45 29 -74 29q-61 0 -80 -90h-143zM664 0l127 596q8 36 8 76q0 83 -45.5 127.5t-135.5 44.5q-57 0 -105 -23t-81 -63
t-55 -86.5t-33 -98.5l-123 -573h-192l172 811q24 100 24 174h189q0 -28 -13 -108q100 137 306 137q130 0 211 -80.5t81 -214.5q0 -39 -10 -94l-133 -625h-192z" />
    <glyph glyph-name="ograve" unicode="&#xf2;" horiz-adv-x="1153" 
d="M594 844q-135 0 -232.5 -112t-97.5 -304q0 -131 67.5 -209t182.5 -78q137 0 234.5 113t97.5 305q0 130 -67.5 207.5t-184.5 77.5zM1042 563q0 -165 -70 -301t-193 -214.5t-273 -78.5q-135 0 -236 62.5t-151.5 164.5t-50.5 228q0 253 154 422.5t384 169.5q105 0 189 -35.5
t137.5 -98t81.5 -144t28 -175.5zM705 1137h-142l-153 264h202z" />
    <glyph glyph-name="oacute" unicode="&#xf3;" horiz-adv-x="1153" 
d="M594 844q-135 0 -232.5 -112t-97.5 -304q0 -131 67.5 -209t182.5 -78q137 0 234.5 113t97.5 305q0 130 -67.5 207.5t-184.5 77.5zM1042 563q0 -165 -70 -301t-193 -214.5t-273 -78.5q-135 0 -236 62.5t-151.5 164.5t-50.5 228q0 253 154 422.5t384 169.5q105 0 189 -35.5
t137.5 -98t81.5 -144t28 -175.5zM727 1137h-152l185 264h215z" />
    <glyph glyph-name="ocircumflex" unicode="&#xf4;" horiz-adv-x="1153" 
d="M594 844q-135 0 -232.5 -112t-97.5 -304q0 -131 67.5 -209t182.5 -78q137 0 234.5 113t97.5 305q0 130 -67.5 207.5t-184.5 77.5zM1042 563q0 -165 -70 -301t-193 -214.5t-273 -78.5q-135 0 -236 62.5t-151.5 164.5t-50.5 228q0 253 154 422.5t384 169.5q105 0 189 -35.5
t137.5 -98t81.5 -144t28 -175.5zM793 1380l157 -264h-157l-109 154l-156 -154h-168l240 264h193z" />
    <glyph glyph-name="otilde" unicode="&#xf5;" horiz-adv-x="1153" 
d="M594 844q-135 0 -232.5 -112t-97.5 -304q0 -131 67.5 -209t182.5 -78q137 0 234.5 113t97.5 305q0 130 -67.5 207.5t-184.5 77.5zM1042 563q0 -165 -70 -301t-193 -214.5t-273 -78.5q-135 0 -236 62.5t-151.5 164.5t-50.5 228q0 253 154 422.5t384 169.5q105 0 189 -35.5
t137.5 -98t81.5 -144t28 -175.5zM979 1366q-22 -114 -80 -171.5t-135 -57.5q-34 0 -61.5 15t-43 33t-36.5 33t-43 15q-20 0 -37.5 -24t-26.5 -68h-135q22 115 80.5 172t136.5 57q34 0 61.5 -15t43 -33t36.5 -33t43 -15q20 0 37.5 24.5t26.5 67.5h133z" />
    <glyph glyph-name="odieresis" unicode="&#xf6;" horiz-adv-x="1153" 
d="M377 1257q0 54 38.5 94t92.5 40q48 0 78 -32.5t30 -76.5q0 -55 -41 -92t-94 -37q-44 0 -74 30.5t-30 73.5zM776 1257q0 54 38.5 94t92.5 40q48 0 78.5 -32.5t30.5 -76.5q0 -55 -41 -92t-94 -37q-44 0 -74.5 30.5t-30.5 73.5zM594 844q-135 0 -232.5 -112t-97.5 -304
q0 -131 67.5 -209t182.5 -78q137 0 234.5 113t97.5 305q0 130 -67.5 207.5t-184.5 77.5zM1042 563q0 -165 -70 -301t-193 -214.5t-273 -78.5q-135 0 -236 62.5t-151.5 164.5t-50.5 228q0 253 154 422.5t384 169.5q105 0 189 -35.5t137.5 -98t81.5 -144t28 -175.5z" />
    <glyph glyph-name="divide" unicode="&#xf7;" horiz-adv-x="1144" 
d="M436 952q0 54 39.5 92.5t93.5 38.5t92.5 -38.5t38.5 -92.5t-38.5 -93.5t-92.5 -39.5t-93.5 39.5t-39.5 93.5zM436 225q0 54 39.5 92.5t93.5 38.5t92.5 -38.5t38.5 -92.5t-38.5 -93.5t-92.5 -39.5t-93.5 39.5t-39.5 93.5zM102 674h936v-170h-936v170z" />
    <glyph glyph-name="oslash" unicode="&#xf8;" horiz-adv-x="1153" 
d="M-18 53l141 135q-55 104 -55 236q0 253 154 422.5t384 169.5q168 0 283 -94l125 120l106 -110l-135 -129q57 -99 57 -240q0 -165 -70 -301t-193 -214.5t-273 -78.5q-174 0 -287 99l-131 -125zM846 559q0 51 -12 98l-480 -460q65 -56 160 -56q137 0 234.5 113t97.5 305z
M594 844q-135 0 -232.5 -112t-97.5 -304q0 -55 10 -94l478 457q-65 53 -158 53z" />
    <glyph glyph-name="ugrave" unicode="&#xf9;" horiz-adv-x="1112" 
d="M883 256q-27 -122 -27 -223q0 -8 0.5 -14.5t0.5 -10t1 -6.5v-2h-184v2q-1 3 -1.5 7.5t-1 11t-1 16t-0.5 20.5q0 35 2 58q-47 -66 -119 -100.5t-145 -34.5q-150 0 -234 86.5t-84 230.5q0 55 12 113l123 575h193l-121 -571q-10 -55 -10 -92q0 -81 41.5 -130t132.5 -49
q103 0 172.5 77t91.5 190l121 575h190zM725 1137h-141l-154 264h203z" />
    <glyph glyph-name="uacute" unicode="&#xfa;" horiz-adv-x="1112" 
d="M883 256q-27 -122 -27 -223q0 -8 0.5 -14.5t0.5 -10t1 -6.5v-2h-184v2q-1 3 -1.5 7.5t-1 11t-1 16t-0.5 20.5q0 35 2 58q-47 -66 -119 -100.5t-145 -34.5q-150 0 -234 86.5t-84 230.5q0 55 12 113l123 575h193l-121 -571q-10 -55 -10 -92q0 -81 41.5 -130t132.5 -49
q103 0 172.5 77t91.5 190l121 575h190zM709 1137h-152l184 264h215z" />
    <glyph glyph-name="ucircumflex" unicode="&#xfb;" horiz-adv-x="1112" 
d="M883 256q-27 -122 -27 -223q0 -8 0.5 -14.5t0.5 -10t1 -6.5v-2h-184v2q-1 3 -1.5 7.5t-1 11t-1 16t-0.5 20.5q0 35 2 58q-47 -66 -119 -100.5t-145 -34.5q-150 0 -234 86.5t-84 230.5q0 55 12 113l123 575h193l-121 -571q-10 -55 -10 -92q0 -81 41.5 -130t132.5 -49
q103 0 172.5 77t91.5 190l121 575h190zM322 1116l268 285h231l146 -285h-174l-107 166l-180 -166h-184z" />
    <glyph glyph-name="udieresis" unicode="&#xfc;" horiz-adv-x="1112" 
d="M883 256q-27 -122 -27 -223q0 -8 0.5 -14.5t0.5 -10t1 -6.5v-2h-184v2q-1 3 -1.5 7.5t-1 11t-1 16t-0.5 20.5q0 35 2 58q-47 -66 -119 -100.5t-145 -34.5q-150 0 -234 86.5t-84 230.5q0 55 12 113l123 575h193l-121 -571q-10 -55 -10 -92q0 -81 41.5 -130t132.5 -49
q103 0 172.5 77t91.5 190l121 575h190zM365 1257q0 54 38.5 94t92.5 40q48 0 78 -32.5t30 -76.5q0 -55 -41 -92t-94 -37q-44 0 -74 30.5t-30 73.5zM764 1257q0 54 38.5 94t92.5 40q48 0 78.5 -32.5t30.5 -76.5q0 -55 -41.5 -92t-94.5 -37q-44 0 -74 30.5t-30 73.5z" />
    <glyph glyph-name="yacute" unicode="&#xfd;" horiz-adv-x="1028" 
d="M-53 -389l370 559l-241 815h209l174 -618l385 618h227l-903 -1374h-221zM625 1137h-152l184 264h215z" />
    <glyph glyph-name="thorn" unicode="&#xfe;" horiz-adv-x="1200" 
d="M342 1483h193l-127 -602q56 64 136.5 97.5t170.5 33.5q124 0 210 -57t125.5 -150.5t39.5 -214.5q0 -176 -65 -317t-183.5 -220.5t-268.5 -79.5q-105 0 -193 47t-130 130l-115 -539h-190zM643 838q-134 0 -231 -113t-97 -305q0 -130 65 -202.5t181 -72.5q136 0 234 116
t98 312q0 128 -66 196.5t-184 68.5z" />
    <glyph glyph-name="ydieresis" unicode="&#xff;" horiz-adv-x="1028" 
d="M281 1257q0 54 38.5 94t92.5 40q48 0 78 -32.5t30 -76.5q0 -55 -41 -92t-94 -37q-44 0 -74 30.5t-30 73.5zM680 1257q0 54 38.5 94t92.5 40q48 0 78.5 -32.5t30.5 -76.5q0 -55 -41.5 -92t-94.5 -37q-44 0 -74 30.5t-30 73.5zM-53 -389l370 559l-241 815h209l174 -618
l385 618h227l-903 -1374h-221z" />
    <glyph glyph-name="Amacron" unicode="&#x100;" horiz-adv-x="1406" 
d="M979 406h-608l-236 -406h-227l866 1452h221l252 -1452h-203zM479 592h469l-102 631zM598 1595l37 170h600l-37 -170h-600z" />
    <glyph glyph-name="amacron" unicode="&#x101;" horiz-adv-x="1183" 
d="M412 1182l34 166h560l-35 -166h-559zM592 848q-102 0 -179.5 -68t-114 -165t-36.5 -201q0 -122 59.5 -195.5t174.5 -73.5q140 0 232.5 128.5t92.5 320.5q0 112 -58 183t-171 71zM1106 985l-154 -729q-22 -99 -22 -223q0 -7 0.5 -15t1.5 -13v-5h-182v2q-1 3 -1.5 7.5
t-1.5 11t-1.5 16t-0.5 20.5q0 28 3 68q-120 -145 -291 -145q-185 0 -287 122t-102 310q0 159 64.5 296.5t183.5 221.5t266 84q116 0 193.5 -43.5t113.5 -110.5l26 125h191z" />
    <glyph glyph-name="Abreve" unicode="&#x102;" horiz-adv-x="1406" 
d="M979 406h-608l-236 -406h-227l866 1452h221l252 -1452h-203zM479 592h469l-102 631zM897 1554q-130 0 -192 63t-39 179h137q-8 -50 21 -81.5t98 -31.5q62 0 102 31.5t53 81.5h148q-23 -116 -109 -179t-219 -63z" />
    <glyph glyph-name="abreve" unicode="&#x103;" horiz-adv-x="1183" 
d="M592 848q-102 0 -179.5 -68t-114 -165t-36.5 -201q0 -122 59.5 -195.5t174.5 -73.5q140 0 232.5 128.5t92.5 320.5q0 112 -58 183t-171 71zM1106 985l-154 -729q-22 -99 -22 -223q0 -7 0.5 -15t1.5 -13v-5h-182v2q-1 3 -1.5 7.5t-1.5 11t-1.5 16t-0.5 20.5q0 28 3 68
q-120 -145 -291 -145q-185 0 -287 122t-102 310q0 159 64.5 296.5t183.5 221.5t266 84q116 0 193.5 -43.5t113.5 -110.5l26 125h191zM653 1116q-130 0 -192 63t-39 179h137q-8 -50 21 -81.5t98 -31.5q62 0 102.5 31.5t53.5 81.5h147q-23 -116 -109 -179t-219 -63z" />
    <glyph glyph-name="Aogonek" unicode="&#x104;" horiz-adv-x="1406" 
d="M979 406h-608l-236 -406h-227l866 1452h221l252 -1452q-39 -16 -73.5 -35.5t-70 -47.5t-56.5 -64.5t-21 -75.5t25 -58.5t65 -19.5q38 0 68 6l-29 -131q-50 -16 -104 -16q-86 0 -138.5 47t-52.5 125q0 169 189 270h-5zM479 592h469l-102 631z" />
    <glyph glyph-name="aogonek" unicode="&#x105;" horiz-adv-x="1183" 
d="M1106 985l-154 -729q-22 -99 -22 -223q0 -7 0.5 -15t1.5 -13v-5q-39 -16 -73.5 -35.5t-70 -47.5t-56.5 -64.5t-21 -75.5t25 -58.5t65 -19.5q37 0 67 6l-28 -131q-50 -16 -105 -16q-86 0 -138 47t-52 125q0 177 203 276q-3 9 -3 51q0 28 3 68q-120 -145 -291 -145
q-185 0 -287 122t-102 310q0 159 64.5 296.5t183.5 221.5t266 84q116 0 193.5 -43.5t113.5 -110.5l26 125h191zM592 848q-102 0 -179.5 -68t-114 -165t-36.5 -201q0 -122 59.5 -195.5t174.5 -73.5q140 0 232.5 128.5t92.5 320.5q0 112 -58 183t-171 71z" />
    <glyph glyph-name="Cacute" unicode="&#x106;" horiz-adv-x="1497" 
d="M909 1483q125 0 229.5 -36t176 -99.5t117.5 -146t65 -179.5l-190 -55q-31 147 -139 239t-279 92q-129 0 -236.5 -56t-176.5 -150t-106.5 -213.5t-37.5 -249.5q0 -223 113.5 -350t314.5 -127q156 0 276 82.5t191 244.5l176 -71q-93 -208 -262.5 -323.5t-399.5 -115.5
q-269 0 -441.5 180.5t-172.5 466.5q0 165 44 307t119.5 243.5t176 174t213 107.5t229.5 35zM1065 1554h-199l244 244h268z" />
    <glyph glyph-name="cacute" unicode="&#x107;" horiz-adv-x="1093" 
d="M684 1112h-172l236 299h253zM838 643q-55 201 -244 201q-64 0 -123 -27t-106 -78t-75 -132t-28 -181q0 -131 72.5 -208t195.5 -77q186 0 275 187l164 -72q-66 -127 -177 -207t-270 -80q-207 0 -330.5 129t-123.5 326q0 258 156 425t382 167q77 0 141.5 -19.5t108.5 -50
t78 -72.5t52.5 -83t29.5 -86z" />
    <glyph glyph-name="Ccircumflex" unicode="&#x108;" horiz-adv-x="1497" 
d="M909 1483q125 0 229.5 -36t176 -99.5t117.5 -146t65 -179.5l-190 -55q-31 147 -139 239t-279 92q-129 0 -236.5 -56t-176.5 -150t-106.5 -213.5t-37.5 -249.5q0 -223 113.5 -350t314.5 -127q156 0 276 82.5t191 244.5l176 -71q-93 -208 -262.5 -323.5t-399.5 -115.5
q-269 0 -441.5 180.5t-172.5 466.5q0 165 44 307t119.5 243.5t176 174t213 107.5t229.5 35zM608 1554l277 244h245l185 -244h-170l-152 132l-207 -132h-178z" />
    <glyph glyph-name="ccircumflex" unicode="&#x109;" horiz-adv-x="1093" 
d="M297 1116l268 285h232l145 -285h-174l-106 166l-181 -166h-184zM838 643q-55 201 -244 201q-64 0 -123 -27t-106 -78t-75 -132t-28 -181q0 -131 72.5 -208t195.5 -77q186 0 275 187l164 -72q-66 -127 -177 -207t-270 -80q-207 0 -330.5 129t-123.5 326q0 258 156 425
t382 167q77 0 141.5 -19.5t108.5 -50t78 -72.5t52.5 -83t29.5 -86z" />
    <glyph glyph-name="Cdotaccent" unicode="&#x10a;" horiz-adv-x="1497" 
d="M909 1483q125 0 229.5 -36t176 -99.5t117.5 -146t65 -179.5l-190 -55q-31 147 -139 239t-279 92q-129 0 -236.5 -56t-176.5 -150t-106.5 -213.5t-37.5 -249.5q0 -223 113.5 -350t314.5 -127q156 0 276 82.5t191 244.5l176 -71q-93 -208 -262.5 -323.5t-399.5 -115.5
q-269 0 -441.5 180.5t-172.5 466.5q0 165 44 307t119.5 243.5t176 174t213 107.5t229.5 35zM842 1667q0 60 41.5 101.5t101.5 41.5q53 0 87 -34t34 -82q0 -60 -44 -104t-101 -44q-53 0 -86 34.5t-33 86.5z" />
    <glyph glyph-name="cdotaccent" unicode="&#x10b;" horiz-adv-x="1093" 
d="M528 1245q0 57 43 102.5t103 45.5q53 0 86 -34t33 -83q0 -60 -44.5 -104t-101.5 -44q-53 0 -86 33.5t-33 83.5zM838 643q-55 201 -244 201q-64 0 -123 -27t-106 -78t-75 -132t-28 -181q0 -131 72.5 -208t195.5 -77q186 0 275 187l164 -72q-66 -127 -177 -207t-270 -80
q-207 0 -330.5 129t-123.5 326q0 258 156 425t382 167q77 0 141.5 -19.5t108.5 -50t78 -72.5t52.5 -83t29.5 -86z" />
    <glyph glyph-name="Ccaron" unicode="&#x10c;" horiz-adv-x="1497" 
d="M909 1483q125 0 229.5 -36t176 -99.5t117.5 -146t65 -179.5l-190 -55q-31 147 -139 239t-279 92q-129 0 -236.5 -56t-176.5 -150t-106.5 -213.5t-37.5 -249.5q0 -223 113.5 -350t314.5 -127q156 0 276 82.5t191 244.5l176 -71q-93 -208 -262.5 -323.5t-399.5 -115.5
q-269 0 -441.5 180.5t-172.5 466.5q0 165 44 307t119.5 243.5t176 174t213 107.5t229.5 35zM1354 1798l-287 -244h-246l-174 244h168l141 -131l207 131h191z" />
    <glyph glyph-name="ccaron" unicode="&#x10d;" horiz-adv-x="1093" 
d="M1057 1407l-266 -291h-236l-143 291h172l106 -166l180 166h187zM838 643q-55 201 -244 201q-64 0 -123 -27t-106 -78t-75 -132t-28 -181q0 -131 72.5 -208t195.5 -77q186 0 275 187l164 -72q-66 -127 -177 -207t-270 -80q-207 0 -330.5 129t-123.5 326q0 258 156 425
t382 167q77 0 141.5 -19.5t108.5 -50t78 -72.5t52.5 -83t29.5 -86z" />
    <glyph glyph-name="Dcaron" unicode="&#x10e;" horiz-adv-x="1445" 
d="M1270 1798l-287 -244h-246l-174 244h168l141 -131l207 131h191zM602 178q83 0 164.5 27t156 83.5t131 136t90.5 192t34 243.5q0 198 -121.5 306t-323.5 108h-194l-234 -1096h297zM68 0l307 1452h395q278 0 443 -158t165 -422q0 -165 -43.5 -307.5t-118.5 -245
t-174.5 -175.5t-211 -108.5t-228.5 -35.5h-534z" />
    <glyph glyph-name="dcaron" unicode="&#x10f;" horiz-adv-x="1181" 
d="M1389 1116h-148l135 367h221zM952 256q-26 -118 -26 -223q0 -8 0.5 -14.5t0.5 -10t1 -6.5v-2h-180v2q-1 3 -1.5 7.5t-1.5 11t-1.5 16t-0.5 20.5q0 1 5 68q-120 -145 -291 -145q-185 0 -287 122t-102 310q0 159 64.5 296.5t183.5 221.5t266 84q116 0 193.5 -43.5
t113.5 -110.5l131 623h190zM592 848q-102 0 -179.5 -68t-114 -165t-36.5 -201q0 -122 59.5 -195.5t174.5 -73.5q140 0 232.5 128.5t92.5 320.5q0 112 -58 183t-171 71z" />
    <glyph glyph-name="Dcroat" unicode="&#x110;" horiz-adv-x="1449" 
d="M57 631l33 155h148l141 666h395q278 0 443 -158t165 -422q0 -165 -43.5 -307.5t-118.5 -245t-174.5 -175.5t-211 -108.5t-228.5 -35.5h-534l133 631h-148zM606 178q83 0 164.5 27t156 83.5t131 136t90.5 192t34 243.5q0 198 -121.5 306t-323.5 108h-194l-105 -488h260
l-32 -155h-260l-97 -453h297z" />
    <glyph glyph-name="dslash" unicode="&#x111;" horiz-adv-x="1181" 
d="M662 1143l30 143h287l41 197h190l-41 -197h134l-31 -143h-133l-187 -887q-26 -118 -26 -223q0 -8 0.5 -14.5t0.5 -10t1 -6.5v-2h-180v2q-1 3 -1.5 7.5t-1.5 11t-1.5 16t-0.5 20.5q0 1 5 68q-120 -145 -291 -145q-185 0 -287 122t-102 310q0 159 64.5 296.5t183.5 221.5
t266 84q116 0 193.5 -43.5t113.5 -110.5l59 283h-286zM592 848q-102 0 -179.5 -68t-114 -165t-36.5 -201q0 -122 59.5 -195.5t174.5 -73.5q140 0 232.5 128.5t92.5 320.5q0 112 -58 183t-171 71z" />
    <glyph glyph-name="Emacron" unicode="&#x112;" horiz-adv-x="1177" 
d="M68 0l307 1452h872l-39 -186h-671l-95 -447h609l-41 -188h-609l-94 -445h672l-39 -186h-872zM532 1595l37 170h600l-36 -170h-601z" />
    <glyph glyph-name="emacron" unicode="&#x113;" horiz-adv-x="1110" 
d="M391 1182l35 166h559l-35 -166h-559zM813 594q4 20 4 41q0 39 -11.5 74.5t-36 67t-68.5 50.5t-103 19q-116 0 -199 -74t-110 -178h524zM262 438q-2 -14 -2 -35q0 -119 71.5 -191.5t178.5 -72.5q104 0 179 48t112 116l145 -94q-56 -103 -171.5 -171.5t-260.5 -68.5
q-124 0 -223.5 49.5t-161 153t-61.5 246.5q0 135 46 250t122 190t172.5 116.5t199.5 41.5q195 0 301.5 -109t106.5 -289q0 -84 -29 -180h-725z" />
    <glyph glyph-name="Ebreve" unicode="&#x114;" horiz-adv-x="1177" 
d="M68 0l307 1452h872l-39 -186h-671l-95 -447h609l-41 -188h-609l-94 -445h672l-39 -186h-872zM819 1546q-135 0 -209.5 65.5t-74.5 166.5q0 18 2 32h161q-2 -14 -2 -16q0 -40 31.5 -67t103.5 -27q80 0 124 33t57 77h162q-33 -111 -123.5 -187.5t-231.5 -76.5z" />
    <glyph glyph-name="ebreve" unicode="&#x115;" horiz-adv-x="1110" 
d="M664 1114q-117 0 -183.5 70t-66.5 170q0 28 6 55h141q-2 -14 -2 -16q0 -47 29.5 -81t93.5 -34q71 0 117.5 40t60.5 91h158q-28 -122 -119 -208.5t-235 -86.5zM813 594q4 20 4 41q0 39 -11.5 74.5t-36 67t-68.5 50.5t-103 19q-116 0 -199 -74t-110 -178h524zM262 438
q-2 -14 -2 -35q0 -119 71.5 -191.5t178.5 -72.5q104 0 179 48t112 116l145 -94q-56 -103 -171.5 -171.5t-260.5 -68.5q-124 0 -223.5 49.5t-161 153t-61.5 246.5q0 135 46 250t122 190t172.5 116.5t199.5 41.5q195 0 301.5 -109t106.5 -289q0 -84 -29 -180h-725z" />
    <glyph glyph-name="Edotaccent" unicode="&#x116;" horiz-adv-x="1177" 
d="M68 0l307 1452h872l-39 -186h-671l-95 -447h609l-41 -188h-609l-94 -445h672l-39 -186h-872zM717 1667q0 60 41.5 101.5t101.5 41.5q53 0 87 -34t34 -82q0 -60 -44 -104t-101 -44q-53 0 -86 34.5t-33 86.5z" />
    <glyph glyph-name="edotaccent" unicode="&#x117;" horiz-adv-x="1110" 
d="M522 1245q0 57 43 102.5t103 45.5q53 0 85.5 -34t32.5 -83q0 -60 -44 -104t-101 -44q-53 0 -86 33.5t-33 83.5zM813 594q4 20 4 41q0 39 -11.5 74.5t-36 67t-68.5 50.5t-103 19q-116 0 -199 -74t-110 -178h524zM262 438q-2 -14 -2 -35q0 -119 71.5 -191.5t178.5 -72.5
q104 0 179 48t112 116l145 -94q-56 -103 -171.5 -171.5t-260.5 -68.5q-124 0 -223.5 49.5t-161 153t-61.5 246.5q0 135 46 250t122 190t172.5 116.5t199.5 41.5q195 0 301.5 -109t106.5 -289q0 -84 -29 -180h-725z" />
    <glyph glyph-name="Eogonek" unicode="&#x118;" horiz-adv-x="1177" 
d="M743 -442q-86 0 -138 47t-52 125q0 93 53.5 160t134.5 110h-673l307 1452h872l-39 -186h-671l-95 -447h609l-41 -188h-609l-94 -445h672l-39 -186q-39 -16 -73.5 -35.5t-70 -47.5t-56.5 -64.5t-21 -75.5t25 -58.5t65 -19.5q38 0 68 6l-29 -131q-50 -16 -105 -16z" />
    <glyph glyph-name="eogonek" unicode="&#x119;" horiz-adv-x="1110" 
d="M262 438q-2 -14 -2 -35q0 -119 71.5 -191.5t178.5 -72.5q104 0 179 48t112 116l145 -94q-73 -136 -246 -207q-52 -19 -100.5 -48t-87.5 -77t-39 -100q0 -39 25 -58.5t65 -19.5q38 0 68 6l-29 -131q-50 -16 -104 -16q-86 0 -138.5 47t-52.5 125q0 146 144 243
q-169 18 -276 134.5t-107 310.5q0 135 46 250t122 190t172.5 116.5t199.5 41.5q195 0 301.5 -109t106.5 -289q0 -84 -29 -180h-725zM813 594q4 20 4 41q0 39 -11.5 74.5t-36 67t-68.5 50.5t-103 19q-116 0 -199 -74t-110 -178h524z" />
    <glyph glyph-name="Ecaron" unicode="&#x11a;" horiz-adv-x="1177" 
d="M68 0l307 1452h872l-39 -186h-671l-95 -447h609l-41 -188h-609l-94 -445h672l-39 -186h-872zM1239 1798l-287 -244h-245l-175 244h168l142 -131l207 131h190z" />
    <glyph glyph-name="ecaron" unicode="&#x11b;" horiz-adv-x="1110" 
d="M1006 1407l-267 -291h-235l-144 291h172l107 -166l180 166h187zM813 594q4 20 4 41q0 39 -11.5 74.5t-36 67t-68.5 50.5t-103 19q-116 0 -199 -74t-110 -178h524zM262 438q-2 -14 -2 -35q0 -119 71.5 -191.5t178.5 -72.5q104 0 179 48t112 116l145 -94
q-56 -103 -171.5 -171.5t-260.5 -68.5q-124 0 -223.5 49.5t-161 153t-61.5 246.5q0 135 46 250t122 190t172.5 116.5t199.5 41.5q195 0 301.5 -109t106.5 -289q0 -84 -29 -180h-725z" />
    <glyph glyph-name="Gcircumflex" unicode="&#x11c;" horiz-adv-x="1562" 
d="M891 1298q-169 0 -299 -94.5t-196 -245.5t-66 -329q0 -221 115.5 -349t316.5 -128q164 0 301 102t180 276h-504l37 181h694l-149 -711h-156l17 164q-168 -195 -439 -195q-168 0 -307 76.5t-224 225.5t-85 345q0 165 44.5 307.5t120.5 243.5t176.5 173.5t213 107.5
t229.5 35q125 0 229.5 -36t176 -99.5t117.5 -146t65 -179.5l-190 -55q-31 147 -139 239t-279 92zM608 1554l277 244h245l185 -244h-170l-152 132l-207 -132h-178z" />
    <glyph glyph-name="gcircumflex" unicode="&#x11d;" horiz-adv-x="1179" 
d="M377 1116l268 285h232l145 -285h-174l-107 166l-180 -166h-184zM825 600q0 44 -14 84.5t-41.5 75.5t-75.5 56.5t-110 21.5q-135 0 -224.5 -99t-89.5 -266q0 -121 63 -192.5t181 -71.5q142 0 226.5 104.5t84.5 286.5zM137 -16v-15q0 -95 60 -158t182 -63q265 0 342 340
l16 80q-34 -53 -103.5 -87t-158.5 -34q-185 0 -292 117.5t-107 296.5q0 151 63.5 275.5t178.5 197t260 72.5q104 0 184 -40t121 -112l26 131h197l-184 -891q-18 -83 -43 -151t-69.5 -138t-102.5 -117.5t-145.5 -77.5t-194.5 -30q-95 0 -174.5 29.5t-130.5 79t-79 112
t-28 129.5v11z" />
    <glyph glyph-name="Gbreve" unicode="&#x11e;" horiz-adv-x="1562" 
d="M891 1298q-169 0 -299 -94.5t-196 -245.5t-66 -329q0 -221 115.5 -349t316.5 -128q164 0 301 102t180 276h-504l37 181h694l-149 -711h-156l17 164q-168 -195 -439 -195q-168 0 -307 76.5t-224 225.5t-85 345q0 165 44.5 307.5t120.5 243.5t176.5 173.5t213 107.5
t229.5 35q125 0 229.5 -36t176 -99.5t117.5 -146t65 -179.5l-190 -55q-31 147 -139 239t-279 92zM977 1546q-135 0 -210 65.5t-75 166.5q0 18 2 32h162q-2 -14 -2 -16q0 -40 31.5 -67t103.5 -27q80 0 123.5 32.5t56.5 77.5h162q-33 -111 -123 -187.5t-231 -76.5z" />
    <glyph glyph-name="gbreve" unicode="&#x11f;" horiz-adv-x="1179" 
d="M698 1114q-117 0 -183 70t-66 170q0 28 6 55h141q-2 -14 -2 -16q0 -47 29.5 -81t93.5 -34q71 0 117.5 40t60.5 91h158q-28 -122 -119.5 -208.5t-235.5 -86.5zM825 600q0 44 -14 84.5t-41.5 75.5t-75.5 56.5t-110 21.5q-135 0 -224.5 -99t-89.5 -266q0 -121 63 -192.5
t181 -71.5q142 0 226.5 104.5t84.5 286.5zM137 -16v-15q0 -95 60 -158t182 -63q265 0 342 340l16 80q-34 -53 -103.5 -87t-158.5 -34q-185 0 -292 117.5t-107 296.5q0 151 63.5 275.5t178.5 197t260 72.5q104 0 184 -40t121 -112l26 131h197l-184 -891q-18 -83 -43 -151
t-69.5 -138t-102.5 -117.5t-145.5 -77.5t-194.5 -30q-95 0 -174.5 29.5t-130.5 79t-79 112t-28 129.5v11z" />
    <glyph glyph-name="Gdotaccent" unicode="&#x120;" horiz-adv-x="1562" 
d="M891 1298q-169 0 -299 -94.5t-196 -245.5t-66 -329q0 -221 115.5 -349t316.5 -128q164 0 301 102t180 276h-504l37 181h694l-149 -711h-156l17 164q-168 -195 -439 -195q-168 0 -307 76.5t-224 225.5t-85 345q0 165 44.5 307.5t120.5 243.5t176.5 173.5t213 107.5
t229.5 35q125 0 229.5 -36t176 -99.5t117.5 -146t65 -179.5l-190 -55q-31 147 -139 239t-279 92zM852 1667q0 60 41.5 101.5t101.5 41.5q53 0 87 -34t34 -82q0 -60 -44 -104t-101 -44q-53 0 -86 34.5t-33 86.5z" />
    <glyph glyph-name="gdotaccent" unicode="&#x121;" horiz-adv-x="1179" 
d="M588 1245q0 57 42.5 102.5t102.5 45.5q53 0 86 -34t33 -83q0 -60 -44 -104t-101 -44q-53 0 -86 33.5t-33 83.5zM825 600q0 44 -14 84.5t-41.5 75.5t-75.5 56.5t-110 21.5q-135 0 -224.5 -99t-89.5 -266q0 -121 63 -192.5t181 -71.5q142 0 226.5 104.5t84.5 286.5z
M137 -16v-15q0 -95 60 -158t182 -63q265 0 342 340l16 80q-34 -53 -103.5 -87t-158.5 -34q-185 0 -292 117.5t-107 296.5q0 151 63.5 275.5t178.5 197t260 72.5q104 0 184 -40t121 -112l26 131h197l-184 -891q-18 -83 -43 -151t-69.5 -138t-102.5 -117.5t-145.5 -77.5
t-194.5 -30q-95 0 -174.5 29.5t-130.5 79t-79 112t-28 129.5v11z" />
    <glyph glyph-name="Gcommaaccent" unicode="&#x122;" horiz-adv-x="1562" 
d="M891 1298q-169 0 -299 -94.5t-196 -245.5t-66 -329q0 -221 115.5 -349t316.5 -128q164 0 301 102t180 276h-504l37 181h694l-149 -711h-156l17 164q-168 -195 -439 -195q-168 0 -307 76.5t-224 225.5t-85 345q0 165 44.5 307.5t120.5 243.5t176.5 173.5t213 107.5
t229.5 35q125 0 229.5 -36t176 -99.5t117.5 -146t65 -179.5l-190 -55q-31 147 -139 239t-279 92zM532 -188q0 50 38 82t94 32q48 0 84 -32t36 -93q0 -49 -16.5 -90.5t-43.5 -68.5t-61 -45.5t-68 -26.5t-67 -8q-14 0 -28 2l18 80q51 0 93.5 19.5t58.5 64.5q-12 -9 -37 -9
q-44 0 -72.5 26t-28.5 67z" />
    <glyph glyph-name="gcommaaccent" unicode="&#x123;" horiz-adv-x="1179" 
d="M803 1221q0 -51 -35.5 -86t-89.5 -35q-44 0 -82.5 31.5t-38.5 91.5q0 64 26 113.5t67.5 77t85.5 41t87 13.5h15l-17 -82h-10q-51 0 -90.5 -23.5t-50.5 -59.5q19 8 39 8q43 0 68.5 -26t25.5 -64zM825 600q0 44 -14 84.5t-41.5 75.5t-75.5 56.5t-110 21.5
q-135 0 -224.5 -99t-89.5 -266q0 -121 63 -192.5t181 -71.5q142 0 226.5 104.5t84.5 286.5zM137 -16v-15q0 -95 60 -158t182 -63q265 0 342 340l16 80q-34 -53 -103.5 -87t-158.5 -34q-185 0 -292 117.5t-107 296.5q0 151 63.5 275.5t178.5 197t260 72.5q104 0 184 -40
t121 -112l26 131h197l-184 -891q-18 -83 -43 -151t-69.5 -138t-102.5 -117.5t-145.5 -77.5t-194.5 -30q-95 0 -174.5 29.5t-130.5 79t-79 112t-28 129.5v11z" />
    <glyph glyph-name="Hcircumflex" unicode="&#x124;" horiz-adv-x="1470" 
d="M580 1554l276 244h246l184 -244h-170l-151 132l-207 -132h-178zM948 0l135 645h-680l-135 -645h-200l307 1452h200l-131 -621h680l131 621h201l-307 -1452h-201z" />
    <glyph glyph-name="hcircumflex" unicode="&#x125;" horiz-adv-x="1124" 
d="M662 0l126 596q9 41 9 76q0 83 -45.5 127.5t-135.5 44.5q-57 0 -105 -23t-81 -63t-55 -86.5t-33 -98.5l-123 -573h-192l315 1483h193l-123 -580q100 111 282 111q137 0 220 -79.5t83 -213.5q0 -41 -10 -96l-133 -625h-192zM102 1575l277 244h246l184 -244h-170l-152 131
l-206 -131h-179z" />
    <glyph glyph-name="Hbar" unicode="&#x126;" horiz-adv-x="1484" 
d="M170 1204h160l53 248h201l-54 -248h680l54 248h200l-53 -248h164l-31 -153h-166l-221 -1051h-201l136 645h-680l-136 -645h-200l221 1051h-158zM1133 831l45 220h-680l-45 -220h680z" />
    <glyph glyph-name="hbar" unicode="&#x127;" horiz-adv-x="1124" 
d="M662 0l126 596q9 41 9 76q0 83 -45.5 127.5t-135.5 44.5q-57 0 -105 -23t-81 -63t-55 -86.5t-33 -98.5l-123 -573h-192l241 1141h-166l35 155h164l41 187h193l-41 -187h260l-35 -155h-258l-49 -238q100 111 282 111q137 0 220 -79.5t83 -213.5q0 -41 -10 -96l-133 -625
h-192z" />
    <glyph glyph-name="Itilde" unicode="&#x128;" horiz-adv-x="593" 
d="M68 0l307 1452h205l-308 -1452h-204zM809 1804q-22 -114 -80 -171.5t-135 -57.5q-34 0 -61.5 15t-43 33t-36.5 33t-43 15q-20 0 -37.5 -24t-26.5 -68h-135q22 115 80.5 172t136.5 57q34 0 61.5 -15t43 -33t36.5 -33t43 -15q20 0 37.5 24.5t26.5 67.5h133z" />
    <glyph glyph-name="itilde" unicode="&#x129;" horiz-adv-x="501" 
d="M27 0l211 985h192l-211 -985h-192zM659 1366q-22 -114 -80 -171.5t-135 -57.5q-34 0 -61.5 15t-43 33t-36.5 33t-43 15q-20 0 -37 -24t-26 -68h-136q22 115 81 172t137 57q34 0 61.5 -15t43 -33t36.5 -33t43 -15q20 0 37 24.5t26 67.5h133z" />
    <glyph glyph-name="Imacron" unicode="&#x12a;" horiz-adv-x="593" 
d="M199 1595l37 170h600l-37 -170h-600zM68 0l307 1452h205l-308 -1452h-204z" />
    <glyph glyph-name="imacron" unicode="&#x12b;" horiz-adv-x="501" 
d="M27 0l211 985h192l-211 -985h-192zM86 1182l35 166h559l-35 -166h-559z" />
    <glyph glyph-name="Ibreve" unicode="&#x12c;" horiz-adv-x="593" 
d="M514 1546q-135 0 -210 65.5t-75 166.5q0 18 2 32h162q-2 -14 -2 -16q0 -40 31.5 -67t103.5 -27q80 0 124 33t57 77h161q-33 -111 -123 -187.5t-231 -76.5zM68 0l307 1452h205l-308 -1452h-204z" />
    <glyph glyph-name="ibreve" unicode="&#x12d;" horiz-adv-x="501" 
d="M27 0l211 985h192l-211 -985h-192zM344 1114q-117 0 -183.5 70t-66.5 170q0 28 6 55h142q-2 -14 -2 -16q0 -48 29.5 -81.5t92.5 -33.5q71 0 118 40.5t61 90.5h157q-28 -122 -119 -208.5t-235 -86.5z" />
    <glyph glyph-name="Iogonek" unicode="&#x12e;" horiz-adv-x="593" 
d="M272 0q-39 -16 -73.5 -35.5t-70 -47.5t-56.5 -64.5t-21 -75.5t25 -58.5t65 -19.5q38 0 68 6l-29 -131q-50 -16 -104 -16q-86 0 -138.5 47t-52.5 125q0 91 55 160t134 110h-6l307 1452h205z" />
    <glyph glyph-name="iogonek" unicode="&#x12f;" horiz-adv-x="501" 
d="M219 0q-39 -16 -73.5 -35.5t-70 -47.5t-56.5 -64.5t-21 -75.5t25 -58.5t65 -19.5q38 0 68 6l-29 -131q-50 -16 -104 -16q-86 0 -138.5 47t-52.5 125q0 168 195 272l211 983h192zM272 1350q0 64 47 107.5t105 43.5q55 0 90 -35.5t35 -87.5q0 -60 -47.5 -105.5
t-104.5 -45.5q-55 0 -90 35.5t-35 87.5z" />
    <glyph glyph-name="Idot" unicode="&#x130;" horiz-adv-x="593" 
d="M391 1667q0 60 42 101.5t102 41.5q53 0 86.5 -34t33.5 -82q0 -60 -44 -104t-101 -44q-53 0 -86 34.5t-33 86.5zM68 0l307 1452h205l-308 -1452h-204z" />
    <glyph glyph-name="dotlessi" unicode="&#x131;" horiz-adv-x="501" 
d="M27 0l211 985h192l-211 -985h-192z" />
    <glyph glyph-name="IJ" unicode="&#x132;" horiz-adv-x="1226" 
d="M190 659l175 793h204l-174 -793h-205zM1229 1452l-225 -1051q-43 -200 -158 -315t-299 -115q-191 0 -296.5 109t-105.5 282q0 51 17 138l207 30l-15 -59q-12 -53 -12 -98q0 -101 54.5 -161t156.5 -60q197 0 250 254l223 1046h203z" />
    <glyph glyph-name="ij" unicode="&#x133;" horiz-adv-x="1001" 
d="M272 1350q0 64 47 107.5t105 43.5q55 0 90 -35.5t35 -87.5q0 -60 -47.5 -105.5t-104.5 -45.5q-55 0 -90 35.5t-35 87.5zM27 0l211 985h192l-211 -985h-192zM739 985h191l-244 -1147q-26 -122 -105 -190t-192 -68q-38 0 -71 6.5t-47.5 12.5t-20.5 10l33 153q36 -12 75 -12
q64 0 97 32.5t47 100.5zM774 1350q0 64 47 107.5t105 43.5q55 0 90 -35.5t35 -87.5q0 -60 -47.5 -105.5t-104.5 -45.5q-55 0 -90 35.5t-35 87.5z" />
    <glyph glyph-name="Jcircumflex" unicode="&#x134;" horiz-adv-x="1097" 
d="M649 1554l277 244h245l185 -244h-170l-152 132l-207 -132h-178zM1100 1452l-226 -1051q-43 -201 -157.5 -315.5t-298.5 -114.5q-191 0 -296.5 109t-105.5 282q0 51 17 138l10 47l205 31l-23 -107q-10 -41 -10 -96q0 -101 54 -162t155 -61q197 0 250 254l223 1046h203z
" />
    <glyph glyph-name="jcircumflex" unicode="&#x135;" horiz-adv-x="499" 
d="M35 1116l268 285h232l145 -285h-174l-107 166l-180 -166h-184zM238 985h190l-244 -1147q-26 -122 -105 -190t-192 -68q-38 0 -71 6.5t-47.5 12.5t-20.5 10l33 153q36 -12 76 -12q64 0 96.5 32t46.5 101z" />
    <glyph glyph-name="Kcommaaccent" unicode="&#x136;" horiz-adv-x="1349" 
d="M471 -188q0 50 37.5 82t93.5 32q48 0 84.5 -32t36.5 -93q0 -49 -16.5 -90.5t-43.5 -68.5t-61 -45.5t-68 -26.5t-67 -8q-15 0 -29 2l19 80q51 0 93 19.5t58 64.5q-12 -9 -37 -9q-44 0 -72 26t-28 67zM625 680l-263 -229l-94 -451h-200l307 1452h200l-149 -704l803 704h276
l-727 -639l439 -813h-228z" />
    <glyph glyph-name="kcommaaccent" unicode="&#x137;" horiz-adv-x="1075" 
d="M301 -188q0 50 37.5 82t93.5 32q48 0 84.5 -32t36.5 -93q0 -49 -16.5 -90.5t-43.5 -68.5t-61 -45.5t-68 -26.5t-67 -8q-15 0 -29 2l19 80q51 0 93 19.5t58 64.5q-12 -9 -37 -9q-44 0 -72 26t-28 67zM481 467l-200 -164l-64 -303h-190l315 1483h190l-192 -901l489 403h287
l-487 -397l291 -588h-215z" />
    <glyph glyph-name="kgreenlandic" unicode="&#x138;" horiz-adv-x="1075" 
d="M481 467l-200 -164l-64 -303h-190l209 985h190l-86 -403l489 403h287l-487 -397l291 -588h-215z" />
    <glyph glyph-name="Lacute" unicode="&#x139;" horiz-adv-x="1091" 
d="M594 1554h-199l244 244h268zM68 0l307 1452h200l-268 -1264h666l-39 -188h-866z" />
    <glyph glyph-name="lacute" unicode="&#x13a;" horiz-adv-x="499" 
d="M547 1575h-199l244 244h268zM27 0l315 1483h193l-316 -1483h-192z" />
    <glyph glyph-name="Lcommaaccent" unicode="&#x13b;" horiz-adv-x="1091" 
d="M367 -188q0 50 37.5 82t93.5 32q48 0 84 -32t36 -93q0 -49 -16.5 -90.5t-43.5 -68.5t-61 -45.5t-68 -26.5t-67 -8q-14 0 -28 2l18 80q51 0 93.5 19.5t58.5 64.5q-12 -9 -37 -9q-44 0 -72 26t-28 67zM68 0l307 1452h200l-268 -1264h666l-39 -188h-866z" />
    <glyph glyph-name="lcommaaccent" unicode="&#x13c;" horiz-adv-x="499" 
d="M-47 -188q0 50 37.5 82t93.5 32q48 0 84.5 -32t36.5 -93q0 -49 -16.5 -90.5t-43.5 -68.5t-61 -45.5t-68 -26.5t-67 -8q-15 0 -29 2l19 80q51 0 93 19.5t58 64.5q-12 -9 -37 -9q-44 0 -72 26t-28 67zM27 0l315 1483h193l-316 -1483h-192z" />
    <glyph glyph-name="Lcaron" unicode="&#x13d;" horiz-adv-x="1091" 
d="M68 0l307 1452h200l-268 -1264h666l-39 -188h-866zM821 1167h-155l133 389h237z" />
    <glyph glyph-name="lcaron" unicode="&#x13e;" horiz-adv-x="499" 
d="M700 1116h-147l135 367h221zM27 0l315 1483h193l-316 -1483h-192z" />
    <glyph glyph-name="Ldot" unicode="&#x13f;" horiz-adv-x="1091" 
d="M68 0l307 1452h200l-268 -1264h666l-39 -188h-866zM625 690q0 60 41.5 102t101.5 42q53 0 87 -34.5t34 -82.5q0 -59 -44.5 -103.5t-101.5 -44.5q-53 0 -85.5 34.5t-32.5 86.5z" />
    <glyph glyph-name="ldot" unicode="&#x140;" horiz-adv-x="692" 
d="M27 0l315 1483h193l-316 -1483h-192zM463 627q0 60 41.5 101.5t101.5 41.5q53 0 87 -34.5t34 -82.5q0 -59 -43.5 -103t-101.5 -44q-53 0 -86 34.5t-33 86.5z" />
    <glyph glyph-name="Lslash" unicode="&#x141;" horiz-adv-x="1114" 
d="M90 0l127 606l-197 -80l37 179l199 79l141 668h201l-123 -580l369 150l-37 -178l-371 -150l-106 -506h665l-39 -188h-866z" />
    <glyph glyph-name="lslash" unicode="&#x142;" horiz-adv-x="692" 
d="M135 0l133 631l-200 -82l38 178l201 80l144 676h192l-125 -590l211 86l-39 -178l-211 -86l-151 -715h-193z" />
    <glyph glyph-name="Nacute" unicode="&#x143;" horiz-adv-x="1531" 
d="M1053 1554h-199l244 244h268zM1001 0l-483 1176l-250 -1176h-200l307 1452h239l461 -1135l242 1135h201l-308 -1452h-209z" />
    <glyph glyph-name="nacute" unicode="&#x144;" horiz-adv-x="1126" 
d="M711 1112h-172l235 299h254zM664 0l127 596q8 36 8 76q0 83 -45.5 127.5t-135.5 44.5q-57 0 -105 -23t-81 -63t-55 -86.5t-33 -98.5l-123 -573h-192l172 811q24 100 24 174h189q0 -28 -13 -108q100 137 306 137q130 0 211 -80.5t81 -214.5q0 -39 -10 -94l-133 -625h-192z
" />
    <glyph glyph-name="Ncommaaccent" unicode="&#x145;" horiz-adv-x="1531" 
d="M551 -188q0 50 37.5 82t93.5 32q48 0 84.5 -32t36.5 -93q0 -49 -16.5 -90.5t-43.5 -68.5t-61 -45.5t-68 -26.5t-67 -8q-15 0 -29 2l19 80q51 0 93 19.5t58 64.5q-12 -9 -37 -9q-44 0 -72 26t-28 67zM1001 0l-483 1176l-250 -1176h-200l307 1452h239l461 -1135l242 1135
h201l-308 -1452h-209z" />
    <glyph glyph-name="ncommaaccent" unicode="&#x146;" horiz-adv-x="1126" 
d="M305 -188q0 50 37.5 82t93.5 32q48 0 84.5 -32t36.5 -93q0 -49 -16.5 -90.5t-43.5 -68.5t-61 -45.5t-68 -26.5t-67 -8q-15 0 -29 2l19 80q51 0 93 19.5t58 64.5q-12 -9 -36 -9q-44 0 -72.5 26t-28.5 67zM664 0l127 596q8 36 8 76q0 83 -45.5 127.5t-135.5 44.5
q-57 0 -105 -23t-81 -63t-55 -86.5t-33 -98.5l-123 -573h-192l172 811q24 100 24 174h189q0 -28 -13 -108q100 137 306 137q130 0 211 -80.5t81 -214.5q0 -39 -10 -94l-133 -625h-192z" />
    <glyph glyph-name="Ncaron" unicode="&#x147;" horiz-adv-x="1531" 
d="M1352 1798l-287 -244h-246l-174 244h168l141 -131l207 131h191zM1001 0l-483 1176l-250 -1176h-200l307 1452h239l461 -1135l242 1135h201l-308 -1452h-209z" />
    <glyph glyph-name="ncaron" unicode="&#x148;" horiz-adv-x="1126" 
d="M1026 1407l-266 -291h-236l-143 291h172l106 -166l181 166h186zM664 0l127 596q8 36 8 76q0 83 -45.5 127.5t-135.5 44.5q-57 0 -105 -23t-81 -63t-55 -86.5t-33 -98.5l-123 -573h-192l172 811q24 100 24 174h189q0 -28 -13 -108q100 137 306 137q130 0 211 -80.5
t81 -214.5q0 -39 -10 -94l-133 -625h-192z" />
    <glyph glyph-name="napostrophe" unicode="&#x149;" horiz-adv-x="1126" 
d="M272 1163q115 0 154 84q-13 -8 -39 -8q-43 0 -69.5 26.5t-26.5 65.5q0 53 35 85t90 32q49 0 85 -30.5t36 -92.5q0 -104 -76 -174t-182 -70h-23zM664 0l127 596q8 36 8 76q0 83 -45.5 127.5t-135.5 44.5q-57 0 -105 -23t-81 -63t-55 -86.5t-33 -98.5l-123 -573h-192
l172 811q24 100 24 174h189q0 -28 -13 -108q100 137 306 137q130 0 211 -80.5t81 -214.5q0 -39 -10 -94l-133 -625h-192z" />
    <glyph glyph-name="Eng" unicode="&#x14a;" horiz-adv-x="1531" 
d="M1012 -23l-494 1199l-250 -1176h-200l307 1452h239l461 -1135l242 1135h201l-342 -1616q-26 -122 -105 -190t-192 -68q-38 0 -71.5 6.5t-48 12.5t-20.5 10l33 153q36 -12 76 -12q64 0 96.5 32t46.5 101z" />
    <glyph glyph-name="eng" unicode="&#x14b;" horiz-adv-x="1126" 
d="M817 -186q-26 -122 -105 -190t-192 -68q-38 0 -71 6t-47.5 12t-20.5 10l33 154q36 -12 75 -12q64 0 97 32.5t47 100.5l158 737q8 36 8 76q0 83 -45.5 127.5t-135.5 44.5q-57 0 -105 -23t-81 -63t-55 -86.5t-33 -98.5l-123 -573h-192l172 811q24 100 24 174h189
q0 -28 -13 -108q100 137 306 137q130 0 211 -80.5t81 -214.5q0 -39 -10 -94z" />
    <glyph glyph-name="Omacron" unicode="&#x14c;" horiz-adv-x="1595" 
d="M125 602q0 169 44 314t119 247.5t174 175.5t210 108.5t225 35.5q283 0 455 -173.5t172 -461.5q0 -169 -44 -314t-119 -247.5t-174 -175t-209 -107.5t-224 -35q-283 0 -456 174.5t-173 458.5zM1319 827q0 222 -120.5 346.5t-313.5 124.5q-128 0 -235 -57t-176 -152
t-106.5 -215.5t-37.5 -250.5q0 -221 120.5 -345t313.5 -124q129 0 235.5 56.5t175.5 150.5t106.5 214.5t37.5 251.5zM655 1595l37 170h600l-37 -170h-600z" />
    <glyph glyph-name="omacron" unicode="&#x14d;" horiz-adv-x="1153" 
d="M381 1182l35 166h559l-35 -166h-559zM594 844q-135 0 -232.5 -112t-97.5 -304q0 -131 67.5 -209t182.5 -78q137 0 234.5 113t97.5 305q0 130 -67.5 207.5t-184.5 77.5zM1042 563q0 -165 -70 -301t-193 -214.5t-273 -78.5q-135 0 -236 62.5t-151.5 164.5t-50.5 228
q0 253 154 422.5t384 169.5q105 0 189 -35.5t137.5 -98t81.5 -144t28 -175.5z" />
    <glyph glyph-name="Obreve" unicode="&#x14e;" horiz-adv-x="1595" 
d="M125 602q0 169 44 314t119 247.5t174 175.5t210 108.5t225 35.5q283 0 455 -173.5t172 -461.5q0 -169 -44 -314t-119 -247.5t-174 -175t-209 -107.5t-224 -35q-283 0 -456 174.5t-173 458.5zM1319 827q0 222 -120.5 346.5t-313.5 124.5q-128 0 -235 -57t-176 -152
t-106.5 -215.5t-37.5 -250.5q0 -221 120.5 -345t313.5 -124q129 0 235.5 56.5t175.5 150.5t106.5 214.5t37.5 251.5zM997 1546q-135 0 -209.5 65.5t-74.5 166.5q0 18 2 32h162q-1 -6 -1.5 -9.5t-1 -4.5t-0.5 -2q0 -40 32 -67t104 -27q80 0 123.5 32.5t56.5 77.5h162
q-33 -111 -123.5 -187.5t-231.5 -76.5z" />
    <glyph glyph-name="obreve" unicode="&#x14f;" horiz-adv-x="1153" 
d="M639 1114q-117 0 -183.5 70t-66.5 170q0 28 6 55h142q-2 -14 -2 -16q0 -48 29.5 -81.5t92.5 -33.5q71 0 118 40.5t61 90.5h157q-28 -122 -119 -208.5t-235 -86.5zM594 844q-135 0 -232.5 -112t-97.5 -304q0 -131 67.5 -209t182.5 -78q137 0 234.5 113t97.5 305
q0 130 -67.5 207.5t-184.5 77.5zM1042 563q0 -165 -70 -301t-193 -214.5t-273 -78.5q-135 0 -236 62.5t-151.5 164.5t-50.5 228q0 253 154 422.5t384 169.5q105 0 189 -35.5t137.5 -98t81.5 -144t28 -175.5z" />
    <glyph glyph-name="Ohungarumlaut" unicode="&#x150;" horiz-adv-x="1595" 
d="M125 602q0 169 44 314t119 247.5t174 175.5t210 108.5t225 35.5q283 0 455 -173.5t172 -461.5q0 -169 -44 -314t-119 -247.5t-174 -175t-209 -107.5t-224 -35q-283 0 -456 174.5t-173 458.5zM1319 827q0 222 -120.5 346.5t-313.5 124.5q-128 0 -235 -57t-176 -152
t-106.5 -215.5t-37.5 -250.5q0 -221 120.5 -345t313.5 -124q129 0 235.5 56.5t175.5 150.5t106.5 214.5t37.5 251.5zM856 1554h-149l165 244h226zM1145 1554h-150l187 244h225z" />
    <glyph glyph-name="ohungarumlaut" unicode="&#x151;" horiz-adv-x="1153" 
d="M569 1112h-141l168 299h221zM844 1112h-142l189 299h221zM594 844q-135 0 -232.5 -112t-97.5 -304q0 -131 67.5 -209t182.5 -78q137 0 234.5 113t97.5 305q0 130 -67.5 207.5t-184.5 77.5zM1042 563q0 -165 -70 -301t-193 -214.5t-273 -78.5q-135 0 -236 62.5
t-151.5 164.5t-50.5 228q0 253 154 422.5t384 169.5q105 0 189 -35.5t137.5 -98t81.5 -144t28 -175.5z" />
    <glyph glyph-name="OE" unicode="&#x152;" horiz-adv-x="2273" 
d="M1163 0l25 121q-196 -152 -434 -152q-283 0 -456 174.5t-173 458.5q0 169 44 314t119 247.5t174 175.5t210 108.5t225 35.5q183 0 314 -75t204 -214l55 258h873l-39 -186h-672l-94 -447h608l-41 -188h-608l-94 -445h672l-39 -186h-873zM1319 827q0 222 -120.5 346.5
t-313.5 124.5q-128 0 -235 -57t-176 -152t-106.5 -215.5t-37.5 -250.5q0 -221 120.5 -345t313.5 -124q129 0 235.5 56.5t175.5 150.5t106.5 214.5t37.5 251.5z" />
    <glyph glyph-name="oe" unicode="&#x153;" horiz-adv-x="1882" 
d="M1286 -31q-124 0 -222 49t-157 144q-75 -92 -177.5 -142.5t-223.5 -50.5q-135 0 -236 62.5t-151.5 164.5t-50.5 228q0 253 154 422.5t384 169.5q126 0 219.5 -52t149.5 -143q78 94 183.5 144.5t221.5 50.5q195 0 301.5 -109t106.5 -289q0 -84 -29 -180h-725
q-2 -14 -2 -35q0 -119 71.5 -191.5t178.5 -72.5q104 0 179 48t112 116l145 -94q-56 -103 -171.5 -171.5t-260.5 -68.5zM1585 594q4 20 4 41q0 39 -11.5 74.5t-36 67t-68.5 50.5t-103 19q-116 0 -199 -74t-110 -178h524zM846 559q0 130 -67.5 207.5t-184.5 77.5
q-135 0 -232.5 -112t-97.5 -304q0 -131 67.5 -209t182.5 -78q137 0 234.5 113t97.5 305z" />
    <glyph glyph-name="Racute" unicode="&#x154;" horiz-adv-x="1284" 
d="M852 1554h-199l244 244h268zM653 602h-258l-127 -602h-200l307 1452h471q186 0 292.5 -102.5t106.5 -266.5q0 -182 -107 -305.5t-282 -161.5l238 -616h-213zM717 780q146 0 235.5 77t89.5 214q0 95 -58 149t-171 54h-274l-107 -494h285z" />
    <glyph glyph-name="racute" unicode="&#x155;" horiz-adv-x="733" 
d="M588 1112h-172l235 299h254zM731 786q-44 7 -69 7q-139 0 -223.5 -89.5t-116.5 -236.5l-101 -467h-190l172 811q24 100 24 174h189q0 -87 -19 -154q50 83 134.5 125.5t191.5 42.5q37 0 53 -2z" />
    <glyph glyph-name="Rcommaaccent" unicode="&#x156;" horiz-adv-x="1284" 
d="M418 -188q0 50 37.5 82t93.5 32q48 0 84.5 -32t36.5 -93q0 -49 -16.5 -90.5t-43.5 -68.5t-61 -45.5t-68 -26.5t-67 -8q-15 0 -29 2l18 80q51 0 93.5 19.5t58.5 64.5q-12 -9 -37 -9q-44 0 -72 26t-28 67zM653 602h-258l-127 -602h-200l307 1452h471q186 0 292.5 -102.5
t106.5 -266.5q0 -182 -107 -305.5t-282 -161.5l238 -616h-213zM717 780q146 0 235.5 77t89.5 214q0 95 -58 149t-171 54h-274l-107 -494h285z" />
    <glyph glyph-name="rcommaaccent" unicode="&#x157;" horiz-adv-x="733" 
d="M-39 -188q0 50 37.5 82t93.5 32q48 0 84.5 -32t36.5 -93q0 -49 -16.5 -90.5t-43.5 -68.5t-61 -45.5t-68 -26.5t-67 -8q-15 0 -29 2l19 80q51 0 93 19.5t58 64.5q-12 -9 -37 -9q-44 0 -72 26t-28 67zM731 786q-44 7 -69 7q-139 0 -223.5 -89.5t-116.5 -236.5l-101 -467
h-190l172 811q24 100 24 174h189q0 -87 -19 -154q50 83 134.5 125.5t191.5 42.5q37 0 53 -2z" />
    <glyph glyph-name="Rcaron" unicode="&#x158;" horiz-adv-x="1284" 
d="M1204 1798l-286 -244h-246l-174 244h168l141 -131l207 131h190zM653 602h-258l-127 -602h-200l307 1452h471q186 0 292.5 -102.5t106.5 -266.5q0 -182 -107 -305.5t-282 -161.5l238 -616h-213zM717 780q146 0 235.5 77t89.5 214q0 95 -58 149t-171 54h-274l-107 -494h285
z" />
    <glyph glyph-name="rcaron" unicode="&#x159;" horiz-adv-x="733" 
d="M887 1407l-266 -291h-236l-143 291h172l106 -166l180 166h187zM731 786q-44 7 -69 7q-139 0 -223.5 -89.5t-116.5 -236.5l-101 -467h-190l172 811q24 100 24 174h189q0 -87 -19 -154q50 83 134.5 125.5t191.5 42.5q37 0 53 -2z" />
    <glyph glyph-name="Sacute" unicode="&#x15a;" horiz-adv-x="1210" 
d="M573 150q129 2 206 64.5t77 166.5q0 63 -39.5 117t-116.5 90l-192 86q-264 121 -264 375q0 183 139.5 308.5t347.5 125.5q102 0 185 -27.5t135.5 -70.5t88.5 -99t51 -109.5t15 -105.5l-190 -37q0 28 -5.5 58t-25 70t-50.5 70t-88.5 51.5t-131.5 21.5q-114 0 -190 -67.5
t-76 -162.5q0 -138 135 -201l198 -92q283 -131 283 -383q0 -85 -35.5 -163.5t-98.5 -137.5t-155 -94t-198 -35q-109 0 -199.5 29t-150.5 77t-101 111.5t-59.5 130.5t-18.5 136v30l203 35q-2 -14 -2 -41q0 -63 19 -120t56.5 -104t101 -75t146.5 -28zM872 1554h-198l244 244
h268z" />
    <glyph glyph-name="sacute" unicode="&#x15b;" horiz-adv-x="909" 
d="M621 1112h-172l235 299h254zM180 346q2 -91 60 -152t155 -61q77 0 117.5 38.5t40.5 92.5q0 73 -92 117l-144 65q-176 78 -176 250q0 131 99.5 225.5t261.5 94.5q74 0 134.5 -20t98 -50t64 -70t38.5 -75.5t15 -69.5l-172 -47q-4 31 -15.5 58.5t-33.5 54t-60 42t-88 15.5
q-71 0 -113 -38t-42 -91q0 -74 78 -111l135 -61q98 -44 151 -115t53 -159q0 -39 -12 -80t-39.5 -83t-68 -74t-103 -52.5t-137.5 -20.5q-96 0 -171.5 32.5t-118 84t-64 108.5t-21.5 113z" />
    <glyph glyph-name="Scircumflex" unicode="&#x15c;" horiz-adv-x="1210" 
d="M442 1554l277 244h246l184 -244h-170l-152 132l-206 -132h-179zM573 150q129 2 206 64.5t77 166.5q0 63 -39.5 117t-116.5 90l-192 86q-264 121 -264 375q0 183 139.5 308.5t347.5 125.5q102 0 185 -27.5t135.5 -70.5t88.5 -99t51 -109.5t15 -105.5l-190 -37
q0 28 -5.5 58t-25 70t-50.5 70t-88.5 51.5t-131.5 21.5q-114 0 -190 -67.5t-76 -162.5q0 -138 135 -201l198 -92q283 -131 283 -383q0 -85 -35.5 -163.5t-98.5 -137.5t-155 -94t-198 -35q-109 0 -199.5 29t-150.5 77t-101 111.5t-59.5 130.5t-18.5 136v30l203 35
q-2 -14 -2 -41q0 -63 19 -120t56.5 -104t101 -75t146.5 -28z" />
    <glyph glyph-name="scircumflex" unicode="&#x15d;" horiz-adv-x="909" 
d="M238 1116l268 285h231l146 -285h-174l-107 166l-180 -166h-184zM180 346q2 -91 60 -152t155 -61q77 0 117.5 38.5t40.5 92.5q0 73 -92 117l-144 65q-176 78 -176 250q0 131 99.5 225.5t261.5 94.5q74 0 134.5 -20t98 -50t64 -70t38.5 -75.5t15 -69.5l-172 -47
q-4 31 -15.5 58.5t-33.5 54t-60 42t-88 15.5q-71 0 -113 -38t-42 -91q0 -74 78 -111l135 -61q98 -44 151 -115t53 -159q0 -39 -12 -80t-39.5 -83t-68 -74t-103 -52.5t-137.5 -20.5q-96 0 -171.5 32.5t-118 84t-64 108.5t-21.5 113z" />
    <glyph glyph-name="Scedilla" unicode="&#x15e;" horiz-adv-x="1210" 
d="M573 150q129 0 206 63t77 168q0 63 -39.5 117t-116.5 90l-192 86q-264 121 -264 375q0 183 139.5 308.5t347.5 125.5q102 0 185 -27.5t135.5 -70.5t88.5 -99t51 -109.5t15 -105.5l-190 -37q0 28 -5.5 58t-25 70t-50.5 70t-88.5 51.5t-131.5 21.5q-114 0 -190 -67.5
t-76 -162.5q0 -138 135 -201l198 -92q283 -131 283 -383q0 -112 -58 -208.5t-167.5 -157.5t-247.5 -64l-90 -75q67 -10 103 -51t36 -97q0 -80 -66 -134t-169 -54q-95 0 -164 47t-90 98l106 66q6 -14 15 -28t26 -31.5t44 -28.5t60 -11q39 0 67 18.5t28 53.5q0 30 -25.5 49
t-62.5 19q-20 0 -29 -3l-45 87l102 90q-81 16 -147 51t-110.5 81t-74.5 102.5t-43.5 115t-13.5 119.5v30l203 35q-2 -14 -2 -41q0 -63 19 -120t56.5 -104t101 -75t146.5 -28z" />
    <glyph glyph-name="scedilla" unicode="&#x15f;" horiz-adv-x="909" 
d="M180 346q2 -91 60 -152t155 -61q77 0 117.5 38.5t40.5 92.5q0 73 -92 117l-144 65q-176 78 -176 250q0 131 99.5 225.5t261.5 94.5q74 0 134.5 -20t98 -50t64 -70t38.5 -75.5t15 -69.5l-172 -47q-4 31 -15.5 58.5t-33.5 54t-60 42t-88 15.5q-71 0 -113 -38t-42 -91
q0 -74 78 -111l135 -61q98 -44 151 -115t53 -159q0 -39 -10.5 -78t-35.5 -79t-61.5 -71.5t-92.5 -53t-125 -26.5l-92 -77q67 -10 103 -51t36 -97q0 -80 -66.5 -134t-169.5 -54q-95 0 -164 47t-90 98l107 66q6 -14 15 -28t26 -31.5t44 -28.5t60 -11q39 0 67 18.5t28 53.5
q0 30 -25.5 49t-62.5 19q-20 0 -29 -3l-45 87l102 90q-125 34 -189.5 127.5t-64.5 195.5z" />
    <glyph glyph-name="Scaron" unicode="&#x160;" horiz-adv-x="1210" 
d="M573 150q129 2 206 64.5t77 166.5q0 63 -39.5 117t-116.5 90l-192 86q-264 121 -264 375q0 183 139.5 308.5t347.5 125.5q102 0 185 -27.5t135.5 -70.5t88.5 -99t51 -109.5t15 -105.5l-190 -37q0 28 -5.5 58t-25 70t-50.5 70t-88.5 51.5t-131.5 21.5q-114 0 -190 -67.5
t-76 -162.5q0 -138 135 -201l198 -92q283 -131 283 -383q0 -85 -35.5 -163.5t-98.5 -137.5t-155 -94t-198 -35q-109 0 -199.5 29t-150.5 77t-101 111.5t-59.5 130.5t-18.5 136v30l203 35q-2 -14 -2 -41q0 -63 19 -120t56.5 -104t101 -75t146.5 -28zM1204 1798l-286 -244
h-246l-174 244h168l141 -131l207 131h190z" />
    <glyph glyph-name="scaron" unicode="&#x161;" horiz-adv-x="909" 
d="M954 1407l-266 -291h-235l-144 291h172l107 -166l180 166h186zM180 346q2 -91 60 -152t155 -61q77 0 117.5 38.5t40.5 92.5q0 73 -92 117l-144 65q-176 78 -176 250q0 131 99.5 225.5t261.5 94.5q74 0 134.5 -20t98 -50t64 -70t38.5 -75.5t15 -69.5l-172 -47
q-4 31 -15.5 58.5t-33.5 54t-60 42t-88 15.5q-71 0 -113 -38t-42 -91q0 -74 78 -111l135 -61q98 -44 151 -115t53 -159q0 -39 -12 -80t-39.5 -83t-68 -74t-103 -52.5t-137.5 -20.5q-96 0 -171.5 32.5t-118 84t-64 108.5t-21.5 113z" />
    <glyph glyph-name="Tcommaaccent" unicode="&#x162;" horiz-adv-x="1198" 
d="M328 -442q-95 0 -164 47t-90 98l106 66q8 -20 22 -39.5t47.5 -39.5t76.5 -20q38 0 66 18.5t28 53.5q0 30 -25.5 49t-62.5 19q-20 0 -29 -3l-45 87l123 106l268 1268h-469l39 184h1120l-39 -184h-450l-268 -1268h-31l-127 -106q67 -10 103 -51t36 -97q0 -80 -66 -134
t-169 -54z" />
    <glyph glyph-name="tcommaaccent" unicode="&#x163;" horiz-adv-x="684" 
d="M373 -10l-115 -96q67 -10 103 -51t36 -97q0 -80 -66 -134t-169 -54q-95 0 -164 47t-90 98l106 66q8 -20 22 -39.5t47.5 -39.5t76.5 -20q38 0 66 18.5t28 53.5q0 30 -25.5 49t-62.5 19q-20 0 -29 -3l-45 87l150 129q-99 58 -99 184q0 35 9 76l112 528h-180l37 174h29
q164 0 202 160l33 151h176l-67 -311h198l-37 -174h-198l-109 -518q-6 -27 -6 -47q0 -88 111 -88q9 0 19 0.5t17.5 1t14 1t10.5 1.5h4l-33 -158q-42 -14 -104 -14h-8z" />
    <glyph glyph-name="Tcaron" unicode="&#x164;" horiz-adv-x="1198" 
d="M850 1268l-268 -1268h-201l268 1268h-469l39 184h1120l-39 -184h-450zM1212 1798l-286 -244h-246l-174 244h168l141 -131l207 131h190z" />
    <glyph glyph-name="tcaron" unicode="&#x165;" horiz-adv-x="684" 
d="M453 158q9 0 19 0.5t17.5 1t14 1t10.5 1.5h4l-33 -158q-42 -14 -104 -14q-110 0 -174 58t-64 161q0 39 9 74l112 528h-180l37 174h29q164 0 202 160l33 151h176l-67 -311h198l-37 -174h-198l-109 -518q-6 -27 -6 -47q0 -88 111 -88zM801 1159h-148l135 367h222z" />
    <glyph glyph-name="Tbar" unicode="&#x166;" horiz-adv-x="1198" 
d="M850 1268l-109 -506h252l-37 -166h-249l-125 -596h-201l125 596h-238l37 166h236l108 506h-469l39 184h1120l-39 -184h-450z" />
    <glyph glyph-name="tbar" unicode="&#x167;" horiz-adv-x="684" 
d="M381 -10q-110 0 -174 58t-64 161q0 39 9 74l30 143h-174l33 156h174l49 229h-180l37 174h29q164 0 202 160l33 151h176l-67 -311h198l-37 -174h-198l-49 -229h208l-32 -156h-209l-27 -133q-6 -27 -6 -47q0 -88 111 -88q9 0 19 0.5t17.5 1t14 1t10.5 1.5h4l-33 -158
q-42 -14 -104 -14z" />
    <glyph glyph-name="Utilde" unicode="&#x168;" horiz-adv-x="1390" 
d="M1393 1452l-213 -1010q-47 -226 -191.5 -349.5t-359.5 -123.5q-220 0 -347.5 113t-127.5 319q0 89 16 152l190 899h193l-188 -924q-13 -63 -13 -108q0 -125 71.5 -194.5t215.5 -69.5q135 0 223 79t119 226l209 991h203zM1184 1804q-22 -114 -80 -171.5t-135 -57.5
q-34 0 -62 15t-43.5 33t-36.5 33t-43 15q-20 0 -37 -24t-26 -68h-135q22 115 80.5 172t136.5 57q34 0 61.5 -15t43 -33t36.5 -33t43 -15q20 0 37.5 24.5t26.5 67.5h133z" />
    <glyph glyph-name="utilde" unicode="&#x169;" horiz-adv-x="1112" 
d="M883 256q-27 -122 -27 -223q0 -8 0.5 -14.5t0.5 -10t1 -6.5v-2h-184v2q-1 3 -1.5 7.5t-1 11t-1 16t-0.5 20.5q0 35 2 58q-47 -66 -119 -100.5t-145 -34.5q-150 0 -234 86.5t-84 230.5q0 55 12 113l123 575h193l-121 -571q-10 -55 -10 -92q0 -81 41.5 -130t132.5 -49
q103 0 172.5 77t91.5 190l121 575h190zM956 1366q-22 -114 -80 -171.5t-135 -57.5q-34 0 -61.5 15t-43 33t-36.5 33t-43 15q-20 0 -37 -24t-26 -68h-136q22 115 80.5 172t136.5 57q34 0 62 -15t43.5 -33t36.5 -33t43 -15q20 0 37 24.5t26 67.5h133z" />
    <glyph glyph-name="Umacron" unicode="&#x16a;" horiz-adv-x="1390" 
d="M1393 1452l-213 -1010q-47 -226 -191.5 -349.5t-359.5 -123.5q-220 0 -347.5 113t-127.5 319q0 89 16 152l190 899h193l-188 -924q-13 -63 -13 -108q0 -125 71.5 -194.5t215.5 -69.5q135 0 223 79t119 226l209 991h203zM598 1595l37 170h600l-37 -170h-600z" />
    <glyph glyph-name="umacron" unicode="&#x16b;" horiz-adv-x="1112" 
d="M883 256q-27 -122 -27 -223q0 -8 0.5 -14.5t0.5 -10t1 -6.5v-2h-184v2q-1 3 -1.5 7.5t-1 11t-1 16t-0.5 20.5q0 35 2 58q-47 -66 -119 -100.5t-145 -34.5q-150 0 -234 86.5t-84 230.5q0 55 12 113l123 575h193l-121 -571q-10 -55 -10 -92q0 -81 41.5 -130t132.5 -49
q103 0 172.5 77t91.5 190l121 575h190zM385 1182l35 166h559l-35 -166h-559z" />
    <glyph glyph-name="Ubreve" unicode="&#x16c;" horiz-adv-x="1390" 
d="M1393 1452l-213 -1010q-47 -226 -191.5 -349.5t-359.5 -123.5q-220 0 -347.5 113t-127.5 319q0 89 16 152l190 899h193l-188 -924q-13 -63 -13 -108q0 -125 71.5 -194.5t215.5 -69.5q135 0 223 79t119 226l209 991h203zM895 1546q-135 0 -210 65.5t-75 166.5q0 18 2 32
h162q-2 -14 -2 -16q0 -40 31.5 -67t103.5 -27q80 0 123.5 32.5t56.5 77.5h162q-33 -111 -123 -187.5t-231 -76.5z" />
    <glyph glyph-name="ubreve" unicode="&#x16d;" horiz-adv-x="1112" 
d="M883 256q-27 -122 -27 -223q0 -8 0.5 -14.5t0.5 -10t1 -6.5v-2h-184v2q-1 3 -1.5 7.5t-1 11t-1 16t-0.5 20.5q0 35 2 58q-47 -66 -119 -100.5t-145 -34.5q-150 0 -234 86.5t-84 230.5q0 55 12 113l123 575h193l-121 -571q-10 -55 -10 -92q0 -81 41.5 -130t132.5 -49
q103 0 172.5 77t91.5 190l121 575h190zM647 1114q-117 0 -183.5 70t-66.5 170q0 28 6 55h142q-2 -14 -2 -16q0 -47 29.5 -81t93.5 -34q71 0 117.5 40t60.5 91h157q-28 -122 -119 -208.5t-235 -86.5z" />
    <glyph glyph-name="Uring" unicode="&#x16e;" horiz-adv-x="1390" 
d="M1393 1452l-213 -1010q-47 -226 -191.5 -349.5t-359.5 -123.5q-220 0 -347.5 113t-127.5 319q0 89 16 152l190 899h193l-188 -924q-13 -63 -13 -108q0 -125 71.5 -194.5t215.5 -69.5q135 0 223 79t119 226l209 991h203zM915 1833q-41 0 -72.5 -28.5t-31.5 -73.5
q0 -41 23.5 -63.5t64.5 -22.5q44 0 75.5 28t31.5 74q0 37 -25 61.5t-66 24.5zM680 1714q0 106 76 177t174 71q89 0 150 -60t61 -145q0 -95 -73.5 -169.5t-172.5 -74.5q-91 0 -153 57.5t-62 143.5z" />
    <glyph glyph-name="uring" unicode="&#x16f;" horiz-adv-x="1112" 
d="M883 256q-27 -122 -27 -223q0 -8 0.5 -14.5t0.5 -10t1 -6.5v-2h-184v2q-1 3 -1.5 7.5t-1 11t-1 16t-0.5 20.5q0 35 2 58q-47 -66 -119 -100.5t-145 -34.5q-150 0 -234 86.5t-84 230.5q0 55 12 113l123 575h193l-121 -571q-10 -55 -10 -92q0 -81 41.5 -130t132.5 -49
q103 0 172.5 77t91.5 190l121 575h190zM692 1536q89 0 150 -60t61 -145q0 -95 -73.5 -169.5t-172.5 -74.5q-91 0 -153 57.5t-62 143.5q0 106 76 177t174 71zM573 1305q0 -41 23.5 -63.5t65.5 -22.5q44 0 75 28t31 74q0 37 -24.5 61.5t-65.5 24.5t-73 -28.5t-32 -73.5z" />
    <glyph glyph-name="Uhungarumlaut" unicode="&#x170;" horiz-adv-x="1390" 
d="M1393 1452l-213 -1010q-47 -226 -191.5 -349.5t-359.5 -123.5q-220 0 -347.5 113t-127.5 319q0 89 16 152l190 899h193l-188 -924q-13 -63 -13 -108q0 -125 71.5 -194.5t215.5 -69.5q135 0 223 79t119 226l209 991h203zM791 1554h-150l166 244h225zM1079 1554h-149
l186 244h225z" />
    <glyph glyph-name="uhungarumlaut" unicode="&#x171;" horiz-adv-x="1112" 
d="M883 256q-27 -122 -27 -223q0 -8 0.5 -14.5t0.5 -10t1 -6.5v-2h-184v2q-1 3 -1.5 7.5t-1 11t-1 16t-0.5 20.5q0 35 2 58q-47 -66 -119 -100.5t-145 -34.5q-150 0 -234 86.5t-84 230.5q0 55 12 113l123 575h193l-121 -571q-10 -55 -10 -92q0 -81 41.5 -130t132.5 -49
q103 0 172.5 77t91.5 190l121 575h190zM530 1112h-141l168 299h221zM805 1112h-141l188 299h221z" />
    <glyph glyph-name="Uogonek" unicode="&#x172;" horiz-adv-x="1390" 
d="M625 -442q-86 0 -138.5 47t-52.5 125q0 144 141 241q-198 14 -309.5 125t-111.5 305q0 89 16 152l190 899h193l-188 -924q-13 -63 -13 -108q0 -125 71.5 -194.5t215.5 -69.5q135 0 223 79t119 226l209 991h203l-213 -1010q-71 -335 -353 -440q-52 -19 -100.5 -48.5
t-87.5 -77.5t-39 -99q0 -39 25 -58.5t65 -19.5q38 0 68 6l-29 -131q-50 -16 -104 -16z" />
    <glyph glyph-name="uogonek" unicode="&#x173;" horiz-adv-x="1112" 
d="M662 -442q-86 0 -138.5 47t-52.5 125q0 169 201 276q0 1 -1 17t-1 34q0 35 2 58q-47 -66 -119 -100.5t-145 -34.5q-150 0 -234 86.5t-84 230.5q0 55 12 113l123 575h193l-121 -571q-10 -55 -10 -92q0 -81 41.5 -130t132.5 -49q103 0 172.5 77t91.5 190l121 575h190
l-153 -729q-27 -122 -27 -223q0 -8 0.5 -14.5t0.5 -10t1 -6.5v-2q-39 -16 -73.5 -35.5t-70 -47.5t-56.5 -64.5t-21 -75.5t25 -58.5t65 -19.5q38 0 68 6l-29 -131q-50 -16 -104 -16z" />
    <glyph glyph-name="Wcircumflex" unicode="&#x174;" horiz-adv-x="1994" 
d="M836 1554l276 244h246l184 -244h-170l-151 132l-207 -132h-178zM1260 1452l129 -1149l516 1149h202l-669 -1452h-199l-129 1178l-573 -1178h-205l-113 1452h195l80 -1137l555 1137h211z" />
    <glyph glyph-name="wcircumflex" unicode="&#x175;" horiz-adv-x="1622" 
d="M559 1116l268 285h232l145 -285h-174l-106 166l-181 -166h-184zM975 985l94 -735l371 735h211l-523 -985h-198l-99 745l-389 -745h-202l-101 985h185l63 -733l385 733h203z" />
    <glyph glyph-name="Ycircumflex" unicode="&#x176;" horiz-adv-x="1263" 
d="M211 1452h211l252 -637l467 637h239l-641 -840l-127 -612h-200l131 625zM434 1554l277 244h245l185 -244h-170l-152 132l-207 -132h-178z" />
    <glyph glyph-name="ycircumflex" unicode="&#x177;" horiz-adv-x="1028" 
d="M246 1116l268 285h231l146 -285h-174l-107 166l-180 -166h-184zM-53 -389l370 559l-241 815h209l174 -618l385 618h227l-903 -1374h-221z" />
    <glyph glyph-name="Ydieresis" unicode="&#x178;" horiz-adv-x="1263" 
d="M211 1452h211l252 -637l467 637h239l-641 -840l-127 -612h-200l131 625zM438 1665q0 59 38.5 96t96.5 37q47 0 77 -30.5t30 -75.5q0 -59 -39 -97.5t-94 -38.5q-47 0 -78 31t-31 78zM909 1665q0 59 38.5 96t96.5 37q47 0 77 -30.5t30 -75.5q0 -59 -39 -97.5t-94 -38.5
q-47 0 -78 31t-31 78z" />
    <glyph glyph-name="Zacute" unicode="&#x179;" horiz-adv-x="1257" 
d="M-41 0l41 197l1044 1071h-796l39 184h1052l-41 -190l-1048 -1076h831l-39 -186h-1083zM854 1554h-199l244 244h268z" />
    <glyph glyph-name="zacute" unicode="&#x17a;" horiz-adv-x="972" 
d="M625 1112h-172l235 299h254zM-39 0l37 172l670 639h-516l36 174h762l-37 -174l-669 -637h551l-37 -174h-797z" />
    <glyph glyph-name="Zdotaccent" unicode="&#x17b;" horiz-adv-x="1257" 
d="M-41 0l41 197l1044 1071h-796l39 184h1052l-41 -190l-1048 -1076h831l-39 -186h-1083zM702 1667q0 60 42 101.5t102 41.5q53 0 87 -34t34 -82q0 -60 -44.5 -104t-101.5 -44q-53 0 -86 34.5t-33 86.5z" />
    <glyph glyph-name="zdotaccent" unicode="&#x17c;" horiz-adv-x="972" 
d="M477 1245q0 57 43 102.5t103 45.5q53 0 85.5 -34t32.5 -83q0 -60 -44 -104t-101 -44q-53 0 -86 33.5t-33 83.5zM-39 0l37 172l670 639h-516l36 174h762l-37 -174l-669 -637h551l-37 -174h-797z" />
    <glyph glyph-name="Zcaron" unicode="&#x17d;" horiz-adv-x="1257" 
d="M-41 0l41 197l1044 1071h-796l39 184h1052l-41 -190l-1048 -1076h831l-39 -186h-1083zM1233 1798l-287 -244h-246l-174 244h168l142 -131l206 131h191z" />
    <glyph glyph-name="zcaron" unicode="&#x17e;" horiz-adv-x="972" 
d="M956 1407l-266 -291h-235l-144 291h172l107 -166l180 166h186zM-39 0l37 172l670 639h-516l36 174h762l-37 -174l-669 -637h551l-37 -174h-797z" />
    <glyph glyph-name="uni018F" unicode="&#x18f;" horiz-adv-x="1595" 
d="M866 1483q135 0 255 -46.5t209 -129.5t141.5 -205.5t52.5 -267.5q0 -165 -47.5 -308t-127 -243.5t-182.5 -173t-213.5 -107.5t-220.5 -35q-99 0 -192 25.5t-174 78t-141.5 126t-95 176.5t-34.5 223q0 96 17 172h1204q0 8 1 27.5t1 31.5q0 219 -133.5 344t-335.5 125
q-156 0 -292 -80.5t-202 -214.5l-157 84q84 181 268 289.5t399 108.5zM754 150q79 0 158.5 27t152 79t131 136.5t90.5 191.5h-993q0 -102 37.5 -185t101 -137t146.5 -83t176 -29z" />
    <glyph glyph-name="florin" unicode="&#x192;" horiz-adv-x="845" 
d="M340 815h-225v170h260l47 232q28 146 123 221t215 75q95 0 151 -20v-170q-54 14 -108 14q-159 0 -197 -188l-33 -164h265v-170h-299l-168 -842q-31 -148 -123.5 -222.5t-214.5 -74.5q-99 0 -158 21v170q54 -14 115 -14q25 0 45 3t45 14.5t44 31.5t35.5 55.5t26.5 83.5z
" />
    <glyph glyph-name="Ohorn" unicode="&#x1a0;" horiz-adv-x="1595" 
d="M125 602q0 169 44 314t119 247.5t174 175.5t210 108.5t225 35.5q103 0 205 -29q20 -2 61 -2q71 0 115.5 45.5t60.5 118.5h177q-46 -204 -224 -256q111 -83 171.5 -214.5t60.5 -297.5q0 -169 -44 -314t-119 -247.5t-174 -175t-209 -107.5t-224 -35q-283 0 -456 174.5
t-173 458.5zM1319 827q0 222 -120.5 346.5t-313.5 124.5q-128 0 -235 -57t-176 -152t-106.5 -215.5t-37.5 -250.5q0 -221 120.5 -345t313.5 -124q129 0 235.5 56.5t175.5 150.5t106.5 214.5t37.5 251.5z" />
    <glyph glyph-name="ohorn" unicode="&#x1a1;" horiz-adv-x="1153" 
d="M1042 563q0 -165 -70 -301t-193 -214.5t-273 -78.5q-135 0 -236 62.5t-151.5 164.5t-50.5 228q0 253 154 422.5t384 169.5q88 0 176 -31h2q71 0 116 45.5t61 118.5h176q-43 -198 -217 -254q122 -125 122 -332zM594 844q-135 0 -232.5 -112t-97.5 -304q0 -131 67.5 -209
t182.5 -78q137 0 234.5 113t97.5 305q0 130 -67.5 207.5t-184.5 77.5z" />
    <glyph glyph-name="Uhorn" unicode="&#x1af;" horiz-adv-x="1390" 
d="M1427 1616h177q-23 -104 -83 -169t-149 -89l-192 -916q-47 -226 -191.5 -349.5t-359.5 -123.5q-220 0 -347.5 113t-127.5 319q0 89 16 152l190 899h193l-188 -924q-13 -63 -13 -108q0 -125 71.5 -194.5t215.5 -69.5q135 0 223 79t119 226l209 991h55h6q71 0 115.5 45.5
t60.5 118.5z" />
    <glyph glyph-name="uhorn" unicode="&#x1b0;" horiz-adv-x="1112" 
d="M883 256q-27 -122 -27 -223q0 -8 0.5 -14.5t0.5 -10t1 -6.5v-2h-184v2q-1 3 -1.5 7.5t-1 11t-1 16t-0.5 20.5q0 35 2 58q-47 -66 -119 -100.5t-145 -34.5q-150 0 -234 86.5t-84 230.5q0 55 12 113l123 575h193l-121 -571q-10 -55 -10 -92q0 -81 41.5 -130t132.5 -49
q103 0 172.5 77t91.5 190l121 575h49q71 0 115.5 45.5t60.5 118.5h176q-46 -209 -231 -258z" />
    <glyph glyph-name="uni01B5" unicode="&#x1b5;" horiz-adv-x="1257" 
d="M-41 0l41 197l463 475h-279l37 174h412l411 422h-796l39 184h1052l-41 -190l-405 -416h287l-37 -174h-420l-473 -486h831l-39 -186h-1083z" />
    <glyph glyph-name="uni01B6" unicode="&#x1b6;" horiz-adv-x="972" 
d="M123 588h309l236 223h-516l36 174h762l-37 -174l-235 -223h182l-35 -156h-311l-270 -258h551l-37 -174h-797l37 172l272 260h-182z" />
    <glyph glyph-name="Aringacute" unicode="&#x1fa;" horiz-adv-x="1406" 
d="M670 1524q0 106 76 177t174 71q89 0 149.5 -60t60.5 -145q0 -61 -32.5 -116t-87.5 -91l237 -1360h-203l-65 406h-608l-236 -406h-227l823 1380q-61 58 -61 144zM479 592h469l-102 631zM1008 1847h-199l244 244h268zM905 1642q-41 0 -72.5 -28.5t-31.5 -73.5
q0 -41 23.5 -63.5t64.5 -22.5q44 0 75 28t31 74q0 37 -24.5 61.5t-65.5 24.5z" />
    <glyph glyph-name="aringacute" unicode="&#x1fb;" horiz-adv-x="1183" 
d="M745 1530q89 0 150 -60t61 -145q0 -95 -73.5 -169.5t-171.5 -74.5q-91 0 -153 57.5t-62 143.5q0 106 75.5 177t173.5 71zM627 1298q0 -41 23.5 -63.5t64.5 -22.5q44 0 75 28.5t31 74.5q0 37 -24.5 61.5t-65.5 24.5t-72.5 -29t-31.5 -74zM872 1604h-172l236 299h254z
M592 848q-102 0 -179.5 -68t-114 -165t-36.5 -201q0 -122 59.5 -195.5t174.5 -73.5q140 0 232.5 128.5t92.5 320.5q0 112 -58 183t-171 71zM1106 985l-154 -729q-22 -99 -22 -223q0 -7 0.5 -15t1.5 -13v-5h-182v2q-1 3 -1.5 7.5t-1.5 11t-1.5 16t-0.5 20.5q0 28 3 68
q-120 -145 -291 -145q-185 0 -287 122t-102 310q0 159 64.5 296.5t183.5 221.5t266 84q116 0 193.5 -43.5t113.5 -110.5l26 125h191z" />
    <glyph glyph-name="AEacute" unicode="&#x1fc;" horiz-adv-x="2072" 
d="M1874 186l-39 -186h-872l81 391h-575l-334 -391h-254l1260 1452h1001l-39 -186h-671l-95 -447h609l-41 -188h-609l-94 -445h672zM1083 571l152 717l-612 -717h460zM1405 1554h-199l244 244h268z" />
    <glyph glyph-name="aeacute" unicode="&#x1fd;" horiz-adv-x="1753" 
d="M666 580q44 2 70 29t26 75q0 72 -57 121t-166 49q-90 0 -156.5 -46.5t-89.5 -125.5l-166 53q40 131 161.5 206t272.5 75q116 0 199.5 -41t128.5 -111q152 152 362 152q195 0 301.5 -109t106.5 -289q0 -84 -29 -180h-725q-2 -14 -2 -35q0 -119 71.5 -191.5t178.5 -72.5
q104 0 179 48t112 116l145 -94q-56 -103 -171.5 -171.5t-260.5 -68.5q-130 0 -231 55t-154 162q-143 -217 -399 -217q-163 0 -258 80t-95 205q0 138 103.5 225t255.5 92zM219 264q0 -63 49 -99t121 -36q50 0 99 17t95.5 52t82 97.5t49.5 144.5l-324 -12q-73 -5 -122.5 -45.5
t-49.5 -118.5zM1241 846q-116 0 -199 -74t-110 -178h524q4 20 4 41q0 39 -11.5 74.5t-36 67t-68.5 50.5t-103 19zM981 1112h-172l235 299h254z" />
    <glyph glyph-name="Oslashacute" unicode="&#x1fe;" horiz-adv-x="1597" 
d="M127 602q0 169 44 314t119 247.5t174 175.5t210 108.5t225 35.5q254 0 422 -146l158 160l120 -117l-167 -170q94 -149 94 -362q0 -169 -44 -314t-119 -247.5t-174 -175t-209 -107.5t-224 -35q-252 0 -418 140l-150 -152l-120 117l159 159q-100 150 -100 369zM332 623
q0 -133 47 -236l799 807q-116 104 -291 104q-128 0 -235 -57t-176 -152t-106.5 -215.5t-37.5 -250.5zM1321 827q0 132 -43 230l-799 -805q110 -98 287 -98q129 0 235.5 56.5t175.5 150.5t106.5 214.5t37.5 251.5zM1053 1554h-199l244 244h268z" />
    <glyph glyph-name="oslashacute" unicode="&#x1ff;" horiz-adv-x="1153" 
d="M-18 53l141 135q-55 104 -55 236q0 253 154 422.5t384 169.5q168 0 283 -94l125 120l106 -110l-135 -129q57 -99 57 -240q0 -165 -70 -301t-193 -214.5t-273 -78.5q-174 0 -287 99l-131 -125zM846 559q0 51 -12 98l-480 -460q65 -56 160 -56q137 0 234.5 113t97.5 305z
M594 844q-135 0 -232.5 -112t-97.5 -304q0 -55 10 -94l478 457q-65 53 -158 53zM723 1112h-172l235 299h254z" />
    <glyph glyph-name="Scommaaccent" unicode="&#x218;" horiz-adv-x="1210" 
d="M573 150q129 2 206 64.5t77 166.5q0 63 -39.5 117t-116.5 90l-192 86q-264 121 -264 375q0 183 139.5 308.5t347.5 125.5q102 0 185 -27.5t135.5 -70.5t88.5 -99t51 -109.5t15 -105.5l-190 -37q0 28 -5.5 58t-25 70t-50.5 70t-88.5 51.5t-131.5 21.5q-114 0 -190 -67.5
t-76 -162.5q0 -138 135 -201l198 -92q283 -131 283 -383q0 -85 -35.5 -163.5t-98.5 -137.5t-155 -94t-198 -35q-109 0 -199.5 29t-150.5 77t-101 111.5t-59.5 130.5t-18.5 136v30l203 35q-2 -14 -2 -41q0 -63 19 -120t56.5 -104t101 -75t146.5 -28zM340 -188q0 50 37.5 82
t93.5 32q48 0 84.5 -32t36.5 -93q0 -49 -16.5 -90.5t-43.5 -68.5t-61 -45.5t-68 -26.5t-67 -8q-15 0 -29 2l19 80q51 0 93 19.5t58 64.5q-12 -9 -37 -9q-44 0 -72 26t-28 67z" />
    <glyph glyph-name="scommaaccent" unicode="&#x219;" horiz-adv-x="909" 
d="M182 -188q0 50 37.5 82t93.5 32q48 0 84.5 -32t36.5 -93q0 -49 -16.5 -90.5t-43.5 -68.5t-61 -45.5t-68 -26.5t-67 -8q-14 0 -28 2l18 80q51 0 93 19.5t58 64.5q-12 -9 -36 -9q-44 0 -72.5 26t-28.5 67zM180 346q2 -91 60 -152t155 -61q77 0 117.5 38.5t40.5 92.5
q0 73 -92 117l-144 65q-176 78 -176 250q0 131 99.5 225.5t261.5 94.5q74 0 134.5 -20t98 -50t64 -70t38.5 -75.5t15 -69.5l-172 -47q-4 31 -15.5 58.5t-33.5 54t-60 42t-88 15.5q-71 0 -113 -38t-42 -91q0 -74 78 -111l135 -61q98 -44 151 -115t53 -159q0 -39 -12 -80
t-39.5 -83t-68 -74t-103 -52.5t-137.5 -20.5q-96 0 -171.5 32.5t-118 84t-64 108.5t-21.5 113z" />
    <glyph glyph-name="uni021A" unicode="&#x21a;" horiz-adv-x="1198" 
d="M850 1268l-268 -1268h-201l268 1268h-469l39 184h1120l-39 -184h-450zM309 -188q0 50 37.5 82t93.5 32q48 0 84.5 -32t36.5 -93q0 -49 -16.5 -90.5t-43.5 -68.5t-61 -45.5t-68 -26.5t-67 -8q-15 0 -29 2l19 80q51 0 93 19.5t58 64.5q-12 -9 -36 -9q-44 0 -72.5 26
t-28.5 67z" />
    <glyph glyph-name="uni021B" unicode="&#x21b;" horiz-adv-x="684" 
d="M121 -188q0 50 37.5 82t93.5 32q48 0 84.5 -32t36.5 -93q0 -49 -16.5 -90.5t-43.5 -68.5t-61 -45.5t-68 -26.5t-67 -8q-15 0 -29 2l18 80q51 0 93.5 19.5t58.5 64.5q-12 -9 -37 -9q-44 0 -72 26t-28 67zM453 158q9 0 19 0.5t17.5 1t14 1t10.5 1.5h4l-33 -158
q-42 -14 -104 -14q-110 0 -174 58t-64 161q0 39 9 74l112 528h-180l37 174h29q164 0 202 160l33 151h176l-67 -311h198l-37 -174h-198l-109 -518q-6 -27 -6 -47q0 -88 111 -88z" />
    <glyph glyph-name="dotlessj" unicode="&#x237;" horiz-adv-x="499" 
d="M238 985h190l-244 -1147q-26 -122 -105 -190t-192 -68q-38 0 -71 6.5t-47.5 12.5t-20.5 10l33 153q36 -12 76 -12q64 0 96.5 32t46.5 101z" />
    <glyph glyph-name="uni0259" unicode="&#x259;" horiz-adv-x="1120" 
d="M49 389q0 72 17 152h759v26q0 125 -66 202t-202 77q-96 0 -172 -45.5t-119 -120.5l-147 78q64 119 182.5 188.5t265.5 69.5q107 0 192 -34.5t138 -94.5t81 -138t28 -169q0 -148 -41 -266t-112.5 -192.5t-165 -113.5t-202.5 -39q-200 0 -318 118t-118 302zM242 385
q-2 -6 -2 -23q0 -100 68.5 -162.5t193.5 -62.5q112 0 187 66t112 182h-559z" />
    <glyph glyph-name="circumflex" unicode="&#x2c6;" horiz-adv-x="788" 
d="M-113 1116l269 285h231l145 -285h-174l-106 166l-180 -166h-185z" />
    <glyph glyph-name="caron" unicode="&#x2c7;" horiz-adv-x="788" 
d="M596 1407l-266 -291h-236l-143 291h172l106 -166l181 166h186z" />
    <glyph glyph-name="uni02C9" unicode="&#x2c9;" horiz-adv-x="667" 
d="M-98 1182v166h559v-166h-559z" />
    <glyph glyph-name="breve" unicode="&#x2d8;" horiz-adv-x="741" 
d="M178 1114q-117 0 -183.5 70t-66.5 170q0 28 6 55h142q-2 -14 -2 -16q0 -47 29.5 -81t93.5 -34q71 0 117.5 40t60.5 91h157q-28 -122 -119 -208.5t-235 -86.5z" />
    <glyph glyph-name="dotaccent" unicode="&#x2d9;" horiz-adv-x="407" 
d="M-84 1245q0 57 42.5 102.5t102.5 45.5q53 0 86 -34t33 -83q0 -60 -44 -104t-101 -44q-53 0 -86 33.5t-33 83.5z" />
    <glyph glyph-name="ring" unicode="&#x2da;" horiz-adv-x="600" 
d="M168 1536q89 0 150 -60t61 -145q0 -95 -73.5 -169.5t-172.5 -74.5q-91 0 -153 57.5t-62 143.5q0 106 76 177t174 71zM49 1305q0 -41 23.5 -63.5t64.5 -22.5q44 0 75.5 28t31.5 74q0 37 -24.5 61.5t-65.5 24.5t-73 -28.5t-32 -73.5z" />
    <glyph glyph-name="ogonek" unicode="&#x2db;" horiz-adv-x="477" 
d="M55 -442q-86 0 -138 47t-52 125q0 193 260 303l127 -33q-39 -16 -73.5 -35.5t-70 -47.5t-56.5 -64.5t-21 -75.5t25 -58.5t65 -19.5q37 0 67 6l-28 -131q-50 -16 -105 -16z" />
    <glyph glyph-name="tilde" unicode="&#x2dc;" horiz-adv-x="772" 
d="M-113 1135q16 133 79 195.5t155 62.5q69 0 139 -50l25 -16q1 -1 8.5 -6t9 -5.5t8 -4.5t9 -4.5t8 -3t9.5 -3t9.5 -1.5t11.5 -1q61 0 80 91h142q-24 -139 -83 -199t-149 -60q-69 0 -139 50l-25 16q-1 1 -8.5 6t-9 5.5t-8 4.5t-9 4.5t-8 3t-9.5 3t-9.5 1.5t-11.5 1
q-61 0 -80 -90h-144z" />
    <glyph glyph-name="hungarumlaut" unicode="&#x2dd;" horiz-adv-x="751" 
d="M23 1112h-142l168 299h221zM297 1112h-141l188 299h221z" />
    <glyph glyph-name="uni0394" unicode="&#x394;" horiz-adv-x="1525" 
d="M666 1223l-390 -1039h785zM561 1452h215l572 -1452h-1356z" />
    <glyph glyph-name="uni03A9" unicode="&#x3a9;" horiz-adv-x="1800" 
d="M899 1303q-97 0 -188.5 -33.5t-165.5 -95.5t-119 -160.5t-45 -218.5q0 -107 38 -200.5t101 -158t137.5 -107t153.5 -59.5v-270h-625v180h408q-81 30 -154 85t-133 131t-95.5 179.5t-35.5 217.5q0 158 60 290t160.5 218.5t230.5 134t272 47.5t272 -47.5t230.5 -134
t160.5 -218.5t60 -290q0 -114 -35.5 -217t-95.5 -179.5t-134 -132t-155 -84.5h410v-180h-625v270q79 17 153.5 59.5t137.5 107t101 158t38 200.5q0 120 -45 218.5t-119 160.5t-165.5 95.5t-188.5 33.5z" />
    <glyph glyph-name="uni03BC" unicode="&#x3bc;" horiz-adv-x="1210" 
d="M152 985h194v-592q0 -112 54.5 -183t168.5 -71t174 68t60 184v594h192v-803q0 -27 1 -56t2.5 -50.5t3.5 -38.5t3 -27l1 -10h-185q-8 31 -8 119q-39 -74 -119 -112t-172 -38q-101 0 -178 41v-399h-192v1374z" />
    <glyph glyph-name="pi" unicode="&#x3c0;" horiz-adv-x="1406" 
d="M1036 250q0 -100 111 -100q32 0 63 8v-148q-60 -24 -125 -24q-119 0 -180 70.5t-61 172.5v588h-338v-817h-193v817h-168v168h1061v-168h-170v-567z" />
    <glyph glyph-name="Wgrave" unicode="&#x1e80;" horiz-adv-x="1994" 
d="M877 1798h241l154 -244h-176zM1260 1452l129 -1149l516 1149h202l-669 -1452h-199l-129 1178l-573 -1178h-205l-113 1452h195l80 -1137l555 1137h211z" />
    <glyph glyph-name="wgrave" unicode="&#x1e81;" horiz-adv-x="1622" 
d="M625 1411h229l115 -299h-152zM975 985l94 -735l371 735h211l-523 -985h-198l-99 745l-389 -745h-202l-101 985h185l63 -733l385 733h203z" />
    <glyph glyph-name="Wacute" unicode="&#x1e82;" horiz-adv-x="1994" 
d="M1198 1554h-199l244 244h268zM1260 1452l129 -1149l516 1149h202l-669 -1452h-199l-129 1178l-573 -1178h-205l-113 1452h195l80 -1137l555 1137h211z" />
    <glyph glyph-name="wacute" unicode="&#x1e83;" horiz-adv-x="1622" 
d="M948 1112h-172l236 299h254zM975 985l94 -735l371 735h211l-523 -985h-198l-99 745l-389 -745h-202l-101 985h185l63 -733l385 733h203z" />
    <glyph glyph-name="Wdieresis" unicode="&#x1e84;" horiz-adv-x="1994" 
d="M858 1665q0 59 38.5 96t96.5 37q47 0 77 -30.5t30 -75.5q0 -59 -39 -97.5t-94 -38.5q-47 0 -78 31t-31 78zM1329 1665q0 59 38.5 96t96.5 37q47 0 77 -30.5t30 -75.5q0 -59 -39 -97.5t-94 -38.5q-47 0 -78 31t-31 78zM1260 1452l129 -1149l516 1149h202l-669 -1452h-199
l-129 1178l-573 -1178h-205l-113 1452h195l80 -1137l555 1137h211z" />
    <glyph glyph-name="wdieresis" unicode="&#x1e85;" horiz-adv-x="1622" 
d="M596 1257q0 54 38.5 94t92.5 40q48 0 78.5 -32.5t30.5 -76.5q0 -55 -41.5 -92t-94.5 -37q-44 0 -74 30.5t-30 73.5zM995 1257q0 54 38.5 94t92.5 40q48 0 78.5 -32.5t30.5 -76.5q0 -55 -41 -92t-94 -37q-44 0 -74.5 30.5t-30.5 73.5zM975 985l94 -735l371 735h211
l-523 -985h-198l-99 745l-389 -745h-202l-101 985h185l63 -733l385 733h203z" />
    <glyph glyph-name="uni1E8A" unicode="&#x1e8a;" horiz-adv-x="1265" 
d="M694 1667q0 60 42 101.5t102 41.5q53 0 86.5 -34t33.5 -82q0 -60 -44 -104t-101 -44q-53 0 -86 34.5t-33 86.5zM158 0h-250l637 729l-332 723h219l252 -559l481 559h252l-645 -739l330 -713h-221l-248 549z" />
    <glyph glyph-name="uni1E8B" unicode="&#x1e8b;" horiz-adv-x="1040" 
d="M496 1245q0 57 42.5 102.5t102.5 45.5q53 0 86 -34t33 -83q0 -60 -44 -104t-102 -44q-53 0 -85.5 33.5t-32.5 83.5zM156 0h-248l481 504l-258 481h211q34 -68 99.5 -194.5t76.5 -147.5l311 342h246l-465 -487q23 -41 119 -221t150 -277h-211l-187 356z" />
    <glyph glyph-name="uni1EA0" unicode="&#x1ea0;" horiz-adv-x="1406" 
d="M403 -326q0 58 41.5 97t94.5 39q47 0 77.5 -31t30.5 -76q0 -54 -41.5 -94.5t-93.5 -40.5q-46 0 -77.5 31t-31.5 75zM979 406h-608l-236 -406h-227l866 1452h221l252 -1452h-203zM479 592h469l-102 631z" />
    <glyph glyph-name="uni1EA1" unicode="&#x1ea1;" horiz-adv-x="1183" 
d="M287 -326q0 58 41 97t94 39q47 0 77.5 -31t30.5 -76q0 -54 -41.5 -94.5t-93.5 -40.5q-46 0 -77 31t-31 75zM592 848q-102 0 -179.5 -68t-114 -165t-36.5 -201q0 -122 59.5 -195.5t174.5 -73.5q140 0 232.5 128.5t92.5 320.5q0 112 -58 183t-171 71zM1106 985l-154 -729
q-22 -99 -22 -223q0 -7 0.5 -15t1.5 -13v-5h-182v2q-1 3 -1.5 7.5t-1.5 11t-1.5 16t-0.5 20.5q0 28 3 68q-120 -145 -291 -145q-185 0 -287 122t-102 310q0 159 64.5 296.5t183.5 221.5t266 84q116 0 193.5 -43.5t113.5 -110.5l26 125h191z" />
    <glyph glyph-name="uni1EA2" unicode="&#x1ea2;" horiz-adv-x="1406" 
d="M1094 1749q-21 -91 -127 -174h-123q88 79 104 137q9 39 -12 58.5t-59 19.5q-41 0 -60 -8l27 119q49 6 100 6q77 -2 122.5 -42.5t27.5 -115.5zM979 406h-608l-236 -406h-227l866 1452h221l252 -1452h-203zM479 592h469l-102 631z" />
    <glyph glyph-name="uni1EA3" unicode="&#x1ea3;" horiz-adv-x="1183" 
d="M860 1311q-21 -91 -127 -174h-123q89 81 105 137q8 39 -13 58.5t-59 19.5t-59 -9l26 119q50 6 101 6q77 -2 122 -42t27 -115zM592 848q-102 0 -179.5 -68t-114 -165t-36.5 -201q0 -122 59.5 -195.5t174.5 -73.5q140 0 232.5 128.5t92.5 320.5q0 112 -58 183t-171 71z
M1106 985l-154 -729q-22 -99 -22 -223q0 -7 0.5 -15t1.5 -13v-5h-182v2q-1 3 -1.5 7.5t-1.5 11t-1.5 16t-0.5 20.5q0 28 3 68q-120 -145 -291 -145q-185 0 -287 122t-102 310q0 159 64.5 296.5t183.5 221.5t266 84q116 0 193.5 -43.5t113.5 -110.5l26 125h191z" />
    <glyph glyph-name="uni1EA4" unicode="&#x1ea4;" horiz-adv-x="1406" 
d="M1313 1757h-152l185 264h215zM979 406h-608l-236 -406h-227l866 1452h221l252 -1452h-203zM479 592h469l-102 631zM1030 1819l158 -265h-158l-108 154l-156 -154h-168l240 265h192z" />
    <glyph glyph-name="uni1EA5" unicode="&#x1ea5;" horiz-adv-x="1183" 
d="M1077 1319h-151l184 264h215zM592 848q-102 0 -179.5 -68t-114 -165t-36.5 -201q0 -122 59.5 -195.5t174.5 -73.5q140 0 232.5 128.5t92.5 320.5q0 112 -58 183t-171 71zM1106 985l-154 -729q-22 -99 -22 -223q0 -7 0.5 -15t1.5 -13v-5h-182v2q-1 3 -1.5 7.5t-1.5 11
t-1.5 16t-0.5 20.5q0 28 3 68q-120 -145 -291 -145q-185 0 -287 122t-102 310q0 159 64.5 296.5t183.5 221.5t266 84q116 0 193.5 -43.5t113.5 -110.5l26 125h191zM795 1380l157 -264h-157l-109 154l-156 -154h-168l240 264h193z" />
    <glyph glyph-name="uni1EA6" unicode="&#x1ea6;" horiz-adv-x="1406" 
d="M1329 1757h-137l-154 264h199zM979 406h-608l-236 -406h-227l866 1452h221l252 -1452h-203zM479 592h469l-102 631zM1030 1819l158 -265h-158l-108 154l-156 -154h-168l240 265h192z" />
    <glyph glyph-name="uni1EA7" unicode="&#x1ea7;" horiz-adv-x="1183" 
d="M1094 1319h-138l-153 264h198zM592 848q-102 0 -179.5 -68t-114 -165t-36.5 -201q0 -122 59.5 -195.5t174.5 -73.5q140 0 232.5 128.5t92.5 320.5q0 112 -58 183t-171 71zM1106 985l-154 -729q-22 -99 -22 -223q0 -7 0.5 -15t1.5 -13v-5h-182v2q-1 3 -1.5 7.5t-1.5 11
t-1.5 16t-0.5 20.5q0 28 3 68q-120 -145 -291 -145q-185 0 -287 122t-102 310q0 159 64.5 296.5t183.5 221.5t266 84q116 0 193.5 -43.5t113.5 -110.5l26 125h191zM795 1380l157 -264h-157l-109 154l-156 -154h-168l240 264h193z" />
    <glyph glyph-name="uni1EA8" unicode="&#x1ea8;" horiz-adv-x="1406" 
d="M1401 1931q-21 -91 -127 -174h-123q88 79 104 137q9 39 -12 58.5t-59 19.5q-41 0 -60 -8l27 119q49 6 100 6q77 -2 122.5 -42.5t27.5 -115.5zM979 406h-608l-236 -406h-227l866 1452h221l252 -1452h-203zM479 592h469l-102 631zM1030 1819l158 -265h-158l-108 154
l-156 -154h-168l240 265h192z" />
    <glyph glyph-name="uni1EA9" unicode="&#x1ea9;" horiz-adv-x="1183" 
d="M1165 1493q-21 -91 -127 -174h-123q89 81 105 137q8 39 -13 58.5t-59 19.5q-40 0 -59 -8l26 119q50 6 101 6q77 -2 122 -42.5t27 -115.5zM592 848q-102 0 -179.5 -68t-114 -165t-36.5 -201q0 -122 59.5 -195.5t174.5 -73.5q140 0 232.5 128.5t92.5 320.5q0 112 -58 183
t-171 71zM1106 985l-154 -729q-22 -99 -22 -223q0 -7 0.5 -15t1.5 -13v-5h-182v2q-1 3 -1.5 7.5t-1.5 11t-1.5 16t-0.5 20.5q0 28 3 68q-120 -145 -291 -145q-185 0 -287 122t-102 310q0 159 64.5 296.5t183.5 221.5t266 84q116 0 193.5 -43.5t113.5 -110.5l26 125h191z
M795 1380l157 -264h-157l-109 154l-156 -154h-168l240 264h193z" />
    <glyph glyph-name="uni1EAA" unicode="&#x1eaa;" horiz-adv-x="1406" 
d="M1253 2109q-22 -114 -80 -171.5t-135 -57.5q-34 0 -61.5 15t-43 33t-36.5 33t-43 15q-20 0 -37 -24t-26 -68h-136q22 115 80.5 172.5t136.5 57.5q34 0 62 -15t43.5 -33.5t36.5 -33.5t43 -15q20 0 37 24.5t26 67.5h133zM979 406h-608l-236 -406h-227l866 1452h221
l252 -1452h-203zM479 592h469l-102 631zM1030 1819l158 -265h-158l-108 154l-156 -154h-168l240 265h192z" />
    <glyph glyph-name="uni1EAB" unicode="&#x1eab;" horiz-adv-x="1183" 
d="M1018 1671q-22 -114 -80 -171.5t-135 -57.5q-34 0 -62 15t-43.5 33t-36.5 33t-43 15q-20 0 -37 -24t-26 -68h-135q22 115 80.5 172t136.5 57q34 0 61.5 -15t43 -33t36.5 -33t43 -15q20 0 37.5 24.5t26.5 67.5h133zM592 848q-102 0 -179.5 -68t-114 -165t-36.5 -201
q0 -122 59.5 -195.5t174.5 -73.5q140 0 232.5 128.5t92.5 320.5q0 112 -58 183t-171 71zM1106 985l-154 -729q-22 -99 -22 -223q0 -7 0.5 -15t1.5 -13v-5h-182v2q-1 3 -1.5 7.5t-1.5 11t-1.5 16t-0.5 20.5q0 28 3 68q-120 -145 -291 -145q-185 0 -287 122t-102 310
q0 159 64.5 296.5t183.5 221.5t266 84q116 0 193.5 -43.5t113.5 -110.5l26 125h191zM795 1380l157 -264h-157l-109 154l-156 -154h-168l240 264h193z" />
    <glyph glyph-name="uni1EAC" unicode="&#x1eac;" horiz-adv-x="1406" 
d="M403 -326q0 58 41.5 97t94.5 39q47 0 77.5 -31t30.5 -76q0 -54 -41.5 -94.5t-93.5 -40.5q-46 0 -77.5 31t-31.5 75zM979 406h-608l-236 -406h-227l866 1452h221l252 -1452h-203zM479 592h469l-102 631zM1030 1819l158 -265h-158l-108 154l-156 -154h-168l240 265h192z
" />
    <glyph glyph-name="uni1EAD" unicode="&#x1ead;" horiz-adv-x="1183" 
d="M287 -326q0 58 41 97t94 39q47 0 77.5 -31t30.5 -76q0 -54 -41.5 -94.5t-93.5 -40.5q-46 0 -77 31t-31 75zM592 848q-102 0 -179.5 -68t-114 -165t-36.5 -201q0 -122 59.5 -195.5t174.5 -73.5q140 0 232.5 128.5t92.5 320.5q0 112 -58 183t-171 71zM1106 985l-154 -729
q-22 -99 -22 -223q0 -7 0.5 -15t1.5 -13v-5h-182v2q-1 3 -1.5 7.5t-1.5 11t-1.5 16t-0.5 20.5q0 28 3 68q-120 -145 -291 -145q-185 0 -287 122t-102 310q0 159 64.5 296.5t183.5 221.5t266 84q116 0 193.5 -43.5t113.5 -110.5l26 125h191zM795 1380l157 -264h-157l-109 154
l-156 -154h-168l240 264h193z" />
    <glyph glyph-name="uni1EAE" unicode="&#x1eae;" horiz-adv-x="1406" 
d="M1014 1858h-152l185 264h215zM979 406h-608l-236 -406h-227l866 1452h221l252 -1452h-203zM479 592h469l-102 631zM897 1554q-130 0 -192 63t-39 179h137q-8 -50 21 -81.5t98 -31.5q62 0 102 31.5t53 81.5h148q-23 -116 -109 -179t-219 -63z" />
    <glyph glyph-name="uni1EAF" unicode="&#x1eaf;" horiz-adv-x="1183" 
d="M770 1419h-152l185 264h215zM592 848q-102 0 -179.5 -68t-114 -165t-36.5 -201q0 -122 59.5 -195.5t174.5 -73.5q140 0 232.5 128.5t92.5 320.5q0 112 -58 183t-171 71zM1106 985l-154 -729q-22 -99 -22 -223q0 -7 0.5 -15t1.5 -13v-5h-182v2q-1 3 -1.5 7.5t-1.5 11
t-1.5 16t-0.5 20.5q0 28 3 68q-120 -145 -291 -145q-185 0 -287 122t-102 310q0 159 64.5 296.5t183.5 221.5t266 84q116 0 193.5 -43.5t113.5 -110.5l26 125h191zM653 1116q-130 0 -192 63t-39 179h137q-8 -50 21 -81.5t98 -31.5q62 0 102.5 31.5t53.5 81.5h147
q-23 -116 -109 -179t-219 -63z" />
    <glyph glyph-name="uni1EB0" unicode="&#x1eb0;" horiz-adv-x="1406" 
d="M1018 1858h-141l-154 264h203zM979 406h-608l-236 -406h-227l866 1452h221l252 -1452h-203zM479 592h469l-102 631zM897 1554q-130 0 -192 63t-39 179h137q-8 -50 21 -81.5t98 -31.5q62 0 102 31.5t53 81.5h148q-23 -116 -109 -179t-219 -63z" />
    <glyph glyph-name="uni1EB1" unicode="&#x1eb1;" horiz-adv-x="1183" 
d="M774 1419h-141l-154 264h203zM592 848q-102 0 -179.5 -68t-114 -165t-36.5 -201q0 -122 59.5 -195.5t174.5 -73.5q140 0 232.5 128.5t92.5 320.5q0 112 -58 183t-171 71zM1106 985l-154 -729q-22 -99 -22 -223q0 -7 0.5 -15t1.5 -13v-5h-182v2q-1 3 -1.5 7.5t-1.5 11
t-1.5 16t-0.5 20.5q0 28 3 68q-120 -145 -291 -145q-185 0 -287 122t-102 310q0 159 64.5 296.5t183.5 221.5t266 84q116 0 193.5 -43.5t113.5 -110.5l26 125h191zM653 1116q-130 0 -192 63t-39 179h137q-8 -50 21 -81.5t98 -31.5q62 0 102.5 31.5t53.5 81.5h147
q-23 -116 -109 -179t-219 -63z" />
    <glyph glyph-name="uni1EB2" unicode="&#x1eb2;" horiz-adv-x="1406" 
d="M1135 2011q-21 -91 -127 -174h-123q88 79 104 137q9 39 -12 58.5t-59 19.5q-41 0 -60 -8l27 119q50 6 100 6q77 -2 122.5 -42.5t27.5 -115.5zM979 406h-608l-236 -406h-227l866 1452h221l252 -1452h-203zM479 592h469l-102 631zM897 1554q-130 0 -192 63t-39 179h137
q-8 -50 21 -81.5t98 -31.5q62 0 102 31.5t53 81.5h148q-23 -116 -109 -179t-219 -63z" />
    <glyph glyph-name="uni1EB3" unicode="&#x1eb3;" horiz-adv-x="1183" 
d="M891 1573q-21 -91 -127 -174h-123q88 79 104 137q9 39 -12 58.5t-59 19.5q-41 0 -60 -8l27 118q58 7 100 7q77 -2 122.5 -42.5t27.5 -115.5zM592 848q-102 0 -179.5 -68t-114 -165t-36.5 -201q0 -122 59.5 -195.5t174.5 -73.5q140 0 232.5 128.5t92.5 320.5
q0 112 -58 183t-171 71zM1106 985l-154 -729q-22 -99 -22 -223q0 -7 0.5 -15t1.5 -13v-5h-182v2q-1 3 -1.5 7.5t-1.5 11t-1.5 16t-0.5 20.5q0 28 3 68q-120 -145 -291 -145q-185 0 -287 122t-102 310q0 159 64.5 296.5t183.5 221.5t266 84q116 0 193.5 -43.5t113.5 -110.5
l26 125h191zM653 1116q-130 0 -192 63t-39 179h137q-8 -50 21 -81.5t98 -31.5q62 0 102.5 31.5t53.5 81.5h147q-23 -116 -109 -179t-219 -63z" />
    <glyph glyph-name="uni1EB4" unicode="&#x1eb4;" horiz-adv-x="1406" 
d="M1262 2087q-22 -114 -80 -171.5t-135 -57.5q-34 0 -62 15t-43.5 33t-36.5 33t-43 15q-20 0 -37 -24t-26 -68h-135q22 115 80.5 172t136.5 57q34 0 61.5 -15t43 -33t36.5 -33t43 -15q20 0 37 24.5t26 67.5h134zM979 406h-608l-236 -406h-227l866 1452h221l252 -1452h-203z
M479 592h469l-102 631zM897 1554q-130 0 -192 63t-39 179h137q-8 -50 21 -81.5t98 -31.5q62 0 102 31.5t53 81.5h148q-23 -116 -109 -179t-219 -63z" />
    <glyph glyph-name="uni1EB5" unicode="&#x1eb5;" horiz-adv-x="1183" 
d="M1018 1649q-22 -114 -80 -172t-135 -58q-34 0 -62 15t-43.5 33.5t-36.5 33.5t-43 15q-20 0 -37 -24.5t-26 -68.5h-135q22 115 80.5 172.5t136.5 57.5q28 0 51 -10t38.5 -24.5t29.5 -28.5t30.5 -24t34.5 -10q20 0 37.5 25t26.5 68h133zM592 848q-102 0 -179.5 -68
t-114 -165t-36.5 -201q0 -122 59.5 -195.5t174.5 -73.5q140 0 232.5 128.5t92.5 320.5q0 112 -58 183t-171 71zM1106 985l-154 -729q-22 -99 -22 -223q0 -7 0.5 -15t1.5 -13v-5h-182v2q-1 3 -1.5 7.5t-1.5 11t-1.5 16t-0.5 20.5q0 28 3 68q-120 -145 -291 -145
q-185 0 -287 122t-102 310q0 159 64.5 296.5t183.5 221.5t266 84q116 0 193.5 -43.5t113.5 -110.5l26 125h191zM653 1116q-130 0 -192 63t-39 179h137q-8 -50 21 -81.5t98 -31.5q62 0 102.5 31.5t53.5 81.5h147q-23 -116 -109 -179t-219 -63z" />
    <glyph glyph-name="uni1EB6" unicode="&#x1eb6;" horiz-adv-x="1406" 
d="M403 -326q0 58 41.5 97t94.5 39q47 0 77.5 -31t30.5 -76q0 -54 -41.5 -94.5t-93.5 -40.5q-46 0 -77.5 31t-31.5 75zM979 406h-608l-236 -406h-227l866 1452h221l252 -1452h-203zM479 592h469l-102 631zM897 1554q-130 0 -192 63t-39 179h137q-8 -50 21 -81.5t98 -31.5
q62 0 102 31.5t53 81.5h148q-23 -116 -109 -179t-219 -63z" />
    <glyph glyph-name="uni1EB7" unicode="&#x1eb7;" horiz-adv-x="1183" 
d="M287 -326q0 58 41 97t94 39q47 0 77.5 -31t30.5 -76q0 -54 -41.5 -94.5t-93.5 -40.5q-46 0 -77 31t-31 75zM592 848q-102 0 -179.5 -68t-114 -165t-36.5 -201q0 -122 59.5 -195.5t174.5 -73.5q140 0 232.5 128.5t92.5 320.5q0 112 -58 183t-171 71zM1106 985l-154 -729
q-22 -99 -22 -223q0 -7 0.5 -15t1.5 -13v-5h-182v2q-1 3 -1.5 7.5t-1.5 11t-1.5 16t-0.5 20.5q0 28 3 68q-120 -145 -291 -145q-185 0 -287 122t-102 310q0 159 64.5 296.5t183.5 221.5t266 84q116 0 193.5 -43.5t113.5 -110.5l26 125h191zM653 1116q-130 0 -192 63t-39 179
h137q-8 -50 21 -81.5t98 -31.5q62 0 102.5 31.5t53.5 81.5h147q-23 -116 -109 -179t-219 -63z" />
    <glyph glyph-name="uni1EB8" unicode="&#x1eb8;" horiz-adv-x="1177" 
d="M328 -326q0 58 41 97t94 39q47 0 77.5 -31t30.5 -76q0 -54 -41.5 -94.5t-93.5 -40.5q-46 0 -77 31t-31 75zM68 0l307 1452h872l-39 -186h-671l-95 -447h609l-41 -188h-609l-94 -445h672l-39 -186h-872z" />
    <glyph glyph-name="uni1EB9" unicode="&#x1eb9;" horiz-adv-x="1110" 
d="M307 -326q0 58 41 97t94 39q47 0 78 -31t31 -76q0 -54 -41.5 -94.5t-93.5 -40.5q-46 0 -77.5 31t-31.5 75zM813 594q4 20 4 41q0 39 -11.5 74.5t-36 67t-68.5 50.5t-103 19q-116 0 -199 -74t-110 -178h524zM262 438q-2 -14 -2 -35q0 -119 71.5 -191.5t178.5 -72.5
q104 0 179 48t112 116l145 -94q-56 -103 -171.5 -171.5t-260.5 -68.5q-124 0 -223.5 49.5t-161 153t-61.5 246.5q0 135 46 250t122 190t172.5 116.5t199.5 41.5q195 0 301.5 -109t106.5 -289q0 -84 -29 -180h-725z" />
    <glyph glyph-name="uni1EBA" unicode="&#x1eba;" horiz-adv-x="1177" 
d="M1006 1749q-21 -91 -127 -174h-123q88 79 104 137q8 39 -13 58.5t-59 19.5q-40 0 -59 -8l27 119q50 6 100 6q77 -2 122.5 -42.5t27.5 -115.5zM68 0l307 1452h872l-39 -186h-671l-95 -447h609l-41 -188h-609l-94 -445h672l-39 -186h-872z" />
    <glyph glyph-name="uni1EBB" unicode="&#x1ebb;" horiz-adv-x="1110" 
d="M844 1311q-21 -91 -127 -174h-123q88 79 104 137q9 39 -12 58.5t-59 19.5q-39 0 -60 -9l27 119q50 6 100 6q77 -2 122.5 -42t27.5 -115zM813 594q4 20 4 41q0 39 -11.5 74.5t-36 67t-68.5 50.5t-103 19q-116 0 -199 -74t-110 -178h524zM262 438q-2 -14 -2 -35
q0 -119 71.5 -191.5t178.5 -72.5q104 0 179 48t112 116l145 -94q-56 -103 -171.5 -171.5t-260.5 -68.5q-124 0 -223.5 49.5t-161 153t-61.5 246.5q0 135 46 250t122 190t172.5 116.5t199.5 41.5q195 0 301.5 -109t106.5 -289q0 -84 -29 -180h-725z" />
    <glyph glyph-name="uni1EBC" unicode="&#x1ebc;" horiz-adv-x="1177" 
d="M1143 1804q-22 -114 -80 -171.5t-135 -57.5q-34 0 -62 15t-43.5 33t-36.5 33t-43 15q-20 0 -37 -24t-26 -68h-135q22 115 80.5 172t136.5 57q34 0 61.5 -15t43 -33t36.5 -33t43 -15q20 0 37.5 24.5t26.5 67.5h133zM68 0l307 1452h872l-39 -186h-671l-95 -447h609
l-41 -188h-609l-94 -445h672l-39 -186h-872z" />
    <glyph glyph-name="uni1EBD" unicode="&#x1ebd;" horiz-adv-x="1110" 
d="M963 1366q-22 -114 -80 -171.5t-135 -57.5q-34 0 -62 15t-43.5 33t-36.5 33t-43 15q-20 0 -37 -24t-26 -68h-135q22 115 80.5 172t136.5 57q34 0 61.5 -15t43 -33t36.5 -33t43 -15q20 0 37 24.5t26 67.5h134zM813 594q4 20 4 41q0 39 -11.5 74.5t-36 67t-68.5 50.5
t-103 19q-116 0 -199 -74t-110 -178h524zM262 438q-2 -14 -2 -35q0 -119 71.5 -191.5t178.5 -72.5q104 0 179 48t112 116l145 -94q-56 -103 -171.5 -171.5t-260.5 -68.5q-124 0 -223.5 49.5t-161 153t-61.5 246.5q0 135 46 250t122 190t172.5 116.5t199.5 41.5
q195 0 301.5 -109t106.5 -289q0 -84 -29 -180h-725z" />
    <glyph glyph-name="uni1EBE" unicode="&#x1ebe;" horiz-adv-x="1177" 
d="M1235 1757h-152l185 264h215zM68 0l307 1452h872l-39 -186h-671l-95 -447h609l-41 -188h-609l-94 -445h672l-39 -186h-872zM952 1819l158 -265h-158l-108 154l-156 -154h-168l240 265h192z" />
    <glyph glyph-name="uni1EBF" unicode="&#x1ebf;" horiz-adv-x="1110" 
d="M1057 1319h-152l185 264h215zM813 594q4 20 4 41q0 39 -11.5 74.5t-36 67t-68.5 50.5t-103 19q-116 0 -199 -74t-110 -178h524zM262 438q-2 -14 -2 -35q0 -119 71.5 -191.5t178.5 -72.5q104 0 179 48t112 116l145 -94q-56 -103 -171.5 -171.5t-260.5 -68.5
q-124 0 -223.5 49.5t-161 153t-61.5 246.5q0 135 46 250t122 190t172.5 116.5t199.5 41.5q195 0 301.5 -109t106.5 -289q0 -84 -29 -180h-725zM774 1380l158 -264h-158l-108 154l-156 -154h-168l240 264h192z" />
    <glyph glyph-name="uni1EC0" unicode="&#x1ec0;" horiz-adv-x="1177" 
d="M1251 1757h-137l-153 264h198zM68 0l307 1452h872l-39 -186h-671l-95 -447h609l-41 -188h-609l-94 -445h672l-39 -186h-872zM952 1819l158 -265h-158l-108 154l-156 -154h-168l240 265h192z" />
    <glyph glyph-name="uni1EC1" unicode="&#x1ec1;" horiz-adv-x="1110" 
d="M1073 1319h-137l-154 264h199zM813 594q4 20 4 41q0 39 -11.5 74.5t-36 67t-68.5 50.5t-103 19q-116 0 -199 -74t-110 -178h524zM262 438q-2 -14 -2 -35q0 -119 71.5 -191.5t178.5 -72.5q104 0 179 48t112 116l145 -94q-56 -103 -171.5 -171.5t-260.5 -68.5
q-124 0 -223.5 49.5t-161 153t-61.5 246.5q0 135 46 250t122 190t172.5 116.5t199.5 41.5q195 0 301.5 -109t106.5 -289q0 -84 -29 -180h-725zM774 1380l158 -264h-158l-108 154l-156 -154h-168l240 264h192z" />
    <glyph glyph-name="uni1EC2" unicode="&#x1ec2;" horiz-adv-x="1177" 
d="M1323 1931q-21 -91 -127 -174h-123q89 81 105 137q8 39 -13 58.5t-59 19.5q-40 0 -59 -8l26 119q49 6 101 6q77 -2 122 -42.5t27 -115.5zM68 0l307 1452h872l-39 -186h-671l-95 -447h609l-41 -188h-609l-94 -445h672l-39 -186h-872zM952 1819l158 -265h-158l-108 154
l-156 -154h-168l240 265h192z" />
    <glyph glyph-name="uni1EC3" unicode="&#x1ec3;" horiz-adv-x="1110" 
d="M1145 1493q-21 -91 -127 -174h-123q88 79 104 137q9 39 -12 58.5t-59 19.5q-41 0 -60 -8l27 119q50 6 100 6q77 -2 122.5 -42.5t27.5 -115.5zM813 594q4 20 4 41q0 39 -11.5 74.5t-36 67t-68.5 50.5t-103 19q-116 0 -199 -74t-110 -178h524zM262 438q-2 -14 -2 -35
q0 -119 71.5 -191.5t178.5 -72.5q104 0 179 48t112 116l145 -94q-56 -103 -171.5 -171.5t-260.5 -68.5q-124 0 -223.5 49.5t-161 153t-61.5 246.5q0 135 46 250t122 190t172.5 116.5t199.5 41.5q195 0 301.5 -109t106.5 -289q0 -84 -29 -180h-725zM774 1380l158 -264h-158
l-108 154l-156 -154h-168l240 264h192z" />
    <glyph glyph-name="uni1EC4" unicode="&#x1ec4;" horiz-adv-x="1177" 
d="M1176 2109q-22 -114 -80 -171.5t-135 -57.5q-34 0 -62 15t-43.5 33t-36.5 33t-43 15q-20 0 -37 -24t-26 -68h-135q22 115 80.5 172.5t136.5 57.5q28 0 51 -10t38.5 -24t29.5 -28.5t30.5 -24.5t34.5 -10q20 0 37 24.5t26 67.5h134zM68 0l307 1452h872l-39 -186h-671
l-95 -447h609l-41 -188h-609l-94 -445h672l-39 -186h-872zM952 1819l158 -265h-158l-108 154l-156 -154h-168l240 265h192z" />
    <glyph glyph-name="uni1EC5" unicode="&#x1ec5;" horiz-adv-x="1110" 
d="M997 1671q-22 -114 -80 -171.5t-135 -57.5q-34 0 -61.5 15t-43 33t-36.5 33t-43 15q-20 0 -37 -24t-26 -68h-136q22 115 80.5 172t136.5 57q34 0 62 -15t43.5 -33t36.5 -33t43 -15q20 0 37 24.5t26 67.5h133zM813 594q4 20 4 41q0 39 -11.5 74.5t-36 67t-68.5 50.5
t-103 19q-116 0 -199 -74t-110 -178h524zM262 438q-2 -14 -2 -35q0 -119 71.5 -191.5t178.5 -72.5q104 0 179 48t112 116l145 -94q-56 -103 -171.5 -171.5t-260.5 -68.5q-124 0 -223.5 49.5t-161 153t-61.5 246.5q0 135 46 250t122 190t172.5 116.5t199.5 41.5
q195 0 301.5 -109t106.5 -289q0 -84 -29 -180h-725zM774 1380l158 -264h-158l-108 154l-156 -154h-168l240 264h192z" />
    <glyph glyph-name="uni1EC6" unicode="&#x1ec6;" horiz-adv-x="1177" 
d="M328 -326q0 58 41 97t94 39q47 0 77.5 -31t30.5 -76q0 -54 -41.5 -94.5t-93.5 -40.5q-46 0 -77 31t-31 75zM68 0l307 1452h872l-39 -186h-671l-95 -447h609l-41 -188h-609l-94 -445h672l-39 -186h-872zM952 1819l158 -265h-158l-108 154l-156 -154h-168l240 265h192z" />
    <glyph glyph-name="uni1EC7" unicode="&#x1ec7;" horiz-adv-x="1110" 
d="M307 -326q0 58 41 97t94 39q47 0 78 -31t31 -76q0 -54 -41.5 -94.5t-93.5 -40.5q-46 0 -77.5 31t-31.5 75zM813 594q4 20 4 41q0 39 -11.5 74.5t-36 67t-68.5 50.5t-103 19q-116 0 -199 -74t-110 -178h524zM262 438q-2 -14 -2 -35q0 -119 71.5 -191.5t178.5 -72.5
q104 0 179 48t112 116l145 -94q-56 -103 -171.5 -171.5t-260.5 -68.5q-124 0 -223.5 49.5t-161 153t-61.5 246.5q0 135 46 250t122 190t172.5 116.5t199.5 41.5q195 0 301.5 -109t106.5 -289q0 -84 -29 -180h-725zM774 1380l158 -264h-158l-108 154l-156 -154h-168l240 264
h192z" />
    <glyph glyph-name="uni1EC8" unicode="&#x1ec8;" horiz-adv-x="593" 
d="M686 1749q-21 -91 -127 -174h-123q89 81 105 137q8 39 -13 58.5t-59 19.5q-40 0 -59 -8l26 119q49 6 101 6q77 -2 122 -42.5t27 -115.5zM68 0l307 1452h205l-308 -1452h-204z" />
    <glyph glyph-name="uni1EC9" unicode="&#x1ec9;" horiz-adv-x="501" 
d="M547 1311q-21 -91 -127 -174h-123q88 79 104 137q9 39 -12 58.5t-59 19.5q-39 0 -60 -9l27 119q49 6 100 6q77 -2 122.5 -42t27.5 -115zM27 0l211 985h192l-211 -985h-192z" />
    <glyph glyph-name="uni1ECA" unicode="&#x1eca;" horiz-adv-x="593" 
d="M-16 -326q0 58 41 97t94 39q47 0 77.5 -31t30.5 -76q0 -54 -41.5 -94.5t-93.5 -40.5q-46 0 -77 31t-31 75zM68 0l307 1452h205l-308 -1452h-204z" />
    <glyph glyph-name="uni1ECB" unicode="&#x1ecb;" horiz-adv-x="501" 
d="M-66 -326q0 58 41.5 97t94.5 39q47 0 77.5 -31t30.5 -76q0 -54 -41.5 -94.5t-93.5 -40.5q-47 0 -78 31t-31 75zM27 0l211 985h192l-211 -985h-192zM274 1266q0 58 41.5 96.5t94.5 38.5q47 0 77.5 -31t30.5 -76q0 -54 -41.5 -94.5t-93.5 -40.5q-46 0 -77.5 31.5
t-31.5 75.5z" />
    <glyph glyph-name="uni1ECC" unicode="&#x1ecc;" horiz-adv-x="1595" 
d="M522 -326q0 58 41 97t94 39q47 0 78 -31t31 -76q0 -54 -41.5 -94.5t-93.5 -40.5q-47 0 -78 31t-31 75zM125 602q0 169 44 314t119 247.5t174 175.5t210 108.5t225 35.5q283 0 455 -173.5t172 -461.5q0 -169 -44 -314t-119 -247.5t-174 -175t-209 -107.5t-224 -35
q-283 0 -456 174.5t-173 458.5zM1319 827q0 222 -120.5 346.5t-313.5 124.5q-128 0 -235 -57t-176 -152t-106.5 -215.5t-37.5 -250.5q0 -221 120.5 -345t313.5 -124q129 0 235.5 56.5t175.5 150.5t106.5 214.5t37.5 251.5z" />
    <glyph glyph-name="uni1ECD" unicode="&#x1ecd;" horiz-adv-x="1153" 
d="M297 -326q0 58 41 97t94 39q47 0 78 -31t31 -76q0 -54 -41.5 -94.5t-93.5 -40.5q-46 0 -77.5 31t-31.5 75zM594 844q-135 0 -232.5 -112t-97.5 -304q0 -131 67.5 -209t182.5 -78q137 0 234.5 113t97.5 305q0 130 -67.5 207.5t-184.5 77.5zM1042 563q0 -165 -70 -301
t-193 -214.5t-273 -78.5q-135 0 -236 62.5t-151.5 164.5t-50.5 228q0 253 154 422.5t384 169.5q105 0 189 -35.5t137.5 -98t81.5 -144t28 -175.5z" />
    <glyph glyph-name="uni1ECE" unicode="&#x1ece;" horiz-adv-x="1595" 
d="M1165 1749q-21 -91 -127 -174h-123q89 81 105 137q8 39 -13 58.5t-59 19.5q-40 0 -59 -8l26 119q50 6 101 6q77 -2 122 -42.5t27 -115.5zM125 602q0 169 44 314t119 247.5t174 175.5t210 108.5t225 35.5q283 0 455 -173.5t172 -461.5q0 -169 -44 -314t-119 -247.5
t-174 -175t-209 -107.5t-224 -35q-283 0 -456 174.5t-173 458.5zM1319 827q0 222 -120.5 346.5t-313.5 124.5q-128 0 -235 -57t-176 -152t-106.5 -215.5t-37.5 -250.5q0 -221 120.5 -345t313.5 -124q129 0 235.5 56.5t175.5 150.5t106.5 214.5t37.5 251.5z" />
    <glyph glyph-name="uni1ECF" unicode="&#x1ecf;" horiz-adv-x="1153" 
d="M840 1311q-21 -91 -127 -174h-123q88 79 104 137q9 39 -12 58.5t-59 19.5q-39 0 -60 -9l27 119q49 6 100 6q77 -2 122.5 -42t27.5 -115zM594 844q-135 0 -232.5 -112t-97.5 -304q0 -131 67.5 -209t182.5 -78q137 0 234.5 113t97.5 305q0 130 -67.5 207.5t-184.5 77.5z
M1042 563q0 -165 -70 -301t-193 -214.5t-273 -78.5q-135 0 -236 62.5t-151.5 164.5t-50.5 228q0 253 154 422.5t384 169.5q105 0 189 -35.5t137.5 -98t81.5 -144t28 -175.5z" />
    <glyph glyph-name="uni1ED0" unicode="&#x1ed0;" horiz-adv-x="1595" 
d="M1358 1757h-152l185 264h215zM125 602q0 169 44 314t119 247.5t174 175.5t210 108.5t225 35.5q283 0 455 -173.5t172 -461.5q0 -169 -44 -314t-119 -247.5t-174 -175t-209 -107.5t-224 -35q-283 0 -456 174.5t-173 458.5zM1319 827q0 222 -120.5 346.5t-313.5 124.5
q-128 0 -235 -57t-176 -152t-106.5 -215.5t-37.5 -250.5q0 -221 120.5 -345t313.5 -124q129 0 235.5 56.5t175.5 150.5t106.5 214.5t37.5 251.5zM1075 1819l158 -265h-158l-108 154l-156 -154h-168l240 265h192z" />
    <glyph glyph-name="uni1ED1" unicode="&#x1ed1;" horiz-adv-x="1153" 
d="M1075 1319h-151l184 264h215zM594 844q-135 0 -232.5 -112t-97.5 -304q0 -131 67.5 -209t182.5 -78q137 0 234.5 113t97.5 305q0 130 -67.5 207.5t-184.5 77.5zM1042 563q0 -165 -70 -301t-193 -214.5t-273 -78.5q-135 0 -236 62.5t-151.5 164.5t-50.5 228
q0 253 154 422.5t384 169.5q105 0 189 -35.5t137.5 -98t81.5 -144t28 -175.5zM793 1380l157 -264h-157l-109 154l-156 -154h-168l240 264h193z" />
    <glyph glyph-name="uni1ED2" unicode="&#x1ed2;" horiz-adv-x="1595" 
d="M1374 1757h-137l-154 264h199zM125 602q0 169 44 314t119 247.5t174 175.5t210 108.5t225 35.5q283 0 455 -173.5t172 -461.5q0 -169 -44 -314t-119 -247.5t-174 -175t-209 -107.5t-224 -35q-283 0 -456 174.5t-173 458.5zM1319 827q0 222 -120.5 346.5t-313.5 124.5
q-128 0 -235 -57t-176 -152t-106.5 -215.5t-37.5 -250.5q0 -221 120.5 -345t313.5 -124q129 0 235.5 56.5t175.5 150.5t106.5 214.5t37.5 251.5zM1075 1819l158 -265h-158l-108 154l-156 -154h-168l240 265h192z" />
    <glyph glyph-name="uni1ED3" unicode="&#x1ed3;" horiz-adv-x="1153" 
d="M1092 1319h-138l-153 264h198zM594 844q-135 0 -232.5 -112t-97.5 -304q0 -131 67.5 -209t182.5 -78q137 0 234.5 113t97.5 305q0 130 -67.5 207.5t-184.5 77.5zM1042 563q0 -165 -70 -301t-193 -214.5t-273 -78.5q-135 0 -236 62.5t-151.5 164.5t-50.5 228
q0 253 154 422.5t384 169.5q105 0 189 -35.5t137.5 -98t81.5 -144t28 -175.5zM793 1380l157 -264h-157l-109 154l-156 -154h-168l240 264h193z" />
    <glyph glyph-name="uni1ED4" unicode="&#x1ed4;" horiz-adv-x="1595" 
d="M1446 1931q-21 -91 -127 -174h-123q88 79 104 137q9 39 -12 58.5t-59 19.5q-41 0 -60 -8l27 119q50 6 100 6q77 -2 122.5 -42.5t27.5 -115.5zM125 602q0 169 44 314t119 247.5t174 175.5t210 108.5t225 35.5q283 0 455 -173.5t172 -461.5q0 -169 -44 -314t-119 -247.5
t-174 -175t-209 -107.5t-224 -35q-283 0 -456 174.5t-173 458.5zM1319 827q0 222 -120.5 346.5t-313.5 124.5q-128 0 -235 -57t-176 -152t-106.5 -215.5t-37.5 -250.5q0 -221 120.5 -345t313.5 -124q129 0 235.5 56.5t175.5 150.5t106.5 214.5t37.5 251.5zM1075 1819
l158 -265h-158l-108 154l-156 -154h-168l240 265h192z" />
    <glyph glyph-name="uni1ED5" unicode="&#x1ed5;" horiz-adv-x="1153" 
d="M1163 1493q-21 -91 -127 -174h-123q89 81 105 137q8 39 -13 58.5t-59 19.5q-40 0 -59 -8l26 119q50 6 101 6q77 -2 122 -42.5t27 -115.5zM594 844q-135 0 -232.5 -112t-97.5 -304q0 -131 67.5 -209t182.5 -78q137 0 234.5 113t97.5 305q0 130 -67.5 207.5t-184.5 77.5z
M1042 563q0 -165 -70 -301t-193 -214.5t-273 -78.5q-135 0 -236 62.5t-151.5 164.5t-50.5 228q0 253 154 422.5t384 169.5q105 0 189 -35.5t137.5 -98t81.5 -144t28 -175.5zM793 1380l157 -264h-157l-109 154l-156 -154h-168l240 264h193z" />
    <glyph glyph-name="uni1ED6" unicode="&#x1ed6;" horiz-adv-x="1595" 
d="M1298 2109q-22 -114 -80 -171.5t-135 -57.5q-34 0 -61.5 15t-43 33t-36.5 33t-43 15q-20 0 -37 -24t-26 -68h-136q22 115 81 172.5t137 57.5q28 0 51 -10t38.5 -24t29.5 -28.5t30.5 -24.5t34.5 -10q20 0 37 24.5t26 67.5h133zM125 602q0 169 44 314t119 247.5t174 175.5
t210 108.5t225 35.5q283 0 455 -173.5t172 -461.5q0 -169 -44 -314t-119 -247.5t-174 -175t-209 -107.5t-224 -35q-283 0 -456 174.5t-173 458.5zM1319 827q0 222 -120.5 346.5t-313.5 124.5q-128 0 -235 -57t-176 -152t-106.5 -215.5t-37.5 -250.5q0 -221 120.5 -345
t313.5 -124q129 0 235.5 56.5t175.5 150.5t106.5 214.5t37.5 251.5zM1075 1819l158 -265h-158l-108 154l-156 -154h-168l240 265h192z" />
    <glyph glyph-name="uni1ED7" unicode="&#x1ed7;" horiz-adv-x="1153" 
d="M1016 1671q-22 -114 -80 -171.5t-135 -57.5q-34 0 -62 15t-43.5 33t-36.5 33t-43 15q-20 0 -37 -24t-26 -68h-135q22 115 80.5 172t136.5 57q34 0 61.5 -15t43 -33t36.5 -33t43 -15q20 0 37.5 24.5t26.5 67.5h133zM594 844q-135 0 -232.5 -112t-97.5 -304
q0 -131 67.5 -209t182.5 -78q137 0 234.5 113t97.5 305q0 130 -67.5 207.5t-184.5 77.5zM1042 563q0 -165 -70 -301t-193 -214.5t-273 -78.5q-135 0 -236 62.5t-151.5 164.5t-50.5 228q0 253 154 422.5t384 169.5q105 0 189 -35.5t137.5 -98t81.5 -144t28 -175.5zM793 1380
l157 -264h-157l-109 154l-156 -154h-168l240 264h193z" />
    <glyph glyph-name="uni1ED8" unicode="&#x1ed8;" horiz-adv-x="1595" 
d="M522 -326q0 58 41 97t94 39q47 0 78 -31t31 -76q0 -54 -41.5 -94.5t-93.5 -40.5q-47 0 -78 31t-31 75zM125 602q0 169 44 314t119 247.5t174 175.5t210 108.5t225 35.5q283 0 455 -173.5t172 -461.5q0 -169 -44 -314t-119 -247.5t-174 -175t-209 -107.5t-224 -35
q-283 0 -456 174.5t-173 458.5zM1319 827q0 222 -120.5 346.5t-313.5 124.5q-128 0 -235 -57t-176 -152t-106.5 -215.5t-37.5 -250.5q0 -221 120.5 -345t313.5 -124q129 0 235.5 56.5t175.5 150.5t106.5 214.5t37.5 251.5zM1075 1819l158 -265h-158l-108 154l-156 -154h-168
l240 265h192z" />
    <glyph glyph-name="uni1ED9" unicode="&#x1ed9;" horiz-adv-x="1153" 
d="M297 -326q0 58 41 97t94 39q47 0 78 -31t31 -76q0 -54 -41.5 -94.5t-93.5 -40.5q-46 0 -77.5 31t-31.5 75zM594 844q-135 0 -232.5 -112t-97.5 -304q0 -131 67.5 -209t182.5 -78q137 0 234.5 113t97.5 305q0 130 -67.5 207.5t-184.5 77.5zM1042 563q0 -165 -70 -301
t-193 -214.5t-273 -78.5q-135 0 -236 62.5t-151.5 164.5t-50.5 228q0 253 154 422.5t384 169.5q105 0 189 -35.5t137.5 -98t81.5 -144t28 -175.5zM793 1380l157 -264h-157l-109 154l-156 -154h-168l240 264h193z" />
    <glyph glyph-name="uni1EDA" unicode="&#x1eda;" horiz-adv-x="1595" 
d="M1014 1575h-152l185 264h215zM125 602q0 169 44 314t119 247.5t174 175.5t210 108.5t225 35.5q103 0 205 -29q20 -2 61 -2q71 0 115.5 45.5t60.5 118.5h177q-46 -204 -224 -256q111 -83 171.5 -214.5t60.5 -297.5q0 -169 -44 -314t-119 -247.5t-174 -175t-209 -107.5
t-224 -35q-283 0 -456 174.5t-173 458.5zM1319 827q0 222 -120.5 346.5t-313.5 124.5q-128 0 -235 -57t-176 -152t-106.5 -215.5t-37.5 -250.5q0 -221 120.5 -345t313.5 -124q129 0 235.5 56.5t175.5 150.5t106.5 214.5t37.5 251.5z" />
    <glyph glyph-name="uni1EDB" unicode="&#x1edb;" horiz-adv-x="1153" 
d="M727 1137h-152l185 264h215zM1042 563q0 -165 -70 -301t-193 -214.5t-273 -78.5q-135 0 -236 62.5t-151.5 164.5t-50.5 228q0 253 154 422.5t384 169.5q88 0 176 -31h2q71 0 116 45.5t61 118.5h176q-43 -198 -217 -254q122 -125 122 -332zM594 844q-135 0 -232.5 -112
t-97.5 -304q0 -131 67.5 -209t182.5 -78q137 0 234.5 113t97.5 305q0 130 -67.5 207.5t-184.5 77.5z" />
    <glyph glyph-name="uni1EDC" unicode="&#x1edc;" horiz-adv-x="1595" 
d="M1008 1575h-142l-153 264h202zM125 602q0 169 44 314t119 247.5t174 175.5t210 108.5t225 35.5q103 0 205 -29q20 -2 61 -2q71 0 115.5 45.5t60.5 118.5h177q-46 -204 -224 -256q111 -83 171.5 -214.5t60.5 -297.5q0 -169 -44 -314t-119 -247.5t-174 -175t-209 -107.5
t-224 -35q-283 0 -456 174.5t-173 458.5zM1319 827q0 222 -120.5 346.5t-313.5 124.5q-128 0 -235 -57t-176 -152t-106.5 -215.5t-37.5 -250.5q0 -221 120.5 -345t313.5 -124q129 0 235.5 56.5t175.5 150.5t106.5 214.5t37.5 251.5z" />
    <glyph glyph-name="uni1EDD" unicode="&#x1edd;" horiz-adv-x="1153" 
d="M705 1137h-142l-153 264h202zM1042 563q0 -165 -70 -301t-193 -214.5t-273 -78.5q-135 0 -236 62.5t-151.5 164.5t-50.5 228q0 253 154 422.5t384 169.5q88 0 176 -31h2q71 0 116 45.5t61 118.5h176q-43 -198 -217 -254q122 -125 122 -332zM594 844q-135 0 -232.5 -112
t-97.5 -304q0 -131 67.5 -209t182.5 -78q137 0 234.5 113t97.5 305q0 130 -67.5 207.5t-184.5 77.5z" />
    <glyph glyph-name="uni1EDE" unicode="&#x1ede;" horiz-adv-x="1595" 
d="M1165 1749q-21 -91 -127 -174h-123q89 81 105 137q8 39 -13 58.5t-59 19.5q-40 0 -59 -8l26 119q50 6 101 6q77 -2 122 -42.5t27 -115.5zM125 602q0 169 44 314t119 247.5t174 175.5t210 108.5t225 35.5q103 0 205 -29q20 -2 61 -2q71 0 115.5 45.5t60.5 118.5h177
q-46 -204 -224 -256q111 -83 171.5 -214.5t60.5 -297.5q0 -169 -44 -314t-119 -247.5t-174 -175t-209 -107.5t-224 -35q-283 0 -456 174.5t-173 458.5zM1319 827q0 222 -120.5 346.5t-313.5 124.5q-128 0 -235 -57t-176 -152t-106.5 -215.5t-37.5 -250.5q0 -221 120.5 -345
t313.5 -124q129 0 235.5 56.5t175.5 150.5t106.5 214.5t37.5 251.5z" />
    <glyph glyph-name="uni1EDF" unicode="&#x1edf;" horiz-adv-x="1153" 
d="M840 1311q-21 -91 -127 -174h-123q88 79 104 137q9 39 -12 58.5t-59 19.5q-39 0 -60 -9l27 119q49 6 100 6q77 -2 122.5 -42t27.5 -115zM1042 563q0 -165 -70 -301t-193 -214.5t-273 -78.5q-135 0 -236 62.5t-151.5 164.5t-50.5 228q0 253 154 422.5t384 169.5
q88 0 176 -31h2q71 0 116 45.5t61 118.5h176q-43 -198 -217 -254q122 -125 122 -332zM594 844q-135 0 -232.5 -112t-97.5 -304q0 -131 67.5 -209t182.5 -78q137 0 234.5 113t97.5 305q0 130 -67.5 207.5t-184.5 77.5z" />
    <glyph glyph-name="uni1EE0" unicode="&#x1ee0;" horiz-adv-x="1595" 
d="M1262 1804q-22 -114 -80 -171.5t-135 -57.5q-34 0 -62 15t-43.5 33t-36.5 33t-43 15q-20 0 -37 -24t-26 -68h-135q22 115 80.5 172t136.5 57q34 0 61.5 -15t43 -33t36.5 -33t43 -15q20 0 37 24.5t26 67.5h134zM125 602q0 169 44 314t119 247.5t174 175.5t210 108.5
t225 35.5q103 0 205 -29q20 -2 61 -2q71 0 115.5 45.5t60.5 118.5h177q-46 -204 -224 -256q111 -83 171.5 -214.5t60.5 -297.5q0 -169 -44 -314t-119 -247.5t-174 -175t-209 -107.5t-224 -35q-283 0 -456 174.5t-173 458.5zM1319 827q0 222 -120.5 346.5t-313.5 124.5
q-128 0 -235 -57t-176 -152t-106.5 -215.5t-37.5 -250.5q0 -221 120.5 -345t313.5 -124q129 0 235.5 56.5t175.5 150.5t106.5 214.5t37.5 251.5z" />
    <glyph glyph-name="uni1EE1" unicode="&#x1ee1;" horiz-adv-x="1153" 
d="M979 1366q-22 -114 -80 -171.5t-135 -57.5q-34 0 -61.5 15t-43 33t-36.5 33t-43 15q-20 0 -37.5 -24t-26.5 -68h-135q22 115 80.5 172t136.5 57q34 0 61.5 -15t43 -33t36.5 -33t43 -15q20 0 37.5 24.5t26.5 67.5h133zM1042 563q0 -165 -70 -301t-193 -214.5t-273 -78.5
q-135 0 -236 62.5t-151.5 164.5t-50.5 228q0 253 154 422.5t384 169.5q88 0 176 -31h2q71 0 116 45.5t61 118.5h176q-43 -198 -217 -254q122 -125 122 -332zM594 844q-135 0 -232.5 -112t-97.5 -304q0 -131 67.5 -209t182.5 -78q137 0 234.5 113t97.5 305q0 130 -67.5 207.5
t-184.5 77.5z" />
    <glyph glyph-name="uni1EE2" unicode="&#x1ee2;" horiz-adv-x="1595" 
d="M522 -326q0 58 41 97t94 39q47 0 78 -31t31 -76q0 -54 -41.5 -94.5t-93.5 -40.5q-47 0 -78 31t-31 75zM125 602q0 169 44 314t119 247.5t174 175.5t210 108.5t225 35.5q103 0 205 -29q20 -2 61 -2q71 0 115.5 45.5t60.5 118.5h177q-46 -204 -224 -256
q111 -83 171.5 -214.5t60.5 -297.5q0 -169 -44 -314t-119 -247.5t-174 -175t-209 -107.5t-224 -35q-283 0 -456 174.5t-173 458.5zM1319 827q0 222 -120.5 346.5t-313.5 124.5q-128 0 -235 -57t-176 -152t-106.5 -215.5t-37.5 -250.5q0 -221 120.5 -345t313.5 -124
q129 0 235.5 56.5t175.5 150.5t106.5 214.5t37.5 251.5z" />
    <glyph glyph-name="uni1EE3" unicode="&#x1ee3;" horiz-adv-x="1153" 
d="M297 -326q0 58 41 97t94 39q47 0 78 -31t31 -76q0 -54 -41.5 -94.5t-93.5 -40.5q-46 0 -77.5 31t-31.5 75zM1042 563q0 -165 -70 -301t-193 -214.5t-273 -78.5q-135 0 -236 62.5t-151.5 164.5t-50.5 228q0 253 154 422.5t384 169.5q88 0 176 -31h2q71 0 116 45.5
t61 118.5h176q-43 -198 -217 -254q122 -125 122 -332zM594 844q-135 0 -232.5 -112t-97.5 -304q0 -131 67.5 -209t182.5 -78q137 0 234.5 113t97.5 305q0 130 -67.5 207.5t-184.5 77.5z" />
    <glyph glyph-name="uni1EE4" unicode="&#x1ee4;" horiz-adv-x="1390" 
d="M379 -326q0 58 41 97t94 39q47 0 78 -31t31 -76q0 -54 -42 -94.5t-94 -40.5q-46 0 -77 31t-31 75zM1393 1452l-213 -1010q-47 -226 -191.5 -349.5t-359.5 -123.5q-220 0 -347.5 113t-127.5 319q0 89 16 152l190 899h193l-188 -924q-13 -63 -13 -108q0 -125 71.5 -194.5
t215.5 -69.5q135 0 223 79t119 226l209 991h203z" />
    <glyph glyph-name="uni1EE5" unicode="&#x1ee5;" horiz-adv-x="1112" 
d="M236 -326q0 58 41 97t94 39q47 0 77.5 -31t30.5 -76q0 -54 -41.5 -94.5t-93.5 -40.5q-46 0 -77 31t-31 75zM883 256q-27 -122 -27 -223q0 -8 0.5 -14.5t0.5 -10t1 -6.5v-2h-184v2q-1 3 -1.5 7.5t-1 11t-1 16t-0.5 20.5q0 35 2 58q-47 -66 -119 -100.5t-145 -34.5
q-150 0 -234 86.5t-84 230.5q0 55 12 113l123 575h193l-121 -571q-10 -55 -10 -92q0 -81 41.5 -130t132.5 -49q103 0 172.5 77t91.5 190l121 575h190z" />
    <glyph glyph-name="uni1EE6" unicode="&#x1ee6;" horiz-adv-x="1390" 
d="M1061 1749q-21 -91 -127 -174h-123q88 79 104 137q9 39 -12 58.5t-59 19.5q-41 0 -60 -8l27 119q49 6 100 6q77 -2 122.5 -42.5t27.5 -115.5zM1393 1452l-213 -1010q-47 -226 -191.5 -349.5t-359.5 -123.5q-220 0 -347.5 113t-127.5 319q0 89 16 152l190 899h193
l-188 -924q-13 -63 -13 -108q0 -125 71.5 -194.5t215.5 -69.5q135 0 223 79t119 226l209 991h203z" />
    <glyph glyph-name="uni1EE7" unicode="&#x1ee7;" horiz-adv-x="1112" 
d="M825 1311q-21 -91 -127 -174h-123q89 81 105 137q8 39 -13 58.5t-59 19.5t-59 -9l26 119q50 6 101 6q77 -2 122 -42t27 -115zM883 256q-27 -122 -27 -223q0 -8 0.5 -14.5t0.5 -10t1 -6.5v-2h-184v2q-1 3 -1.5 7.5t-1 11t-1 16t-0.5 20.5q0 35 2 58q-47 -66 -119 -100.5
t-145 -34.5q-150 0 -234 86.5t-84 230.5q0 55 12 113l123 575h193l-121 -571q-10 -55 -10 -92q0 -81 41.5 -130t132.5 -49q103 0 172.5 77t91.5 190l121 575h190z" />
    <glyph glyph-name="uni1EE8" unicode="&#x1ee8;" horiz-adv-x="1390" 
d="M946 1575h-151l184 264h215zM1427 1616h177q-23 -104 -83 -169t-149 -89l-192 -916q-47 -226 -191.5 -349.5t-359.5 -123.5q-220 0 -347.5 113t-127.5 319q0 89 16 152l190 899h193l-188 -924q-13 -63 -13 -108q0 -125 71.5 -194.5t215.5 -69.5q135 0 223 79t119 226
l209 991h55h6q71 0 115.5 45.5t60.5 118.5z" />
    <glyph glyph-name="uni1EE9" unicode="&#x1ee9;" horiz-adv-x="1112" 
d="M709 1137h-152l184 264h215zM883 256q-27 -122 -27 -223q0 -8 0.5 -14.5t0.5 -10t1 -6.5v-2h-184v2q-1 3 -1.5 7.5t-1 11t-1 16t-0.5 20.5q0 35 2 58q-47 -66 -119 -100.5t-145 -34.5q-150 0 -234 86.5t-84 230.5q0 55 12 113l123 575h193l-121 -571q-10 -55 -10 -92
q0 -81 41.5 -130t132.5 -49q103 0 172.5 77t91.5 190l121 575h49q71 0 115.5 45.5t60.5 118.5h176q-46 -209 -231 -258z" />
    <glyph glyph-name="uni1EEA" unicode="&#x1eea;" horiz-adv-x="1390" 
d="M967 1575h-142l-153 264h202zM1427 1616h177q-23 -104 -83 -169t-149 -89l-192 -916q-47 -226 -191.5 -349.5t-359.5 -123.5q-220 0 -347.5 113t-127.5 319q0 89 16 152l190 899h193l-188 -924q-13 -63 -13 -108q0 -125 71.5 -194.5t215.5 -69.5q135 0 223 79t119 226
l209 991h55h6q71 0 115.5 45.5t60.5 118.5z" />
    <glyph glyph-name="uni1EEB" unicode="&#x1eeb;" horiz-adv-x="1112" 
d="M725 1137h-141l-154 264h203zM883 256q-27 -122 -27 -223q0 -8 0.5 -14.5t0.5 -10t1 -6.5v-2h-184v2q-1 3 -1.5 7.5t-1 11t-1 16t-0.5 20.5q0 35 2 58q-47 -66 -119 -100.5t-145 -34.5q-150 0 -234 86.5t-84 230.5q0 55 12 113l123 575h193l-121 -571q-10 -55 -10 -92
q0 -81 41.5 -130t132.5 -49q103 0 172.5 77t91.5 190l121 575h49q71 0 115.5 45.5t60.5 118.5h176q-46 -209 -231 -258z" />
    <glyph glyph-name="uni1EEC" unicode="&#x1eec;" horiz-adv-x="1390" 
d="M1061 1749q-21 -91 -127 -174h-123q88 79 104 137q9 39 -12 58.5t-59 19.5q-41 0 -60 -8l27 119q49 6 100 6q77 -2 122.5 -42.5t27.5 -115.5zM1427 1616h177q-23 -104 -83 -169t-149 -89l-192 -916q-47 -226 -191.5 -349.5t-359.5 -123.5q-220 0 -347.5 113t-127.5 319
q0 89 16 152l190 899h193l-188 -924q-13 -63 -13 -108q0 -125 71.5 -194.5t215.5 -69.5q135 0 223 79t119 226l209 991h55h6q71 0 115.5 45.5t60.5 118.5z" />
    <glyph glyph-name="uni1EED" unicode="&#x1eed;" horiz-adv-x="1112" 
d="M825 1311q-21 -91 -127 -174h-123q89 81 105 137q8 39 -13 58.5t-59 19.5t-59 -9l26 119q50 6 101 6q77 -2 122 -42t27 -115zM883 256q-27 -122 -27 -223q0 -8 0.5 -14.5t0.5 -10t1 -6.5v-2h-184v2q-1 3 -1.5 7.5t-1 11t-1 16t-0.5 20.5q0 35 2 58q-47 -66 -119 -100.5
t-145 -34.5q-150 0 -234 86.5t-84 230.5q0 55 12 113l123 575h193l-121 -571q-10 -55 -10 -92q0 -81 41.5 -130t132.5 -49q103 0 172.5 77t91.5 190l121 575h49q71 0 115.5 45.5t60.5 118.5h176q-46 -209 -231 -258z" />
    <glyph glyph-name="uni1EEE" unicode="&#x1eee;" horiz-adv-x="1390" 
d="M1184 1804q-22 -114 -80 -171.5t-135 -57.5q-34 0 -62 15t-43.5 33t-36.5 33t-43 15q-20 0 -37 -24t-26 -68h-135q22 115 80.5 172t136.5 57q34 0 61.5 -15t43 -33t36.5 -33t43 -15q20 0 37.5 24.5t26.5 67.5h133zM1427 1616h177q-23 -104 -83 -169t-149 -89l-192 -916
q-47 -226 -191.5 -349.5t-359.5 -123.5q-220 0 -347.5 113t-127.5 319q0 89 16 152l190 899h193l-188 -924q-13 -63 -13 -108q0 -125 71.5 -194.5t215.5 -69.5q135 0 223 79t119 226l209 991h55h6q71 0 115.5 45.5t60.5 118.5z" />
    <glyph glyph-name="uni1EEF" unicode="&#x1eef;" horiz-adv-x="1112" 
d="M956 1366q-22 -114 -80 -171.5t-135 -57.5q-34 0 -61.5 15t-43 33t-36.5 33t-43 15q-20 0 -37 -24t-26 -68h-136q22 115 80.5 172t136.5 57q34 0 62 -15t43.5 -33t36.5 -33t43 -15q20 0 37 24.5t26 67.5h133zM883 256q-27 -122 -27 -223q0 -8 0.5 -14.5t0.5 -10t1 -6.5
v-2h-184v2q-1 3 -1.5 7.5t-1 11t-1 16t-0.5 20.5q0 35 2 58q-47 -66 -119 -100.5t-145 -34.5q-150 0 -234 86.5t-84 230.5q0 55 12 113l123 575h193l-121 -571q-10 -55 -10 -92q0 -81 41.5 -130t132.5 -49q103 0 172.5 77t91.5 190l121 575h49q71 0 115.5 45.5t60.5 118.5
h176q-46 -209 -231 -258z" />
    <glyph glyph-name="uni1EF0" unicode="&#x1ef0;" horiz-adv-x="1390" 
d="M379 -326q0 58 41 97t94 39q47 0 78 -31t31 -76q0 -54 -42 -94.5t-94 -40.5q-46 0 -77 31t-31 75zM1427 1616h177q-23 -104 -83 -169t-149 -89l-192 -916q-47 -226 -191.5 -349.5t-359.5 -123.5q-220 0 -347.5 113t-127.5 319q0 89 16 152l190 899h193l-188 -924
q-13 -63 -13 -108q0 -125 71.5 -194.5t215.5 -69.5q135 0 223 79t119 226l209 991h55h6q71 0 115.5 45.5t60.5 118.5z" />
    <glyph glyph-name="uni1EF1" unicode="&#x1ef1;" horiz-adv-x="1112" 
d="M236 -326q0 58 41 97t94 39q47 0 77.5 -31t30.5 -76q0 -54 -41.5 -94.5t-93.5 -40.5q-46 0 -77 31t-31 75zM883 256q-27 -122 -27 -223q0 -8 0.5 -14.5t0.5 -10t1 -6.5v-2h-184v2q-1 3 -1.5 7.5t-1 11t-1 16t-0.5 20.5q0 35 2 58q-47 -66 -119 -100.5t-145 -34.5
q-150 0 -234 86.5t-84 230.5q0 55 12 113l123 575h193l-121 -571q-10 -55 -10 -92q0 -81 41.5 -130t132.5 -49q103 0 172.5 77t91.5 190l121 575h49q71 0 115.5 45.5t60.5 118.5h176q-46 -209 -231 -258z" />
    <glyph glyph-name="Ygrave" unicode="&#x1ef2;" horiz-adv-x="1263" 
d="M211 1452h211l252 -637l467 637h239l-641 -840l-127 -612h-200l131 625zM858 1575h-137l-154 264h199z" />
    <glyph glyph-name="ygrave" unicode="&#x1ef3;" horiz-adv-x="1028" 
d="M-53 -389l370 559l-241 815h209l174 -618l385 618h227l-903 -1374h-221zM647 1137h-141l-154 264h203z" />
    <glyph glyph-name="uni1EF4" unicode="&#x1ef4;" horiz-adv-x="1263" 
d="M326 -326q0 58 41 97t94 39q47 0 77.5 -31t30.5 -76q0 -54 -41.5 -94.5t-93.5 -40.5q-46 0 -77 31t-31 75zM211 1452h211l252 -637l467 637h239l-641 -840l-127 -612h-200l131 625z" />
    <glyph glyph-name="uni1EF5" unicode="&#x1ef5;" horiz-adv-x="1028" 
d="M432 -326q0 58 41 97t94 39q47 0 78 -31t31 -76q0 -54 -41.5 -94.5t-93.5 -40.5q-47 0 -78 31t-31 75zM-53 -389l370 559l-241 815h209l174 -618l385 618h227l-903 -1374h-221z" />
    <glyph glyph-name="uni1EF6" unicode="&#x1ef6;" horiz-adv-x="1263" 
d="M956 1749q-21 -91 -127 -174h-122q88 79 104 137q8 39 -13 58.5t-59 19.5q-40 0 -59 -8l27 119q50 6 100 6q77 -2 122 -42.5t27 -115.5zM211 1452h211l252 -637l467 637h239l-641 -840l-127 -612h-200l131 625z" />
    <glyph glyph-name="uni1EF7" unicode="&#x1ef7;" horiz-adv-x="1028" 
d="M752 1311q-21 -91 -127 -174h-123q88 79 104 137q9 39 -12 58.5t-59 19.5q-39 0 -60 -9l27 119q49 6 100 6q77 -2 122.5 -42t27.5 -115zM-53 -389l370 559l-241 815h209l174 -618l385 618h227l-903 -1374h-221z" />
    <glyph glyph-name="uni1EF8" unicode="&#x1ef8;" horiz-adv-x="1263" 
d="M1094 1804q-22 -114 -80 -171.5t-135 -57.5q-34 0 -62 15t-43.5 33t-36.5 33t-43 15q-20 0 -37 -24t-26 -68h-135q22 115 80.5 172t136.5 57q34 0 61.5 -15t43 -33t36.5 -33t43 -15q20 0 37.5 24.5t26.5 67.5h133zM211 1452h211l252 -637l467 637h239l-641 -840
l-127 -612h-200l131 625z" />
    <glyph glyph-name="uni1EF9" unicode="&#x1ef9;" horiz-adv-x="1028" 
d="M891 1366q-22 -114 -80 -171.5t-135 -57.5q-34 0 -61.5 15t-43 33t-36.5 33t-43 15q-20 0 -37.5 -24t-26.5 -68h-135q22 115 80.5 172t136.5 57q34 0 61.5 -15t43 -33t36.5 -33t43 -15q20 0 37.5 24.5t26.5 67.5h133zM-53 -389l370 559l-241 815h209l174 -618l385 618
h227l-903 -1374h-221z" />
    <glyph glyph-name="uni2007" unicode="&#x2007;" horiz-adv-x="1271" 
 />
    <glyph glyph-name="uni2008" unicode="&#x2008;" horiz-adv-x="514" 
 />
    <glyph glyph-name="uni200B" unicode="&#x200b;" horiz-adv-x="0" 
 />
    <glyph glyph-name="endash" unicode="&#x2013;" horiz-adv-x="1329" 
d="M119 504l35 168h1048l-35 -168h-1048z" />
    <glyph glyph-name="emdash" unicode="&#x2014;" horiz-adv-x="2232" 
d="M119 504l35 168h1951l-34 -168h-1952z" />
    <glyph glyph-name="quoteleft" unicode="&#x2018;" horiz-adv-x="530" 
d="M504 1061q0 -62 -44 -104t-110 -42q-62 0 -103.5 41.5t-41.5 114.5q0 99 48.5 188.5t136 147.5t192.5 63l-21 -102q-79 -13 -140.5 -69.5t-78.5 -129.5q9 9 43 9q51 0 85 -32t34 -85z" />
    <glyph glyph-name="quoteright" unicode="&#x2019;" horiz-adv-x="534" 
d="M281 1325q0 62 43.5 103.5t109.5 41.5q63 0 104.5 -41.5t41.5 -113.5q0 -99 -48.5 -189t-136.5 -148t-192 -63l20 103q79 13 140.5 69.5t78.5 129.5q-9 -9 -43 -9q-51 0 -84.5 32t-33.5 85z" />
    <glyph glyph-name="quotesinglbase" unicode="&#x201a;" horiz-adv-x="536" 
d="M25 106q0 62 43.5 104t109.5 42q62 0 104 -42t42 -114q0 -99 -48.5 -188.5t-136 -147.5t-192.5 -63l20 102q79 13 140.5 69.5t78.5 129.5q-8 -8 -43 -8q-51 0 -84.5 31.5t-33.5 84.5z" />
    <glyph glyph-name="quotedblleft" unicode="&#x201c;" horiz-adv-x="888" 
d="M866 1077q0 -61 -41 -100t-106 -39q-59 0 -99 40t-40 109q0 145 104.5 258t257.5 125l-20 -98q-74 -12 -135 -68t-76 -122q6 6 41 6q49 0 81.5 -29.5t32.5 -81.5zM496 1077q0 -60 -41 -99.5t-107 -39.5q-60 0 -99.5 40t-39.5 109q0 145 104.5 258t257.5 125l-20 -98
q-74 -12 -135 -68t-76 -122q6 6 41 6q49 0 82 -29.5t33 -81.5z" />
    <glyph glyph-name="quotedblright" unicode="&#x201d;" horiz-adv-x="894" 
d="M283 1325q0 60 42 99.5t105 39.5q60 0 99.5 -40t39.5 -109q0 -95 -46.5 -181t-130.5 -141.5t-185 -60.5l20 98q74 13 134 68t77 123q-7 -7 -41 -7q-49 0 -81.5 29.5t-32.5 81.5zM653 1325q0 60 42.5 99.5t105.5 39.5q59 0 99 -40t40 -109q0 -95 -46.5 -181t-130.5 -141.5
t-185 -60.5l20 98q74 13 134 68t77 123q-7 -7 -41 -7q-49 0 -82 29.5t-33 81.5z" />
    <glyph glyph-name="quotedblbase" unicode="&#x201e;" horiz-adv-x="870" 
d="M23 102q0 60 42 100t105 40q59 0 99 -40t40 -110q0 -95 -46.5 -181t-130.5 -141.5t-185 -60.5l20 98q74 13 134 68t77 123q-6 -6 -41 -6q-49 0 -81.5 29t-32.5 81zM373 102q0 60 42 100t105 40q59 0 99 -40t40 -110q0 -95 -46.5 -181t-130.5 -141.5t-185 -60.5l20 98
q74 13 134 68t77 123q-6 -6 -41 -6q-49 0 -81.5 29t-32.5 81z" />
    <glyph glyph-name="dagger" unicode="&#x2020;" horiz-adv-x="845" 
d="M686 1452l-65 -305h262l-37 -166h-260l-137 -649h-168l137 649h-260l37 166h258l65 305h168z" />
    <glyph glyph-name="daggerdbl" unicode="&#x2021;" horiz-adv-x="923" 
d="M252 0l63 305h-260l35 166h260l109 510h-260l37 166h258l65 305h168l-65 -305h262l-37 -166h-260l-109 -510h260l-35 -166h-260l-63 -305h-168z" />
    <glyph glyph-name="bullet" unicode="&#x2022;" horiz-adv-x="1153" 
d="M152 592q0 177 124 301.5t299 124.5t299.5 -124.5t124.5 -301.5q0 -174 -125 -299t-299 -125t-298.5 125t-124.5 299z" />
    <glyph glyph-name="ellipsis" unicode="&#x2026;" horiz-adv-x="1693" 
d="M145 -10q-56 0 -90.5 33.5t-34.5 82.5q0 60 44.5 105t105.5 45q56 0 89.5 -34t33.5 -85q0 -62 -43.5 -104.5t-104.5 -42.5zM741 -10q-56 0 -90.5 33.5t-34.5 82.5q0 60 44.5 105t105.5 45q56 0 89.5 -34t33.5 -85q0 -62 -43.5 -104.5t-104.5 -42.5zM1339 -10
q-56 0 -90.5 33.5t-34.5 82.5q0 60 44.5 105t105.5 45q56 0 89.5 -34t33.5 -85q0 -62 -43.5 -104.5t-104.5 -42.5z" />
    <glyph glyph-name="perthousand" unicode="&#x2030;" horiz-adv-x="2113" 
d="M1630 -8q-149 0 -229 104q-107 -104 -252 -104q-128 0 -210.5 83t-82.5 206q0 144 105.5 250t252.5 106q139 0 228 -107q107 107 254 107q126 0 210.5 -84.5t84.5 -208.5q0 -98 -53 -180t-135.5 -127t-172.5 -45zM451 705q-128 0 -210.5 82.5t-82.5 205.5
q0 144 105.5 250.5t252.5 106.5q126 0 210.5 -85t84.5 -208q0 -98 -52.5 -180t-135 -127t-172.5 -45zM303 0h-199l1242 1327h194zM467 864q71 0 122.5 52t51.5 135q0 62 -38.5 99.5t-104.5 37.5q-68 0 -119 -52t-51 -130q0 -63 37 -102.5t102 -39.5zM1165 152
q71 0 122.5 51.5t51.5 134.5q0 62 -38.5 99.5t-104.5 37.5q-68 0 -119 -52t-51 -130q0 -63 37 -102t102 -39zM1647 152q71 0 122.5 51.5t51.5 134.5q0 62 -39 99.5t-105 37.5q-68 0 -119 -52t-51 -130q0 -63 37.5 -102t102.5 -39z" />
    <glyph glyph-name="guilsinglleft" unicode="&#x2039;" horiz-adv-x="659" 
d="M283 203l-201 397l350 385h211l-360 -403l190 -379h-190z" />
    <glyph glyph-name="guilsinglright" unicode="&#x203a;" horiz-adv-x="655" 
d="M371 985l200 -397l-350 -385h-211l361 403l-191 379h191z" />
    <glyph glyph-name="uni2042" unicode="&#x2042;" horiz-adv-x="1658" 
d="M1004 1204l239 78l19 -133l-246 -78l114 -190l-118 -86l-117 202l-186 -200l-105 86l191 194l-213 76l63 129l211 -78l39 248h158zM438 389l240 78l18 -133l-245 -78l114 -190l-119 -86l-116 202l-187 -200l-104 86l190 194l-213 76l64 129l211 -78l39 248h157zM1280 389
l240 78l18 -133l-246 -78l115 -190l-119 -86l-117 202l-186 -200l-104 86l190 194l-213 76l64 129l211 -78l38 248h158z" />
    <glyph glyph-name="fraction" unicode="&#x2044;" horiz-adv-x="372" 
d="M-332 0h-198l1241 1327h194z" />
    <glyph glyph-name="uni2051" unicode="&#x2051;" horiz-adv-x="911" 
d="M668 1204l239 78l19 -133l-246 -78l115 -190l-119 -86l-117 202l-186 -200l-105 86l191 194l-213 76l63 129l211 -78l39 248h158zM469 389l240 78l18 -133l-246 -78l115 -190l-119 -86l-117 202l-186 -200l-104 86l190 194l-213 76l64 129l211 -78l38 248h158z" />
    <glyph glyph-name="uni2070" unicode="&#x2070;" horiz-adv-x="788" 
d="M172 969q0 68 12.5 136t42 133.5t71.5 115.5t106 81t141 31q130 0 202 -79t72 -201q0 -98 -23 -185.5t-67 -157.5t-116.5 -111.5t-163.5 -41.5q-59 0 -99 15q-88 26 -133 95t-45 169zM406 834q24 -7 51 -7q55 0 99 35.5t68.5 90.5t37 114t12.5 115q0 63 -33 105t-106 42
q-50 0 -90.5 -28.5t-64 -70.5t-39 -93.5t-21 -92t-5.5 -71.5q0 -47 22.5 -85t68.5 -54z" />
    <glyph glyph-name="uni2074" unicode="&#x2074;" horiz-adv-x="759" 
d="M152 1034l421 418h181l-99 -459h133l-28 -133h-131q-1 -1 -6 -23q-11 -59 -27 -132h-156l33 155h-354zM563 1274l-282 -281h219z" />
    <glyph glyph-name="uni2075" unicode="&#x2075;" horiz-adv-x="706" 
d="M287 948q0 -53 31.5 -88t91.5 -35q57 0 98 33.5t41 97.5q0 57 -34 86t-87 29q-58 0 -100 -33l-131 74l147 340h436l-26 -135h-324l-63 -148q43 25 112 25q106 0 168 -56.5t62 -162.5q0 -119 -87 -202t-216 -83q-119 0 -197 68.5t-78 175.5z" />
    <glyph glyph-name="uni2076" unicode="&#x2076;" horiz-adv-x="755" 
d="M772 1305q-54 32 -147 32q-80 0 -151.5 -46t-102.5 -128q49 49 153 49q110 0 175 -61.5t65 -165.5q0 -134 -94.5 -214.5t-220.5 -80.5q-73 0 -135 31.5t-103 101t-41 166.5q0 128 56 237t161.5 175.5t237.5 66.5q143 0 202 -49zM481 1081q-62 0 -105.5 -39t-43.5 -100
q0 -56 35.5 -87.5t91.5 -31.5q57 0 100 38t43 108q0 51 -33 81.5t-88 30.5z" />
    <glyph glyph-name="uni2077" unicode="&#x2077;" horiz-adv-x="684" 
d="M793 1321q-37 -27 -57 -42t-64.5 -52t-74 -68t-72 -82.5t-73.5 -103t-63 -122t-55 -146.5h-164q23 101 72 198.5t100 164.5t108 125t91 85t53 39h-389l26 135h590z" />
    <glyph glyph-name="uni2078" unicode="&#x2078;" horiz-adv-x="727" 
d="M391 1235q0 -37 25.5 -60.5t66.5 -23.5q53 0 91 26.5t38 79.5q0 34 -24.5 57t-73.5 27q-56 0 -89.5 -28.5t-33.5 -77.5zM299 907q0 -43 35.5 -67.5t87.5 -24.5q64 0 101.5 31t37.5 86q0 40 -32 66t-87 26q-62 0 -102.5 -33t-40.5 -84zM414 690q-131 0 -202 56.5
t-71 146.5q0 68 51.5 123t141.5 78q-42 17 -69 57t-27 80q0 104 78.5 169.5t211.5 65.5q106 0 173 -52t67 -136q0 -62 -40 -115.5t-116 -81.5q44 -17 75.5 -60t31.5 -87q0 -107 -87.5 -175.5t-217.5 -68.5z" />
    <glyph glyph-name="uni2079" unicode="&#x2079;" horiz-adv-x="753" 
d="M197 881q73 -52 172 -52q79 0 146.5 46.5t86.5 134.5q-28 -31 -68.5 -47.5t-78.5 -16.5q-111 0 -183.5 64.5t-72.5 171.5q0 130 92 208t221 78q115 0 193.5 -72.5t78.5 -211.5q0 -143 -46 -252.5t-143 -174.5t-235 -65q-61 0 -124 20t-101 52zM477 1075q61 0 101 41.5
t40 106.5q0 52 -33.5 83t-82.5 31q-58 0 -100 -38.5t-42 -106.5q0 -53 32.5 -85t84.5 -32z" />
    <glyph glyph-name="uni2080" unicode="&#x2080;" horiz-adv-x="790" 
d="M-8 117q0 68 12.5 136t42 133.5t71.5 115.5t106 81t141 31q130 0 202 -79t72 -201q0 -97 -23 -185t-67.5 -158t-117 -111.5t-163.5 -41.5q-58 0 -98 15q-88 26 -133 95t-45 169zM225 -18q24 -7 51 -7q55 0 99 35.5t69 90.5t37.5 114t12.5 115q0 63 -33 105t-107 42
q-50 0 -90.5 -28.5t-63.5 -70.5t-38.5 -93.5t-21 -92t-5.5 -71.5q0 -47 22 -85t68 -54z" />
    <glyph glyph-name="uni2081" unicode="&#x2081;" horiz-adv-x="471" 
d="M49 -147l115 512h-164l20 104q74 4 130 39.5t79 91.5h140l-162 -747h-158z" />
    <glyph glyph-name="uni2082" unicode="&#x2082;" horiz-adv-x="733" 
d="M311 250q117 52 117 133q0 39 -27 68.5t-77 29.5q-63 0 -99.5 -39t-36.5 -118h-153q0 138 80 213t213 75q123 0 191.5 -64.5t68.5 -156.5q0 -173 -197 -256l-155 -67q-61 -28 -86 -82h376l-28 -133h-561q12 123 71.5 206.5t173.5 133.5z" />
    <glyph glyph-name="uni2083" unicode="&#x2083;" horiz-adv-x="724" 
d="M158 328l233 141h-328l29 133h533l-29 -151l-234 -138q75 -14 125 -69t50 -129q0 -111 -82.5 -193t-218.5 -82q-115 0 -196 64.5t-81 171.5q0 11 4 39l141 10q-2 -6 -2 -23q0 -53 36.5 -90t94.5 -37q65 0 106.5 34t41.5 97q0 49 -35.5 78t-85.5 29q-30 0 -49 -8z" />
    <glyph glyph-name="uni2084" unicode="&#x2084;" horiz-adv-x="761" 
d="M-29 182l422 418h180l-98 -459h133l-28 -133h-131q-1 -1 -6 -23q-3 -16 -5.5 -28t-8.5 -41.5t-13 -62.5h-156l33 155h-354zM383 422l-283 -281h219z" />
    <glyph glyph-name="uni2085" unicode="&#x2085;" horiz-adv-x="704" 
d="M104 96q0 -53 31.5 -88t91.5 -35q57 0 98.5 33.5t41.5 97.5q0 57 -34 86t-87 29q-59 0 -101 -33l-131 74l148 340h436l-27 -135h-323l-64 -148q43 25 113 25q105 0 167 -56.5t62 -162.5q0 -119 -87 -202t-216 -83q-119 0 -196.5 68.5t-77.5 175.5z" />
    <glyph glyph-name="uni2086" unicode="&#x2086;" horiz-adv-x="757" 
d="M592 453q-54 32 -148 32q-80 0 -151.5 -46t-102.5 -128q49 49 154 49q110 0 175 -61.5t65 -165.5q0 -134 -95 -214.5t-221 -80.5q-54 0 -103 18.5t-88.5 54.5t-63 94.5t-23.5 131.5q0 128 56 237t161 175.5t237 66.5q144 0 203 -49zM301 229q-62 0 -105.5 -39t-43.5 -100
q0 -56 35.5 -87.5t91.5 -31.5q57 0 100 38t43 108q0 51 -33 81.5t-88 30.5z" />
    <glyph glyph-name="uni2087" unicode="&#x2087;" horiz-adv-x="686" 
d="M614 469q-37 -26 -57.5 -41.5t-64.5 -52.5t-73.5 -68t-71.5 -82.5t-73 -103t-63 -122t-55 -146.5h-164q23 101 72 198.5t100 164.5t108 125t91 85t53 39h-389l26 135h590z" />
    <glyph glyph-name="uni2088" unicode="&#x2088;" horiz-adv-x="729" 
d="M211 383q0 -37 25.5 -60.5t66.5 -23.5q53 0 91 27t38 80q0 34 -24.5 56.5t-73.5 26.5q-56 0 -89.5 -28.5t-33.5 -77.5zM119 55q0 -43 35.5 -67.5t87.5 -24.5q64 0 101.5 31t37.5 86q0 40 -32 66t-87 26q-62 0 -102.5 -33t-40.5 -84zM233 -162q-130 0 -201 56.5t-71 146.5
q0 68 51.5 123t141.5 78q-42 17 -69.5 57.5t-27.5 79.5q0 104 79 169.5t212 65.5q106 0 173 -52t67 -136q0 -62 -40 -115.5t-116 -81.5q44 -17 75.5 -60t31.5 -87q0 -107 -88 -175.5t-218 -68.5z" />
    <glyph glyph-name="uni2089" unicode="&#x2089;" horiz-adv-x="755" 
d="M18 29q73 -52 172 -52q79 0 147 46.5t87 134.5q-28 -31 -69 -47.5t-79 -16.5q-111 0 -183.5 64.5t-72.5 171.5q0 130 92.5 208t221.5 78q115 0 193.5 -72.5t78.5 -211.5q0 -143 -46 -252.5t-143 -174.5t-235 -65q-61 0 -124 20t-101 52zM299 223q61 0 101 41.5t40 106.5
q0 52 -33.5 83t-82.5 31q-58 0 -100 -38.5t-42 -106.5q0 -53 32.5 -85t84.5 -32z" />
    <glyph glyph-name="Euro" unicode="&#x20ac;" horiz-adv-x="1423" 
d="M160 907h178q47 111 127.5 199.5t175.5 142t196 81.5t199 28q128 0 234.5 -35.5t173.5 -101.5l-117 -146q-54 51 -134.5 79t-172.5 28q-138 0 -264 -70t-201 -205h647l-110 -159h-598q-21 -82 -21 -170h522l-110 -164h-389q42 -131 151.5 -201t259.5 -70q162 0 275 78
l67 -151q-151 -101 -362 -101q-135 0 -256 51t-213 153.5t-127 240.5h-238l35 164h184q0 76 17 170h-164z" />
    <glyph glyph-name="uni2113" unicode="&#x2113;" horiz-adv-x="841" 
d="M152 260q0 13 5 46.5t10 61.5l5 27q-28 -6 -143 -20l37 178q74 13 149 39l98 471q29 139 111.5 217t196.5 78q119 0 183 -65t64 -177q0 -180 -134.5 -362.5t-352.5 -286.5l-27 -123q-6 -30 -6 -53q0 -123 146 -123q43 0 81 10t53 18.5t21 14.5l-37 -174q-47 -47 -151 -47
q-153 0 -231 74t-78 196zM432 707q101 69 174 174q70 111 70 225q0 74 -66 74q-75 0 -106 -136z" />
    <glyph glyph-name="trademark" unicode="&#x2122;" horiz-adv-x="1812" 
d="M610 1313l-129 -608h-155l129 608h-230l29 139h614l-28 -139h-230zM1524 705l100 477l-301 -477h-121l-106 471l-101 -471h-155l157 747h187l114 -520l324 520h207l-158 -747h-147z" />
    <glyph glyph-name="Omega" unicode="&#x2126;" horiz-adv-x="1800" 
d="M899 1303q-97 0 -188.5 -33.5t-165.5 -95.5t-119 -160.5t-45 -218.5q0 -107 38 -200.5t101 -158t137.5 -107t153.5 -59.5v-270h-625v180h408q-81 30 -154 85t-133 131t-95.5 179.5t-35.5 217.5q0 158 60 290t160.5 218.5t230.5 134t272 47.5t272 -47.5t230.5 -134
t160.5 -218.5t60 -290q0 -114 -35.5 -217t-95.5 -179.5t-134 -132t-155 -84.5h410v-180h-625v270q79 17 153.5 59.5t137.5 107t101 158t38 200.5q0 120 -45 218.5t-119 160.5t-165.5 95.5t-188.5 33.5z" />
    <glyph glyph-name="uni2160" unicode="&#x2160;" horiz-adv-x="1015" 
d="M1067 1327l-37 -180h-309l-205 -967h307l-37 -180h-811l37 180h307l205 967h-305l37 180h811z" />
    <glyph glyph-name="uni2161" unicode="&#x2161;" horiz-adv-x="1556" 
d="M1608 1327l-37 -180h-289l-205 -967h287l-37 -180h-1352l37 180h287l205 967h-285l37 180h1352zM881 180l204 967h-385l-204 -967h385z" />
    <glyph glyph-name="uni2162" unicode="&#x2162;" horiz-adv-x="2117" 
d="M1647 1147h-375l-203 -967h375zM1075 1147h-375l-202 -967h374zM12 180h289l203 967h-285l37 180h1913l-37 -180h-289l-203 -967h285l-37 -180h-1913z" />
    <glyph glyph-name="uni2163" unicode="&#x2163;" horiz-adv-x="2037" 
d="M256 1327h1833l-37 -180h-235l-541 -967h571l-37 -180h-1835l37 180h267l204 967h-264zM475 180h494l-125 967h-164zM1149 289l463 858h-557z" />
    <glyph glyph-name="uni2164" unicode="&#x2164;" horiz-adv-x="1615" 
d="M561 180l-125 967h-221l37 180h1419l-37 -180h-225l-541 -967h551l-37 -180h-1400l36 180h543zM741 289l463 858h-557z" />
    <glyph glyph-name="uni2165" unicode="&#x2165;" horiz-adv-x="2039" 
d="M258 1327h1833l-37 -180h-266l-205 -967h266l-37 -180h-1835l37 180h564l-125 967h-232zM885 180h501l205 967h-166zM758 289l463 858h-557z" />
    <glyph glyph-name="uni2166" unicode="&#x2166;" horiz-adv-x="2627" 
d="M1221 1147h-557l92 -858zM1589 1147h-166l-538 -967h501zM2159 1147h-373l-203 -967h373zM-23 0l37 180h561l-120 967h-236l37 180h2423l-37 -180h-287l-203 -967h285l-37 -180h-2423z" />
    <glyph glyph-name="uni2167" unicode="&#x2167;" horiz-adv-x="3137" 
d="M256 1327h2933l-37 -180h-279l-204 -967h276l-37 -180h-2933l37 180h553l-114 967h-232zM1567 180h354l205 967h-354zM2118 180h354l205 967h-355zM872 180h498l205 967h-172zM745 289l455 858h-541z" />
    <glyph glyph-name="uni2168" unicode="&#x2168;" horiz-adv-x="1978" 
d="M256 1327h1772l-37 -180h-215l-455 -498l229 -469h236l-37 -180h-1774l37 180h267l204 967h-264zM856 1147h-176l-205 -967h191l436 469zM1243 803l307 344h-469zM885 180h442l-151 318z" />
    <glyph glyph-name="uni2169" unicode="&#x2169;" horiz-adv-x="1550" 
d="M428 1147h-209l37 180h1343l-36 -180h-215l-455 -498l229 -469h236l-37 -180h-1346l37 180h226l436 469zM815 803l307 344h-469zM457 180h442l-151 318z" />
    <glyph glyph-name="uni216C" unicode="&#x216c;" horiz-adv-x="1275" 
d="M1006 1327l-37 -180h-289l-205 -967h434l84 395h197l-121 -575h-1094l37 180h267l204 967h-264l37 180h750z" />
    <glyph glyph-name="uni216D" unicode="&#x216d;" horiz-adv-x="1476" 
d="M1485 1327l-99 -459h-194q-7 134 -118 221t-263 87q-93 0 -180.5 -37.5t-161 -110t-118 -193.5t-44.5 -274q0 -191 116.5 -302.5t289.5 -111.5q88 0 160 25t118.5 67.5t75 91.5t39.5 103l8 39h195l-101 -473h-190l20 106q-137 -137 -344 -137q-116 0 -222 43t-186 119
t-127.5 188t-47.5 242q0 127 30.5 240t83.5 199t123.5 155t151.5 113t166.5 67t169.5 23q300 0 417 -203l37 172h195z" />
    <glyph glyph-name="uni216E" unicode="&#x216e;" horiz-adv-x="1482" 
d="M485 180h168q85 0 165 24.5t150.5 75.5t123.5 123.5t83.5 175.5t30.5 224q0 167 -93.5 255.5t-248.5 88.5h-172zM12 180h279l203 967h-275l33 180h651q109 -4 199.5 -38t158 -97.5t105 -161t37.5 -221.5q0 -151 -41 -281.5t-110.5 -224.5t-161.5 -162.5t-195.5 -103
t-210.5 -37.5h-709z" />
    <glyph glyph-name="uni216F" unicode="&#x216f;" horiz-adv-x="2127" 
d="M621 0h-646l37 180h242l203 967h-238l37 180h516l205 -1055l657 1055h545l-37 -180h-252l-202 -967h247l-37 -180h-645l37 180h205l184 877l-671 -1057h-156l-221 1057l-185 -877h211z" />
    <glyph glyph-name="arrowleft" unicode="&#x2190;" horiz-adv-x="2119" 
d="M61 588l517 434v-350h1425v-170h-1425v-346z" />
    <glyph glyph-name="arrowup" unicode="&#x2191;" horiz-adv-x="964" 
d="M985 1137h-323v-1440h-170v1440h-324l410 501z" />
    <glyph glyph-name="arrowright" unicode="&#x2192;" horiz-adv-x="2117" 
d="M1536 156v346h-1425v170h1425v350l516 -434z" />
    <glyph glyph-name="arrowdown" unicode="&#x2193;" horiz-adv-x="1003" 
d="M428 -332l-432 516h346v1426h170v-1426h350z" />
    <glyph glyph-name="uni2196" unicode="&#x2196;" horiz-adv-x="1882" 
d="M850 1452l-238 -240l1112 -1110l-120 -118l-1112 1108l-240 -242v602h598z" />
    <glyph glyph-name="uni2197" unicode="&#x2197;" horiz-adv-x="1452" 
d="M1423 1452v-602l-241 242l-1110 -1108l-121 118l1112 1110l-238 240h598z" />
    <glyph glyph-name="uni2198" unicode="&#x2198;" horiz-adv-x="1882" 
d="M1087 0l238 240l-1112 1110l121 118l1110 -1110l242 244v-602h-599z" />
    <glyph glyph-name="uni2199" unicode="&#x2199;" horiz-adv-x="1449" 
d="M80 0v602l239 -244l1113 1110l120 -118l-1112 -1110l238 -240h-598z" />
    <glyph glyph-name="uni21A9" unicode="&#x21a9;" horiz-adv-x="1744" 
d="M881 1360h393q185 0 314.5 -123.5t129.5 -304.5q0 -124 -63.5 -223.5t-166.5 -152t-222 -52.5h-752v-295l-453 379l453 381v-295h741q122 0 208.5 70t86.5 188q0 119 -86 188.5t-215 69.5h-368v170z" />
    <glyph glyph-name="uni21B0" unicode="&#x21b0;" horiz-adv-x="1662" 
d="M162 1102l452 381v-295h848v-1188h-170v1018h-678v-295z" />
    <glyph glyph-name="uni21B1" unicode="&#x21b1;" horiz-adv-x="1564" 
d="M213 0v1188h950v295l453 -381l-453 -379v295h-780v-1018h-170z" />
    <glyph glyph-name="uni21B2" unicode="&#x21b2;" horiz-adv-x="1564" 
d="M1409 1452v-1188h-950v-295l-453 381l453 379v-295h780v1018h170z" />
    <glyph glyph-name="uni21B3" unicode="&#x21b3;" horiz-adv-x="1765" 
d="M1657 350l-453 -381v295h-950v1188h170v-1018h780v295z" />
    <glyph glyph-name="uni21B4" unicode="&#x21b4;" horiz-adv-x="1826" 
d="M238 1452h1187v-1032h295l-381 -453l-378 453h294v862h-1017v170z" />
    <glyph glyph-name="uni21B5" unicode="&#x21b5;" horiz-adv-x="2170" 
d="M82 727h268q0 154 60.5 294t162 241t241 161t292.5 60q199 0 373 -97l-76 -151q-140 78 -295 78q-161 0 -296 -78t-212.5 -212.5t-77.5 -295.5h293l-366 -430zM1862 725q0 -154 -60.5 -294t-162 -241t-241 -161t-292.5 -60q-199 0 -373 97l76 151q140 -78 295 -78
q161 0 296 78t212.5 212.5t77.5 295.5h-283l367 430l366 -430h-278z" />
    <glyph glyph-name="uni21C6" unicode="&#x21c6;" horiz-adv-x="2328" 
d="M174 1106l453 381v-295h1546v-170h-1546v-295zM1761 -31v295h-1546v170h1546v295l453 -381z" />
    <glyph glyph-name="partialdiff" unicode="&#x2202;" horiz-adv-x="1234" 
d="M481 1307q-153 0 -286 -64l-66 152q153 88 369 88q57 0 112.5 -9t119 -32.5t119 -60.5t107.5 -98t89 -138.5t59 -188.5t22 -243q0 -348 -145 -546t-418 -198q-96 0 -183.5 31t-157 89t-111 152.5t-41.5 211.5q0 142 69.5 251.5t183 165.5t250.5 56q116 0 207 -33t142 -84
q-20 255 -135 376.5t-306 121.5zM602 756q-159 0 -247.5 -90.5t-88.5 -225.5t90.5 -214t216.5 -79q74 0 134 27.5t97.5 69t64 94.5t38.5 99t15 89q4 54 4 80q-53 72 -139 111t-185 39z" />
    <glyph glyph-name="increment" unicode="&#x2206;" horiz-adv-x="1525" 
d="M666 1223l-390 -1039h785zM561 1452h215l572 -1452h-1356z" />
    <glyph glyph-name="product" unicode="&#x220f;" horiz-adv-x="1503" 
d="M1102 0v1274h-643v-1274h-201v1452h1038v-1452h-194z" />
    <glyph glyph-name="summation" unicode="&#x2211;" horiz-adv-x="1447" 
d="M240 176l559 555l-559 545v176h1017v-184h-747l551 -537l-569 -547h765v-184h-1017v176z" />
    <glyph glyph-name="minus" unicode="&#x2212;" horiz-adv-x="1177" 
d="M152 670h866v-162h-866v162z" />
    <glyph glyph-name="uni2215" unicode="&#x2215;" horiz-adv-x="831" 
d="M975 1327l-914 -1327h-194l913 1327h195z" />
    <glyph glyph-name="uni2219" unicode="&#x2219;" horiz-adv-x="542" 
d="M123 582q0 60 40.5 101.5t100.5 41.5t102 -41.5t42 -101.5t-42 -101t-102 -41t-100.5 41t-40.5 101z" />
    <glyph glyph-name="radical" unicode="&#x221a;" horiz-adv-x="1286" 
d="M1233 1597l-545 -1597h-186l-387 1083h221l260 -766l481 1461h400v-181h-244z" />
    <glyph glyph-name="infinity" unicode="&#x221e;" horiz-adv-x="1677" 
d="M109 594q0 148 101 247t255 99q201 0 375 -219l2 -2q93 113 180.5 167t185.5 54q155 0 256 -99t101 -247q0 -149 -101 -246.5t-256 -97.5q-202 0 -372 215l-5 2q-97 -111 -182 -164t-184 -53q-155 0 -255.5 97.5t-100.5 246.5zM469 776q-86 0 -138 -52t-52 -132
q0 -79 52 -130.5t138 -51.5q72 0 132 44.5t132 133.5q-42 50 -65.5 76t-58 56t-68.5 43t-72 13zM1204 410q86 0 138.5 51.5t52.5 130.5q0 80 -52.5 132t-138.5 52q-38 0 -71.5 -12t-69 -42.5t-58 -53.5t-65.5 -72q53 -64 86 -98t81 -61t97 -27z" />
    <glyph glyph-name="integral" unicode="&#x222b;" horiz-adv-x="655" 
d="M217 1128q0 152 86 238t240 86h75v-176h-61q-69 0 -108 -41t-39 -121v-1177q0 -153 -83.5 -239.5t-234.5 -86.5h-88v176h64q68 0 108.5 43t40.5 123v1175z" />
    <glyph glyph-name="approxequal" unicode="&#x2248;" horiz-adv-x="1294" 
d="M1151 389q-119 -170 -299 -170q-96 0 -205 62l-96 53q-65 35 -127 35q-105 0 -186 -93l-109 97q121 174 293 174q92 0 211 -64l94 -51q71 -41 143 -41q99 0 177 90zM1151 786q-119 -170 -299 -170q-96 0 -205 62l-96 53q-65 35 -127 35q-106 0 -186 -92l-109 96
q121 174 293 174q94 0 211 -63l94 -52q71 -41 143 -41q98 0 177 91z" />
    <glyph glyph-name="notequal" unicode="&#x2260;" horiz-adv-x="1220" 
d="M135 866h604l150 203h196l-149 -203h147v-157h-264l-176 -238h440v-162h-559l-149 -205h-197l150 205h-193v162h311l177 238h-488v157z" />
    <glyph glyph-name="lessequal" unicode="&#x2264;" horiz-adv-x="1128" 
d="M117 266h844v-162h-844v162zM117 797l844 299v-172l-629 -213l629 -213v-172l-844 297v174z" />
    <glyph glyph-name="greaterequal" unicode="&#x2265;" horiz-adv-x="1181" 
d="M1008 104h-844v162h844v-162zM1008 623l-844 -297v172l629 213l-629 213v172l844 -299v-174z" />
    <glyph glyph-name="dotmath" unicode="&#x22c5;" horiz-adv-x="542" 
d="M123 582q0 60 40.5 101.5t100.5 41.5t102 -41.5t42 -101.5t-42 -101t-102 -41t-100.5 41t-40.5 101z" />
    <glyph glyph-name="uni24C5" unicode="&#x24c5;" horiz-adv-x="1712" 
d="M135 727q0 205 99.5 379t271.5 275.5t375 101.5q153 0 292.5 -60t239.5 -161.5t159.5 -241.5t59.5 -293t-59.5 -293.5t-159.5 -242t-239.5 -162t-292.5 -60.5q-203 0 -375 102t-271.5 276.5t-99.5 379.5zM295 727q0 -127 46 -240t124 -193.5t186.5 -127.5t229.5 -47
q162 0 296 79.5t211.5 219.5t77.5 309t-77.5 308.5t-211.5 218.5t-296 79q-121 0 -229.5 -46.5t-187 -127t-124 -193t-45.5 -239.5zM926 752q84 0 133 39.5t49 115.5q0 105 -129 105h-102l-58 -260h107zM791 621l-62 -299h-149l174 821h270q104 0 170 -68.5t66 -161.5
q0 -125 -85 -208.5t-214 -83.5h-170z" />
    <glyph glyph-name="filledbox" unicode="&#x25a0;" horiz-adv-x="1904" 
d="M252 1452h1452v-1452h-1452v1452z" />
    <glyph glyph-name="H22073" unicode="&#x25a1;" horiz-adv-x="1904" 
d="M252 0v1452h1452v-1452h-1452zM420 154h1116v1142h-1116v-1142z" />
    <glyph glyph-name="uni25AF" unicode="&#x25af;" horiz-adv-x="1275" 
d="M252 1452h823v-1452h-823v1452zM913 162v1128h-499v-1128h499z" />
    <glyph glyph-name="triagup" unicode="&#x25b2;" horiz-adv-x="1830" 
d="M1661 0h-1714l860 1483z" />
    <glyph glyph-name="uni25B3" unicode="&#x25b3;" horiz-adv-x="1830" 
d="M807 1483l854 -1483h-1714zM225 154h1155l-575 995z" />
    <glyph glyph-name="lozenge" unicode="&#x25ca;" horiz-adv-x="1134" 
d="M881 725l-287 498l-289 -498l289 -496zM510 0l-414 725l414 727h168l414 -727l-414 -725h-168z" />
    <glyph glyph-name="circle" unicode="&#x25cb;" horiz-adv-x="1738" 
d="M1655 725q0 -155 -60 -295.5t-162 -241.5t-242.5 -161t-295.5 -60t-295.5 60t-241.5 161t-161 241.5t-60 295.5t60 295.5t161 242.5t241.5 162t295.5 60t295.5 -60t242.5 -162t162 -242.5t60 -295.5zM1485 725q0 123 -46.5 233.5t-125.5 190t-188 126t-230 46.5
t-230 -46.5t-188 -126t-125.5 -190t-46.5 -233.5t46.5 -233.5t125.5 -190t188 -126t230 -46.5t230 46.5t188 126t125.5 190t46.5 233.5z" />
    <glyph glyph-name="H18533" unicode="&#x25cf;" horiz-adv-x="1738" 
d="M137 725q0 155 60 295.5t161 242.5t241.5 162t295.5 60t295.5 -60t242.5 -162t162 -242.5t60 -295.5t-60 -295.5t-162 -241.5t-242.5 -161t-295.5 -60t-295.5 60t-241.5 161t-161 241.5t-60 295.5z" />
    <glyph glyph-name="uni262E" unicode="&#x262e;" horiz-adv-x="1716" 
d="M1634 727q0 -153 -59.5 -293.5t-159.5 -242t-239.5 -162t-292.5 -60.5q-203 0 -375 102t-271.5 276.5t-99.5 379.5t99.5 379t271.5 275.5t375 101.5q153 0 292.5 -60t239.5 -161.5t159.5 -241.5t59.5 -293zM1468 727q0 233 -143 400t-360 200v-491l421 -422
q82 145 82 313zM297 727q0 -170 80 -311l420 420v491q-218 -33 -359 -199.5t-141 -400.5zM965 125q176 23 317 154l-317 319v-473zM479 281q132 -132 318 -156v473z" />
    <glyph glyph-name="uni2713" unicode="&#x2713;" horiz-adv-x="1826" 
d="M635 -35l-578 645l123 117l463 -506l1176 1272l123 -121z" />
    <glyph glyph-name="uni2715" unicode="&#x2715;" horiz-adv-x="1808" 
d="M211 109l602 616l-602 616l121 119l600 -614l600 614l121 -119l-604 -616l604 -616l-119 -119l-602 614l-602 -614z" />
    <glyph glyph-name="uni2780" unicode="&#x2780;" horiz-adv-x="1716" 
d="M297 727q0 -127 46 -240t124 -193.5t186.5 -127.5t229.5 -47q162 0 296 79.5t211.5 219.5t77.5 309t-77.5 308.5t-211.5 218.5t-296 79q-121 0 -229.5 -46.5t-187 -127t-124 -193t-45.5 -239.5zM137 727q0 205 99.5 379t271.5 275.5t375 101.5q153 0 292.5 -60
t239.5 -161.5t159.5 -241.5t59.5 -293t-59.5 -293.5t-159.5 -242t-239.5 -162t-292.5 -60.5q-203 0 -375 102t-271.5 276.5t-99.5 379.5zM834 354v502h-177v107q74 1 126 41t63 98h145v-748h-157z" />
    <glyph glyph-name="uni2781" unicode="&#x2781;" horiz-adv-x="1716" 
d="M297 727q0 -127 46 -240t124 -193.5t186.5 -127.5t229.5 -47q162 0 296 79.5t211.5 219.5t77.5 309t-77.5 308.5t-211.5 218.5t-296 79q-121 0 -229.5 -46.5t-187 -127t-124 -193t-45.5 -239.5zM137 727q0 205 99.5 379t271.5 275.5t375 101.5q153 0 292.5 -60
t239.5 -161.5t159.5 -241.5t59.5 -293t-59.5 -293.5t-159.5 -242t-239.5 -162t-292.5 -60.5q-203 0 -375 102t-271.5 276.5t-99.5 379.5zM610 823q-6 23 -6 64q0 101 73.5 170t196.5 69q122 0 195.5 -68.5t73.5 -166.5q0 -135 -144 -225l-147 -93q-19 -14 -29.5 -23t-21 -23
t-13.5 -29h359v-133h-549v26q0 192 174 297l123 76q88 52 88 129q0 43 -29.5 72.5t-81.5 29.5q-54 0 -85 -32t-31 -86q0 -36 6 -54h-152z" />
    <glyph glyph-name="uni2782" unicode="&#x2782;" horiz-adv-x="1716" 
d="M137 727q0 205 99.5 379t271.5 275.5t375 101.5q153 0 292.5 -60t239.5 -161.5t159.5 -241.5t59.5 -293t-59.5 -293.5t-159.5 -242t-239.5 -162t-292.5 -60.5q-203 0 -375 102t-271.5 276.5t-99.5 379.5zM297 727q0 -127 46 -240t124 -193.5t186.5 -127.5t229.5 -47
q162 0 296 79.5t211.5 219.5t77.5 309t-77.5 308.5t-211.5 218.5t-296 79q-121 0 -229.5 -46.5t-187 -127t-124 -193t-45.5 -239.5zM752 805l194 162h-350v133h555v-129l-205 -164q93 -8 157 -65.5t64 -157.5q0 -105 -83 -176.5t-214 -71.5q-125 0 -203.5 61t-97.5 150
l138 55q10 -60 54 -95.5t107 -35.5q62 0 101 32.5t39 80.5q0 58 -41 86t-99 28q-38 0 -57 -8z" />
    <glyph glyph-name="uni2783" unicode="&#x2783;" horiz-adv-x="1716" 
d="M297 727q0 -127 46 -240t124 -193.5t186.5 -127.5t229.5 -47q162 0 296 79.5t211.5 219.5t77.5 309t-77.5 308.5t-211.5 218.5t-296 79q-121 0 -229.5 -46.5t-187 -127t-124 -193t-45.5 -239.5zM137 727q0 205 99.5 379t271.5 275.5t375 101.5q153 0 292.5 -60
t239.5 -161.5t159.5 -241.5t59.5 -293t-59.5 -293.5t-159.5 -242t-239.5 -162t-292.5 -60.5q-203 0 -375 102t-271.5 276.5t-99.5 379.5zM526 662l363 450h174v-467h131v-133h-131v-147h-158v147h-379v150zM905 930l-227 -285h227v285z" />
    <glyph glyph-name="uni2784" unicode="&#x2784;" horiz-adv-x="1716" 
d="M297 727q0 -127 46 -240t124 -193.5t186.5 -127.5t229.5 -47q162 0 296 79.5t211.5 219.5t77.5 309t-77.5 308.5t-211.5 218.5t-296 79q-121 0 -229.5 -46.5t-187 -127t-124 -193t-45.5 -239.5zM137 727q0 205 99.5 379t271.5 275.5t375 101.5q153 0 292.5 -60
t239.5 -161.5t159.5 -241.5t59.5 -293t-59.5 -293.5t-159.5 -242t-239.5 -162t-292.5 -60.5q-203 0 -375 102t-271.5 276.5t-99.5 379.5zM707 584q14 -54 54 -85.5t95 -31.5q61 0 99 33t38 92q0 61 -37.5 94t-99.5 33q-76 0 -131 -55l-131 49l100 383h418v-135h-315
l-47 -177q55 58 149 58q116 0 185 -66t69 -178q0 -114 -79.5 -189t-217.5 -75q-107 0 -185 55.5t-100 132.5z" />
    <glyph glyph-name="uni2785" unicode="&#x2785;" horiz-adv-x="1716" 
d="M297 727q0 -127 46 -240t124 -193.5t186.5 -127.5t229.5 -47q162 0 296 79.5t211.5 219.5t77.5 309t-77.5 308.5t-211.5 218.5t-296 79q-121 0 -229.5 -46.5t-187 -127t-124 -193t-45.5 -239.5zM137 727q0 205 99.5 379t271.5 275.5t375 101.5q153 0 292.5 -60
t239.5 -161.5t159.5 -241.5t59.5 -293t-59.5 -293.5t-159.5 -242t-239.5 -162t-292.5 -60.5q-203 0 -375 102t-271.5 276.5t-99.5 379.5zM1090 963q-56 26 -127 26q-100 0 -167.5 -55.5t-84.5 -159.5q27 39 78.5 63.5t107.5 24.5q121 0 193.5 -68.5t72.5 -189.5
q0 -116 -86 -190t-215 -74q-59 0 -113.5 21t-98.5 61t-70.5 107.5t-26.5 152.5q0 197 111.5 316.5t285.5 119.5q112 0 176 -39zM723 602q0 -60 41.5 -94.5t99.5 -34.5t99 34.5t41 94.5t-41 94.5t-99 34.5t-99.5 -34.5t-41.5 -94.5z" />
    <glyph glyph-name="uni2786" unicode="&#x2786;" horiz-adv-x="1716" 
d="M297 727q0 -127 46 -240t124 -193.5t186.5 -127.5t229.5 -47q162 0 296 79.5t211.5 219.5t77.5 309t-77.5 308.5t-211.5 218.5t-296 79q-121 0 -229.5 -46.5t-187 -127t-124 -193t-45.5 -239.5zM137 727q0 205 99.5 379t271.5 275.5t375 101.5q153 0 292.5 -60
t239.5 -161.5t159.5 -241.5t59.5 -293t-59.5 -293.5t-159.5 -242t-239.5 -162t-292.5 -60.5q-203 0 -375 102t-271.5 276.5t-99.5 379.5zM1190 950q-28 -19 -57.5 -44.5t-73 -79t-78.5 -116.5t-65.5 -160t-41.5 -206h-167q22 253 153 459q60 91 125 153h-403v136h608v-142z
" />
    <glyph glyph-name="uni2787" unicode="&#x2787;" horiz-adv-x="1716" 
d="M297 727q0 -127 46 -240t124 -193.5t186.5 -127.5t229.5 -47q162 0 296 79.5t211.5 219.5t77.5 309t-77.5 308.5t-211.5 218.5t-296 79q-121 0 -229.5 -46.5t-187 -127t-124 -193t-45.5 -239.5zM137 727q0 205 99.5 379t271.5 275.5t375 101.5q153 0 292.5 -60
t239.5 -161.5t159.5 -241.5t59.5 -293t-59.5 -293.5t-159.5 -242t-239.5 -162t-292.5 -60.5q-203 0 -375 102t-271.5 276.5t-99.5 379.5zM881 799q54 0 85 26.5t31 71.5q0 42 -30.5 67t-85.5 25t-86 -25t-31 -67q0 -44 31.5 -71t85.5 -27zM881 471q67 0 102 27t35 75
q0 46 -36.5 74.5t-100.5 28.5t-101 -29t-37 -74q0 -48 35.5 -75t102.5 -27zM881 340q-139 0 -218 62t-79 159q0 56 37 104t102 72q-54 23 -84.5 67.5t-30.5 96.5q0 96 76.5 155.5t196.5 59.5q119 0 195.5 -59.5t76.5 -155.5q0 -52 -30.5 -96.5t-84.5 -67.5q65 -24 102.5 -72
t37.5 -104q0 -97 -79 -159t-218 -62z" />
    <glyph glyph-name="uni2788" unicode="&#x2788;" horiz-adv-x="1716" 
d="M297 727q0 -127 46 -240t124 -193.5t186.5 -127.5t229.5 -47q162 0 296 79.5t211.5 219.5t77.5 309t-77.5 308.5t-211.5 218.5t-296 79q-121 0 -229.5 -46.5t-187 -127t-124 -193t-45.5 -239.5zM137 727q0 205 99.5 379t271.5 275.5t375 101.5q153 0 292.5 -60
t239.5 -161.5t159.5 -241.5t59.5 -293t-59.5 -293.5t-159.5 -242t-239.5 -162t-292.5 -60.5q-203 0 -375 102t-271.5 276.5t-99.5 379.5zM657 496q59 -27 127 -27q104 0 172.5 52.5t79.5 158.5q-27 -39 -78.5 -63.5t-107.5 -24.5q-119 0 -192.5 69t-73.5 189q0 116 86 190
t215 74q59 0 112 -21t97 -61t70 -107.5t26 -152.5q0 -207 -109 -321.5t-284 -114.5q-112 0 -176 39zM1020 850q0 60 -41 95.5t-100 35.5q-58 0 -99 -35.5t-41 -95.5t41 -95.5t99 -35.5q59 0 100 35.5t41 95.5z" />
    <glyph glyph-name="uniE000" unicode="&#xe000;" horiz-adv-x="1427" 
d="M33 420h295v1032h1188v-170h-1018v-862h295l-379 -453z" />
    <glyph glyph-name="uniE002" unicode="&#xe002;" horiz-adv-x="1957" 
d="M1569 1155l366 -430h-266q0 -154 -60 -294t-161 -241t-241.5 -161t-295.5 -60q-154 0 -294 60t-241 161t-160.5 241t-59.5 294q0 155 59.5 295.5t160.5 241.5t241 161t294 60q199 0 373 -97l-76 -151q-140 78 -295 78q-161 0 -295.5 -78t-212 -213t-77.5 -297
q0 -121 45.5 -230t123.5 -188t186.5 -125.5t229.5 -46.5q161 0 295.5 78.5t211.5 214t77 297.5h-295z" />
    <glyph glyph-name="commaaccent" unicode="&#xf6c3;" horiz-adv-x="397" 
d="M-90 1163q114 0 153 84q-13 -8 -38 -8q-43 0 -70 26.5t-27 65.5q0 53 35 85t90 32q49 0 85 -30.5t36 -92.5q0 -104 -76 -174t-182 -70h-22z" />
    <glyph glyph-name="uniFB00" unicode="&#xfb00;" horiz-adv-x="1282" 
d="M717 1317q-67 0 -110 -35.5t-62 -122.5l-37 -174h387l43 205q60 303 352 303q36 0 67.5 -6.5t45.5 -12.5t18 -10l-37 -164l-6 2q-5 3 -11.5 5t-16 4.5t-22 4t-25.5 1.5q-67 0 -110.5 -35.5t-62.5 -122.5l-36 -174h223l-37 -170h-223l-172 -815h-199l172 815h-387
l-172 -815h-199l172 815h-166l37 170h166l43 205q60 303 353 303q36 0 67.5 -6.5t45.5 -12.5t18 -10l-37 -164q-51 17 -82 17z" />
    <glyph glyph-name="fi" unicode="&#xfb01;" horiz-adv-x="1208" 
d="M717 1317q-67 0 -110 -35.5t-62 -122.5l-37 -174h629l-211 -985h-193l174 815h-436l-172 -815h-199l172 815h-166l37 170h166l43 205q60 303 353 303q36 0 67.5 -6.5t45.5 -12.5t18 -10l-37 -164q-51 17 -82 17zM981 1266q0 58 41 96.5t94 38.5q47 0 78 -31t31 -76
q0 -54 -41.5 -94.5t-93.5 -40.5q-46 0 -77.5 31.5t-31.5 75.5z" />
    <glyph glyph-name="fl" unicode="&#xfb02;" horiz-adv-x="1208" 
d="M717 1317q-67 0 -110 -35.5t-62 -122.5l-37 -174h436l107 498h192l-315 -1483h-193l172 815h-436l-172 -815h-199l172 815h-166l37 170h166l43 205q60 303 353 303q36 0 67.5 -6.5t45.5 -12.5t18 -10l-37 -164q-51 17 -82 17z" />
    <glyph glyph-name="uniFB03" unicode="&#xfb03;" horiz-adv-x="1779" 
d="M717 1317q-67 0 -110 -35.5t-62 -122.5l-37 -174h387l43 205q60 303 352 303q36 0 67.5 -6.5t45.5 -12.5t18 -10l-37 -164l-6 2q-5 3 -11.5 5t-16 4.5t-22 4t-25.5 1.5q-67 0 -110.5 -35.5t-62.5 -122.5l-36 -174h614l-211 -985h-192l174 815h-422l-172 -815h-199
l172 815h-387l-172 -815h-199l172 815h-166l37 170h166l43 205q60 303 353 303q36 0 67.5 -6.5t45.5 -12.5t18 -10l-37 -164q-51 17 -82 17zM1552 1266q0 58 41.5 96.5t94.5 38.5q47 0 77.5 -31t30.5 -76q0 -54 -41.5 -94.5t-93.5 -40.5q-46 0 -77.5 31.5t-31.5 75.5z" />
    <glyph glyph-name="uniFB04" unicode="&#xfb04;" horiz-adv-x="1792" 
d="M717 1317q-67 0 -110 -35.5t-62 -122.5l-37 -174h387l43 205q60 303 352 303q36 0 67.5 -6.5t45.5 -12.5t18 -10l-37 -164l-6 2q-5 3 -11.5 5t-16 4.5t-22 4t-25.5 1.5q-67 0 -110.5 -35.5t-62.5 -122.5l-36 -174h434l106 498h193l-316 -1483h-192l174 815h-436
l-172 -815h-199l172 815h-387l-172 -815h-199l172 815h-166l37 170h166l43 205q60 303 353 303q36 0 67.5 -6.5t45.5 -12.5t18 -10l-37 -164q-51 17 -82 17z" />
    <glyph glyph-name="uniFEFF" unicode="&#xfeff;" horiz-adv-x="0" 
 />
    <glyph glyph-name="i.latn_TRK" horiz-adv-x="501" 
d="M272 1350q0 64 47 107.5t105 43.5q55 0 90 -35.5t35 -87.5q0 -60 -47.5 -105.5t-104.5 -45.5q-55 0 -90 35.5t-35 87.5zM27 0l211 985h192l-211 -985h-192z" />
    </font>
</defs>
</svg>
