<?xml version="1.0" standalone="no"?>
<!DOCTYPE svg PUBLIC "-//W3C//DTD SVG 1.1//EN" "http://www.w3.org/Graphics/SVG/1.1/DTD/svg11.dtd" >
<svg xmlns="http://www.w3.org/2000/svg" xmlns:xlink="http://www.w3.org/1999/xlink" version="1.1">
<metadata>
Created by FontForge 20170731 at Thu Sep 29 05:36:09 2022
 By Aleksey,,,
(c) 2019, Copyright by Lineto. All rights reserved.
</metadata>
<defs>
<font id="SVN-Circular-ThinItalic" horiz-adv-x="1146" >
  <font-face 
    font-family="SVN-Circular Thin"
    font-weight="100"
    font-style="italic"
    font-stretch="normal"
    units-per-em="2048"
    panose-1="2 1 3 4 1 1 1 1 1 4"
    ascent="1638"
    descent="-410"
    x-height="971"
    cap-height="1452"
    bbox="-508 -498 3160 2169"
    underline-thickness="102"
    underline-position="-307"
    slope="-12"
    unicode-range="U+000D-FEFF"
  />
<missing-glyph horiz-adv-x="540" 
 />
    <glyph glyph-name="f_f" unicode="ff" horiz-adv-x="1189" 
d="M391 971h512l60 274q19 89 64 147.5t100.5 81.5t121.5 23q78 0 117 -24l-18 -70q-45 18 -99 18q-165 0 -207 -186l-57 -264h252l-16 -74h-250l-191 -897h-82l191 897h-512l-191 -897h-82l191 897h-205l14 74h205l60 274q19 89 64 147.5t100.5 81.5t121.5 23q78 0 117 -24
l-18 -70q-45 18 -99 18q-77 0 -130 -41.5t-76 -144.5z" />
    <glyph glyph-name="f_f_i" unicode="ffi" horiz-adv-x="1667" 
d="M987 971h594l-207 -971h-82l191 897h-510l-191 -897h-82l191 897h-514l-191 -897h-82l191 897h-205l14 74h205l60 274q19 89 64 147.5t100.5 81.5t121.5 23q78 0 117 -24l-18 -70q-45 18 -99 18q-77 0 -130 -41.5t-76 -144.5l-58 -264h514l60 274q19 89 64 147.5
t100.5 81.5t121.5 23q78 0 117 -24l-18 -70q-45 18 -99 18q-165 0 -207 -186zM1516 1229q0 37 25.5 63.5t62.5 26.5q31 0 50 -21t19 -53q0 -36 -25 -61t-61 -25q-31 0 -51 19.5t-20 50.5z" />
    <glyph glyph-name="f_f_l" unicode="ffl" horiz-adv-x="1665" 
d="M391 971h512l60 274q19 89 64 147.5t100.5 81.5t121.5 23q78 0 117 -24l-18 -70q-45 18 -99 18q-165 0 -207 -186l-57 -264h512l109 506h82l-314 -1477h-82l191 897h-512l-191 -897h-82l191 897h-512l-191 -897h-82l191 897h-205l14 74h205l60 274q19 89 64 147.5
t100.5 81.5t121.5 23q78 0 117 -24l-18 -70q-45 18 -99 18q-77 0 -130 -41.5t-76 -144.5z" />
    <glyph glyph-name="f_i" unicode="fi" horiz-adv-x="1071" 
d="M696 0l191 897h-510l-191 -897h-82l191 897h-205l14 74h205l60 274q19 89 64 147.5t100.5 81.5t121.5 23q78 0 117 -24l-18 -70q-45 18 -99 18q-77 0 -130 -41.5t-76 -144.5l-58 -264h594l-207 -971h-82zM920 1229q0 37 25.5 63.5t62.5 26.5q31 0 50 -21t19 -53
q0 -36 -25 -61t-61 -25q-31 0 -51 19.5t-20 50.5z" />
    <glyph glyph-name="f_l" unicode="fl" horiz-adv-x="1071" 
d="M698 0l191 897h-512l-191 -897h-82l191 897h-205l14 74h205l60 274q19 89 64 147.5t100.5 81.5t121.5 23q78 0 117 -24l-18 -70q-45 18 -99 18q-77 0 -130 -41.5t-76 -144.5l-58 -264h512l109 506h82l-314 -1477h-82z" />
    <glyph glyph-name=".notdef" horiz-adv-x="540" 
 />
    <glyph glyph-name=".null" horiz-adv-x="0" 
 />
    <glyph glyph-name="nonmarkingreturn" horiz-adv-x="682" 
 />
    <glyph glyph-name="NULL" horiz-adv-x="0" 
 />
    <glyph glyph-name="NULL" horiz-adv-x="0" 
 />
    <glyph glyph-name="CR" unicode="&#xd;" horiz-adv-x="538" 
 />
    <glyph glyph-name="space" unicode=" " horiz-adv-x="538" 
 />
    <glyph glyph-name="exclam" unicode="!" horiz-adv-x="428" 
d="M449 1452l-254 -1081h-58l205 1081h107zM39 61q0 42 24.5 69.5t65.5 27.5q31 0 50.5 -22t19.5 -52q0 -38 -26.5 -65t-63.5 -27q-31 0 -50.5 20t-19.5 49z" />
    <glyph glyph-name="quotedbl" unicode="&#x22;" horiz-adv-x="614" 
d="M244 918l20 329q7 94 76 94q57 0 57 -59q0 -31 -30 -115l-93 -249h-30zM469 918l20 329q7 94 76 94q28 0 43 -16t15 -43q0 -29 -31 -115l-92 -249h-31z" />
    <glyph glyph-name="numbersign" unicode="#" horiz-adv-x="1445" 
d="M866 389h-389l-82 -389h-76l84 389h-317v70h332l88 413h-320v70h336l82 385h76l-84 -385h389l82 385h76l-84 -385h334v-70h-349l-88 -413h336v-70h-352l-82 -389h-76zM494 459h387l88 413h-387z" />
    <glyph glyph-name="dollar" unicode="$" horiz-adv-x="1062" 
d="M944 967q0 113 -59 195.5t-176 107.5l-121 -570l80 -34q121 -55 181 -131.5t60 -184.5q0 -167 -123 -271t-311 -104q-27 0 -41 2l-43 -206h-69l45 215q-147 29 -229.5 127.5t-82.5 246.5q0 51 8 95l78 12q-10 -58 -10 -92q0 -123 63 -209t187 -111l127 596l-76 35
q-217 96 -217 303q0 106 59 191t150 128.5t194 43.5q23 0 37 -2l45 209h70l-45 -218q146 -28 220.5 -127.5t74.5 -232.5zM571 623l-120 -576h28q152 0 250 82.5t98 212.5q0 167 -192 254zM295 997q0 -84 42.5 -141.5t131.5 -99.5l55 -27l117 549q-5 0 -15 1t-14 1
q-123 0 -220 -80.5t-97 -202.5z" />
    <glyph glyph-name="percent" unicode="%" horiz-adv-x="1685" 
d="M508 1339q122 0 200 -78.5t78 -195.5q0 -137 -98.5 -240.5t-241.5 -103.5q-122 0 -200 78.5t-78 195.5q0 137 98.5 240.5t241.5 103.5zM453 788q104 0 181 83t77 190q0 92 -58 151.5t-151 59.5q-104 0 -181 -83t-77 -190q0 -92 58 -151.5t151 -59.5zM1272 604
q122 0 200 -78.5t78 -195.5q0 -137 -98.5 -240.5t-241.5 -103.5q-122 0 -200 78.5t-78 195.5q0 137 98.5 240.5t241.5 103.5zM1217 53q104 0 181 83t77 190q0 92 -58 151.5t-151 59.5q-104 0 -181 -83t-77 -190q0 -92 58 -151.5t151 -59.5zM201 0l1233 1327h92l-1233 -1327
h-92z" />
    <glyph glyph-name="ampersand" unicode="&#x26;" horiz-adv-x="1265" 
d="M971 0l-140 209q-117 -111 -219 -167t-206 -56q-159 0 -252 101t-93 237q0 73 24.5 135t73.5 113t102.5 89t131.5 82l64 35l-62 94q-82 126 -82 242q0 160 105 261.5t254 101.5q129 0 212 -82t83 -201q0 -217 -260 -358l-144 -80l285 -430l350 325l-27 -123l-282 -266
l174 -262h-92zM412 63q91 0 178.5 52t191.5 149l9 8l-295 445l-88 -49q-57 -32 -99.5 -63.5t-82.5 -74t-61.5 -95.5t-21.5 -113q0 -102 73 -180.5t196 -78.5zM391 1122q0 -98 66 -202l67 -103l156 86q207 113 207 283q0 94 -61.5 154.5t-163.5 60.5q-115 0 -193 -80
t-78 -199z" />
    <glyph glyph-name="quotesingle" unicode="'" horiz-adv-x="389" 
d="M244 918l20 329q7 94 76 94q57 0 57 -59q0 -31 -30 -115l-93 -249h-30z" />
    <glyph glyph-name="parenleft" unicode="(" horiz-adv-x="571" 
d="M172 401q0 -324 184 -614l-55 -41q-92 131 -147.5 300t-55.5 355q0 200 44.5 377.5t130 325.5t192.5 269t248 235l49 -49q-136 -108 -239 -223.5t-184.5 -257t-124 -312.5t-42.5 -365z" />
    <glyph glyph-name="parenright" unicode=")" horiz-adv-x="567" 
d="M434 952q0 325 -184 615l55 41q92 -131 147.5 -300.5t55.5 -355.5q0 -200 -44.5 -377.5t-128.5 -325.5t-192 -269.5t-249 -233.5l-50 49q136 108 239 223t184.5 256t124 312t42.5 366z" />
    <glyph glyph-name="asterisk" unicode="*" horiz-adv-x="942" 
d="M614 1137l326 104l10 -65l-329 -107l141 -272l-57 -37l-140 276l-256 -282l-55 47l256 276l-277 103l33 61l279 -104l65 315h72z" />
    <glyph glyph-name="plus" unicode="+" horiz-adv-x="1064" 
d="M494 625v438h73v-438h408v-70h-408v-444h-73v444h-404v70h404z" />
    <glyph glyph-name="comma" unicode="," horiz-adv-x="468" 
d="M47 70q0 40 27 66t65 26q39 0 62.5 -26t23.5 -70q0 -67 -28.5 -130t-73 -107t-95.5 -73.5t-98 -38.5l13 66q74 17 135.5 82.5t77.5 134.5q-9 -6 -33 -6q-33 0 -54.5 20.5t-21.5 55.5z" />
    <glyph glyph-name="hyphen" unicode="-" horiz-adv-x="823" 
d="M137 551l15 74h528l-14 -74h-529z" />
    <glyph glyph-name="period" unicode="." horiz-adv-x="438" 
d="M39 66q0 42 26.5 71t67.5 29q33 0 52.5 -23.5t19.5 -54.5q0 -41 -26.5 -68.5t-65.5 -27.5q-34 0 -54 21.5t-20 52.5z" />
    <glyph glyph-name="slash" unicode="/" horiz-adv-x="931" 
d="M37 0h-88l1007 1452h88z" />
    <glyph glyph-name="zero" unicode="0" horiz-adv-x="1198" 
d="M1028 850q0 90 -17 163t-53.5 133t-101.5 93t-154 33q-96 0 -179.5 -50.5t-141.5 -133.5t-99.5 -189.5t-61 -218t-19.5 -219.5q0 -84 18 -155t56 -128.5t103 -90t152 -32.5q76 0 142.5 30t116 80.5t90.5 118t68 141t46 151t27 146t8 128.5zM713 1352q86 0 155 -27.5
t113.5 -74t74 -112t42 -137t12.5 -153.5q0 -108 -22.5 -225t-70.5 -233.5t-115.5 -208t-167 -149t-214.5 -57.5q-106 0 -186 41.5t-125.5 112.5t-67.5 156t-22 182q0 92 16.5 191t47.5 198.5t82 188t114.5 157.5t150 109.5t183.5 40.5z" />
    <glyph glyph-name="one" unicode="1" horiz-adv-x="643" 
d="M270 0l244 1145q-45 -61 -150 -120.5t-227 -66.5l17 78q135 13 240 94.5t157 196.5h84l-281 -1327h-84z" />
    <glyph glyph-name="two" unicode="2" horiz-adv-x="1085" 
d="M877 80l-17 -80h-860q31 170 114 284t234 185l305 143q151 71 231.5 162t80.5 219q0 55 -18 104.5t-53.5 90.5t-96 65.5t-138.5 24.5q-100 0 -182.5 -44.5t-135.5 -132.5t-58 -204l-78 18q2 87 36.5 166.5t93 139.5t142 95.5t178.5 35.5q97 0 174 -30t123.5 -80.5
t70.5 -111t24 -126.5q0 -83 -26.5 -153.5t-76 -125t-109.5 -96t-139 -78.5l-327 -156q-92 -43 -158.5 -115t-101.5 -200h768z" />
    <glyph glyph-name="three" unicode="3" horiz-adv-x="1126" 
d="M492 -25q-198 0 -313.5 111t-115.5 281q0 35 9 75l80 11q-9 -41 -9 -76q0 -147 93 -234.5t251 -87.5q163 0 274 109.5t111 263.5q0 140 -86.5 211.5t-214.5 71.5q-55 0 -104 -15l-39 95l608 458h-747l16 78h842l-21 -102l-598 -451q18 6 58 6q162 0 267 -91t105 -257
q0 -185 -137.5 -321t-328.5 -136z" />
    <glyph glyph-name="four" unicode="4" horiz-adv-x="1138" 
d="M702 358h-690l21 99l846 870h112l-188 -891h239l-16 -78h-240l-75 -358h-84zM115 436h604l172 799z" />
    <glyph glyph-name="five" unicode="5" horiz-adv-x="1097" 
d="M1096 1327l-17 -78h-587l-234 -504q57 54 137 80.5t160 26.5q186 0 285.5 -101t99.5 -262q0 -138 -62.5 -256t-173 -188t-241.5 -70q-100 0 -180.5 32t-131.5 86.5t-78.5 124.5t-27.5 149q0 34 8 65l82 10q-8 -31 -8 -65q0 -138 89 -230t249 -92q156 0 272.5 126.5
t116.5 297.5q0 299 -324 299q-157 0 -307 -125l-65 52l288 622h650z" />
    <glyph glyph-name="six" unicode="6" horiz-adv-x="1157" 
d="M842 1352q179 0 274 -74l-35 -70q-93 66 -256 66q-123 0 -231 -54t-186 -147t-131.5 -215t-75.5 -262q48 114 163.5 193t266.5 79q177 0 286 -109t109 -282q0 -110 -43 -205.5t-112.5 -159.5t-158 -100.5t-180.5 -36.5q-194 0 -307.5 134.5t-113.5 347.5q0 127 29 253.5
t90 242t145.5 204.5t205.5 142t261 53zM614 795q-106 0 -200 -52.5t-151.5 -146.5t-57.5 -205q0 -146 92 -242t244 -96q73 0 145 30.5t129 83t92 131.5t35 169q0 144 -90.5 236t-237.5 92z" />
    <glyph glyph-name="seven" unicode="7" horiz-adv-x="1030" 
d="M1116 1225q-309 -224 -520 -517.5t-334 -707.5h-90q244 810 872 1249h-841l16 78h920z" />
    <glyph glyph-name="eight" unicode="8" horiz-adv-x="1112" 
d="M657 1276q-141 0 -241.5 -79t-100.5 -218q0 -111 86 -186.5t230 -75.5q143 0 240.5 84.5t97.5 218.5q0 126 -89.5 191t-222.5 65zM516 647q-157 0 -259.5 -92.5t-102.5 -224.5q0 -121 92 -200t254 -79q154 0 257 94.5t103 227.5q0 71 -28.5 125t-77.5 85.5t-109 47.5
t-129 16zM72 319q0 151 107.5 254t252.5 125q-87 31 -141.5 108t-54.5 173q0 160 123.5 266.5t308.5 106.5q179 0 282 -92.5t103 -231.5q0 -136 -97 -237.5t-235 -122.5q97 -29 157 -112t60 -185q0 -91 -38 -167.5t-100 -125.5t-140.5 -76t-161.5 -27q-191 0 -308.5 94.5
t-117.5 249.5z" />
    <glyph glyph-name="nine" unicode="9" horiz-adv-x="1171" 
d="M672 1274q-101 0 -190.5 -49t-147.5 -144t-58 -213q0 -142 85.5 -229.5t236.5 -87.5q100 0 189 48.5t146.5 142t57.5 210.5q0 140 -88 231t-231 91zM414 53q84 0 158 24t130.5 65t104 96.5t80 117t56.5 128.5t36 129t16 120q-53 -120 -160.5 -188t-238.5 -68
q-178 0 -290.5 107.5t-112.5 277.5q0 139 69.5 253.5t177.5 175.5t228 61q89 0 159.5 -25.5t118.5 -69.5t79.5 -106.5t45.5 -133.5t14 -153q0 -129 -24.5 -253.5t-79 -240.5t-132.5 -203t-193.5 -139.5t-254.5 -52.5q-108 0 -210.5 35.5t-165.5 89.5l38 72
q141 -119 351 -119z" />
    <glyph glyph-name="colon" unicode=":" horiz-adv-x="458" 
d="M39 66q0 42 26.5 71t67.5 29q33 0 52.5 -23.5t19.5 -54.5q0 -41 -26.5 -68.5t-65.5 -27.5q-34 0 -54 21.5t-20 52.5zM211 879q0 42 26.5 71t67.5 29q33 0 52.5 -23.5t19.5 -54.5q0 -41 -26.5 -68.5t-65.5 -27.5q-34 0 -54 21.5t-20 52.5z" />
    <glyph glyph-name="semicolon" unicode=";" horiz-adv-x="458" 
d="M39 70q0 40 27 66t65 26q39 0 62.5 -26t23.5 -70q0 -67 -28.5 -130t-73 -107t-95.5 -73.5t-98 -38.5l12 66q74 17 135.5 82.5t77.5 134.5q-9 -6 -32 -6q-33 0 -54.5 20.5t-21.5 55.5zM211 879q0 42 26.5 71t67.5 29q33 0 52.5 -23.5t19.5 -54.5q0 -41 -26.5 -68.5
t-65.5 -27.5q-34 0 -54 21.5t-20 52.5z" />
    <glyph glyph-name="less" unicode="&#x3c;" horiz-adv-x="1056" 
d="M78 627l811 426v-82l-742 -381l742 -383v-82l-811 426v76z" />
    <glyph glyph-name="equal" unicode="=" horiz-adv-x="1300" 
d="M197 752v71h895v-71h-895zM197 356v72h895v-72h-895z" />
    <glyph glyph-name="greater" unicode="&#x3e;" horiz-adv-x="1056" 
d="M973 551l-811 -426v82l741 383l-741 381v82l811 -426v-76z" />
    <glyph glyph-name="question" unicode="?" horiz-adv-x="976" 
d="M387 369q-2 14 -2 39q0 83 25.5 145t68 103.5t111.5 82.5l102 62q110 67 168 147.5t58 186.5q0 113 -77.5 189.5t-222.5 76.5q-107 0 -190.5 -55.5t-125.5 -140t-42 -179.5q0 -7 1 -20.5t1 -20.5l-78 19q-2 6 -2 30q0 82 31.5 161t87 142t141 101.5t185.5 38.5
q171 0 272.5 -101t101.5 -237q0 -243 -278 -406l-105 -61q-88 -51 -123.5 -115.5t-35.5 -148.5v-39h-72zM307 61q0 42 24.5 69.5t65.5 27.5q31 0 50.5 -22t19.5 -52q0 -38 -26.5 -65t-63.5 -27q-31 0 -50.5 20t-19.5 49z" />
    <glyph glyph-name="at" unicode="@" horiz-adv-x="1695" 
d="M1262 307q-90 0 -139.5 49.5t-49.5 126.5q-39 -81 -108 -128.5t-152 -47.5q-125 0 -208 93.5t-83 242.5q0 114 48 217.5t137 169.5t198 66q88 0 153.5 -51t78.5 -136l28 162h72l-98 -510q-6 -30 -6 -57q0 -133 131 -133q111 0 201.5 128.5t90.5 315.5q0 112 -42.5 217
t-121 190.5t-202 137t-272.5 51.5q-143 0 -271.5 -56t-221.5 -152.5t-147.5 -231.5t-54.5 -287q0 -149 50 -278.5t140 -224.5t223 -149.5t292 -54.5q149 0 282 55t236 158l39 -47q-103 -109 -250 -170t-307 -61q-171 0 -317 58.5t-247 161t-157.5 245t-56.5 307.5
q0 166 61 313.5t164 252.5t244 166t296 61q162 0 299 -57t226.5 -151t139.5 -212t50 -242q0 -109 -32.5 -205.5t-85 -162t-118 -103t-132.5 -37.5zM1104 799q0 102 -54.5 165.5t-154.5 63.5q-120 0 -209.5 -111.5t-89.5 -265.5q0 -114 57.5 -196t161.5 -82q72 0 129.5 38.5
t91 101t51 136t17.5 150.5z" />
    <glyph glyph-name="A" unicode="A" horiz-adv-x="1316" 
d="M971 504h-649l-295 -504h-101l862 1452h105l250 -1452h-86zM369 584h587l-131 778z" />
    <glyph glyph-name="B" unicode="B" horiz-adv-x="1206" 
d="M780 1452q89 0 159.5 -26.5t113 -72t64.5 -102t22 -121.5q0 -128 -86 -243.5t-224 -151.5q102 -34 156.5 -112.5t54.5 -178.5q0 -64 -20 -126.5t-61 -120t-98.5 -101.5t-139 -70t-176.5 -26h-455l307 1452h383zM688 774q107 0 193 53t130 131.5t44 163.5
q0 107 -69.5 179.5t-213.5 72.5h-305l-127 -600h348zM539 78q99 0 181 32.5t132.5 85.5t78 117t27.5 131q0 110 -73.5 182t-216.5 72h-344l-131 -620h346z" />
    <glyph glyph-name="C" unicode="C" horiz-adv-x="1482" 
d="M727 -25q-120 0 -226.5 41.5t-188 119t-128.5 197t-47 265.5q0 141 32 266.5t88 220.5t130 170.5t160 123.5t176.5 73t179.5 25q242 0 393 -129t177 -326l-78 -27q-25 182 -156.5 292t-341.5 110q-94 0 -188 -31.5t-181 -98t-154.5 -158.5t-108 -223.5t-40.5 -283.5
q0 -174 70.5 -300t185 -186.5t256.5 -60.5q190 0 334 100t236 291l67 -43q-93 -196 -264 -312t-383 -116z" />
    <glyph glyph-name="D" unicode="D" horiz-adv-x="1413" 
d="M88 0l309 1452h383q164 0 291.5 -64t202 -190t74.5 -297q0 -179 -63 -343t-173.5 -287.5t-273 -197t-351.5 -73.5h-399zM492 78q108 0 215.5 33t206.5 101.5t175.5 164.5t122 231.5t45.5 292.5q0 115 -37 205.5t-103 148.5t-153.5 88.5t-191.5 30.5h-303l-276 -1296h299z
" />
    <glyph glyph-name="E" unicode="E" horiz-adv-x="1155" 
d="M88 0l309 1452h817l-16 -80h-731l-129 -604h661l-16 -80h-661l-129 -608h747l-16 -80h-836z" />
    <glyph glyph-name="F" unicode="F" horiz-adv-x="1161" 
d="M88 0l309 1452h824l-17 -80h-735l-135 -629h670l-17 -79h-670l-141 -664h-88z" />
    <glyph glyph-name="G" unicode="G" horiz-adv-x="1533" 
d="M1219 0l45 266q-29 -50 -76 -98.5t-113.5 -93t-157.5 -72t-190 -27.5q-113 0 -217.5 41.5t-188.5 118.5t-134 199t-50 270q0 143 32.5 269t89 220t131.5 168.5t161.5 121t176.5 70.5t179 24q223 0 374.5 -121.5t193.5 -317.5l-80 -37q-42 182 -172 289t-324 107
q-95 0 -188.5 -30t-181.5 -94.5t-154.5 -155t-107 -222.5t-40.5 -287q0 -108 28.5 -199.5t77.5 -156t114.5 -109.5t140.5 -66.5t155 -21.5q101 0 190 31t154.5 82.5t115.5 120.5t79 143.5t39 151.5h-545l17 80h632l-137 -664h-69z" />
    <glyph glyph-name="H" unicode="H" horiz-adv-x="1456" 
d="M1028 0l150 698h-852l-150 -698h-88l309 1452h88l-143 -674h852l143 674h88l-309 -1452h-88z" />
    <glyph glyph-name="I" unicode="I" horiz-adv-x="516" 
d="M88 0l309 1452h88l-309 -1452h-88z" />
    <glyph glyph-name="J" unicode="J" horiz-adv-x="1056" 
d="M61 543l89 14l-21 -94q-14 -55 -14 -123q0 -127 67.5 -206t212.5 -79q127 0 215 88t119 238l223 1071h88l-225 -1069q-42 -194 -151 -301t-273 -107q-177 0 -268.5 98.5t-91.5 258.5q0 71 14 131z" />
    <glyph glyph-name="K" unicode="K" horiz-adv-x="1263" 
d="M676 811l444 -811h-102l-406 754l-338 -297l-96 -457h-88l307 1452h88l-184 -866l977 866h127z" />
    <glyph glyph-name="L" unicode="L" horiz-adv-x="1081" 
d="M88 0l309 1452h88l-292 -1372h749l-16 -80h-838z" />
    <glyph glyph-name="M" unicode="M" horiz-adv-x="1867" 
d="M1710 1452h127l-307 -1452h-86l278 1323l-874 -1323h-74l-319 1323l-279 -1323h-86l307 1452h115l319 -1329z" />
    <glyph glyph-name="N" unicode="N" horiz-adv-x="1466" 
d="M1032 0l-571 1339l-283 -1339h-88l307 1452h115l557 -1317l279 1317h88l-308 -1452h-96z" />
    <glyph glyph-name="O" unicode="O" horiz-adv-x="1570" 
d="M733 55q94 0 188 31.5t181 98t154.5 158.5t108 223.5t40.5 283.5q0 134 -40.5 240.5t-110.5 172.5t-161 100t-196 34q-94 0 -188 -31.5t-181 -98t-154.5 -158.5t-108 -223.5t-40.5 -283.5q0 -134 40.5 -240.5t110.5 -172.5t161 -100t196 -34zM727 -25q-121 0 -227 40.5
t-187.5 116.5t-128.5 196.5t-47 269.5q0 141 32 266.5t88 220.5t130 170.5t160 123.5t176.5 73t179.5 25q121 0 227 -41t187.5 -117.5t128.5 -196.5t47 -268q0 -141 -32 -266.5t-88 -220.5t-130 -170.5t-160 -123.5t-176.5 -73t-179.5 -25z" />
    <glyph glyph-name="P" unicode="P" horiz-adv-x="1179" 
d="M670 707q193 0 320.5 115.5t127.5 293.5q0 119 -78 187.5t-223 68.5h-348l-143 -665h344zM309 627l-133 -627h-88l309 1452h445q167 0 266.5 -94t99.5 -238q0 -140 -70.5 -253t-193.5 -176.5t-274 -63.5h-361z" />
    <glyph glyph-name="Q" unicode="Q" horiz-adv-x="1570" 
d="M727 -25q-121 0 -227 40.5t-187.5 116.5t-128.5 196.5t-47 269.5q0 141 32 266.5t88 220.5t130 170.5t160 123.5t176.5 73t179.5 25q121 0 227 -41t187.5 -117.5t128.5 -196.5t47 -268q0 -224 -77.5 -398.5t-209.5 -291.5l193 -268l-68 -46l-186 263q-196 -138 -418 -138
zM733 55q194 0 365 125l-244 344l66 45l239 -338q113 107 179.5 263t66.5 356q0 134 -40.5 240.5t-110.5 172.5t-161 100t-196 34q-94 0 -188 -31.5t-181 -98t-154.5 -158.5t-108 -223.5t-40.5 -283.5q0 -134 40.5 -240.5t110.5 -172.5t161 -100t196 -34z" />
    <glyph glyph-name="R" unicode="R" horiz-adv-x="1222" 
d="M913 0l-243 647h-355l-139 -647h-88l309 1452h434q167 0 267 -94t100 -238q0 -186 -124 -311t-318 -150l254 -659h-97zM659 727q195 0 322 106.5t127 282.5q0 119 -78 187.5t-223 68.5h-338l-137 -645h327z" />
    <glyph glyph-name="S" unicode="S" horiz-adv-x="1155" 
d="M1042 1057q0 70 -22 130.5t-65 108.5t-113.5 75.5t-161.5 27.5q-135 0 -241.5 -86t-106.5 -219q0 -96 46 -160t144 -107l217 -98q132 -62 198.5 -145t66.5 -199q0 -182 -135.5 -296t-340.5 -114q-206 0 -331 115t-125 307q0 60 8 101l84 14q-10 -58 -10 -100
q0 -157 98.5 -258t282.5 -101q165 0 272.5 90.5t107.5 231.5q0 93 -49 158t-164 118l-221 101q-115 53 -175 132.5t-60 196.5t65 209.5t164.5 139.5t210.5 47t196.5 -33.5t136 -91.5t77 -128t28.5 -151z" />
    <glyph glyph-name="T" unicode="T" horiz-adv-x="1191" 
d="M803 1372l-293 -1372h-88l293 1372h-510l16 80h1108l-16 -80h-510z" />
    <glyph glyph-name="U" unicode="U" horiz-adv-x="1349" 
d="M1335 1452l-219 -1028q-47 -222 -176.5 -335.5t-331.5 -113.5q-211 0 -324.5 112.5t-113.5 307.5q0 91 16 154l193 903h88l-193 -907q-16 -82 -16 -142q0 -161 89 -254.5t267 -93.5q169 0 274 98.5t144 284.5l215 1014h88z" />
    <glyph glyph-name="V" unicode="V" horiz-adv-x="1251" 
d="M1280 1452h94l-825 -1452h-98l-207 1452h84l188 -1356z" />
    <glyph glyph-name="W" unicode="W" horiz-adv-x="1970" 
d="M451 0h-103l-115 1452h89l100 -1331l678 1331h100l154 -1333l641 1333h94l-705 -1452h-100l-156 1333z" />
    <glyph glyph-name="X" unicode="X" horiz-adv-x="1177" 
d="M600 657l-575 -657h-107l649 729l-331 723h96l293 -659l592 659h108l-657 -723l-4 -4l327 -725h-96z" />
    <glyph glyph-name="Y" unicode="Y" horiz-adv-x="1177" 
d="M246 1452h92l280 -737l564 737h102l-641 -821l-135 -631h-86l139 643z" />
    <glyph glyph-name="Z" unicode="Z" horiz-adv-x="1214" 
d="M-57 0l20 92l1251 1280h-958l16 80h1063l-20 -90l-1254 -1282h949l-17 -80h-1050z" />
    <glyph glyph-name="bracketleft" unicode="[" horiz-adv-x="514" 
d="M-27 -281l396 1864h309l-14 -70h-236l-367 -1724h236l-14 -70h-310z" />
    <glyph glyph-name="backslash" unicode="\" horiz-adv-x="915" 
d="M252 1452h76l391 -1452h-76z" />
    <glyph glyph-name="bracketright" unicode="]" horiz-adv-x="514" 
d="M567 1583l-395 -1864h-309l14 70h236l366 1724h-235l14 70h309z" />
    <glyph glyph-name="asciicircum" unicode="^" horiz-adv-x="1087" 
d="M934 727l-346 643l-346 -643h-86l395 725h74l395 -725h-86z" />
    <glyph glyph-name="underscore" unicode="_" horiz-adv-x="1081" 
d="M-115 -70v70h1047v-70h-1047z" />
    <glyph glyph-name="grave" unicode="`" horiz-adv-x="305" 
d="M293 1094l-160 276h98l125 -276h-63z" />
    <glyph glyph-name="a" unicode="a" horiz-adv-x="1140" 
d="M856 451q14 72 14 124q0 153 -80.5 250t-224.5 97q-108 0 -203 -66.5t-153.5 -187.5t-58.5 -267q0 -155 82 -254.5t227 -99.5q142 0 251 113.5t146 290.5zM809 184q-150 -209 -360 -209q-172 0 -274.5 119.5t-102.5 292.5q0 129 40.5 243t108 193.5t158 125.5t188.5 46
q73 0 132.5 -20t95.5 -49t62.5 -68t38 -71t17.5 -64l54 248h82l-148 -692q-20 -103 -20 -189q0 -65 2 -90h-78q-4 46 -4 76q0 53 8 108z" />
    <glyph glyph-name="b" unicode="b" horiz-adv-x="1161" 
d="M293 797q51 78 145.5 138t220.5 60q94 0 168.5 -33t121 -90t71 -131t24.5 -159q0 -172 -68.5 -312t-183 -217.5t-249.5 -77.5q-87 0 -155.5 27.5t-109.5 72.5t-64.5 91t-33.5 94l-55 -260h-82l313 1477h82zM223 399q0 -154 83.5 -252t228.5 -98q113 0 211.5 69.5
t157.5 190.5t59 262q0 153 -86 253t-234 100q-78 0 -147 -33t-118 -87t-84.5 -123t-53 -141t-17.5 -141z" />
    <glyph glyph-name="c" unicode="c" horiz-adv-x="1064" 
d="M928 270q-63 -136 -178.5 -215.5t-260.5 -79.5q-187 0 -302 122.5t-115 310.5q0 125 44.5 236t117.5 187t169 120t197 44q162 0 259 -85t124 -212l-74 -28q-24 114 -106.5 183t-208.5 69q-82 0 -160.5 -37t-140.5 -102.5t-99.5 -163t-37.5 -209.5q0 -161 94 -261
t248 -100q122 0 215.5 69.5t150.5 186.5z" />
    <glyph glyph-name="d" unicode="d" horiz-adv-x="1134" 
d="M897 279q-23 -125 -23 -179q0 -38 5 -100h-80q-4 46 -4 76q0 53 8 108q-55 -85 -145 -147t-212 -62q-173 0 -273.5 116t-100.5 298q0 167 68 307t182 219.5t247 79.5q71 0 129.5 -19.5t94 -48.5t61.5 -68t38 -72t17 -66l160 756h82zM457 49q74 0 141 31.5t115.5 84.5
t84.5 120.5t54 141.5t18 146q0 156 -80 251.5t-223 95.5q-110 0 -205 -67.5t-152.5 -188.5t-57.5 -267q0 -152 82 -250t223 -98z" />
    <glyph glyph-name="e" unicode="e" horiz-adv-x="1075" 
d="M156 479q-4 -18 -4 -80q0 -158 95 -254t245 -96q113 0 206 64t148 163l65 -43q-65 -116 -178 -187t-250 -71q-181 0 -296 116t-115 310q0 130 44.5 243.5t117 189t164 118.5t186.5 43q188 0 289.5 -111.5t101.5 -283.5q0 -60 -12 -121h-807zM582 922q-145 0 -257 -106
t-155 -265h719q4 28 4 47q0 142 -81 233t-230 91z" />
    <glyph glyph-name="f" unicode="f" horiz-adv-x="595" 
d="M391 971h252l-16 -74h-250l-191 -897h-82l191 897h-205l14 74h205l60 274q19 89 64 147.5t100.5 81.5t121.5 23q78 0 117 -24l-18 -70q-45 18 -99 18q-77 0 -130 -41.5t-76 -144.5z" />
    <glyph glyph-name="g" unicode="g" horiz-adv-x="1128" 
d="M877 592q0 139 -80 234.5t-228 95.5q-105 0 -197.5 -61.5t-148 -169t-55.5 -234.5q0 -148 81 -238t234 -90q88 0 164 43t125 111t77 149t28 160zM61 -39q0 -131 87.5 -216t240.5 -85q73 0 131.5 21.5t97.5 55.5t68.5 84.5t46 99t29.5 108.5l45 211q-45 -76 -132.5 -129.5
t-203.5 -53.5q-176 0 -281.5 112t-105.5 284q0 112 40 213t106.5 173t155 114t183.5 42q82 0 146.5 -23t103.5 -61.5t62 -80.5t32 -89l48 230h81l-198 -942q-95 -443 -457 -443q-180 0 -291 101t-116 256z" />
    <glyph glyph-name="h" unicode="h" horiz-adv-x="1060" 
d="M43 0l313 1477h82l-141 -664q41 73 126 127.5t187 54.5q79 0 140 -24t96.5 -66.5t53.5 -95t18 -113.5q0 -26 -11 -90l-123 -606h-84l125 602q9 38 9 78q0 107 -62 175.5t-184 68.5q-116 0 -212 -97t-126 -239l-125 -588h-82z" />
    <glyph glyph-name="i" unicode="i" horiz-adv-x="417" 
d="M43 0l207 971h82l-207 -971h-82zM266 1229q0 37 25.5 63.5t62.5 26.5q31 0 50.5 -21t19.5 -53q0 -36 -25 -61t-61 -25q-31 0 -51.5 19.5t-20.5 50.5z" />
    <glyph glyph-name="j" unicode="j" horiz-adv-x="417" 
d="M250 971h82l-240 -1125q-28 -129 -96 -186t-172 -57q-84 0 -131 35l14 69q60 -31 121 -31q74 0 119 43t65 138zM266 1229q0 37 25.5 63.5t62.5 26.5q31 0 50.5 -21t19.5 -53q0 -36 -25 -61t-61 -25q-31 0 -51.5 19.5t-20.5 50.5z" />
    <glyph glyph-name="k" unicode="k" horiz-adv-x="978" 
d="M43 0l313 1477h82l-223 -1055l666 549h118l-485 -398l311 -573h-94l-280 522l-261 -215l-65 -307h-82z" />
    <glyph glyph-name="l" unicode="l" horiz-adv-x="415" 
d="M43 0l313 1477h82l-313 -1477h-82z" />
    <glyph glyph-name="m" unicode="m" horiz-adv-x="1638" 
d="M659 0l129 606q11 61 11 96q0 104 -55 163t-171 59q-108 0 -198.5 -94t-124.5 -242l-125 -588h-82l174 819q19 90 19 152h75q0 -70 -16 -148q47 70 125.5 121t169.5 51q122 0 196 -56.5t91 -160.5q52 103 144.5 160t190.5 57q138 0 212.5 -72t74.5 -202q0 -54 -10 -103
l-131 -618h-82l129 608q12 52 12 101q0 99 -54 157t-167 58q-109 0 -205 -96t-125 -238l-125 -590h-82z" />
    <glyph glyph-name="n" unicode="n" horiz-adv-x="1060" 
d="M700 0l121 567q15 71 15 119q0 109 -61.5 173.5t-184.5 64.5q-116 0 -213.5 -97t-126.5 -239l-125 -588h-82l172 809q21 100 21 162h79q0 -77 -18 -158q41 73 126 127.5t187 54.5q145 0 226.5 -82.5t81.5 -216.5q0 -54 -15 -125l-121 -571h-82z" />
    <glyph glyph-name="o" unicode="o" horiz-adv-x="1105" 
d="M586 922q-75 0 -150.5 -35t-139 -98t-103 -163t-39.5 -218q0 -161 91 -260t232 -99q60 0 120.5 22t116.5 66.5t99.5 105t69.5 145t26 179.5q0 162 -90.5 258.5t-232.5 96.5zM471 -25q-175 0 -286 118t-111 306q0 134 45 248.5t119 189t166 116.5t188 42
q178 0 287.5 -117.5t109.5 -306.5q0 -134 -45 -248.5t-118.5 -189.5t-165.5 -116.5t-189 -41.5z" />
    <glyph glyph-name="p" unicode="p" horiz-adv-x="1132" 
d="M631 924q-91 0 -170 -48.5t-131 -125t-81.5 -169.5t-29.5 -184q0 -156 78.5 -252t220.5 -96q82 0 159 41.5t134 111.5t91 168t34 205q0 153 -81.5 251t-223.5 98zM297 813q50 75 142 128.5t208 53.5q174 0 272.5 -114t98.5 -291q0 -170 -68 -312t-181.5 -222.5
t-246.5 -80.5q-81 0 -146.5 27t-105 70t-62 84.5t-32.5 83.5l-133 -629h-82l254 1198q21 100 21 162h79q0 -77 -18 -158z" />
    <glyph glyph-name="q" unicode="q" horiz-adv-x="1140" 
d="M684 -389l115 543q-46 -72 -129.5 -125.5t-200.5 -53.5q-175 0 -284 126.5t-109 308.5q0 164 66.5 298.5t179.5 210.5t247 76q68 0 125.5 -18.5t95.5 -47.5t66.5 -66.5t42.5 -71.5t21 -68l53 248h82l-289 -1360h-82zM481 47q74 0 139 33t111 87t80 123.5t50 143t16 144.5
q0 151 -82 246.5t-222 95.5q-111 0 -206.5 -65t-153 -180.5t-57.5 -254.5q0 -154 89 -263.5t236 -109.5z" />
    <glyph glyph-name="r" unicode="r" horiz-adv-x="661" 
d="M303 825q111 156 291 156q76 0 117 -25l-17 -82q-44 23 -121 23q-114 0 -200.5 -81t-120.5 -236l-123 -580h-82l172 809q19 90 19 162h79q0 -87 -14 -146z" />
    <glyph glyph-name="s" unicode="s" horiz-adv-x="862" 
d="M715 688q0 97 -63.5 167.5t-184.5 70.5q-92 0 -164 -56.5t-72 -136.5q0 -57 31.5 -97.5t108.5 -76.5l143 -65q82 -37 127 -96t45 -132q0 -124 -91.5 -207.5t-236.5 -83.5q-153 0 -243 81.5t-90 217.5q0 28 6 52l75 20q-4 -28 -4 -51q0 -111 66 -179.5t190 -68.5
q103 0 173.5 57t70.5 148q0 112 -137 176l-139 64q-84 38 -129 92.5t-45 134.5q0 117 90.5 196.5t228.5 79.5q80 0 143 -25t101 -66.5t58 -91.5t20 -103z" />
    <glyph glyph-name="t" unicode="t" horiz-adv-x="563" 
d="M442 1280l-65 -309h209l-15 -74h-211l-122 -582q-17 -69 -17 -112q0 -65 34.5 -103.5t104.5 -38.5q43 0 64 9l-16 -72q-19 -8 -58 -8q-104 0 -157.5 55t-53.5 154q0 42 19 129l121 569h-189l14 74h52q71 0 109 24.5t57 104.5l38 180h82z" />
    <glyph glyph-name="u" unicode="u" horiz-adv-x="1054" 
d="M317 971l-120 -568q-15 -71 -15 -118q0 -110 60 -174t182 -64q118 0 213 100t127 256l121 568h82l-172 -809q-17 -81 -17 -162h-78q0 102 17 164q-42 -76 -125 -132.5t-189 -56.5q-144 0 -223.5 82.5t-79.5 216.5q0 54 15 125l121 572h81z" />
    <glyph glyph-name="v" unicode="v" horiz-adv-x="950" 
d="M225 971l144 -877l499 877h95l-566 -971h-90l-164 971h82z" />
    <glyph glyph-name="w" unicode="w" horiz-adv-x="1523" 
d="M225 971l76 -860l483 860h111l102 -871l461 871h88l-522 -971h-90l-107 899l-508 -899h-81l-97 971h84z" />
    <glyph glyph-name="x" unicode="x" horiz-adv-x="931" 
d="M401 504l-256 467h93l221 -412l389 412h106l-460 -473l272 -498h-92l-236 436l-413 -436h-109z" />
    <glyph glyph-name="y" unicode="y" horiz-adv-x="966" 
d="M10 -389l361 532l-242 828h86l211 -752l492 752h96l-910 -1360h-94z" />
    <glyph glyph-name="z" unicode="z" horiz-adv-x="915" 
d="M-53 0l12 74l827 823h-622l14 74h729l-12 -74l-829 -823h665l-14 -74h-770z" />
    <glyph glyph-name="braceleft" unicode="{" horiz-adv-x="591" 
d="M78 696q206 15 254 222l76 354q32 152 109 221.5t214 69.5h14l-14 -70h-14q-105 0 -158.5 -52t-77.5 -165l-78 -373q-50 -226 -270 -252q83 -12 124.5 -61.5t41.5 -126.5q0 -30 -6 -64l-78 -372q-10 -55 -10 -88q0 -67 35 -98t118 -31h15l-15 -68h-14q-100 0 -156.5 48
t-56.5 138q0 44 12 103l76 354q6 30 6 59q0 72 -43.5 115.5t-122.5 54.5z" />
    <glyph glyph-name="bar" unicode="|" horiz-adv-x="389" 
d="M-27 -281l396 1864h73l-395 -1864h-74z" />
    <glyph glyph-name="braceright" unicode="}" horiz-adv-x="591" 
d="M541 608q-206 -15 -254 -221l-76 -354q-32 -152 -109.5 -221.5t-214.5 -69.5h-14l14 70h15q105 0 158 52t77 165l78 372q50 226 270 252q-82 12 -124 62t-42 127q0 23 7 63l77 373q11 60 11 88q0 67 -35.5 98t-118.5 31h-14l14 68h14q100 0 156.5 -48.5t56.5 -138.5
q0 -44 -12 -102l-76 -354q-6 -30 -6 -60q0 -72 43.5 -115.5t122.5 -54.5z" />
    <glyph glyph-name="asciitilde" unicode="~" horiz-adv-x="1230" 
d="M545 586q-81 43 -146 43q-66 0 -113.5 -28t-90.5 -87l-52 41q51 75 111.5 111t144.5 36q80 0 181 -53l94 -51q96 -47 157 -47q67 0 113.5 27t89.5 86l51 -41q-51 -75 -110.5 -110.5t-143.5 -35.5q-73 0 -190 60z" />
    <glyph glyph-name="uni00A0" unicode="&#xa0;" horiz-adv-x="538" 
 />
    <glyph glyph-name="exclamdown" unicode="&#xa1;" horiz-adv-x="401" 
d="M-76 -473l254 1081h58l-205 -1081h-107zM334 918q0 -42 -24.5 -69.5t-65.5 -27.5q-31 0 -50.5 22t-19.5 52q0 38 26.5 65t63.5 27q30 0 50 -19.5t20 -49.5z" />
    <glyph glyph-name="cent" unicode="&#xa2;" horiz-adv-x="1042" 
d="M416 205q-136 32 -215.5 139t-79.5 254q0 117 41 220.5t108.5 174t156.5 112.5t185 44l39 178h72l-39 -182q128 -16 206.5 -95t100.5 -186l-69 -26q-24 97 -88.5 160.5t-163.5 76.5l-170 -811h26q117 0 206 67t147 179l59 -33q-61 -131 -170 -206.5t-248 -75.5h-35
l-41 -195h-71zM201 600q0 -122 61.5 -208.5t167.5 -115.5l168 803q-76 -4 -147.5 -39.5t-127 -96t-89 -150t-33.5 -193.5z" />
    <glyph glyph-name="sterling" unicode="&#xa3;" horiz-adv-x="1179" 
d="M330 551q0 13 -4 59h-185l15 76h159q-2 11 -9.5 48.5t-10.5 54.5t-7.5 47.5t-6.5 56t-2 51.5q0 115 57.5 209.5t152 146.5t203.5 52q95 0 168.5 -29.5t117.5 -79.5t66.5 -111t22.5 -128q0 -22 -4 -58l-86 -8q4 15 4 61q0 121 -78.5 199t-212.5 78q-135 0 -230 -95.5
t-95 -236.5q0 -40 5 -80.5t16 -97.5t15 -80h406l-14 -76h-383q4 -36 4 -57q0 -284 -299 -477h518q137 0 223.5 78t118.5 217l80 -13q-37 -168 -145.5 -263t-272.5 -95h-653l16 82q147 82 238.5 206t91.5 263z" />
    <glyph glyph-name="currency" unicode="&#xa4;" horiz-adv-x="1275" 
d="M182 469q0 165 107 285l-150 155l54 52l149 -156q121 100 276 100q152 0 267 -94l145 150l51 -52l-141 -147q115 -121 115 -293q0 -173 -111 -287l141 -143l-51 -51l-143 143q-115 -98 -273 -98q-163 0 -282 106l-148 -151l-51 51l148 151q-103 115 -103 279zM256 469
q0 -152 105.5 -258.5t256.5 -106.5q152 0 256.5 106t104.5 259t-104.5 259t-256.5 106q-151 0 -256.5 -106.5t-105.5 -258.5z" />
    <glyph glyph-name="yen" unicode="&#xa5;" horiz-adv-x="1171" 
d="M92 350l14 68h394l39 182h-394l15 66h354l-262 661h94l248 -655l526 655h101l-541 -661h352l-14 -66h-393l-39 -182h393l-14 -68h-394l-73 -350h-86l73 350h-393z" />
    <glyph glyph-name="brokenbar" unicode="&#xa6;" horiz-adv-x="407" 
d="M453 1583l-174 -819h-74l174 819h74zM231 541l-174 -822h-73l174 822h73z" />
    <glyph glyph-name="section" unicode="&#xa7;" horiz-adv-x="1001" 
d="M655 774q90 -68 136.5 -128t46.5 -140q0 -113 -77 -192t-194 -105q84 -61 124 -124.5t40 -139.5q0 -161 -116 -260t-275 -99q-166 0 -257 90.5t-91 235.5q0 63 10 86l78 8q-8 -31 -8 -74q0 -123 71 -199.5t203 -76.5q123 0 212 73t89 191q0 69 -33.5 123t-99.5 104
l-186 140q-89 67 -136 129.5t-47 142.5q0 81 42.5 146.5t102 101t124.5 43.5q-77 55 -117.5 124.5t-40.5 143.5q0 161 113 260t270 99q155 0 244.5 -90.5t89.5 -229.5q0 -37 -6 -78l-80 -10q6 37 6 74q0 121 -66 192.5t-190 71.5q-118 0 -207.5 -74.5t-89.5 -195.5
q0 -131 129 -224zM469 809q-93 -8 -167.5 -75.5t-74.5 -160.5q0 -58 33.5 -106.5t99.5 -99.5l152 -115q87 13 164.5 81.5t77.5 158.5q0 58 -33.5 106t-97.5 96z" />
    <glyph glyph-name="dieresis" unicode="&#xa8;" horiz-adv-x="544" 
d="M133 1229q0 36 21.5 59t56.5 23q25 0 41 -19.5t16 -44.5q0 -33 -21.5 -55.5t-53.5 -22.5q-28 0 -44 17.5t-16 42.5zM461 1229q0 36 21.5 59t56.5 23q25 0 41 -19.5t16 -44.5q0 -32 -22 -55t-54 -23q-28 0 -43.5 17.5t-15.5 42.5z" />
    <glyph glyph-name="copyright" unicode="&#xa9;" horiz-adv-x="1738" 
d="M1200 891q-23 93 -90 146t-164 53q-66 0 -129 -30t-113 -82.5t-81 -132t-31 -171.5q0 -130 77 -208.5t201 -78.5q98 0 169 52t112 128q13 -3 36.5 -12.5t29.5 -11.5q-49 -91 -141.5 -155t-209.5 -64q-157 0 -253.5 98t-96.5 250q0 103 37 194t98 153t139 98t160 36
q137 0 219 -68t101 -170zM227 725q0 -141 52.5 -268t141.5 -218t213.5 -144.5t262.5 -53.5q183 0 337 90.5t243.5 248t89.5 345.5t-89.5 346t-243.5 249t-337 91q-138 0 -262.5 -53.5t-213.5 -145.5t-141.5 -219t-52.5 -268zM156 725q0 154 58 293t156.5 239.5t236 160
t290.5 59.5q152 0 290 -59.5t237 -160t157.5 -240t58.5 -292.5t-58.5 -291.5t-157.5 -239t-237 -160t-290 -59.5q-153 0 -290.5 59.5t-236 160t-156.5 239t-58 291.5z" />
    <glyph glyph-name="ordfeminine" unicode="&#xaa;" horiz-adv-x="913" 
d="M477 690q82 0 149 54t101.5 135.5t34.5 167.5q0 105 -57.5 168t-159.5 63q-117 0 -200 -100t-83 -250q0 -107 56.5 -172.5t158.5 -65.5zM692 641q5 62 19 121q-35 -55 -99.5 -96t-148.5 -41q-129 0 -203 85t-74 216q0 178 106 299t255 121q63 0 111.5 -19t75.5 -49.5
t41.5 -58t19.5 -54.5l34 164h74l-125 -586q-3 -16 -7 -51t-7 -51h-72z" />
    <glyph glyph-name="guillemotleft" unicode="&#xab;" horiz-adv-x="888" 
d="M293 188l-193 392l351 391h94l-361 -398l187 -385h-78zM602 188l-192 392l350 391h94l-360 -398l186 -385h-78z" />
    <glyph glyph-name="logicalnot" unicode="&#xac;" horiz-adv-x="1210" 
d="M930 332v420h-797v73h873v-493h-76z" />
    <glyph glyph-name="uni00AD" unicode="&#xad;" horiz-adv-x="823" 
d="M137 551l15 74h528l-14 -74h-529z" />
    <glyph glyph-name="registered" unicode="&#xae;" horiz-adv-x="1738" 
d="M227 725q0 -141 52.5 -268t141.5 -218t213.5 -144.5t262.5 -53.5q183 0 337 90.5t243.5 248t89.5 345.5t-89.5 346t-243.5 249t-337 91q-138 0 -262.5 -53.5t-213.5 -145.5t-141.5 -219t-52.5 -268zM156 725q0 154 58 293t156.5 239.5t236 160t290.5 59.5
q152 0 290 -59.5t237 -160t157.5 -240t58.5 -292.5t-58.5 -291.5t-157.5 -239t-237 -160t-290 -59.5q-153 0 -290.5 59.5t-236 160t-156.5 239t-58 291.5zM1042 324l-127 340h-172l-73 -340h-68l174 815h236q97 0 155 -53.5t58 -145.5q0 -106 -68.5 -179t-171.5 -91
l133 -346h-76zM918 723q106 0 172.5 61t66.5 158q0 63 -43 100t-121 37h-157l-78 -356h160z" />
    <glyph glyph-name="overscore" unicode="&#xaf;" horiz-adv-x="591" 
d="M133 1196l14 72h496l-14 -72h-496z" />
    <glyph glyph-name="degree" unicode="&#xb0;" horiz-adv-x="827" 
d="M535 1348q122 0 200 -79t78 -196q0 -137 -98.5 -240.5t-241.5 -103.5q-122 0 -200 79t-78 196q0 137 98.5 240.5t241.5 103.5zM479 797q105 0 181.5 82.5t76.5 189.5q0 92 -58 151.5t-151 59.5q-105 0 -181.5 -82.5t-76.5 -189.5q0 -92 58 -151.5t151 -59.5z" />
    <glyph glyph-name="plusminus" unicode="&#xb1;" horiz-adv-x="1228" 
d="M553 750v309h74v-309h399v-70h-399v-311h-74v311h-397v70h397zM1026 219v-69h-870v69h870z" />
    <glyph glyph-name="twosuperior" unicode="&#xb2;" horiz-adv-x="698" 
d="M229 1176q-4 28 -4 30q0 104 74 180t197 76q110 0 173.5 -59.5t63.5 -142.5t-55 -147t-146 -103l-159 -70q-133 -56 -160 -164h461l-15 -65h-540q21 97 70.5 168t144.5 112l160 72q80 36 122.5 80.5t42.5 111.5q0 63 -44 104.5t-123 41.5q-86 0 -142.5 -59t-56.5 -146
q0 -16 2 -22z" />
    <glyph glyph-name="threesuperior" unicode="&#xb3;" horiz-adv-x="698" 
d="M367 1157l317 229h-414l13 66h491l-18 -94l-293 -203q92 0 157.5 -55t65.5 -148q0 -106 -79.5 -181t-205.5 -75q-117 0 -189.5 64.5t-72.5 154.5q0 25 2 31l74 17q-2 -14 -2 -33q0 -76 55.5 -123t137.5 -47q84 0 144 57t60 133q0 70 -51 108t-127 38q-27 0 -41 -2z" />
    <glyph glyph-name="acute" unicode="&#xb4;" horiz-adv-x="475" 
d="M133 1094l264 276h129l-317 -276h-76z" />
    <glyph glyph-name="mu" unicode="&#xb5;" horiz-adv-x="1140" 
d="M838 172q-32 -79 -114 -138t-202 -59q-99 0 -173 40t-109 112v-516h-82v1360h82v-596q0 -66 16 -122.5t49 -103t90.5 -73.5t134.5 -27q133 0 217 95t84 229v598h82v-783q0 -86 13 -188h-78q-10 90 -10 150v22z" />
    <glyph glyph-name="paragraph" unicode="&#xb6;" horiz-adv-x="1222" 
d="M1315 1452l-17 -70h-190l-377 -1771h-72l377 1771h-254l-376 -1771h-72l227 1067h-45q-151 0 -247.5 100.5t-96.5 249.5q0 181 139 302.5t359 121.5h645z" />
    <glyph glyph-name="middot" unicode="&#xb7;" horiz-adv-x="450" 
d="M141 571q0 42 25.5 69.5t66.5 27.5q31 0 50.5 -22t19.5 -52q0 -38 -27 -66t-65 -28q-31 0 -50.5 20.5t-19.5 50.5z" />
    <glyph glyph-name="cedilla" unicode="&#xb8;" horiz-adv-x="565" 
d="M25 -131l159 141h82l-153 -131q6 2 30 2q78 0 127 -39.5t49 -97.5q0 -75 -58.5 -121.5t-151.5 -46.5q-80 0 -141 36.5t-91 98.5l55 35q59 -108 181 -108q63 0 100 28.5t37 77.5q0 39 -34.5 64.5t-98.5 25.5q-31 0 -68 -12z" />
    <glyph glyph-name="onesuperior" unicode="&#xb9;" horiz-adv-x="415" 
d="M207 1311q77 10 131 47.5t80 93.5h71l-157 -741h-74l129 608q-26 -26 -83 -50t-109 -24z" />
    <glyph glyph-name="ordmasculine" unicode="&#xba;" horiz-adv-x="880" 
d="M258 930q0 -106 60 -173t167 -67q118 0 207.5 95.5t89.5 254.5q0 109 -63 174.5t-164 65.5q-118 0 -207.5 -95.5t-89.5 -254.5zM557 1346q132 0 216.5 -84.5t84.5 -219.5q0 -92 -32 -171t-84 -132.5t-119 -83.5t-138 -30q-135 0 -218 83.5t-83 219.5q0 92 32 172t84 133
t119 83t138 30z" />
    <glyph glyph-name="guillemotright" unicode="&#xbb;" horiz-adv-x="888" 
d="M592 971l192 -391l-350 -392h-94l360 398l-186 385h78zM283 971l192 -391l-350 -392h-94l360 398l-186 385h78z" />
    <glyph glyph-name="onequarter" unicode="&#xbc;" horiz-adv-x="1552" 
d="M211 1186q77 10 131 47.5t80 93.5h72l-158 -741h-74l129 608q-26 -26 -83 -50t-109 -24zM70 0l1233 1327h92l-1233 -1327h-92zM797 256l473 485h98l-106 -497h141l-12 -66h-142l-39 -178h-73l39 178h-396zM1278 653l-406 -409h316z" />
    <glyph glyph-name="onehalf" unicode="&#xbd;" horiz-adv-x="1626" 
d="M209 1186q77 10 131 47.5t80 93.5h72l-158 -741h-74l129 608q-26 -26 -83 -50t-109 -24zM68 0l1232 1327h93l-1233 -1327h-92zM995 465q-4 28 -4 31q0 104 74 180t197 76q110 0 173.5 -60t63.5 -143t-55 -147t-146 -103l-159 -70q-133 -56 -160 -163h461l-15 -66h-540
q45 208 215 281l160 71q80 36 122.5 81t42.5 112q0 63 -44.5 104t-123.5 41q-86 0 -142 -59t-56 -146q0 -16 2 -22z" />
    <glyph glyph-name="threequarters" unicode="&#xbe;" horiz-adv-x="1738" 
d="M367 1032l317 230h-414l13 65h491l-18 -94l-293 -203q92 0 157.5 -55t65.5 -148q0 -106 -79.5 -181t-205.5 -75q-117 0 -189.5 65t-72.5 155q0 24 2 30l74 17q-2 -14 -2 -33q0 -76 55.5 -123t137.5 -47q84 0 144 57t60 133q0 70 -51 108t-127 38q-27 0 -41 -2zM256 0
l1233 1327h92l-1233 -1327h-92zM983 256l473 485h98l-106 -497h141l-12 -66h-141l-39 -178h-74l39 178h-395zM1464 653l-405 -409h315z" />
    <glyph glyph-name="questiondown" unicode="&#xbf;" horiz-adv-x="958" 
d="M537 610q2 -14 2 -39q0 -120 -51 -194t-154 -137l-103 -62q-110 -66 -167.5 -147t-57.5 -187q0 -113 77 -189.5t222 -76.5q81 0 150 32.5t114 85.5t70 120t25 137q0 7 -1 20.5t-1 20.5l77 -19q2 -6 2 -30q0 -65 -19.5 -129t-58 -120.5t-91 -100t-124 -68.5t-151.5 -25
q-88 0 -160.5 29t-118.5 76.5t-71 107.5t-25 125q0 243 279 406l104 61q88 51 124 116t36 148v39h72zM616 918q0 -42 -24.5 -69.5t-65.5 -27.5q-31 0 -50 21.5t-19 52.5q0 38 26.5 65t63.5 27q30 0 49.5 -19.5t19.5 -49.5z" />
    <glyph glyph-name="Agrave" unicode="&#xc0;" horiz-adv-x="1316" 
d="M971 504h-649l-295 -504h-101l862 1452h105l250 -1452h-86zM369 584h587l-131 778zM901 1575h-70l-126 264h104z" />
    <glyph glyph-name="Aacute" unicode="&#xc1;" horiz-adv-x="1316" 
d="M971 504h-649l-295 -504h-101l862 1452h105l250 -1452h-86zM369 584h587l-131 778zM879 1575h-74l194 264h115z" />
    <glyph glyph-name="Acircumflex" unicode="&#xc2;" horiz-adv-x="1316" 
d="M971 504h-649l-295 -504h-101l862 1452h105l250 -1452h-86zM369 584h587l-131 778zM950 1819l152 -265h-80l-135 218l-217 -218h-86l245 265h121z" />
    <glyph glyph-name="Atilde" unicode="&#xc3;" horiz-adv-x="1316" 
d="M971 504h-649l-295 -504h-101l862 1452h105l250 -1452h-86zM369 584h587l-131 778zM1145 1774q-19 -96 -66.5 -147.5t-103.5 -51.5q-38 0 -67.5 21t-45.5 45.5t-42 45.5t-58 21q-36 0 -60.5 -40t-33.5 -89h-64q21 99 68 148t104 49q31 0 56 -13.5t41.5 -33t32.5 -38.5
t37.5 -32.5t47.5 -13.5q37 0 59.5 39.5t32.5 89.5h62z" />
    <glyph glyph-name="Adieresis" unicode="&#xc4;" horiz-adv-x="1316" 
d="M971 504h-649l-295 -504h-101l862 1452h105l250 -1452h-86zM369 584h587l-131 778zM606 1667q0 36 21.5 59t56.5 23q25 0 41 -19t16 -44q0 -33 -21.5 -55.5t-53.5 -22.5q-28 0 -44 17t-16 42zM993 1667q0 36 21.5 59t56.5 23q25 0 41 -19t16 -44q0 -33 -21.5 -55.5
t-53.5 -22.5q-28 0 -44 17t-16 42z" />
    <glyph glyph-name="Aring" unicode="&#xc5;" horiz-adv-x="1316" 
d="M971 504h-649l-295 -504h-101l836 1409q-94 51 -94 158q0 90 65.5 152.5t149.5 62.5q77 0 125.5 -49.5t48.5 -124.5q0 -72 -44.5 -130t-111.5 -79l242 -1399h-86zM369 584h587l-131 778zM731 1571q0 -51 32 -85t85 -34q60 0 103.5 44.5t43.5 107.5q0 51 -31.5 84.5
t-84.5 33.5q-64 0 -106 -44.5t-42 -106.5z" />
    <glyph glyph-name="AE" unicode="&#xc6;" horiz-adv-x="1961" 
d="M895 0l96 453h-602l-391 -453h-109l1272 1452h860l-16 -80h-731l-129 -604h661l-16 -80h-662l-129 -608h748l-16 -80h-836zM1186 1366l-729 -836h551z" />
    <glyph glyph-name="Ccedilla" unicode="&#xc7;" horiz-adv-x="1482" 
d="M541 -131l123 111q-110 9 -205.5 54.5t-167 122t-113 190.5t-41.5 251q0 141 32 266.5t88 220.5t130 170.5t160 123.5t176.5 73t179.5 25q242 0 393 -129t177 -326l-78 -27q-25 182 -156.5 292t-341.5 110q-94 0 -188 -31.5t-181 -98t-154.5 -158.5t-108 -223.5
t-40.5 -283.5q0 -174 70.5 -300t185 -186.5t256.5 -60.5q190 0 334 100t236 291l67 -43q-90 -193 -258 -308.5t-375 -119.5l-112 -96q6 2 30 2q78 0 127.5 -39.5t49.5 -97.5q0 -75 -59 -121.5t-152 -46.5q-80 0 -141 36.5t-91 98.5l56 35q59 -108 180 -108q63 0 100 28.5
t37 77.5q0 39 -34.5 64.5t-98.5 25.5q-31 0 -68 -12z" />
    <glyph glyph-name="Egrave" unicode="&#xc8;" horiz-adv-x="1155" 
d="M88 0l309 1452h817l-16 -80h-731l-129 -604h661l-16 -80h-661l-129 -608h747l-16 -80h-836zM866 1575h-69l-127 264h104z" />
    <glyph glyph-name="Eacute" unicode="&#xc9;" horiz-adv-x="1155" 
d="M88 0l309 1452h817l-16 -80h-731l-129 -604h661l-16 -80h-661l-129 -608h747l-16 -80h-836zM834 1575h-74l194 264h115z" />
    <glyph glyph-name="Ecircumflex" unicode="&#xca;" horiz-adv-x="1155" 
d="M88 0l309 1452h817l-16 -80h-731l-129 -604h661l-16 -80h-661l-129 -608h747l-16 -80h-836zM911 1819l152 -265h-80l-135 218l-217 -218h-86l246 265h120z" />
    <glyph glyph-name="Edieresis" unicode="&#xcb;" horiz-adv-x="1155" 
d="M88 0l309 1452h817l-16 -80h-731l-129 -604h661l-16 -80h-661l-129 -608h747l-16 -80h-836zM588 1667q0 36 21.5 59t56.5 23q25 0 41 -19t16 -44q0 -32 -22 -55t-54 -23q-28 0 -43.5 17t-15.5 42zM975 1667q0 36 21.5 59t56.5 23q25 0 41 -19t16 -44q0 -32 -22 -55
t-54 -23q-28 0 -43.5 17t-15.5 42z" />
    <glyph glyph-name="Igrave" unicode="&#xcc;" horiz-adv-x="516" 
d="M88 0l309 1452h88l-309 -1452h-88zM504 1575h-70l-127 264h105z" />
    <glyph glyph-name="Iacute" unicode="&#xcd;" horiz-adv-x="516" 
d="M88 0l309 1452h88l-309 -1452h-88zM475 1575h-74l195 264h115z" />
    <glyph glyph-name="Icircumflex" unicode="&#xce;" horiz-adv-x="516" 
d="M88 0l309 1452h88l-309 -1452h-88zM662 1554l-164 193l-238 -193h-86l275 244h116l166 -244h-69z" />
    <glyph glyph-name="Idieresis" unicode="&#xcf;" horiz-adv-x="516" 
d="M88 0l309 1452h88l-309 -1452h-88zM285 1667q0 36 21 59t56 23q25 0 41.5 -19t16.5 -44q0 -32 -22 -55t-54 -23q-28 0 -43.5 17t-15.5 42zM532 1667q0 36 21.5 59t56.5 23q25 0 41.5 -19t16.5 -44q0 -32 -22 -55t-54 -23q-28 0 -44 17t-16 42z" />
    <glyph glyph-name="Eth" unicode="&#xd0;" horiz-adv-x="1417" 
d="M92 0l152 713h-170l14 73h170l143 666h383q164 0 291.5 -64t202 -190t74.5 -297q0 -143 -39.5 -277.5t-115.5 -247t-179 -197t-239 -132t-287 -47.5h-400zM496 78q108 0 215.5 33t207 101.5t176 164.5t122 231.5t45.5 292.5q0 152 -65 260.5t-173 160.5t-248 52h-303
l-125 -588h305l-14 -73h-307l-135 -635h299z" />
    <glyph glyph-name="Ntilde" unicode="&#xd1;" horiz-adv-x="1466" 
d="M1079 1642q96 0 123 132h70q-22 -96 -79 -148.5t-126 -52.5q-68 0 -117 49l-41 39q-28 27 -47 37t-47 10q-47 0 -78 -33.5t-43 -95.5h-67q18 95 73.5 147t126.5 52q69 0 125 -56l39 -36q27 -26 44 -35t44 -9zM1032 0l-571 1339l-283 -1339h-88l307 1452h115l557 -1317
l279 1317h88l-308 -1452h-96z" />
    <glyph glyph-name="Ograve" unicode="&#xd2;" horiz-adv-x="1570" 
d="M733 55q94 0 188 31.5t181 98t154.5 158.5t108 223.5t40.5 283.5q0 134 -40.5 240.5t-110.5 172.5t-161 100t-196 34q-94 0 -188 -31.5t-181 -98t-154.5 -158.5t-108 -223.5t-40.5 -283.5q0 -134 40.5 -240.5t110.5 -172.5t161 -100t196 -34zM727 -25q-121 0 -227 40.5
t-187.5 116.5t-128.5 196.5t-47 269.5q0 141 32 266.5t88 220.5t130 170.5t160 123.5t176.5 73t179.5 25q121 0 227 -41t187.5 -117.5t128.5 -196.5t47 -268q0 -141 -32 -266.5t-88 -220.5t-130 -170.5t-160 -123.5t-176.5 -73t-179.5 -25zM963 1575h-70l-127 264h104z" />
    <glyph glyph-name="Oacute" unicode="&#xd3;" horiz-adv-x="1570" 
d="M733 55q94 0 188 31.5t181 98t154.5 158.5t108 223.5t40.5 283.5q0 134 -40.5 240.5t-110.5 172.5t-161 100t-196 34q-94 0 -188 -31.5t-181 -98t-154.5 -158.5t-108 -223.5t-40.5 -283.5q0 -134 40.5 -240.5t110.5 -172.5t161 -100t196 -34zM727 -25q-121 0 -227 40.5
t-187.5 116.5t-128.5 196.5t-47 269.5q0 141 32 266.5t88 220.5t130 170.5t160 123.5t176.5 73t179.5 25q121 0 227 -41t187.5 -117.5t128.5 -196.5t47 -268q0 -141 -32 -266.5t-88 -220.5t-130 -170.5t-160 -123.5t-176.5 -73t-179.5 -25zM977 1575h-74l195 264h114z" />
    <glyph glyph-name="Ocircumflex" unicode="&#xd4;" horiz-adv-x="1570" 
d="M733 55q94 0 188 31.5t181 98t154.5 158.5t108 223.5t40.5 283.5q0 134 -40.5 240.5t-110.5 172.5t-161 100t-196 34q-94 0 -188 -31.5t-181 -98t-154.5 -158.5t-108 -223.5t-40.5 -283.5q0 -134 40.5 -240.5t110.5 -172.5t161 -100t196 -34zM727 -25q-121 0 -227 40.5
t-187.5 116.5t-128.5 196.5t-47 269.5q0 141 32 266.5t88 220.5t130 170.5t160 123.5t176.5 73t179.5 25q121 0 227 -41t187.5 -117.5t128.5 -196.5t47 -268q0 -141 -32 -266.5t-88 -220.5t-130 -170.5t-160 -123.5t-176.5 -73t-179.5 -25zM1057 1819l151 -265h-80l-135 218
l-217 -218h-86l246 265h121z" />
    <glyph glyph-name="Otilde" unicode="&#xd5;" horiz-adv-x="1570" 
d="M733 55q94 0 188 31.5t181 98t154.5 158.5t108 223.5t40.5 283.5q0 134 -40.5 240.5t-110.5 172.5t-161 100t-196 34q-94 0 -188 -31.5t-181 -98t-154.5 -158.5t-108 -223.5t-40.5 -283.5q0 -134 40.5 -240.5t110.5 -172.5t161 -100t196 -34zM727 -25q-121 0 -227 40.5
t-187.5 116.5t-128.5 196.5t-47 269.5q0 141 32 266.5t88 220.5t130 170.5t160 123.5t176.5 73t179.5 25q121 0 227 -41t187.5 -117.5t128.5 -196.5t47 -268q0 -141 -32 -266.5t-88 -220.5t-130 -170.5t-160 -123.5t-176.5 -73t-179.5 -25zM1239 1774q-19 -96 -66.5 -147.5
t-103.5 -51.5q-38 0 -67.5 21t-45.5 45.5t-42 45.5t-58 21q-36 0 -60.5 -40t-33.5 -89h-64q21 99 68 148t104 49q31 0 56 -13.5t41.5 -33t32.5 -38.5t37.5 -32.5t47.5 -13.5q37 0 60 39.5t33 89.5h61z" />
    <glyph glyph-name="Odieresis" unicode="&#xd6;" horiz-adv-x="1570" 
d="M602 1667q0 36 21.5 59t56.5 23q25 0 41 -19t16 -44q0 -33 -21.5 -55.5t-53.5 -22.5q-28 0 -44 17t-16 42zM1194 1667q0 36 21.5 59t56.5 23q25 0 41 -19t16 -44q0 -32 -22 -55t-54 -23q-28 0 -43.5 17t-15.5 42zM733 55q94 0 188 31.5t181 98t154.5 158.5t108 223.5
t40.5 283.5q0 134 -40.5 240.5t-110.5 172.5t-161 100t-196 34q-94 0 -188 -31.5t-181 -98t-154.5 -158.5t-108 -223.5t-40.5 -283.5q0 -134 40.5 -240.5t110.5 -172.5t161 -100t196 -34zM727 -25q-121 0 -227 40.5t-187.5 116.5t-128.5 196.5t-47 269.5q0 141 32 266.5
t88 220.5t130 170.5t160 123.5t176.5 73t179.5 25q121 0 227 -41t187.5 -117.5t128.5 -196.5t47 -268q0 -141 -32 -266.5t-88 -220.5t-130 -170.5t-160 -123.5t-176.5 -73t-179.5 -25z" />
    <glyph glyph-name="multiply" unicode="&#xd7;" horiz-adv-x="1153" 
d="M567 537l-374 -390l-50 50l375 391l-375 391l50 51l376 -391l377 391l49 -49l-379 -393l379 -391l-49 -52z" />
    <glyph glyph-name="Oslash" unicode="&#xd8;" horiz-adv-x="1570" 
d="M727 -25q-265 0 -428 172l-172 -174l-49 47l176 179q-117 158 -117 399q0 141 32 266.5t88 220.5t130 170.5t160 123.5t176.5 73t179.5 25q130 0 242.5 -46.5t193.5 -136.5l187 189l49 -47l-193 -195q111 -154 111 -387q0 -141 -32 -266.5t-88 -220.5t-130 -170.5
t-160 -123.5t-176.5 -73t-179.5 -25zM225 602q0 -201 90 -340l965 973q-143 162 -383 162q-94 0 -188 -31.5t-181 -98t-154.5 -158.5t-108 -223.5t-40.5 -283.5zM733 55q94 0 188 31.5t181 98t154.5 158.5t108 223.5t40.5 283.5q0 200 -84 328l-963 -971q134 -152 375 -152z
" />
    <glyph glyph-name="Ugrave" unicode="&#xd9;" horiz-adv-x="1349" 
d="M1335 1452l-219 -1028q-47 -222 -176.5 -335.5t-331.5 -113.5q-211 0 -324.5 112.5t-113.5 307.5q0 91 16 154l193 903h88l-193 -907q-16 -82 -16 -142q0 -161 89 -254.5t267 -93.5q169 0 274 98.5t144 284.5l215 1014h88zM913 1575h-69l-127 264h104z" />
    <glyph glyph-name="Uacute" unicode="&#xda;" horiz-adv-x="1349" 
d="M1335 1452l-219 -1028q-47 -222 -176.5 -335.5t-331.5 -113.5q-211 0 -324.5 112.5t-113.5 307.5q0 91 16 154l193 903h88l-193 -907q-16 -82 -16 -142q0 -161 89 -254.5t267 -93.5q169 0 274 98.5t144 284.5l215 1014h88zM874 1575h-73l194 264h115z" />
    <glyph glyph-name="Ucircumflex" unicode="&#xdb;" horiz-adv-x="1349" 
d="M1077 1554l-164 193l-237 -193h-86l274 244h117l166 -244h-70zM1335 1452l-219 -1028q-47 -222 -176.5 -335.5t-331.5 -113.5q-211 0 -324.5 112.5t-113.5 307.5q0 91 16 154l193 903h88l-193 -907q-16 -82 -16 -142q0 -161 89 -254.5t267 -93.5q169 0 274 98.5
t144 284.5l215 1014h88z" />
    <glyph glyph-name="Udieresis" unicode="&#xdc;" horiz-adv-x="1349" 
d="M1335 1452l-219 -1028q-47 -222 -176.5 -335.5t-331.5 -113.5q-211 0 -324.5 112.5t-113.5 307.5q0 91 16 154l193 903h88l-193 -907q-16 -82 -16 -142q0 -161 89 -254.5t267 -93.5q169 0 274 98.5t144 284.5l215 1014h88zM618 1667q0 36 21.5 59t56.5 23q25 0 41.5 -19
t16.5 -44q0 -32 -22 -55t-54 -23q-28 0 -44 17t-16 42zM1006 1667q0 36 21 59t56 23q25 0 41.5 -19t16.5 -44q0 -32 -22 -55t-54 -23q-28 0 -43.5 17t-15.5 42z" />
    <glyph glyph-name="Yacute" unicode="&#xdd;" horiz-adv-x="1177" 
d="M246 1452h92l280 -737l564 737h102l-641 -821l-135 -631h-86l139 643zM774 1575h-74l195 264h115z" />
    <glyph glyph-name="Thorn" unicode="&#xde;" horiz-adv-x="1175" 
d="M244 317l-68 -317h-88l309 1452h88l-65 -309h356q167 0 267 -94t100 -238q0 -140 -71 -253.5t-194 -177t-274 -63.5h-360zM604 397q193 0 321 116t128 294q0 119 -78 187.5t-223 68.5h-349l-143 -666h344z" />
    <glyph glyph-name="germandbls" unicode="&#xdf;" horiz-adv-x="1079" 
d="M401 293q-6 -21 -6 -43q0 -84 53 -146.5t164 -62.5q74 0 131.5 40t84 94.5t26.5 109.5q0 121 -117 204l-73 54q-78 56 -78 135q0 101 123 166l96 51q164 88 164 260q0 101 -74 173.5t-197 72.5q-128 0 -222 -94.5t-130 -270.5l-219 -1036h-84l221 1044q43 207 161 320
t277 113q161 0 256 -90t95 -222q0 -122 -62.5 -207.5t-146.5 -130.5l-99 -49q-35 -21 -54 -43t-19 -55q0 -22 14.5 -40t46.5 -42l72 -53q133 -102 133 -252q0 -57 -23 -114.5t-64 -105.5t-105.5 -78t-141.5 -30q-74 0 -131.5 24.5t-90 65t-49 86t-16.5 92.5q0 8 5 48z" />
    <glyph glyph-name="agrave" unicode="&#xe0;" horiz-adv-x="1140" 
d="M856 451q14 72 14 124q0 153 -80.5 250t-224.5 97q-108 0 -203 -66.5t-153.5 -187.5t-58.5 -267q0 -155 82 -254.5t227 -99.5q142 0 251 113.5t146 290.5zM809 184q-150 -209 -360 -209q-172 0 -274.5 119.5t-102.5 292.5q0 129 40.5 243t108 193.5t158 125.5t188.5 46
q73 0 132.5 -20t95.5 -49t62.5 -68t38 -71t17.5 -64l54 248h82l-148 -692q-20 -103 -20 -189q0 -65 2 -90h-78q-4 46 -4 76q0 53 8 108zM666 1137h-70l-127 264h104z" />
    <glyph glyph-name="aacute" unicode="&#xe1;" horiz-adv-x="1140" 
d="M856 451q14 72 14 124q0 153 -80.5 250t-224.5 97q-108 0 -203 -66.5t-153.5 -187.5t-58.5 -267q0 -155 82 -254.5t227 -99.5q142 0 251 113.5t146 290.5zM809 184q-150 -209 -360 -209q-172 0 -274.5 119.5t-102.5 292.5q0 129 40.5 243t108 193.5t158 125.5t188.5 46
q73 0 132.5 -20t95.5 -49t62.5 -68t38 -71t17.5 -64l54 248h82l-148 -692q-20 -103 -20 -189q0 -65 2 -90h-78q-4 46 -4 76q0 53 8 108zM672 1137h-74l195 264h114z" />
    <glyph glyph-name="acircumflex" unicode="&#xe2;" horiz-adv-x="1140" 
d="M856 451q14 72 14 124q0 153 -80.5 250t-224.5 97q-108 0 -203 -66.5t-153.5 -187.5t-58.5 -267q0 -155 82 -254.5t227 -99.5q142 0 251 113.5t146 290.5zM809 184q-150 -209 -360 -209q-172 0 -274.5 119.5t-102.5 292.5q0 129 40.5 243t108 193.5t158 125.5t188.5 46
q73 0 132.5 -20t95.5 -49t62.5 -68t38 -71t17.5 -64l54 248h82l-148 -692q-20 -103 -20 -189q0 -65 2 -90h-78q-4 46 -4 76q0 53 8 108zM756 1380l151 -264h-80l-135 217l-217 -217h-86l246 264h121z" />
    <glyph glyph-name="atilde" unicode="&#xe3;" horiz-adv-x="1140" 
d="M856 451q14 72 14 124q0 153 -80.5 250t-224.5 97q-108 0 -203 -66.5t-153.5 -187.5t-58.5 -267q0 -155 82 -254.5t227 -99.5q142 0 251 113.5t146 290.5zM809 184q-150 -209 -360 -209q-172 0 -274.5 119.5t-102.5 292.5q0 129 40.5 243t108 193.5t158 125.5t188.5 46
q73 0 132.5 -20t95.5 -49t62.5 -68t38 -71t17.5 -64l54 248h82l-148 -692q-20 -103 -20 -189q0 -65 2 -90h-78q-4 46 -4 76q0 53 8 108zM944 1335q-19 -96 -66.5 -147t-103.5 -51q-38 0 -67.5 21t-45.5 45.5t-42 45.5t-58 21q-36 0 -60.5 -40t-33.5 -89h-64q21 98 68 147
t104 49q31 0 56 -13.5t42 -32.5t32.5 -38.5t37.5 -33t48 -13.5q37 0 59.5 39.5t32.5 89.5h61z" />
    <glyph glyph-name="adieresis" unicode="&#xe4;" horiz-adv-x="1140" 
d="M856 451q14 72 14 124q0 153 -80.5 250t-224.5 97q-108 0 -203 -66.5t-153.5 -187.5t-58.5 -267q0 -155 82 -254.5t227 -99.5q142 0 251 113.5t146 290.5zM809 184q-150 -209 -360 -209q-172 0 -274.5 119.5t-102.5 292.5q0 129 40.5 243t108 193.5t158 125.5t188.5 46
q73 0 132.5 -20t95.5 -49t62.5 -68t38 -71t17.5 -64l54 248h82l-148 -692q-20 -103 -20 -189q0 -65 2 -90h-78q-4 46 -4 76q0 53 8 108zM434 1229q0 36 21.5 59t56.5 23q25 0 41 -19.5t16 -44.5q0 -33 -21.5 -55.5t-53.5 -22.5q-28 0 -44 17.5t-16 42.5zM762 1229
q0 36 21.5 59t56.5 23q25 0 41 -19.5t16 -44.5q0 -32 -22 -55t-54 -23q-28 0 -43.5 17.5t-15.5 42.5z" />
    <glyph glyph-name="aring" unicode="&#xe5;" horiz-adv-x="1140" 
d="M856 451q14 72 14 124q0 153 -80.5 250t-224.5 97q-108 0 -203 -66.5t-153.5 -187.5t-58.5 -267q0 -155 82 -254.5t227 -99.5q142 0 251 113.5t146 290.5zM809 184q-150 -209 -360 -209q-172 0 -274.5 119.5t-102.5 292.5q0 129 40.5 243t108 193.5t158 125.5t188.5 46
q73 0 132.5 -20t95.5 -49t62.5 -68t38 -71t17.5 -64l54 248h82l-148 -692q-20 -103 -20 -189q0 -65 2 -90h-78q-4 46 -4 76q0 53 8 108zM676 1499q81 0 132.5 -52.5t51.5 -131.5q0 -94 -68 -163t-159 -69q-83 0 -135 53.5t-52 133.5q0 96 69.5 162.5t160.5 66.5zM512 1274
q0 -55 34 -91t93 -36q62 0 110 48.5t48 115.5q0 55 -34 91t-93 36q-67 0 -112.5 -49.5t-45.5 -114.5z" />
    <glyph glyph-name="ae" unicode="&#xe6;" horiz-adv-x="1746" 
d="M825 479q-4 -18 -4 -80q0 -157 95.5 -254.5t244.5 -97.5q113 0 206.5 64t148.5 163l65 -43q-65 -116 -178 -187t-250 -71q-147 0 -252.5 76.5t-142.5 212.5q-11 -26 -25 -51q-56 -106 -159 -171t-230 -65q-153 0 -236 74t-83 178q0 136 97 213.5t245 85.5l278 15
q43 2 71 16t40.5 37.5t17 46.5t4.5 55q0 99 -67.5 158t-192.5 59q-110 0 -192 -60t-117 -165l-74 25q43 127 146 199.5t239 72.5q144 0 226 -59.5t104 -157.5q73 108 180 167.5t223 59.5q189 0 291.5 -111.5t102.5 -283.5q0 -54 -13 -121h-809zM1251 922q-145 0 -256.5 -106
t-154.5 -265h719q4 28 4 47q0 142 -81.5 233t-230.5 91zM109 233q0 -86 71 -136t170 -50q129 0 231 83t130 212l34 160v4q-32 -32 -108 -35l-283 -14q-105 -5 -175 -64t-70 -160z" />
    <glyph glyph-name="ccedilla" unicode="&#xe7;" horiz-adv-x="1064" 
d="M293 -131l125 113q-158 25 -252 141t-94 285q0 125 44.5 236t117.5 187t169 120t197 44q162 0 259 -85t124 -212l-74 -28q-24 114 -106.5 183t-208.5 69q-82 0 -160.5 -37t-140.5 -102.5t-99.5 -163t-37.5 -209.5q0 -161 94 -261t248 -100q122 0 215.5 69.5t150.5 186.5
l64 -35q-63 -136 -176 -215t-258 -80l-113 -96q6 2 31 2q78 0 127 -39.5t49 -97.5q0 -75 -59 -121.5t-152 -46.5q-80 0 -141 36.5t-91 98.5l56 35q59 -108 180 -108q63 0 100 28.5t37 77.5q0 39 -34.5 64.5t-98.5 25.5q-31 0 -68 -12z" />
    <glyph glyph-name="egrave" unicode="&#xe8;" horiz-adv-x="1075" 
d="M156 479q-4 -18 -4 -80q0 -158 95 -254t245 -96q113 0 206 64t148 163l65 -43q-65 -116 -178 -187t-250 -71q-181 0 -296 116t-115 310q0 130 44.5 243.5t117 189t164 118.5t186.5 43q188 0 289.5 -111.5t101.5 -283.5q0 -60 -12 -121h-807zM582 922q-145 0 -257 -106
t-155 -265h719q4 28 4 47q0 142 -81 233t-230 91zM649 1137h-69l-127 264h104z" />
    <glyph glyph-name="eacute" unicode="&#xe9;" horiz-adv-x="1075" 
d="M156 479q-4 -18 -4 -80q0 -158 95 -254t245 -96q113 0 206 64t148 163l65 -43q-65 -116 -178 -187t-250 -71q-181 0 -296 116t-115 310q0 130 44.5 243.5t117 189t164 118.5t186.5 43q188 0 289.5 -111.5t101.5 -283.5q0 -60 -12 -121h-807zM582 922q-145 0 -257 -106
t-155 -265h719q4 28 4 47q0 142 -81 233t-230 91zM657 1137h-73l194 264h115z" />
    <glyph glyph-name="ecircumflex" unicode="&#xea;" horiz-adv-x="1075" 
d="M156 479q-4 -18 -4 -80q0 -158 95 -254t245 -96q113 0 206 64t148 163l65 -43q-65 -116 -178 -187t-250 -71q-181 0 -296 116t-115 310q0 130 44.5 243.5t117 189t164 118.5t186.5 43q188 0 289.5 -111.5t101.5 -283.5q0 -60 -12 -121h-807zM582 922q-145 0 -257 -106
t-155 -265h719q4 28 4 47q0 142 -81 233t-230 91zM737 1380l152 -264h-80l-135 217l-217 -217h-86l245 264h121z" />
    <glyph glyph-name="edieresis" unicode="&#xeb;" horiz-adv-x="1075" 
d="M436 1229q0 36 21.5 59t56.5 23q25 0 41 -19.5t16 -44.5q0 -33 -21.5 -55.5t-53.5 -22.5q-28 0 -44 17.5t-16 42.5zM764 1229q0 36 21.5 59t56.5 23q25 0 41 -19.5t16 -44.5q0 -32 -22 -55t-54 -23q-28 0 -43.5 17.5t-15.5 42.5zM156 479q-4 -18 -4 -80q0 -158 95 -254
t245 -96q113 0 206 64t148 163l65 -43q-65 -116 -178 -187t-250 -71q-181 0 -296 116t-115 310q0 130 44.5 243.5t117 189t164 118.5t186.5 43q188 0 289.5 -111.5t101.5 -283.5q0 -60 -12 -121h-807zM582 922q-145 0 -257 -106t-155 -265h719q4 28 4 47q0 142 -81 233
t-230 91z" />
    <glyph glyph-name="igrave" unicode="&#xec;" horiz-adv-x="417" 
d="M43 0l207 971h82l-207 -971h-82zM358 1137h-69l-127 264h104z" />
    <glyph glyph-name="iacute" unicode="&#xed;" horiz-adv-x="417" 
d="M43 0l207 971h82l-207 -971h-82zM326 1137h-74l194 264h115z" />
    <glyph glyph-name="icircumflex" unicode="&#xee;" horiz-adv-x="417" 
d="M367 1319l-256 -225h-82l288 276h115l166 -276h-63zM43 0l207 971h82l-207 -971h-82z" />
    <glyph glyph-name="idieresis" unicode="&#xef;" horiz-adv-x="417" 
d="M43 0l207 971h82l-207 -971h-82zM152 1229q0 36 21 59t56 23q25 0 41.5 -19.5t16.5 -44.5q0 -32 -22 -55t-54 -23q-28 0 -43.5 17.5t-15.5 42.5zM389 1229q0 36 21.5 59t56.5 23q25 0 41 -19.5t16 -44.5q0 -33 -21.5 -55.5t-53.5 -22.5q-28 0 -44 17.5t-16 42.5z" />
    <glyph glyph-name="eth" unicode="&#xf0;" horiz-adv-x="1138" 
d="M1067 1352l25 -60l-220 -84q154 -226 154 -518q0 -204 -62 -365t-182.5 -255.5t-281.5 -94.5q-184 0 -307 119.5t-123 296.5q0 102 29.5 191t79.5 152.5t115 110t137 69t144 22.5q130 0 228 -58.5t139 -177.5q-12 284 -156 478l-280 -105l-23 62l258 96
q-110 116 -268 184l41 64q209 -91 313 -217zM498 49q176 0 300 140.5t124 345.5q0 145 -96.5 238t-245.5 93q-79 0 -154.5 -32.5t-137 -90.5t-99 -149.5t-37.5 -200.5q0 -149 103 -246.5t243 -97.5z" />
    <glyph glyph-name="ntilde" unicode="&#xf1;" horiz-adv-x="1060" 
d="M700 0l121 567q15 71 15 119q0 109 -61.5 173.5t-184.5 64.5q-116 0 -213.5 -97t-126.5 -239l-125 -588h-82l172 809q21 100 21 162h79q0 -77 -18 -158q41 73 126 127.5t187 54.5q145 0 226.5 -82.5t81.5 -216.5q0 -54 -15 -125l-121 -571h-82zM801 1196q96 0 123 131h69
q-23 -97 -77.5 -149t-122.5 -52q-64 0 -117 50l-41 38q-28 27 -48.5 37.5t-49.5 10.5q-47 0 -78 -33.5t-43 -95.5h-72q18 95 73.5 146.5t129.5 51.5q70 0 125 -55l39 -37q24 -24 43 -33.5t47 -9.5z" />
    <glyph glyph-name="ograve" unicode="&#xf2;" horiz-adv-x="1105" 
d="M586 922q-75 0 -150.5 -35t-139 -98t-103 -163t-39.5 -218q0 -161 91 -260t232 -99q60 0 120.5 22t116.5 66.5t99.5 105t69.5 145t26 179.5q0 162 -90.5 258.5t-232.5 96.5zM471 -25q-175 0 -286 118t-111 306q0 134 45 248.5t119 189t166 116.5t188 42
q178 0 287.5 -117.5t109.5 -306.5q0 -134 -45 -248.5t-118.5 -189.5t-165.5 -116.5t-189 -41.5zM662 1137h-70l-127 264h104z" />
    <glyph glyph-name="oacute" unicode="&#xf3;" horiz-adv-x="1105" 
d="M586 922q-75 0 -150.5 -35t-139 -98t-103 -163t-39.5 -218q0 -161 91 -260t232 -99q60 0 120.5 22t116.5 66.5t99.5 105t69.5 145t26 179.5q0 162 -90.5 258.5t-232.5 96.5zM471 -25q-175 0 -286 118t-111 306q0 134 45 248.5t119 189t166 116.5t188 42
q178 0 287.5 -117.5t109.5 -306.5q0 -134 -45 -248.5t-118.5 -189.5t-165.5 -116.5t-189 -41.5zM684 1137h-74l195 264h115z" />
    <glyph glyph-name="ocircumflex" unicode="&#xf4;" horiz-adv-x="1105" 
d="M586 922q-75 0 -150.5 -35t-139 -98t-103 -163t-39.5 -218q0 -161 91 -260t232 -99q60 0 120.5 22t116.5 66.5t99.5 105t69.5 145t26 179.5q0 162 -90.5 258.5t-232.5 96.5zM471 -25q-175 0 -286 118t-111 306q0 134 45 248.5t119 189t166 116.5t188 42
q178 0 287.5 -117.5t109.5 -306.5q0 -134 -45 -248.5t-118.5 -189.5t-165.5 -116.5t-189 -41.5zM748 1380l151 -264h-80l-135 217l-217 -217h-86l246 264h121z" />
    <glyph glyph-name="otilde" unicode="&#xf5;" horiz-adv-x="1105" 
d="M586 922q-75 0 -150.5 -35t-139 -98t-103 -163t-39.5 -218q0 -161 91 -260t232 -99q60 0 120.5 22t116.5 66.5t99.5 105t69.5 145t26 179.5q0 162 -90.5 258.5t-232.5 96.5zM471 -25q-175 0 -286 118t-111 306q0 134 45 248.5t119 189t166 116.5t188 42
q178 0 287.5 -117.5t109.5 -306.5q0 -134 -45 -248.5t-118.5 -189.5t-165.5 -116.5t-189 -41.5zM934 1335q-19 -96 -66.5 -147t-103.5 -51q-38 0 -67.5 21t-45.5 45.5t-42 45.5t-58 21q-36 0 -60.5 -40t-33.5 -89h-64q21 98 68 147t104 49q31 0 56 -13.5t41.5 -32.5
t32.5 -38.5t37.5 -33t47.5 -13.5q37 0 59.5 39.5t32.5 89.5h62z" />
    <glyph glyph-name="odieresis" unicode="&#xf6;" horiz-adv-x="1105" 
d="M436 1229q0 36 21.5 59t56.5 23q25 0 41 -19.5t16 -44.5q0 -33 -21.5 -55.5t-53.5 -22.5q-28 0 -44 17.5t-16 42.5zM764 1229q0 36 21.5 59t56.5 23q25 0 41 -19.5t16 -44.5q0 -32 -22 -55t-54 -23q-28 0 -43.5 17.5t-15.5 42.5zM586 922q-75 0 -150.5 -35t-139 -98
t-103 -163t-39.5 -218q0 -161 91 -260t232 -99q60 0 120.5 22t116.5 66.5t99.5 105t69.5 145t26 179.5q0 162 -90.5 258.5t-232.5 96.5zM471 -25q-175 0 -286 118t-111 306q0 134 45 248.5t119 189t166 116.5t188 42q178 0 287.5 -117.5t109.5 -306.5q0 -134 -45 -248.5
t-118.5 -189.5t-165.5 -116.5t-189 -41.5z" />
    <glyph glyph-name="divide" unicode="&#xf7;" horiz-adv-x="1196" 
d="M518 223q0 32 23.5 55t54.5 23q32 0 55 -23t23 -55q0 -31 -23 -53.5t-55 -22.5q-31 0 -54.5 22.5t-23.5 53.5zM518 952q0 32 23.5 55t54.5 23q32 0 55 -23t23 -55q0 -31 -23 -54.5t-55 -23.5q-31 0 -54.5 23.5t-23.5 54.5zM156 627h884v-74h-884v74z" />
    <glyph glyph-name="oslash" unicode="&#xf8;" horiz-adv-x="1105" 
d="M471 -25q-180 0 -291 123l-119 -114l-45 51l123 119q-65 103 -65 245q0 134 45 248.5t119 189t166 116.5t188 42q180 0 291 -123l116 113l45 -51l-120 -117q65 -108 65 -246q0 -134 -45 -248.5t-118.5 -189.5t-165.5 -116.5t-189 -41.5zM586 922q-75 0 -150.5 -35
t-139 -98t-103 -163t-39.5 -218q0 -114 45 -197l626 606q-91 105 -239 105zM909 567q0 113 -45 193l-626 -606q94 -105 239 -105q60 0 120.5 22t116.5 66.5t99.5 105t69.5 145t26 179.5z" />
    <glyph glyph-name="ugrave" unicode="&#xf9;" horiz-adv-x="1054" 
d="M317 971l-120 -568q-15 -71 -15 -118q0 -110 60 -174t182 -64q118 0 213 100t127 256l121 568h82l-172 -809q-17 -81 -17 -162h-78q0 102 17 164q-42 -76 -125 -132.5t-189 -56.5q-144 0 -223.5 82.5t-79.5 216.5q0 54 15 125l121 572h81zM653 1137h-69l-127 264h104z
" />
    <glyph glyph-name="uacute" unicode="&#xfa;" horiz-adv-x="1054" 
d="M317 971l-120 -568q-15 -71 -15 -118q0 -110 60 -174t182 -64q118 0 213 100t127 256l121 568h82l-172 -809q-17 -81 -17 -162h-78q0 102 17 164q-42 -76 -125 -132.5t-189 -56.5q-144 0 -223.5 82.5t-79.5 216.5q0 54 15 125l121 572h81zM643 1137h-74l195 264h115z" />
    <glyph glyph-name="ucircumflex" unicode="&#xfb;" horiz-adv-x="1054" 
d="M670 1319l-256 -225h-82l289 276h114l166 -276h-63zM317 971l-120 -568q-15 -71 -15 -118q0 -110 60 -174t182 -64q118 0 213 100t127 256l121 568h82l-172 -809q-17 -81 -17 -162h-78q0 102 17 164q-42 -76 -125 -132.5t-189 -56.5q-144 0 -223.5 82.5t-79.5 216.5
q0 54 15 125l121 572h81z" />
    <glyph glyph-name="udieresis" unicode="&#xfc;" horiz-adv-x="1054" 
d="M426 1229q0 36 21.5 59t56.5 23q25 0 41 -19.5t16 -44.5q0 -32 -22 -55t-54 -23q-28 0 -43.5 17.5t-15.5 42.5zM754 1229q0 36 21 59t56 23q25 0 41.5 -19.5t16.5 -44.5q0 -32 -22 -55t-54 -23q-28 0 -43.5 17.5t-15.5 42.5zM317 971l-120 -568q-15 -71 -15 -118
q0 -110 60 -174t182 -64q118 0 213 100t127 256l121 568h82l-172 -809q-17 -81 -17 -162h-78q0 102 17 164q-42 -76 -125 -132.5t-189 -56.5q-144 0 -223.5 82.5t-79.5 216.5q0 54 15 125l121 572h81z" />
    <glyph glyph-name="yacute" unicode="&#xfd;" horiz-adv-x="966" 
d="M10 -389l361 532l-242 828h86l211 -752l492 752h96l-910 -1360h-94zM582 1137h-74l194 264h115z" />
    <glyph glyph-name="thorn" unicode="&#xfe;" horiz-adv-x="1132" 
d="M297 813q50 75 142 128.5t208 53.5q174 0 272.5 -114t98.5 -291q0 -170 -68 -312t-181.5 -222.5t-246.5 -80.5q-81 0 -146.5 27t-105 70t-62 84.5t-32.5 83.5l-133 -629h-82l395 1866h82zM631 924q-91 0 -170 -48.5t-131 -125t-81.5 -169.5t-29.5 -184q0 -156 78.5 -252
t220.5 -96q82 0 159 41.5t134 111.5t91 168t34 205q0 153 -81.5 251t-223.5 98z" />
    <glyph glyph-name="ydieresis" unicode="&#xff;" horiz-adv-x="966" 
d="M10 -389l361 532l-242 828h86l211 -752l492 752h96l-910 -1360h-94zM362 1229q0 36 21.5 59t56.5 23q25 0 41.5 -19.5t16.5 -44.5q0 -32 -22 -55t-54 -23q-28 0 -44 17.5t-16 42.5zM690 1229q0 36 21.5 59t56.5 23q25 0 41 -19.5t16 -44.5q0 -33 -21.5 -55.5t-53.5 -22.5
q-28 0 -44 17.5t-16 42.5z" />
    <glyph glyph-name="Amacron" unicode="&#x100;" horiz-adv-x="1316" 
d="M971 504h-649l-295 -504h-101l862 1452h105l250 -1452h-86zM369 584h587l-131 778zM606 1640l15 74h509l-14 -74h-510z" />
    <glyph glyph-name="amacron" unicode="&#x101;" horiz-adv-x="1140" 
d="M856 451q14 72 14 124q0 153 -80.5 250t-224.5 97q-108 0 -203 -66.5t-153.5 -187.5t-58.5 -267q0 -155 82 -254.5t227 -99.5q142 0 251 113.5t146 290.5zM809 184q-150 -209 -360 -209q-172 0 -274.5 119.5t-102.5 292.5q0 129 40.5 243t108 193.5t158 125.5t188.5 46
q73 0 132.5 -20t95.5 -49t62.5 -68t38 -71t17.5 -64l54 248h82l-148 -692q-20 -103 -20 -189q0 -65 2 -90h-78q-4 46 -4 76q0 53 8 108zM420 1196l14 72h496l-15 -72h-495z" />
    <glyph glyph-name="Abreve" unicode="&#x102;" horiz-adv-x="1316" 
d="M971 504h-649l-295 -504h-101l862 1452h105l250 -1452h-86zM369 584h587l-131 778zM854 1554q-113 0 -165.5 63t-33.5 179h68q-11 -79 22.5 -126.5t122.5 -47.5q88 0 140 47.5t71 126.5h70q-28 -118 -103.5 -180t-191.5 -62z" />
    <glyph glyph-name="abreve" unicode="&#x103;" horiz-adv-x="1140" 
d="M856 451q14 72 14 124q0 153 -80.5 250t-224.5 97q-108 0 -203 -66.5t-153.5 -187.5t-58.5 -267q0 -155 82 -254.5t227 -99.5q142 0 251 113.5t146 290.5zM809 184q-150 -209 -360 -209q-172 0 -274.5 119.5t-102.5 292.5q0 129 40.5 243t108 193.5t158 125.5t188.5 46
q73 0 132.5 -20t95.5 -49t62.5 -68t38 -71t17.5 -64l54 248h82l-148 -692q-20 -103 -20 -189q0 -65 2 -90h-78q-4 46 -4 76q0 53 8 108zM635 1116q-113 0 -165.5 63t-33.5 179h68q-11 -79 22.5 -126.5t122.5 -47.5q88 0 140 47.5t71 126.5h70q-28 -118 -103.5 -180
t-191.5 -62z" />
    <glyph glyph-name="Aogonek" unicode="&#x104;" horiz-adv-x="1316" 
d="M1143 0q-81 -39 -149 -110.5t-68 -151.5q0 -46 31.5 -70t82.5 -24q36 0 78 10l-14 -62q-47 -14 -88 -14q-74 0 -120 38.5t-46 104.5q0 86 62 163.5t143 121.5l-84 498h-649l-295 -504h-101l862 1452h105zM369 584h587l-131 778z" />
    <glyph glyph-name="aogonek" unicode="&#x105;" horiz-adv-x="1140" 
d="M809 184q-150 -209 -360 -209q-172 0 -274.5 119.5t-102.5 292.5q0 129 40.5 243t108 193.5t158 125.5t188.5 46q73 0 132.5 -20t95.5 -49t62.5 -68t38 -71t17.5 -64l54 248h82l-148 -692q-20 -103 -20 -189q0 -65 2 -90q-81 -39 -149 -110.5t-68 -151.5q0 -46 31.5 -70
t82.5 -24q36 0 78 10l-14 -62q-47 -14 -88 -14q-74 0 -120 38.5t-46 104.5q0 91 64.5 169t148.5 120q-2 16 -2 66q0 53 8 108zM856 451q14 72 14 124q0 153 -80.5 250t-224.5 97q-108 0 -203 -66.5t-153.5 -187.5t-58.5 -267q0 -155 82 -254.5t227 -99.5q142 0 251 113.5
t146 290.5z" />
    <glyph glyph-name="Cacute" unicode="&#x106;" horiz-adv-x="1482" 
d="M727 -25q-120 0 -226.5 41.5t-188 119t-128.5 197t-47 265.5q0 141 32 266.5t88 220.5t130 170.5t160 123.5t176.5 73t179.5 25q242 0 393 -129t177 -326l-78 -27q-25 182 -156.5 292t-341.5 110q-94 0 -188 -31.5t-181 -98t-154.5 -158.5t-108 -223.5t-40.5 -283.5
q0 -174 70.5 -300t185 -186.5t256.5 -60.5q190 0 334 100t236 291l67 -43q-93 -196 -264 -312t-383 -116zM1012 1554h-88l272 244h123z" />
    <glyph glyph-name="cacute" unicode="&#x107;" horiz-adv-x="1064" 
d="M584 1094l264 276h129l-318 -276h-75zM928 270q-63 -136 -178.5 -215.5t-260.5 -79.5q-187 0 -302 122.5t-115 310.5q0 125 44.5 236t117.5 187t169 120t197 44q162 0 259 -85t124 -212l-74 -28q-24 114 -106.5 183t-208.5 69q-82 0 -160.5 -37t-140.5 -102.5t-99.5 -163
t-37.5 -209.5q0 -161 94 -261t248 -100q122 0 215.5 69.5t150.5 186.5z" />
    <glyph glyph-name="Ccircumflex" unicode="&#x108;" horiz-adv-x="1482" 
d="M1176 1554l-164 193l-238 -193h-86l275 244h116l166 -244h-69zM727 -25q-120 0 -226.5 41.5t-188 119t-128.5 197t-47 265.5q0 141 32 266.5t88 220.5t130 170.5t160 123.5t176.5 73t179.5 25q242 0 393 -129t177 -326l-78 -27q-25 182 -156.5 292t-341.5 110
q-94 0 -188 -31.5t-181 -98t-154.5 -158.5t-108 -223.5t-40.5 -283.5q0 -174 70.5 -300t185 -186.5t256.5 -60.5q190 0 334 100t236 291l67 -43q-93 -196 -264 -312t-383 -116z" />
    <glyph glyph-name="ccircumflex" unicode="&#x109;" horiz-adv-x="1064" 
d="M696 1319l-256 -225h-82l289 276h115l166 -276h-64zM928 270q-63 -136 -178.5 -215.5t-260.5 -79.5q-187 0 -302 122.5t-115 310.5q0 125 44.5 236t117.5 187t169 120t197 44q162 0 259 -85t124 -212l-74 -28q-24 114 -106.5 183t-208.5 69q-82 0 -160.5 -37
t-140.5 -102.5t-99.5 -163t-37.5 -209.5q0 -161 94 -261t248 -100q122 0 215.5 69.5t150.5 186.5z" />
    <glyph glyph-name="Cdotaccent" unicode="&#x10a;" horiz-adv-x="1482" 
d="M727 -25q-120 0 -226.5 41.5t-188 119t-128.5 197t-47 265.5q0 141 32 266.5t88 220.5t130 170.5t160 123.5t176.5 73t179.5 25q242 0 393 -129t177 -326l-78 -27q-25 182 -156.5 292t-341.5 110q-94 0 -188 -31.5t-181 -98t-154.5 -158.5t-108 -223.5t-40.5 -283.5
q0 -174 70.5 -300t185 -186.5t256.5 -60.5q190 0 334 100t236 291l67 -43q-93 -196 -264 -312t-383 -116zM911 1665q0 36 25 63t61 27q28 0 46 -22t18 -50q0 -35 -23.5 -59.5t-58.5 -24.5q-29 0 -48.5 19.5t-19.5 46.5z" />
    <glyph glyph-name="cdotaccent" unicode="&#x10b;" horiz-adv-x="1064" 
d="M928 270q-63 -136 -178.5 -215.5t-260.5 -79.5q-187 0 -302 122.5t-115 310.5q0 125 44.5 236t117.5 187t169 120t197 44q162 0 259 -85t124 -212l-74 -28q-24 114 -106.5 183t-208.5 69q-82 0 -160.5 -37t-140.5 -102.5t-99.5 -163t-37.5 -209.5q0 -161 94 -261
t248 -100q122 0 215.5 69.5t150.5 186.5zM592 1221q0 36 25 63t61 27q28 0 45.5 -22t17.5 -50q0 -35 -23.5 -59.5t-58.5 -24.5q-29 0 -48 19.5t-19 46.5z" />
    <glyph glyph-name="Ccaron" unicode="&#x10c;" horiz-adv-x="1482" 
d="M803 1798l164 -192l237 192h86l-274 -244h-117l-166 244h70zM727 -25q-120 0 -226.5 41.5t-188 119t-128.5 197t-47 265.5q0 141 32 266.5t88 220.5t130 170.5t160 123.5t176.5 73t179.5 25q242 0 393 -129t177 -326l-78 -27q-25 182 -156.5 292t-341.5 110
q-94 0 -188 -31.5t-181 -98t-154.5 -158.5t-108 -223.5t-40.5 -283.5q0 -174 70.5 -300t185 -186.5t256.5 -60.5q190 0 334 100t236 291l67 -43q-93 -196 -264 -312t-383 -116z" />
    <glyph glyph-name="ccaron" unicode="&#x10d;" horiz-adv-x="1064" 
d="M676 1145l260 225h78l-291 -276h-113l-166 276h64zM928 270q-63 -136 -178.5 -215.5t-260.5 -79.5q-187 0 -302 122.5t-115 310.5q0 125 44.5 236t117.5 187t169 120t197 44q162 0 259 -85t124 -212l-74 -28q-24 114 -106.5 183t-208.5 69q-82 0 -160.5 -37
t-140.5 -102.5t-99.5 -163t-37.5 -209.5q0 -161 94 -261t248 -100q122 0 215.5 69.5t150.5 186.5z" />
    <glyph glyph-name="Dcaron" unicode="&#x10e;" horiz-adv-x="1413" 
d="M707 1798l163 -192l238 192h86l-274 -244h-117l-166 244h70zM88 0l309 1452h383q164 0 291.5 -64t202 -190t74.5 -297q0 -179 -63 -343t-173.5 -287.5t-273 -197t-351.5 -73.5h-399zM492 78q108 0 215.5 33t206.5 101.5t175.5 164.5t122 231.5t45.5 292.5
q0 115 -37 205.5t-103 148.5t-153.5 88.5t-191.5 30.5h-303l-276 -1296h299z" />
    <glyph glyph-name="dcaron" unicode="&#x10f;" horiz-adv-x="1134" 
d="M1247 1108h-67l163 369h93zM897 279q-23 -125 -23 -179q0 -38 5 -100h-80q-4 46 -4 76q0 53 8 108q-55 -85 -145 -147t-212 -62q-173 0 -273.5 116t-100.5 298q0 167 68 307t182 219.5t247 79.5q71 0 129.5 -19.5t94 -48.5t61.5 -68t38 -72t17 -66l160 756h82zM457 49
q74 0 141 31.5t115.5 84.5t84.5 120.5t54 141.5t18 146q0 156 -80 251.5t-223 95.5q-110 0 -205 -67.5t-152.5 -188.5t-57.5 -267q0 -152 82 -250t223 -98z" />
    <glyph glyph-name="Dcroat" unicode="&#x110;" horiz-adv-x="1417" 
d="M72 672l14 73h164l151 707h383q164 0 291.5 -64t202 -190t74.5 -297q0 -143 -39.5 -277.5t-115.5 -247t-179 -197t-239 -132t-287 -47.5h-400l144 672h-164zM496 78q108 0 215.5 33t207 101.5t176 164.5t122 231.5t45.5 292.5q0 152 -65 260.5t-173 160.5t-248 52h-303
l-135 -629h317l-14 -73h-317l-127 -594h299z" />
    <glyph glyph-name="dslash" unicode="&#x111;" horiz-adv-x="1134" 
d="M680 1180l14 69h326l49 228h82l-49 -228h143l-14 -69h-144l-190 -901q-23 -125 -23 -179q0 -38 5 -100h-80q-4 46 -4 76q0 53 8 108q-55 -85 -145 -147t-212 -62q-173 0 -273.5 116t-100.5 298q0 167 68 307t182 219.5t247 79.5q71 0 129.5 -19.5t94 -48.5t61.5 -68
t38 -72t17 -66l97 459h-326zM457 49q74 0 141 31.5t115.5 84.5t84.5 120.5t54 141.5t18 146q0 156 -80 251.5t-223 95.5q-110 0 -205 -67.5t-152.5 -188.5t-57.5 -267q0 -152 82 -250t223 -98z" />
    <glyph glyph-name="Emacron" unicode="&#x112;" horiz-adv-x="1155" 
d="M88 0l309 1452h817l-16 -80h-731l-129 -604h661l-16 -80h-661l-129 -608h747l-16 -80h-836zM608 1640l15 74h510l-15 -74h-510z" />
    <glyph glyph-name="emacron" unicode="&#x113;" horiz-adv-x="1075" 
d="M156 479q-4 -18 -4 -80q0 -158 95 -254t245 -96q113 0 206 64t148 163l65 -43q-65 -116 -178 -187t-250 -71q-181 0 -296 116t-115 310q0 130 44.5 243.5t117 189t164 118.5t186.5 43q188 0 289.5 -111.5t101.5 -283.5q0 -60 -12 -121h-807zM582 922q-145 0 -257 -106
t-155 -265h719q4 28 4 47q0 142 -81 233t-230 91zM416 1196l14 72h496l-15 -72h-495z" />
    <glyph glyph-name="Ebreve" unicode="&#x114;" horiz-adv-x="1155" 
d="M88 0l309 1452h817l-16 -80h-731l-129 -604h661l-16 -80h-661l-129 -608h747l-16 -80h-836zM649 1800q-2 -6 -2 -24q0 -71 42.5 -116.5t129.5 -45.5q92 0 156 52t96 134h72q-30 -105 -119.5 -179.5t-214.5 -74.5q-111 0 -169 61.5t-58 153.5q0 11 4 39h63z" />
    <glyph glyph-name="ebreve" unicode="&#x115;" horiz-adv-x="1075" 
d="M156 479q-4 -18 -4 -80q0 -158 95 -254t245 -96q113 0 206 64t148 163l65 -43q-65 -116 -178 -187t-250 -71q-181 0 -296 116t-115 310q0 130 44.5 243.5t117 189t164 118.5t186.5 43q188 0 289.5 -111.5t101.5 -283.5q0 -60 -12 -121h-807zM582 922q-145 0 -257 -106
t-155 -265h719q4 28 4 47q0 142 -81 233t-230 91zM655 1094q-111 0 -169 61.5t-58 153.5q0 40 8 61h64q-6 -24 -6 -47q0 -71 42.5 -116.5t129.5 -45.5q100 0 169 62t91 147h67q-22 -109 -116 -192.5t-222 -83.5z" />
    <glyph glyph-name="Edotaccent" unicode="&#x116;" horiz-adv-x="1155" 
d="M793 1665q0 36 25 63t61 27q28 0 45.5 -22t17.5 -50q0 -35 -23.5 -59.5t-58.5 -24.5q-29 0 -48 19.5t-19 46.5zM88 0l309 1452h817l-16 -80h-731l-129 -604h661l-16 -80h-661l-129 -608h747l-16 -80h-836z" />
    <glyph glyph-name="edotaccent" unicode="&#x117;" horiz-adv-x="1075" 
d="M156 479q-4 -18 -4 -80q0 -158 95 -254t245 -96q113 0 206 64t148 163l65 -43q-65 -116 -178 -187t-250 -71q-181 0 -296 116t-115 310q0 130 44.5 243.5t117 189t164 118.5t186.5 43q188 0 289.5 -111.5t101.5 -283.5q0 -60 -12 -121h-807zM582 922q-145 0 -257 -106
t-155 -265h719q4 28 4 47q0 142 -81 233t-230 91zM584 1221q0 36 25 63t61 27q28 0 45.5 -22t17.5 -50q0 -35 -23.5 -59.5t-58.5 -24.5q-29 0 -48 19.5t-19 46.5z" />
    <glyph glyph-name="Eogonek" unicode="&#x118;" horiz-adv-x="1155" 
d="M924 0q-81 -39 -149 -110.5t-68 -151.5q0 -46 31.5 -70t82.5 -24q36 0 78 10l-14 -62q-47 -14 -88 -14q-74 0 -120 38.5t-46 104.5q0 85 57 158t137 121h-737l309 1452h817l-16 -80h-731l-129 -604h661l-16 -80h-661l-129 -608h747z" />
    <glyph glyph-name="eogonek" unicode="&#x119;" horiz-adv-x="1075" 
d="M72 401q0 130 45 243.5t117.5 189t164.5 118.5t187 43q187 0 288 -111t101 -284q0 -60 -12 -121h-805q-4 -18 -4 -80q0 -158 95 -254t245 -96q113 0 206 64t148 163l65 -43q-57 -100 -147 -165.5t-205 -85.5q-72 -13 -140.5 -89t-68.5 -155q0 -46 31.5 -70t83.5 -24
q36 0 78 10l-15 -62q-47 -14 -88 -14q-74 0 -120 38.5t-46 104.5q0 75 46 143.5t116 112.5q-164 18 -265 129.5t-101 294.5zM887 551q4 28 4 47q0 143 -78.5 233.5t-228.5 90.5q-145 0 -257 -106t-155 -265h715z" />
    <glyph glyph-name="Ecaron" unicode="&#x11a;" horiz-adv-x="1155" 
d="M680 1798l164 -192l237 192h86l-274 -244h-117l-166 244h70zM88 0l309 1452h817l-16 -80h-731l-129 -604h661l-16 -80h-661l-129 -608h747l-16 -80h-836z" />
    <glyph glyph-name="ecaron" unicode="&#x11b;" horiz-adv-x="1075" 
d="M637 1145l260 225h78l-291 -276h-113l-165 276h63zM156 479q-4 -18 -4 -80q0 -158 95 -254t245 -96q113 0 206 64t148 163l65 -43q-65 -116 -178 -187t-250 -71q-181 0 -296 116t-115 310q0 130 44.5 243.5t117 189t164 118.5t186.5 43q188 0 289.5 -111.5t101.5 -283.5
q0 -60 -12 -121h-807zM582 922q-145 0 -257 -106t-155 -265h719q4 28 4 47q0 142 -81 233t-230 91z" />
    <glyph glyph-name="Gcircumflex" unicode="&#x11c;" horiz-adv-x="1533" 
d="M1165 1554l-164 193l-237 -193h-86l274 244h117l166 -244h-70zM1219 0l45 266q-29 -50 -76 -98.5t-113.5 -93t-157.5 -72t-190 -27.5q-113 0 -217.5 41.5t-188.5 118.5t-134 199t-50 270q0 143 32.5 269t89 220t131.5 168.5t161.5 121t176.5 70.5t179 24
q223 0 374.5 -121.5t193.5 -317.5l-80 -37q-42 182 -172 289t-324 107q-95 0 -188.5 -30t-181.5 -94.5t-154.5 -155t-107 -222.5t-40.5 -287q0 -108 28.5 -199.5t77.5 -156t114.5 -109.5t140.5 -66.5t155 -21.5q101 0 190 31t154.5 82.5t115.5 120.5t79 143.5t39 151.5h-545
l17 80h632l-137 -664h-69z" />
    <glyph glyph-name="gcircumflex" unicode="&#x11d;" horiz-adv-x="1128" 
d="M713 1319l-256 -225h-82l289 276h114l166 -276h-63zM877 592q0 139 -80 234.5t-228 95.5q-105 0 -197.5 -61.5t-148 -169t-55.5 -234.5q0 -148 81 -238t234 -90q88 0 164 43t125 111t77 149t28 160zM61 -39q0 -131 87.5 -216t240.5 -85q73 0 131.5 21.5t97.5 55.5
t68.5 84.5t46 99t29.5 108.5l45 211q-45 -76 -132.5 -129.5t-203.5 -53.5q-176 0 -281.5 112t-105.5 284q0 112 40 213t106.5 173t155 114t183.5 42q82 0 146.5 -23t103.5 -61.5t62 -80.5t32 -89l48 230h81l-198 -942q-95 -443 -457 -443q-180 0 -291 101t-116 256z" />
    <glyph glyph-name="Gbreve" unicode="&#x11e;" horiz-adv-x="1533" 
d="M809 1798q-2 -6 -2 -24q0 -71 42.5 -116.5t129.5 -45.5q92 0 156 52t96 134h72q-30 -105 -119.5 -179.5t-214.5 -74.5q-111 0 -169.5 61.5t-58.5 153.5q0 11 4 39h64zM1219 0l45 266q-29 -50 -76 -98.5t-113.5 -93t-157.5 -72t-190 -27.5q-113 0 -217.5 41.5
t-188.5 118.5t-134 199t-50 270q0 143 32.5 269t89 220t131.5 168.5t161.5 121t176.5 70.5t179 24q223 0 374.5 -121.5t193.5 -317.5l-80 -37q-42 182 -172 289t-324 107q-95 0 -188.5 -30t-181.5 -94.5t-154.5 -155t-107 -222.5t-40.5 -287q0 -108 28.5 -199.5t77.5 -156
t114.5 -109.5t140.5 -66.5t155 -21.5q101 0 190 31t154.5 82.5t115.5 120.5t79 143.5t39 151.5h-545l17 80h632l-137 -664h-69z" />
    <glyph glyph-name="gbreve" unicode="&#x11f;" horiz-adv-x="1128" 
d="M877 592q0 139 -80 234.5t-228 95.5q-105 0 -197.5 -61.5t-148 -169t-55.5 -234.5q0 -148 81 -238t234 -90q88 0 164 43t125 111t77 149t28 160zM61 -39q0 -131 87.5 -216t240.5 -85q73 0 131.5 21.5t97.5 55.5t68.5 84.5t46 99t29.5 108.5l45 211q-45 -76 -132.5 -129.5
t-203.5 -53.5q-176 0 -281.5 112t-105.5 284q0 112 40 213t106.5 173t155 114t183.5 42q82 0 146.5 -23t103.5 -61.5t62 -80.5t32 -89l48 230h81l-198 -942q-95 -443 -457 -443q-180 0 -291 101t-116 256zM668 1094q-111 0 -169.5 61.5t-58.5 153.5q0 37 9 61h63
q-6 -24 -6 -47q0 -71 42.5 -116.5t129.5 -45.5q100 0 169 62t91 147h68q-22 -109 -116 -192.5t-222 -83.5z" />
    <glyph glyph-name="Gdotaccent" unicode="&#x120;" horiz-adv-x="1533" 
d="M913 1665q0 36 25 63t61 27q28 0 46 -22t18 -50q0 -35 -23.5 -59.5t-58.5 -24.5q-29 0 -48.5 19.5t-19.5 46.5zM1219 0l45 266q-29 -50 -76 -98.5t-113.5 -93t-157.5 -72t-190 -27.5q-113 0 -217.5 41.5t-188.5 118.5t-134 199t-50 270q0 143 32.5 269t89 220
t131.5 168.5t161.5 121t176.5 70.5t179 24q223 0 374.5 -121.5t193.5 -317.5l-80 -37q-42 182 -172 289t-324 107q-95 0 -188.5 -30t-181.5 -94.5t-154.5 -155t-107 -222.5t-40.5 -287q0 -108 28.5 -199.5t77.5 -156t114.5 -109.5t140.5 -66.5t155 -21.5q101 0 190 31
t154.5 82.5t115.5 120.5t79 143.5t39 151.5h-545l17 80h632l-137 -664h-69z" />
    <glyph glyph-name="gdotaccent" unicode="&#x121;" horiz-adv-x="1128" 
d="M877 592q0 139 -80 234.5t-228 95.5q-105 0 -197.5 -61.5t-148 -169t-55.5 -234.5q0 -148 81 -238t234 -90q88 0 164 43t125 111t77 149t28 160zM61 -39q0 -131 87.5 -216t240.5 -85q73 0 131.5 21.5t97.5 55.5t68.5 84.5t46 99t29.5 108.5l45 211q-45 -76 -132.5 -129.5
t-203.5 -53.5q-176 0 -281.5 112t-105.5 284q0 112 40 213t106.5 173t155 114t183.5 42q82 0 146.5 -23t103.5 -61.5t62 -80.5t32 -89l48 230h81l-198 -942q-95 -443 -457 -443q-180 0 -291 101t-116 256zM621 1221q0 36 25 63t61 27q28 0 45.5 -22t17.5 -50
q0 -35 -23.5 -59.5t-58.5 -24.5q-29 0 -48 19.5t-19 46.5z" />
    <glyph glyph-name="Gcommaaccent" unicode="&#x122;" horiz-adv-x="1533" 
d="M586 -182q0 34 24 61t58 27q33 0 56.5 -21.5t23.5 -62.5q0 -70 -38.5 -123.5t-89 -77.5t-98.5 -24l10 51q52 2 95 34t55 82q-11 -8 -31 -8q-30 0 -47.5 18t-17.5 44zM1219 0l45 266q-29 -50 -76 -98.5t-113.5 -93t-157.5 -72t-190 -27.5q-113 0 -217.5 41.5t-188.5 118.5
t-134 199t-50 270q0 143 32.5 269t89 220t131.5 168.5t161.5 121t176.5 70.5t179 24q223 0 374.5 -121.5t193.5 -317.5l-80 -37q-42 182 -172 289t-324 107q-95 0 -188.5 -30t-181.5 -94.5t-154.5 -155t-107 -222.5t-40.5 -287q0 -108 28.5 -199.5t77.5 -156t114.5 -109.5
t140.5 -66.5t155 -21.5q101 0 190 31t154.5 82.5t115.5 120.5t79 143.5t39 151.5h-545l17 80h632l-137 -664h-69z" />
    <glyph glyph-name="gcommaaccent" unicode="&#x123;" horiz-adv-x="1128" 
d="M737 1174q0 -37 -22.5 -63t-59.5 -26q-32 0 -54.5 21t-22.5 61q0 101 73.5 163.5t151.5 62.5l-10 -52q-53 -2 -96.5 -34t-53.5 -82q11 8 29 8q30 0 47.5 -16.5t17.5 -42.5zM877 592q0 139 -80 234.5t-228 95.5q-105 0 -197.5 -61.5t-148 -169t-55.5 -234.5
q0 -148 81 -238t234 -90q88 0 164 43t125 111t77 149t28 160zM61 -39q0 -131 87.5 -216t240.5 -85q73 0 131.5 21.5t97.5 55.5t68.5 84.5t46 99t29.5 108.5l45 211q-45 -76 -132.5 -129.5t-203.5 -53.5q-176 0 -281.5 112t-105.5 284q0 112 40 213t106.5 173t155 114
t183.5 42q82 0 146.5 -23t103.5 -61.5t62 -80.5t32 -89l48 230h81l-198 -942q-95 -443 -457 -443q-180 0 -291 101t-116 256z" />
    <glyph glyph-name="Hcircumflex" unicode="&#x124;" horiz-adv-x="1456" 
d="M1028 0l150 698h-852l-150 -698h-88l309 1452h88l-143 -674h852l143 674h88l-309 -1452h-88zM1135 1554l-164 193l-238 -193h-86l275 244h116l166 -244h-69z" />
    <glyph glyph-name="hcircumflex" unicode="&#x125;" horiz-adv-x="1060" 
d="M43 0l313 1477h82l-141 -664q41 73 126 127.5t187 54.5q79 0 140 -24t96.5 -66.5t53.5 -95t18 -113.5q0 -26 -11 -90l-123 -606h-84l125 602q9 38 9 78q0 107 -62 175.5t-184 68.5q-116 0 -212 -97t-126 -239l-125 -588h-82zM928 1554l-164 193l-238 -193h-86l275 244
h116l166 -244h-69z" />
    <glyph glyph-name="Hbar" unicode="&#x126;" horiz-adv-x="1456" 
d="M201 1159h135l63 293h88l-63 -293h852l63 293h88l-63 -293h141l-14 -67h-141l-232 -1092h-88l150 698h-852l-150 -698h-88l232 1092h-136zM1196 778l66 314h-852l-66 -314h852z" />
    <glyph glyph-name="hbar" unicode="&#x127;" horiz-adv-x="1060" 
d="M43 0l250 1182h-187l15 73h188l47 222h82l-47 -222h293l-14 -73h-295l-78 -369q41 73 126 127.5t187 54.5q79 0 140 -24t96.5 -66.5t53.5 -95t18 -113.5q0 -26 -11 -90l-123 -606h-84l125 602q9 38 9 78q0 107 -62 175.5t-184 68.5q-116 0 -212 -97t-126 -239l-125 -588
h-82z" />
    <glyph glyph-name="Itilde" unicode="&#x128;" horiz-adv-x="516" 
d="M88 0l309 1452h88l-309 -1452h-88zM739 1774q-19 -96 -66.5 -147.5t-103.5 -51.5q-38 0 -67.5 21t-45.5 45.5t-42 45.5t-58 21q-36 0 -60.5 -40t-33.5 -89h-63q21 99 68 148t104 49q31 0 56 -13.5t41.5 -33t32.5 -38.5t37.5 -32.5t47.5 -13.5q37 0 59.5 39.5t32.5 89.5
h61z" />
    <glyph glyph-name="itilde" unicode="&#x129;" horiz-adv-x="417" 
d="M43 0l207 971h82l-207 -971h-82zM596 1335q-19 -96 -66.5 -147t-103.5 -51q-38 0 -67.5 21t-45.5 45.5t-42 45.5t-58 21q-36 0 -60.5 -40t-33.5 -89h-64q21 98 68 147t104 49q31 0 56 -13.5t41.5 -32.5t32.5 -38.5t37.5 -33t47.5 -13.5q37 0 60 39.5t33 89.5h61z" />
    <glyph glyph-name="Imacron" unicode="&#x12a;" horiz-adv-x="516" 
d="M88 0l309 1452h88l-309 -1452h-88zM217 1640l14 74h510l-14 -74h-510z" />
    <glyph glyph-name="imacron" unicode="&#x12b;" horiz-adv-x="417" 
d="M43 0l207 971h82l-207 -971h-82zM90 1196l14 72h496l-14 -72h-496z" />
    <glyph glyph-name="Ibreve" unicode="&#x12c;" horiz-adv-x="516" 
d="M88 0l309 1452h88l-309 -1452h-88zM303 1798q-2 -6 -2 -24q0 -71 42.5 -116.5t129.5 -45.5q92 0 156 52t96 134h72q-30 -105 -119.5 -179.5t-214.5 -74.5q-111 0 -169 61.5t-58 153.5q0 11 4 39h63z" />
    <glyph glyph-name="ibreve" unicode="&#x12d;" horiz-adv-x="417" 
d="M43 0l207 971h82l-207 -971h-82zM317 1094q-111 0 -169 61.5t-58 153.5q0 40 8 61h64q-6 -24 -6 -47q0 -71 42.5 -116.5t129.5 -45.5q100 0 169 62t91 147h67q-22 -109 -116 -192.5t-222 -83.5z" />
    <glyph glyph-name="Iogonek" unicode="&#x12e;" horiz-adv-x="516" 
d="M176 0q-81 -39 -149 -110.5t-68 -151.5q0 -46 31.5 -70t83.5 -24q36 0 78 10l-15 -62q-47 -14 -88 -14q-74 0 -120 38.5t-46 104.5q0 86 62 163.5t143 121.5l309 1446h88z" />
    <glyph glyph-name="iogonek" unicode="&#x12f;" horiz-adv-x="417" 
d="M125 0q-81 -39 -149 -110.5t-68 -151.5q0 -46 31.5 -70t83.5 -24q35 0 77 10l-14 -62q-47 -14 -88 -14q-74 0 -120 38.5t-46 104.5q0 90 64 167.5t149 119.5l205 963h82zM299 1386q0 37 26 64t62 27q31 0 50.5 -21t19.5 -53q0 -36 -25 -61t-61 -25q-31 0 -51.5 19.5
t-20.5 49.5z" />
    <glyph glyph-name="Idot" unicode="&#x130;" horiz-adv-x="516" 
d="M88 0l309 1452h88l-309 -1452h-88zM412 1665q0 36 25 63t61 27q28 0 45.5 -22t17.5 -50q0 -35 -23.5 -59.5t-58.5 -24.5q-29 0 -48 19.5t-19 46.5z" />
    <glyph glyph-name="dotlessi" unicode="&#x131;" horiz-adv-x="417" 
d="M43 0l207 971h82l-207 -971h-82z" />
    <glyph glyph-name="IJ" unicode="&#x132;" horiz-adv-x="1183" 
d="M223 711l156 741h88l-158 -741h-86zM186 543l90 14l-20 -94q-14 -60 -14 -123q0 -127 67.5 -206t212.5 -79q127 0 215 88t119 238l223 1071h88l-225 -1069q-42 -194 -151 -301t-273 -107q-179 0 -270.5 99.5t-91.5 261.5q0 45 14 127z" />
    <glyph glyph-name="ij" unicode="&#x133;" horiz-adv-x="835" 
d="M43 0l207 971h82l-207 -971h-82zM299 1386q0 37 26 64t62 27q31 0 50.5 -21t19.5 -53q0 -36 -25 -61t-61 -25q-31 0 -51.5 19.5t-20.5 49.5zM668 971h82l-240 -1125q-28 -129 -96 -186t-172 -57q-84 0 -131 35l14 69q60 -31 121 -31q74 0 119 43t65 138zM717 1386
q0 37 26 64t62 27q31 0 50 -21t19 -53q0 -36 -25 -61t-61 -25q-31 0 -51 19t-20 50z" />
    <glyph glyph-name="Jcircumflex" unicode="&#x134;" horiz-adv-x="1056" 
d="M61 543l89 14l-21 -94q-14 -55 -14 -123q0 -127 67.5 -206t212.5 -79q127 0 215 88t119 238l223 1071h88l-225 -1069q-42 -194 -151 -301t-273 -107q-177 0 -268.5 98.5t-91.5 258.5q0 71 14 131zM1208 1554l-164 193l-237 -193h-86l274 244h117l166 -244h-70z" />
    <glyph glyph-name="jcircumflex" unicode="&#x135;" horiz-adv-x="417" 
d="M250 971h82l-240 -1125q-28 -129 -96 -186t-172 -57q-84 0 -131 35l14 69q60 -31 121 -31q74 0 119 43t65 138zM367 1319l-256 -225h-82l288 276h115l166 -276h-63z" />
    <glyph glyph-name="Kcommaaccent" unicode="&#x136;" horiz-adv-x="1263" 
d="M676 811l444 -811h-102l-406 754l-338 -297l-96 -457h-88l307 1452h88l-184 -866l977 866h127zM504 -182q0 34 24 61t58 27q33 0 56.5 -21.5t23.5 -62.5q0 -70 -38.5 -123.5t-89 -77.5t-98.5 -24l11 51q52 2 94.5 34t54.5 82q-11 -8 -31 -8q-30 0 -47.5 18t-17.5 44z" />
    <glyph glyph-name="kcommaaccent" unicode="&#x137;" horiz-adv-x="978" 
d="M43 0l313 1477h82l-223 -1055l666 549h118l-485 -398l311 -573h-94l-280 522l-261 -215l-65 -307h-82zM309 -182q0 34 24 61t58 27q33 0 56.5 -21.5t23.5 -62.5q0 -53 -22.5 -97.5t-56.5 -71.5t-72.5 -41.5t-73.5 -14.5l10 51q52 2 95 34t55 82q-11 -8 -31 -8
q-30 0 -48 18t-18 44z" />
    <glyph glyph-name="kgreenlandic" unicode="&#x138;" horiz-adv-x="978" 
d="M332 971l-117 -547l666 547h118l-483 -396l309 -575h-96l-278 522l-261 -213l-65 -309h-82l207 971h82z" />
    <glyph glyph-name="Lacute" unicode="&#x139;" horiz-adv-x="1081" 
d="M506 1554h-88l272 244h123zM88 0l309 1452h88l-292 -1372h749l-16 -80h-838z" />
    <glyph glyph-name="lacute" unicode="&#x13a;" horiz-adv-x="415" 
d="M43 0l313 1477h82l-313 -1477h-82zM449 1554h-89l273 244h123z" />
    <glyph glyph-name="Lcommaaccent" unicode="&#x13b;" horiz-adv-x="1081" 
d="M88 0l309 1452h88l-292 -1372h749l-16 -80h-838zM428 -182q0 34 24 61t58 27q33 0 56.5 -21.5t23.5 -62.5q0 -53 -22.5 -97.5t-56.5 -71.5t-72.5 -41.5t-73.5 -14.5l10 51q52 2 94.5 34t54.5 82q-11 -8 -30 -8q-30 0 -48 18t-18 44z" />
    <glyph glyph-name="lcommaaccent" unicode="&#x13c;" horiz-adv-x="415" 
d="M43 0l313 1477h82l-313 -1477h-82zM-39 -182q0 34 24 61t58 27q33 0 56.5 -21.5t23.5 -62.5q0 -53 -22.5 -97.5t-56.5 -71.5t-72.5 -41.5t-73.5 -14.5l10 51q52 2 94.5 34t54.5 82q-11 -8 -30 -8q-30 0 -48 18t-18 44z" />
    <glyph glyph-name="Lcaron" unicode="&#x13d;" horiz-adv-x="1081" 
d="M88 0l309 1452h88l-292 -1372h749l-16 -80h-838zM768 1178h-68l170 374h93z" />
    <glyph glyph-name="lcaron" unicode="&#x13e;" horiz-adv-x="415" 
d="M535 1108h-68l164 369h92zM43 0l313 1477h82l-313 -1477h-82z" />
    <glyph glyph-name="Ldot" unicode="&#x13f;" horiz-adv-x="1081" 
d="M88 0l309 1452h88l-292 -1372h749l-16 -80h-838zM614 752q0 36 25 63t61 27q28 0 46 -22t18 -50q0 -35 -23.5 -59.5t-58.5 -24.5q-29 0 -48.5 19.5t-19.5 46.5z" />
    <glyph glyph-name="ldot" unicode="&#x140;" horiz-adv-x="473" 
d="M43 0l313 1477h82l-313 -1477h-82zM371 627q0 36 25 63t61 27q28 0 45.5 -22t17.5 -50q0 -35 -23.5 -59.5t-58.5 -24.5q-29 0 -48 19.5t-19 46.5z" />
    <glyph glyph-name="Lslash" unicode="&#x141;" horiz-adv-x="1093" 
d="M102 0l140 657l-211 -86l14 78l213 86l154 717h88l-146 -678l385 156l-16 -78l-385 -156l-131 -616h749l-16 -80h-838z" />
    <glyph glyph-name="lslash" unicode="&#x142;" horiz-adv-x="595" 
d="M125 0l147 700l-231 -94l16 78l232 94l149 699h82l-141 -664l242 98l-17 -77l-242 -99l-155 -735h-82z" />
    <glyph glyph-name="Nacute" unicode="&#x143;" horiz-adv-x="1466" 
d="M913 1554h-88l273 244h123zM1032 0l-571 1339l-283 -1339h-88l307 1452h115l557 -1317l279 1317h88l-308 -1452h-96z" />
    <glyph glyph-name="nacute" unicode="&#x144;" horiz-adv-x="1060" 
d="M567 1094l264 276h130l-318 -276h-76zM700 0l121 567q15 71 15 119q0 109 -61.5 173.5t-184.5 64.5q-116 0 -213.5 -97t-126.5 -239l-125 -588h-82l172 809q21 100 21 162h79q0 -77 -18 -158q41 73 126 127.5t187 54.5q145 0 226.5 -82.5t81.5 -216.5q0 -54 -15 -125
l-121 -571h-82z" />
    <glyph glyph-name="Ncommaaccent" unicode="&#x145;" horiz-adv-x="1466" 
d="M571 -182q0 34 24 61t58 27q33 0 56.5 -21.5t23.5 -62.5q0 -53 -22.5 -97.5t-56.5 -71.5t-72.5 -41.5t-73.5 -14.5l10 51q52 2 95 34t55 82q-11 -8 -31 -8q-30 0 -48 18t-18 44zM1032 0l-571 1339l-283 -1339h-88l307 1452h115l557 -1317l279 1317h88l-308 -1452h-96z
" />
    <glyph glyph-name="ncommaaccent" unicode="&#x146;" horiz-adv-x="1060" 
d="M311 -182q0 34 24 61t58 27q33 0 56.5 -21.5t23.5 -62.5q0 -53 -22.5 -97.5t-56.5 -71.5t-72.5 -41.5t-73.5 -14.5l10 51q52 2 95 34t55 82q-11 -8 -31 -8q-30 0 -48 18t-18 44zM700 0l121 567q15 71 15 119q0 109 -61.5 173.5t-184.5 64.5q-116 0 -213.5 -97
t-126.5 -239l-125 -588h-82l172 809q21 100 21 162h79q0 -77 -18 -158q41 73 126 127.5t187 54.5q145 0 226.5 -82.5t81.5 -216.5q0 -54 -15 -125l-121 -571h-82z" />
    <glyph glyph-name="Ncaron" unicode="&#x147;" horiz-adv-x="1466" 
d="M772 1798l164 -192l238 192h86l-275 -244h-117l-166 244h70zM1032 0l-571 1339l-283 -1339h-88l307 1452h115l557 -1317l279 1317h88l-308 -1452h-96z" />
    <glyph glyph-name="ncaron" unicode="&#x148;" horiz-adv-x="1060" 
d="M614 1145l260 225h78l-290 -276h-113l-166 276h63zM700 0l121 567q15 71 15 119q0 109 -61.5 173.5t-184.5 64.5q-116 0 -213.5 -97t-126.5 -239l-125 -588h-82l172 809q21 100 21 162h79q0 -77 -18 -158q41 73 126 127.5t187 54.5q145 0 226.5 -82.5t81.5 -216.5
q0 -54 -15 -125l-121 -571h-82z" />
    <glyph glyph-name="napostrophe" unicode="&#x149;" horiz-adv-x="1060" 
d="M336 1305q0 37 22.5 62.5t59.5 25.5q32 0 55 -21t23 -61q0 -101 -74 -163.5t-152 -62.5l11 52q52 2 95.5 34t53.5 82q-11 -8 -29 -8q-30 0 -47.5 17t-17.5 43zM700 0l121 567q15 71 15 119q0 109 -61.5 173.5t-184.5 64.5q-116 0 -213.5 -97t-126.5 -239l-125 -588h-82
l172 809q21 100 21 162h79q0 -77 -18 -158q41 73 126 127.5t187 54.5q145 0 226.5 -82.5t81.5 -216.5q0 -54 -15 -125l-121 -571h-82z" />
    <glyph glyph-name="Eng" unicode="&#x14a;" horiz-adv-x="1466" 
d="M1092 -170q-53 -244 -269 -244q-84 0 -131 35l15 70q60 -31 120 -31q150 0 185 180l26 140l-577 1359l-283 -1339h-88l307 1452h115l555 -1317l279 1317h88z" />
    <glyph glyph-name="eng" unicode="&#x14b;" horiz-adv-x="1060" 
d="M821 567q15 71 15 119q0 109 -61.5 173.5t-184.5 64.5q-116 0 -213.5 -97t-126.5 -239l-125 -588h-82l172 809q21 100 21 162h79q0 -77 -18 -158q41 73 126 127.5t187 54.5q145 0 226.5 -82.5t81.5 -216.5q0 -54 -15 -125l-153 -725q-53 -243 -269 -243q-84 0 -131 35
l15 69q60 -31 120 -31q74 0 119.5 43t65.5 138z" />
    <glyph glyph-name="Omacron" unicode="&#x14c;" horiz-adv-x="1570" 
d="M733 55q94 0 188 31.5t181 98t154.5 158.5t108 223.5t40.5 283.5q0 134 -40.5 240.5t-110.5 172.5t-161 100t-196 34q-94 0 -188 -31.5t-181 -98t-154.5 -158.5t-108 -223.5t-40.5 -283.5q0 -134 40.5 -240.5t110.5 -172.5t161 -100t196 -34zM727 -25q-121 0 -227 40.5
t-187.5 116.5t-128.5 196.5t-47 269.5q0 141 32 266.5t88 220.5t130 170.5t160 123.5t176.5 73t179.5 25q121 0 227 -41t187.5 -117.5t128.5 -196.5t47 -268q0 -141 -32 -266.5t-88 -220.5t-130 -170.5t-160 -123.5t-176.5 -73t-179.5 -25zM700 1640l15 74h510l-15 -74h-510
z" />
    <glyph glyph-name="omacron" unicode="&#x14d;" horiz-adv-x="1105" 
d="M393 1196l15 72h495l-14 -72h-496zM586 922q-75 0 -150.5 -35t-139 -98t-103 -163t-39.5 -218q0 -161 91 -260t232 -99q60 0 120.5 22t116.5 66.5t99.5 105t69.5 145t26 179.5q0 162 -90.5 258.5t-232.5 96.5zM471 -25q-175 0 -286 118t-111 306q0 134 45 248.5t119 189
t166 116.5t188 42q178 0 287.5 -117.5t109.5 -306.5q0 -134 -45 -248.5t-118.5 -189.5t-165.5 -116.5t-189 -41.5z" />
    <glyph glyph-name="Obreve" unicode="&#x14e;" horiz-adv-x="1570" 
d="M807 1798q-2 -6 -2 -24q0 -71 42.5 -116.5t129.5 -45.5q92 0 156 52t96 134h71q-30 -105 -119 -179.5t-214 -74.5q-111 0 -169.5 61.5t-58.5 153.5q0 11 4 39h64zM733 55q94 0 188 31.5t181 98t154.5 158.5t108 223.5t40.5 283.5q0 134 -40.5 240.5t-110.5 172.5
t-161 100t-196 34q-94 0 -188 -31.5t-181 -98t-154.5 -158.5t-108 -223.5t-40.5 -283.5q0 -134 40.5 -240.5t110.5 -172.5t161 -100t196 -34zM727 -25q-121 0 -227 40.5t-187.5 116.5t-128.5 196.5t-47 269.5q0 141 32 266.5t88 220.5t130 170.5t160 123.5t176.5 73
t179.5 25q121 0 227 -41t187.5 -117.5t128.5 -196.5t47 -268q0 -141 -32 -266.5t-88 -220.5t-130 -170.5t-160 -123.5t-176.5 -73t-179.5 -25z" />
    <glyph glyph-name="obreve" unicode="&#x14f;" horiz-adv-x="1105" 
d="M586 922q-75 0 -150.5 -35t-139 -98t-103 -163t-39.5 -218q0 -161 91 -260t232 -99q60 0 120.5 22t116.5 66.5t99.5 105t69.5 145t26 179.5q0 162 -90.5 258.5t-232.5 96.5zM471 -25q-175 0 -286 118t-111 306q0 134 45 248.5t119 189t166 116.5t188 42
q178 0 287.5 -117.5t109.5 -306.5q0 -134 -45 -248.5t-118.5 -189.5t-165.5 -116.5t-189 -41.5zM641 1094q-111 0 -169 61.5t-58 153.5q0 40 8 61h63q-6 -24 -6 -47q0 -71 42.5 -116.5t129.5 -45.5q100 0 169 62t91 147h68q-22 -109 -116 -192.5t-222 -83.5z" />
    <glyph glyph-name="Ohungarumlaut" unicode="&#x150;" horiz-adv-x="1570" 
d="M797 1554l170 244h98l-199 -244h-69zM1030 1554l176 244h99l-205 -244h-70zM733 55q94 0 188 31.5t181 98t154.5 158.5t108 223.5t40.5 283.5q0 134 -40.5 240.5t-110.5 172.5t-161 100t-196 34q-94 0 -188 -31.5t-181 -98t-154.5 -158.5t-108 -223.5t-40.5 -283.5
q0 -134 40.5 -240.5t110.5 -172.5t161 -100t196 -34zM727 -25q-121 0 -227 40.5t-187.5 116.5t-128.5 196.5t-47 269.5q0 141 32 266.5t88 220.5t130 170.5t160 123.5t176.5 73t179.5 25q121 0 227 -41t187.5 -117.5t128.5 -196.5t47 -268q0 -141 -32 -266.5t-88 -220.5
t-130 -170.5t-160 -123.5t-176.5 -73t-179.5 -25z" />
    <glyph glyph-name="ohungarumlaut" unicode="&#x151;" horiz-adv-x="1105" 
d="M586 922q-75 0 -150.5 -35t-139 -98t-103 -163t-39.5 -218q0 -161 91 -260t232 -99q60 0 120.5 22t116.5 66.5t99.5 105t69.5 145t26 179.5q0 162 -90.5 258.5t-232.5 96.5zM471 -25q-175 0 -286 118t-111 306q0 134 45 248.5t119 189t166 116.5t188 42
q178 0 287.5 -117.5t109.5 -306.5q0 -134 -45 -248.5t-118.5 -189.5t-165.5 -116.5t-189 -41.5zM559 1094h-65l192 276h92zM768 1094h-66l199 276h92z" />
    <glyph glyph-name="OE" unicode="&#x152;" horiz-adv-x="2320" 
d="M1253 0l60 276q-113 -147 -269 -224t-317 -77q-121 0 -227 40.5t-187.5 116.5t-128.5 196.5t-47 269.5q0 141 32 266.5t88 220.5t130 170.5t160 123.5t176.5 73t179.5 25q207 0 364.5 -117.5t205.5 -327.5l90 420h817l-17 -80h-731l-129 -604h662l-17 -80h-661l-129 -608
h747l-16 -80h-836zM733 55q94 0 188 31.5t181 98t154.5 158.5t108 223.5t40.5 283.5q0 134 -40.5 240.5t-110.5 172.5t-161 100t-196 34q-94 0 -188 -31.5t-181 -98t-154.5 -158.5t-108 -223.5t-40.5 -283.5q0 -134 40.5 -240.5t110.5 -172.5t161 -100t196 -34z" />
    <glyph glyph-name="oe" unicode="&#x153;" horiz-adv-x="1904" 
d="M985 479q-4 -18 -4 -80q0 -158 95 -254t245 -96q113 0 206 64t148 163l66 -43q-65 -116 -178 -187t-250 -71q-148 0 -253 76.5t-142 212.5q-70 -136 -191.5 -212.5t-255.5 -76.5q-175 0 -286 118t-111 306q0 134 45 248.5t119 189t166 116.5t188 42q146 0 245.5 -77
t135.5 -213q70 135 189 212.5t251 77.5q188 0 289.5 -111.5t101.5 -283.5q0 -60 -12 -121h-807zM586 922q-75 0 -150.5 -35t-139 -98t-103 -163t-39.5 -218q0 -161 91 -260t232 -99q60 0 120.5 22t116.5 66.5t99.5 105t69.5 145t26 179.5q0 162 -90.5 258.5t-232.5 96.5z
M1411 922q-145 0 -257 -106t-155 -265h719q4 28 4 47q0 142 -81 233t-230 91z" />
    <glyph glyph-name="Racute" unicode="&#x154;" horiz-adv-x="1222" 
d="M784 1554h-88l273 244h123zM913 0l-243 647h-355l-139 -647h-88l309 1452h434q167 0 267 -94t100 -238q0 -186 -124 -311t-318 -150l254 -659h-97zM659 727q195 0 322 106.5t127 282.5q0 119 -78 187.5t-223 68.5h-338l-137 -645h327z" />
    <glyph glyph-name="racute" unicode="&#x155;" horiz-adv-x="661" 
d="M410 1094l264 276h129l-318 -276h-75zM303 825q111 156 291 156q76 0 117 -25l-17 -82q-44 23 -121 23q-114 0 -200.5 -81t-120.5 -236l-123 -580h-82l172 809q19 90 19 162h79q0 -87 -14 -146z" />
    <glyph glyph-name="Rcommaaccent" unicode="&#x156;" horiz-adv-x="1222" 
d="M913 0l-243 647h-355l-139 -647h-88l309 1452h434q167 0 267 -94t100 -238q0 -186 -124 -311t-318 -150l254 -659h-97zM659 727q195 0 322 106.5t127 282.5q0 119 -78 187.5t-223 68.5h-338l-137 -645h327zM463 -182q0 34 24 61t58 27q33 0 56.5 -21.5t23.5 -62.5
q0 -70 -38.5 -123.5t-89 -77.5t-98.5 -24l11 51q52 2 94.5 34t54.5 82q-11 -8 -31 -8q-30 0 -47.5 18t-17.5 44z" />
    <glyph glyph-name="rcommaaccent" unicode="&#x157;" horiz-adv-x="661" 
d="M303 825q111 156 291 156q76 0 117 -25l-17 -82q-44 23 -121 23q-114 0 -200.5 -81t-120.5 -236l-123 -580h-82l172 809q19 90 19 162h79q0 -87 -14 -146zM-29 -182q0 34 24 61t58 27q33 0 56.5 -21.5t23.5 -62.5q0 -53 -22.5 -97.5t-56.5 -71.5t-72.5 -41.5t-73.5 -14.5
l10 51q52 2 95 34t55 82q-11 -8 -31 -8q-30 0 -48 18t-18 44z" />
    <glyph glyph-name="Rcaron" unicode="&#x158;" horiz-adv-x="1222" 
d="M633 1798l164 -192l237 192h86l-274 -244h-117l-166 244h70zM913 0l-243 647h-355l-139 -647h-88l309 1452h434q167 0 267 -94t100 -238q0 -186 -124 -311t-318 -150l254 -659h-97zM659 727q195 0 322 106.5t127 282.5q0 119 -78 187.5t-223 68.5h-338l-137 -645h327z
" />
    <glyph glyph-name="rcaron" unicode="&#x159;" horiz-adv-x="661" 
d="M502 1145l260 225h78l-291 -276h-113l-166 276h64zM303 825q111 156 291 156q76 0 117 -25l-17 -82q-44 23 -121 23q-114 0 -200.5 -81t-120.5 -236l-123 -580h-82l172 809q19 90 19 162h79q0 -87 -14 -146z" />
    <glyph glyph-name="Sacute" unicode="&#x15a;" horiz-adv-x="1155" 
d="M786 1554h-88l273 244h123zM1042 1057q0 70 -22 130.5t-65 108.5t-113.5 75.5t-161.5 27.5q-135 0 -241.5 -86t-106.5 -219q0 -96 46 -160t144 -107l217 -98q132 -62 198.5 -145t66.5 -199q0 -182 -135.5 -296t-340.5 -114q-206 0 -331 115t-125 307q0 60 8 101l84 14
q-10 -58 -10 -100q0 -157 98.5 -258t282.5 -101q165 0 272.5 90.5t107.5 231.5q0 93 -49 158t-164 118l-221 101q-115 53 -175 132.5t-60 196.5t65 209.5t164.5 139.5t210.5 47t196.5 -33.5t136 -91.5t77 -128t28.5 -151z" />
    <glyph glyph-name="sacute" unicode="&#x15b;" horiz-adv-x="862" 
d="M489 1094l265 276h129l-318 -276h-76zM715 688q0 97 -63.5 167.5t-184.5 70.5q-92 0 -164 -56.5t-72 -136.5q0 -57 31.5 -97.5t108.5 -76.5l143 -65q82 -37 127 -96t45 -132q0 -124 -91.5 -207.5t-236.5 -83.5q-153 0 -243 81.5t-90 217.5q0 28 6 52l75 20q-4 -28 -4 -51
q0 -111 66 -179.5t190 -68.5q103 0 173.5 57t70.5 148q0 112 -137 176l-139 64q-84 38 -129 92.5t-45 134.5q0 117 90.5 196.5t228.5 79.5q80 0 143 -25t101 -66.5t58 -91.5t20 -103z" />
    <glyph glyph-name="Scircumflex" unicode="&#x15c;" horiz-adv-x="1155" 
d="M973 1554l-164 193l-238 -193h-86l275 244h117l165 -244h-69zM1042 1057q0 70 -22 130.5t-65 108.5t-113.5 75.5t-161.5 27.5q-135 0 -241.5 -86t-106.5 -219q0 -96 46 -160t144 -107l217 -98q132 -62 198.5 -145t66.5 -199q0 -182 -135.5 -296t-340.5 -114
q-206 0 -331 115t-125 307q0 60 8 101l84 14q-10 -58 -10 -100q0 -157 98.5 -258t282.5 -101q165 0 272.5 90.5t107.5 231.5q0 93 -49 158t-164 118l-221 101q-115 53 -175 132.5t-60 196.5t65 209.5t164.5 139.5t210.5 47t196.5 -33.5t136 -91.5t77 -128t28.5 -151z" />
    <glyph glyph-name="scircumflex" unicode="&#x15d;" horiz-adv-x="862" 
d="M598 1319l-256 -225h-82l289 276h115l165 -276h-63zM715 688q0 97 -63.5 167.5t-184.5 70.5q-92 0 -164 -56.5t-72 -136.5q0 -57 31.5 -97.5t108.5 -76.5l143 -65q82 -37 127 -96t45 -132q0 -124 -91.5 -207.5t-236.5 -83.5q-153 0 -243 81.5t-90 217.5q0 28 6 52l75 20
q-4 -28 -4 -51q0 -111 66 -179.5t190 -68.5q103 0 173.5 57t70.5 148q0 112 -137 176l-139 64q-84 38 -129 92.5t-45 134.5q0 117 90.5 196.5t228.5 79.5q80 0 143 -25t101 -66.5t58 -91.5t20 -103z" />
    <glyph glyph-name="Scedilla" unicode="&#x15e;" horiz-adv-x="1155" 
d="M336 -131l125 111q-181 19 -285 129.5t-104 287.5q0 60 8 101l84 14q-10 -58 -10 -100q0 -157 98.5 -258t282.5 -101q165 0 272.5 90.5t107.5 231.5q0 93 -49 158t-164 118l-221 101q-115 53 -175 132.5t-60 196.5t65 209.5t164.5 139.5t210.5 47t196.5 -33.5t136 -91.5
t77 -128t28.5 -151l-82 -16q0 70 -22 130.5t-65 108.5t-113.5 75.5t-161.5 27.5q-135 0 -241.5 -86t-106.5 -219q0 -96 46 -160t144 -107l217 -98q132 -62 198.5 -145t66.5 -199q0 -181 -132 -293t-335 -117l-113 -96q6 2 31 2q78 0 127 -39.5t49 -97.5q0 -75 -59 -121.5
t-152 -46.5q-80 0 -141 36.5t-91 98.5l56 35q59 -108 180 -108q63 0 100 28.5t37 77.5q0 39 -34.5 64.5t-98.5 25.5q-30 0 -68 -12z" />
    <glyph glyph-name="scedilla" unicode="&#x15f;" horiz-adv-x="862" 
d="M160 -131l125 113q-121 19 -190.5 97t-69.5 195q0 28 6 52l75 20q-4 -28 -4 -51q0 -111 66 -179.5t190 -68.5q103 0 173.5 57t70.5 148q0 112 -137 176l-139 64q-84 38 -129 92.5t-45 134.5q0 117 90.5 196.5t228.5 79.5q80 0 143 -25t101 -66.5t58 -91.5t20 -103
l-78 -21q0 97 -63.5 167.5t-184.5 70.5q-92 0 -164 -56.5t-72 -136.5q0 -57 31.5 -97.5t108.5 -76.5l143 -65q82 -37 127 -96t45 -132q0 -123 -91 -207t-235 -84l-112 -96q6 2 31 2q78 0 127 -39.5t49 -97.5q0 -75 -59 -121.5t-152 -46.5q-80 0 -141 36.5t-91 98.5l56 35
q59 -108 180 -108q63 0 100 28.5t37 77.5q0 39 -34.5 64.5t-98.5 25.5q-31 0 -68 -12z" />
    <glyph glyph-name="Scaron" unicode="&#x160;" horiz-adv-x="1155" 
d="M608 1798l164 -192l238 192h86l-275 -244h-116l-166 244h69zM1042 1057q0 70 -22 130.5t-65 108.5t-113.5 75.5t-161.5 27.5q-135 0 -241.5 -86t-106.5 -219q0 -96 46 -160t144 -107l217 -98q132 -62 198.5 -145t66.5 -199q0 -182 -135.5 -296t-340.5 -114
q-206 0 -331 115t-125 307q0 60 8 101l84 14q-10 -58 -10 -100q0 -157 98.5 -258t282.5 -101q165 0 272.5 90.5t107.5 231.5q0 93 -49 158t-164 118l-221 101q-115 53 -175 132.5t-60 196.5t65 209.5t164.5 139.5t210.5 47t196.5 -33.5t136 -91.5t77 -128t28.5 -151z" />
    <glyph glyph-name="scaron" unicode="&#x161;" horiz-adv-x="862" 
d="M553 1145l260 225h78l-291 -276h-113l-165 276h63zM715 688q0 97 -63.5 167.5t-184.5 70.5q-92 0 -164 -56.5t-72 -136.5q0 -57 31.5 -97.5t108.5 -76.5l143 -65q82 -37 127 -96t45 -132q0 -124 -91.5 -207.5t-236.5 -83.5q-153 0 -243 81.5t-90 217.5q0 28 6 52l75 20
q-4 -28 -4 -51q0 -111 66 -179.5t190 -68.5q103 0 173.5 57t70.5 148q0 112 -137 176l-139 64q-84 38 -129 92.5t-45 134.5q0 117 90.5 196.5t228.5 79.5q80 0 143 -25t101 -66.5t58 -91.5t20 -103z" />
    <glyph glyph-name="Tcommaaccent" unicode="&#x162;" horiz-adv-x="1191" 
d="M270 -131l152 135l293 1368h-510l16 80h1108l-16 -80h-510l-293 -1372h-10l-142 -121q6 2 31 2q78 0 127 -39.5t49 -97.5q0 -75 -59 -121.5t-152 -46.5q-80 0 -140.5 36.5t-90.5 98.5l55 35q59 -108 180 -108q63 0 100.5 28.5t37.5 77.5q0 39 -34.5 64.5t-99.5 25.5
q-30 0 -67 -12z" />
    <glyph glyph-name="tcommaaccent" unicode="&#x163;" horiz-adv-x="563" 
d="M442 1280l-65 -309h209l-15 -74h-211l-122 -582q-17 -69 -17 -112q0 -65 34.5 -103.5t104.5 -38.5q43 0 64 9l-16 -72q-19 -8 -58 -8q-104 0 -157.5 55t-53.5 154q0 42 19 129l121 569h-189l14 74h52q71 0 109 24.5t57 104.5l38 180h82zM129 -182q0 34 24 61t58 27
q33 0 56.5 -21.5t23.5 -62.5q0 -53 -22.5 -97.5t-56.5 -71.5t-72.5 -41.5t-73.5 -14.5l10 51q52 2 94.5 34t54.5 82q-11 -8 -30 -8q-30 0 -48 18t-18 44z" />
    <glyph glyph-name="Tcaron" unicode="&#x164;" horiz-adv-x="1191" 
d="M641 1798l164 -192l237 192h86l-274 -244h-117l-166 244h70zM803 1372l-293 -1372h-88l293 1372h-510l16 80h1108l-16 -80h-510z" />
    <glyph glyph-name="tcaron" unicode="&#x165;" horiz-adv-x="563" 
d="M442 1280l-65 -309h209l-15 -74h-211l-122 -582q-17 -69 -17 -112q0 -65 34.5 -103.5t104.5 -38.5q43 0 64 9l-16 -72q-19 -8 -58 -8q-104 0 -157.5 55t-53.5 154q0 42 19 129l121 569h-189l14 74h52q71 0 109 24.5t57 104.5l38 180h82zM602 1108h-67l163 369h93z" />
    <glyph glyph-name="Tbar" unicode="&#x166;" horiz-adv-x="1191" 
d="M803 1372l-131 -614h264l-14 -74h-267l-145 -684h-88l145 684h-252l15 74h254l131 614h-510l16 80h1108l-16 -80h-510z" />
    <glyph glyph-name="tbar" unicode="&#x167;" horiz-adv-x="563" 
d="M442 1280l-65 -309h209l-15 -74h-211l-73 -346h231l-14 -74h-234l-32 -162q-17 -69 -17 -112q0 -65 34.5 -103.5t104.5 -38.5q43 0 64 9l-16 -72q-19 -8 -58 -8q-104 0 -157.5 55t-53.5 154q0 42 19 129l30 149h-165l14 74h168l74 346h-189l14 74h52q71 0 109 24.5
t57 104.5l38 180h82z" />
    <glyph glyph-name="Utilde" unicode="&#x168;" horiz-adv-x="1349" 
d="M1335 1452l-219 -1028q-47 -222 -176.5 -335.5t-331.5 -113.5q-211 0 -324.5 112.5t-113.5 307.5q0 91 16 154l193 903h88l-193 -907q-16 -82 -16 -142q0 -161 89 -254.5t267 -93.5q169 0 274 98.5t144 284.5l215 1014h88zM1137 1774q-19 -96 -66.5 -147.5t-103.5 -51.5
q-38 0 -67.5 21t-45.5 45.5t-42 45.5t-58 21q-36 0 -61 -40t-34 -89h-63q21 99 68 148t104 49q31 0 56 -13.5t41.5 -33t32.5 -38.5t37.5 -32.5t47.5 -13.5q37 0 59.5 39.5t32.5 89.5h62z" />
    <glyph glyph-name="utilde" unicode="&#x169;" horiz-adv-x="1054" 
d="M317 971l-120 -568q-15 -71 -15 -118q0 -110 60 -174t182 -64q118 0 213 100t127 256l121 568h82l-172 -809q-17 -81 -17 -162h-78q0 102 17 164q-42 -76 -125 -132.5t-189 -56.5q-144 0 -223.5 82.5t-79.5 216.5q0 54 15 125l121 572h81zM893 1335q-19 -96 -66.5 -147
t-103.5 -51q-38 0 -67.5 21t-45.5 45.5t-42 45.5t-58 21q-36 0 -60.5 -40t-33.5 -89h-64q21 98 68 147t104 49q31 0 56 -13.5t41.5 -32.5t32.5 -38.5t37.5 -33t47.5 -13.5q37 0 59.5 39.5t32.5 89.5h62z" />
    <glyph glyph-name="Umacron" unicode="&#x16a;" horiz-adv-x="1349" 
d="M1335 1452l-219 -1028q-47 -222 -176.5 -335.5t-331.5 -113.5q-211 0 -324.5 112.5t-113.5 307.5q0 91 16 154l193 903h88l-193 -907q-16 -82 -16 -142q0 -161 89 -254.5t267 -93.5q169 0 274 98.5t144 284.5l215 1014h88zM633 1640l14 74h510l-14 -74h-510z" />
    <glyph glyph-name="umacron" unicode="&#x16b;" horiz-adv-x="1054" 
d="M317 971l-120 -568q-15 -71 -15 -118q0 -110 60 -174t182 -64q118 0 213 100t127 256l121 568h82l-172 -809q-17 -81 -17 -162h-78q0 102 17 164q-42 -76 -125 -132.5t-189 -56.5q-144 0 -223.5 82.5t-79.5 216.5q0 54 15 125l121 572h81zM387 1196l14 72h496l-14 -72
h-496z" />
    <glyph glyph-name="Ubreve" unicode="&#x16c;" horiz-adv-x="1349" 
d="M1335 1452l-219 -1028q-47 -222 -176.5 -335.5t-331.5 -113.5q-211 0 -324.5 112.5t-113.5 307.5q0 91 16 154l193 903h88l-193 -907q-16 -82 -16 -142q0 -161 89 -254.5t267 -93.5q169 0 274 98.5t144 284.5l215 1014h88zM696 1798q-2 -6 -2 -24q0 -71 42.5 -116.5
t129.5 -45.5q92 0 156 52t96 134h72q-30 -105 -119.5 -179.5t-214.5 -74.5q-111 0 -169 61.5t-58 153.5q0 11 4 39h63z" />
    <glyph glyph-name="ubreve" unicode="&#x16d;" horiz-adv-x="1054" 
d="M317 971l-120 -568q-15 -71 -15 -118q0 -110 60 -174t182 -64q118 0 213 100t127 256l121 568h82l-172 -809q-17 -81 -17 -162h-78q0 102 17 164q-42 -76 -125 -132.5t-189 -56.5q-144 0 -223.5 82.5t-79.5 216.5q0 54 15 125l121 572h81zM625 1094q-111 0 -169.5 61.5
t-58.5 153.5q0 37 9 61h63q-6 -24 -6 -47q0 -71 42.5 -116.5t129.5 -45.5q100 0 169 62t91 147h68q-22 -109 -116 -192.5t-222 -83.5z" />
    <glyph glyph-name="Uring" unicode="&#x16e;" horiz-adv-x="1349" 
d="M1335 1452l-219 -1028q-47 -222 -176.5 -335.5t-331.5 -113.5q-211 0 -324.5 112.5t-113.5 307.5q0 91 16 154l193 903h88l-193 -907q-16 -82 -16 -142q0 -161 89 -254.5t267 -93.5q169 0 274 98.5t144 284.5l215 1014h88zM909 1925q77 0 125.5 -49.5t48.5 -124.5
q0 -89 -64 -153t-149 -64q-77 0 -126.5 50.5t-49.5 125.5q0 90 65.5 152.5t149.5 62.5zM758 1714q0 -51 31.5 -85t84.5 -34q60 0 104 44.5t44 107.5q0 51 -32 85t-85 34q-64 0 -105.5 -45t-41.5 -107z" />
    <glyph glyph-name="uring" unicode="&#x16f;" horiz-adv-x="1054" 
d="M676 1499q81 0 132.5 -52.5t51.5 -131.5q0 -94 -68 -163t-159 -69q-83 0 -135 53.5t-52 133.5q0 96 69.5 162.5t160.5 66.5zM512 1274q0 -55 34 -91t93 -36q62 0 110 48.5t48 115.5q0 55 -34 91t-93 36q-67 0 -112.5 -49.5t-45.5 -114.5zM317 971l-120 -568
q-15 -71 -15 -118q0 -110 60 -174t182 -64q118 0 213 100t127 256l121 568h82l-172 -809q-17 -81 -17 -162h-78q0 102 17 164q-42 -76 -125 -132.5t-189 -56.5q-144 0 -223.5 82.5t-79.5 216.5q0 54 15 125l121 572h81z" />
    <glyph glyph-name="Uhungarumlaut" unicode="&#x170;" horiz-adv-x="1349" 
d="M690 1554l170 244h98l-198 -244h-70zM924 1554l176 244h98l-205 -244h-69zM1335 1452l-219 -1028q-47 -222 -176.5 -335.5t-331.5 -113.5q-211 0 -324.5 112.5t-113.5 307.5q0 91 16 154l193 903h88l-193 -907q-16 -82 -16 -142q0 -161 89 -254.5t267 -93.5
q169 0 274 98.5t144 284.5l215 1014h88z" />
    <glyph glyph-name="uhungarumlaut" unicode="&#x171;" horiz-adv-x="1054" 
d="M317 971l-120 -568q-15 -71 -15 -118q0 -110 60 -174t182 -64q118 0 213 100t127 256l121 568h82l-172 -809q-17 -81 -17 -162h-78q0 102 17 164q-42 -76 -125 -132.5t-189 -56.5q-144 0 -223.5 82.5t-79.5 216.5q0 54 15 125l121 572h81zM522 1094h-65l192 276h92z
M731 1094h-65l198 276h92z" />
    <glyph glyph-name="Uogonek" unicode="&#x172;" horiz-adv-x="1349" 
d="M467 -262q0 -46 32.5 -70t84.5 -24q36 0 78 10l-15 -62q-47 -14 -88 -14q-74 0 -120 38.5t-46 104.5q0 74 46 141t114 115q-185 17 -284 127t-99 291q0 91 16 154l193 903h88l-193 -907q-16 -82 -16 -142q0 -161 89 -254.5t267 -93.5q169 0 274 98.5t144 284.5l215 1014
h88l-219 -1028q-84 -396 -434 -444q-77 -12 -146 -89t-69 -153z" />
    <glyph glyph-name="uogonek" unicode="&#x173;" horiz-adv-x="1054" 
d="M317 971l-120 -568q-15 -71 -15 -118q0 -110 60 -174t182 -64q118 0 213 100t127 256l121 568h82l-172 -809q-17 -81 -17 -162q-81 -39 -149 -110.5t-68 -151.5q0 -46 31.5 -70t83.5 -24q36 0 78 10l-15 -62q-47 -14 -88 -14q-74 0 -120 38.5t-46 104.5q0 90 65 168.5
t150 120.5q0 94 17 154q-42 -76 -125 -132.5t-189 -56.5q-144 0 -223.5 82.5t-79.5 216.5q0 54 15 125l121 572h81z" />
    <glyph glyph-name="Wcircumflex" unicode="&#x174;" horiz-adv-x="1970" 
d="M1384 1554l-163 193l-238 -193h-86l274 244h117l166 -244h-70zM451 0h-103l-115 1452h89l100 -1331l678 1331h100l154 -1333l641 1333h94l-705 -1452h-100l-156 1333z" />
    <glyph glyph-name="wcircumflex" unicode="&#x175;" horiz-adv-x="1523" 
d="M899 1319l-256 -225h-82l289 276h115l165 -276h-63zM225 971l76 -860l483 860h111l102 -871l461 871h88l-522 -971h-90l-107 899l-508 -899h-81l-97 971h84z" />
    <glyph glyph-name="Ycircumflex" unicode="&#x176;" horiz-adv-x="1177" 
d="M246 1452h92l280 -737l564 737h102l-641 -821l-135 -631h-86l139 643zM963 1554l-164 193l-238 -193h-86l275 244h116l166 -244h-69z" />
    <glyph glyph-name="ycircumflex" unicode="&#x177;" horiz-adv-x="966" 
d="M10 -389l361 532l-242 828h86l211 -752l492 752h96l-910 -1360h-94zM627 1319l-256 -225h-82l289 276h114l166 -276h-63z" />
    <glyph glyph-name="Ydieresis" unicode="&#x178;" horiz-adv-x="1177" 
d="M246 1452h92l280 -737l564 737h102l-641 -821l-135 -631h-86l139 643zM510 1667q0 36 21.5 59t56.5 23q25 0 41 -19t16 -44q0 -32 -22 -55t-54 -23q-28 0 -43.5 17t-15.5 42zM897 1667q0 36 21.5 59t56.5 23q25 0 41 -19t16 -44q0 -32 -22 -55t-54 -23q-28 0 -43.5 17
t-15.5 42z" />
    <glyph glyph-name="Zacute" unicode="&#x179;" horiz-adv-x="1214" 
d="M784 1554h-88l273 244h123zM-57 0l20 92l1251 1280h-958l16 80h1063l-20 -90l-1254 -1282h949l-17 -80h-1050z" />
    <glyph glyph-name="zacute" unicode="&#x17a;" horiz-adv-x="915" 
d="M498 1094l264 276h129l-318 -276h-75zM-53 0l12 74l827 823h-622l14 74h729l-12 -74l-829 -823h665l-14 -74h-770z" />
    <glyph glyph-name="Zdotaccent" unicode="&#x17b;" horiz-adv-x="1214" 
d="M-57 0l20 92l1251 1280h-958l16 80h1063l-20 -90l-1254 -1282h949l-17 -80h-1050zM752 1665q0 36 25 63t61 27q28 0 45.5 -22t17.5 -50q0 -35 -23.5 -59.5t-58.5 -24.5q-29 0 -48 19.5t-19 46.5z" />
    <glyph glyph-name="zdotaccent" unicode="&#x17c;" horiz-adv-x="915" 
d="M-53 0l12 74l827 823h-622l14 74h729l-12 -74l-829 -823h665l-14 -74h-770zM512 1221q0 36 25 63t61 27q28 0 46 -22t18 -50q0 -35 -23.5 -59.5t-58.5 -24.5q-29 0 -48.5 19.5t-19.5 46.5z" />
    <glyph glyph-name="Zcaron" unicode="&#x17d;" horiz-adv-x="1214" 
d="M659 1798l164 -192l238 192h86l-275 -244h-116l-166 244h69zM-57 0l20 92l1251 1280h-958l16 80h1063l-20 -90l-1254 -1282h949l-17 -80h-1050z" />
    <glyph glyph-name="zcaron" unicode="&#x17e;" horiz-adv-x="915" 
d="M551 1145l260 225h78l-291 -276h-113l-166 276h64zM-53 0l12 74l827 823h-622l14 74h729l-12 -74l-829 -823h665l-14 -74h-770z" />
    <glyph glyph-name="uni018F" unicode="&#x18f;" horiz-adv-x="1591" 
d="M100 606q0 40 11 111h1302q8 52 8 123q0 130 -43 236t-117 175.5t-173.5 107.5t-213.5 38q-183 0 -341.5 -95t-249.5 -264l-72 35q101 188 283 296t383 108q176 0 319 -73.5t229 -218t86 -335.5q0 -167 -44 -311t-119.5 -246t-175.5 -175t-213 -108t-232 -35
q-131 0 -247 46.5t-199.5 128.5t-132 200.5t-48.5 255.5zM729 55q114 0 221.5 38.5t198.5 111t157.5 185.5t94.5 253h-1219v-33q0 -164 72 -291t196.5 -195.5t278.5 -68.5z" />
    <glyph glyph-name="florin" unicode="&#x192;" horiz-adv-x="735" 
d="M362 897h-247v74h262l47 231q28 138 109 208.5t194 70.5q58 0 117 -19v-76q-1 0 -12.5 3.5t-23 6t-31 5t-38.5 2.5q-87 0 -148 -53.5t-85 -169.5l-43 -209h276v-74h-290l-181 -909q-28 -138 -108 -208.5t-193 -70.5q-62 0 -121 19v75q1 0 13 -3t23.5 -5.5t32 -5
t40.5 -2.5q85 0 147 55t84 168z" />
    <glyph glyph-name="Ohorn" unicode="&#x1a0;" horiz-adv-x="1570" 
d="M727 -25q-121 0 -227 40.5t-187.5 116.5t-128.5 196.5t-47 269.5q0 141 32 266.5t88 220.5t130 170.5t160 123.5t176.5 73t179.5 25q65 0 134.5 -12.5t103.5 -12.5q71 0 114.5 45t57.5 119h88q-20 -96 -75 -147.5t-126 -63.5q135 -73 214 -214.5t79 -336.5
q0 -141 -32 -266.5t-88 -220.5t-130 -170.5t-160 -123.5t-176.5 -73t-179.5 -25zM733 55q94 0 188 31.5t181 98t154.5 158.5t108 223.5t40.5 283.5q0 134 -40.5 240.5t-110.5 172.5t-161 100t-196 34q-94 0 -188 -31.5t-181 -98t-154.5 -158.5t-108 -223.5t-40.5 -283.5
q0 -134 40.5 -240.5t110.5 -172.5t161 -100t196 -34z" />
    <glyph glyph-name="ohorn" unicode="&#x1a1;" horiz-adv-x="1105" 
d="M471 -25q-175 0 -286 118t-111 306q0 134 45 248.5t119 189t166 116.5t188 42q71 0 139 -22q12 -2 39 -2q71 0 114.5 45t57.5 119h88q-20 -98 -75 -149.5t-128 -63.5q77 -54 119.5 -145t42.5 -206q0 -134 -45 -248.5t-118.5 -189.5t-165.5 -116.5t-189 -41.5zM586 922
q-75 0 -150.5 -35t-139 -98t-103 -163t-39.5 -218q0 -161 91 -260t232 -99q60 0 120.5 22t116.5 66.5t99.5 105t69.5 145t26 179.5q0 162 -90.5 258.5t-232.5 96.5z" />
    <glyph glyph-name="Uhorn" unicode="&#x1af;" horiz-adv-x="1349" 
d="M1432 1616h88q-20 -95 -73 -146.5t-122 -64.5l-209 -981q-47 -222 -176.5 -335.5t-331.5 -113.5q-211 0 -324.5 112.5t-113.5 307.5q0 91 16 154l193 903h88l-193 -907q-16 -82 -16 -142q0 -161 89 -254.5t267 -93.5q169 0 274 98.5t144 284.5l215 1014h13q71 0 114.5 45
t57.5 119z" />
    <glyph glyph-name="uhorn" unicode="&#x1b0;" horiz-adv-x="1054" 
d="M317 971l-120 -568q-15 -71 -15 -118q0 -110 60 -174t182 -64q118 0 213 100t127 256l121 568h8q71 0 114.5 45t57.5 119h88q-21 -95 -74 -147.5t-123 -63.5l-161 -762q-17 -81 -17 -162h-78q0 102 17 164q-42 -76 -125 -132.5t-189 -56.5q-144 0 -223.5 82.5
t-79.5 216.5q0 54 15 125l121 572h81z" />
    <glyph glyph-name="uni01B5" unicode="&#x1b5;" horiz-adv-x="1214" 
d="M-57 0l20 92l615 629h-351l15 74h407l565 577h-958l16 80h1063l-20 -90l-555 -567h362l-14 -74h-420l-627 -641h949l-17 -80h-1050z" />
    <glyph glyph-name="uni01B6" unicode="&#x1b6;" horiz-adv-x="915" 
d="M-53 0l12 74l408 405h-279l14 68h332l352 350h-622l14 74h729l-12 -74l-354 -350h266l-14 -68h-320l-407 -405h665l-14 -74h-770z" />
    <glyph glyph-name="Aringacute" unicode="&#x1fa;" horiz-adv-x="1316" 
d="M971 504h-649l-295 -504h-101l836 1409q-94 51 -94 158q0 90 65.5 152.5t149.5 62.5q77 0 125.5 -49.5t48.5 -124.5q0 -72 -44.5 -130t-111.5 -79l242 -1399h-86zM369 584h587l-131 778zM952 1843h-88l273 244h123zM731 1571q0 -51 32 -85t85 -34q60 0 103.5 44.5
t43.5 107.5q0 51 -31.5 84.5t-84.5 33.5q-64 0 -106 -44.5t-42 -106.5z" />
    <glyph glyph-name="aringacute" unicode="&#x1fb;" horiz-adv-x="1140" 
d="M856 451q14 72 14 124q0 153 -80.5 250t-224.5 97q-108 0 -203 -66.5t-153.5 -187.5t-58.5 -267q0 -155 82 -254.5t227 -99.5q142 0 251 113.5t146 290.5zM809 184q-150 -209 -360 -209q-172 0 -274.5 119.5t-102.5 292.5q0 129 40.5 243t108 193.5t158 125.5t188.5 46
q73 0 132.5 -20t95.5 -49t62.5 -68t38 -71t17.5 -64l54 248h82l-148 -692q-20 -103 -20 -189q0 -65 2 -90h-78q-4 46 -4 76q0 53 8 108zM684 1579l250 262h123l-301 -262h-72zM686 1499q81 0 132.5 -52.5t51.5 -131.5q0 -94 -68 -163t-159 -69q-83 0 -134.5 53.5
t-51.5 133.5q0 96 69 162.5t160 66.5zM522 1274q0 -55 34 -91t93 -36q62 0 110 48.5t48 115.5q0 55 -34 91t-93 36q-67 0 -112.5 -49.5t-45.5 -114.5z" />
    <glyph glyph-name="AEacute" unicode="&#x1fc;" horiz-adv-x="1961" 
d="M1327 1554h-88l272 244h123zM895 0l96 453h-602l-391 -453h-109l1272 1452h860l-16 -80h-731l-129 -604h661l-16 -80h-662l-129 -608h748l-16 -80h-836zM1186 1366l-729 -836h551z" />
    <glyph glyph-name="aeacute" unicode="&#x1fd;" horiz-adv-x="1746" 
d="M856 1094l264 276h129l-317 -276h-76zM825 479q-4 -18 -4 -80q0 -157 95.5 -254.5t244.5 -97.5q113 0 206.5 64t148.5 163l65 -43q-65 -116 -178 -187t-250 -71q-147 0 -252.5 76.5t-142.5 212.5q-11 -26 -25 -51q-56 -106 -159 -171t-230 -65q-153 0 -236 74t-83 178
q0 136 97 213.5t245 85.5l278 15q43 2 71 16t40.5 37.5t17 46.5t4.5 55q0 99 -67.5 158t-192.5 59q-110 0 -192 -60t-117 -165l-74 25q43 127 146 199.5t239 72.5q144 0 226 -59.5t104 -157.5q73 108 180 167.5t223 59.5q189 0 291.5 -111.5t102.5 -283.5q0 -54 -13 -121
h-809zM1251 922q-145 0 -256.5 -106t-154.5 -265h719q4 28 4 47q0 142 -81.5 233t-230.5 91zM109 233q0 -86 71 -136t170 -50q129 0 231 83t130 212l34 160v4q-32 -32 -108 -35l-283 -14q-105 -5 -175 -64t-70 -160z" />
    <glyph glyph-name="Oslashacute" unicode="&#x1fe;" horiz-adv-x="1570" 
d="M727 -25q-265 0 -428 172l-172 -174l-49 47l176 179q-117 158 -117 399q0 141 32 266.5t88 220.5t130 170.5t160 123.5t176.5 73t179.5 25q130 0 242.5 -46.5t193.5 -136.5l187 189l49 -47l-193 -195q111 -154 111 -387q0 -141 -32 -266.5t-88 -220.5t-130 -170.5
t-160 -123.5t-176.5 -73t-179.5 -25zM225 602q0 -201 90 -340l965 973q-143 162 -383 162q-94 0 -188 -31.5t-181 -98t-154.5 -158.5t-108 -223.5t-40.5 -283.5zM733 55q94 0 188 31.5t181 98t154.5 158.5t108 223.5t40.5 283.5q0 200 -84 328l-963 -971q134 -152 375 -152z
M983 1554h-88l272 244h123z" />
    <glyph glyph-name="oslashacute" unicode="&#x1ff;" horiz-adv-x="1105" 
d="M471 -25q-180 0 -291 123l-119 -114l-45 51l123 119q-65 103 -65 245q0 134 45 248.5t119 189t166 116.5t188 42q180 0 291 -123l116 113l45 -51l-120 -117q65 -108 65 -246q0 -134 -45 -248.5t-118.5 -189.5t-165.5 -116.5t-189 -41.5zM586 922q-75 0 -150.5 -35
t-139 -98t-103 -163t-39.5 -218q0 -114 45 -197l626 606q-91 105 -239 105zM909 567q0 113 -45 193l-626 -606q94 -105 239 -105q60 0 120.5 22t116.5 66.5t99.5 105t69.5 145t26 179.5zM594 1094l264 276h129l-317 -276h-76z" />
    <glyph glyph-name="Scommaaccent" unicode="&#x218;" horiz-adv-x="1155" 
d="M1042 1057q0 70 -22 130.5t-65 108.5t-113.5 75.5t-161.5 27.5q-135 0 -241.5 -86t-106.5 -219q0 -96 46 -160t144 -107l217 -98q132 -62 198.5 -145t66.5 -199q0 -182 -135.5 -296t-340.5 -114q-206 0 -331 115t-125 307q0 60 8 101l84 14q-10 -58 -10 -100
q0 -157 98.5 -258t282.5 -101q165 0 272.5 90.5t107.5 231.5q0 93 -49 158t-164 118l-221 101q-115 53 -175 132.5t-60 196.5t65 209.5t164.5 139.5t210.5 47t196.5 -33.5t136 -91.5t77 -128t28.5 -151zM360 -182q0 34 24 61t58 27q33 0 56.5 -21.5t23.5 -62.5
q0 -53 -22.5 -97.5t-56.5 -71.5t-72.5 -41.5t-73.5 -14.5l10 51q52 2 95 34t55 82q-11 -8 -31 -8q-30 0 -48 18t-18 44z" />
    <glyph glyph-name="scommaaccent" unicode="&#x219;" horiz-adv-x="862" 
d="M715 688q0 97 -63.5 167.5t-184.5 70.5q-92 0 -164 -56.5t-72 -136.5q0 -57 31.5 -97.5t108.5 -76.5l143 -65q82 -37 127 -96t45 -132q0 -124 -91.5 -207.5t-236.5 -83.5q-153 0 -243 81.5t-90 217.5q0 28 6 52l75 20q-4 -28 -4 -51q0 -111 66 -179.5t190 -68.5
q103 0 173.5 57t70.5 148q0 112 -137 176l-139 64q-84 38 -129 92.5t-45 134.5q0 117 90.5 196.5t228.5 79.5q80 0 143 -25t101 -66.5t58 -91.5t20 -103zM225 -182q0 34 24 61t58 27q33 0 56.5 -21.5t23.5 -62.5q0 -53 -22.5 -97.5t-56.5 -71.5t-72.5 -41.5t-73.5 -14.5
l10 51q52 2 95 34t55 82q-11 -8 -31 -8q-30 0 -48 18t-18 44z" />
    <glyph glyph-name="uni021A" unicode="&#x21a;" horiz-adv-x="1191" 
d="M803 1372l-293 -1372h-88l293 1372h-510l16 80h1108l-16 -80h-510zM348 -182q0 34 24 61t58 27q33 0 56.5 -21.5t23.5 -62.5q0 -53 -22.5 -97.5t-56.5 -71.5t-72.5 -41.5t-73.5 -14.5l10 51q52 2 94.5 34t54.5 82q-11 -8 -30 -8q-30 0 -48 18t-18 44z" />
    <glyph glyph-name="uni021B" unicode="&#x21b;" horiz-adv-x="563" 
d="M90 -131l158 139q-109 46 -109 191q0 42 19 129l121 569h-189l14 74h52q71 0 109 24.5t57 104.5l38 180h82l-65 -309h209l-15 -74h-211l-122 -582q-17 -69 -17 -112q0 -65 34.5 -103.5t104.5 -38.5q43 0 64 9l-16 -72q-19 -8 -58 -8q-27 0 -41 2l-131 -113q6 2 31 2
q78 0 127 -39.5t49 -97.5q0 -75 -59 -121.5t-152 -46.5q-80 0 -140.5 36.5t-90.5 98.5l55 35q59 -108 180 -108q63 0 100 28.5t37 77.5q0 39 -34.5 64.5t-98.5 25.5q-30 0 -67 -12z" />
    <glyph glyph-name="dotlessj" unicode="&#x237;" horiz-adv-x="417" 
d="M250 971h82l-240 -1125q-28 -129 -96 -186t-172 -57q-84 0 -131 35l14 69q60 -31 121 -31q74 0 119 43t65 138z" />
    <glyph glyph-name="uni0259" unicode="&#x259;" horiz-adv-x="1077" 
d="M877 492q4 18 4 79q0 158 -95.5 254.5t-244.5 96.5q-113 0 -206.5 -64.5t-148.5 -163.5l-65 43q65 116 178 187t250 71q181 0 296.5 -116t115.5 -310q0 -130 -44.5 -243.5t-117 -189t-164 -118.5t-186.5 -43q-188 0 -290 112t-102 284q0 54 13 121h807zM451 49
q145 0 256.5 106t154.5 265h-719q-4 -28 -4 -47q0 -142 81.5 -233t230.5 -91z" />
    <glyph glyph-name="circumflex" unicode="&#x2c6;" horiz-adv-x="651" 
d="M471 1319l-256 -225h-82l289 276h115l165 -276h-63z" />
    <glyph glyph-name="caron" unicode="&#x2c7;" horiz-adv-x="651" 
d="M365 1145l260 225h77l-290 -276h-113l-166 276h64z" />
    <glyph glyph-name="uni02C9" unicode="&#x2c9;" horiz-adv-x="591" 
d="M133 1196l14 72h496l-14 -72h-496z" />
    <glyph glyph-name="breve" unicode="&#x2d8;" horiz-adv-x="647" 
d="M360 1094q-111 0 -169 61.5t-58 153.5q0 40 8 61h64q-6 -24 -6 -47q0 -71 42.5 -116.5t129.5 -45.5q100 0 169 62t91 147h67q-22 -109 -116 -192.5t-222 -83.5z" />
    <glyph glyph-name="dotaccent" unicode="&#x2d9;" horiz-adv-x="231" 
d="M133 1221q0 36 25 63t61 27q28 0 46 -22t18 -50q0 -35 -23.5 -59.5t-58.5 -24.5q-29 0 -48.5 19.5t-19.5 46.5z" />
    <glyph glyph-name="ring" unicode="&#x2da;" horiz-adv-x="495" 
d="M362 1499q81 0 133 -52.5t52 -131.5q0 -93 -68.5 -162.5t-159.5 -69.5q-83 0 -134.5 53.5t-51.5 133.5q0 96 69 162.5t160 66.5zM199 1274q0 -55 34 -91t93 -36q62 0 109.5 48.5t47.5 115.5q0 55 -34 91t-93 36q-67 0 -112 -49.5t-45 -114.5z" />
    <glyph glyph-name="ogonek" unicode="&#x2db;" horiz-adv-x="415" 
d="M170 0q-81 -39 -149 -110.5t-68 -151.5q0 -46 31.5 -70t83.5 -24q35 0 77 10l-14 -62q-47 -14 -88 -14q-74 0 -120 38.5t-46 104.5q0 98 77 183t165 119z" />
    <glyph glyph-name="tilde" unicode="&#x2dc;" horiz-adv-x="727" 
d="M586 1196q96 0 123 131h69q-23 -97 -77.5 -149t-122.5 -52q-64 0 -117 50l-41 38q-28 27 -48.5 37.5t-49.5 10.5q-47 0 -78 -33.5t-43 -95.5h-72q18 95 73.5 146.5t129.5 51.5q70 0 125 -55l39 -37q24 -24 43 -33.5t47 -9.5z" />
    <glyph glyph-name="hungarumlaut" unicode="&#x2dd;" horiz-adv-x="593" 
d="M199 1094h-66l193 276h92zM408 1094h-66l199 276h92z" />
    <glyph glyph-name="uni0394" unicode="&#x394;" horiz-adv-x="1390" 
d="M563 1452h86l561 -1452h-1204zM127 78h963l-484 1265z" />
    <glyph glyph-name="uni03A9" unicode="&#x3a9;" horiz-adv-x="1792" 
d="M901 1401q-125 0 -240 -47t-202.5 -129.5t-140 -205t-52.5 -263.5q0 -128 43 -241t117 -195t170.5 -136.5t204.5 -72.5v-111h-596v74h477q-102 29 -192.5 90t-159.5 147t-109.5 201.5t-40.5 243.5q0 157 58.5 293.5t157.5 229t230 145.5t275 53t275.5 -53t230.5 -145.5
t158 -229t59 -293.5q0 -128 -40.5 -243.5t-110 -201t-159.5 -146.5t-192 -91h477v-74h-595v111q108 18 204.5 72.5t170 136.5t116.5 195t43 241q0 141 -52.5 263.5t-140 205t-203 129.5t-241.5 47z" />
    <glyph glyph-name="uni03BC" unicode="&#x3bc;" horiz-adv-x="1140" 
d="M838 172q-32 -79 -114 -138t-202 -59q-99 0 -173 40t-109 112v-516h-82v1360h82v-596q0 -66 16 -122.5t49 -103t90.5 -73.5t134.5 -27q133 0 217 95t84 229v598h82v-783q0 -86 13 -188h-78q-10 90 -10 150v22z" />
    <glyph glyph-name="pi" unicode="&#x3c0;" horiz-adv-x="1423" 
d="M1217 6q-56 -18 -113 -18q-94 0 -143.5 57t-49.5 148v706h-465v-899h-81v899h-209v72h1048v-72h-211v-700q0 -66 35.5 -103t97.5 -37q40 0 91 15v-68z" />
    <glyph glyph-name="Wgrave" unicode="&#x1e80;" horiz-adv-x="1970" 
d="M922 1798h108l180 -244h-80zM451 0h-103l-115 1452h89l100 -1331l678 1331h100l154 -1333l641 1333h94l-705 -1452h-100l-156 1333z" />
    <glyph glyph-name="wgrave" unicode="&#x1e81;" horiz-adv-x="1523" 
d="M225 971l76 -860l483 860h111l102 -871l461 871h88l-522 -971h-90l-107 899l-508 -899h-81l-97 971h84zM829 1094l-159 276h98l125 -276h-64z" />
    <glyph glyph-name="Wacute" unicode="&#x1e82;" horiz-adv-x="1970" 
d="M1206 1554h-88l273 244h122zM451 0h-103l-115 1452h89l100 -1331l678 1331h100l154 -1333l641 1333h94l-705 -1452h-100l-156 1333z" />
    <glyph glyph-name="wacute" unicode="&#x1e83;" horiz-adv-x="1523" 
d="M831 1094l265 276h129l-318 -276h-76zM225 971l76 -860l483 860h111l102 -871l461 871h88l-522 -971h-90l-107 899l-508 -899h-81l-97 971h84z" />
    <glyph glyph-name="Wdieresis" unicode="&#x1e84;" horiz-adv-x="1970" 
d="M776 1667q0 36 21.5 59t56.5 23q25 0 41 -19t16 -44q0 -33 -21.5 -55.5t-53.5 -22.5q-28 0 -44 17t-16 42zM1409 1667q0 36 21.5 59t56.5 23q25 0 41 -19t16 -44q0 -32 -22 -55t-54 -23q-28 0 -43.5 17t-15.5 42zM451 0h-103l-115 1452h89l100 -1331l678 1331h100
l154 -1333l641 1333h94l-705 -1452h-100l-156 1333z" />
    <glyph glyph-name="wdieresis" unicode="&#x1e85;" horiz-adv-x="1523" 
d="M606 1229q0 36 21.5 59t56.5 23q25 0 41 -19.5t16 -44.5q0 -33 -21.5 -55.5t-53.5 -22.5q-28 0 -44 17.5t-16 42.5zM1016 1229q0 36 21.5 59t56.5 23q25 0 41 -19.5t16 -44.5q0 -32 -22 -55t-54 -23q-28 0 -43.5 17.5t-15.5 42.5zM225 971l76 -860l483 860h111l102 -871
l461 871h88l-522 -971h-90l-107 899l-508 -899h-81l-97 971h84z" />
    <glyph glyph-name="uni1E8A" unicode="&#x1e8a;" horiz-adv-x="1177" 
d="M600 657l-575 -657h-107l649 729l-331 723h96l293 -659l592 659h108l-657 -723l-4 -4l327 -725h-96zM694 1665q0 36 25 63t61 27q28 0 46 -22t18 -50q0 -35 -23.5 -59.5t-58.5 -24.5q-29 0 -48.5 19.5t-19.5 46.5z" />
    <glyph glyph-name="uni1E8B" unicode="&#x1e8b;" horiz-adv-x="931" 
d="M401 504l-256 467h93l221 -412l389 412h106l-460 -473l272 -498h-92l-236 436l-413 -436h-109zM494 1221q0 36 25 63t61 27q28 0 45.5 -22t17.5 -50q0 -35 -23.5 -59.5t-58.5 -24.5q-29 0 -48 19.5t-19 46.5z" />
    <glyph glyph-name="uni1EA0" unicode="&#x1ea0;" horiz-adv-x="1316" 
d="M379 -281q0 37 26 64t62 27q31 0 50.5 -21t19.5 -53q0 -36 -25 -61t-61 -25q-31 0 -51.5 19.5t-20.5 49.5zM971 504h-649l-295 -504h-101l862 1452h105l250 -1452h-86zM369 584h587l-131 778z" />
    <glyph glyph-name="uni1EA1" unicode="&#x1ea1;" horiz-adv-x="1140" 
d="M291 -281q0 37 26 64t62 27q31 0 50.5 -21t19.5 -53q0 -36 -25.5 -61t-61.5 -25q-31 0 -51 19t-20 50zM856 451q14 72 14 124q0 153 -80.5 250t-224.5 97q-108 0 -203 -66.5t-153.5 -187.5t-58.5 -267q0 -155 82 -254.5t227 -99.5q142 0 251 113.5t146 290.5zM809 184
q-150 -209 -360 -209q-172 0 -274.5 119.5t-102.5 292.5q0 129 40.5 243t108 193.5t158 125.5t188.5 46q73 0 132.5 -20t95.5 -49t62.5 -68t38 -71t17.5 -64l54 248h82l-148 -692q-20 -103 -20 -189q0 -65 2 -90h-78q-4 46 -4 76q0 53 8 108z" />
    <glyph glyph-name="uni1EA2" unicode="&#x1ea2;" horiz-adv-x="1316" 
d="M1020 1751q-16 -75 -129 -176h-66q109 109 121 174q10 46 -16 68t-70 22q-41 0 -65 -8l14 70q49 6 84 6q69 -2 106 -40t21 -116zM971 504h-649l-295 -504h-101l862 1452h105l250 -1452h-86zM369 584h587l-131 778z" />
    <glyph glyph-name="uni1EA3" unicode="&#x1ea3;" horiz-adv-x="1140" 
d="M840 1313q-16 -75 -129 -176h-66q109 109 121 174q10 46 -16 68t-70 22q-42 0 -66 -8l15 69q49 6 84 6q69 -2 106 -39.5t21 -115.5zM856 451q14 72 14 124q0 153 -80.5 250t-224.5 97q-108 0 -203 -66.5t-153.5 -187.5t-58.5 -267q0 -155 82 -254.5t227 -99.5
q142 0 251 113.5t146 290.5zM809 184q-150 -209 -360 -209q-172 0 -274.5 119.5t-102.5 292.5q0 129 40.5 243t108 193.5t158 125.5t188.5 46q73 0 132.5 -20t95.5 -49t62.5 -68t38 -71t17.5 -64l54 248h82l-148 -692q-20 -103 -20 -189q0 -65 2 -90h-78q-4 46 -4 76
q0 53 8 108z" />
    <glyph glyph-name="uni1EA4" unicode="&#x1ea4;" horiz-adv-x="1316" 
d="M1163 1757h-73l194 264h115zM971 504h-649l-295 -504h-101l862 1452h105l250 -1452h-86zM369 584h587l-131 778zM950 1819l152 -265h-80l-135 218l-217 -218h-86l245 265h121z" />
    <glyph glyph-name="uni1EA5" unicode="&#x1ea5;" horiz-adv-x="1140" 
d="M969 1319h-74l195 264h114zM856 451q14 72 14 124q0 153 -80.5 250t-224.5 97q-108 0 -203 -66.5t-153.5 -187.5t-58.5 -267q0 -155 82 -254.5t227 -99.5q142 0 251 113.5t146 290.5zM809 184q-150 -209 -360 -209q-172 0 -274.5 119.5t-102.5 292.5q0 129 40.5 243
t108 193.5t158 125.5t188.5 46q73 0 132.5 -20t95.5 -49t62.5 -68t38 -71t17.5 -64l54 248h82l-148 -692q-20 -103 -20 -189q0 -65 2 -90h-78q-4 46 -4 76q0 53 8 108zM756 1380l151 -264h-80l-135 217l-217 -217h-86l246 264h121z" />
    <glyph glyph-name="uni1EA6" unicode="&#x1ea6;" horiz-adv-x="1316" 
d="M1206 1757h-69l-127 264h104zM971 504h-649l-295 -504h-101l862 1452h105l250 -1452h-86zM369 584h587l-131 778zM950 1819l152 -265h-80l-135 218l-217 -218h-86l245 265h121z" />
    <glyph glyph-name="uni1EA7" unicode="&#x1ea7;" horiz-adv-x="1140" 
d="M1012 1319h-70l-127 264h105zM856 451q14 72 14 124q0 153 -80.5 250t-224.5 97q-108 0 -203 -66.5t-153.5 -187.5t-58.5 -267q0 -155 82 -254.5t227 -99.5q142 0 251 113.5t146 290.5zM809 184q-150 -209 -360 -209q-172 0 -274.5 119.5t-102.5 292.5q0 129 40.5 243
t108 193.5t158 125.5t188.5 46q73 0 132.5 -20t95.5 -49t62.5 -68t38 -71t17.5 -64l54 248h82l-148 -692q-20 -103 -20 -189q0 -65 2 -90h-78q-4 46 -4 76q0 53 8 108zM756 1380l151 -264h-80l-135 217l-217 -217h-86l246 264h121z" />
    <glyph glyph-name="uni1EA8" unicode="&#x1ea8;" horiz-adv-x="1316" 
d="M1268 1933q-16 -75 -129 -176h-66q109 109 121 174q10 46 -16 68t-70 22q-42 0 -66 -8l15 70q49 6 84 6q69 -2 106 -40t21 -116zM971 504h-649l-295 -504h-101l862 1452h105l250 -1452h-86zM369 584h587l-131 778zM950 1819l152 -265h-80l-135 218l-217 -218h-86l245 265
h121z" />
    <glyph glyph-name="uni1EA9" unicode="&#x1ea9;" horiz-adv-x="1140" 
d="M1073 1495q-16 -75 -129 -176h-65q107 107 120 174q10 46 -15.5 68t-70.5 22q-41 0 -65 -8l14 70q50 6 84 6q69 -2 106 -40t21 -116zM856 451q14 72 14 124q0 153 -80.5 250t-224.5 97q-108 0 -203 -66.5t-153.5 -187.5t-58.5 -267q0 -155 82 -254.5t227 -99.5
q142 0 251 113.5t146 290.5zM809 184q-150 -209 -360 -209q-172 0 -274.5 119.5t-102.5 292.5q0 129 40.5 243t108 193.5t158 125.5t188.5 46q73 0 132.5 -20t95.5 -49t62.5 -68t38 -71t17.5 -64l54 248h82l-148 -692q-20 -103 -20 -189q0 -65 2 -90h-78q-4 46 -4 76
q0 53 8 108zM756 1380l151 -264h-80l-135 217l-217 -217h-86l246 264h121z" />
    <glyph glyph-name="uni1EAA" unicode="&#x1eaa;" horiz-adv-x="1316" 
d="M1184 2079q-19 -96 -66.5 -147.5t-103.5 -51.5q-38 0 -67.5 21t-45.5 45.5t-42 45.5t-58 21q-36 0 -60.5 -40t-33.5 -89h-64q21 99 68 148t104 49q31 0 56 -13.5t41.5 -33t32.5 -38.5t37.5 -32.5t47.5 -13.5q37 0 59.5 39.5t32.5 89.5h62zM971 504h-649l-295 -504h-101
l862 1452h105l250 -1452h-86zM369 584h587l-131 778zM950 1819l152 -265h-80l-135 218l-217 -218h-86l245 265h121z" />
    <glyph glyph-name="uni1EAB" unicode="&#x1eab;" horiz-adv-x="1140" 
d="M989 1640q-19 -96 -66.5 -147t-103.5 -51q-38 0 -67.5 21t-45.5 45.5t-42 45.5t-58 21q-36 0 -60.5 -40t-33.5 -89h-63q21 98 68 147t104 49q31 0 56 -13.5t41.5 -33t32.5 -38.5t37.5 -32.5t47.5 -13.5q37 0 59.5 39.5t32.5 89.5h61zM856 451q14 72 14 124
q0 153 -80.5 250t-224.5 97q-108 0 -203 -66.5t-153.5 -187.5t-58.5 -267q0 -155 82 -254.5t227 -99.5q142 0 251 113.5t146 290.5zM809 184q-150 -209 -360 -209q-172 0 -274.5 119.5t-102.5 292.5q0 129 40.5 243t108 193.5t158 125.5t188.5 46q73 0 132.5 -20t95.5 -49
t62.5 -68t38 -71t17.5 -64l54 248h82l-148 -692q-20 -103 -20 -189q0 -65 2 -90h-78q-4 46 -4 76q0 53 8 108zM756 1380l151 -264h-80l-135 217l-217 -217h-86l246 264h121z" />
    <glyph glyph-name="uni1EAC" unicode="&#x1eac;" horiz-adv-x="1316" 
d="M379 -281q0 37 26 64t62 27q31 0 50.5 -21t19.5 -53q0 -36 -25 -61t-61 -25q-31 0 -51.5 19.5t-20.5 49.5zM971 504h-649l-295 -504h-101l862 1452h105l250 -1452h-86zM369 584h587l-131 778zM950 1819l152 -265h-80l-135 218l-217 -218h-86l245 265h121z" />
    <glyph glyph-name="uni1EAD" unicode="&#x1ead;" horiz-adv-x="1140" 
d="M291 -281q0 37 26 64t62 27q31 0 50.5 -21t19.5 -53q0 -36 -25.5 -61t-61.5 -25q-31 0 -51 19t-20 50zM856 451q14 72 14 124q0 153 -80.5 250t-224.5 97q-108 0 -203 -66.5t-153.5 -187.5t-58.5 -267q0 -155 82 -254.5t227 -99.5q142 0 251 113.5t146 290.5zM809 184
q-150 -209 -360 -209q-172 0 -274.5 119.5t-102.5 292.5q0 129 40.5 243t108 193.5t158 125.5t188.5 46q73 0 132.5 -20t95.5 -49t62.5 -68t38 -71t17.5 -64l54 248h82l-148 -692q-20 -103 -20 -189q0 -65 2 -90h-78q-4 46 -4 76q0 53 8 108zM756 1380l151 -264h-80
l-135 217l-217 -217h-86l246 264h121z" />
    <glyph glyph-name="uni1EAE" unicode="&#x1eae;" horiz-adv-x="1316" 
d="M928 1858h-74l195 264h114zM971 504h-649l-295 -504h-101l862 1452h105l250 -1452h-86zM369 584h587l-131 778zM854 1554q-113 0 -165.5 63t-33.5 179h68q-11 -79 22.5 -126.5t122.5 -47.5q88 0 140 47.5t71 126.5h70q-28 -118 -103.5 -180t-191.5 -62z" />
    <glyph glyph-name="uni1EAF" unicode="&#x1eaf;" horiz-adv-x="1140" 
d="M709 1419h-74l194 264h115zM856 451q14 72 14 124q0 153 -80.5 250t-224.5 97q-108 0 -203 -66.5t-153.5 -187.5t-58.5 -267q0 -155 82 -254.5t227 -99.5q142 0 251 113.5t146 290.5zM809 184q-150 -209 -360 -209q-172 0 -274.5 119.5t-102.5 292.5q0 129 40.5 243
t108 193.5t158 125.5t188.5 46q73 0 132.5 -20t95.5 -49t62.5 -68t38 -71t17.5 -64l54 248h82l-148 -692q-20 -103 -20 -189q0 -65 2 -90h-78q-4 46 -4 76q0 53 8 108zM635 1116q-113 0 -165.5 63t-33.5 179h68q-11 -79 22.5 -126.5t122.5 -47.5q88 0 140 47.5t71 126.5h70
q-28 -118 -103.5 -180t-191.5 -62z" />
    <glyph glyph-name="uni1EB0" unicode="&#x1eb0;" horiz-adv-x="1316" 
d="M956 1858h-69l-127 264h104zM971 504h-649l-295 -504h-101l862 1452h105l250 -1452h-86zM369 584h587l-131 778zM854 1554q-113 0 -165.5 63t-33.5 179h68q-11 -79 22.5 -126.5t122.5 -47.5q88 0 140 47.5t71 126.5h70q-28 -118 -103.5 -180t-191.5 -62z" />
    <glyph glyph-name="uni1EB1" unicode="&#x1eb1;" horiz-adv-x="1140" 
d="M737 1419h-69l-127 264h104zM856 451q14 72 14 124q0 153 -80.5 250t-224.5 97q-108 0 -203 -66.5t-153.5 -187.5t-58.5 -267q0 -155 82 -254.5t227 -99.5q142 0 251 113.5t146 290.5zM809 184q-150 -209 -360 -209q-172 0 -274.5 119.5t-102.5 292.5q0 129 40.5 243
t108 193.5t158 125.5t188.5 46q73 0 132.5 -20t95.5 -49t62.5 -68t38 -71t17.5 -64l54 248h82l-148 -692q-20 -103 -20 -189q0 -65 2 -90h-78q-4 46 -4 76q0 53 8 108zM635 1116q-113 0 -165.5 63t-33.5 179h68q-11 -79 22.5 -126.5t122.5 -47.5q88 0 140 47.5t71 126.5h70
q-28 -118 -103.5 -180t-191.5 -62z" />
    <glyph glyph-name="uni1EB2" unicode="&#x1eb2;" horiz-adv-x="1316" 
d="M1069 2013q-16 -75 -129 -176h-66q109 109 121 174q10 46 -15.5 68t-70.5 22q-41 0 -65 -8l14 70q50 6 84 6q69 -2 106 -40t21 -116zM971 504h-649l-295 -504h-101l862 1452h105l250 -1452h-86zM369 584h587l-131 778zM854 1554q-113 0 -165.5 63t-33.5 179h68
q-11 -79 22.5 -126.5t122.5 -47.5q88 0 140 47.5t71 126.5h70q-28 -118 -103.5 -180t-191.5 -62z" />
    <glyph glyph-name="uni1EB3" unicode="&#x1eb3;" horiz-adv-x="1140" 
d="M850 1575q-16 -75 -129 -176h-66q109 109 121 174q10 46 -16 68t-70 22q-41 0 -65 -8l14 69q58 7 84 7q69 -2 106 -40t21 -116zM856 451q14 72 14 124q0 153 -80.5 250t-224.5 97q-108 0 -203 -66.5t-153.5 -187.5t-58.5 -267q0 -155 82 -254.5t227 -99.5
q142 0 251 113.5t146 290.5zM809 184q-150 -209 -360 -209q-172 0 -274.5 119.5t-102.5 292.5q0 129 40.5 243t108 193.5t158 125.5t188.5 46q73 0 132.5 -20t95.5 -49t62.5 -68t38 -71t17.5 -64l54 248h82l-148 -692q-20 -103 -20 -189q0 -65 2 -90h-78q-4 46 -4 76
q0 53 8 108zM635 1116q-113 0 -165.5 63t-33.5 179h68q-11 -79 22.5 -126.5t122.5 -47.5q88 0 140 47.5t71 126.5h70q-28 -118 -103.5 -180t-191.5 -62z" />
    <glyph glyph-name="uni1EB4" unicode="&#x1eb4;" horiz-adv-x="1316" 
d="M1186 2056q-19 -96 -66.5 -147t-103.5 -51q-38 0 -67.5 21t-45.5 45.5t-42 45.5t-58 21q-36 0 -60.5 -40t-33.5 -89h-64q21 98 68 147t104 49q31 0 56 -13.5t41.5 -33t32.5 -38.5t37.5 -32.5t47.5 -13.5q37 0 59.5 39.5t32.5 89.5h62zM971 504h-649l-295 -504h-101
l862 1452h105l250 -1452h-86zM369 584h587l-131 778zM854 1554q-113 0 -165.5 63t-33.5 179h68q-11 -79 22.5 -126.5t122.5 -47.5q88 0 140 47.5t71 126.5h70q-28 -118 -103.5 -180t-191.5 -62z" />
    <glyph glyph-name="uni1EB5" unicode="&#x1eb5;" horiz-adv-x="1140" 
d="M967 1618q-19 -96 -66.5 -147.5t-103.5 -51.5q-38 0 -67.5 21t-45.5 45.5t-42 45.5t-58 21q-36 0 -61 -40t-34 -89h-63q21 99 68 148t104 49q31 0 56 -13.5t41.5 -33t32.5 -38.5t37.5 -32.5t47.5 -13.5q37 0 59.5 39.5t32.5 89.5h62zM856 451q14 72 14 124
q0 153 -80.5 250t-224.5 97q-108 0 -203 -66.5t-153.5 -187.5t-58.5 -267q0 -155 82 -254.5t227 -99.5q142 0 251 113.5t146 290.5zM809 184q-150 -209 -360 -209q-172 0 -274.5 119.5t-102.5 292.5q0 129 40.5 243t108 193.5t158 125.5t188.5 46q73 0 132.5 -20t95.5 -49
t62.5 -68t38 -71t17.5 -64l54 248h82l-148 -692q-20 -103 -20 -189q0 -65 2 -90h-78q-4 46 -4 76q0 53 8 108zM635 1116q-113 0 -165.5 63t-33.5 179h68q-11 -79 22.5 -126.5t122.5 -47.5q88 0 140 47.5t71 126.5h70q-28 -118 -103.5 -180t-191.5 -62z" />
    <glyph glyph-name="uni1EB6" unicode="&#x1eb6;" horiz-adv-x="1316" 
d="M379 -281q0 37 26 64t62 27q31 0 50.5 -21t19.5 -53q0 -36 -25 -61t-61 -25q-31 0 -51.5 19.5t-20.5 49.5zM971 504h-649l-295 -504h-101l862 1452h105l250 -1452h-86zM369 584h587l-131 778zM854 1554q-113 0 -165.5 63t-33.5 179h68q-11 -79 22.5 -126.5t122.5 -47.5
q88 0 140 47.5t71 126.5h70q-28 -118 -103.5 -180t-191.5 -62z" />
    <glyph glyph-name="uni1EB7" unicode="&#x1eb7;" horiz-adv-x="1140" 
d="M291 -281q0 37 26 64t62 27q31 0 50.5 -21t19.5 -53q0 -36 -25.5 -61t-61.5 -25q-31 0 -51 19t-20 50zM856 451q14 72 14 124q0 153 -80.5 250t-224.5 97q-108 0 -203 -66.5t-153.5 -187.5t-58.5 -267q0 -155 82 -254.5t227 -99.5q142 0 251 113.5t146 290.5zM809 184
q-150 -209 -360 -209q-172 0 -274.5 119.5t-102.5 292.5q0 129 40.5 243t108 193.5t158 125.5t188.5 46q73 0 132.5 -20t95.5 -49t62.5 -68t38 -71t17.5 -64l54 248h82l-148 -692q-20 -103 -20 -189q0 -65 2 -90h-78q-4 46 -4 76q0 53 8 108zM635 1116q-113 0 -165.5 63
t-33.5 179h68q-11 -79 22.5 -126.5t122.5 -47.5q88 0 140 47.5t71 126.5h70q-28 -118 -103.5 -180t-191.5 -62z" />
    <glyph glyph-name="uni1EB8" unicode="&#x1eb8;" horiz-adv-x="1155" 
d="M354 -281q0 37 26 64t62 27q31 0 50.5 -21t19.5 -53q0 -36 -25 -61t-61 -25q-31 0 -51.5 19.5t-20.5 49.5zM88 0l309 1452h817l-16 -80h-731l-129 -604h661l-16 -80h-661l-129 -608h747l-16 -80h-836z" />
    <glyph glyph-name="uni1EB9" unicode="&#x1eb9;" horiz-adv-x="1075" 
d="M332 -281q0 37 26 64t62 27q31 0 50 -21t19 -53q0 -36 -25 -61t-61 -25q-31 0 -51 19t-20 50zM156 479q-4 -18 -4 -80q0 -158 95 -254t245 -96q113 0 206 64t148 163l65 -43q-65 -116 -178 -187t-250 -71q-181 0 -296 116t-115 310q0 130 44.5 243.5t117 189t164 118.5
t186.5 43q188 0 289.5 -111.5t101.5 -283.5q0 -60 -12 -121h-807zM582 922q-145 0 -257 -106t-155 -265h719q4 28 4 47q0 142 -81 233t-230 91z" />
    <glyph glyph-name="uni1EBA" unicode="&#x1eba;" horiz-adv-x="1155" 
d="M985 1751q-16 -75 -129 -176h-65q107 107 120 174q10 46 -15.5 68t-70.5 22q-41 0 -65 -8l14 70q49 6 84 6q69 -2 106 -40t21 -116zM88 0l309 1452h817l-16 -80h-731l-129 -604h661l-16 -80h-661l-129 -608h747l-16 -80h-836z" />
    <glyph glyph-name="uni1EBB" unicode="&#x1ebb;" horiz-adv-x="1075" 
d="M813 1313q-16 -75 -129 -176h-66q109 109 121 174q10 46 -15.5 68t-70.5 22q-41 0 -65 -8l14 69q50 6 84 6q69 -2 106 -39.5t21 -115.5zM156 479q-4 -18 -4 -80q0 -158 95 -254t245 -96q113 0 206 64t148 163l65 -43q-65 -116 -178 -187t-250 -71q-181 0 -296 116
t-115 310q0 130 44.5 243.5t117 189t164 118.5t186.5 43q188 0 289.5 -111.5t101.5 -283.5q0 -60 -12 -121h-807zM582 922q-145 0 -257 -106t-155 -265h719q4 28 4 47q0 142 -81 233t-230 91z" />
    <glyph glyph-name="uni1EBC" unicode="&#x1ebc;" horiz-adv-x="1155" 
d="M1094 1774q-19 -96 -66.5 -147.5t-103.5 -51.5q-38 0 -67.5 21t-45.5 45.5t-42 45.5t-58 21q-36 0 -61 -40t-34 -89h-63q21 99 68 148t104 49q31 0 56 -13.5t41.5 -33t32.5 -38.5t37.5 -32.5t47.5 -13.5q37 0 59.5 39.5t32.5 89.5h62zM88 0l309 1452h817l-16 -80h-731
l-129 -604h661l-16 -80h-661l-129 -608h747l-16 -80h-836z" />
    <glyph glyph-name="uni1EBD" unicode="&#x1ebd;" horiz-adv-x="1075" 
d="M928 1335q-19 -96 -66.5 -147t-103.5 -51q-38 0 -67.5 21t-45.5 45.5t-42 45.5t-58 21q-36 0 -60.5 -40t-33.5 -89h-64q21 98 68 147t104 49q31 0 56 -13.5t41.5 -32.5t32.5 -38.5t37.5 -33t47.5 -13.5q37 0 59.5 39.5t32.5 89.5h62zM156 479q-4 -18 -4 -80
q0 -158 95 -254t245 -96q113 0 206 64t148 163l65 -43q-65 -116 -178 -187t-250 -71q-181 0 -296 116t-115 310q0 130 44.5 243.5t117 189t164 118.5t186.5 43q188 0 289.5 -111.5t101.5 -283.5q0 -60 -12 -121h-807zM582 922q-145 0 -257 -106t-155 -265h719q4 28 4 47
q0 142 -81 233t-230 91z" />
    <glyph glyph-name="uni1EBE" unicode="&#x1ebe;" horiz-adv-x="1155" 
d="M1124 1757h-73l194 264h115zM88 0l309 1452h817l-16 -80h-731l-129 -604h661l-16 -80h-661l-129 -608h747l-16 -80h-836zM911 1819l152 -265h-80l-135 218l-217 -218h-86l246 265h120z" />
    <glyph glyph-name="uni1EBF" unicode="&#x1ebf;" horiz-adv-x="1075" 
d="M950 1319h-73l194 264h115zM156 479q-4 -18 -4 -80q0 -158 95 -254t245 -96q113 0 206 64t148 163l65 -43q-65 -116 -178 -187t-250 -71q-181 0 -296 116t-115 310q0 130 44.5 243.5t117 189t164 118.5t186.5 43q188 0 289.5 -111.5t101.5 -283.5q0 -60 -12 -121h-807z
M582 922q-145 0 -257 -106t-155 -265h719q4 28 4 47q0 142 -81 233t-230 91zM737 1380l152 -264h-80l-135 217l-217 -217h-86l245 264h121z" />
    <glyph glyph-name="uni1EC0" unicode="&#x1ec0;" horiz-adv-x="1155" 
d="M1167 1757h-69l-127 264h104zM88 0l309 1452h817l-16 -80h-731l-129 -604h661l-16 -80h-661l-129 -608h747l-16 -80h-836zM911 1819l152 -265h-80l-135 218l-217 -218h-86l246 265h120z" />
    <glyph glyph-name="uni1EC1" unicode="&#x1ec1;" horiz-adv-x="1075" 
d="M993 1319h-69l-127 264h104zM156 479q-4 -18 -4 -80q0 -158 95 -254t245 -96q113 0 206 64t148 163l65 -43q-65 -116 -178 -187t-250 -71q-181 0 -296 116t-115 310q0 130 44.5 243.5t117 189t164 118.5t186.5 43q188 0 289.5 -111.5t101.5 -283.5q0 -60 -12 -121h-807z
M582 922q-145 0 -257 -106t-155 -265h719q4 28 4 47q0 142 -81 233t-230 91zM737 1380l152 -264h-80l-135 217l-217 -217h-86l245 264h121z" />
    <glyph glyph-name="uni1EC2" unicode="&#x1ec2;" horiz-adv-x="1155" 
d="M1229 1933q-16 -75 -129 -176h-66q109 109 121 174q10 46 -15.5 68t-70.5 22q-41 0 -65 -8l14 70q50 6 84 6q69 -2 106 -40t21 -116zM88 0l309 1452h817l-16 -80h-731l-129 -604h661l-16 -80h-661l-129 -608h747l-16 -80h-836zM911 1819l152 -265h-80l-135 218l-217 -218
h-86l246 265h120z" />
    <glyph glyph-name="uni1EC3" unicode="&#x1ec3;" horiz-adv-x="1075" 
d="M1055 1495q-16 -75 -129 -176h-66q109 109 121 174q10 46 -15.5 68t-70.5 22q-42 0 -66 -8l15 70q49 6 84 6q69 -2 106 -40t21 -116zM156 479q-4 -18 -4 -80q0 -158 95 -254t245 -96q113 0 206 64t148 163l65 -43q-65 -116 -178 -187t-250 -71q-181 0 -296 116t-115 310
q0 130 44.5 243.5t117 189t164 118.5t186.5 43q188 0 289.5 -111.5t101.5 -283.5q0 -60 -12 -121h-807zM582 922q-145 0 -257 -106t-155 -265h719q4 28 4 47q0 142 -81 233t-230 91zM737 1380l152 -264h-80l-135 217l-217 -217h-86l245 264h121z" />
    <glyph glyph-name="uni1EC4" unicode="&#x1ec4;" horiz-adv-x="1155" 
d="M1145 2079q-19 -96 -66.5 -147.5t-103.5 -51.5q-38 0 -67.5 21t-45.5 45.5t-42 45.5t-58 21q-36 0 -60.5 -40t-33.5 -89h-64q21 99 68 148t104 49q31 0 56 -13.5t41.5 -33t32.5 -38.5t37.5 -32.5t47.5 -13.5q37 0 59.5 39.5t32.5 89.5h62zM88 0l309 1452h817l-16 -80
h-731l-129 -604h661l-16 -80h-661l-129 -608h747l-16 -80h-836zM911 1819l152 -265h-80l-135 218l-217 -218h-86l246 265h120z" />
    <glyph glyph-name="uni1EC5" unicode="&#x1ec5;" horiz-adv-x="1075" 
d="M971 1640q-19 -96 -66.5 -147t-103.5 -51q-38 0 -67.5 21t-45.5 45.5t-42 45.5t-58 21q-36 0 -60.5 -40t-33.5 -89h-64q21 98 68 147t104 49q31 0 56 -13.5t41.5 -33t32.5 -38.5t37.5 -32.5t47.5 -13.5q37 0 59.5 39.5t32.5 89.5h62zM156 479q-4 -18 -4 -80
q0 -158 95 -254t245 -96q113 0 206 64t148 163l65 -43q-65 -116 -178 -187t-250 -71q-181 0 -296 116t-115 310q0 130 44.5 243.5t117 189t164 118.5t186.5 43q188 0 289.5 -111.5t101.5 -283.5q0 -60 -12 -121h-807zM582 922q-145 0 -257 -106t-155 -265h719q4 28 4 47
q0 142 -81 233t-230 91zM737 1380l152 -264h-80l-135 217l-217 -217h-86l245 264h121z" />
    <glyph glyph-name="uni1EC6" unicode="&#x1ec6;" horiz-adv-x="1155" 
d="M354 -281q0 37 26 64t62 27q31 0 50.5 -21t19.5 -53q0 -36 -25 -61t-61 -25q-31 0 -51.5 19.5t-20.5 49.5zM88 0l309 1452h817l-16 -80h-731l-129 -604h661l-16 -80h-661l-129 -608h747l-16 -80h-836zM911 1819l152 -265h-80l-135 218l-217 -218h-86l246 265h120z" />
    <glyph glyph-name="uni1EC7" unicode="&#x1ec7;" horiz-adv-x="1075" 
d="M332 -281q0 37 26 64t62 27q31 0 50 -21t19 -53q0 -36 -25 -61t-61 -25q-31 0 -51 19t-20 50zM156 479q-4 -18 -4 -80q0 -158 95 -254t245 -96q113 0 206 64t148 163l65 -43q-65 -116 -178 -187t-250 -71q-181 0 -296 116t-115 310q0 130 44.5 243.5t117 189t164 118.5
t186.5 43q188 0 289.5 -111.5t101.5 -283.5q0 -60 -12 -121h-807zM582 922q-145 0 -257 -106t-155 -265h719q4 28 4 47q0 142 -81 233t-230 91zM737 1380l152 -264h-80l-135 217l-217 -217h-86l245 264h121z" />
    <glyph glyph-name="uni1EC8" unicode="&#x1ec8;" horiz-adv-x="516" 
d="M631 1751q-16 -75 -129 -176h-66q109 109 121 174q10 46 -15.5 68t-70.5 22q-41 0 -65 -8l14 70q50 6 84 6q69 -2 106 -40t21 -116zM88 0l309 1452h88l-309 -1452h-88z" />
    <glyph glyph-name="uni1EC9" unicode="&#x1ec9;" horiz-adv-x="417" 
d="M479 1313q-16 -75 -129 -176h-65q109 109 121 174q10 46 -16 68t-71 22q-41 0 -65 -8l14 69q50 6 84 6q69 -2 106 -39.5t21 -115.5zM43 0l207 971h82l-207 -971h-82z" />
    <glyph glyph-name="uni1ECA" unicode="&#x1eca;" horiz-adv-x="516" 
d="M-4 -281q0 37 26 64t62 27q31 0 50.5 -21t19.5 -53q0 -36 -25 -61t-61 -25q-31 0 -51.5 19.5t-20.5 49.5zM88 0l309 1452h88l-309 -1452h-88z" />
    <glyph glyph-name="uni1ECB" unicode="&#x1ecb;" horiz-adv-x="417" 
d="M-55 -281q0 37 26 64t62 27q31 0 50 -21t19 -53q0 -36 -25 -61t-61 -25q-31 0 -51 19t-20 50zM43 0l207 971h82l-207 -971h-82zM266 1229q0 37 25.5 63.5t62.5 26.5q31 0 50.5 -21t19.5 -53q0 -36 -25 -61t-61 -25q-31 0 -51.5 19.5t-20.5 50.5z" />
    <glyph glyph-name="uni1ECC" unicode="&#x1ecc;" horiz-adv-x="1570" 
d="M528 -281q0 37 26 64t62 27q31 0 50.5 -21t19.5 -53q0 -36 -25 -61t-61 -25q-31 0 -51.5 19.5t-20.5 49.5zM733 55q94 0 188 31.5t181 98t154.5 158.5t108 223.5t40.5 283.5q0 134 -40.5 240.5t-110.5 172.5t-161 100t-196 34q-94 0 -188 -31.5t-181 -98t-154.5 -158.5
t-108 -223.5t-40.5 -283.5q0 -134 40.5 -240.5t110.5 -172.5t161 -100t196 -34zM727 -25q-121 0 -227 40.5t-187.5 116.5t-128.5 196.5t-47 269.5q0 141 32 266.5t88 220.5t130 170.5t160 123.5t176.5 73t179.5 25q121 0 227 -41t187.5 -117.5t128.5 -196.5t47 -268
q0 -141 -32 -266.5t-88 -220.5t-130 -170.5t-160 -123.5t-176.5 -73t-179.5 -25z" />
    <glyph glyph-name="uni1ECD" unicode="&#x1ecd;" horiz-adv-x="1105" 
d="M291 -281q0 37 26 64t62 27q31 0 50.5 -21t19.5 -53q0 -36 -25.5 -61t-61.5 -25q-31 0 -51 19t-20 50zM586 922q-75 0 -150.5 -35t-139 -98t-103 -163t-39.5 -218q0 -161 91 -260t232 -99q60 0 120.5 22t116.5 66.5t99.5 105t69.5 145t26 179.5q0 162 -90.5 258.5
t-232.5 96.5zM471 -25q-175 0 -286 118t-111 306q0 134 45 248.5t119 189t166 116.5t188 42q178 0 287.5 -117.5t109.5 -306.5q0 -134 -45 -248.5t-118.5 -189.5t-165.5 -116.5t-189 -41.5z" />
    <glyph glyph-name="uni1ECE" unicode="&#x1ece;" horiz-adv-x="1570" 
d="M1147 1751q-16 -75 -129 -176h-66q109 109 121 174q10 46 -15.5 68t-70.5 22q-41 0 -65 -8l14 70q50 6 84 6q69 -2 106 -40t21 -116zM733 55q94 0 188 31.5t181 98t154.5 158.5t108 223.5t40.5 283.5q0 134 -40.5 240.5t-110.5 172.5t-161 100t-196 34q-94 0 -188 -31.5
t-181 -98t-154.5 -158.5t-108 -223.5t-40.5 -283.5q0 -134 40.5 -240.5t110.5 -172.5t161 -100t196 -34zM727 -25q-121 0 -227 40.5t-187.5 116.5t-128.5 196.5t-47 269.5q0 141 32 266.5t88 220.5t130 170.5t160 123.5t176.5 73t179.5 25q121 0 227 -41t187.5 -117.5
t128.5 -196.5t47 -268q0 -141 -32 -266.5t-88 -220.5t-130 -170.5t-160 -123.5t-176.5 -73t-179.5 -25z" />
    <glyph glyph-name="uni1ECF" unicode="&#x1ecf;" horiz-adv-x="1105" 
d="M831 1313q-16 -75 -129 -176h-65q109 109 121 174q10 46 -16 68t-70 22q-42 0 -66 -8l15 69q49 6 84 6q69 -2 105.5 -39.5t20.5 -115.5zM586 922q-75 0 -150.5 -35t-139 -98t-103 -163t-39.5 -218q0 -161 91 -260t232 -99q60 0 120.5 22t116.5 66.5t99.5 105t69.5 145
t26 179.5q0 162 -90.5 258.5t-232.5 96.5zM471 -25q-175 0 -286 118t-111 306q0 134 45 248.5t119 189t166 116.5t188 42q178 0 287.5 -117.5t109.5 -306.5q0 -134 -45 -248.5t-118.5 -189.5t-165.5 -116.5t-189 -41.5z" />
    <glyph glyph-name="uni1ED0" unicode="&#x1ed0;" horiz-adv-x="1570" 
d="M1270 1757h-74l195 264h114zM733 55q94 0 188 31.5t181 98t154.5 158.5t108 223.5t40.5 283.5q0 134 -40.5 240.5t-110.5 172.5t-161 100t-196 34q-94 0 -188 -31.5t-181 -98t-154.5 -158.5t-108 -223.5t-40.5 -283.5q0 -134 40.5 -240.5t110.5 -172.5t161 -100t196 -34z
M727 -25q-121 0 -227 40.5t-187.5 116.5t-128.5 196.5t-47 269.5q0 141 32 266.5t88 220.5t130 170.5t160 123.5t176.5 73t179.5 25q121 0 227 -41t187.5 -117.5t128.5 -196.5t47 -268q0 -141 -32 -266.5t-88 -220.5t-130 -170.5t-160 -123.5t-176.5 -73t-179.5 -25z
M1057 1819l151 -265h-80l-135 218l-217 -218h-86l246 265h121z" />
    <glyph glyph-name="uni1ED1" unicode="&#x1ed1;" horiz-adv-x="1105" 
d="M961 1319h-74l194 264h115zM586 922q-75 0 -150.5 -35t-139 -98t-103 -163t-39.5 -218q0 -161 91 -260t232 -99q60 0 120.5 22t116.5 66.5t99.5 105t69.5 145t26 179.5q0 162 -90.5 258.5t-232.5 96.5zM471 -25q-175 0 -286 118t-111 306q0 134 45 248.5t119 189
t166 116.5t188 42q178 0 287.5 -117.5t109.5 -306.5q0 -134 -45 -248.5t-118.5 -189.5t-165.5 -116.5t-189 -41.5zM748 1380l151 -264h-80l-135 217l-217 -217h-86l246 264h121z" />
    <glyph glyph-name="uni1ED2" unicode="&#x1ed2;" horiz-adv-x="1570" 
d="M1313 1757h-70l-127 264h105zM733 55q94 0 188 31.5t181 98t154.5 158.5t108 223.5t40.5 283.5q0 134 -40.5 240.5t-110.5 172.5t-161 100t-196 34q-94 0 -188 -31.5t-181 -98t-154.5 -158.5t-108 -223.5t-40.5 -283.5q0 -134 40.5 -240.5t110.5 -172.5t161 -100t196 -34
zM727 -25q-121 0 -227 40.5t-187.5 116.5t-128.5 196.5t-47 269.5q0 141 32 266.5t88 220.5t130 170.5t160 123.5t176.5 73t179.5 25q121 0 227 -41t187.5 -117.5t128.5 -196.5t47 -268q0 -141 -32 -266.5t-88 -220.5t-130 -170.5t-160 -123.5t-176.5 -73t-179.5 -25z
M1057 1819l151 -265h-80l-135 218l-217 -218h-86l246 265h121z" />
    <glyph glyph-name="uni1ED3" unicode="&#x1ed3;" horiz-adv-x="1105" 
d="M1004 1319h-70l-127 264h104zM586 922q-75 0 -150.5 -35t-139 -98t-103 -163t-39.5 -218q0 -161 91 -260t232 -99q60 0 120.5 22t116.5 66.5t99.5 105t69.5 145t26 179.5q0 162 -90.5 258.5t-232.5 96.5zM471 -25q-175 0 -286 118t-111 306q0 134 45 248.5t119 189
t166 116.5t188 42q178 0 287.5 -117.5t109.5 -306.5q0 -134 -45 -248.5t-118.5 -189.5t-165.5 -116.5t-189 -41.5zM748 1380l151 -264h-80l-135 217l-217 -217h-86l246 264h121z" />
    <glyph glyph-name="uni1ED4" unicode="&#x1ed4;" horiz-adv-x="1570" 
d="M1374 1933q-16 -75 -129 -176h-65q107 107 120 174q10 46 -16 68t-70 22q-41 0 -65 -8l14 70q50 6 84 6q69 -2 106 -40t21 -116zM733 55q94 0 188 31.5t181 98t154.5 158.5t108 223.5t40.5 283.5q0 134 -40.5 240.5t-110.5 172.5t-161 100t-196 34q-94 0 -188 -31.5
t-181 -98t-154.5 -158.5t-108 -223.5t-40.5 -283.5q0 -134 40.5 -240.5t110.5 -172.5t161 -100t196 -34zM727 -25q-121 0 -227 40.5t-187.5 116.5t-128.5 196.5t-47 269.5q0 141 32 266.5t88 220.5t130 170.5t160 123.5t176.5 73t179.5 25q121 0 227 -41t187.5 -117.5
t128.5 -196.5t47 -268q0 -141 -32 -266.5t-88 -220.5t-130 -170.5t-160 -123.5t-176.5 -73t-179.5 -25zM1057 1819l151 -265h-80l-135 218l-217 -218h-86l246 265h121z" />
    <glyph glyph-name="uni1ED5" unicode="&#x1ed5;" horiz-adv-x="1105" 
d="M1065 1495q-16 -75 -129 -176h-66q109 109 121 174q10 46 -15.5 68t-70.5 22q-41 0 -65 -8l14 70q49 6 84 6q69 -2 106 -40t21 -116zM586 922q-75 0 -150.5 -35t-139 -98t-103 -163t-39.5 -218q0 -161 91 -260t232 -99q60 0 120.5 22t116.5 66.5t99.5 105t69.5 145
t26 179.5q0 162 -90.5 258.5t-232.5 96.5zM471 -25q-175 0 -286 118t-111 306q0 134 45 248.5t119 189t166 116.5t188 42q178 0 287.5 -117.5t109.5 -306.5q0 -134 -45 -248.5t-118.5 -189.5t-165.5 -116.5t-189 -41.5zM748 1380l151 -264h-80l-135 217l-217 -217h-86
l246 264h121z" />
    <glyph glyph-name="uni1ED6" unicode="&#x1ed6;" horiz-adv-x="1570" 
d="M1290 2079q-19 -96 -66.5 -147.5t-103.5 -51.5q-38 0 -67.5 21t-45.5 45.5t-42 45.5t-58 21q-36 0 -60.5 -40t-33.5 -89h-63q21 99 68 148t104 49q31 0 56 -13.5t41.5 -33t32.5 -38.5t37.5 -32.5t47.5 -13.5q37 0 59.5 39.5t32.5 89.5h61zM733 55q94 0 188 31.5t181 98
t154.5 158.5t108 223.5t40.5 283.5q0 134 -40.5 240.5t-110.5 172.5t-161 100t-196 34q-94 0 -188 -31.5t-181 -98t-154.5 -158.5t-108 -223.5t-40.5 -283.5q0 -134 40.5 -240.5t110.5 -172.5t161 -100t196 -34zM727 -25q-121 0 -227 40.5t-187.5 116.5t-128.5 196.5
t-47 269.5q0 141 32 266.5t88 220.5t130 170.5t160 123.5t176.5 73t179.5 25q121 0 227 -41t187.5 -117.5t128.5 -196.5t47 -268q0 -141 -32 -266.5t-88 -220.5t-130 -170.5t-160 -123.5t-176.5 -73t-179.5 -25zM1057 1819l151 -265h-80l-135 218l-217 -218h-86l246 265h121
z" />
    <glyph glyph-name="uni1ED7" unicode="&#x1ed7;" horiz-adv-x="1105" 
d="M981 1640q-19 -96 -66.5 -147t-103.5 -51q-38 0 -67.5 21t-45.5 45.5t-42 45.5t-58 21q-36 0 -60.5 -40t-33.5 -89h-64q21 98 68 147t104 49q31 0 56 -13.5t41.5 -33t32.5 -38.5t37.5 -32.5t47.5 -13.5q37 0 60 39.5t33 89.5h61zM586 922q-75 0 -150.5 -35t-139 -98
t-103 -163t-39.5 -218q0 -161 91 -260t232 -99q60 0 120.5 22t116.5 66.5t99.5 105t69.5 145t26 179.5q0 162 -90.5 258.5t-232.5 96.5zM471 -25q-175 0 -286 118t-111 306q0 134 45 248.5t119 189t166 116.5t188 42q178 0 287.5 -117.5t109.5 -306.5q0 -134 -45 -248.5
t-118.5 -189.5t-165.5 -116.5t-189 -41.5zM748 1380l151 -264h-80l-135 217l-217 -217h-86l246 264h121z" />
    <glyph glyph-name="uni1ED8" unicode="&#x1ed8;" horiz-adv-x="1570" 
d="M528 -281q0 37 26 64t62 27q31 0 50.5 -21t19.5 -53q0 -36 -25 -61t-61 -25q-31 0 -51.5 19.5t-20.5 49.5zM733 55q94 0 188 31.5t181 98t154.5 158.5t108 223.5t40.5 283.5q0 134 -40.5 240.5t-110.5 172.5t-161 100t-196 34q-94 0 -188 -31.5t-181 -98t-154.5 -158.5
t-108 -223.5t-40.5 -283.5q0 -134 40.5 -240.5t110.5 -172.5t161 -100t196 -34zM727 -25q-121 0 -227 40.5t-187.5 116.5t-128.5 196.5t-47 269.5q0 141 32 266.5t88 220.5t130 170.5t160 123.5t176.5 73t179.5 25q121 0 227 -41t187.5 -117.5t128.5 -196.5t47 -268
q0 -141 -32 -266.5t-88 -220.5t-130 -170.5t-160 -123.5t-176.5 -73t-179.5 -25zM1057 1819l151 -265h-80l-135 218l-217 -218h-86l246 265h121z" />
    <glyph glyph-name="uni1ED9" unicode="&#x1ed9;" horiz-adv-x="1105" 
d="M291 -281q0 37 26 64t62 27q31 0 50.5 -21t19.5 -53q0 -36 -25.5 -61t-61.5 -25q-31 0 -51 19t-20 50zM586 922q-75 0 -150.5 -35t-139 -98t-103 -163t-39.5 -218q0 -161 91 -260t232 -99q60 0 120.5 22t116.5 66.5t99.5 105t69.5 145t26 179.5q0 162 -90.5 258.5
t-232.5 96.5zM471 -25q-175 0 -286 118t-111 306q0 134 45 248.5t119 189t166 116.5t188 42q178 0 287.5 -117.5t109.5 -306.5q0 -134 -45 -248.5t-118.5 -189.5t-165.5 -116.5t-189 -41.5zM748 1380l151 -264h-80l-135 217l-217 -217h-86l246 264h121z" />
    <glyph glyph-name="uni1EDA" unicode="&#x1eda;" horiz-adv-x="1570" 
d="M977 1575h-74l195 264h114zM727 -25q-121 0 -227 40.5t-187.5 116.5t-128.5 196.5t-47 269.5q0 141 32 266.5t88 220.5t130 170.5t160 123.5t176.5 73t179.5 25q65 0 134.5 -12.5t103.5 -12.5q71 0 114.5 45t57.5 119h88q-20 -96 -75 -147.5t-126 -63.5
q135 -73 214 -214.5t79 -336.5q0 -141 -32 -266.5t-88 -220.5t-130 -170.5t-160 -123.5t-176.5 -73t-179.5 -25zM733 55q94 0 188 31.5t181 98t154.5 158.5t108 223.5t40.5 283.5q0 134 -40.5 240.5t-110.5 172.5t-161 100t-196 34q-94 0 -188 -31.5t-181 -98t-154.5 -158.5
t-108 -223.5t-40.5 -283.5q0 -134 40.5 -240.5t110.5 -172.5t161 -100t196 -34z" />
    <glyph glyph-name="uni1EDB" unicode="&#x1edb;" horiz-adv-x="1105" 
d="M684 1137h-74l195 264h115zM471 -25q-175 0 -286 118t-111 306q0 134 45 248.5t119 189t166 116.5t188 42q71 0 139 -22q12 -2 39 -2q71 0 114.5 45t57.5 119h88q-20 -98 -75 -149.5t-128 -63.5q77 -54 119.5 -145t42.5 -206q0 -134 -45 -248.5t-118.5 -189.5
t-165.5 -116.5t-189 -41.5zM586 922q-75 0 -150.5 -35t-139 -98t-103 -163t-39.5 -218q0 -161 91 -260t232 -99q60 0 120.5 22t116.5 66.5t99.5 105t69.5 145t26 179.5q0 162 -90.5 258.5t-232.5 96.5z" />
    <glyph glyph-name="uni1EDC" unicode="&#x1edc;" horiz-adv-x="1570" 
d="M963 1575h-70l-127 264h104zM727 -25q-121 0 -227 40.5t-187.5 116.5t-128.5 196.5t-47 269.5q0 141 32 266.5t88 220.5t130 170.5t160 123.5t176.5 73t179.5 25q65 0 134.5 -12.5t103.5 -12.5q71 0 114.5 45t57.5 119h88q-20 -96 -75 -147.5t-126 -63.5
q135 -73 214 -214.5t79 -336.5q0 -141 -32 -266.5t-88 -220.5t-130 -170.5t-160 -123.5t-176.5 -73t-179.5 -25zM733 55q94 0 188 31.5t181 98t154.5 158.5t108 223.5t40.5 283.5q0 134 -40.5 240.5t-110.5 172.5t-161 100t-196 34q-94 0 -188 -31.5t-181 -98t-154.5 -158.5
t-108 -223.5t-40.5 -283.5q0 -134 40.5 -240.5t110.5 -172.5t161 -100t196 -34z" />
    <glyph glyph-name="uni1EDD" unicode="&#x1edd;" horiz-adv-x="1105" 
d="M662 1137h-70l-127 264h104zM471 -25q-175 0 -286 118t-111 306q0 134 45 248.5t119 189t166 116.5t188 42q71 0 139 -22q12 -2 39 -2q71 0 114.5 45t57.5 119h88q-20 -98 -75 -149.5t-128 -63.5q77 -54 119.5 -145t42.5 -206q0 -134 -45 -248.5t-118.5 -189.5
t-165.5 -116.5t-189 -41.5zM586 922q-75 0 -150.5 -35t-139 -98t-103 -163t-39.5 -218q0 -161 91 -260t232 -99q60 0 120.5 22t116.5 66.5t99.5 105t69.5 145t26 179.5q0 162 -90.5 258.5t-232.5 96.5z" />
    <glyph glyph-name="uni1EDE" unicode="&#x1ede;" horiz-adv-x="1570" 
d="M1147 1751q-16 -75 -129 -176h-66q109 109 121 174q10 46 -15.5 68t-70.5 22q-41 0 -65 -8l14 70q50 6 84 6q69 -2 106 -40t21 -116zM727 -25q-121 0 -227 40.5t-187.5 116.5t-128.5 196.5t-47 269.5q0 141 32 266.5t88 220.5t130 170.5t160 123.5t176.5 73t179.5 25
q65 0 134.5 -12.5t103.5 -12.5q71 0 114.5 45t57.5 119h88q-20 -96 -75 -147.5t-126 -63.5q135 -73 214 -214.5t79 -336.5q0 -141 -32 -266.5t-88 -220.5t-130 -170.5t-160 -123.5t-176.5 -73t-179.5 -25zM733 55q94 0 188 31.5t181 98t154.5 158.5t108 223.5t40.5 283.5
q0 134 -40.5 240.5t-110.5 172.5t-161 100t-196 34q-94 0 -188 -31.5t-181 -98t-154.5 -158.5t-108 -223.5t-40.5 -283.5q0 -134 40.5 -240.5t110.5 -172.5t161 -100t196 -34z" />
    <glyph glyph-name="uni1EDF" unicode="&#x1edf;" horiz-adv-x="1105" 
d="M831 1313q-16 -75 -129 -176h-65q109 109 121 174q10 46 -16 68t-70 22q-42 0 -66 -8l15 69q49 6 84 6q69 -2 105.5 -39.5t20.5 -115.5zM471 -25q-175 0 -286 118t-111 306q0 134 45 248.5t119 189t166 116.5t188 42q71 0 139 -22q12 -2 39 -2q71 0 114.5 45t57.5 119h88
q-20 -98 -75 -149.5t-128 -63.5q77 -54 119.5 -145t42.5 -206q0 -134 -45 -248.5t-118.5 -189.5t-165.5 -116.5t-189 -41.5zM586 922q-75 0 -150.5 -35t-139 -98t-103 -163t-39.5 -218q0 -161 91 -260t232 -99q60 0 120.5 22t116.5 66.5t99.5 105t69.5 145t26 179.5
q0 162 -90.5 258.5t-232.5 96.5z" />
    <glyph glyph-name="uni1EE0" unicode="&#x1ee0;" horiz-adv-x="1570" 
d="M1239 1774q-19 -96 -66.5 -147.5t-103.5 -51.5q-38 0 -67.5 21t-45.5 45.5t-42 45.5t-58 21q-36 0 -60.5 -40t-33.5 -89h-64q21 99 68 148t104 49q31 0 56 -13.5t41.5 -33t32.5 -38.5t37.5 -32.5t47.5 -13.5q37 0 60 39.5t33 89.5h61zM727 -25q-121 0 -227 40.5
t-187.5 116.5t-128.5 196.5t-47 269.5q0 141 32 266.5t88 220.5t130 170.5t160 123.5t176.5 73t179.5 25q65 0 134.5 -12.5t103.5 -12.5q71 0 114.5 45t57.5 119h88q-20 -96 -75 -147.5t-126 -63.5q135 -73 214 -214.5t79 -336.5q0 -141 -32 -266.5t-88 -220.5t-130 -170.5
t-160 -123.5t-176.5 -73t-179.5 -25zM733 55q94 0 188 31.5t181 98t154.5 158.5t108 223.5t40.5 283.5q0 134 -40.5 240.5t-110.5 172.5t-161 100t-196 34q-94 0 -188 -31.5t-181 -98t-154.5 -158.5t-108 -223.5t-40.5 -283.5q0 -134 40.5 -240.5t110.5 -172.5t161 -100
t196 -34z" />
    <glyph glyph-name="uni1EE1" unicode="&#x1ee1;" horiz-adv-x="1105" 
d="M934 1335q-19 -96 -66.5 -147t-103.5 -51q-38 0 -67.5 21t-45.5 45.5t-42 45.5t-58 21q-36 0 -60.5 -40t-33.5 -89h-64q21 98 68 147t104 49q31 0 56 -13.5t41.5 -32.5t32.5 -38.5t37.5 -33t47.5 -13.5q37 0 59.5 39.5t32.5 89.5h62zM471 -25q-175 0 -286 118t-111 306
q0 134 45 248.5t119 189t166 116.5t188 42q71 0 139 -22q12 -2 39 -2q71 0 114.5 45t57.5 119h88q-20 -98 -75 -149.5t-128 -63.5q77 -54 119.5 -145t42.5 -206q0 -134 -45 -248.5t-118.5 -189.5t-165.5 -116.5t-189 -41.5zM586 922q-75 0 -150.5 -35t-139 -98t-103 -163
t-39.5 -218q0 -161 91 -260t232 -99q60 0 120.5 22t116.5 66.5t99.5 105t69.5 145t26 179.5q0 162 -90.5 258.5t-232.5 96.5z" />
    <glyph glyph-name="uni1EE2" unicode="&#x1ee2;" horiz-adv-x="1570" 
d="M528 -281q0 37 26 64t62 27q31 0 50.5 -21t19.5 -53q0 -36 -25 -61t-61 -25q-31 0 -51.5 19.5t-20.5 49.5zM727 -25q-121 0 -227 40.5t-187.5 116.5t-128.5 196.5t-47 269.5q0 141 32 266.5t88 220.5t130 170.5t160 123.5t176.5 73t179.5 25q65 0 134.5 -12.5
t103.5 -12.5q71 0 114.5 45t57.5 119h88q-20 -96 -75 -147.5t-126 -63.5q135 -73 214 -214.5t79 -336.5q0 -141 -32 -266.5t-88 -220.5t-130 -170.5t-160 -123.5t-176.5 -73t-179.5 -25zM733 55q94 0 188 31.5t181 98t154.5 158.5t108 223.5t40.5 283.5q0 134 -40.5 240.5
t-110.5 172.5t-161 100t-196 34q-94 0 -188 -31.5t-181 -98t-154.5 -158.5t-108 -223.5t-40.5 -283.5q0 -134 40.5 -240.5t110.5 -172.5t161 -100t196 -34z" />
    <glyph glyph-name="uni1EE3" unicode="&#x1ee3;" horiz-adv-x="1105" 
d="M291 -281q0 37 26 64t62 27q31 0 50.5 -21t19.5 -53q0 -36 -25.5 -61t-61.5 -25q-31 0 -51 19t-20 50zM471 -25q-175 0 -286 118t-111 306q0 134 45 248.5t119 189t166 116.5t188 42q71 0 139 -22q12 -2 39 -2q71 0 114.5 45t57.5 119h88q-20 -98 -75 -149.5t-128 -63.5
q77 -54 119.5 -145t42.5 -206q0 -134 -45 -248.5t-118.5 -189.5t-165.5 -116.5t-189 -41.5zM586 922q-75 0 -150.5 -35t-139 -98t-103 -163t-39.5 -218q0 -161 91 -260t232 -99q60 0 120.5 22t116.5 66.5t99.5 105t69.5 145t26 179.5q0 162 -90.5 258.5t-232.5 96.5z" />
    <glyph glyph-name="uni1EE4" unicode="&#x1ee4;" horiz-adv-x="1349" 
d="M408 -281q0 37 26 64t62 27q31 0 50 -21t19 -53q0 -36 -25 -61t-61 -25q-31 0 -51 19t-20 50zM1335 1452l-219 -1028q-47 -222 -176.5 -335.5t-331.5 -113.5q-211 0 -324.5 112.5t-113.5 307.5q0 91 16 154l193 903h88l-193 -907q-16 -82 -16 -142q0 -161 89 -254.5
t267 -93.5q169 0 274 98.5t144 284.5l215 1014h88z" />
    <glyph glyph-name="uni1EE5" unicode="&#x1ee5;" horiz-adv-x="1054" 
d="M246 -281q0 37 26 64t62 27q31 0 50 -21t19 -53q0 -36 -25 -61t-61 -25q-31 0 -51 19t-20 50zM317 971l-120 -568q-15 -71 -15 -118q0 -110 60 -174t182 -64q118 0 213 100t127 256l121 568h82l-172 -809q-17 -81 -17 -162h-78q0 102 17 164q-42 -76 -125 -132.5
t-189 -56.5q-144 0 -223.5 82.5t-79.5 216.5q0 54 15 125l121 572h81z" />
    <glyph glyph-name="uni1EE6" unicode="&#x1ee6;" horiz-adv-x="1349" 
d="M1024 1751q-16 -75 -129 -176h-66q109 109 121 174q10 46 -16 68t-70 22q-41 0 -65 -8l14 70q49 6 84 6q69 -2 106 -40t21 -116zM1335 1452l-219 -1028q-47 -222 -176.5 -335.5t-331.5 -113.5q-211 0 -324.5 112.5t-113.5 307.5q0 91 16 154l193 903h88l-193 -907
q-16 -82 -16 -142q0 -161 89 -254.5t267 -93.5q169 0 274 98.5t144 284.5l215 1014h88z" />
    <glyph glyph-name="uni1EE7" unicode="&#x1ee7;" horiz-adv-x="1054" 
d="M782 1313q-16 -75 -129 -176h-65q109 109 121 174q10 46 -15.5 68t-70.5 22q-42 0 -66 -8l14 69q50 6 84 6q69 -2 106 -39.5t21 -115.5zM317 971l-120 -568q-15 -71 -15 -118q0 -110 60 -174t182 -64q118 0 213 100t127 256l121 568h82l-172 -809q-17 -81 -17 -162h-78
q0 102 17 164q-42 -76 -125 -132.5t-189 -56.5q-144 0 -223.5 82.5t-79.5 216.5q0 54 15 125l121 572h81z" />
    <glyph glyph-name="uni1EE8" unicode="&#x1ee8;" horiz-adv-x="1349" 
d="M874 1575h-73l194 264h115zM1432 1616h88q-20 -95 -73 -146.5t-122 -64.5l-209 -981q-47 -222 -176.5 -335.5t-331.5 -113.5q-211 0 -324.5 112.5t-113.5 307.5q0 91 16 154l193 903h88l-193 -907q-16 -82 -16 -142q0 -161 89 -254.5t267 -93.5q169 0 274 98.5t144 284.5
l215 1014h13q71 0 114.5 45t57.5 119z" />
    <glyph glyph-name="uni1EE9" unicode="&#x1ee9;" horiz-adv-x="1054" 
d="M643 1137h-74l195 264h115zM317 971l-120 -568q-15 -71 -15 -118q0 -110 60 -174t182 -64q118 0 213 100t127 256l121 568h8q71 0 114.5 45t57.5 119h88q-21 -95 -74 -147.5t-123 -63.5l-161 -762q-17 -81 -17 -162h-78q0 102 17 164q-42 -76 -125 -132.5t-189 -56.5
q-144 0 -223.5 82.5t-79.5 216.5q0 54 15 125l121 572h81z" />
    <glyph glyph-name="uni1EEA" unicode="&#x1eea;" horiz-adv-x="1349" 
d="M913 1575h-69l-127 264h104zM1432 1616h88q-20 -95 -73 -146.5t-122 -64.5l-209 -981q-47 -222 -176.5 -335.5t-331.5 -113.5q-211 0 -324.5 112.5t-113.5 307.5q0 91 16 154l193 903h88l-193 -907q-16 -82 -16 -142q0 -161 89 -254.5t267 -93.5q169 0 274 98.5
t144 284.5l215 1014h13q71 0 114.5 45t57.5 119z" />
    <glyph glyph-name="uni1EEB" unicode="&#x1eeb;" horiz-adv-x="1054" 
d="M653 1137h-69l-127 264h104zM317 971l-120 -568q-15 -71 -15 -118q0 -110 60 -174t182 -64q118 0 213 100t127 256l121 568h8q71 0 114.5 45t57.5 119h88q-21 -95 -74 -147.5t-123 -63.5l-161 -762q-17 -81 -17 -162h-78q0 102 17 164q-42 -76 -125 -132.5t-189 -56.5
q-144 0 -223.5 82.5t-79.5 216.5q0 54 15 125l121 572h81z" />
    <glyph glyph-name="uni1EEC" unicode="&#x1eec;" horiz-adv-x="1349" 
d="M1024 1751q-16 -75 -129 -176h-66q109 109 121 174q10 46 -16 68t-70 22q-41 0 -65 -8l14 70q49 6 84 6q69 -2 106 -40t21 -116zM1432 1616h88q-20 -95 -73 -146.5t-122 -64.5l-209 -981q-47 -222 -176.5 -335.5t-331.5 -113.5q-211 0 -324.5 112.5t-113.5 307.5
q0 91 16 154l193 903h88l-193 -907q-16 -82 -16 -142q0 -161 89 -254.5t267 -93.5q169 0 274 98.5t144 284.5l215 1014h13q71 0 114.5 45t57.5 119z" />
    <glyph glyph-name="uni1EED" unicode="&#x1eed;" horiz-adv-x="1054" 
d="M782 1313q-16 -75 -129 -176h-65q109 109 121 174q10 46 -15.5 68t-70.5 22q-42 0 -66 -8l14 69q50 6 84 6q69 -2 106 -39.5t21 -115.5zM317 971l-120 -568q-15 -71 -15 -118q0 -110 60 -174t182 -64q118 0 213 100t127 256l121 568h8q71 0 114.5 45t57.5 119h88
q-21 -95 -74 -147.5t-123 -63.5l-161 -762q-17 -81 -17 -162h-78q0 102 17 164q-42 -76 -125 -132.5t-189 -56.5q-144 0 -223.5 82.5t-79.5 216.5q0 54 15 125l121 572h81z" />
    <glyph glyph-name="uni1EEE" unicode="&#x1eee;" horiz-adv-x="1349" 
d="M1137 1774q-19 -96 -66.5 -147.5t-103.5 -51.5q-38 0 -67.5 21t-45.5 45.5t-42 45.5t-58 21q-36 0 -61 -40t-34 -89h-63q21 99 68 148t104 49q31 0 56 -13.5t41.5 -33t32.5 -38.5t37.5 -32.5t47.5 -13.5q37 0 59.5 39.5t32.5 89.5h62zM1432 1616h88q-20 -95 -73 -146.5
t-122 -64.5l-209 -981q-47 -222 -176.5 -335.5t-331.5 -113.5q-211 0 -324.5 112.5t-113.5 307.5q0 91 16 154l193 903h88l-193 -907q-16 -82 -16 -142q0 -161 89 -254.5t267 -93.5q169 0 274 98.5t144 284.5l215 1014h13q71 0 114.5 45t57.5 119z" />
    <glyph glyph-name="uni1EEF" unicode="&#x1eef;" horiz-adv-x="1054" 
d="M893 1335q-19 -96 -66.5 -147t-103.5 -51q-38 0 -67.5 21t-45.5 45.5t-42 45.5t-58 21q-36 0 -60.5 -40t-33.5 -89h-64q21 98 68 147t104 49q31 0 56 -13.5t41.5 -32.5t32.5 -38.5t37.5 -33t47.5 -13.5q37 0 59.5 39.5t32.5 89.5h62zM317 971l-120 -568q-15 -71 -15 -118
q0 -110 60 -174t182 -64q118 0 213 100t127 256l121 568h8q71 0 114.5 45t57.5 119h88q-21 -95 -74 -147.5t-123 -63.5l-161 -762q-17 -81 -17 -162h-78q0 102 17 164q-42 -76 -125 -132.5t-189 -56.5q-144 0 -223.5 82.5t-79.5 216.5q0 54 15 125l121 572h81z" />
    <glyph glyph-name="uni1EF0" unicode="&#x1ef0;" horiz-adv-x="1349" 
d="M408 -281q0 37 26 64t62 27q31 0 50 -21t19 -53q0 -36 -25 -61t-61 -25q-31 0 -51 19t-20 50zM1432 1616h88q-20 -95 -73 -146.5t-122 -64.5l-209 -981q-47 -222 -176.5 -335.5t-331.5 -113.5q-211 0 -324.5 112.5t-113.5 307.5q0 91 16 154l193 903h88l-193 -907
q-16 -82 -16 -142q0 -161 89 -254.5t267 -93.5q169 0 274 98.5t144 284.5l215 1014h13q71 0 114.5 45t57.5 119z" />
    <glyph glyph-name="uni1EF1" unicode="&#x1ef1;" horiz-adv-x="1054" 
d="M246 -281q0 37 26 64t62 27q31 0 50 -21t19 -53q0 -36 -25 -61t-61 -25q-31 0 -51 19t-20 50zM317 971l-120 -568q-15 -71 -15 -118q0 -110 60 -174t182 -64q118 0 213 100t127 256l121 568h8q71 0 114.5 45t57.5 119h88q-21 -95 -74 -147.5t-123 -63.5l-161 -762
q-17 -81 -17 -162h-78q0 102 17 164q-42 -76 -125 -132.5t-189 -56.5q-144 0 -223.5 82.5t-79.5 216.5q0 54 15 125l121 572h81z" />
    <glyph glyph-name="Ygrave" unicode="&#x1ef2;" horiz-adv-x="1177" 
d="M246 1452h92l280 -737l564 737h102l-641 -821l-135 -631h-86l139 643zM803 1575h-70l-127 264h105z" />
    <glyph glyph-name="ygrave" unicode="&#x1ef3;" horiz-adv-x="966" 
d="M10 -389l361 532l-242 828h86l211 -752l492 752h96l-910 -1360h-94zM614 1137h-69l-127 264h104z" />
    <glyph glyph-name="uni1EF4" unicode="&#x1ef4;" horiz-adv-x="1177" 
d="M328 -281q0 37 26 64t62 27q31 0 50 -21t19 -53q0 -36 -25 -61t-61 -25q-31 0 -51 19t-20 50zM246 1452h92l280 -737l564 737h102l-641 -821l-135 -631h-86l139 643z" />
    <glyph glyph-name="uni1EF5" unicode="&#x1ef5;" horiz-adv-x="966" 
d="M410 -281q0 37 26 64t62 27q31 0 50 -21t19 -53q0 -36 -25 -61t-61 -25q-31 0 -51 19t-20 50zM10 -389l361 532l-242 828h86l211 -752l492 752h96l-910 -1360h-94z" />
    <glyph glyph-name="uni1EF6" unicode="&#x1ef6;" horiz-adv-x="1177" 
d="M913 1751q-16 -75 -129 -176h-65q109 109 121 174q10 46 -15.5 68t-70.5 22q-42 0 -66 -8l14 70q49 6 84 6q69 -2 106 -40t21 -116zM246 1452h92l280 -737l564 737h102l-641 -821l-135 -631h-86l139 643z" />
    <glyph glyph-name="uni1EF7" unicode="&#x1ef7;" horiz-adv-x="966" 
d="M739 1313q-16 -75 -129 -176h-65q109 109 121 174q10 46 -16 68t-70 22q-42 0 -66 -8l14 69q50 6 84 6q69 -2 106 -39.5t21 -115.5zM10 -389l361 532l-242 828h86l211 -752l492 752h96l-910 -1360h-94z" />
    <glyph glyph-name="uni1EF8" unicode="&#x1ef8;" horiz-adv-x="1177" 
d="M1040 1774q-19 -96 -66.5 -147.5t-103.5 -51.5q-38 0 -67.5 21t-45.5 45.5t-42 45.5t-58 21q-36 0 -60.5 -40t-33.5 -89h-63q21 99 68 148t104 49q31 0 56 -13.5t41.5 -33t32.5 -38.5t37.5 -32.5t47.5 -13.5q37 0 59.5 39.5t32.5 89.5h61zM246 1452h92l280 -737l564 737
h102l-641 -821l-135 -631h-86l139 643z" />
    <glyph glyph-name="uni1EF9" unicode="&#x1ef9;" horiz-adv-x="966" 
d="M860 1335q-19 -96 -66.5 -147t-103.5 -51q-38 0 -67.5 21t-45.5 45.5t-42 45.5t-58 21q-36 0 -60.5 -40t-33.5 -89h-64q21 98 68.5 147t104.5 49q31 0 56 -13.5t41.5 -32.5t32.5 -38.5t37.5 -33t47.5 -13.5q37 0 59.5 39.5t32.5 89.5h61zM10 -389l361 532l-242 828h86
l211 -752l492 752h96l-910 -1360h-94z" />
    <glyph glyph-name="uni2007" unicode="&#x2007;" horiz-adv-x="1198" 
 />
    <glyph glyph-name="uni2008" unicode="&#x2008;" horiz-adv-x="438" 
 />
    <glyph glyph-name="uni200B" unicode="&#x200b;" horiz-adv-x="0" 
 />
    <glyph glyph-name="endash" unicode="&#x2013;" horiz-adv-x="1304" 
d="M137 551l15 74h1009l-14 -74h-1010z" />
    <glyph glyph-name="emdash" unicode="&#x2014;" horiz-adv-x="2134" 
d="M137 551l15 74h1839l-15 -74h-1839z" />
    <glyph glyph-name="quoteleft" unicode="&#x2018;" horiz-adv-x="446" 
d="M403 1126q0 -38 -26 -63t-62 -25q-37 0 -59.5 25t-22.5 67q0 123 90.5 216.5t190.5 113.5l-12 -61q-71 -20 -130 -80.5t-71 -126.5q6 6 31 6q31 0 51 -20t20 -52z" />
    <glyph glyph-name="quoteright" unicode="&#x2019;" horiz-adv-x="450" 
d="M332 1376q0 38 26 63t62 25q37 0 59.5 -25t22.5 -67q0 -123 -90.5 -216.5t-190.5 -113.5l12 62q69 15 129 78.5t72 128.5q-6 -6 -31 -6q-31 0 -51 19.5t-20 51.5z" />
    <glyph glyph-name="quotesinglbase" unicode="&#x201a;" horiz-adv-x="460" 
d="M51 66q0 38 26 63t62 25q37 0 59.5 -25.5t22.5 -67.5q0 -123 -90 -216t-190 -113l12 61q69 15 129 78.5t72 128.5q-6 -6 -31 -6q-31 0 -51.5 20t-20.5 52z" />
    <glyph glyph-name="quotedblleft" unicode="&#x201c;" horiz-adv-x="706" 
d="M403 1126q0 -38 -26 -63t-62 -25q-37 0 -59.5 25t-22.5 67q0 123 90.5 216.5t190.5 113.5l-12 -61q-71 -20 -130 -80.5t-71 -126.5q6 6 31 6q31 0 51 -20t20 -52zM664 1126q0 -37 -26.5 -62.5t-62.5 -25.5q-37 0 -59 24.5t-22 67.5q0 64 27 123t69.5 100.5t90.5 69.5
t93 37l-12 -61q-71 -20 -130 -80.5t-71 -126.5q6 6 31 6q31 0 51.5 -20t20.5 -52z" />
    <glyph glyph-name="quotedblright" unicode="&#x201d;" horiz-adv-x="708" 
d="M332 1376q0 38 26 63t62 25q37 0 59.5 -25t22.5 -67q0 -123 -90.5 -216.5t-190.5 -113.5l12 62q69 15 129 78.5t72 128.5q-6 -6 -31 -6q-31 0 -51 19.5t-20 51.5zM592 1376q0 38 26 63t62 25q37 0 59.5 -25t22.5 -67q0 -123 -90.5 -216.5t-190.5 -113.5l13 62
q69 15 128.5 78.5t71.5 128.5q-6 -6 -30 -6q-31 0 -51.5 19.5t-20.5 51.5z" />
    <glyph glyph-name="quotedblbase" unicode="&#x201e;" horiz-adv-x="720" 
d="M51 66q0 38 26 63t62 25q37 0 59.5 -25.5t22.5 -67.5q0 -123 -90 -216t-190 -113l12 61q69 15 129 78.5t72 128.5q-6 -6 -31 -6q-31 0 -51.5 20t-20.5 52zM311 66q0 38 26 63t62 25q37 0 59.5 -25.5t22.5 -67.5q0 -123 -90 -216t-190 -113l12 61q69 15 129 78.5t72 128.5
q-6 -6 -31 -6q-31 0 -51.5 20t-20.5 52z" />
    <glyph glyph-name="dagger" unicode="&#x2020;" horiz-adv-x="839" 
d="M549 1038l-150 -706h-73l151 706h-289l15 70h289l73 344h74l-74 -344h289l-14 -70h-291z" />
    <glyph glyph-name="daggerdbl" unicode="&#x2021;" horiz-adv-x="901" 
d="M584 1038l-133 -624h286l-14 -70h-287l-74 -344h-73l73 344h-290l14 70h291l133 624h-289l15 70h288l74 344h74l-74 -344h289l-15 -70h-288z" />
    <glyph glyph-name="bullet" unicode="&#x2022;" horiz-adv-x="1171" 
d="M158 569q0 177 124.5 301.5t299.5 124.5t299.5 -124.5t124.5 -301.5q0 -174 -125 -299t-299 -125t-299 125t-125 299z" />
    <glyph glyph-name="ellipsis" unicode="&#x2026;" horiz-adv-x="1374" 
d="M506 66q0 42 26.5 71t67.5 29q33 0 52.5 -23.5t19.5 -54.5q0 -41 -26.5 -68.5t-65.5 -27.5q-34 0 -54 21.5t-20 52.5zM39 66q0 42 26.5 71t67.5 29q33 0 52.5 -23.5t19.5 -54.5q0 -41 -26.5 -68.5t-65.5 -27.5q-34 0 -54 21.5t-20 52.5zM975 66q0 42 26.5 71t67.5 29
q33 0 52.5 -23.5t19.5 -54.5q0 -41 -26.5 -68.5t-65.5 -27.5q-34 0 -54 21.5t-20 52.5z" />
    <glyph glyph-name="perthousand" unicode="&#x2030;" horiz-adv-x="2222" 
d="M1812 604q122 0 200.5 -78.5t78.5 -195.5q0 -137 -98.5 -240.5t-241.5 -103.5q-89 0 -156 42.5t-100 116.5q-45 -74 -120 -116.5t-165 -42.5q-122 0 -200 78.5t-78 195.5q0 137 98.5 240.5t241.5 103.5q89 0 156 -43t98 -117q45 74 120.5 117t165.5 43zM508 1339
q122 0 200 -78.5t78 -195.5q0 -137 -98.5 -240.5t-241.5 -103.5q-122 0 -200 78.5t-78 195.5q0 137 98.5 240.5t241.5 103.5zM453 788q104 0 181 83t77 190q0 92 -58 151.5t-151 59.5q-104 0 -181 -83t-77 -190q0 -92 58 -151.5t151 -59.5zM201 0l1233 1327h92l-1233 -1327
h-92zM1217 53q104 0 181 83t77 190q0 92 -58 151.5t-151 59.5q-104 0 -181 -83t-77 -190q0 -92 58 -151.5t151 -59.5zM1757 53q104 0 181 83t77 190q0 92 -58 151.5t-151 59.5q-104 0 -181 -83t-77 -190q0 -92 58 -151.5t151 -59.5z" />
    <glyph glyph-name="guilsinglleft" unicode="&#x2039;" horiz-adv-x="575" 
d="M293 188l-193 392l351 391h90l-361 -398l187 -385h-74z" />
    <glyph glyph-name="guilsinglright" unicode="&#x203a;" horiz-adv-x="581" 
d="M31 188l362 396l-190 387h84l190 -393l-354 -390h-92z" />
    <glyph glyph-name="uni2042" unicode="&#x2042;" horiz-adv-x="1640" 
d="M958 1167l293 95l11 -58l-297 -96l127 -246l-52 -33l-127 248l-229 -254l-49 43l229 248l-248 92l29 56l250 -95l59 285h66zM383 354l293 95l10 -58l-297 -96l127 -246l-51 -33l-127 248l-229 -254l-50 43l230 248l-248 92l29 56l249 -95l60 285h65zM1223 354l293 95
l10 -58l-297 -96l127 -246l-51 -33l-127 248l-230 -254l-49 43l229 248l-247 92l28 56l250 -95l60 285h65z" />
    <glyph glyph-name="fraction" unicode="&#x2044;" horiz-adv-x="327" 
d="M-496 0l1233 1327h92l-1232 -1327h-93z" />
    <glyph glyph-name="uni2051" unicode="&#x2051;" horiz-adv-x="907" 
d="M606 1167l293 95l10 -58l-297 -96l127 -246l-51 -33l-127 248l-229 -254l-49 43l229 248l-248 92l29 56l250 -95l59 285h66zM430 354l293 95l10 -58l-297 -96l127 -246l-51 -33l-127 248l-229 -254l-50 43l230 248l-248 92l29 56l250 -95l59 285h66z" />
    <glyph glyph-name="uni2070" unicode="&#x2070;" horiz-adv-x="772" 
d="M442 698q-128 0 -193 79t-65 208q0 51 10.5 110t37 125.5t65.5 120t102 88.5t140 35q71 0 123.5 -24.5t80.5 -67t41 -89t13 -99.5t-10 -113t-36.5 -127.5t-65 -121t-102 -89t-141.5 -35.5zM721 1180q0 94 -49 156.5t-142 62.5q-67 0 -121 -41t-85 -105.5t-47.5 -135
t-16.5 -136.5q0 -96 45.5 -156.5t145.5 -60.5q67 0 121 40.5t85 104.5t47.5 134t16.5 137z" />
    <glyph glyph-name="uni2074" unicode="&#x2074;" horiz-adv-x="727" 
d="M139 967l473 485h99l-107 -498h141l-12 -65h-141l-39 -178h-74l39 178h-395zM621 1364l-406 -410h315z" />
    <glyph glyph-name="uni2075" unicode="&#x2075;" horiz-adv-x="690" 
d="M291 1137q64 53 162 53q108 0 170.5 -61t62.5 -156q0 -113 -82.5 -195t-206.5 -82q-118 0 -189 65.5t-71 156.5q0 14 2 20l74 20q-2 -6 -2 -20q0 -75 51 -125.5t139 -50.5t147.5 58.5t59.5 144.5q0 73 -47.5 117t-132.5 44q-88 0 -168 -59l-59 31l172 354h391l-14 -66
h-340z" />
    <glyph glyph-name="uni2076" unicode="&#x2076;" horiz-adv-x="733" 
d="M264 1087q27 46 94.5 83.5t141.5 37.5q104 0 167.5 -63.5t63.5 -159.5q0 -122 -88.5 -204.5t-208.5 -82.5q-116 0 -185 74.5t-69 196.5q0 118 39 215.5t101 156.5t135.5 91t146.5 32q128 0 205 -57l-33 -59q-64 51 -178 51q-126 0 -213.5 -88.5t-118.5 -223.5zM475 1145
q-80 0 -145.5 -63.5t-65.5 -147.5q0 -72 49.5 -122t122.5 -50q86 0 152.5 63t66.5 154q0 75 -50 120.5t-130 45.5z" />
    <glyph glyph-name="uni2077" unicode="&#x2077;" horiz-adv-x="653" 
d="M780 1382q-368 -230 -495 -671h-80q36 129 93 241t124 193.5t129.5 138.5t130.5 102h-467l14 66h566z" />
    <glyph glyph-name="uni2078" unicode="&#x2078;" horiz-adv-x="712" 
d="M324 1251q0 -62 52 -96.5t124 -34.5q75 0 124.5 41.5t49.5 108.5q0 57 -45.5 95t-128.5 38q-75 0 -125.5 -43t-50.5 -109zM231 903q0 -66 58.5 -102.5t134.5 -36.5q86 0 139 44.5t53 113.5q0 61 -49 101t-143 40q-89 0 -141 -44.5t-52 -115.5zM422 698q-44 0 -88.5 11
t-85.5 32.5t-66.5 61t-25.5 90.5q0 85 55 141t147 68q-50 20 -79 61t-29 92q0 90 74.5 149.5t179.5 59.5q113 0 179.5 -54.5t66.5 -135.5q0 -75 -54 -128.5t-129 -64.5q57 -24 90 -67.5t33 -98.5q0 -94 -74 -155.5t-194 -61.5z" />
    <glyph glyph-name="uni2079" unicode="&#x2079;" horiz-adv-x="727" 
d="M672 1085q-30 -58 -93 -91t-135 -33q-98 0 -166.5 61.5t-68.5 161.5q0 119 84.5 199.5t202.5 80.5t188 -74.5t70 -201.5q0 -135 -48.5 -246.5t-139.5 -177.5t-206 -66q-123 0 -208 68l30 59q67 -61 178 -61q118 0 199.5 83.5t112.5 237.5zM465 1026q82 0 144.5 59.5
t62.5 145.5q0 69 -52.5 118.5t-127.5 49.5q-83 0 -145 -58t-62 -149q0 -79 51.5 -122.5t128.5 -43.5z" />
    <glyph glyph-name="uni2080" unicode="&#x2080;" horiz-adv-x="774" 
d="M254 -193q-128 0 -193 79t-65 208q0 51 10.5 110t37 125.5t65 120t101.5 88.5t140 35q71 0 123.5 -24.5t80.5 -67t41 -89t13 -99.5t-10 -113t-36 -127.5t-64.5 -121t-102 -89t-141.5 -35.5zM532 289q0 94 -48.5 156.5t-141.5 62.5q-67 0 -121 -41t-85 -105.5t-47.5 -135
t-16.5 -136.5q0 -96 45 -156.5t145 -60.5q67 0 121 40.5t85 104.5t47.5 134t16.5 137z" />
    <glyph glyph-name="uni2081" unicode="&#x2081;" horiz-adv-x="419" 
d="M18 422q77 10 131 47.5t80 93.5h72l-158 -741h-73l129 608q-26 -26 -83.5 -50t-109.5 -24z" />
    <glyph glyph-name="uni2082" unicode="&#x2082;" horiz-adv-x="712" 
d="M45 287q-4 28 -4 30q0 104 73.5 180t196.5 76q110 0 174 -59.5t64 -142.5t-55 -147t-146 -103l-160 -70q-132 -55 -159 -164h460l-14 -65h-541q21 97 70.5 168t145.5 112l159 72q80 36 123 81t43 112q0 63 -44.5 104t-123.5 41q-86 0 -142 -59t-56 -146q0 -16 2 -22z" />
    <glyph glyph-name="uni2083" unicode="&#x2083;" horiz-adv-x="704" 
d="M182 268l318 230h-414l12 65h492l-19 -94l-292 -203q92 0 157.5 -55t65.5 -148q0 -106 -79.5 -181t-205.5 -75q-117 0 -189.5 65t-72.5 155q0 24 2 30l74 17q-2 -14 -2 -33q0 -76 55 -123t137 -47q84 0 144.5 57t60.5 133q0 70 -51 108t-127 38q-27 0 -41 -2z" />
    <glyph glyph-name="uni2084" unicode="&#x2084;" horiz-adv-x="731" 
d="M-47 78l473 485h98l-106 -497h141l-12 -66h-141l-39 -178h-74l39 178h-395zM434 475l-405 -409h315z" />
    <glyph glyph-name="uni2085" unicode="&#x2085;" horiz-adv-x="696" 
d="M106 248q64 53 162 53q108 0 171 -61t63 -156q0 -113 -82.5 -195t-206.5 -82q-118 0 -189 65.5t-71 156.5q0 14 2 20l74 21q-2 -6 -2 -21q0 -75 51 -125.5t139 -50.5t147.5 58.5t59.5 144.5q0 73 -47.5 117.5t-132.5 44.5q-86 0 -168 -60l-60 31l172 354h392l-15 -65
h-340z" />
    <glyph glyph-name="uni2086" unicode="&#x2086;" horiz-adv-x="739" 
d="M78 197q27 46 94 83t141 37q104 0 168 -63.5t64 -159.5q0 -122 -88.5 -204.5t-208.5 -82.5q-116 0 -185 74.5t-69 196.5q0 118 39 215.5t101 156.5t135.5 91t146.5 32q128 0 205 -57l-33 -59q-64 51 -178 51q-126 0 -213.5 -88t-118.5 -223zM289 254q-80 0 -145.5 -63.5
t-65.5 -147.5q0 -72 49.5 -122t122.5 -50q86 0 152.5 63t66.5 154q0 75 -50 120.5t-130 45.5z" />
    <glyph glyph-name="uni2087" unicode="&#x2087;" horiz-adv-x="653" 
d="M592 494q-369 -231 -496 -672h-80q36 129 93 241t124 193.5t130 139t131 102.5h-467l14 65h565z" />
    <glyph glyph-name="uni2088" unicode="&#x2088;" horiz-adv-x="716" 
d="M137 360q0 -62 52 -96.5t124 -34.5q75 0 124.5 41.5t49.5 108.5q0 57 -45.5 95t-128.5 38q-75 0 -125.5 -43t-50.5 -109zM45 12q0 -66 58.5 -102.5t134.5 -36.5q86 0 139 44.5t53 113.5q0 61 -49 101t-143 40q-89 0 -141 -44.5t-52 -115.5zM236 -193q-44 0 -89 11
t-86 32.5t-66.5 61t-25.5 90.5q0 85 55.5 141t147.5 68q-50 20 -79.5 61.5t-29.5 92.5q0 90 74.5 149t179.5 59q113 0 179.5 -54.5t66.5 -135.5q0 -75 -53.5 -128.5t-128.5 -64.5q57 -24 90 -67.5t33 -97.5q0 -94 -74 -156t-194 -62z" />
    <glyph glyph-name="uni2089" unicode="&#x2089;" horiz-adv-x="731" 
d="M485 195q-30 -58 -93 -91.5t-134 -33.5q-98 0 -166.5 61.5t-68.5 161.5q0 120 84 200t202 80t188 -74.5t70 -201.5q0 -135 -48.5 -246.5t-139 -177.5t-205.5 -66q-60 0 -115.5 19t-93.5 49l31 59q67 -61 178 -61q118 0 199 83.5t112 238.5zM279 135q82 0 144 59.5
t62 145.5q0 69 -52.5 118.5t-127.5 49.5q-83 0 -145 -58t-62 -149q0 -78 52 -122t129 -44z" />
    <glyph glyph-name="Euro" unicode="&#x20ac;" horiz-adv-x="1402" 
d="M342 500q30 -198 169.5 -323.5t342.5 -125.5q183 0 328 99l28 -66q-160 -109 -364 -109q-238 0 -399 148.5t-191 376.5h-190l16 71h170v15q0 86 18 168h-151l16 69h158q49 148 153.5 267.5t252 190.5t309.5 71q240 0 385 -129l-50 -62q-60 54 -152 84.5t-196 30.5
q-197 0 -371 -126.5t-247 -326.5h698l-51 -69h-668q-20 -73 -20 -164v-19h573l-51 -71h-516z" />
    <glyph glyph-name="uni2113" unicode="&#x2113;" horiz-adv-x="741" 
d="M510 16q-62 -26 -131 -26q-106 0 -164.5 52.5t-58.5 150.5q0 40 8 81l55 267q-82 -29 -151 -43l16 77q79 18 152 48l96 450q58 279 243 279q99 0 146 -52t47 -141q0 -109 -37.5 -204t-104.5 -166t-145 -123t-172 -91l-63 -307q-8 -24 -8 -67q0 -68 39 -103t112 -35
q58 0 137 29zM326 659q360 182 360 492q0 57 -28 91t-83 34q-120 0 -163 -211z" />
    <glyph glyph-name="trademark" unicode="&#x2122;" horiz-adv-x="1697" 
d="M569 1391l-145 -680h-68l146 680h-256l12 61h580l-13 -61h-256zM1128 711l-155 610l-129 -610h-68l158 741h80l162 -645l432 645h92l-158 -741h-67l129 610l-414 -610h-62z" />
    <glyph glyph-name="Omega" unicode="&#x2126;" horiz-adv-x="1792" 
d="M901 1401q-125 0 -240 -47t-202.5 -129.5t-140 -205t-52.5 -263.5q0 -128 43 -241t117 -195t170.5 -136.5t204.5 -72.5v-111h-596v74h477q-102 29 -192.5 90t-159.5 147t-109.5 201.5t-40.5 243.5q0 157 58.5 293.5t157.5 229t230 145.5t275 53t275.5 -53t230.5 -145.5
t158 -229t59 -293.5q0 -128 -40.5 -243.5t-110 -201t-159.5 -146.5t-192 -91h477v-74h-595v111q108 18 204.5 72.5t170 136.5t116.5 195t43 241q0 141 -52.5 263.5t-140 205t-203 129.5t-241.5 47z" />
    <glyph glyph-name="uni2160" unicode="&#x2160;" horiz-adv-x="954" 
d="M1010 1251h-351l-247 -1173h350l-17 -78h-782l14 78h351l247 1173h-350l17 76h784z" />
    <glyph glyph-name="uni2161" unicode="&#x2161;" horiz-adv-x="1495" 
d="M1286 0h-1323l14 78h342l248 1173h-342l17 76h1325l-17 -76h-344l-248 -1173h345zM1122 1251h-471l-248 -1173h471z" />
    <glyph glyph-name="uni2162" unicode="&#x2162;" horiz-adv-x="2041" 
d="M1833 0h-1870l14 78h342l248 1173h-342l17 76h1872l-17 -76h-342l-248 -1173h342zM1671 1251h-467l-248 -1173h467zM403 78h467l248 1173h-467z" />
    <glyph glyph-name="uni2163" unicode="&#x2163;" horiz-adv-x="1978" 
d="M1767 0h-1804l14 78h336l250 1173h-336l15 76h1806l-14 -76h-230l-653 -1173h633zM397 78h609l-150 1173h-209zM1708 1251h-762l139 -1136z" />
    <glyph glyph-name="uni2164" unicode="&#x2164;" horiz-adv-x="1556" 
d="M1616 1251h-221l-652 -1173h617l-17 -78h-1374l17 78h614l-154 1173h-223l17 76h1392zM1300 1251h-763l141 -1136z" />
    <glyph glyph-name="uni2165" unicode="&#x2165;" horiz-adv-x="1980" 
d="M1772 0h-1805l15 78h634l-151 1173h-234l15 76h1806l-14 -76h-307l-250 -1173h307zM760 78h637l250 1173h-234zM1319 1251h-764l139 -1136z" />
    <glyph glyph-name="uni2166" unicode="&#x2166;" horiz-adv-x="2570" 
d="M2361 0h-2394l15 78h632l-149 1173h-234l15 76h2396l-14 -76h-344l-250 -1173h344zM2200 1251h-469l-250 -1173h469zM760 78h635l250 1173h-232zM1317 1251h-762l139 -1136z" />
    <glyph glyph-name="uni2167" unicode="&#x2167;" horiz-adv-x="3080" 
d="M2871 0h-2904l15 78h630l-147 1173h-234l15 76h2906l-14 -76h-340l-250 -1173h340zM1475 78h452l250 1173h-453zM2011 78h453l250 1173h-453zM756 78h635l249 1173h-233zM1311 1251h-756l135 -1136z" />
    <glyph glyph-name="uni2168" unicode="&#x2168;" horiz-adv-x="1916" 
d="M1708 0h-1745l14 78h336l248 1173h-336l17 76h1745l-17 -76h-205l-538 -592l286 -581h211zM840 1251h-195l-248 -1173h195l536 581zM1186 727l477 524h-731zM694 78h725l-254 514z" />
    <glyph glyph-name="uni2169" unicode="&#x2169;" horiz-adv-x="1490" 
d="M1544 1251h-192l-547 -600l285 -573h206l-16 -78h-1315l15 78h200l529 573l-293 600h-189l17 76h1317zM766 719l485 532h-743zM281 78h714l-250 506z" />
    <glyph glyph-name="uni216C" unicode="&#x216c;" horiz-adv-x="1257" 
d="M1049 0h-1086l14 78h310l248 1173h-310l17 76h723l-17 -76h-330l-247 -1173h608l102 483h86z" />
    <glyph glyph-name="uni216D" unicode="&#x216d;" horiz-adv-x="1398" 
d="M1229 901q-28 373 -412 373q-87 0 -173.5 -29t-166.5 -89.5t-141.5 -145t-98 -205t-36.5 -260.5q0 -230 137.5 -362t347.5 -132q175 0 296 102t171 283h84l-92 -436h-84l39 184q-67 -93 -175 -151t-249 -58q-252 0 -404.5 158t-152.5 408q0 156 42.5 290t113 228
t162.5 161.5t192 99.5t200 32q301 0 424 -244l47 219h84l-90 -426h-65z" />
    <glyph glyph-name="uni216E" unicode="&#x216e;" horiz-adv-x="1417" 
d="M295 78l250 1173h-320l17 76h581q228 0 373 -135t145 -369q0 -164 -57.5 -313.5t-158.5 -262.5t-249.5 -180t-320.5 -67h-594l14 78h320zM559 78q82 0 165 22t161 63t145.5 106t118 145t79.5 185.5t29 223.5q0 205 -122.5 316.5t-319.5 111.5h-188l-252 -1173h184z" />
    <glyph glyph-name="uni216F" unicode="&#x216f;" horiz-adv-x="2101" 
d="M940 113l815 1214h414l-17 -76h-286l-248 -1173h297l-17 -78h-638l16 78h258l240 1134l-816 -1212h-73l-303 1212l-240 -1134h274l-16 -78h-637l14 78h283l248 1173h-283l17 76h399z" />
    <glyph glyph-name="arrowleft" unicode="&#x2190;" horiz-adv-x="2062" 
d="M457 633h1437v-74h-1437v-272l-367 309l367 309v-272z" />
    <glyph glyph-name="arrowup" unicode="&#x2191;" horiz-adv-x="882" 
d="M496 1212h-287l323 426l324 -426h-287v-1515h-73v1515z" />
    <glyph glyph-name="arrowright" unicode="&#x2192;" horiz-adv-x="2060" 
d="M1604 905l366 -309l-366 -309v272h-1438v74h1438v272z" />
    <glyph glyph-name="arrowdown" unicode="&#x2193;" horiz-adv-x="878" 
d="M340 1610h74v-1516h286l-323 -426l-324 426h287v1516z" />
    <glyph glyph-name="uni2196" unicode="&#x2196;" horiz-adv-x="1902" 
d="M467 1194l-207 -207v465h463l-205 -205l1213 -1210l-54 -53z" />
    <glyph glyph-name="uni2197" unicode="&#x2197;" horiz-adv-x="1415" 
d="M-2 -16l-53 53l1212 1210l-205 205h463v-465l-207 207z" />
    <glyph glyph-name="uni2198" unicode="&#x2198;" horiz-adv-x="1904" 
d="M1497 258l207 207v-465h-463l205 205l-1213 1210l54 53z" />
    <glyph glyph-name="uni2199" unicode="&#x2199;" horiz-adv-x="1417" 
d="M1477 1468l53 -53l-1213 -1210l205 -205h-463v465l207 -207z" />
    <glyph glyph-name="uni21A9" unicode="&#x21a9;" horiz-adv-x="1634" 
d="M440 551v-272l-366 309l366 309v-272h758q135 0 232.5 88t97.5 225q0 133 -95 224t-229 91h-315v74h315q165 0 281.5 -112t116.5 -277q0 -114 -57.5 -204t-149 -136.5t-197.5 -46.5h-758z" />
    <glyph glyph-name="uni21B0" unicode="&#x21b0;" horiz-adv-x="1624" 
d="M1421 0h-73v1163h-830v-239l-330 276l330 277v-240h903v-1237z" />
    <glyph glyph-name="uni21B1" unicode="&#x21b1;" horiz-adv-x="1388" 
d="M227 1237h903v240l330 -277l-330 -276v239h-829v-1163h-74v1237z" />
    <glyph glyph-name="uni21B2" unicode="&#x21b2;" horiz-adv-x="1396" 
d="M1229 215h-903v-240l-330 277l330 276v-239h829v1163h74v-1237z" />
    <glyph glyph-name="uni21B3" unicode="&#x21b3;" horiz-adv-x="1628" 
d="M262 1452h74v-1163h829v239l330 -276l-330 -277v240h-903v1237z" />
    <glyph glyph-name="uni21B4" unicode="&#x21b4;" horiz-adv-x="1757" 
d="M1386 1452v-1147h240l-276 -330l-277 330h240v1073h-1065v74h1138z" />
    <glyph glyph-name="uni21B5" unicode="&#x21b5;" horiz-adv-x="2119" 
d="M94 727h244q0 153 59.5 291.5t159.5 239t239 160t291 59.5q200 0 371 -99l-33 -65q-155 90 -338 90q-137 0 -262 -54t-215.5 -144.5t-144 -215.5t-53.5 -262h243l-280 -369zM1837 727q0 -153 -59.5 -291.5t-160 -239t-239 -160t-291.5 -59.5q-199 0 -370 99l33 65
q155 -90 337 -90t338 91t247 247t91 338h-243l280 369l281 -369h-244z" />
    <glyph glyph-name="uni21C6" unicode="&#x21c6;" horiz-adv-x="2181" 
d="M553 1143h1438v-74h-1438v-272l-367 309l367 309v-272zM1688 657l366 -309l-366 -309v272h-1438v74h1438v272z" />
    <glyph glyph-name="partialdiff" unicode="&#x2202;" horiz-adv-x="1208" 
d="M1010 690q0 110 -15.5 207.5t-55.5 192t-102.5 161.5t-163 108.5t-229.5 41.5q-149 0 -284 -66l-27 70q139 72 332 72q157 0 279.5 -61t197.5 -168t113.5 -245.5t38.5 -300.5q0 -119 -20 -225t-63 -198.5t-105.5 -159.5t-152.5 -105.5t-200 -38.5q-132 0 -239.5 58
t-171.5 167.5t-64 250.5q0 207 137 338t342 131q145 0 264 -61.5t189 -168.5zM567 846q-181 0 -294 -113t-113 -287t114 -284.5t283 -110.5q88 0 162 31.5t123.5 83.5t85 121.5t53 143t20.5 149.5q-67 131 -181.5 198.5t-252.5 67.5z" />
    <glyph glyph-name="increment" unicode="&#x2206;" horiz-adv-x="1390" 
d="M563 1452h86l561 -1452h-1204zM127 78h963l-484 1265z" />
    <glyph glyph-name="product" unicode="&#x220f;" horiz-adv-x="1519" 
d="M1223 0v1376h-867v-1376h-86v1452h1037v-1452h-84z" />
    <glyph glyph-name="summation" unicode="&#x2211;" horiz-adv-x="1421" 
d="M244 78l630 653l-630 643v78h981v-80h-869l633 -641l-641 -651h877v-80h-981v78z" />
    <glyph glyph-name="minus" unicode="&#x2212;" horiz-adv-x="1177" 
d="M156 555v70h860v-70h-860z" />
    <glyph glyph-name="uni2215" unicode="&#x2215;" horiz-adv-x="739" 
d="M879 1327l-922 -1327h-84l922 1327h84z" />
    <glyph glyph-name="uni2219" unicode="&#x2219;" horiz-adv-x="450" 
d="M141 571q0 42 25.5 69.5t66.5 27.5q31 0 50.5 -22t19.5 -52q0 -38 -27 -66t-65 -28q-31 0 -50.5 20.5t-19.5 50.5z" />
    <glyph glyph-name="radical" unicode="&#x221a;" horiz-adv-x="1181" 
d="M1112 1649l-551 -1649h-76l-364 1047h94l309 -906l523 1585h331v-77h-266z" />
    <glyph glyph-name="infinity" unicode="&#x221e;" horiz-adv-x="1675" 
d="M795 594q-169 256 -349 256q-104 0 -177.5 -77t-73.5 -183q0 -104 74 -180t177 -76q98 0 181.5 69t167.5 191zM877 594q87 -125 168.5 -192.5t179.5 -67.5q104 0 178 76.5t74 179.5q0 106 -74 183t-178 77q-179 0 -348 -256zM836 535q-82 -123 -182 -198t-210 -75
q-133 0 -228 97.5t-95 232.5t95 232.5t228 97.5q110 0 210 -75t182 -198q182 273 391 273q133 0 228 -97.5t95 -232.5t-95 -232.5t-228 -97.5q-209 0 -391 273z" />
    <glyph glyph-name="integral" unicode="&#x222b;" horiz-adv-x="569" 
d="M231 1147q0 145 74 225t203 80h47v-74h-43q-92 0 -145.5 -60.5t-53.5 -174.5v-1227q0 -145 -72 -225t-198 -80h-53v74h43q92 0 145 61.5t53 175.5v1225z" />
    <glyph glyph-name="approxequal" unicode="&#x2248;" horiz-adv-x="1304" 
d="M1118 408q-51 -70 -110.5 -104t-141.5 -34q-75 0 -192 60l-96 51q-85 45 -152 45q-65 0 -112 -26t-89 -81l-49 43q54 72 111.5 106t138.5 34q69 0 186 -60l95 -49q87 -49 167 -49q64 0 109.5 25t87.5 80zM1118 803q-51 -70 -110.5 -103.5t-141.5 -33.5q-77 0 -192 59
l-96 51q-85 45 -152 45q-65 0 -112 -25.5t-89 -80.5l-49 43q54 71 111.5 105t138.5 34q71 0 186 -59l95 -50q87 -49 167 -49q64 0 109.5 25t87.5 80z" />
    <glyph glyph-name="notequal" unicode="&#x2260;" horiz-adv-x="1183" 
d="M723 823l170 230h86l-170 -230h227v-71h-280l-240 -324h520v-72h-573l-174 -235h-86l174 235h-236v72h289l240 324h-529v71h582z" />
    <glyph glyph-name="lessequal" unicode="&#x2264;" horiz-adv-x="1165" 
d="M967 219v-69h-820v69h820zM147 748l820 303v-78l-723 -262l723 -258v-80l-820 303v72z" />
    <glyph glyph-name="greaterequal" unicode="&#x2265;" horiz-adv-x="1196" 
d="M993 219v-69h-819v69h819zM993 676l-819 -303v80l723 258l-723 262v78l819 -303v-72z" />
    <glyph glyph-name="dotmath" unicode="&#x22c5;" horiz-adv-x="450" 
d="M141 571q0 42 25.5 69.5t66.5 27.5q31 0 50.5 -22t19.5 -52q0 -38 -27 -66t-65 -28q-31 0 -50.5 20.5t-19.5 50.5z" />
    <glyph glyph-name="uni24C5" unicode="&#x24c5;" horiz-adv-x="1712" 
d="M215 725q0 -141 52.5 -268t141.5 -218t213.5 -144.5t262.5 -53.5q183 0 336.5 90.5t243 248t89.5 345.5t-89.5 346t-243 249t-336.5 91q-138 0 -262.5 -53.5t-213.5 -145.5t-141.5 -219t-52.5 -268zM143 725q0 154 58 293t156.5 239.5t236.5 160t291 59.5
q152 0 290 -59.5t237 -160t157.5 -240t58.5 -292.5t-58.5 -291.5t-157.5 -239t-237 -160t-290 -59.5q-204 0 -375 100.5t-269 273t-98 376.5zM739 659l-73 -340h-68l174 816h242q99 0 157 -53.5t58 -145.5q0 -125 -92 -201t-224 -76h-174zM918 719q106 0 174.5 61.5
t68.5 157.5q0 62 -44.5 99.5t-123.5 37.5h-162l-77 -356h164z" />
    <glyph glyph-name="filledbox" unicode="&#x25a0;" horiz-adv-x="1906" 
d="M264 1452h1436v-1452h-1436v1452z" />
    <glyph glyph-name="H22073" unicode="&#x25a1;" horiz-adv-x="1906" 
d="M264 0v1452h1436v-1452h-1436zM336 68h1292v1316h-1292v-1316z" />
    <glyph glyph-name="uni25AF" unicode="&#x25af;" horiz-adv-x="1353" 
d="M264 0v1452h883v-1452h-883zM340 70h731v1310h-731v-1310z" />
    <glyph glyph-name="triagup" unicode="&#x25b2;" horiz-adv-x="1859" 
d="M1686 0h-1725l866 1489z" />
    <glyph glyph-name="uni25B3" unicode="&#x25b3;" horiz-adv-x="1859" 
d="M1686 0h-1725l866 1489zM825 1346l-741 -1278h1479z" />
    <glyph glyph-name="lozenge" unicode="&#x25ca;" horiz-adv-x="1089" 
d="M539 0l-433 725l435 727h65l434 -727l-432 -725h-69zM573 100l379 625l-379 627l-378 -627z" />
    <glyph glyph-name="circle" unicode="&#x25cb;" horiz-adv-x="1744" 
d="M150 725q0 153 59.5 292.5t159.5 240.5t239.5 161t292.5 60t292.5 -60t240.5 -161t161 -240.5t60 -292.5t-60 -292.5t-161 -240t-240.5 -160t-292.5 -59.5t-292.5 59.5t-239.5 160t-159.5 240t-59.5 292.5zM223 725q0 -139 53.5 -265t144.5 -217.5t216.5 -145.5
t263.5 -54q139 0 265 54t217 145.5t144.5 217.5t53.5 265t-53.5 265t-144.5 217.5t-217 145.5t-265 54q-138 0 -263.5 -54t-216.5 -145.5t-144.5 -217.5t-53.5 -265z" />
    <glyph glyph-name="H18533" unicode="&#x25cf;" horiz-adv-x="1744" 
d="M150 725q0 153 59.5 292.5t159.5 240.5t239.5 161t292.5 60t292.5 -60t240.5 -161t161 -240.5t60 -292.5t-60 -292.5t-161 -240t-240.5 -160t-292.5 -59.5t-292.5 59.5t-239.5 160t-159.5 240t-59.5 292.5z" />
    <glyph glyph-name="uni262E" unicode="&#x262e;" horiz-adv-x="1726" 
d="M850 811v598q-174 -8 -318.5 -101t-227.5 -247.5t-83 -335.5q0 -236 133 -410zM1561 725q0 181 -84.5 335.5t-230.5 247.5t-320 101v-598l497 -498q138 180 138 412zM150 725q0 153 58 292.5t156.5 240t235.5 160t289 59.5t290.5 -59.5t238 -160t158 -240t58.5 -292.5
q0 -152 -58.5 -290.5t-158 -239.5t-238 -160.5t-290.5 -59.5q-202 0 -372.5 101t-268.5 273.5t-98 375.5zM926 43q132 6 248 61t204 150l-452 453v-664zM399 258q187 -203 451 -215v664z" />
    <glyph glyph-name="uni2713" unicode="&#x2713;" horiz-adv-x="1845" 
d="M649 -31l-573 641l51 49l526 -581l1250 1345l51 -49z" />
    <glyph glyph-name="uni2715" unicode="&#x2715;" horiz-adv-x="1769" 
d="M909 643l-635 -649l-51 51l635 649l-635 652l51 51l635 -649l635 649l53 -51l-636 -652l636 -649l-51 -51z" />
    <glyph glyph-name="uni2780" unicode="&#x2780;" horiz-adv-x="1722" 
d="M217 725q0 -187 89 -344t243.5 -248.5t337.5 -91.5q185 0 340.5 91.5t244.5 248.5t89 344q0 113 -33.5 218t-95.5 189t-144.5 147.5t-186 97.5t-214.5 34q-110 0 -212.5 -34t-185 -97.5t-144 -147.5t-95 -189t-33.5 -218zM150 725q0 204 98 377t268 274t371 101
q152 0 290 -59.5t237.5 -160.5t158.5 -240t59 -292q0 -203 -99.5 -375.5t-271.5 -273.5t-374 -101q-201 0 -371 101t-268 273.5t-98 375.5zM686 938q74 16 119.5 60.5t58.5 101.5h74v-742h-74v607q-18 -27 -71 -58t-107 -35v66z" />
    <glyph glyph-name="uni2781" unicode="&#x2781;" horiz-adv-x="1722" 
d="M217 725q0 -187 89 -344t243.5 -248.5t337.5 -91.5q185 0 340.5 91.5t244.5 248.5t89 344q0 113 -33.5 218t-95.5 189t-144.5 147.5t-186 97.5t-214.5 34q-110 0 -212.5 -34t-185 -97.5t-144 -147.5t-95 -189t-33.5 -218zM150 725q0 204 98 377t268 274t371 101
q152 0 290 -59.5t237.5 -160.5t158.5 -240t59 -292q0 -203 -99.5 -375.5t-271.5 -273.5t-374 -101q-201 0 -371 101t-268 273.5t-98 375.5zM633 842q-4 20 -4 39q0 99 71 164t187 65q114 0 181 -61.5t67 -155.5q0 -127 -150 -221l-151 -94q-103 -68 -113 -154h426v-66h-518
q0 164 153 265l152 94q127 83 127 176q0 64 -48.5 110t-125.5 46q-81 0 -133 -48.5t-52 -128.5q0 -6 5 -41z" />
    <glyph glyph-name="uni2782" unicode="&#x2782;" horiz-adv-x="1722" 
d="M217 725q0 -187 89 -344t243.5 -248.5t337.5 -91.5q185 0 340.5 91.5t244.5 248.5t89 344q0 113 -33.5 218t-95.5 189t-144.5 147.5t-186 97.5t-214.5 34q-110 0 -212.5 -34t-185 -97.5t-144 -147.5t-95 -189t-33.5 -218zM150 725q0 204 98 377t268 274t371 101
q152 0 290 -59.5t237.5 -160.5t158.5 -240t59 -292q0 -203 -99.5 -375.5t-271.5 -273.5t-374 -101q-201 0 -371 101t-268 273.5t-98 375.5zM797 788l258 244h-428v66h524v-64l-254 -239q16 2 27 2q101 0 172 -56.5t71 -160.5q0 -100 -76 -168t-198 -68q-120 0 -197 61.5
t-88 159.5l70 23q4 -82 67 -131t146 -49q87 0 144 48.5t57 123.5t-53.5 117t-135.5 42q-31 0 -69 -10z" />
    <glyph glyph-name="uni2783" unicode="&#x2783;" horiz-adv-x="1722" 
d="M217 725q0 -187 89 -344t243.5 -248.5t337.5 -91.5q185 0 340.5 91.5t244.5 248.5t89 344q0 113 -33.5 218t-95.5 189t-144.5 147.5t-186 97.5t-214.5 34q-110 0 -212.5 -34t-185 -97.5t-144 -147.5t-95 -189t-33.5 -218zM150 725q0 204 98 377t268 274t371 101
q152 0 290 -59.5t237.5 -160.5t158.5 -240t59 -292q0 -203 -99.5 -375.5t-271.5 -273.5t-374 -101q-201 0 -371 101t-268 273.5t-98 375.5zM532 614l371 484h98v-496h152v-65h-152v-179h-73v179h-396v77zM928 1018l-322 -416h322v416z" />
    <glyph glyph-name="uni2784" unicode="&#x2784;" horiz-adv-x="1722" 
d="M217 725q0 -187 89 -344t243.5 -248.5t337.5 -91.5q185 0 340.5 91.5t244.5 248.5t89 344q0 113 -33.5 218t-95.5 189t-144.5 147.5t-186 97.5t-214.5 34q-110 0 -212.5 -34t-185 -97.5t-144 -147.5t-95 -189t-33.5 -218zM150 725q0 204 98 377t268 274t371 101
q152 0 290 -59.5t237.5 -160.5t158.5 -240t59 -292q0 -203 -99.5 -375.5t-271.5 -273.5t-374 -101q-201 0 -371 101t-268 273.5t-98 375.5zM670 584q8 -75 64.5 -124.5t139.5 -49.5q87 0 143 51.5t56 130.5q0 81 -54.5 131.5t-141.5 50.5q-101 0 -179 -78l-67 25l100 377
h391v-66h-340l-69 -264q70 70 180 70q114 0 185 -68.5t71 -175.5t-76 -178.5t-199 -71.5q-108 0 -186 63t-86 150z" />
    <glyph glyph-name="uni2785" unicode="&#x2785;" horiz-adv-x="1722" 
d="M217 725q0 -187 89 -344t243.5 -248.5t337.5 -91.5q185 0 340.5 91.5t244.5 248.5t89 344q0 113 -33.5 218t-95.5 189t-144.5 147.5t-186 97.5t-214.5 34q-110 0 -212.5 -34t-185 -97.5t-144 -147.5t-95 -189t-33.5 -218zM150 725q0 204 98 377t268 274t371 101
q152 0 290 -59.5t237.5 -160.5t158.5 -240t59 -292q0 -203 -99.5 -375.5t-271.5 -273.5t-374 -101q-201 0 -371 101t-268 273.5t-98 375.5zM637 702q19 62 85 104t150 42q112 0 187.5 -70t75.5 -182q0 -111 -80 -181.5t-199 -70.5q-131 0 -212 92.5t-81 253.5q0 200 109 310
t270 110q110 0 172 -39l-20 -61q-52 34 -150 34q-144 0 -223 -97.5t-84 -244.5zM659 598q0 -80 59.5 -134t139.5 -54q84 0 142.5 52.5t58.5 135.5q0 84 -58 135t-143 51q-81 0 -140 -52t-59 -134z" />
    <glyph glyph-name="uni2786" unicode="&#x2786;" horiz-adv-x="1722" 
d="M217 725q0 -187 89 -344t243.5 -248.5t337.5 -91.5q185 0 340.5 91.5t244.5 248.5t89 344q0 113 -33.5 218t-95.5 189t-144.5 147.5t-186 97.5t-214.5 34q-110 0 -212.5 -34t-185 -97.5t-144 -147.5t-95 -189t-33.5 -218zM150 725q0 204 98 377t268 274t371 101
q152 0 290 -59.5t237.5 -160.5t158.5 -240t59 -292q0 -203 -99.5 -375.5t-271.5 -273.5t-374 -101q-201 0 -371 101t-268 273.5t-98 375.5zM1182 1028q-66 -59 -117.5 -119t-102.5 -141.5t-85 -185.5t-48 -224h-77q14 124 51.5 235.5t89 194.5t100.5 141t101 103h-480v66
h568v-70z" />
    <glyph glyph-name="uni2787" unicode="&#x2787;" horiz-adv-x="1722" 
d="M217 725q0 -187 89 -344t243.5 -248.5t337.5 -91.5q185 0 340.5 91.5t244.5 248.5t89 344q0 113 -33.5 218t-95.5 189t-144.5 147.5t-186 97.5t-214.5 34q-110 0 -212.5 -34t-185 -97.5t-144 -147.5t-95 -189t-33.5 -218zM150 725q0 204 98 377t268 274t371 101
q152 0 290 -59.5t237.5 -160.5t158.5 -240t59 -292q0 -203 -99.5 -375.5t-271.5 -273.5t-374 -101q-201 0 -371 101t-268 273.5t-98 375.5zM887 770q80 0 130 39t50 100q0 63 -48.5 102.5t-131.5 39.5q-84 0 -131 -39.5t-47 -102.5q0 -62 49.5 -100.5t128.5 -38.5zM887 410
q91 0 143.5 41.5t52.5 105.5q0 68 -51 110t-145 42q-92 0 -144.5 -42t-52.5 -110q0 -63 53.5 -105t143.5 -42zM887 344q-125 0 -199 60t-74 149q0 67 43.5 117t116.5 69q-61 18 -100 65t-39 107q0 88 69 144.5t183 56.5t184 -57t70 -144q0 -60 -40 -107t-102 -65
q73 -19 116.5 -69t43.5 -117q0 -90 -73 -149.5t-199 -59.5z" />
    <glyph glyph-name="uni2788" unicode="&#x2788;" horiz-adv-x="1722" 
d="M217 725q0 -187 89 -344t243.5 -248.5t337.5 -91.5q185 0 340.5 91.5t244.5 248.5t89 344q0 113 -33.5 218t-95.5 189t-144.5 147.5t-186 97.5t-214.5 34q-110 0 -212.5 -34t-185 -97.5t-144 -147.5t-95 -189t-33.5 -218zM150 725q0 204 98 377t268 274t371 101
q152 0 290 -59.5t237.5 -160.5t158.5 -240t59 -292q0 -203 -99.5 -375.5t-271.5 -273.5t-374 -101q-201 0 -371 101t-268 273.5t-98 375.5zM1120 762q-23 -66 -86.5 -106t-142.5 -40q-110 0 -186 69t-76 179q0 106 80 177t194 71q131 0 211 -91t80 -249q0 -192 -91.5 -310
t-273.5 -118q-102 0 -184 47l21 62q68 -43 161 -43q137 0 215 90.5t78 261.5zM1098 864q0 80 -58.5 131.5t-138.5 51.5q-82 0 -139 -50.5t-57 -132.5t57 -133t139 -51t139.5 51t57.5 133z" />
    </font>
</defs>
</svg>
