<svg id="_24x24-360" data-name="24x24-360" xmlns="http://www.w3.org/2000/svg" width="80" height="80" viewBox="0 0 80 80">
  <path id="boundingbox" d="M0,0H80V80H0Z" fill="#e5e5e5" opacity="0"/>
  <g id="_360" data-name="360" transform="translate(9.991 9.992)">
    <path id="Path_19792" data-name="Path 19792" d="M28.667,31.667H22v-10H12V15H28.667Z" transform="translate(18.009 25.008)" fill="#e5e5e5"/>
    <path id="Path_19793" data-name="Path 19793" d="M20.406,63.011c-5.1,0-9.46-1.626-12.619-4.785-4.525-4.525-5.9-11.473-3.88-19.562,1.872-7.486,6.5-15.2,13.026-21.732S31.179,5.778,38.665,3.906c8.09-2.023,15.037-.644,19.56,3.884C63.443,13,64.455,21.443,61,30.951l-6.266-2.277c2.5-6.868,2.039-12.912-1.222-16.169-2.8-2.807-7.5-3.563-13.23-2.131-6.331,1.583-12.949,5.586-18.635,11.272s-9.69,12.3-11.273,18.635C8.942,46.01,9.7,50.709,12.5,53.512c2.737,2.736,7.309,3.522,12.872,2.213C31.512,54.28,38,50.5,43.633,45.083l4.62,4.806C41.769,56.123,34.186,60.5,26.9,62.215A28.406,28.406,0,0,1,20.406,63.011Z" transform="translate(-2.997 -2.997)" fill="#e5e5e5"/>
  </g>
</svg>
