<svg xmlns="http://www.w3.org/2000/svg" width="66" height="66" viewBox="0 0 66 66">
  <g id="_24x24-ram" data-name="24x24-ram" transform="translate(1 1)">
    <path id="boundingbox" d="M0,0H64V64H0Z" fill="#f15a29" stroke="#010001" stroke-linecap="round" stroke-linejoin="round" stroke-width="2" opacity="0"/>
    <g id="ram" transform="translate(8 8)">
      <path id="Path_45866" data-name="Path 45866" d="M21.667,8.36A2.667,2.667,0,0,1,19,5.693V5.667a2.667,2.667,0,1,1,5.333,0v.027A2.667,2.667,0,0,1,21.667,8.36Z" transform="translate(23.667 -3)" fill="#010001"/>
      <path id="Path_45867" data-name="Path 45867" d="M21.667,24.36A2.667,2.667,0,0,1,19,21.693v-.027a2.667,2.667,0,1,1,5.333,0v.027A2.667,2.667,0,0,1,21.667,24.36Z" transform="translate(23.667 23.667)" fill="#010001"/>
      <path id="Path_45868" data-name="Path 45868" d="M21.667,20.36A2.667,2.667,0,0,1,19,17.693v-.027a2.667,2.667,0,1,1,5.333,0v.027A2.667,2.667,0,0,1,21.667,20.36Z" transform="translate(23.667 17)" fill="#010001"/>
      <path id="Path_45869" data-name="Path 45869" d="M21.667,16.36A2.667,2.667,0,0,1,19,13.693v-.027a2.667,2.667,0,1,1,5.333,0v.027A2.667,2.667,0,0,1,21.667,16.36Z" transform="translate(23.667 10.333)" fill="#010001"/>
      <path id="Path_45870" data-name="Path 45870" d="M21.667,12.36A2.667,2.667,0,0,1,19,9.693V9.667a2.667,2.667,0,1,1,5.333,0v.027A2.667,2.667,0,0,1,21.667,12.36Z" transform="translate(23.667 3.667)" fill="#010001"/>
      <path id="Rectangle_5733" data-name="Rectangle 5733" d="M-1-1H25.667V47H-1ZM20.333,4.333h-16V41.667h16Z" transform="translate(11.667 1)" fill="#010001"/>
      <path id="Path_45871" data-name="Path 45871" d="M5.667,8.36A2.667,2.667,0,0,1,3,5.693V5.667a2.667,2.667,0,0,1,5.333,0v.027A2.667,2.667,0,0,1,5.667,8.36Z" transform="translate(-3 -3)" fill="#010001"/>
      <path id="Path_45872" data-name="Path 45872" d="M5.667,24.36A2.667,2.667,0,0,1,3,21.693v-.027a2.667,2.667,0,1,1,5.333,0v.027A2.667,2.667,0,0,1,5.667,24.36Z" transform="translate(-3 23.667)" fill="#010001"/>
      <path id="Path_45873" data-name="Path 45873" d="M5.667,20.36A2.667,2.667,0,0,1,3,17.693v-.027a2.667,2.667,0,1,1,5.333,0v.027A2.667,2.667,0,0,1,5.667,20.36Z" transform="translate(-3 17)" fill="#010001"/>
      <path id="Path_45874" data-name="Path 45874" d="M5.667,16.36A2.667,2.667,0,0,1,3,13.693v-.027a2.667,2.667,0,0,1,5.333,0v.027A2.667,2.667,0,0,1,5.667,16.36Z" transform="translate(-3 10.333)" fill="#010001"/>
      <path id="Path_45875" data-name="Path 45875" d="M5.667,12.36A2.667,2.667,0,0,1,3,9.693V9.667a2.667,2.667,0,0,1,5.333,0v.027A2.667,2.667,0,0,1,5.667,12.36Z" transform="translate(-3 3.667)" fill="#010001"/>
    </g>
  </g>
</svg>