<svg id="_24x24-tire" data-name="24x24-tire" xmlns="http://www.w3.org/2000/svg" width="80" height="80" viewBox="0 0 80 80">
  <path id="boundingbox" d="M0,0H80V80H0Z" fill="#e5e5e5" opacity="0"/>
  <path id="tire" d="M53.33,63.338V60.006h-5v3.333H41.664V60.012h-5v3.326H30V60.012H25v3.326H18.33V60.006h-5v3.333H6.664V59.016a29.68,29.68,0,0,0-2.83-12.67q-.713-1.431-1.3-2.919A36.118,36.118,0,0,1,.184,33.718l0-.041v-.013Q0,31.849,0,30.005A33.043,33.043,0,0,1,6.746,9.893,16.384,16.384,0,0,0,10,.042V.005h6.667V.042a23.089,23.089,0,0,1-4.6,13.875,26.427,26.427,0,0,0-5.4,16.087h0q0,1.368.119,2.714a29.932,29.932,0,0,0,2.171,8.8q.342.82.735,1.624l.114.237A29.96,29.96,0,0,0,14.387,50.1a9.95,9.95,0,0,0,7.023,3.241H45.25A9.949,9.949,0,0,0,52.271,50.1a29.966,29.966,0,0,0,4.6-6.751l.1-.2q.372-.762.7-1.539a29.929,29.929,0,0,0,2.152-8.331,30.589,30.589,0,0,0,.174-3.272h0a26.428,26.428,0,0,0-5.4-16.087A23.093,23.093,0,0,1,50,.042V.005h6.666V.042a16.385,16.385,0,0,0,3.251,9.851,33.042,33.042,0,0,1,6.749,20.112q0,1.551-.129,3.086a36.129,36.129,0,0,1-2.475,10.5q-.56,1.4-1.236,2.761A29.7,29.7,0,0,0,60,59.016v4.323ZM30,43.339V36.672h6.666v6.666Zm0-10.007V10.005h6.666V33.332Z" transform="translate(6.67 9.995)" fill="#e5e5e5"/>
</svg>
