<svg xmlns="http://www.w3.org/2000/svg" width="26" height="26" viewBox="0 0 26 26">
  <g id="_24x24-appstore" data-name="24x24-appstore" transform="translate(1 1)">
    <path id="boundingbox" d="M0,0H24V24H0Z" fill="#f15a29" stroke="#f15a29" stroke-linecap="round" stroke-linejoin="round" stroke-width="2" opacity="0"/>
    <path id="appstore" d="M10.723,6.6c-.79,0-2.013-.9-3.3-.866A4.874,4.874,0,0,0,3.289,8.241C1.525,11.3,2.834,15.828,4.555,18.317c.844,1.212,1.84,2.576,3.16,2.532,1.266-.054,1.742-.822,3.279-.822s1.959.822,3.3.79c1.364-.022,2.229-1.234,3.063-2.457a10.876,10.876,0,0,0,1.385-2.846,4.415,4.415,0,0,1-2.684-4.047,4.49,4.49,0,0,1,2.164-3.8,4.685,4.685,0,0,0-3.658-1.98C12.9,5.558,11.5,6.6,10.723,6.6Zm2.814-2.554A4.375,4.375,0,0,0,14.576.85a4.5,4.5,0,0,0-2.944,1.515,4.185,4.185,0,0,0-1.061,3.1,3.731,3.731,0,0,0,2.965-1.418Z" transform="translate(1.403 0.15)" fill="#f15a29"/>
  </g>
</svg>
