<svg xmlns="http://www.w3.org/2000/svg" width="26" height="26" viewBox="0 0 26 26">
  <g id="_24x24-download" data-name="24x24-download" transform="translate(1 1)">
    <path id="boundingbox" d="M0,0H24V24H0Z" fill="#f15a29" stroke="#010001" stroke-linecap="round" stroke-linejoin="round" stroke-width="2" opacity="0"/>
    <path id="download" d="M16021.085,1692.76l-3-3,1.413-1.412,1.291,1.292v-6.587h2v6.591l1.3-1.3,1.412,1.412-3,3a1,1,0,0,1-1.416,0Zm6.708-3.71v-2h1a2.5,2.5,0,0,0,2.5-2.5,2.5,2.5,0,0,0-2.5-2.5h-1a1,1,0,0,1-.974-1.219,3.632,3.632,0,0,0-.54-2.813,4.842,4.842,0,0,0-8.51,1.251,1.006,1.006,0,0,1-1.019.781,3.57,3.57,0,0,0-3.653,2.615,3.355,3.355,0,0,0,2,3.867l.913.4-.8,1.835-.917-.4a5.353,5.353,0,0,1-3.135-6.189,5.556,5.556,0,0,1,4.885-4.108,6.11,6.11,0,0,1,2.636-3.086,7.091,7.091,0,0,1,4.905-.869,6.632,6.632,0,0,1,4.361,2.8,5.62,5.62,0,0,1,.958,3.139,4.507,4.507,0,0,1,4.39,4.5,4.5,4.5,0,0,1-4.5,4.5Z" transform="translate(-16009.793 -1670.052)" fill="#f15a29"/>
  </g>
</svg>
