<svg id="_24x24-360" data-name="24x24-360" xmlns="http://www.w3.org/2000/svg" width="48" height="48" viewBox="0 0 48 48">
  <path id="boundingbox" d="M0,0H48V48H0Z" fill="#f15a29" opacity="0"/>
  <g id="_360" data-name="360" transform="translate(5.994 5.995)">
    <path id="Path_19792" data-name="Path 19792" d="M22,25H18V19H12V15H22Z" transform="translate(6.006 9.005)" fill="#f15a29"/>
    <path id="Path_19793" data-name="Path 19793" d="M13.442,39.006a10.4,10.4,0,0,1-7.572-2.871C3.156,33.42,2.329,29.251,3.543,24.4a29.066,29.066,0,0,1,7.816-13.039A29.063,29.063,0,0,1,24.4,3.543c4.854-1.214,9.022-.386,11.736,2.33C39.265,9,39.872,14.065,37.8,19.77L34.039,18.4c1.5-4.121,1.224-7.747-.733-9.7-1.683-1.684-4.5-2.138-7.938-1.278a25.038,25.038,0,0,0-11.181,6.763A25.041,25.041,0,0,0,7.423,25.368C6.564,28.8,7.017,31.624,8.7,33.306c1.642,1.642,4.385,2.113,7.723,1.328a24.579,24.579,0,0,0,10.957-6.385l2.772,2.884a28.6,28.6,0,0,1-12.812,7.4A17.044,17.044,0,0,1,13.442,39.006Z" transform="translate(-2.997 -2.997)" fill="#f15a29"/>
  </g>
</svg>
