<svg xmlns="http://www.w3.org/2000/svg" width="42" height="42" viewBox="0 0 42 42">
  <g id="_24x24-noise-off" data-name="24x24-noise-off" transform="translate(1 1)">
    <path id="boundingbox" d="M653.675,381.58h40v40h-40Z" transform="translate(-653.675 -381.58)" fill="#f15a29" stroke="#f15a29" stroke-width="2" opacity="0"/>
    <g id="noise-off" transform="translate(3.821 3.822)">
      <path id="Line_75" data-name="Line 75" d="M29.293,31.65l-30-30L1.65-.707l30,30Z" transform="translate(0.707 0.707)" fill="#f15a29"/>
      <path id="Path_45856" data-name="Path 45856" d="M667.506,407.393a5.1,5.1,0,0,1-4.916-3.488,24.743,24.743,0,0,1-1.326-6.755,1.33,1.33,0,0,1-.006-.143,1.526,1.526,0,0,0-1.384-1.465h-3.221V392.58h3.333a1.888,1.888,0,0,1,.191.01,4.65,4.65,0,0,1,4.414,4.371,22.48,22.48,0,0,0,1.12,5.905c.659,1.564,1.37,1.564,1.794,1.564.853,0,1.406-1.284,1.72-2.361a30.348,30.348,0,0,0,.78-8.008h3.333a32.731,32.731,0,0,1-.887,8.751,7.694,7.694,0,0,1-1.595,3.1A4.428,4.428,0,0,1,667.506,407.393Z" transform="translate(-655.511 -378.068)" fill="#f15a29"/>
      <path id="Path_45856-2" data-name="Path 45856" d="M681.225,399.413h-3.333a1.866,1.866,0,0,1-.193-.01,4.654,4.654,0,0,1-4.409-4.376,22.677,22.677,0,0,0-1.123-5.913c-.659-1.567-1.368-1.567-1.792-1.567-.184,0-.614,0-1.13.9a11.206,11.206,0,0,0-1.082,3.969l-3.312-.336a13.552,13.552,0,0,1,1.425-4.981,4.558,4.558,0,0,1,4.1-2.52,5.1,5.1,0,0,1,4.914,3.495,24.184,24.184,0,0,1,1.328,6.76,1.3,1.3,0,0,1,.006.144A1.528,1.528,0,0,0,678,396.447h3.22Z" transform="translate(-650.046 -383.402)" fill="#f15a29"/>
    </g>
  </g>
</svg>
