<svg id="_24x24-disc" data-name="24x24-disc" xmlns="http://www.w3.org/2000/svg" width="48" height="48" viewBox="0 0 48 48">
  <path id="boundingbox" d="M0,0H48V48H0Z" fill="#f15a29" opacity="0"/>
  <g id="disc" transform="translate(4 4)">
    <path id="Ellipse_19" data-name="Ellipse 19" d="M19-1A20,20,0,1,1-1,19,20.023,20.023,0,0,1,19-1Zm0,36A16,16,0,1,0,3,19,16.018,16.018,0,0,0,19,35Z" transform="translate(1 1)" fill="#f15a29"/>
    <path id="Ellipse_20" data-name="Ellipse 20" d="M3-1A4,4,0,1,1-1,3,4,4,0,0,1,3-1Z" transform="translate(17 17)" fill="#f15a29"/>
    <path id="Path_19787" data-name="Path 19787" d="M10,18H6A12,12,0,0,1,18,6v4a8,8,0,0,0-8,8Z" transform="translate(2 2)" fill="#f15a29"/>
    <path id="Path_19788" data-name="Path 19788" d="M12,24V20a8.009,8.009,0,0,0,8-8h4A12.014,12.014,0,0,1,12,24Z" transform="translate(8 8)" fill="#f15a29"/>
  </g>
</svg>
