<svg id="_24x24-tire" data-name="24x24-tire" xmlns="http://www.w3.org/2000/svg" width="48" height="48" viewBox="0 0 48 48">
  <path id="boundingbox" d="M0,0H48V48H0Z" fill="#f15a29" opacity="0"/>
  <path id="tire" d="M32,38V36H29v2H25v-2H22v2H18v-2H15v2H11V36H8v2H4V35.41a17.815,17.815,0,0,0-1.7-7.612q-.381-.767-.7-1.561a21.68,21.68,0,0,1-1.51-6.3Q0,18.977,0,18A19.825,19.825,0,0,1,4.048,5.936,9.832,9.832,0,0,0,6,.025V0h4V.025A13.854,13.854,0,0,1,7.236,8.351,15.856,15.856,0,0,0,4,18H4q0,.9.086,1.778a17.961,17.961,0,0,0,1.292,5.14l.01.025.008.019q.2.465.419.922l.059.121a17.985,17.985,0,0,0,2.759,4.05A5.969,5.969,0,0,0,12.841,32H27.155a5.972,5.972,0,0,0,4.208-1.943,17.992,17.992,0,0,0,2.756-4.044l.062-.128q.241-.493.45-1a17.957,17.957,0,0,0,1.28-5.11Q36,18.9,36,18h0A15.856,15.856,0,0,0,32.76,8.351,13.854,13.854,0,0,1,30,.025V0h4V.025a9.827,9.827,0,0,0,1.95,5.91A19.83,19.83,0,0,1,40,18q0,.974-.085,1.936A21.668,21.668,0,0,1,38.5,26q-.364.932-.812,1.83A17.829,17.829,0,0,0,36,35.41V38ZM18,26V22h4v4Zm0-6V6h4V20Z" transform="translate(4.002 5.997)" fill="#f15a29"/>
</svg>
