<svg id="_24x24-pump" data-name="24x24-pump" xmlns="http://www.w3.org/2000/svg" width="48" height="48" viewBox="0 0 48 48">
  <path id="boundingbox" d="M0,0H48V48H0Z" fill="#f15a29" opacity="0"/>
  <g id="pump" transform="translate(4 4)">
    <path id="Ellipse_22" data-name="Ellipse 22" d="M19-1A20,20,0,1,1-1,19,20.023,20.023,0,0,1,19-1Zm0,36A16,16,0,1,0,3,19,16.018,16.018,0,0,0,19,35Z" transform="translate(1 1)" fill="#f15a29"/>
    <path id="Ellipse_23" data-name="Ellipse 23" d="M3-1A4,4,0,1,1-1,3,4,4,0,0,1,3-1Z" transform="translate(17 17)" fill="#f15a29"/>
    <path id="Line_40" data-name="Line 40" d="M1.414,9.423-1.414,6.594,6.594-1.414,9.423,1.414Z" transform="translate(21.406 10.586)" fill="#f15a29"/>
    <path id="Path_19795" data-name="Path 19795" d="M10,20H6V18A12,12,0,0,1,18,6h2v4H18a8,8,0,0,0-8,8Z" transform="translate(2 2)" fill="#f15a29"/>
  </g>
</svg>
