<svg xmlns="http://www.w3.org/2000/svg" width="48" height="48" viewBox="0 0 48 48">
  <path d="M0,0H48V48H0Z" fill="#f15a29" opacity="0"/>
  <g transform="translate(8 4)">
    <path d="M15-1A16,16,0,1,1-1,15,16.018,16.018,0,0,1,15-1Zm0,28A12,12,0,1,0,3,15,12.014,12.014,0,0,0,15,27Z" transform="translate(1 1)" fill="#f15a29"/>
    <path d="M7-1A8,8,0,1,1-1,7,8.009,8.009,0,0,1,7-1ZM7,11A4,4,0,1,0,3,7,4,4,0,0,0,7,11Z" transform="translate(9 9)" fill="#f15a29"/>
    <path d="M29.7,29H8.765a4,4,0,0,1-3.43-6.056l4.182-6.973a2,2,0,1,1,3.43,2.058L8.766,25H29.7l-4.183-6.971a2,2,0,1,1,3.43-2.058l4.182,6.972A4,4,0,0,1,29.7,29Z" transform="translate(-3.233 11)" fill="#f15a29"/>
  </g>
</svg>
