<svg id="icar-logo" xmlns="http://www.w3.org/2000/svg" width="154.468" height="88" viewBox="0 0 154.468 88">
  <rect id="boundingbox" width="154.468" height="88" fill="#fff" opacity="0"/>
  <path id="logomark" d="M31.4,40.074,35.6,0a20.143,20.143,0,0,1-2.06,40.186A20.482,20.482,0,0,1,31.4,40.074ZM18.169,1.745A19.868,19.868,0,0,1,30.574,20.315,19.9,19.9,0,0,1,14.217,39.478Zm-14.5,1.6A19.408,19.408,0,0,1,13.333,20.31,19.541,19.541,0,0,1,0,38.411Z" transform="translate(92.257 2.75)" fill="#f15a29" stroke="rgba(0,0,0,0)" stroke-miterlimit="10" stroke-width="1"/>
  <path id="logotype" d="M24.771,33.888a15.366,15.366,0,0,1-5.008-2.979,14.7,14.7,0,0,1-4.081-5.958,15.931,15.931,0,0,1-.931-4.933,17.485,17.485,0,0,1,.081-2.538A18.482,18.482,0,0,1,17.277,10a19.44,19.44,0,0,1,5.365-5.97A21.179,21.179,0,0,1,28.3,1.049,22.051,22.051,0,0,1,31.382.268,17.915,17.915,0,0,1,34.459,0a16.62,16.62,0,0,1,3.666.391,17.627,17.627,0,0,1,1.868.5q.929.3,2.1.792L40.985,12.069A9.132,9.132,0,0,0,38.727,9.82a8.76,8.76,0,0,0-4.854-1.391,9.892,9.892,0,0,0-6.1,2.025,9.631,9.631,0,0,0-3.895,7.025c-.05.5-.073.867-.073,1.084s0,.386,0,.5a7.222,7.222,0,0,0,2.444,5.368,8.282,8.282,0,0,0,5.71,2.075,10.544,10.544,0,0,0,5.147-1.394,9.269,9.269,0,0,0,1.363-.916,12.439,12.439,0,0,0,1.376-1.332L38.739,33.251c-.823.309-1.568.564-2.24.768s-1.354.378-2.051.527a18.763,18.763,0,0,1-3.786.389A16.974,16.974,0,0,1,24.771,33.888Zm82.246.169h-5.859S92.99,17.809,92.813,17.381c-.6-1.462.358-1.667,1.21-1.721a11.742,11.742,0,0,0,1.289-.181c.006,0,.013,0,.017,0a4.77,4.77,0,0,0,2.266-.988,4.548,4.548,0,0,0,1.077-1.395,4.469,4.469,0,0,0,.554-1.637,3.667,3.667,0,0,0,.008-.488,4.805,4.805,0,0,0-.042-.537,5.092,5.092,0,0,0-.169-.624,4.735,4.735,0,0,0-.307-.745,2.49,2.49,0,0,0-.477-.609Q97.168,7.3,94.425,7.305H90.762l-.884,8.33-.609,5.626,0-.008L87.9,34.056H79.2L82.458,3.534A3.157,3.157,0,0,1,85.625.708h12.71a13.386,13.386,0,0,1,5.126.842,7.173,7.173,0,0,1,3.256,2.7,8.316,8.316,0,0,1,1.359,3.124,8.744,8.744,0,0,1,.186,1.078c.044.406.077.812.092,1.221a11.613,11.613,0,0,1-.03,1.295,11.688,11.688,0,0,1-1.135,3.945,9,9,0,0,1-3.569,3.362v0c-1.272.833-2.477.531-.866,3.053l7.365,12.724Zm-40.362,0-1.525-5.815H53.12l-2.934,5.815H41l15.215-30.9A4.41,4.41,0,0,1,60.2.708H66.9l9.04,33.348ZM56.222,21.645h7.253L60.994,11.019ZM0,34.056,3.35,2.644A2.164,2.164,0,0,1,5.521.708h6.736L8.7,34.056Z" transform="translate(8.468 50.315)" fill="#010001" stroke="rgba(0,0,0,0)" stroke-miterlimit="10" stroke-width="1"/>
</svg>