<svg id="icar-logo" xmlns="http://www.w3.org/2000/svg" width="112" height="64" viewBox="0 0 112 64">
  <rect id="boundingbox" width="112" height="64" fill="#fff" opacity="0"/>
  <path id="logomark" d="M22.768,29.144,25.811,0a14.651,14.651,0,0,1-1.494,29.226A14.806,14.806,0,0,1,22.768,29.144ZM13.174,1.269a14.449,14.449,0,0,1,9,13.5,14.456,14.456,0,0,1-11.86,13.937ZM2.661,2.433A14.123,14.123,0,0,1,9.668,14.771,14.207,14.207,0,0,1,0,27.935Z" transform="translate(66.893 2)" fill="#f15a29" stroke="rgba(0,0,0,0)" stroke-miterlimit="10" stroke-width="1"/>
  <path id="logotype" d="M17.96,24.646a11.135,11.135,0,0,1-3.631-2.167,10.694,10.694,0,0,1-2.959-4.333,11.617,11.617,0,0,1-.675-3.588,12.755,12.755,0,0,1,.059-1.846,13.47,13.47,0,0,1,1.772-5.441,14.124,14.124,0,0,1,3.89-4.342,15.341,15.341,0,0,1,4.1-2.167A15.949,15.949,0,0,1,22.754.195,12.951,12.951,0,0,1,24.985,0a12.015,12.015,0,0,1,2.658.284A12.75,12.75,0,0,1,29,.648q.674.222,1.522.576l-.8,7.553A6.632,6.632,0,0,0,28.08,7.142,6.337,6.337,0,0,0,24.56,6.13,7.158,7.158,0,0,0,20.136,7.6a7.01,7.01,0,0,0-2.824,5.109c-.036.367-.053.63-.053.789s0,.281,0,.364a5.259,5.259,0,0,0,1.772,3.9,5.994,5.994,0,0,0,4.14,1.509,7.627,7.627,0,0,0,3.732-1.014,6.72,6.72,0,0,0,.988-.667,9.032,9.032,0,0,0,1-.969l-.8,7.554c-.6.225-1.137.41-1.624.558s-.982.275-1.487.383a13.565,13.565,0,0,1-2.745.283A12.274,12.274,0,0,1,17.96,24.646Zm59.634.123H73.346S67.424,12.952,67.3,12.641c-.437-1.063.26-1.212.878-1.252a8.49,8.49,0,0,0,.934-.131s.009,0,.012,0a3.454,3.454,0,0,0,1.643-.718,3.307,3.307,0,0,0,.781-1.014,3.257,3.257,0,0,0,.4-1.19,2.675,2.675,0,0,0,.006-.355,3.5,3.5,0,0,0-.031-.39,3.712,3.712,0,0,0-.123-.454,3.449,3.449,0,0,0-.223-.542,1.81,1.81,0,0,0-.346-.443,3.677,3.677,0,0,0-2.764-.835H65.809l-.641,6.058-.441,4.092,0-.005-.989,9.311H57.427l2.361-22.2a2.291,2.291,0,0,1,2.3-2.055H71.3a9.679,9.679,0,0,1,3.717.612,5.2,5.2,0,0,1,2.361,1.965,6.057,6.057,0,0,1,.985,2.272,6.377,6.377,0,0,1,.135.784c.032.3.056.591.067.888a8.469,8.469,0,0,1-.022.942,8.519,8.519,0,0,1-.823,2.869,6.534,6.534,0,0,1-2.588,2.445h0c-.922.606-1.8.386-.628,2.221l5.34,9.254Zm-29.265,0-1.105-4.229H38.516l-2.127,4.229H29.728L40.76,2.3A3.2,3.2,0,0,1,43.647.515h4.864l6.554,24.253Zm-7.564-9.027h5.259l-1.8-7.728ZM0,24.768,2.429,1.923A1.57,1.57,0,0,1,4,.515H8.887L6.306,24.768Z" transform="translate(6.14 36.593)" fill="#010001" stroke="rgba(0,0,0,0)" stroke-miterlimit="10" stroke-width="1"/>
</svg>
