<svg xmlns="http://www.w3.org/2000/svg" width="75.422" height="24.077" viewBox="0 0 75.422 24.077">
  <g id="icar-logotype" transform="translate(0 0.038)">
    <rect id="boundingbox" width="75.422" height="24" fill="#010001" opacity="0"/>
    <path id="logotype" d="M15.868,22.385a9.855,9.855,0,0,1-5.822-5.9,10.814,10.814,0,0,1-.6-3.259A11.908,11.908,0,0,1,9.5,11.547a12.474,12.474,0,0,1,1.566-4.942A12.716,12.716,0,0,1,14.5,2.661,13.433,13.433,0,0,1,18.127.693,13.778,13.778,0,0,1,20.1.177,11.138,11.138,0,0,1,22.074,0a10.338,10.338,0,0,1,2.349.258,11.02,11.02,0,0,1,1.2.331q.6.2,1.344.523l-.709,6.86a5.943,5.943,0,0,0-1.446-1.486,5.488,5.488,0,0,0-3.11-.919A6.211,6.211,0,0,0,17.79,6.906a6.413,6.413,0,0,0-2.495,4.64c-.032.333-.047.573-.047.716s0,.255,0,.331a4.835,4.835,0,0,0,1.566,3.546,5.211,5.211,0,0,0,3.658,1.371,6.6,6.6,0,0,0,3.3-.921,5.93,5.93,0,0,0,.873-.605,8.084,8.084,0,0,0,.881-.88l-.709,6.861q-.79.306-1.435.507c-.428.135-.868.25-1.314.348a11.669,11.669,0,0,1-2.425.257A10.58,10.58,0,0,1,15.868,22.385Zm52.686.111H64.8s-5.232-10.732-5.345-11.015c-.386-.965.229-1.1.775-1.137a7.308,7.308,0,0,0,.825-.119s.008,0,.011,0a3.012,3.012,0,0,0,1.452-.652,2.994,2.994,0,0,0,.69-.921,3.016,3.016,0,0,0,.355-1.081,2.5,2.5,0,0,0,.005-.322,3.272,3.272,0,0,0-.027-.355,3.449,3.449,0,0,0-.108-.412,3.183,3.183,0,0,0-.2-.492,1.639,1.639,0,0,0-.306-.4,3.192,3.192,0,0,0-2.442-.759H58.141l-.566,5.5-.39,3.717,0,0L56.31,22.5H50.736L52.822,2.334A2.046,2.046,0,0,1,54.851.468h8.142a8.342,8.342,0,0,1,3.284.556,4.631,4.631,0,0,1,2.086,1.785,5.581,5.581,0,0,1,.87,2.064,5.941,5.941,0,0,1,.119.712c.028.268.049.536.059.807a7.905,7.905,0,0,1-.019.855,7.9,7.9,0,0,1-.727,2.606,5.847,5.847,0,0,1-2.286,2.221h0c-.815.55-1.587.351-.554,2.017l4.718,8.4ZM42.7,22.5l-.977-3.841H34.028L32.149,22.5H26.264L36.011,2.086A2.817,2.817,0,0,1,38.562.468h4.3L48.649,22.5Zm-6.683-8.2h4.646L39.072,7.279ZM0,22.5,2.146,1.747A1.4,1.4,0,0,1,3.537.468H7.852L5.571,22.5Z" transform="translate(2.44 0.462)" fill="#010001" stroke="rgba(0,0,0,0)" stroke-width="1"/>
  </g>
</svg>
