<svg id="_24x24-youtube" data-name="24x24-youtube" xmlns="http://www.w3.org/2000/svg" width="24" height="24" viewBox="0 0 24 24">
  <rect id="boundingbox" width="24" height="24" fill="#fff" opacity="0"/>
  <path id="Path_89" data-name="Path 89" d="M302.517,458.2a2.513,2.513,0,0,0-1.768-1.78c-1.56-.42-7.814-.42-7.814-.42s-6.254,0-7.814.42a2.515,2.515,0,0,0-1.768,1.78,28.327,28.327,0,0,0,0,9.688,2.516,2.516,0,0,0,1.768,1.78c1.56.42,7.814.42,7.814.42s6.254,0,7.814-.42a2.514,2.514,0,0,0,1.768-1.78A28.287,28.287,0,0,0,302.517,458.2Zm-11.625,7.819v-5.948l5.226,2.974Z" transform="translate(-280.935 -451.047)" fill="#fff"/>
</svg>
