<svg id="logo" xmlns="http://www.w3.org/2000/svg" width="24" height="24" viewBox="0 0 24 24">
  <path id="Path_19647" data-name="Path 19647" d="M11.058.166h2.127a12.137,12.137,0,0,1,6.144,1.242,8.419,8.419,0,0,1,3.515,3.515,12.137,12.137,0,0,1,1.242,6.144v2.118a12.137,12.137,0,0,1-1.242,6.144,8.419,8.419,0,0,1-3.515,3.515,12.137,12.137,0,0,1-6.144,1.242H11.067a12.137,12.137,0,0,1-6.144-1.242,8.419,8.419,0,0,1-3.515-3.515A12.137,12.137,0,0,1,.166,13.185V11.067A12.137,12.137,0,0,1,1.408,4.923,8.419,8.419,0,0,1,4.923,1.408,12.1,12.1,0,0,1,11.058.166Z" transform="translate(-0.166 -0.086)" fill="#0068ff" fill-rule="evenodd"/>
  <path id="Path_19648" data-name="Path 19648" d="M27.771,26.474v.35a12.137,12.137,0,0,1-1.242,6.144,8.419,8.419,0,0,1-3.515,3.515,12.137,12.137,0,0,1-6.144,1.242H14.752a13.385,13.385,0,0,1-5.293-.837L7.275,34.638Z" transform="translate(-3.852 -13.724)" fill="#001a33" fill-rule="evenodd" opacity="0.12"/>
  <path id="Path_19649" data-name="Path 19649" d="M5.965,20.992a7,7,0,0,0,3.51-.677c4.312,2.384,11.053,2.27,15.134-.342q.237-.356.443-.74A12.181,12.181,0,0,0,26.3,13.066V10.941a12.181,12.181,0,0,0-1.246-6.167,8.45,8.45,0,0,0-3.528-3.528A12.181,12.181,0,0,0,15.358,0H13.223A13.114,13.114,0,0,0,7.743.915q-.112.1-.219.2c-4,3.852-4.3,12.2-.911,16.739l.013.02c.522.77.018,2.117-.77,2.9C5.727,20.9,5.773,20.974,5.965,20.992Z" transform="translate(-2.299)" fill="#fff" fill-rule="evenodd"/>
  <path id="Path_19650" data-name="Path 19650" d="M15.384,17H10.7v1h3.25l-3.2,3.971a.9.9,0,0,0-.173.593v.256h4.419a.405.405,0,0,0,.4-.4v-.539H11.979l3.013-3.78c.046-.055.128-.155.164-.2l.018-.027a1.193,1.193,0,0,0,.21-.739Z" transform="translate(-5.561 -8.813)" fill="#0068ff"/>
  <path id="Path_19651" data-name="Path 19651" d="M32.578,22.825h.666V17h-1v5.487A.337.337,0,0,0,32.578,22.825Z" transform="translate(-16.793 -8.813)" fill="#0068ff"/>
  <path id="Path_19652" data-name="Path 19652" d="M23.357,19.692a2.282,2.282,0,1,0,2.282,2.282A2.283,2.283,0,0,0,23.357,19.692Zm0,3.624A1.342,1.342,0,1,1,24.7,21.975,1.344,1.344,0,0,1,23.357,23.317Z" transform="translate(-11.005 -10.209)" fill="#0068ff"/>
  <path id="Path_19653" data-name="Path 19653" d="M38.01,19.616a2.3,2.3,0,1,0,2.3,2.3A2.3,2.3,0,0,0,38.01,19.616Zm0,3.661a1.351,1.351,0,1,1,1.351-1.351A1.348,1.348,0,0,1,38.01,23.277Z" transform="translate(-18.592 -10.169)" fill="#0068ff"/>
  <path id="Path_19654" data-name="Path 19654" d="M29.024,24.358h.539v-4.4h-.94v4.008A.4.4,0,0,0,29.024,24.358Z" transform="translate(-14.918 -10.346)" fill="#0068ff"/>
</svg>
