<svg id="_24x24-instagram" data-name="24x24-instagram" xmlns="http://www.w3.org/2000/svg" width="24" height="24" viewBox="0 0 24 24">
  <rect id="boundingbox" width="24" height="24" fill="#fff" opacity="0"/>
  <path id="Path_88" data-name="Path 88" d="M-6425.71-1653.053a6.607,6.607,0,0,1-2.185-.418,4.431,4.431,0,0,1-1.595-1.039,4.407,4.407,0,0,1-1.038-1.594,6.594,6.594,0,0,1-.417-2.185c-.044-.96-.055-1.266-.055-3.71s.011-2.75.054-3.709a6.6,6.6,0,0,1,.418-2.185,4.412,4.412,0,0,1,1.039-1.594,4.415,4.415,0,0,1,1.594-1.038,6.6,6.6,0,0,1,2.185-.419c.96-.044,1.266-.054,3.71-.054s2.75.01,3.71.054a6.611,6.611,0,0,1,2.186.418,4.412,4.412,0,0,1,1.593,1.038,4.388,4.388,0,0,1,1.039,1.594,6.633,6.633,0,0,1,.419,2.185c.042.96.054,1.266.054,3.709s-.011,2.75-.054,3.71a6.633,6.633,0,0,1-.419,2.185,4.387,4.387,0,0,1-1.039,1.593,4.411,4.411,0,0,1-1.593,1.039,6.607,6.607,0,0,1-2.186.418c-.96.044-1.267.054-3.71.054S-6424.752-1653.014-6425.71-1653.053Zm.074-16.27a4.981,4.981,0,0,0-1.671.31,2.774,2.774,0,0,0-1.035.673,2.782,2.782,0,0,0-.672,1.034,5,5,0,0,0-.311,1.671c-.042.949-.052,1.234-.052,3.636s.01,2.687.052,3.636a5,5,0,0,0,.311,1.671,2.783,2.783,0,0,0,.672,1.034,2.774,2.774,0,0,0,1.035.673,4.988,4.988,0,0,0,1.671.311c.95.043,1.234.052,3.637.052s2.688-.008,3.636-.052a4.971,4.971,0,0,0,1.67-.311,2.781,2.781,0,0,0,1.036-.673,2.793,2.793,0,0,0,.673-1.034,5,5,0,0,0,.309-1.671c.043-.949.052-1.233.052-3.636s-.009-2.687-.052-3.636a5,5,0,0,0-.309-1.671,2.8,2.8,0,0,0-.673-1.034,2.777,2.777,0,0,0-1.035-.673,4.977,4.977,0,0,0-1.671-.31c-.949-.044-1.232-.052-3.636-.052s-2.688.008-3.641.047Zm-.828,7.328a4.466,4.466,0,0,1,4.465-4.465,4.464,4.464,0,0,1,4.464,4.465,4.465,4.465,0,0,1-4.465,4.465,4.465,4.465,0,0,1-4.461-4.471Zm1.567,0a2.9,2.9,0,0,0,2.9,2.9,2.9,2.9,0,0,0,2.9-2.9,2.9,2.9,0,0,0-2.9-2.9,2.9,2.9,0,0,0-2.9,2.892Zm6.56-4.78a1.118,1.118,0,0,1,1.118-1.118,1.119,1.119,0,0,1,1.12,1.118,1.119,1.119,0,0,1-.328.791,1.119,1.119,0,0,1-.791.327,1.116,1.116,0,0,1-.792-.33,1.116,1.116,0,0,1-.325-.8Z" transform="translate(6433.846 1673.997)" fill="#fff" stroke="rgba(0,0,0,0)" stroke-width="1"/>
</svg>
