<svg id="_24x24-browser" data-name="24x24-browser" xmlns="http://www.w3.org/2000/svg" width="16" height="16" viewBox="0 0 16 16">
  <path id="boundingbox" d="M0,0H16V16H0Z" fill="#4c4c4c" opacity="0"/>
  <path id="Union_49" data-name="Union 49" d="M6.922,13.33c-.085,0-.17,0-.256,0s-.169,0-.254,0a.514.514,0,0,1-.078,0,.706.706,0,0,1-.15-.017,6.668,6.668,0,0,1,0-13.3A.67.67,0,0,1,6.411,0c.084,0,.17,0,.255,0s.172,0,.257.006A.658.658,0,0,1,7.15.018a6.667,6.667,0,0,1,0,13.3A.655.655,0,0,1,7,13.335.521.521,0,0,1,6.922,13.33Zm-.255-1.408A10.531,10.531,0,0,0,7.706,9.334H5.628A10.608,10.608,0,0,0,6.667,11.922Zm-1.584-.16a12,12,0,0,1-.834-2.428H2.05A5.365,5.365,0,0,0,5.083,11.762Zm3.168,0a5.364,5.364,0,0,0,3.034-2.427h-2.2A12,12,0,0,1,8.251,11.761ZM11.832,8a5.343,5.343,0,0,0,0-2.664H9.312a12.062,12.062,0,0,1,.074,1.33A12.133,12.133,0,0,1,9.312,8ZM7.958,8a10.76,10.76,0,0,0,0-2.664H5.376A10.808,10.808,0,0,0,5.376,8ZM4.023,8a11.9,11.9,0,0,1-.074-1.334,12.062,12.062,0,0,1,.073-1.33H1.5A5.358,5.358,0,0,0,1.5,8Zm7.262-4A5.368,5.368,0,0,0,8.252,1.574,11.99,11.99,0,0,1,9.086,4ZM7.706,4A10.531,10.531,0,0,0,6.667,1.414,10.608,10.608,0,0,0,5.628,4ZM4.249,4a11.969,11.969,0,0,1,.834-2.428A5.363,5.363,0,0,0,2.049,4Z" transform="translate(1.333 1.333)" fill="#4c4c4c"/>
</svg>