<svg id="logo-3conn" xmlns="http://www.w3.org/2000/svg" width="48" height="16" viewBox="0 0 48 16">
  <rect id="boundingbox" width="48" height="16" fill="#fff" opacity="0"/>
  <path id="logo-3conn-2" data-name="logo-3conn" d="M11.08,10.44a2.823,2.823,0,0,1-.949-.654,3.1,3.1,0,0,1-.653-1.052A4.012,4.012,0,0,1,9.24,7.308,4.014,4.014,0,0,1,9.448,6a2.982,2.982,0,0,1,.619-1.057,2.883,2.883,0,0,1,1.013-.7,3.573,3.573,0,0,1,1.394-.256,3.423,3.423,0,0,1,1.341.243,3.28,3.28,0,0,1,1.035.711l-.511.683a1.221,1.221,0,0,1-.169.167.368.368,0,0,1-.231.066.5.5,0,0,1-.259-.071c-.077-.044-.164-.1-.258-.152a1.715,1.715,0,0,0-.337-.152,1.581,1.581,0,0,0-1.1.059,1.186,1.186,0,0,0-.429.375,1.81,1.81,0,0,0-.25.6,3.591,3.591,0,0,0-.081.8,2.434,2.434,0,0,0,.36,1.431,1.15,1.15,0,0,0,.991.5,1.394,1.394,0,0,0,.535-.086,1.546,1.546,0,0,0,.335-.189c.09-.068.173-.13.252-.188a.463.463,0,0,1,.291-.086.4.4,0,0,1,.35.169l.562.69a2.989,2.989,0,0,1-.631.56,3.332,3.332,0,0,1-.678.338,3.462,3.462,0,0,1-.7.167,5.131,5.131,0,0,1-.681.049A2.938,2.938,0,0,1,11.08,10.44ZM2.413,10.5a3.122,3.122,0,0,1-1.03-.5,3.291,3.291,0,0,1-.791-.871A5.772,5.772,0,0,1,0,7.871l.986-.4a1.261,1.261,0,0,1,.718-.081.684.684,0,0,1,.472.333,2.644,2.644,0,0,0,.682.862,1.4,1.4,0,0,0,.852.269,1.552,1.552,0,0,0,.649-.127,1.341,1.341,0,0,0,.733-.769,1.464,1.464,0,0,0,.093-.509,3.3,3.3,0,0,0-.047-.6.772.772,0,0,0-.261-.462,1.436,1.436,0,0,0-.647-.3,5.46,5.46,0,0,0-1.208-.1V4.447a4.337,4.337,0,0,0,1.052-.1,1.562,1.562,0,0,0,.619-.274.829.829,0,0,0,.291-.425,2,2,0,0,0,.071-.554,1.375,1.375,0,0,0-.3-.948,1.156,1.156,0,0,0-.905-.333,1.334,1.334,0,0,0-1.307.91.913.913,0,0,1-.392.521,1.1,1.1,0,0,1-.692.058L.287,3.092a3.939,3.939,0,0,1,.441-1.36A3.158,3.158,0,0,1,1.536.767,3.322,3.322,0,0,1,2.642.188,4.578,4.578,0,0,1,3.983,0a4,4,0,0,1,1.375.22,3.089,3.089,0,0,1,1.018.59,2.517,2.517,0,0,1,.631.86,2.592,2.592,0,0,1,.213,1.037,3.456,3.456,0,0,1-.1.871,1.984,1.984,0,0,1-.3.651,1.741,1.741,0,0,1-.487.465,3.057,3.057,0,0,1-.662.319A2.331,2.331,0,0,1,7.408,7.377a3.273,3.273,0,0,1-.3,1.446,2.934,2.934,0,0,1-.8,1.023,3.386,3.386,0,0,1-1.174.616,4.79,4.79,0,0,1-1.389.2A5.024,5.024,0,0,1,2.413,10.5Zm38.489.048a1.235,1.235,0,0,1-.418-.271A1.262,1.262,0,0,1,40.1,9.36a1.254,1.254,0,0,1,.383-.915,1.3,1.3,0,0,1,.418-.275,1.428,1.428,0,0,1,1.049,0,1.4,1.4,0,0,1,.425.275,1.258,1.258,0,0,1,.383.915,1.266,1.266,0,0,1-.383.922,1.327,1.327,0,0,1-.425.271,1.478,1.478,0,0,1-1.049,0Zm-22.857-.172a3.023,3.023,0,0,1-1.053-.67,2.951,2.951,0,0,1-.679-1.055,3.809,3.809,0,0,1-.241-1.4,3.759,3.759,0,0,1,.241-1.385,2.977,2.977,0,0,1,.679-1.046,3.016,3.016,0,0,1,1.053-.661,4,4,0,0,1,2.695,0,2.946,2.946,0,0,1,1.04.661,3.061,3.061,0,0,1,.676,1.046,3.816,3.816,0,0,1,.24,1.385,3.867,3.867,0,0,1-.24,1.4,3.032,3.032,0,0,1-.676,1.055,2.954,2.954,0,0,1-1.04.67,4,4,0,0,1-2.695,0Zm.347-4.539a2.535,2.535,0,0,0-.321,1.431,2.574,2.574,0,0,0,.321,1.435,1.119,1.119,0,0,0,1,.469,1.1,1.1,0,0,0,.985-.469A2.6,2.6,0,0,0,20.7,7.273a2.562,2.562,0,0,0-.316-1.431,1.1,1.1,0,0,0-.985-.47A1.12,1.12,0,0,0,18.392,5.842Zm18.056,4.725V6.446a1.136,1.136,0,0,0-.22-.741.793.793,0,0,0-.644-.266,1.382,1.382,0,0,0-.6.135,2.325,2.325,0,0,0-.54.367v4.625H32.512V4.083h1.2a.455.455,0,0,1,.475.328l.113.373a4.687,4.687,0,0,1,.387-.323,2.152,2.152,0,0,1,.427-.252,2.481,2.481,0,0,1,.493-.166,2.8,2.8,0,0,1,.579-.058,2.28,2.28,0,0,1,.94.183,2,2,0,0,1,.693.514,2.261,2.261,0,0,1,.423.779,3.235,3.235,0,0,1,.144.985v4.121Zm-8.014,0V6.446a1.141,1.141,0,0,0-.219-.741.789.789,0,0,0-.641-.266,1.378,1.378,0,0,0-.6.135,2.348,2.348,0,0,0-.541.367v4.625H24.5V4.083h1.2a.458.458,0,0,1,.475.328l.113.373a4.828,4.828,0,0,1,.386-.323,2.109,2.109,0,0,1,.428-.252,2.434,2.434,0,0,1,.492-.166,2.792,2.792,0,0,1,.577-.058,2.293,2.293,0,0,1,.943.183,1.978,1.978,0,0,1,.69.514,2.3,2.3,0,0,1,.427.779,3.32,3.32,0,0,1,.142.985v4.121Z" transform="translate(2.453 2.668)" fill="#fff" stroke="rgba(0,0,0,0)" stroke-width="1"/>
</svg>
