<svg id="icar-logo" xmlns="http://www.w3.org/2000/svg" width="182" height="104" viewBox="0 0 182 104">
  <rect id="boundingbox" width="182" height="104" fill="#fff" opacity="0"/>
  <path id="logomark" d="M37,47.36,41.942,0a23.808,23.808,0,0,1-2.427,47.493A24.06,24.06,0,0,1,37,47.36ZM21.407,2.063A23.48,23.48,0,0,1,36.024,24.008,23.491,23.491,0,0,1,16.751,46.655ZM4.323,3.954A22.95,22.95,0,0,1,15.71,24,23.086,23.086,0,0,1,0,45.4Z" transform="translate(108.701 3.25)" fill="#f15a29" stroke="rgba(0,0,0,0)" stroke-width="1"/>
  <path id="logotype" d="M29.186,40.049a18.094,18.094,0,0,1-5.9-3.521,17.378,17.378,0,0,1-4.808-7.041,18.878,18.878,0,0,1-1.1-5.83,20.727,20.727,0,0,1,.1-3,21.888,21.888,0,0,1,2.88-8.841,22.951,22.951,0,0,1,6.321-7.056A24.929,24.929,0,0,1,33.341,1.24,25.917,25.917,0,0,1,36.975.316,21.046,21.046,0,0,1,40.6,0a19.525,19.525,0,0,1,4.32.462,20.719,20.719,0,0,1,2.2.591q1.095.36,2.473.937l-1.3,12.274a10.776,10.776,0,0,0-2.66-2.658,10.3,10.3,0,0,0-5.72-1.644,11.631,11.631,0,0,0-7.189,2.394,11.391,11.391,0,0,0-4.589,8.3c-.059.6-.086,1.024-.086,1.282s0,.457,0,.591a8.547,8.547,0,0,0,2.88,6.344,9.74,9.74,0,0,0,6.728,2.453,12.394,12.394,0,0,0,6.064-1.648A10.92,10.92,0,0,0,45.327,28.6a14.676,14.676,0,0,0,1.621-1.575L45.644,39.3c-.969.365-1.847.667-2.639.908s-1.6.447-2.417.623a22.042,22.042,0,0,1-4.461.46A19.946,19.946,0,0,1,29.186,40.049Zm96.9.2h-6.9s-9.623-19.2-9.831-19.707c-.71-1.727.422-1.97,1.426-2.034a13.8,13.8,0,0,0,1.518-.213c.007,0,.015,0,.02,0a5.612,5.612,0,0,0,2.67-1.167,5.373,5.373,0,0,0,1.269-1.648,5.293,5.293,0,0,0,.653-1.934,4.348,4.348,0,0,0,.01-.576,5.694,5.694,0,0,0-.05-.635,6.031,6.031,0,0,0-.2-.738,5.6,5.6,0,0,0-.362-.881,2.941,2.941,0,0,0-.562-.72q-1.261-1.361-4.492-1.358h-4.317L105.9,18.478l-.717,6.649,0-.009-1.607,15.13H93.319L97.156,4.176A3.724,3.724,0,0,1,100.887.837h14.976a15.729,15.729,0,0,1,6.039,1,8.458,8.458,0,0,1,3.837,3.193,9.843,9.843,0,0,1,1.6,3.693,10.363,10.363,0,0,1,.219,1.273c.052.48.091.96.109,1.443a13.76,13.76,0,0,1-.036,1.53,13.844,13.844,0,0,1-1.337,4.663A10.618,10.618,0,0,1,122.09,21.6v0c-1.5.984-2.918.627-1.02,3.608l8.677,15.037Zm-47.556,0-1.8-6.873H62.588l-3.457,6.873H48.307L66.235,3.731A5.194,5.194,0,0,1,70.926.837h7.9L89.48,40.248ZM66.243,25.58h8.546L71.865,13.023ZM0,40.248,3.947,3.125A2.552,2.552,0,0,1,6.505.837h7.937L10.247,40.248Z" transform="translate(9.977 59.463)" fill="#fff" stroke="rgba(0,0,0,0)" stroke-width="1"/>
</svg>
