<svg xmlns="http://www.w3.org/2000/svg" width="136" height="136" viewBox="0 0 136 136">
  <g id="pattern" transform="translate(14189 15263)">
    <rect id="boundingbox" width="136" height="136" transform="translate(-14189 -15263)" fill="#191919" opacity="0"/>
    <path id="pattern-2" data-name="pattern" d="M102,104v-2h2v2Zm-34,0v-2h2v2Zm-34,0v-2h2v2ZM0,104v-2H2v2ZM102,70V68h2v2ZM68,70V68h2v2ZM34,70V68h2v2ZM0,70V68H2v2ZM102,36V34h2v2ZM68,36V34h2v2ZM34,36V34h2v2ZM0,36V34H2v2ZM102,2V0h2V2ZM68,2V0h2V2ZM34,2V0h2V2ZM0,2V0H2V2Z" transform="translate(-14189 -15263)" fill="#e5e5e5"/>
  </g>
</svg>
