<svg id="Group_18722" data-name="Group 18722" xmlns="http://www.w3.org/2000/svg" width="24" height="24" viewBox="0 0 24 24">
  <rect id="Rectangle_5782" data-name="Rectangle 5782" width="24" height="24" fill="#fff" stroke="#f15a29"/>
  <g id="icar-logomark" transform="translate(4 4)">
    <rect id="boundingbox" width="16" height="16" fill="#fff" opacity="0"/>
    <path id="logomark" d="M9,11.523,10.205,0a5.793,5.793,0,0,1-.591,11.556A5.854,5.854,0,0,1,9,11.523ZM5.209.5a5.713,5.713,0,0,1,3.556,5.34,5.716,5.716,0,0,1-4.689,5.51ZM1.052.962A5.584,5.584,0,0,1,3.822,5.84,5.617,5.617,0,0,1,0,11.045Z" transform="translate(0.296 2.222)" fill="#f15a29" stroke="rgba(0,0,0,0)" stroke-miterlimit="10" stroke-width="1"/>
  </g>
</svg>