<svg xmlns="http://www.w3.org/2000/svg" width="50" height="50" viewBox="0 0 50 50">
  <g id="Group_19103" data-name="Group 19103" transform="translate(1 1)">
    <path id="Path_46490" data-name="Path 46490" d="M0,0H48V48H0Z" fill="#fff" stroke="#010001" stroke-linecap="round" stroke-linejoin="round" stroke-width="2" opacity="0"/>
    <path id="Union_74" data-name="Union 74" d="M16.828,38.055a4.008,4.008,0,0,1,2-3.465V30.459a7.9,7.9,0,0,0-3.6,2.023l-1.416,1.383L1.465,21.51.008,20.23l.082-.1L0,20.053l1.375-1.375a26.008,26.008,0,0,1,17.451-8.67v-.17a6.017,6.017,0,0,0-.6-2.514l-.875-1.8,3.27-1.576.078-.162.131.063.129-.062.078.162L24.3,5.521l-.873,1.8a6.006,6.006,0,0,0-.6,2.5v.184a26,26,0,0,1,17.5,8.721l1.246,1.408L27.842,33.865l-1.414-1.383a7.9,7.9,0,0,0-3.6-2.023v4.129a4,4,0,1,1-6,3.467ZM27.705,28.35l8.33-8.328a22,22,0,0,0-13.207-6.006V26.357A11.934,11.934,0,0,1,27.705,28.35ZM5.629,20.021l8.328,8.328a11.947,11.947,0,0,1,4.869-1.99V14.016A22,22,0,0,0,5.629,20.021Zm29.176-8,.025-2a6.006,6.006,0,0,0-.6-2.7l-.873-1.8,3.6-1.738.873,1.795a10.091,10.091,0,0,1,1,4.5L38.8,12.08ZM2.83,10.074a9.962,9.962,0,0,1,1-4.5l.873-1.795L8.3,5.521l-.873,1.8a6,6,0,0,0-.6,2.7l.023,2-4,.057Zm27.5-5.887a6.094,6.094,0,0,0-3,0l-1.941.5L24.4.816l1.932-.5a10.072,10.072,0,0,1,5,0l1.941.5-1,3.873Zm-16,0a6.094,6.094,0,0,0-3,0l-1.934.5-1-3.873,1.932-.5a10.1,10.1,0,0,1,5.006,0l1.934.5-1,3.873Z" transform="translate(3.17 1.949)" fill="#fff"/>
  </g>
</svg>
