<svg xmlns="http://www.w3.org/2000/svg" width="50" height="50" viewBox="0 0 50 50">
  <g id="Group_19105" data-name="Group 19105" transform="translate(1 1)">
    <path id="Path_46492" data-name="Path 46492" d="M0,0H48V48H0Z" fill="#fff" stroke="#010001" stroke-linecap="round" stroke-linejoin="round" stroke-width="2" opacity="0"/>
    <path id="Path_46493" data-name="Path 46493" d="M36.084,42.329A6.2,6.2,0,0,1,31.67,40.5L20.615,29.446a14.005,14.005,0,0,1-14.6-3.289A14.023,14.023,0,0,1,3.279,10.224,2,2,0,0,1,6.5,9.672l6.414,6.414h3.172V12.914L9.67,6.5a2,2,0,0,1,.552-3.219A14,14,0,0,1,26.155,6.015a14.026,14.026,0,0,1,3.287,14.6L40.5,31.672a6.243,6.243,0,0,1-4.414,10.657Zm-15-17.243a2,2,0,0,1,1.415.586l12,12A2.243,2.243,0,0,0,37.67,34.5l-12-12a2,2,0,0,1-.391-2.276A10.007,10.007,0,0,0,14.839,6.013L19.5,10.672a2,2,0,0,1,.586,1.414v6a2,2,0,0,1-2,2h-6A2,2,0,0,1,10.67,19.5L6.014,14.845a10,10,0,0,0,9.9,11.413,9.917,9.917,0,0,0,4.306-.977A2,2,0,0,1,21.083,25.086Z" transform="translate(1.916 1.914)" fill="#fff"/>
  </g>
</svg>
