<svg xmlns="http://www.w3.org/2000/svg" width="50" height="50" viewBox="0 0 50 50">
  <g id="Group_19102" data-name="Group 19102" transform="translate(1 1)">
    <path id="Path_46489" data-name="Path 46489" d="M0,0H48V48H0Z" fill="#fff" stroke="#010001" stroke-linecap="round" stroke-linejoin="round" stroke-width="2" opacity="0"/>
    <path id="Union_73" data-name="Union 73" d="M22,34a5.971,5.971,0,0,1,.344-2H11.652A6,6,0,1,1,4,28.348V4H0V0H6A2.006,2.006,0,0,1,8,2V20H30.266L32.3,5.738l3.963.568L33.979,22.289A1.994,1.994,0,0,1,32,24H8v4H30v.344A6,6,0,1,1,22,34Zm4,0a2,2,0,1,0,2-2A2.007,2.007,0,0,0,25.994,34ZM4,34a2,2,0,1,0,2-2A2.007,2.007,0,0,0,4,34ZM22,15a3,3,0,1,1,3,3A3,3,0,0,1,22,15ZM12.58,14.59l12-12,2.828,2.82-12,12ZM12,5a3,3,0,1,1,3,3A3,3,0,0,1,12,5Z" transform="translate(6.002 3.996)" fill="#fff"/>
  </g>
</svg>
