<svg xmlns="http://www.w3.org/2000/svg" width="50" height="50" viewBox="0 0 50 50">
  <g id="Group_19104" data-name="Group 19104" transform="translate(1 1)">
    <path id="Path_46491" data-name="Path 46491" d="M0,0H48V48H0Z" fill="#fff" stroke="#010001" stroke-linecap="round" stroke-linejoin="round" stroke-width="2" opacity="0"/>
    <path id="Union_75" data-name="Union 75" d="M1.7,39.5A3.391,3.391,0,0,1,0,36.559V3.4A3.4,3.4,0,0,1,5.105.459L34.342,17.291a3.106,3.106,0,0,1,.008,5.379L5.1,39.51A3.384,3.384,0,0,1,1.7,39.5ZM4,32.92,15.816,19.984,4,7.043Zm6.406-1.082,10.641-6.125-2.523-2.764ZM24.594,23.67l6.4-3.686-6.4-3.684-3.365,3.684Zm-6.072-6.648,2.525-2.764L10.406,8.133Z" transform="translate(5.998 4.018)" fill="#fff"/>
  </g>
</svg>
