<svg xmlns="http://www.w3.org/2000/svg" width="231.716" height="96" viewBox="0 0 231.716 96">
  <g id="Group_18815" data-name="Group 18815" transform="translate(-552.736 -387.17)">
    <path id="Path_46066" data-name="Path 46066" d="M606.025,402.809c-1.256,20.432-17.351,53.08-33.788,64.153-.8.569-.913.912-.571,1.712q.514,1.369,1.027,2.74a28.406,28.406,0,0,0,3.654,7.762,4.346,4.346,0,0,0,1.826,1.256c.457.114.8.228.914.114a1.721,1.721,0,0,0,.457-.913c.114-.685.342-1.371,1.141-1.371a.686.686,0,0,1,.457.114,2.014,2.014,0,0,1,.914,1.712,2.978,2.978,0,0,1-1.256,2.4,3.187,3.187,0,0,1-2.054.684c-.228,0-.457-.114-.685-.114a5.566,5.566,0,0,1-3.88-2.854c-1.256-2.283-2.4-4.565-3.311-6.621-.343-.914-.571-1.712-.913-2.625a3.325,3.325,0,0,1-.228-1.027c-.228-.571-.457-1.027-.457-1.027a5.109,5.109,0,0,0-.913.228l-.343.114a15.308,15.308,0,0,1-3.082.8c-4.68,0-7.533-1.712-9.474-6.165s-2.283-9.132-.913-14.954c.114-.342.228-.8.343-1.141a2.86,2.86,0,0,0-.228-2.853,17.369,17.369,0,0,1-1.827-10.274c1.712-18.949,20.776-47.486,40.752-47.486,6.849,0,11.073,3.652,12.1,10.5.114,1.142.229,2.4.343,3.539Zm-38.925,27.4c0,1.826-.114,3.424-.114,5.137l-.228,2.054a146.07,146.07,0,0,0,3.767,26.6c0,.228.114.8.114.914a10.216,10.216,0,0,1,2.168-1.712,63.264,63.264,0,0,0,5.708-5.365c12.9-14.269,23.4-35.387,24.771-54.792a18.643,18.643,0,0,0-.913-7.306,7.706,7.706,0,0,0-7.192-5.593,9.217,9.217,0,0,0-1.826-.114c-4.11,0-8.219,1.37-12.558,4.224-12.556,8.1-22.373,23.971-24.884,38.582-.571,3.653-.8,6.736.571,9.7,0,.114.114.114.228.114a78.061,78.061,0,0,1,7.419-13.241v-.114c.571-.8.8-1.027,1.827-1.027A1.661,1.661,0,0,1,567.1,430.205Zm-8.9,33.216a7.034,7.034,0,0,0,5.936,4.109,3.328,3.328,0,0,1,1.027-.228,17.281,17.281,0,0,0,2.283-.684c1.028-.343,1.028-.343.914-1.6a138.309,138.309,0,0,1-3.311-20.2c-.114-2.169-.228-4.109-.456-6.165,0-1.37-.228-2.739-.228-4.109,0-.114-.114-.228-.114-.343-.114.114-.228.114-.228.228-1.6,2.968-3.2,6.165-4.908,9.36a3.335,3.335,0,0,0-.228,1.028.4.4,0,0,1-.114.228c.913,0,2.4.57,2.4,1.6a1.831,1.831,0,0,1-1.712,1.6,4.058,4.058,0,0,1-1.142-.228h-.456c-.343,0-.343.343-.457.571C555.913,454.4,556.142,459.085,558.2,463.422Z" transform="translate(0)" fill="#fff"/>
    <path id="Path_46067" data-name="Path 46067" d="M620.561,457.605c0-.114-.114-.343-.114-.457h-.114v-.114a1.919,1.919,0,0,0,.228-.57c.228-.914.8-2.055,1.827-2.055a1.616,1.616,0,0,1,.684.228,1.447,1.447,0,0,1,.685,2.055,6.671,6.671,0,0,1-1.256,1.483c-.343.228-.571.457-.914.457a1.62,1.62,0,0,1-.685-.228C620.676,458.176,620.676,457.834,620.561,457.605Z" transform="translate(-6.316 -6.283)" fill="#fff"/>
    <path id="Path_46068" data-name="Path 46068" d="M714.393,395.725c-6.392,0-12.67.457-19.176,1.027-3.311.343-6.735.685-10.046,1.028-2.968.228-5.935.57-8.9.913a3.144,3.144,0,0,0-3.081,1.94c-2.968,5.365-5.936,10.73-8.9,15.981-2.055,3.768-4.224,7.534-6.392,11.415l-1.028,1.827c-6.963,12.556-14.155,25.684-20.319,38.925l-.114.114q-.514,1.2-1.027,2.4a1.665,1.665,0,0,1-.913,1.028c-.114.114-.228.114-.457.114a1.03,1.03,0,0,1-.571-.114,1.208,1.208,0,0,1-.8-.685c-.228-.456,0-.913.228-1.484.457-.913.913-1.712,1.37-2.624.8-1.712,1.6-3.426,2.511-5.137,6.621-12.9,13.355-25.684,20.433-38.355.685-1.141,1.256-2.169,1.826-3.31l.229-.228c0-.114.228-.343.228-.456-.57-1.028,0-1.712.343-2.4.114-.228.114-.457.228-.685a9.536,9.536,0,0,0,.57-3.31c-.113-3.652-2.283-6.621-4.794-9.132l-.343-.228c-2.283-2.284-4.452-3.882-7.306-3.882a8.8,8.8,0,0,0-1.712.228,60.009,60.009,0,0,1-10.046-1.026,4.962,4.962,0,0,1-2.4-1.028,2.308,2.308,0,0,1-1.141-2.283,2.357,2.357,0,0,1,1.712-1.712,12.858,12.858,0,0,1,3.653-.456H639.4a28.6,28.6,0,0,1,10.958,3.31,6.4,6.4,0,0,0,1.712.457c4.108,0,8.219-.228,12.214-.457,1.712-.114,3.424-.114,5.022-.228.684,0,.913-.114,1.256-.8a6.674,6.674,0,0,1,1.6-2.054,1.521,1.521,0,0,0,.343-.571,1.582,1.582,0,0,1,1.14-.571,2.4,2.4,0,0,1,1.256.457,1.732,1.732,0,0,1,.913,2.168,1.447,1.447,0,0,0-.114.684c.228,0,.57.114.8.114l6.507-.684c3.082-.228,6.049-.685,9.132-.8,9.133-.912,18.265-1.6,27.51-1.6,1.028.114,2.169.343,2.855.457.456.114,1.026.343,1.14.684a1.151,1.151,0,0,1-.114,1.027c-.228.457-.8.457-1.255.457h-.343c-.456,0-.913-.114-1.37-.114-.457-.114-.914-.114-1.256-.228C717.7,395.725,715.991,395.725,714.393,395.725Zm-75.339.913c-.456,0-.913-.114-1.256-.114-.684,0-1.027.114-.684.343a12.138,12.138,0,0,0,5.137,1.142c.8,0,1.255-.114,1.255-.343C643.506,397.095,641,396.867,639.054,396.638Zm31.62,2.741c-.114-.114-.114-.114-.228-.114a26.694,26.694,0,0,1-4.338.343c-1.712.114-3.424.343-5.251.457-1.712.113-3.538.113-5.251.341h-.228c.114,0,.114.114.114.228.229,0,.343.228.457.228l.227.114c4.339,3.311,6.622,7.192,7.306,11.758,2.4-4.338,4.68-8.676,7.078-12.9C670.56,399.607,670.674,399.493,670.674,399.379Z" transform="translate(-7.46 -0.565)" fill="#fff"/>
    <path id="Path_46069" data-name="Path 46069" d="M684.577,433.581c0-.571-.114-1.027-.342-1.141a1.886,1.886,0,0,0-1.028.57,30.283,30.283,0,0,0-4.337,3.538c-1.713,1.712-3.2,3.426-4.795,5.137a34.32,34.32,0,0,0-2.854,2.968,27.4,27.4,0,0,1-2.854,2.625,1.6,1.6,0,0,1-1.027.342,1.03,1.03,0,0,1-.571-.114c-.343-.228-.228-1.14-.228-1.483.457-.913.914-1.827,1.485-2.854,3.652-6.279,7.191-12.556,10.958-18.72,5.478-9.246,10.843-18.264,16.208-27.51a32.511,32.511,0,0,0,1.827-3.424c.114-.343.8-1.713.8-1.941.457-.571.8-1.141,1.256-1.256h.229a1.644,1.644,0,0,1,.8.228c1.028.57.571,1.37.228,2.168-5.137,8.333-27.966,46.231-27.966,47.486-.114.571,1.142-1.027,1.37-1.256,4-3.881,4.452-5.365,9.36-8.332a3.123,3.123,0,0,1,1.6-.457c1.37,0,1.6,1.255,1.712,2.4v.114a1.025,1.025,0,0,1,.114.57c-.114,1.256,0,1.827.342,2.055.114,0,.229.114.343.114,1.256,0,11.415-5.708,12.785-6.506a8.986,8.986,0,0,1,2.625-1.028h.343c.913,0,1.141,1.142,0,1.713-2.855,1.6-7.306,4.224-10.388,5.593l-2.511,1.142a6.894,6.894,0,0,1-2.968.912,2.148,2.148,0,0,1-.913-.228C685.262,436.662,684.92,435.522,684.577,433.581Z" transform="translate(-10.632 -0.294)" fill="#fff"/>
    <path id="Path_46070" data-name="Path 46070" d="M739.522,432.068c0,.571-.685.913-1.141,1.141-3.311,1.142-6.621,2.625-10.046,3.31a22.152,22.152,0,0,1-2.74.228c-2.854,0-6.962-1.027-8.333-3.881a.613.613,0,0,0-.456-.342c-.457,0-1.028.57-1.371.684-.8.457-1.712,1.028-2.51,1.484-3.312,1.94-6.507,3.881-9.931,5.707a3.22,3.22,0,0,1-1.712.457,2.578,2.578,0,0,1-1.941-.685c-1.027-1.483-.8-3.081.685-4.68,2.283-2.511,6.963-6.392,10.616-6.392a5.634,5.634,0,0,1,3.881,1.6.989.989,0,0,0,.684.342,1.523,1.523,0,0,0,.8-.342,2.627,2.627,0,0,1,1.6-.457c.685.114.914,1.141,1.255,1.712a7.3,7.3,0,0,0,1.941,1.827,9.548,9.548,0,0,0,3.538.913,20.074,20.074,0,0,0,4.567-.342,57.425,57.425,0,0,0,8.561-2.741,5.732,5.732,0,0,1,1.37-.228A1.333,1.333,0,0,1,739.522,432.068Zm-27.4-.457a1.941,1.941,0,0,0-.8-.114c-2.4,0-5.479,1.941-7.192,3.311-.571.456-2.74,2.168-2.74,2.854,0,.228.114.228.343.228a1.692,1.692,0,0,0,.685-.114c1.6-.343,7.3-3.881,8.9-4.795a1.584,1.584,0,0,0,.913-.8A.4.4,0,0,0,712.126,431.611Z" transform="translate(-13.64 -3.918)" fill="#fff"/>
    <path id="Path_46071" data-name="Path 46071" d="M739.687,441.374l-2.511,2.511a1.646,1.646,0,0,1-1.256.8.738.738,0,0,1-.571-.228c-1.37-.8-.229-1.827,0-2.4,1.6-3.767,3.767-7.306,5.593-10.958l1.827-3.538a1.559,1.559,0,0,0,.342-.457c.228-.342.571-.913,1.028-1.027h.228a1.037,1.037,0,0,1,.8.343c1.027.684.457,1.712.114,2.284-1.6,2.51-3.2,5.251-4.681,7.875a.2.2,0,1,0,.229.228c1.941-1.941,4.795-4.451,7.648-4.451,1.713,0,3.425,1.027,4.909,2.853,1.141,1.6,1.826,2.284,2.854,2.284a9.482,9.482,0,0,0,2.739-.8c.914-.343,1.713-.8,2.512-1.141a59.287,59.287,0,0,1,12.443-4.224c.342,0,.684-.114,1.141-.114.684,0,1.37.228,1.37,1.028a1.372,1.372,0,0,1-.228.913,1.448,1.448,0,0,1-1.028.457,31.39,31.39,0,0,0-10.273,2.967c-2.4,1.142-6.848,2.969-8.675,3.083a3.962,3.962,0,0,1-3.538-1.828,3.005,3.005,0,0,1-.571-.684c-.343-.457-.8-.914-1.141-1.37a2.965,2.965,0,0,0-2.284-1.142,3.94,3.94,0,0,0-1.483.343A28.774,28.774,0,0,0,739.687,441.374Z" transform="translate(-17.002 -3.636)" fill="#fff"/>
    <path id="Path_46072" data-name="Path 46072" d="M801.857,433.278a117.925,117.925,0,0,0-18.379,10.616,15.4,15.4,0,0,0-3.2,2.854,29.5,29.5,0,0,0-2.169,3.538c-3.881,6.164-15.639,25.113-23.173,25.113a3.367,3.367,0,0,1-1.484-.571c-1.37-1.141-.913-3.082-.228-4.565,3.652-7.192,16.323-18.036,22.488-22.945a22.107,22.107,0,0,0,3.2-2.511c1.827-2.054,3.081-5.023,4.452-7.419,1.37-2.626,2.625-5.251,4.108-7.763a12.916,12.916,0,0,0-2.282,1.484c-1.6,1.142-3.2,2.512-4.795,3.653-.913.685-4,2.512-5.251,2.512a2.263,2.263,0,0,1-1.484-.685,3.484,3.484,0,0,1-.114-2.168,5.108,5.108,0,0,1,1.256-1.6,15.673,15.673,0,0,1,9.246-3.539,2.153,2.153,0,0,0,1.028-.456c.8-.684,1.483-1.256,1.94-1.6a7.345,7.345,0,0,0,1.484-1.141,14.242,14.242,0,0,1,1.37-.914,2.151,2.151,0,0,1,.914-.228.87.87,0,0,1,.57.228c.57.457,0,1.485-.229,1.941-1.484,2.968-3.082,5.936-4.68,8.79l-1.712,3.082c-.343.457-.571,1.026-.914,1.483a13.731,13.731,0,0,0-.57,1.256c2.055-1.256,2.968-1.941,4.337-2.739a101.859,101.859,0,0,1,13.356-7.42,2.3,2.3,0,0,1,1.255-.343c.457,0,.8.114.914.571C803.226,432.478,802.54,433.05,801.857,433.278Zm-25.912,16.78c-4.453,3.539-20.662,17.579-21.232,22.487a.838.838,0,0,0,.685.914,1.449,1.449,0,0,0,.685-.114C764.529,468.208,771.035,458.391,775.945,450.058Zm2.967-16.78c-.229-.343-2.169.685-2.625,1.369v.114C776.857,434.533,778.341,433.507,778.912,433.278Z" transform="translate(-18.673 -3.53)" fill="#fff"/>
  </g>
</svg>
